<?xml version="1.0" standalone="no"?><!DOCTYPE svg PUBLIC "-//W3C//DTD SVG 1.1//EN" "http://www.w3.org/Graphics/SVG/1.1/DTD/svg11.dtd" ><svg version="1.1" xmlns="http://www.w3.org/2000/svg"><defs><font horiz-adv-x="0" id="font"><font-face ascent="972" bbox="-133 -302 1408 953" cap-height="700" descent="-226" font-family="Honeywell Sans Web" font-stretch="normal" font-style="italic" font-weight="700" units-per-em="1000" x-height="491" /><missing-glyph d="M110 0V700H804V0ZM502 347 729 88V606ZM253 64H661L456 299ZM458 396 666 636H250ZM413 347 185 607V87Z" horiz-adv-x="914" /><glyph d="M0 0Z" glyph-name=".ttfautohint" horiz-adv-x="363" /><glyph d="M378 590 203 224H440ZM476 0 455 131H158L95 0H-21L326 700H467L593 0Z" glyph-name="A" horiz-adv-x="647" unicode="A" /><glyph d="M381 590 201 224H436ZM469 0 449 131H155L91 0H-26L329 700H962L947 604H491L523 401H863L848 304H539L572 96H876L861 0Z" glyph-name="AE" horiz-adv-x="946" unicode="&#198;" /><glyph d="M0 0ZM378 590 203 224H440ZM476 0 455 131H158L95 0H-21L326 700H467L593 0ZM455 906H585L584 900L450 783H357V787Z" glyph-name="Aacute" horiz-adv-x="647" unicode="&#193;" /><glyph d="M0 0ZM378 590 203 224H440ZM476 0 455 131H158L95 0H-21L326 700H467L593 0ZM499 906H576Q571 869 557 844Q543 819 522 804Q501 789 472 783Q443 777 408 777Q373 777 345.5 783Q318 789 301 804Q284 819 277 844Q270 869 275 906H352Q345 868 361 854.5Q377 841 414 841Q451 841 472 854.5Q493 868 499 906Z" glyph-name="Abreve" horiz-adv-x="647" unicode="&#258;" /><glyph d="M0 0ZM378 590 203 224H440ZM476 0 455 131H158L95 0H-21L326 700H467L593 0ZM416 848 340 783H234V786L373 906H472L573 786V783H470Z" glyph-name="Acircumflex" horiz-adv-x="647" unicode="&#194;" /><glyph d="M0 0ZM378 590 203 224H440ZM476 0 455 131H158L95 0H-21L326 700H467L593 0ZM503 786Q444 786 444 838Q444 876 465 894.5Q486 913 518 913Q578 913 578 860Q578 823 557.5 804.5Q537 786 503 786ZM317 786Q258 786 258 838Q258 877 279.5 895Q301 913 333 913Q392 913 392 861Q392 823 372 804.5Q352 786 317 786Z" glyph-name="Adieresis" horiz-adv-x="647" unicode="&#196;" /><glyph d="M0 0ZM378 590 203 224H440ZM476 0 455 131H158L95 0H-21L326 700H467L593 0ZM370 783 268 900 269 906H399L457 787V783Z" glyph-name="Agrave" horiz-adv-x="647" unicode="&#192;" /><glyph d="M0 0ZM378 590 203 224H440ZM476 0 455 131H158L95 0H-21L326 700H467L593 0ZM554 876 542 807H280L291 876Z" glyph-name="Amacron" horiz-adv-x="647" unicode="&#256;" /><glyph d="M500 -218Q479 -218 459 -213.5Q439 -209 423.5 -198Q408 -187 398.5 -168Q389 -149 389 -120Q389 -71 413.5 -36Q438 -1 473 19L455 131H158L95 0H-21L326 700H467L593 0H563Q540 -2 521.5 -12Q503 -22 490 -36.5Q477 -51 470.5 -68.5Q464 -86 464 -103Q464 -128 477.5 -137.5Q491 -147 514 -147Q551 -147 581 -130L592 -194Q550 -218 500 -218ZM378 590 203 224H440Z" glyph-name="Aogonek" horiz-adv-x="647" unicode="&#260;" /><glyph d="M0 0ZM378 590 203 224H440ZM476 0 455 131H158L95 0H-21L326 700H467L593 0ZM405 758Q366 758 340.5 779.5Q315 801 315 841Q315 866 323.5 886.5Q332 907 347.5 922Q363 937 383.5 945Q404 953 428 953Q469 953 493.5 930.5Q518 908 518 870Q518 819 485.5 788.5Q453 758 405 758ZM425 905Q402 905 386 888.5Q370 872 370 845Q370 827 380.5 816Q391 805 408 805Q429 805 446 821.5Q463 838 463 866Q463 884 452.5 894.5Q442 905 425 905Z" glyph-name="Aring" horiz-adv-x="647" unicode="&#197;" /><glyph d="M0 0ZM378 590 203 224H440ZM476 0 455 131H158L95 0H-21L326 700H467L593 0ZM511 900H585Q583 869 572.5 848Q562 827 546 814.5Q530 802 511.5 796.5Q493 791 476 791Q455 791 438 797Q421 803 406.5 810.5Q392 818 379 824Q366 830 353 830Q335 830 327.5 819Q320 808 318 794H243Q246 825 256.5 846Q267 867 282 879.5Q297 892 315 897.5Q333 903 351 903Q372 903 389 897Q406 891 421 883.5Q436 876 449.5 870Q463 864 476 864Q493 864 501 875Q509 886 511 900Z" glyph-name="Atilde" horiz-adv-x="647" unicode="&#195;" /><glyph d="M60 0 171 700H476Q524 700 558 689.5Q592 679 613 659.5Q634 640 644 613.5Q654 587 654 554Q654 484 621.5 434.5Q589 385 532 362Q579 351 600.5 314.5Q622 278 622 233Q622 176 603.5 132Q585 88 550.5 59Q516 30 467.5 15Q419 0 358 0ZM451 608H267L235 402H417Q449 402 472 412.5Q495 423 510 441Q525 459 532.5 482Q540 505 540 530Q540 570 517 589Q494 608 451 608ZM407 309H221L186 91H367Q433 91 471 125Q509 159 509 228Q509 267 485 288Q461 309 407 309Z" glyph-name="B" horiz-adv-x="686" unicode="B" /><glyph d="M352 -13Q211 -13 141.5 48.5Q72 110 72 250Q72 276 73.5 299Q75 322 79 351Q92 448 123 517Q154 586 200 629.5Q246 673 307 693Q368 713 442 713Q548 713 606.5 673Q665 633 690 554L591 508Q571 570 534 594Q497 618 433 618Q389 618 351 606Q313 594 282 563.5Q251 533 229 481.5Q207 430 194 351Q190 324 188 299.5Q186 275 186 253Q186 204 197.5 171Q209 138 231.5 118Q254 98 286 89.5Q318 81 360 81Q419 81 468 102Q517 123 555 182L634 121Q609 82 578.5 56.5Q548 31 512.5 15.5Q477 0 436.5 -6.5Q396 -13 352 -13Z" glyph-name="C" horiz-adv-x="685" unicode="C" /><glyph glyph-name="CR" horiz-adv-x="176" unicode="" /><glyph d="M72 0ZM511 907H641L640 901L506 784H413V788ZM352 -13Q211 -13 141.5 48.5Q72 110 72 250Q72 276 73.5 299Q75 322 79 351Q92 448 123 517Q154 586 200 629.5Q246 673 307 693Q368 713 442 713Q548 713 606.5 673Q665 633 690 554L591 508Q571 570 534 594Q497 618 433 618Q389 618 351 606Q313 594 282 563.5Q251 533 229 481.5Q207 430 194 351Q190 324 188 299.5Q186 275 186 253Q186 204 197.5 171Q209 138 231.5 118Q254 98 286 89.5Q318 81 360 81Q419 81 468 102Q517 123 555 182L634 121Q609 82 578.5 56.5Q548 31 512.5 15.5Q477 0 436.5 -6.5Q396 -13 352 -13Z" glyph-name="Cacute" horiz-adv-x="685" unicode="&#262;" /><glyph d="M72 0ZM417 784 315 905 316 907H420L472 844L548 907H654V905L515 784ZM352 -13Q211 -13 141.5 48.5Q72 110 72 250Q72 276 73.5 299Q75 322 79 351Q92 448 123 517Q154 586 200 629.5Q246 673 307 693Q368 713 442 713Q548 713 606.5 673Q665 633 690 554L591 508Q571 570 534 594Q497 618 433 618Q389 618 351 606Q313 594 282 563.5Q251 533 229 481.5Q207 430 194 351Q190 324 188 299.5Q186 275 186 253Q186 204 197.5 171Q209 138 231.5 118Q254 98 286 89.5Q318 81 360 81Q419 81 468 102Q517 123 555 182L634 121Q609 82 578.5 56.5Q548 31 512.5 15.5Q477 0 436.5 -6.5Q396 -13 352 -13Z" glyph-name="Ccaron" horiz-adv-x="685" unicode="&#268;" /><glyph d="M304 -239Q264 -239 232.5 -223Q201 -207 187 -174L240 -130Q251 -153 266 -165.5Q281 -178 310 -178Q333 -178 349 -167.5Q365 -157 365 -136Q365 -114 345.5 -106.5Q326 -99 299 -100L282 -88L315 -12Q192 -4 132 57.5Q72 119 72 250Q72 276 73.5 299Q75 322 79 351Q92 448 123 517Q154 586 200 629.5Q246 673 307 693Q368 713 442 713Q548 713 606.5 673Q665 633 690 554L591 508Q571 570 534 594Q497 618 433 618Q389 618 351 606Q313 594 282 563.5Q251 533 229 481.5Q207 430 194 351Q190 324 188 299.5Q186 275 186 253Q186 204 197.5 171Q209 138 231.5 118Q254 98 286 89.5Q318 81 360 81Q419 81 468 102Q517 123 555 182L634 121Q588 50 524.5 21Q461 -8 383 -12L360 -56Q392 -59 415.5 -79Q439 -99 439 -135Q439 -161 428 -180.5Q417 -200 398.5 -213Q380 -226 355.5 -232.5Q331 -239 304 -239Z" glyph-name="Ccedilla" horiz-adv-x="685" unicode="&#199;" /><glyph d="M72 0ZM473 849 397 784H291V787L430 907H529L630 787V784H527ZM352 -13Q211 -13 141.5 48.5Q72 110 72 250Q72 276 73.5 299Q75 322 79 351Q92 448 123 517Q154 586 200 629.5Q246 673 307 693Q368 713 442 713Q548 713 606.5 673Q665 633 690 554L591 508Q571 570 534 594Q497 618 433 618Q389 618 351 606Q313 594 282 563.5Q251 533 229 481.5Q207 430 194 351Q190 324 188 299.5Q186 275 186 253Q186 204 197.5 171Q209 138 231.5 118Q254 98 286 89.5Q318 81 360 81Q419 81 468 102Q517 123 555 182L634 121Q609 82 578.5 56.5Q548 31 512.5 15.5Q477 0 436.5 -6.5Q396 -13 352 -13Z" glyph-name="Ccircumflex" horiz-adv-x="685" unicode="&#264;" /><glyph d="M72 0ZM352 -13Q211 -13 141.5 48.5Q72 110 72 250Q72 276 73.5 299Q75 322 79 351Q92 448 123 517Q154 586 200 629.5Q246 673 307 693Q368 713 442 713Q548 713 606.5 673Q665 633 690 554L591 508Q571 570 534 594Q497 618 433 618Q389 618 351 606Q313 594 282 563.5Q251 533 229 481.5Q207 430 194 351Q190 324 188 299.5Q186 275 186 253Q186 204 197.5 171Q209 138 231.5 118Q254 98 286 89.5Q318 81 360 81Q419 81 468 102Q517 123 555 182L634 121Q609 82 578.5 56.5Q548 31 512.5 15.5Q477 0 436.5 -6.5Q396 -13 352 -13ZM466 787Q406 787 406 840Q406 879 428 896.5Q450 914 482 914Q543 914 543 860Q543 824 521.5 805.5Q500 787 466 787Z" glyph-name="Cdotaccent" horiz-adv-x="685" unicode="&#266;" /><glyph d="M331 0H60L189 700H439Q571 700 635 641Q699 582 699 454Q699 435 697 407.5Q695 380 691 354Q664 171 573 85.5Q482 0 331 0ZM189 97H337Q380 97 418.5 109Q457 121 488 150.5Q519 180 541.5 228.5Q564 277 576 350Q579 370 581 394Q583 418 583 437Q583 527 542.5 565Q502 603 427 603H270Z" glyph-name="D" horiz-adv-x="741" unicode="D" /><glyph d="M60 0ZM411 783 309 904 310 906H414L466 843L542 906H648V904L509 783ZM331 0H60L189 700H439Q571 700 635 641Q699 582 699 454Q699 435 697 407.5Q695 380 691 354Q664 171 573 85.5Q482 0 331 0ZM189 97H337Q380 97 418.5 109Q457 121 488 150.5Q519 180 541.5 228.5Q564 277 576 350Q579 370 581 394Q583 418 583 437Q583 527 542.5 565Q502 603 427 603H270Z" glyph-name="Dcaron" horiz-adv-x="741" unicode="&#270;" /><glyph d="M342 0H70L119 310H42L57 400H133L181 700H449Q580 700 644 641Q708 582 708 454Q708 434 706 406.5Q704 379 700 354Q673 171 582 85.5Q491 0 342 0ZM199 97H347Q390 97 428.5 109Q467 121 498 150Q529 179 551.5 227.5Q574 276 585 349Q588 369 590.5 393Q593 417 593 436Q593 526 552 564.5Q511 603 437 603H280L247 400H392L377 310H232Z" glyph-name="Dcroat" horiz-adv-x="751" unicode="&#272;" /><glyph d="M60 0 171 700H678L663 604H267L235 401H580L565 304H220L187 96H592L577 0Z" glyph-name="E" horiz-adv-x="663" unicode="E" /><glyph d="M60 0ZM481 906H611L610 900L476 783H383V787ZM60 0 171 700H678L663 604H267L235 401H580L565 304H220L187 96H592L577 0Z" glyph-name="Eacute" horiz-adv-x="663" unicode="&#201;" /><glyph d="M60 0ZM60 0 171 700H678L663 604H267L235 401H580L565 304H220L187 96H592L577 0ZM525 906H602Q597 869 583 844Q569 819 548 804Q527 789 498 783Q469 777 434 777Q399 777 371.5 783Q344 789 327 804Q310 819 303 844Q296 869 301 906H378Q371 868 387 854.5Q403 841 440 841Q477 841 498 854.5Q519 868 525 906Z" glyph-name="Ebreve" horiz-adv-x="663" unicode="&#276;" /><glyph d="M60 0ZM388 783 286 904 287 906H391L443 843L519 906H625V904L486 783ZM60 0 171 700H678L663 604H267L235 401H580L565 304H220L187 96H592L577 0Z" glyph-name="Ecaron" horiz-adv-x="663" unicode="&#282;" /><glyph d="M60 0ZM444 848 368 783H262V786L401 906H500L601 786V783H498ZM60 0 171 700H678L663 604H267L235 401H580L565 304H220L187 96H592L577 0Z" glyph-name="Ecircumflex" horiz-adv-x="663" unicode="&#202;" /><glyph d="M60 0ZM529 786Q470 786 470 838Q470 876 491 894.5Q512 913 544 913Q604 913 604 860Q604 823 583.5 804.5Q563 786 529 786ZM343 786Q284 786 284 838Q284 877 305.5 895Q327 913 359 913Q418 913 418 861Q418 823 398 804.5Q378 786 343 786ZM60 0 171 700H678L663 604H267L235 401H580L565 304H220L187 96H592L577 0Z" glyph-name="Edieresis" horiz-adv-x="663" unicode="&#203;" /><glyph d="M60 0ZM60 0 171 700H678L663 604H267L235 401H580L565 304H220L187 96H592L577 0ZM436 786Q376 786 376 839Q376 878 398 895.5Q420 913 452 913Q513 913 513 859Q513 823 491.5 804.5Q470 786 436 786Z" glyph-name="Edotaccent" horiz-adv-x="663" unicode="&#278;" /><glyph d="M60 0ZM60 0 171 700H678L663 604H267L235 401H580L565 304H220L187 96H592L577 0ZM397 783 295 900 296 906H426L484 787V783Z" glyph-name="Egrave" horiz-adv-x="663" unicode="&#200;" /><glyph d="M60 0ZM60 0 171 700H678L663 604H267L235 401H580L565 304H220L187 96H592L577 0ZM582 876 570 807H308L319 876Z" glyph-name="Emacron" horiz-adv-x="663" unicode="&#274;" /><glyph d="M518 -28 523 3 250 523 171 0H60L171 700H273L553 166L634 700H745L628 -38Q614 -133 562.5 -175.5Q511 -218 437 -218Q415 -218 395.5 -214.5Q376 -211 353 -202L383 -117Q395 -122 407 -125Q419 -128 436 -128Q468 -128 489 -107.5Q510 -87 518 -28Z" glyph-name="Eng" horiz-adv-x="777" unicode="&#330;" /><glyph d="M60 0 171 700H679L664 605H270L238 401H581L566 304H222L190 95H593L578 0Q554 -2 536 -12Q518 -22 505 -36.5Q492 -51 485.5 -68.5Q479 -86 479 -103Q479 -128 492.5 -137.5Q506 -147 529 -147Q546 -147 563.5 -143Q581 -139 596 -130L606 -194Q565 -218 515 -218Q494 -218 474 -213.5Q454 -209 438.5 -198Q423 -187 413.5 -168Q404 -149 404 -120Q404 -81 420 -50.5Q436 -20 462 0Z" glyph-name="Eogonek" horiz-adv-x="663" unicode="&#280;" /><glyph d="M342 0H70L119 310H42L57 400H133L181 700H449Q580 700 644 641Q708 582 708 454Q708 434 706 406.5Q704 379 700 354Q673 171 582 85.5Q491 0 342 0ZM199 97H347Q390 97 428.5 109Q467 121 498 150Q529 179 551.5 227.5Q574 276 585 349Q588 369 590.5 393Q593 417 593 436Q593 526 552 564.5Q511 603 437 603H280L247 400H392L377 310H232Z" glyph-name="Eth" horiz-adv-x="751" unicode="&#208;" /><glyph d="M454 311 425 238H195Q196 193 208 163Q220 133 241 114.5Q262 96 292 88.5Q322 81 360 81Q416 81 460.5 101Q505 121 541 177L621 118Q597 80 567.5 55Q538 30 504.5 15Q471 0 432.5 -6.5Q394 -13 351 -13Q219 -13 152 45Q85 103 82 238H-4L8 311H83Q84 322 86 336.5Q88 351 90 363H16L28 436H105Q141 581 227 647Q313 713 443 713Q543 713 599 673.5Q655 634 678 556L578 510Q561 572 526.5 596Q492 620 434 620Q397 620 364.5 611Q332 602 305 581Q278 560 256.5 524.5Q235 489 220 436H506L476 363H204Q200 351 199 337.5Q198 324 197 311Z" glyph-name="Euro" horiz-adv-x="677" unicode="&#8364;" /><glyph d="M60 0 171 700H662L647 603H270L237 395H572L555 295H221L174 0Z" glyph-name="F" horiz-adv-x="608" unicode="F" /><glyph d="M326 -13Q201 -13 136.5 52.5Q72 118 72 256Q72 279 73.5 302Q75 325 79 351Q92 447 121 516Q150 585 195.5 628.5Q241 672 303 692.5Q365 713 444 713Q547 713 604 676.5Q661 640 686 567L587 520Q569 574 533.5 596Q498 618 435 618Q388 618 349 605.5Q310 593 279.5 562.5Q249 532 227.5 480.5Q206 429 194 351Q189 323 187.5 299Q186 275 186 255Q186 205 197 171.5Q208 138 229.5 118Q251 98 282 89Q313 80 352 80Q382 80 414 88Q446 96 474 118Q502 140 524.5 177Q547 214 558 273H387L400 362H676L618 0H530L538 94Q503 43 449 15Q395 -13 326 -13Z" glyph-name="G" horiz-adv-x="729" unicode="G" /><glyph d="M334 -13Q205 -13 138.5 53Q72 119 72 256Q72 279 73.5 302Q75 325 79 351Q92 447 121 516Q150 585 196 628.5Q242 672 304 692.5Q366 713 445 713Q547 713 603.5 676.5Q660 640 685 567L586 520Q567 574 532 596.5Q497 619 435 619Q388 619 349 606.5Q310 594 279.5 563Q249 532 227.5 480Q206 428 194 350Q185 296 185 255Q185 205 196 171.5Q207 138 228.5 118Q250 98 281 89Q312 80 352 80Q389 80 422.5 90Q456 100 483 122.5Q510 145 528.5 181.5Q547 218 555 272H387L401 362H679L668 288Q646 142 565.5 64.5Q485 -13 334 -13Z" glyph-name="G.alt" horiz-adv-x="727" /><glyph d="M72 0ZM326 -13Q201 -13 136.5 52.5Q72 118 72 256Q72 279 73.5 302Q75 325 79 351Q92 447 121 516Q150 585 195.5 628.5Q241 672 303 692.5Q365 713 444 713Q547 713 604 676.5Q661 640 686 567L587 520Q569 574 533.5 596Q498 618 435 618Q388 618 349 605.5Q310 593 279.5 562.5Q249 532 227.5 480.5Q206 429 194 351Q189 323 187.5 299Q186 275 186 255Q186 205 197 171.5Q208 138 229.5 118Q251 98 282 89Q313 80 352 80Q382 80 414 88Q446 96 474 118Q502 140 524.5 177Q547 214 558 273H387L400 362H676L618 0H530L538 94Q503 43 449 15Q395 -13 326 -13ZM546 906H623Q618 869 604 844Q590 819 569 804Q548 789 519 783Q490 777 455 777Q420 777 392.5 783Q365 789 348 804Q331 819 324 844Q317 869 322 906H399Q392 868 408 854.5Q424 841 461 841Q498 841 519 854.5Q540 868 546 906Z" glyph-name="Gbreve" horiz-adv-x="729" unicode="&#286;" /><glyph d="M72 0ZM334 -13Q205 -13 138.5 53Q72 119 72 256Q72 279 73.5 302Q75 325 79 351Q92 447 121 516Q150 585 196 628.5Q242 672 304 692.5Q366 713 445 713Q547 713 603.5 676.5Q660 640 685 567L586 520Q567 574 532 596.5Q497 619 435 619Q388 619 349 606.5Q310 594 279.5 563Q249 532 227.5 480Q206 428 194 350Q185 296 185 255Q185 205 196 171.5Q207 138 228.5 118Q250 98 281 89Q312 80 352 80Q389 80 422.5 90Q456 100 483 122.5Q510 145 528.5 181.5Q547 218 555 272H387L401 362H679L668 288Q646 142 565.5 64.5Q485 -13 334 -13ZM547 906H624Q619 869 605 844Q591 819 570 804Q549 789 520 783Q491 777 456 777Q421 777 393.5 783Q366 789 349 804Q332 819 325 844Q318 869 323 906H400Q393 868 409 854.5Q425 841 462 841Q499 841 520 854.5Q541 868 547 906Z" glyph-name="Gbreve.alt" horiz-adv-x="727" /><glyph d="M72 0ZM464 848 388 783H282V786L421 906H520L621 786V783H518ZM326 -13Q201 -13 136.5 52.5Q72 118 72 256Q72 279 73.5 302Q75 325 79 351Q92 447 121 516Q150 585 195.5 628.5Q241 672 303 692.5Q365 713 444 713Q547 713 604 676.5Q661 640 686 567L587 520Q569 574 533.5 596Q498 618 435 618Q388 618 349 605.5Q310 593 279.5 562.5Q249 532 227.5 480.5Q206 429 194 351Q189 323 187.5 299Q186 275 186 255Q186 205 197 171.5Q208 138 229.5 118Q251 98 282 89Q313 80 352 80Q382 80 414 88Q446 96 474 118Q502 140 524.5 177Q547 214 558 273H387L400 362H676L618 0H530L538 94Q503 43 449 15Q395 -13 326 -13Z" glyph-name="Gcircumflex" horiz-adv-x="729" unicode="&#284;" /><glyph d="M72 0ZM465 848 389 783H283V786L422 906H521L622 786V783H519ZM334 -13Q205 -13 138.5 53Q72 119 72 256Q72 279 73.5 302Q75 325 79 351Q92 447 121 516Q150 585 196 628.5Q242 672 304 692.5Q366 713 445 713Q547 713 603.5 676.5Q660 640 685 567L586 520Q567 574 532 596.5Q497 619 435 619Q388 619 349 606.5Q310 594 279.5 563Q249 532 227.5 480Q206 428 194 350Q185 296 185 255Q185 205 196 171.5Q207 138 228.5 118Q250 98 281 89Q312 80 352 80Q389 80 422.5 90Q456 100 483 122.5Q510 145 528.5 181.5Q547 218 555 272H387L401 362H679L668 288Q646 142 565.5 64.5Q485 -13 334 -13Z" glyph-name="Gcircumflex.alt" horiz-adv-x="727" /><glyph d="M72 0ZM259 -301 246 -256Q272 -248 291 -229Q310 -210 318 -182Q288 -183 272 -169.5Q256 -156 256 -130Q256 -95 276.5 -78Q297 -61 328 -61Q356 -61 372 -76Q388 -91 388 -125Q388 -155 378.5 -184Q369 -213 352 -237Q335 -261 311.5 -278Q288 -295 259 -301ZM326 -13Q201 -13 136.5 52.5Q72 118 72 256Q72 279 73.5 302Q75 325 79 351Q92 447 121 516Q150 585 195.5 628.5Q241 672 303 692.5Q365 713 444 713Q547 713 604 676.5Q661 640 686 567L587 520Q569 574 533.5 596Q498 618 435 618Q388 618 349 605.5Q310 593 279.5 562.5Q249 532 227.5 480.5Q206 429 194 351Q189 323 187.5 299Q186 275 186 255Q186 205 197 171.5Q208 138 229.5 118Q251 98 282 89Q313 80 352 80Q382 80 414 88Q446 96 474 118Q502 140 524.5 177Q547 214 558 273H387L400 362H676L618 0H530L538 94Q503 43 449 15Q395 -13 326 -13Z" glyph-name="Gcommaaccent" horiz-adv-x="729" unicode="&#290;" /><glyph d="M72 0ZM260 -301 247 -256Q273 -248 292 -229Q311 -210 319 -182Q289 -183 273 -169.5Q257 -156 257 -130Q257 -95 277.5 -78Q298 -61 329 -61Q357 -61 373 -76Q389 -91 389 -125Q389 -155 379.5 -184Q370 -213 353 -237Q336 -261 312.5 -278Q289 -295 260 -301ZM334 -13Q205 -13 138.5 53Q72 119 72 256Q72 279 73.5 302Q75 325 79 351Q92 447 121 516Q150 585 196 628.5Q242 672 304 692.5Q366 713 445 713Q547 713 603.5 676.5Q660 640 685 567L586 520Q567 574 532 596.5Q497 619 435 619Q388 619 349 606.5Q310 594 279.5 563Q249 532 227.5 480Q206 428 194 350Q185 296 185 255Q185 205 196 171.5Q207 138 228.5 118Q250 98 281 89Q312 80 352 80Q389 80 422.5 90Q456 100 483 122.5Q510 145 528.5 181.5Q547 218 555 272H387L401 362H679L668 288Q646 142 565.5 64.5Q485 -13 334 -13Z" glyph-name="Gcommaaccent.alt" horiz-adv-x="727" /><glyph d="M72 0ZM326 -13Q201 -13 136.5 52.5Q72 118 72 256Q72 279 73.5 302Q75 325 79 351Q92 447 121 516Q150 585 195.5 628.5Q241 672 303 692.5Q365 713 444 713Q547 713 604 676.5Q661 640 686 567L587 520Q569 574 533.5 596Q498 618 435 618Q388 618 349 605.5Q310 593 279.5 562.5Q249 532 227.5 480.5Q206 429 194 351Q189 323 187.5 299Q186 275 186 255Q186 205 197 171.5Q208 138 229.5 118Q251 98 282 89Q313 80 352 80Q382 80 414 88Q446 96 474 118Q502 140 524.5 177Q547 214 558 273H387L400 362H676L618 0H530L538 94Q503 43 449 15Q395 -13 326 -13ZM458 786Q398 786 398 839Q398 878 420 895.5Q442 913 474 913Q535 913 535 859Q535 823 513.5 804.5Q492 786 458 786Z" glyph-name="Gdotaccent" horiz-adv-x="729" unicode="&#288;" /><glyph d="M72 0ZM334 -13Q205 -13 138.5 53Q72 119 72 256Q72 279 73.5 302Q75 325 79 351Q92 447 121 516Q150 585 196 628.5Q242 672 304 692.5Q366 713 445 713Q547 713 603.5 676.5Q660 640 685 567L586 520Q567 574 532 596.5Q497 619 435 619Q388 619 349 606.5Q310 594 279.5 563Q249 532 227.5 480Q206 428 194 350Q185 296 185 255Q185 205 196 171.5Q207 138 228.5 118Q250 98 281 89Q312 80 352 80Q389 80 422.5 90Q456 100 483 122.5Q510 145 528.5 181.5Q547 218 555 272H387L401 362H679L668 288Q646 142 565.5 64.5Q485 -13 334 -13ZM459 786Q399 786 399 839Q399 878 421 895.5Q443 913 475 913Q536 913 536 859Q536 823 514.5 804.5Q493 786 459 786Z" glyph-name="Gdotaccent.alt" horiz-adv-x="727" /><glyph d="M528 0 576 301H222L174 0H60L171 700H285L238 402H592L639 700H754L643 0Z" glyph-name="H" horiz-adv-x="786" unicode="H" /><glyph d="M248 402H602L616 494H262ZM91 564H159L181 700H295L273 564H627L649 700H764L742 564H812L801 494H731L653 0H538L586 301H232L184 0H70L148 494H80Z" glyph-name="Hbar" horiz-adv-x="806" unicode="&#294;" /><glyph d="M60 0ZM483 848 407 783H301V786L440 906H539L640 786V783H537ZM528 0 576 301H222L174 0H60L171 700H285L238 402H592L639 700H754L643 0Z" glyph-name="Hcircumflex" horiz-adv-x="786" unicode="&#292;" /><glyph d="M60 0 171 700H285L174 0Z" glyph-name="I" horiz-adv-x="318" unicode="I" /><glyph d="M60 0ZM60 0 171 700H285L174 0ZM295 40 356 127Q379 106 409 95Q439 84 471 84Q532 84 574.5 125Q617 166 631 262L701 700H815L746 261Q733 182 707 129.5Q681 77 644 45.5Q607 14 560 0.5Q513 -13 459 -13Q414 -13 371 0Q328 13 295 40Z" glyph-name="IJ" horiz-adv-x="833" unicode="&#306;" /><glyph d="M60 0ZM60 0 171 700H285L174 0ZM288 906H418L417 900L283 783H190V787Z" glyph-name="Iacute" horiz-adv-x="318" unicode="&#205;" /><glyph d="M60 0ZM60 0 171 700H285L174 0ZM331 906H408Q403 869 389 844Q375 819 354 804Q333 789 304 783Q275 777 240 777Q205 777 177.5 783Q150 789 133 804Q116 819 109 844Q102 869 107 906H184Q177 868 193 854.5Q209 841 246 841Q283 841 304 854.5Q325 868 331 906Z" glyph-name="Ibreve" horiz-adv-x="318" unicode="&#300;" /><glyph d="M60 0ZM60 0 171 700H285L174 0ZM249 848 173 783H67V786L206 906H305L406 786V783H303Z" glyph-name="Icircumflex" horiz-adv-x="318" unicode="&#206;" /><glyph d="M60 0ZM60 0 171 700H285L174 0ZM335 786Q276 786 276 838Q276 876 297 894.5Q318 913 350 913Q410 913 410 860Q410 823 389.5 804.5Q369 786 335 786ZM149 786Q90 786 90 838Q90 877 111.5 895Q133 913 165 913Q224 913 224 861Q224 823 204 804.5Q184 786 149 786Z" glyph-name="Idieresis" horiz-adv-x="318" unicode="&#207;" /><glyph d="M60 0ZM60 0 171 700H285L174 0ZM243 786Q183 786 183 839Q183 878 205 895.5Q227 913 259 913Q320 913 320 859Q320 823 298.5 804.5Q277 786 243 786Z" glyph-name="Idotaccent" horiz-adv-x="318" unicode="&#304;" /><glyph d="M60 0ZM60 0 171 700H285L174 0ZM205 783 103 900 104 906H234L292 787V783Z" glyph-name="Igrave" horiz-adv-x="318" unicode="&#204;" /><glyph d="M60 0ZM60 0 171 700H285L174 0ZM387 876 375 807H113L124 876Z" glyph-name="Imacron" horiz-adv-x="318" unicode="&#298;" /><glyph d="M66 -218Q45 -218 24.5 -213.5Q4 -209 -11.5 -198Q-27 -187 -36.5 -168Q-46 -149 -46 -120Q-46 -92 -36.5 -68Q-27 -44 -11.5 -25Q4 -6 23.5 7Q43 20 64 27L171 700H286L175 0H128Q105 -2 86.5 -12Q68 -22 55.5 -36.5Q43 -51 36.5 -68.5Q30 -86 30 -103Q30 -128 43.5 -137.5Q57 -147 81 -147Q117 -147 147 -130L157 -194Q116 -218 66 -218Z" glyph-name="Iogonek" horiz-adv-x="318" unicode="&#302;" /><glyph d="M60 0ZM60 0 171 700H285L174 0ZM344 900H418Q416 869 405.5 848Q395 827 379 814.5Q363 802 344.5 796.5Q326 791 309 791Q288 791 271 797Q254 803 239.5 810.5Q225 818 212 824Q199 830 186 830Q168 830 160.5 819Q153 808 151 794H76Q79 825 89.5 846Q100 867 115 879.5Q130 892 148 897.5Q166 903 184 903Q205 903 222 897Q239 891 254 883.5Q269 876 282.5 870Q296 864 309 864Q326 864 334 875Q342 886 344 900Z" glyph-name="Itilde" horiz-adv-x="318" unicode="&#296;" /><glyph d="M-23 40 38 127Q61 106 91 95Q121 84 153 84Q214 84 256.5 125Q299 166 313 262L383 700H497L428 261Q415 182 389 129.5Q363 77 326 45.5Q289 14 242 0.5Q195 -13 141 -13Q96 -13 53 0Q10 13 -23 40Z" glyph-name="J" horiz-adv-x="515" unicode="J" /><glyph d="M0 0ZM460 848 384 783H278V786L417 906H516L617 786V783H514ZM-23 40 38 127Q61 106 91 95Q121 84 153 84Q214 84 256.5 125Q299 166 313 262L383 700H497L428 261Q415 182 389 129.5Q363 77 326 45.5Q289 14 242 0.5Q195 -13 141 -13Q96 -13 53 0Q10 13 -23 40Z" glyph-name="Jcircumflex" horiz-adv-x="515" unicode="&#308;" /><glyph d="M60 0 171 700H285L228 338L575 700H712L404 384L608 0H472L315 301L205 190L174 0Z" glyph-name="K" horiz-adv-x="660" unicode="K" /><glyph d="M60 0 171 700H287L176 0ZM471 0 239 339 240 342 574 700H711L369 347L615 0Z" glyph-name="K.alt" horiz-adv-x="658" /><glyph d="M60 0ZM240 -301 227 -256Q253 -248 272 -229Q291 -210 299 -182Q269 -183 253 -169.5Q237 -156 237 -130Q237 -95 257.5 -78Q278 -61 309 -61Q337 -61 353 -76Q369 -91 369 -125Q369 -155 359.5 -184Q350 -213 333 -237Q316 -261 292.5 -278Q269 -295 240 -301ZM60 0 171 700H285L228 338L575 700H712L404 384L608 0H472L315 301L205 190L174 0Z" glyph-name="Kcommaaccent" horiz-adv-x="660" unicode="&#310;" /><glyph d="M60 0ZM240 -301 227 -256Q253 -248 272 -229Q291 -210 299 -182Q269 -183 253 -169.5Q237 -156 237 -130Q237 -95 257.5 -78Q278 -61 309 -61Q337 -61 353 -76Q369 -91 369 -125Q369 -155 359.5 -184Q350 -213 333 -237Q316 -261 292.5 -278Q269 -295 240 -301ZM60 0 171 700H287L176 0ZM471 0 239 339 240 342 574 700H711L369 347L615 0Z" glyph-name="Kcommaaccent.alt" horiz-adv-x="658" /><glyph d="M189 98H572L556 0H59L170 700H284Z" glyph-name="L" horiz-adv-x="621" unicode="L" /><glyph d="M59 0ZM276 906H406L405 900L271 783H178V787ZM189 98H572L556 0H59L170 700H284Z" glyph-name="Lacute" horiz-adv-x="623" unicode="&#313;" /><glyph d="M59 0ZM499 466H424L467 701H569ZM189 98H572L556 0H59L170 700H284Z" glyph-name="Lcaron" horiz-adv-x="623" unicode="&#317;" /><glyph d="M59 0ZM238 -301 225 -256Q251 -248 270 -229Q289 -210 297 -182Q267 -183 251 -169.5Q235 -156 235 -130Q235 -95 255.5 -78Q276 -61 307 -61Q335 -61 351 -76Q367 -91 367 -125Q367 -155 357.5 -184Q348 -213 331 -237Q314 -261 290.5 -278Q267 -295 238 -301ZM189 98H572L556 0H59L170 700H284Z" glyph-name="Lcommaaccent" horiz-adv-x="623" unicode="&#315;" /><glyph d="M59 0ZM189 98H572L556 0H59L170 700H284ZM460 296Q400 296 400 349Q400 388 422 405.5Q444 423 476 423Q537 423 537 369Q537 333 515.5 314.5Q494 296 460 296Z" glyph-name="Ldot" horiz-adv-x="621" unicode="&#319;" /><glyph d="M209 98H591L575 0H78L116 239L10 179L25 277L131 337L189 700H304L258 404L442 506L427 407L242 305Z" glyph-name="Lslash" horiz-adv-x="640" unicode="&#321;" /><glyph d="M388 0 244 509 168 0H61L172 700H293L449 133L787 700H911L800 0H690L777 509L472 0Z" glyph-name="M" horiz-adv-x="943" unicode="M" /><glyph d="M524 0 248 527 169 0H60L171 700H273L553 165L634 700H744L633 0Z" glyph-name="N" horiz-adv-x="777" unicode="N" /><glyph glyph-name="NULL" horiz-adv-x="176" /><glyph d="M60 0ZM513 906H643L642 900L508 783H415V787ZM524 0 248 527 169 0H60L171 700H273L553 165L634 700H744L633 0Z" glyph-name="Nacute" horiz-adv-x="777" unicode="&#323;" /><glyph d="M60 0ZM419 783 317 904 318 906H422L474 843L550 906H656V904L517 783ZM524 0 248 527 169 0H60L171 700H273L553 165L634 700H744L633 0Z" glyph-name="Ncaron" horiz-adv-x="777" unicode="&#327;" /><glyph d="M60 0ZM273 -301 260 -256Q286 -248 305 -229Q324 -210 332 -182Q302 -183 286 -169.5Q270 -156 270 -130Q270 -95 290.5 -78Q311 -61 342 -61Q370 -61 386 -76Q402 -91 402 -125Q402 -155 392.5 -184Q383 -213 366 -237Q349 -261 325.5 -278Q302 -295 273 -301ZM524 0 248 527 169 0H60L171 700H273L553 165L634 700H744L633 0Z" glyph-name="Ncommaaccent" horiz-adv-x="777" unicode="&#325;" /><glyph d="M60 0ZM524 0 248 527 169 0H60L171 700H273L553 165L634 700H744L633 0ZM570 900H644Q642 869 631.5 848Q621 827 605 814.5Q589 802 570.5 796.5Q552 791 535 791Q514 791 497 797Q480 803 465.5 810.5Q451 818 438 824Q425 830 412 830Q394 830 386.5 819Q379 808 377 794H302Q305 825 315.5 846Q326 867 341 879.5Q356 892 374 897.5Q392 903 410 903Q431 903 448 897Q465 891 480 883.5Q495 876 508.5 870Q522 864 535 864Q552 864 560 875Q568 886 570 900Z" glyph-name="Ntilde" horiz-adv-x="777" unicode="&#209;" /><glyph d="M79 351Q105 541 195.5 627Q286 713 447 713Q589 713 655.5 650.5Q722 588 722 454Q722 431 720.5 405.5Q719 380 715 351Q689 161 597.5 74Q506 -13 346 -13Q206 -13 139 50.5Q72 114 72 250Q72 273 73.5 298Q75 323 79 351ZM607 446Q607 542 563.5 580Q520 618 438 618Q388 618 348 605Q308 592 278 561.5Q248 531 227 479.5Q206 428 194 350Q185 294 185 253Q185 158 228.5 120Q272 82 353 82Q403 82 443 95Q483 108 513.5 139.5Q544 171 565.5 222.5Q587 274 599 352Q604 379 605.5 402Q607 425 607 446Z" glyph-name="O" horiz-adv-x="768" unicode="O" /><glyph d="M428 700H1098L1083 604H695L663 401H1001L986 304H647L615 96H1013L997 0H334Q201 0 136.5 61Q72 122 72 254Q72 275 73.5 298Q75 321 79 346Q102 527 187.5 613.5Q273 700 428 700ZM186 262Q186 175 225 136Q264 97 338 97H501L580 603H425Q379 603 341 590.5Q303 578 274 548.5Q245 519 224.5 470.5Q204 422 193 351Q190 331 188 306.5Q186 282 186 262Z" glyph-name="OE" horiz-adv-x="1083" unicode="&#338;" /><glyph d="M72 0ZM506 906H636L635 900L501 783H408V787ZM79 351Q105 541 195.5 627Q286 713 447 713Q589 713 655.5 650.5Q722 588 722 454Q722 431 720.5 405.5Q719 380 715 351Q689 161 597.5 74Q506 -13 346 -13Q206 -13 139 50.5Q72 114 72 250Q72 273 73.5 298Q75 323 79 351ZM607 446Q607 542 563.5 580Q520 618 438 618Q388 618 348 605Q308 592 278 561.5Q248 531 227 479.5Q206 428 194 350Q185 294 185 253Q185 158 228.5 120Q272 82 353 82Q403 82 443 95Q483 108 513.5 139.5Q544 171 565.5 222.5Q587 274 599 352Q604 379 605.5 402Q607 425 607 446Z" glyph-name="Oacute" horiz-adv-x="768" unicode="&#211;" /><glyph d="M72 0ZM79 351Q105 541 195.5 627Q286 713 447 713Q589 713 655.5 650.5Q722 588 722 454Q722 431 720.5 405.5Q719 380 715 351Q689 161 597.5 74Q506 -13 346 -13Q206 -13 139 50.5Q72 114 72 250Q72 273 73.5 298Q75 323 79 351ZM607 446Q607 542 563.5 580Q520 618 438 618Q388 618 348 605Q308 592 278 561.5Q248 531 227 479.5Q206 428 194 350Q185 294 185 253Q185 158 228.5 120Q272 82 353 82Q403 82 443 95Q483 108 513.5 139.5Q544 171 565.5 222.5Q587 274 599 352Q604 379 605.5 402Q607 425 607 446ZM550 906H627Q622 869 608 844Q594 819 573 804Q552 789 523 783Q494 777 459 777Q424 777 396.5 783Q369 789 352 804Q335 819 328 844Q321 869 326 906H403Q396 868 412 854.5Q428 841 465 841Q502 841 523 854.5Q544 868 550 906Z" glyph-name="Obreve" horiz-adv-x="768" unicode="&#334;" /><glyph d="M72 0ZM468 848 392 783H286V786L425 906H524L625 786V783H522ZM79 351Q105 541 195.5 627Q286 713 447 713Q589 713 655.5 650.5Q722 588 722 454Q722 431 720.5 405.5Q719 380 715 351Q689 161 597.5 74Q506 -13 346 -13Q206 -13 139 50.5Q72 114 72 250Q72 273 73.5 298Q75 323 79 351ZM607 446Q607 542 563.5 580Q520 618 438 618Q388 618 348 605Q308 592 278 561.5Q248 531 227 479.5Q206 428 194 350Q185 294 185 253Q185 158 228.5 120Q272 82 353 82Q403 82 443 95Q483 108 513.5 139.5Q544 171 565.5 222.5Q587 274 599 352Q604 379 605.5 402Q607 425 607 446Z" glyph-name="Ocircumflex" horiz-adv-x="768" unicode="&#212;" /><glyph d="M72 0ZM555 786Q496 786 496 838Q496 876 517 894.5Q538 913 570 913Q630 913 630 860Q630 823 609.5 804.5Q589 786 555 786ZM369 786Q310 786 310 838Q310 877 331.5 895Q353 913 385 913Q444 913 444 861Q444 823 424 804.5Q404 786 369 786ZM79 351Q105 541 195.5 627Q286 713 447 713Q589 713 655.5 650.5Q722 588 722 454Q722 431 720.5 405.5Q719 380 715 351Q689 161 597.5 74Q506 -13 346 -13Q206 -13 139 50.5Q72 114 72 250Q72 273 73.5 298Q75 323 79 351ZM607 446Q607 542 563.5 580Q520 618 438 618Q388 618 348 605Q308 592 278 561.5Q248 531 227 479.5Q206 428 194 350Q185 294 185 253Q185 158 228.5 120Q272 82 353 82Q403 82 443 95Q483 108 513.5 139.5Q544 171 565.5 222.5Q587 274 599 352Q604 379 605.5 402Q607 425 607 446Z" glyph-name="Odieresis" horiz-adv-x="768" unicode="&#214;" /><glyph d="M72 0ZM79 351Q105 541 195.5 627Q286 713 447 713Q589 713 655.5 650.5Q722 588 722 454Q722 431 720.5 405.5Q719 380 715 351Q689 161 597.5 74Q506 -13 346 -13Q206 -13 139 50.5Q72 114 72 250Q72 273 73.5 298Q75 323 79 351ZM607 446Q607 542 563.5 580Q520 618 438 618Q388 618 348 605Q308 592 278 561.5Q248 531 227 479.5Q206 428 194 350Q185 294 185 253Q185 158 228.5 120Q272 82 353 82Q403 82 443 95Q483 108 513.5 139.5Q544 171 565.5 222.5Q587 274 599 352Q604 379 605.5 402Q607 425 607 446ZM422 783 320 900 321 906H451L509 787V783Z" glyph-name="Ograve" horiz-adv-x="768" unicode="&#210;" /><glyph d="M72 0ZM578 906H707L706 900L566 783H482V787ZM419 906H537L536 900L420 783H337L338 787ZM79 351Q105 541 195.5 627Q286 713 447 713Q589 713 655.5 650.5Q722 588 722 454Q722 431 720.5 405.5Q719 380 715 351Q689 161 597.5 74Q506 -13 346 -13Q206 -13 139 50.5Q72 114 72 250Q72 273 73.5 298Q75 323 79 351ZM607 446Q607 542 563.5 580Q520 618 438 618Q388 618 348 605Q308 592 278 561.5Q248 531 227 479.5Q206 428 194 350Q185 294 185 253Q185 158 228.5 120Q272 82 353 82Q403 82 443 95Q483 108 513.5 139.5Q544 171 565.5 222.5Q587 274 599 352Q604 379 605.5 402Q607 425 607 446Z" glyph-name="Ohungarumlaut" horiz-adv-x="768" unicode="&#336;" /><glyph d="M72 0ZM607 876 595 807H333L344 876ZM79 351Q105 541 195.5 627Q286 713 447 713Q589 713 655.5 650.5Q722 588 722 454Q722 431 720.5 405.5Q719 380 715 351Q689 161 597.5 74Q506 -13 346 -13Q206 -13 139 50.5Q72 114 72 250Q72 273 73.5 298Q75 323 79 351ZM607 446Q607 542 563.5 580Q520 618 438 618Q388 618 348 605Q308 592 278 561.5Q248 531 227 479.5Q206 428 194 350Q185 294 185 253Q185 158 228.5 120Q272 82 353 82Q403 82 443 95Q483 108 513.5 139.5Q544 171 565.5 222.5Q587 274 599 352Q604 379 605.5 402Q607 425 607 446Z" glyph-name="Omacron" horiz-adv-x="768" unicode="&#332;" /><glyph d="M-5 0 102 105Q73 162 73 252Q73 275 75 301.5Q77 328 80 351Q105 535 194.5 624Q284 713 448 713Q588 713 656 649L708 700H808L698 592Q725 535 725 449Q725 429 723 402.5Q721 376 717 351Q691 164 601 75.5Q511 -13 350 -13Q212 -13 144 49L94 0ZM441 618Q390 618 350 605Q310 592 279.5 561Q249 530 228 478.5Q207 427 195 351Q191 328 189 301Q187 274 187 253Q187 236 188.5 221.5Q190 207 192 193L576 570Q554 596 520 607Q486 618 441 618ZM355 82Q405 82 445 95Q485 108 515.5 139.5Q546 171 567.5 222.5Q589 274 601 351Q605 373 607 400Q609 427 609 449Q609 463 608 476Q607 489 605 501L223 126Q244 102 277 92Q310 82 355 82Z" glyph-name="Oslash" horiz-adv-x="770" unicode="&#216;" /><glyph d="M72 0ZM79 351Q105 541 195.5 627Q286 713 447 713Q589 713 655.5 650.5Q722 588 722 454Q722 431 720.5 405.5Q719 380 715 351Q689 161 597.5 74Q506 -13 346 -13Q206 -13 139 50.5Q72 114 72 250Q72 273 73.5 298Q75 323 79 351ZM607 446Q607 542 563.5 580Q520 618 438 618Q388 618 348 605Q308 592 278 561.5Q248 531 227 479.5Q206 428 194 350Q185 294 185 253Q185 158 228.5 120Q272 82 353 82Q403 82 443 95Q483 108 513.5 139.5Q544 171 565.5 222.5Q587 274 599 352Q604 379 605.5 402Q607 425 607 446ZM563 900H637Q635 869 624.5 848Q614 827 598 814.5Q582 802 563.5 796.5Q545 791 528 791Q507 791 490 797Q473 803 458.5 810.5Q444 818 431 824Q418 830 405 830Q387 830 379.5 819Q372 808 370 794H295Q298 825 308.5 846Q319 867 334 879.5Q349 892 367 897.5Q385 903 403 903Q424 903 441 897Q458 891 473 883.5Q488 876 501.5 870Q515 864 528 864Q545 864 553 875Q561 886 563 900Z" glyph-name="Otilde" horiz-adv-x="768" unicode="&#213;" /><glyph d="M60 0 171 700H460Q566 700 617 653Q668 606 668 519Q668 449 647.5 395Q627 341 589.5 304.5Q552 268 498.5 249Q445 230 380 230H211L174 0ZM444 601H270L226 328H400Q432 328 460 339Q488 350 509 371.5Q530 393 542 425.5Q554 458 554 500Q554 548 527.5 574.5Q501 601 444 601Z" glyph-name="P" horiz-adv-x="670" unicode="P" /><glyph d="M447 713Q589 713 655.5 650.5Q722 588 722 454Q722 431 720.5 405.5Q719 380 715 351Q698 226 653.5 147Q609 68 535 28L598 -91H484L439 -5Q393 -13 346 -13Q206 -13 139 50.5Q72 114 72 250Q72 273 73.5 298Q75 323 79 351Q105 541 195.5 627Q286 713 447 713ZM438 619Q388 619 348.5 606Q309 593 278.5 562Q248 531 227 479Q206 427 194 349Q189 321 187.5 297Q186 273 186 252Q186 157 229 119Q272 81 353 81H373Q383 81 393 83L330 206H443L489 117Q530 146 557 202Q584 258 599 351Q604 379 605.5 402.5Q607 426 607 447Q607 543 563.5 581Q520 619 438 619Z" glyph-name="Q" horiz-adv-x="768" unicode="Q" /><glyph d="M446 602H269L229 349H405Q435 349 462 359Q489 369 509 388.5Q529 408 541 438Q553 468 553 508Q553 553 527.5 577.5Q502 602 446 602ZM386 252H214L174 0H60L171 700H463Q567 700 617.5 654.5Q668 609 668 526Q668 426 623 362Q578 298 503 272L598 0H472Z" glyph-name="R" horiz-adv-x="676" unicode="R" /><glyph d="M60 0ZM479 906H609L608 900L474 783H381V787ZM446 602H269L229 349H405Q435 349 462 359Q489 369 509 388.5Q529 408 541 438Q553 468 553 508Q553 553 527.5 577.5Q502 602 446 602ZM386 252H214L174 0H60L171 700H463Q567 700 617.5 654.5Q668 609 668 526Q668 426 623 362Q578 298 503 272L598 0H472Z" glyph-name="Racute" horiz-adv-x="676" unicode="&#340;" /><glyph d="M60 0ZM385 783 283 904 284 906H388L440 843L516 906H622V904L483 783ZM446 602H269L229 349H405Q435 349 462 359Q489 369 509 388.5Q529 408 541 438Q553 468 553 508Q553 553 527.5 577.5Q502 602 446 602ZM386 252H214L174 0H60L171 700H463Q567 700 617.5 654.5Q668 609 668 526Q668 426 623 362Q578 298 503 272L598 0H472Z" glyph-name="Rcaron" horiz-adv-x="676" unicode="&#344;" /><glyph d="M60 0ZM233 -301 220 -256Q246 -248 265 -229Q284 -210 292 -182Q262 -183 246 -169.5Q230 -156 230 -130Q230 -95 250.5 -78Q271 -61 302 -61Q330 -61 346 -76Q362 -91 362 -125Q362 -155 352.5 -184Q343 -213 326 -237Q309 -261 285.5 -278Q262 -295 233 -301ZM446 602H269L229 349H405Q435 349 462 359Q489 369 509 388.5Q529 408 541 438Q553 468 553 508Q553 553 527.5 577.5Q502 602 446 602ZM386 252H214L174 0H60L171 700H463Q567 700 617.5 654.5Q668 609 668 526Q668 426 623 362Q578 298 503 272L598 0H472Z" glyph-name="Rcommaaccent" horiz-adv-x="676" unicode="&#342;" /><glyph d="M598 585 505 532Q482 578 448 601Q414 624 355 624Q316 624 288 615.5Q260 607 241.5 593Q223 579 214.5 560.5Q206 542 206 521Q206 503 210.5 487.5Q215 472 226 458.5Q237 445 257 434Q277 423 309 414L356 401Q413 385 451.5 366.5Q490 348 513.5 325Q537 302 547 274Q557 246 557 210Q557 157 537 115.5Q517 74 480 45.5Q443 17 390 2Q337 -13 272 -13Q185 -13 119 18.5Q53 50 17 126L108 182Q138 123 176 98.5Q214 74 275 74Q360 74 402 106Q444 138 444 189Q444 234 418 256.5Q392 279 333 295L284 308Q183 335 139.5 386Q96 437 96 501Q96 546 113 584.5Q130 623 163.5 651.5Q197 680 247 696.5Q297 713 363 713Q452 713 509 682.5Q566 652 598 585Z" glyph-name="S" horiz-adv-x="618" unicode="S" /><glyph d="M17 0ZM428 906H558L557 900L423 783H330V787ZM598 585 505 532Q482 578 448 601Q414 624 355 624Q316 624 288 615.5Q260 607 241.5 593Q223 579 214.5 560.5Q206 542 206 521Q206 503 210.5 487.5Q215 472 226 458.5Q237 445 257 434Q277 423 309 414L356 401Q413 385 451.5 366.5Q490 348 513.5 325Q537 302 547 274Q557 246 557 210Q557 157 537 115.5Q517 74 480 45.5Q443 17 390 2Q337 -13 272 -13Q185 -13 119 18.5Q53 50 17 126L108 182Q138 123 176 98.5Q214 74 275 74Q360 74 402 106Q444 138 444 189Q444 234 418 256.5Q392 279 333 295L284 308Q183 335 139.5 386Q96 437 96 501Q96 546 113 584.5Q130 623 163.5 651.5Q197 680 247 696.5Q297 713 363 713Q452 713 509 682.5Q566 652 598 585Z" glyph-name="Sacute" horiz-adv-x="618" unicode="&#346;" /><glyph d="M17 0ZM335 783 233 904 234 906H338L390 843L466 906H572V904L433 783ZM598 585 505 532Q482 578 448 601Q414 624 355 624Q316 624 288 615.5Q260 607 241.5 593Q223 579 214.5 560.5Q206 542 206 521Q206 503 210.5 487.5Q215 472 226 458.5Q237 445 257 434Q277 423 309 414L356 401Q413 385 451.5 366.5Q490 348 513.5 325Q537 302 547 274Q557 246 557 210Q557 157 537 115.5Q517 74 480 45.5Q443 17 390 2Q337 -13 272 -13Q185 -13 119 18.5Q53 50 17 126L108 182Q138 123 176 98.5Q214 74 275 74Q360 74 402 106Q444 138 444 189Q444 234 418 256.5Q392 279 333 295L284 308Q183 335 139.5 386Q96 437 96 501Q96 546 113 584.5Q130 623 163.5 651.5Q197 680 247 696.5Q297 713 363 713Q452 713 509 682.5Q566 652 598 585Z" glyph-name="Scaron" horiz-adv-x="618" unicode="&#352;" /><glyph d="M223 -239Q183 -239 151.5 -223Q120 -207 106 -174L159 -130Q170 -153 185 -165.5Q200 -178 229 -178Q252 -178 268 -167.5Q284 -157 284 -136Q284 -114 264.5 -106.5Q245 -99 218 -100L201 -88L234 -11Q161 -6 105 26Q49 58 17 126L108 182Q138 123 176 98.5Q214 74 275 74Q360 74 402 106Q444 138 444 189Q444 234 418 256.5Q392 279 333 295L284 308Q183 335 139.5 386Q96 437 96 501Q96 546 113 584.5Q130 623 163.5 651.5Q197 680 247 696.5Q297 713 363 713Q452 713 509 682.5Q566 652 598 585L505 532Q482 578 448 601Q414 624 355 624Q316 624 288 615.5Q260 607 241.5 593Q223 579 214.5 560.5Q206 542 206 521Q206 503 210.5 487.5Q215 472 226 458.5Q237 445 257 434Q277 423 309 414L356 401Q413 385 451.5 366.5Q490 348 513.5 325Q537 302 547 274Q557 246 557 210Q557 110 488.5 52.5Q420 -5 302 -12L279 -56Q311 -59 334.5 -79Q358 -99 358 -135Q358 -161 347 -180.5Q336 -200 317.5 -213Q299 -226 274.5 -232.5Q250 -239 223 -239Z" glyph-name="Scedilla" horiz-adv-x="618" unicode="&#350;" /><glyph d="M17 0ZM389 848 313 783H207V786L346 906H445L546 786V783H443ZM598 585 505 532Q482 578 448 601Q414 624 355 624Q316 624 288 615.5Q260 607 241.5 593Q223 579 214.5 560.5Q206 542 206 521Q206 503 210.5 487.5Q215 472 226 458.5Q237 445 257 434Q277 423 309 414L356 401Q413 385 451.5 366.5Q490 348 513.5 325Q537 302 547 274Q557 246 557 210Q557 157 537 115.5Q517 74 480 45.5Q443 17 390 2Q337 -13 272 -13Q185 -13 119 18.5Q53 50 17 126L108 182Q138 123 176 98.5Q214 74 275 74Q360 74 402 106Q444 138 444 189Q444 234 418 256.5Q392 279 333 295L284 308Q183 335 139.5 386Q96 437 96 501Q96 546 113 584.5Q130 623 163.5 651.5Q197 680 247 696.5Q297 713 363 713Q452 713 509 682.5Q566 652 598 585Z" glyph-name="Scircumflex" horiz-adv-x="618" unicode="&#348;" /><glyph d="M17 0ZM189 -301 176 -256Q202 -248 221 -229Q240 -210 248 -182Q218 -183 202 -169.5Q186 -156 186 -130Q186 -95 206.5 -78Q227 -61 258 -61Q286 -61 302 -76Q318 -91 318 -125Q318 -155 308.5 -184Q299 -213 282 -237Q265 -261 241.5 -278Q218 -295 189 -301ZM598 585 505 532Q482 578 448 601Q414 624 355 624Q316 624 288 615.5Q260 607 241.5 593Q223 579 214.5 560.5Q206 542 206 521Q206 503 210.5 487.5Q215 472 226 458.5Q237 445 257 434Q277 423 309 414L356 401Q413 385 451.5 366.5Q490 348 513.5 325Q537 302 547 274Q557 246 557 210Q557 157 537 115.5Q517 74 480 45.5Q443 17 390 2Q337 -13 272 -13Q185 -13 119 18.5Q53 50 17 126L108 182Q138 123 176 98.5Q214 74 275 74Q360 74 402 106Q444 138 444 189Q444 234 418 256.5Q392 279 333 295L284 308Q183 335 139.5 386Q96 437 96 501Q96 546 113 584.5Q130 623 163.5 651.5Q197 680 247 696.5Q297 713 363 713Q452 713 509 682.5Q566 652 598 585Z" glyph-name="Scommaaccent" horiz-adv-x="618" unicode="&#536;" /><glyph d="M77 700H631L615 601H395L300 0H186L281 601H61Z" glyph-name="T" horiz-adv-x="578" unicode="T" /><glyph d="M76 386H247L281 601H62L78 700H631L615 601H396L362 386H533L520 306H350L301 0H186L235 306H63Z" glyph-name="Tbar" horiz-adv-x="580" unicode="&#358;" /><glyph d="M61 0ZM318 783 216 904 217 906H321L373 843L449 906H555V904L416 783ZM77 700H631L615 601H395L300 0H186L281 601H61Z" glyph-name="Tcaron" horiz-adv-x="578" unicode="&#356;" /><glyph d="M329 -135Q329 -161 318 -180.5Q307 -200 288.5 -213Q270 -226 245.5 -232.5Q221 -239 194 -239Q154 -239 122.5 -223Q91 -207 77 -174L130 -130Q141 -153 156 -165.5Q171 -178 200 -178Q223 -178 239 -167.5Q255 -157 255 -136Q255 -114 235.5 -106.5Q216 -99 189 -100L172 -88L210 0H186L281 601H61L77 700H631L615 601H395L300 0H279L250 -56Q282 -59 305.5 -79Q329 -99 329 -135Z" glyph-name="Tcedilla" horiz-adv-x="578" unicode="&#354;" /><glyph d="M197 135 177 0H61L172 700H288L268 578H434Q538 578 588.5 531Q639 484 639 401Q639 336 618.5 286Q598 236 562 202.5Q526 169 475.5 152Q425 135 365 135ZM213 233H379Q442 233 483.5 271Q525 309 525 384Q525 429 499.5 454Q474 479 418 479H253Z" glyph-name="Thorn" horiz-adv-x="659" unicode="&#222;" /><glyph d="M547 275 614 700H728L662 279Q639 131 554.5 59Q470 -13 337 -13Q213 -13 147.5 42.5Q82 98 82 210Q82 241 88 279L155 700H269L202 276Q199 262 198.5 249.5Q198 237 198 223Q198 156 233.5 119.5Q269 83 344 83Q426 83 478 128Q530 173 547 275Z" glyph-name="U" horiz-adv-x="745" unicode="U" /><glyph d="M82 0ZM499 906H629L628 900L494 783H401V787ZM547 275 614 700H728L662 279Q639 131 554.5 59Q470 -13 337 -13Q213 -13 147.5 42.5Q82 98 82 210Q82 241 88 279L155 700H269L202 276Q199 262 198.5 249.5Q198 237 198 223Q198 156 233.5 119.5Q269 83 344 83Q426 83 478 128Q530 173 547 275Z" glyph-name="Uacute" horiz-adv-x="745" unicode="&#218;" /><glyph d="M82 0ZM547 275 614 700H728L662 279Q639 131 554.5 59Q470 -13 337 -13Q213 -13 147.5 42.5Q82 98 82 210Q82 241 88 279L155 700H269L202 276Q199 262 198.5 249.5Q198 237 198 223Q198 156 233.5 119.5Q269 83 344 83Q426 83 478 128Q530 173 547 275ZM542 906H619Q614 869 600 844Q586 819 565 804Q544 789 515 783Q486 777 451 777Q416 777 388.5 783Q361 789 344 804Q327 819 320 844Q313 869 318 906H395Q388 868 404 854.5Q420 841 457 841Q494 841 515 854.5Q536 868 542 906Z" glyph-name="Ubreve" horiz-adv-x="745" unicode="&#364;" /><glyph d="M82 0ZM461 848 385 783H279V786L418 906H517L618 786V783H515ZM547 275 614 700H728L662 279Q639 131 554.5 59Q470 -13 337 -13Q213 -13 147.5 42.5Q82 98 82 210Q82 241 88 279L155 700H269L202 276Q199 262 198.5 249.5Q198 237 198 223Q198 156 233.5 119.5Q269 83 344 83Q426 83 478 128Q530 173 547 275Z" glyph-name="Ucircumflex" horiz-adv-x="745" unicode="&#219;" /><glyph d="M82 0ZM547 786Q488 786 488 838Q488 876 509 894.5Q530 913 562 913Q622 913 622 860Q622 823 601.5 804.5Q581 786 547 786ZM361 786Q302 786 302 838Q302 877 323.5 895Q345 913 377 913Q436 913 436 861Q436 823 416 804.5Q396 786 361 786ZM547 275 614 700H728L662 279Q639 131 554.5 59Q470 -13 337 -13Q213 -13 147.5 42.5Q82 98 82 210Q82 241 88 279L155 700H269L202 276Q199 262 198.5 249.5Q198 237 198 223Q198 156 233.5 119.5Q269 83 344 83Q426 83 478 128Q530 173 547 275Z" glyph-name="Udieresis" horiz-adv-x="745" unicode="&#220;" /><glyph d="M82 0ZM547 275 614 700H728L662 279Q639 131 554.5 59Q470 -13 337 -13Q213 -13 147.5 42.5Q82 98 82 210Q82 241 88 279L155 700H269L202 276Q199 262 198.5 249.5Q198 237 198 223Q198 156 233.5 119.5Q269 83 344 83Q426 83 478 128Q530 173 547 275ZM414 783 312 900 313 906H443L501 787V783Z" glyph-name="Ugrave" horiz-adv-x="745" unicode="&#217;" /><glyph d="M82 0ZM547 275 614 700H728L662 279Q639 131 554.5 59Q470 -13 337 -13Q213 -13 147.5 42.5Q82 98 82 210Q82 241 88 279L155 700H269L202 276Q199 262 198.5 249.5Q198 237 198 223Q198 156 233.5 119.5Q269 83 344 83Q426 83 478 128Q530 173 547 275ZM570 906H699L698 900L558 783H474V787ZM411 906H529L528 900L412 783H329L330 787Z" glyph-name="Uhungarumlaut" horiz-adv-x="745" unicode="&#368;" /><glyph d="M82 0ZM547 275 614 700H728L662 279Q639 131 554.5 59Q470 -13 337 -13Q213 -13 147.5 42.5Q82 98 82 210Q82 241 88 279L155 700H269L202 276Q199 262 198.5 249.5Q198 237 198 223Q198 156 233.5 119.5Q269 83 344 83Q426 83 478 128Q530 173 547 275ZM599 876 587 807H325L336 876Z" glyph-name="Umacron" horiz-adv-x="745" unicode="&#362;" /><glyph d="M546 276 613 700H728L662 280Q643 165 585.5 93Q528 21 433 -2Q397 -14 379.5 -42.5Q362 -71 362 -97Q362 -126 376 -136.5Q390 -147 413 -147Q430 -147 447 -143Q464 -139 479 -130L488 -194Q449 -218 398 -218Q377 -218 356.5 -213.5Q336 -209 320.5 -197.5Q305 -186 295.5 -166.5Q286 -147 286 -117Q286 -85 296.5 -58.5Q307 -32 326 -13Q208 -11 145 45.5Q82 102 82 210Q82 241 88 280L154 700H271L203 277Q201 263 199.5 250.5Q198 238 198 224Q198 157 233.5 120.5Q269 84 344 84Q426 84 478 129Q530 174 546 276Z" glyph-name="Uogonek" horiz-adv-x="744" unicode="&#370;" /><glyph d="M82 0ZM450 758Q411 758 385.5 779.5Q360 801 360 841Q360 866 368.5 886.5Q377 907 392.5 922Q408 937 428.5 945Q449 953 473 953Q514 953 538.5 930.5Q563 908 563 870Q563 819 530.5 788.5Q498 758 450 758ZM470 905Q447 905 431 888.5Q415 872 415 845Q415 827 425.5 816Q436 805 453 805Q474 805 491 821.5Q508 838 508 866Q508 884 497.5 894.5Q487 905 470 905ZM547 275 614 700H728L662 279Q639 131 554.5 59Q470 -13 337 -13Q213 -13 147.5 42.5Q82 98 82 210Q82 241 88 279L155 700H269L202 276Q199 262 198.5 249.5Q198 237 198 223Q198 156 233.5 119.5Q269 83 344 83Q426 83 478 128Q530 173 547 275Z" glyph-name="Uring" horiz-adv-x="745" unicode="&#366;" /><glyph d="M82 0ZM547 275 614 700H728L662 279Q639 131 554.5 59Q470 -13 337 -13Q213 -13 147.5 42.5Q82 98 82 210Q82 241 88 279L155 700H269L202 276Q199 262 198.5 249.5Q198 237 198 223Q198 156 233.5 119.5Q269 83 344 83Q426 83 478 128Q530 173 547 275ZM556 900H630Q628 869 617.5 848Q607 827 591 814.5Q575 802 556.5 796.5Q538 791 521 791Q500 791 483 797Q466 803 451.5 810.5Q437 818 424 824Q411 830 398 830Q380 830 372.5 819Q365 808 363 794H288Q291 825 301.5 846Q312 867 327 879.5Q342 892 360 897.5Q378 903 396 903Q417 903 434 897Q451 891 466 883.5Q481 876 494.5 870Q508 864 521 864Q538 864 546 875Q554 886 556 900Z" glyph-name="Utilde" horiz-adv-x="745" unicode="&#360;" /><glyph d="M74 700H191L288 116L571 700H689L340 0H201Z" glyph-name="V" horiz-adv-x="632" unicode="V" /><glyph d="M471 698H575L632 170L857 700H972L663 0H553L496 530L270 0H156L72 700H189L243 165Z" glyph-name="W" horiz-adv-x="914" unicode="W" /><glyph d="M72 0ZM581 905H711L710 899L576 782H483V786ZM471 698H575L632 170L857 700H972L663 0H553L496 530L270 0H156L72 700H189L243 165Z" glyph-name="Wacute" horiz-adv-x="914" unicode="&#7810;" /><glyph d="M72 0ZM543 848 467 783H361V786L500 906H599L700 786V783H597ZM471 698H575L632 170L857 700H972L663 0H553L496 530L270 0H156L72 700H189L243 165Z" glyph-name="Wcircumflex" horiz-adv-x="914" unicode="&#372;" /><glyph d="M72 0ZM628 785Q569 785 569 837Q569 875 590 893.5Q611 912 643 912Q703 912 703 859Q703 822 682.5 803.5Q662 785 628 785ZM442 785Q383 785 383 837Q383 876 404.5 894Q426 912 458 912Q517 912 517 860Q517 822 497 803.5Q477 785 442 785ZM471 698H575L632 170L857 700H972L663 0H553L496 530L270 0H156L72 700H189L243 165Z" glyph-name="Wdieresis" horiz-adv-x="914" unicode="&#7812;" /><glyph d="M72 0ZM471 698H575L632 170L857 700H972L663 0H553L496 530L270 0H156L72 700H189L243 165ZM496 782 394 899 395 905H525L583 786V782Z" glyph-name="Wgrave" horiz-adv-x="914" unicode="&#7808;" /><glyph d="M459 0 320 275 96 0H-34L267 360L93 700H220L349 437L557 700H685L400 357L587 0Z" glyph-name="X" horiz-adv-x="642" unicode="X" /><glyph d="M244 273 67 700H189L317 373L549 700H673L358 271L315 0H201Z" glyph-name="Y" horiz-adv-x="614" unicode="Y" /><glyph d="M67 0ZM244 273 67 700H189L317 373L549 700H673L358 271L315 0H201ZM426 906H556L555 900L421 783H328V787Z" glyph-name="Yacute" horiz-adv-x="614" unicode="&#221;" /><glyph d="M67 0ZM244 273 67 700H189L317 373L549 700H673L358 271L315 0H201ZM388 848 312 783H206V786L345 906H444L545 786V783H442Z" glyph-name="Ycircumflex" horiz-adv-x="614" unicode="&#374;" /><glyph d="M67 0ZM244 273 67 700H189L317 373L549 700H673L358 271L315 0H201ZM473 786Q414 786 414 838Q414 876 435 894.5Q456 913 488 913Q548 913 548 860Q548 823 527.5 804.5Q507 786 473 786ZM287 786Q228 786 228 838Q228 877 249.5 895Q271 913 303 913Q362 913 362 861Q362 823 342 804.5Q322 786 287 786Z" glyph-name="Ydieresis" horiz-adv-x="614" unicode="&#376;" /><glyph d="M-21 0 -8 80 466 605 96 603 111 700H621L609 620L132 95L531 97L515 0Z" glyph-name="Z" horiz-adv-x="575" unicode="Z" /><glyph d="M0 0ZM418 906H548L547 900L413 783H320V787ZM-21 0 -8 80 466 605 96 603 111 700H621L609 620L132 95L531 97L515 0Z" glyph-name="Zacute" horiz-adv-x="575" unicode="&#377;" /><glyph d="M0 0ZM324 783 222 904 223 906H327L379 843L455 906H561V904L422 783ZM-21 0 -8 80 466 605 96 603 111 700H621L609 620L132 95L531 97L515 0Z" glyph-name="Zcaron" horiz-adv-x="575" unicode="&#381;" /><glyph d="M0 0ZM-21 0 -8 80 466 605 96 603 111 700H621L609 620L132 95L531 97L515 0ZM373 786Q313 786 313 839Q313 878 335 895.5Q357 913 389 913Q450 913 450 859Q450 823 428.5 804.5Q407 786 373 786Z" glyph-name="Zdotaccent" horiz-adv-x="575" unicode="&#379;" /><glyph d="M213 68Q273 68 317.5 108Q362 148 373 222V225H266Q206 225 171.5 201Q137 177 137 131Q137 68 213 68ZM174 -12Q111 -12 72 21Q33 54 33 117Q33 156 48 189.5Q63 223 92.5 247.5Q122 272 166.5 285.5Q211 299 270 299H385Q388 317 388 330Q388 380 361 398Q334 416 283 416Q233 416 196 399Q159 382 133 354L88 420Q126 462 179 482.5Q232 503 305 503Q348 503 383.5 495Q419 487 444.5 469Q470 451 484.5 421.5Q499 392 499 349Q499 338 498 325.5Q497 313 495 299L448 0H354L358 82Q328 37 281 12.5Q234 -12 174 -12Z" glyph-name="a" horiz-adv-x="561" unicode="a" /><glyph d="M416 246Q418 260 419 273Q420 286 420 297Q420 360 391 388Q362 416 314 416Q253 416 213.5 375.5Q174 335 160 244Q158 231 156.5 216Q155 201 155 190Q155 75 259 75Q287 75 312.5 85Q338 95 359 115.5Q380 136 394.5 168.5Q409 201 416 246ZM219 -13Q136 -13 91.5 36Q47 85 47 179Q47 193 48.5 210Q50 227 52 244Q69 374 134 438.5Q199 503 301 503Q355 503 394.5 481Q434 459 451 414L472 491H564L487 0H390L396 78Q334 -13 219 -13Z" glyph-name="a.school" horiz-adv-x="610" /><glyph d="M33 0ZM213 68Q273 68 317.5 108Q362 148 373 222V225H266Q206 225 171.5 201Q137 177 137 131Q137 68 213 68ZM174 -12Q111 -12 72 21Q33 54 33 117Q33 156 48 189.5Q63 223 92.5 247.5Q122 272 166.5 285.5Q211 299 270 299H385Q388 317 388 330Q388 380 361 398Q334 416 283 416Q233 416 196 399Q159 382 133 354L88 420Q126 462 179 482.5Q232 503 305 503Q348 503 383.5 495Q419 487 444.5 469Q470 451 484.5 421.5Q499 392 499 349Q499 338 498 325.5Q497 313 495 299L448 0H354L358 82Q328 37 281 12.5Q234 -12 174 -12ZM365 696H495L494 690L360 573H267V577Z" glyph-name="aacute" horiz-adv-x="561" unicode="&#225;" /><glyph d="M47 0ZM416 246Q418 260 419 273Q420 286 420 297Q420 360 391 388Q362 416 314 416Q253 416 213.5 375.5Q174 335 160 244Q158 231 156.5 216Q155 201 155 190Q155 75 259 75Q287 75 312.5 85Q338 95 359 115.5Q380 136 394.5 168.5Q409 201 416 246ZM219 -13Q136 -13 91.5 36Q47 85 47 179Q47 193 48.5 210Q50 227 52 244Q69 374 134 438.5Q199 503 301 503Q355 503 394.5 481Q434 459 451 414L472 491H564L487 0H390L396 78Q334 -13 219 -13ZM381 696H511L510 690L376 573H283V577Z" glyph-name="aacute.school" horiz-adv-x="610" /><glyph d="M33 0ZM213 68Q273 68 317.5 108Q362 148 373 222V225H266Q206 225 171.5 201Q137 177 137 131Q137 68 213 68ZM174 -12Q111 -12 72 21Q33 54 33 117Q33 156 48 189.5Q63 223 92.5 247.5Q122 272 166.5 285.5Q211 299 270 299H385Q388 317 388 330Q388 380 361 398Q334 416 283 416Q233 416 196 399Q159 382 133 354L88 420Q126 462 179 482.5Q232 503 305 503Q348 503 383.5 495Q419 487 444.5 469Q470 451 484.5 421.5Q499 392 499 349Q499 338 498 325.5Q497 313 495 299L448 0H354L358 82Q328 37 281 12.5Q234 -12 174 -12ZM405 696H482Q477 659 463 634Q449 609 428 594Q407 579 378 573Q349 567 314 567Q279 567 251.5 573Q224 579 207 594Q190 609 183 634Q176 659 181 696H258Q251 658 267 644.5Q283 631 320 631Q357 631 378 644.5Q399 658 405 696Z" glyph-name="abreve" horiz-adv-x="561" unicode="&#259;" /><glyph d="M47 0ZM416 246Q418 260 419 273Q420 286 420 297Q420 360 391 388Q362 416 314 416Q253 416 213.5 375.5Q174 335 160 244Q158 231 156.5 216Q155 201 155 190Q155 75 259 75Q287 75 312.5 85Q338 95 359 115.5Q380 136 394.5 168.5Q409 201 416 246ZM219 -13Q136 -13 91.5 36Q47 85 47 179Q47 193 48.5 210Q50 227 52 244Q69 374 134 438.5Q199 503 301 503Q355 503 394.5 481Q434 459 451 414L472 491H564L487 0H390L396 78Q334 -13 219 -13ZM424 696H501Q496 659 482 634Q468 609 447 594Q426 579 397 573Q368 567 333 567Q298 567 270.5 573Q243 579 226 594Q209 609 202 634Q195 659 200 696H277Q270 658 286 644.5Q302 631 339 631Q376 631 397 644.5Q418 658 424 696Z" glyph-name="abreve.school" horiz-adv-x="610" /><glyph d="M33 0ZM213 68Q273 68 317.5 108Q362 148 373 222V225H266Q206 225 171.5 201Q137 177 137 131Q137 68 213 68ZM174 -12Q111 -12 72 21Q33 54 33 117Q33 156 48 189.5Q63 223 92.5 247.5Q122 272 166.5 285.5Q211 299 270 299H385Q388 317 388 330Q388 380 361 398Q334 416 283 416Q233 416 196 399Q159 382 133 354L88 420Q126 462 179 482.5Q232 503 305 503Q348 503 383.5 495Q419 487 444.5 469Q470 451 484.5 421.5Q499 392 499 349Q499 338 498 325.5Q497 313 495 299L448 0H354L358 82Q328 37 281 12.5Q234 -12 174 -12ZM324 638 248 573H142V576L281 696H380L481 576V573H378Z" glyph-name="acircumflex" horiz-adv-x="561" unicode="&#226;" /><glyph d="M47 0ZM343 638 267 573H161V576L300 696H399L500 576V573H397ZM416 246Q418 260 419 273Q420 286 420 297Q420 360 391 388Q362 416 314 416Q253 416 213.5 375.5Q174 335 160 244Q158 231 156.5 216Q155 201 155 190Q155 75 259 75Q287 75 312.5 85Q338 95 359 115.5Q380 136 394.5 168.5Q409 201 416 246ZM219 -13Q136 -13 91.5 36Q47 85 47 179Q47 193 48.5 210Q50 227 52 244Q69 374 134 438.5Q199 503 301 503Q355 503 394.5 481Q434 459 451 414L472 491H564L487 0H390L396 78Q334 -13 219 -13Z" glyph-name="acircumflex.school" horiz-adv-x="610" /><glyph d="M324 696H454L453 690L319 573H226V577Z" glyph-name="acute" horiz-adv-x="600" unicode="&#180;" /><glyph d="M33 0ZM213 68Q273 68 317.5 108Q362 148 373 222V225H266Q206 225 171.5 201Q137 177 137 131Q137 68 213 68ZM174 -12Q111 -12 72 21Q33 54 33 117Q33 156 48 189.5Q63 223 92.5 247.5Q122 272 166.5 285.5Q211 299 270 299H385Q388 317 388 330Q388 380 361 398Q334 416 283 416Q233 416 196 399Q159 382 133 354L88 420Q126 462 179 482.5Q232 503 305 503Q348 503 383.5 495Q419 487 444.5 469Q470 451 484.5 421.5Q499 392 499 349Q499 338 498 325.5Q497 313 495 299L448 0H354L358 82Q328 37 281 12.5Q234 -12 174 -12ZM409 576Q350 576 350 628Q350 666 371 684.5Q392 703 424 703Q484 703 484 650Q484 613 463.5 594.5Q443 576 409 576ZM223 576Q164 576 164 628Q164 667 185.5 685Q207 703 239 703Q298 703 298 651Q298 613 278 594.5Q258 576 223 576Z" glyph-name="adieresis" horiz-adv-x="561" unicode="&#228;" /><glyph d="M47 0ZM428 576Q369 576 369 628Q369 666 390 684.5Q411 703 443 703Q503 703 503 650Q503 613 482.5 594.5Q462 576 428 576ZM242 576Q183 576 183 628Q183 667 204.5 685Q226 703 258 703Q317 703 317 651Q317 613 297 594.5Q277 576 242 576ZM416 246Q418 260 419 273Q420 286 420 297Q420 360 391 388Q362 416 314 416Q253 416 213.5 375.5Q174 335 160 244Q158 231 156.5 216Q155 201 155 190Q155 75 259 75Q287 75 312.5 85Q338 95 359 115.5Q380 136 394.5 168.5Q409 201 416 246ZM219 -13Q136 -13 91.5 36Q47 85 47 179Q47 193 48.5 210Q50 227 52 244Q69 374 134 438.5Q199 503 301 503Q355 503 394.5 481Q434 459 451 414L472 491H564L487 0H390L396 78Q334 -13 219 -13Z" glyph-name="adieresis.school" horiz-adv-x="610" /><glyph d="M178 -12Q115 -12 75 20Q35 52 35 116Q35 153 49 185.5Q63 218 91.5 242Q120 266 164 280Q208 294 267 294H382Q384 305 385 313.5Q386 322 386 330Q386 380 359 398Q332 416 281 416Q230 416 193.5 399Q157 382 131 354L88 420Q125 462 178 482.5Q231 503 304 503Q363 503 404 485Q445 467 464 424Q531 503 651 503Q699 503 733.5 489Q768 475 790.5 450.5Q813 426 823.5 391.5Q834 357 834 315Q834 292 831 269Q828 246 820 220H480Q478 210 478 201V184Q478 122 507.5 96Q537 70 593 70Q638 70 671 85Q704 100 730 141L799 95Q761 39 709 13Q657 -13 578 -13Q507 -13 460 13Q413 39 393 94Q361 44 306.5 16Q252 -12 178 -12ZM214 68Q275 68 315 105Q355 142 369 220H264Q204 220 172 197.5Q140 175 140 132Q140 68 214 68ZM639 420Q587 420 550 390Q513 360 494 294H732Q733 301 733.5 307.5Q734 314 734 320Q734 371 709.5 395.5Q685 420 639 420Z" glyph-name="ae" horiz-adv-x="876" unicode="&#230;" /><glyph d="M33 0ZM213 68Q273 68 317.5 108Q362 148 373 222V225H266Q206 225 171.5 201Q137 177 137 131Q137 68 213 68ZM174 -12Q111 -12 72 21Q33 54 33 117Q33 156 48 189.5Q63 223 92.5 247.5Q122 272 166.5 285.5Q211 299 270 299H385Q388 317 388 330Q388 380 361 398Q334 416 283 416Q233 416 196 399Q159 382 133 354L88 420Q126 462 179 482.5Q232 503 305 503Q348 503 383.5 495Q419 487 444.5 469Q470 451 484.5 421.5Q499 392 499 349Q499 338 498 325.5Q497 313 495 299L448 0H354L358 82Q328 37 281 12.5Q234 -12 174 -12ZM280 573 178 690 179 696H309L367 577V573Z" glyph-name="agrave" horiz-adv-x="561" unicode="&#224;" /><glyph d="M47 0ZM416 246Q418 260 419 273Q420 286 420 297Q420 360 391 388Q362 416 314 416Q253 416 213.5 375.5Q174 335 160 244Q158 231 156.5 216Q155 201 155 190Q155 75 259 75Q287 75 312.5 85Q338 95 359 115.5Q380 136 394.5 168.5Q409 201 416 246ZM219 -13Q136 -13 91.5 36Q47 85 47 179Q47 193 48.5 210Q50 227 52 244Q69 374 134 438.5Q199 503 301 503Q355 503 394.5 481Q434 459 451 414L472 491H564L487 0H390L396 78Q334 -13 219 -13ZM296 573 194 690 195 696H325L383 577V573Z" glyph-name="agrave.school" horiz-adv-x="610" /><glyph d="M33 0ZM213 68Q273 68 317.5 108Q362 148 373 222V225H266Q206 225 171.5 201Q137 177 137 131Q137 68 213 68ZM174 -12Q111 -12 72 21Q33 54 33 117Q33 156 48 189.5Q63 223 92.5 247.5Q122 272 166.5 285.5Q211 299 270 299H385Q388 317 388 330Q388 380 361 398Q334 416 283 416Q233 416 196 399Q159 382 133 354L88 420Q126 462 179 482.5Q232 503 305 503Q348 503 383.5 495Q419 487 444.5 469Q470 451 484.5 421.5Q499 392 499 349Q499 338 498 325.5Q497 313 495 299L448 0H354L358 82Q328 37 281 12.5Q234 -12 174 -12ZM465 666 453 597H191L202 666Z" glyph-name="amacron" horiz-adv-x="561" unicode="&#257;" /><glyph d="M47 0ZM416 246Q418 260 419 273Q420 286 420 297Q420 360 391 388Q362 416 314 416Q253 416 213.5 375.5Q174 335 160 244Q158 231 156.5 216Q155 201 155 190Q155 75 259 75Q287 75 312.5 85Q338 95 359 115.5Q380 136 394.5 168.5Q409 201 416 246ZM219 -13Q136 -13 91.5 36Q47 85 47 179Q47 193 48.5 210Q50 227 52 244Q69 374 134 438.5Q199 503 301 503Q355 503 394.5 481Q434 459 451 414L472 491H564L487 0H390L396 78Q334 -13 219 -13ZM481 666 469 597H207L218 666Z" glyph-name="amacron.school" horiz-adv-x="610" /><glyph d="M586 479H683Q666 372 634 288Q602 204 554 143Q579 123 605.5 103Q632 83 662 63L599 -14Q570 6 537 29.5Q504 53 481 72Q378 -13 234 -13Q187 -13 147 -4Q107 5 78 25.5Q49 46 33 77.5Q17 109 17 154Q17 196 30.5 228.5Q44 261 67.5 287.5Q91 314 121 336Q151 358 184 378Q160 424 150.5 462.5Q141 501 141 533Q141 614 196.5 663.5Q252 713 355 713Q434 713 472 682Q510 651 510 593Q510 555 495.5 522.5Q481 490 455 461.5Q429 433 394 408Q359 383 318 360Q346 325 386.5 285Q427 245 484 197Q520 247 546.5 317.5Q573 388 586 479ZM237 532Q237 510 244.5 483Q252 456 270 424Q338 463 374.5 497Q411 531 411 572Q411 601 393 616.5Q375 632 340 632Q290 632 263.5 605Q237 578 237 532ZM249 71Q337 71 410 129Q349 180 305.5 225Q262 270 231 311Q208 297 188 282.5Q168 268 153 250.5Q138 233 129 213Q120 193 120 168Q120 117 157 94Q194 71 249 71Z" glyph-name="ampersand" horiz-adv-x="702" unicode="&amp;" /><glyph d="M471 -194Q430 -218 379 -218Q358 -218 338 -213.5Q318 -209 302.5 -198Q287 -187 277.5 -168Q268 -149 268 -120Q268 -70 293.5 -35Q319 0 355 20L358 82Q328 37 281 12.5Q234 -12 174 -12Q111 -12 72 21Q33 54 33 117Q33 156 48 189.5Q63 223 92.5 247.5Q122 272 166.5 285.5Q211 299 270 299H385Q388 317 388 330Q388 380 361 398Q334 416 283 416Q233 416 196 399Q159 382 133 354L88 420Q126 462 179 482.5Q232 503 305 503Q348 503 383.5 495Q419 487 444.5 469Q470 451 484.5 421.5Q499 392 499 349Q499 338 498 325.5Q497 313 495 299L448 0H442Q418 -2 400 -12Q382 -22 369.5 -36.5Q357 -51 350.5 -68.5Q344 -86 344 -103Q344 -128 357.5 -137.5Q371 -147 394 -147Q411 -147 428 -143Q445 -139 460 -130ZM213 68Q273 68 317.5 108Q362 148 373 222V225H266Q206 225 171.5 201Q137 177 137 131Q137 68 213 68Z" glyph-name="aogonek" horiz-adv-x="561" unicode="&#261;" /><glyph d="M421 -218Q399 -218 378.5 -213.5Q358 -209 342.5 -197Q327 -185 318 -165.5Q309 -146 310 -116Q311 -70 335 -36.5Q359 -3 391 14L396 78Q334 -13 219 -13Q136 -13 91.5 36Q47 85 47 179Q47 193 48.5 210Q50 227 52 244Q69 374 134 438.5Q199 503 301 503Q355 503 394.5 481Q434 459 451 414L472 491H564L487 0H485Q461 -2 442.5 -12Q424 -22 411.5 -36.5Q399 -51 392.5 -68.5Q386 -86 386 -103Q385 -128 399 -137.5Q413 -147 436 -147Q453 -147 470 -143Q487 -139 502 -130L512 -194Q471 -218 421 -218ZM416 246Q418 260 419 273Q420 286 420 297Q420 360 391 388Q362 416 314 416Q253 416 213.5 375.5Q174 335 160 244Q158 231 156.5 216Q155 201 155 190Q155 75 259 75Q287 75 312.5 85Q338 95 359 115.5Q380 136 394.5 168.5Q409 201 416 246Z" glyph-name="aogonek.school" horiz-adv-x="610" /><glyph d="M359 402Q379 402 411 408Q443 414 470 431L458 351Q434 338 400.5 331.5Q367 325 339 325Q313 325 292.5 330.5Q272 336 253 342Q234 348 214 353.5Q194 359 170 359Q150 359 117.5 353.5Q85 348 55 331L68 411Q92 424 124.5 430Q157 436 185 436Q212 436 233 430.5Q254 425 273.5 419Q293 413 313.5 407.5Q334 402 359 402ZM335 251Q355 251 387 257Q419 263 447 280L435 201Q411 188 377.5 181.5Q344 175 315 175Q289 175 268.5 180.5Q248 186 229 192Q210 198 190.5 203.5Q171 209 147 209Q126 209 93.5 203.5Q61 198 32 181L45 260Q69 273 101 279Q133 285 161 285Q188 285 209.5 279.5Q231 274 250.5 268Q270 262 290 256.5Q310 251 335 251Z" glyph-name="approxequal" horiz-adv-x="503" unicode="&#8776;" /><glyph d="M33 0ZM213 68Q273 68 317.5 108Q362 148 373 222V225H266Q206 225 171.5 201Q137 177 137 131Q137 68 213 68ZM174 -12Q111 -12 72 21Q33 54 33 117Q33 156 48 189.5Q63 223 92.5 247.5Q122 272 166.5 285.5Q211 299 270 299H385Q388 317 388 330Q388 380 361 398Q334 416 283 416Q233 416 196 399Q159 382 133 354L88 420Q126 462 179 482.5Q232 503 305 503Q348 503 383.5 495Q419 487 444.5 469Q470 451 484.5 421.5Q499 392 499 349Q499 338 498 325.5Q497 313 495 299L448 0H354L358 82Q328 37 281 12.5Q234 -12 174 -12ZM316 548Q277 548 251.5 569.5Q226 591 226 631Q226 656 234.5 676.5Q243 697 258.5 712Q274 727 294.5 735Q315 743 339 743Q380 743 404.5 720.5Q429 698 429 660Q429 609 396.5 578.5Q364 548 316 548ZM336 695Q313 695 297 678.5Q281 662 281 635Q281 617 291.5 606Q302 595 319 595Q340 595 357 611.5Q374 628 374 656Q374 674 363.5 684.5Q353 695 336 695Z" glyph-name="aring" horiz-adv-x="561" unicode="&#229;" /><glyph d="M47 0ZM416 246Q418 260 419 273Q420 286 420 297Q420 360 391 388Q362 416 314 416Q253 416 213.5 375.5Q174 335 160 244Q158 231 156.5 216Q155 201 155 190Q155 75 259 75Q287 75 312.5 85Q338 95 359 115.5Q380 136 394.5 168.5Q409 201 416 246ZM219 -13Q136 -13 91.5 36Q47 85 47 179Q47 193 48.5 210Q50 227 52 244Q69 374 134 438.5Q199 503 301 503Q355 503 394.5 481Q434 459 451 414L472 491H564L487 0H390L396 78Q334 -13 219 -13ZM332 548Q293 548 267.5 569.5Q242 591 242 631Q242 656 250.5 676.5Q259 697 274.5 712Q290 727 310.5 735Q331 743 355 743Q396 743 420.5 720.5Q445 698 445 660Q445 609 412.5 578.5Q380 548 332 548ZM352 695Q329 695 313 678.5Q297 662 297 635Q297 617 307.5 606Q318 595 335 595Q356 595 373 611.5Q390 628 390 656Q390 674 379.5 684.5Q369 695 352 695Z" glyph-name="aring.school" horiz-adv-x="610" /><glyph d="M28 379 227 700H333L430 379V377H331L266 607L127 377H28Z" glyph-name="asciicircum" horiz-adv-x="444" unicode="^" /><glyph d="M436 418 521 404Q508 334 467.5 299Q427 264 367 264Q338 264 312.5 274Q287 284 263.5 295.5Q240 307 218 317Q196 327 175 327Q148 327 132 310.5Q116 294 111 265L26 279Q39 351 80 385.5Q121 420 180 420Q210 420 235 410Q260 400 283.5 388.5Q307 377 328.5 367Q350 357 372 357Q398 357 414 373Q430 389 436 418Z" glyph-name="asciitilde" horiz-adv-x="536" unicode="~" /><glyph d="M134 340 74 396 171 497 61 528 96 612 207 572 221 713H317L286 572L410 612L420 528L300 497L365 396L286 340L227 449Z" glyph-name="asterisk" horiz-adv-x="434" unicode="*" /><glyph d="M628 -3Q577 -51 510.5 -77Q444 -103 358 -103Q286 -103 230.5 -83.5Q175 -64 137 -27.5Q99 9 79.5 61.5Q60 114 60 179Q60 268 89 342.5Q118 417 170.5 471Q223 525 296 555Q369 585 457 585Q525 585 577.5 567Q630 549 665.5 515Q701 481 719.5 433Q738 385 738 325Q738 270 724.5 225Q711 180 686.5 147.5Q662 115 626.5 97Q591 79 548 79Q510 79 488 94Q466 109 461 141Q441 109 408.5 90.5Q376 72 331 72Q285 72 257 93.5Q229 115 229 158Q229 212 270 247Q311 282 395 282H472Q473 287 473.5 292.5Q474 298 474 303Q474 336 455 348.5Q436 361 402 361Q368 361 343 349.5Q318 338 301 320L272 364Q323 423 419 423Q447 423 471.5 417.5Q496 412 513 399Q530 386 540 365Q550 344 550 314Q550 299 547 280L533 191Q532 186 531 178.5Q530 171 530 166Q530 125 572 125Q596 125 617.5 138Q639 151 655.5 176.5Q672 202 682 239.5Q692 277 692 325Q692 380 675 421Q658 462 627 489Q596 516 552.5 529Q509 542 456 542Q385 542 321.5 518.5Q258 495 210 449Q162 403 133.5 335Q105 267 105 178Q105 118 123 73Q141 28 174.5 -1Q208 -30 255 -44.5Q302 -59 360 -59Q432 -59 494 -37.5Q556 -16 604 29ZM355 127Q398 127 426 154.5Q454 182 464 231L391 232Q301 232 301 168Q301 127 355 127Z" glyph-name="at" horiz-adv-x="799" unicode="@" /><glyph d="M69 4ZM637 104Q586 56 519.5 30Q453 4 367 4Q295 4 239.5 23.5Q184 43 146 79.5Q108 116 88.5 168.5Q69 221 69 286Q69 375 98 449.5Q127 524 179.5 578Q232 632 305 662Q378 692 466 692Q534 692 586.5 674Q639 656 674.5 622Q710 588 728.5 540Q747 492 747 432Q747 377 733.5 332Q720 287 695.5 254.5Q671 222 635.5 204Q600 186 557 186Q519 186 497 201Q475 216 470 248Q450 216 417.5 197.5Q385 179 340 179Q294 179 266 200.5Q238 222 238 265Q238 319 279 354Q320 389 404 389H481Q482 394 482.5 399.5Q483 405 483 410Q483 443 464 455.5Q445 468 411 468Q377 468 352 456.5Q327 445 310 427L281 471Q332 530 428 530Q456 530 480.5 524.5Q505 519 522 506Q539 493 549 472Q559 451 559 421Q559 406 556 387L542 298Q541 293 540 285.5Q539 278 539 273Q539 232 581 232Q605 232 626.5 245Q648 258 664.5 283.5Q681 309 691 346.5Q701 384 701 432Q701 487 684 528Q667 569 636 596Q605 623 561.5 636Q518 649 465 649Q394 649 330.5 625.5Q267 602 219 556Q171 510 142.5 442Q114 374 114 285Q114 225 132 180Q150 135 183.5 106Q217 77 264 62.5Q311 48 369 48Q441 48 503 69.5Q565 91 613 136ZM364 234Q407 234 435 261.5Q463 289 473 338L400 339Q310 339 310 275Q310 234 364 234Z" glyph-name="at.cap" horiz-adv-x="793" /><glyph d="M33 0ZM213 68Q273 68 317.5 108Q362 148 373 222V225H266Q206 225 171.5 201Q137 177 137 131Q137 68 213 68ZM174 -12Q111 -12 72 21Q33 54 33 117Q33 156 48 189.5Q63 223 92.5 247.5Q122 272 166.5 285.5Q211 299 270 299H385Q388 317 388 330Q388 380 361 398Q334 416 283 416Q233 416 196 399Q159 382 133 354L88 420Q126 462 179 482.5Q232 503 305 503Q348 503 383.5 495Q419 487 444.5 469Q470 451 484.5 421.5Q499 392 499 349Q499 338 498 325.5Q497 313 495 299L448 0H354L358 82Q328 37 281 12.5Q234 -12 174 -12ZM422 690H496Q494 659 483.5 638Q473 617 457 604.5Q441 592 422.5 586.5Q404 581 387 581Q366 581 349 587Q332 593 317.5 600.5Q303 608 290 614Q277 620 264 620Q246 620 238.5 609Q231 598 229 584H154Q157 615 167.5 636Q178 657 193 669.5Q208 682 226 687.5Q244 693 262 693Q283 693 300 687Q317 681 332 673.5Q347 666 360.5 660Q374 654 387 654Q404 654 412 665Q420 676 422 690Z" glyph-name="atilde" horiz-adv-x="561" unicode="&#227;" /><glyph d="M47 0ZM416 246Q418 260 419 273Q420 286 420 297Q420 360 391 388Q362 416 314 416Q253 416 213.5 375.5Q174 335 160 244Q158 231 156.5 216Q155 201 155 190Q155 75 259 75Q287 75 312.5 85Q338 95 359 115.5Q380 136 394.5 168.5Q409 201 416 246ZM219 -13Q136 -13 91.5 36Q47 85 47 179Q47 193 48.5 210Q50 227 52 244Q69 374 134 438.5Q199 503 301 503Q355 503 394.5 481Q434 459 451 414L472 491H564L487 0H390L396 78Q334 -13 219 -13ZM438 690H512Q510 659 499.5 638Q489 617 473 604.5Q457 592 438.5 586.5Q420 581 403 581Q382 581 365 587Q348 593 333.5 600.5Q319 608 306 614Q293 620 280 620Q262 620 254.5 609Q247 598 245 584H170Q173 615 183.5 636Q194 657 209 669.5Q224 682 242 687.5Q260 693 278 693Q299 693 316 687Q333 681 348 673.5Q363 666 376.5 660Q390 654 403 654Q420 654 428 665Q436 676 438 690Z" glyph-name="atilde.school" horiz-adv-x="610" /><glyph d="M265 700 219 414Q281 503 395 503Q477 503 520.5 455Q564 407 564 313Q564 298 562.5 282Q561 266 559 248Q542 126 478 56.5Q414 -13 308 -13Q252 -13 213 10Q174 33 155 79L136 0H44L155 700ZM192 243Q190 229 188.5 216.5Q187 204 187 192Q187 130 217 102Q247 74 295 74Q359 74 398 115Q437 156 451 244Q453 261 454 274Q455 287 455 300Q455 360 429 388Q403 416 352 416Q294 416 250 375Q206 334 192 243Z" glyph-name="b" horiz-adv-x="609" unicode="b" /><glyph d="M350 0 60 700H179L469 0Z" glyph-name="backslash" horiz-adv-x="530" unicode="\" /><glyph d="M48 -65 179 766H281L150 -65Z" glyph-name="bar" horiz-adv-x="298" unicode="|" /><glyph d="M251 -103Q179 -98 140 -68Q101 -38 101 21Q101 44 105.5 66Q110 88 116 109Q122 130 126.5 151.5Q131 173 131 195Q131 235 109 252.5Q87 270 42 270H13L25 353H57Q111 353 140 377.5Q169 402 177 455Q182 484 181.5 514Q181 544 186 576Q196 648 245 684Q294 720 375 726V639Q335 634 311 615Q287 596 280 555Q275 526 275 496Q275 466 270 438Q262 390 236 359Q210 328 165 311Q230 283 230 214Q230 192 225.5 171Q221 150 215 129.5Q209 109 204.5 88.5Q200 68 200 48Q200 16 219 2Q238 -12 272 -16Z" glyph-name="braceleft" horiz-adv-x="353" unicode="{" /><glyph d="M105 726Q177 721 216 691Q255 661 255 602Q255 579 250.5 557Q246 535 240 514Q234 493 229.5 471.5Q225 450 225 428Q225 388 247 370.5Q269 353 314 353H343L331 270H299Q245 270 216 245.5Q187 221 179 168Q174 139 174.5 109Q175 79 170 47Q160 -25 111 -61Q62 -97 -19 -103V-16Q21 -11 45 8Q69 27 76 68Q81 97 81 127Q81 157 86 185Q94 233 120 264Q146 295 191 312Q126 340 126 409Q126 431 130.5 452Q135 473 141 493.5Q147 514 151.5 534.5Q156 555 156 575Q156 607 137 621Q118 635 84 639Z" glyph-name="braceright" horiz-adv-x="353" unicode="}" /><glyph d="M8 -121 141 717H376L363 633H229L122 -38H259L245 -121Z" glyph-name="bracketleft" horiz-adv-x="340" unicode="[" /><glyph d="M349 717 216 -121H-19L-6 -37H128L235 634H98L112 717Z" glyph-name="bracketright" horiz-adv-x="340" unicode="]" /><glyph d="M385 696H462Q457 659 443 634Q429 609 408 594Q387 579 358 573Q329 567 294 567Q259 567 231.5 573Q204 579 187 594Q170 609 163 634Q156 659 161 696H238Q231 658 247 644.5Q263 631 300 631Q337 631 358 644.5Q379 658 385 696Z" glyph-name="breve" horiz-adv-x="600" unicode="&#728;" /><glyph d="M120 386 180 766H281L221 386ZM49 -65 109 315H209L150 -65Z" glyph-name="brokenbar" horiz-adv-x="298" unicode="&#166;" /><glyph d="M207 170Q139 170 102 206.5Q65 243 65 305Q65 345 78 378Q91 411 114 434.5Q137 458 168.5 471Q200 484 238 484Q307 484 344 447.5Q381 411 381 349Q381 309 368 276Q355 243 332 219.5Q309 196 277 183Q245 170 207 170Z" glyph-name="bullet" horiz-adv-x="422" unicode="&#8226;" /><glyph d="M401 146 474 96Q436 37 380.5 12Q325 -13 254 -13Q152 -13 99.5 35Q47 83 47 183Q47 197 48.5 212Q50 227 52 244Q72 376 140 439.5Q208 503 320 503Q404 503 449 470.5Q494 438 513 378L427 334Q415 372 390 393Q365 414 313 414Q250 414 212 373Q174 332 160 244Q158 228 156.5 213.5Q155 199 155 187Q155 126 181.5 100.5Q208 75 268 75Q310 75 342.5 90Q375 105 401 146Z" glyph-name="c" horiz-adv-x="526" unicode="c" /><glyph d="M47 0ZM387 696H517L516 690L382 573H289V577ZM401 146 474 96Q436 37 380.5 12Q325 -13 254 -13Q152 -13 99.5 35Q47 83 47 183Q47 197 48.5 212Q50 227 52 244Q72 376 140 439.5Q208 503 320 503Q404 503 449 470.5Q494 438 513 378L427 334Q415 372 390 393Q365 414 313 414Q250 414 212 373Q174 332 160 244Q158 228 156.5 213.5Q155 199 155 187Q155 126 181.5 100.5Q208 75 268 75Q310 75 342.5 90Q375 105 401 146Z" glyph-name="cacute" horiz-adv-x="526" unicode="&#263;" /><glyph d="M236 573 134 694 135 696H239L291 633L367 696H473V694L334 573Z" glyph-name="caron" horiz-adv-x="600" unicode="&#711;" /><glyph d="M316 465H241L284 700H386Z" glyph-name="caronSlovak" horiz-adv-x="600" /><glyph d="M47 0ZM292 573 190 694 191 696H295L347 633L423 696H529V694L390 573ZM401 146 474 96Q436 37 380.5 12Q325 -13 254 -13Q152 -13 99.5 35Q47 83 47 183Q47 197 48.5 212Q50 227 52 244Q72 376 140 439.5Q208 503 320 503Q404 503 449 470.5Q494 438 513 378L427 334Q415 372 390 393Q365 414 313 414Q250 414 212 373Q174 332 160 244Q158 228 156.5 213.5Q155 199 155 187Q155 126 181.5 100.5Q208 75 268 75Q310 75 342.5 90Q375 105 401 146Z" glyph-name="ccaron" horiz-adv-x="526" unicode="&#269;" /><glyph d="M210 -239Q170 -239 138.5 -223Q107 -207 93 -174L146 -130Q157 -153 172 -165.5Q187 -178 216 -178Q239 -178 255 -167.5Q271 -157 271 -136Q271 -114 251.5 -106.5Q232 -99 205 -100L188 -88L221 -12Q135 -4 91 43.5Q47 91 47 183Q47 197 48.5 212Q50 227 52 244Q72 376 140 439.5Q208 503 320 503Q404 503 449 470.5Q494 438 513 378L427 334Q415 372 390 393Q365 414 313 414Q250 414 212 373Q174 332 160 244Q158 228 156.5 213.5Q155 199 155 187Q155 126 181.5 100.5Q208 75 268 75Q310 75 342.5 90Q375 105 401 146L474 96Q441 45 394.5 19.5Q348 -6 289 -11L266 -56Q298 -59 321.5 -79Q345 -99 345 -135Q345 -161 334 -180.5Q323 -200 304.5 -213Q286 -226 261.5 -232.5Q237 -239 210 -239Z" glyph-name="ccedilla" horiz-adv-x="526" unicode="&#231;" /><glyph d="M47 0ZM348 638 272 573H166V576L305 696H404L505 576V573H402ZM401 146 474 96Q436 37 380.5 12Q325 -13 254 -13Q152 -13 99.5 35Q47 83 47 183Q47 197 48.5 212Q50 227 52 244Q72 376 140 439.5Q208 503 320 503Q404 503 449 470.5Q494 438 513 378L427 334Q415 372 390 393Q365 414 313 414Q250 414 212 373Q174 332 160 244Q158 228 156.5 213.5Q155 199 155 187Q155 126 181.5 100.5Q208 75 268 75Q310 75 342.5 90Q375 105 401 146Z" glyph-name="ccircumflex" horiz-adv-x="526" unicode="&#265;" /><glyph d="M47 0ZM401 146 474 96Q436 37 380.5 12Q325 -13 254 -13Q152 -13 99.5 35Q47 83 47 183Q47 197 48.5 212Q50 227 52 244Q72 376 140 439.5Q208 503 320 503Q404 503 449 470.5Q494 438 513 378L427 334Q415 372 390 393Q365 414 313 414Q250 414 212 373Q174 332 160 244Q158 228 156.5 213.5Q155 199 155 187Q155 126 181.5 100.5Q208 75 268 75Q310 75 342.5 90Q375 105 401 146ZM342 576Q282 576 282 629Q282 668 304 685.5Q326 703 358 703Q419 703 419 649Q419 613 397.5 594.5Q376 576 342 576Z" glyph-name="cdotaccent" horiz-adv-x="526" unicode="&#267;" /><glyph d="M298 -103 281 -91 320 0H390L359 -59Q391 -62 414.5 -82Q438 -102 438 -138Q438 -164 427 -183.5Q416 -203 397.5 -216Q379 -229 354.5 -235.5Q330 -242 303 -242Q263 -242 231.5 -226Q200 -210 186 -177L239 -133Q250 -156 265 -168.5Q280 -181 309 -181Q332 -181 348 -170.5Q364 -160 364 -139Q364 -117 344.5 -109.5Q325 -102 298 -103Z" glyph-name="cedilla" horiz-adv-x="600" unicode="&#184;" /><glyph d="M204 -62 215 14Q59 31 59 196Q59 210 60 225Q61 240 63 257Q79 376 139 435Q199 494 293 501L305 578H377L365 499Q428 491 461.5 459Q495 427 511 379L431 336Q421 366 403.5 386.5Q386 407 351 415L302 97Q333 101 358 115.5Q383 130 404 162L472 114Q439 63 392.5 40Q346 17 289 13L277 -62ZM158 202Q158 155 175 131Q192 107 229 99L279 414Q231 404 202.5 366.5Q174 329 162 257Q160 242 159 227.5Q158 213 158 202Z" glyph-name="cent" horiz-adv-x="538" unicode="&#162;" /><glyph d="M304 638 228 573H122V576L261 696H360L461 576V573H358Z" glyph-name="circumflex" horiz-adv-x="600" unicode="&#710;" /><glyph d="M18 0ZM80 -6Q50 -6 34 9Q18 24 18 50Q18 87 39 107Q60 127 95 127Q157 127 157 70Q157 32 135.5 13Q114 -6 80 -6ZM142 357Q112 357 96 372Q80 387 80 413Q80 450 101 470Q122 490 157 490Q219 490 219 433Q219 395 197.5 376Q176 357 142 357Z" glyph-name="colon" horiz-adv-x="235" unicode=":" /><glyph d="M17 -140 3 -91Q33 -82 54.5 -59.5Q76 -37 85 -6Q55 -6 39.5 8.5Q24 23 24 49Q24 87 45.5 106Q67 125 99 125Q128 125 144.5 109Q161 93 161 58Q161 30 153 -0.5Q145 -31 127.5 -58.5Q110 -86 82.5 -108Q55 -130 17 -140Z" glyph-name="comma" horiz-adv-x="235" unicode="," /><glyph d="M239 -301 226 -256Q252 -248 271 -229Q290 -210 298 -182Q268 -183 252 -169.5Q236 -156 236 -130Q236 -95 256.5 -78Q277 -61 308 -61Q336 -61 352 -76Q368 -91 368 -125Q368 -155 358.5 -184Q349 -213 332 -237Q315 -261 291.5 -278Q268 -295 239 -301Z" glyph-name="commaaccent" horiz-adv-x="600" unicode="&#63171;" /><glyph d="M77 351Q88 429 120 492.5Q152 556 202 601Q252 646 318.5 670.5Q385 695 466 695Q538 695 593 675Q648 655 685.5 619Q723 583 742.5 531.5Q762 480 762 417Q762 399 760.5 384.5Q759 370 757 351Q745 273 713 210Q681 147 630.5 102Q580 57 513.5 32.5Q447 8 367 8Q296 8 241 27.5Q186 47 148.5 83.5Q111 120 91.5 171Q72 222 72 285Q72 301 73.5 317.5Q75 334 77 351ZM123 351Q117 315 117 284Q117 226 135 182.5Q153 139 186 109.5Q219 80 265.5 65.5Q312 51 369 51Q434 51 491 70Q548 89 592.5 126.5Q637 164 667.5 220Q698 276 710 351Q716 387 716 420Q716 478 698 521.5Q680 565 647 594Q614 623 567.5 637.5Q521 652 464 652Q399 652 342 633Q285 614 240.5 576.5Q196 539 165.5 482.5Q135 426 123 351ZM396 173Q324 173 284.5 206.5Q245 240 245 312Q245 326 246 336Q247 346 249 355Q262 451 312.5 495Q363 539 448 539Q504 539 537.5 519Q571 499 586 462L522 421Q512 447 493 460.5Q474 474 442 474Q395 474 367 447Q339 420 328 354Q324 334 324 317Q324 275 344.5 257Q365 239 406 239Q438 239 462 251.5Q486 264 504 294L560 261Q532 215 491 194Q450 173 396 173Z" glyph-name="copyright" horiz-adv-x="808" unicode="&#169;" /><glyph d="M313 461 368 423Q342 380 302 362Q262 344 211 344Q139 344 100.5 378Q62 412 62 484Q62 494 63 504.5Q64 515 66 527Q80 623 130.5 668Q181 713 258 713Q318 713 350 689Q382 665 396 623L330 588Q322 614 305 629Q288 644 252 644Q166 644 148 527Q146 514 145.5 506Q145 498 145 487Q145 446 163 428.5Q181 411 222 411Q251 411 273 421.5Q295 432 313 461Z" glyph-name="cordinal" horiz-adv-x="386" /><glyph d="M419 246Q421 260 422 273Q423 286 423 297Q423 360 393 388Q363 416 314 416Q251 416 213.5 375Q176 334 160 244Q157 224 156 213.5Q155 203 155 190Q155 75 259 75Q317 75 361 115.5Q405 156 419 246ZM488 0H392L398 78Q336 -13 219 -13Q136 -13 91.5 36Q47 85 47 179Q47 194 48.5 210.5Q50 227 52 244Q69 372 134 437.5Q199 503 301 503Q352 503 388.5 483.5Q425 464 445 426L489 700H599Z" glyph-name="d" horiz-adv-x="614" unicode="d" /><glyph d="M266 513H200L163 285H74L111 513H44L57 594H122L138 713H236L213 594H278Z" glyph-name="dagger" horiz-adv-x="311" unicode="&#8224;" /><glyph d="M38 475H104L113 529H47L60 610H124L138 713H236L216 610H280L268 529H202L193 475H260L247 394H182L167 285H70L91 394H26Z" glyph-name="daggerdbl" horiz-adv-x="311" unicode="&#8225;" /><glyph d="M47 0ZM705 465H630L673 700H775ZM419 246Q421 260 422 273Q423 286 423 297Q423 360 393 388Q363 416 314 416Q251 416 213.5 375Q176 334 160 244Q157 224 156 213.5Q155 203 155 190Q155 75 259 75Q317 75 361 115.5Q405 156 419 246ZM488 0H392L398 78Q336 -13 219 -13Q136 -13 91.5 36Q47 85 47 179Q47 194 48.5 210.5Q50 227 52 244Q69 372 134 437.5Q199 503 301 503Q352 503 388.5 483.5Q425 464 445 426L489 700H599Z" glyph-name="dcaron" horiz-adv-x="695" unicode="&#271;" /><glyph d="M418 246Q420 260 421 272.5Q422 285 422 296Q422 359 392 386.5Q362 414 314 414Q250 414 211 373Q172 332 158 244Q156 230 155 217Q154 204 154 190Q154 75 258 75Q316 75 360 115.5Q404 156 418 246ZM648 553H577L489 0H392L398 79Q335 -13 218 -13Q135 -13 91 35.5Q47 84 47 178Q47 194 48.5 210Q50 226 52 243Q69 371 134 436Q199 501 300 501Q351 501 388 481Q425 461 444 422L465 553H321L332 620H476L489 700H600L587 620H659Z" glyph-name="dcroat" horiz-adv-x="628" unicode="&#273;" /><glyph d="M453 566Q453 518 438 478Q423 438 395.5 409.5Q368 381 330 365.5Q292 350 246 350Q169 350 129.5 390Q90 430 90 497Q90 545 105 584.5Q120 624 147 652.5Q174 681 212 697Q250 713 296 713Q373 713 413 673Q453 633 453 566ZM165 504Q165 462 189 440Q213 418 253 418Q278 418 300.5 427Q323 436 340 453.5Q357 471 367 497Q377 523 377 558Q377 601 353 623Q329 645 289 645Q264 645 241.5 636Q219 627 202 609.5Q185 592 175 565.5Q165 539 165 504Z" glyph-name="degree" horiz-adv-x="459" unicode="&#176;" /><glyph d="M392 576Q333 576 333 628Q333 666 354 684.5Q375 703 407 703Q467 703 467 650Q467 613 446.5 594.5Q426 576 392 576ZM206 576Q147 576 147 628Q147 667 168.5 685Q190 703 222 703Q281 703 281 651Q281 613 261 594.5Q241 576 206 576Z" glyph-name="dieresis" horiz-adv-x="600" unicode="&#168;" /><glyph d="M269 417Q242 417 228 431Q214 445 214 469Q214 507 235 524.5Q256 542 285 542Q311 542 326.5 528.5Q342 515 342 490Q342 455 321.5 436Q301 417 269 417ZM457 349 445 270H46L58 349ZM216 79Q189 79 174.5 93.5Q160 108 160 132Q160 168 181 186.5Q202 205 232 205Q259 205 274 191Q289 177 289 151Q289 117 268 98Q247 79 216 79Z" glyph-name="divide" horiz-adv-x="505" unicode="&#247;" /><glyph d="M208 500Q208 468 227.5 447Q247 426 289 413L319 598Q208 588 208 500ZM342 293 311 102Q370 108 399.5 135Q429 162 429 207Q429 239 409.5 259Q390 279 342 293ZM215 -62 227 15Q161 21 109 49.5Q57 78 30 140L114 197Q136 152 165.5 130Q195 108 240 102L273 312Q107 358 107 488Q107 572 165 626Q223 680 333 687L346 766H417L404 685Q468 678 510 651Q552 624 573 572L487 518Q471 553 448.5 572Q426 591 390 596L357 393Q405 379 438.5 364Q472 349 493.5 329Q515 309 525 284Q535 259 535 226Q535 128 470.5 75Q406 22 298 15L286 -62Z" glyph-name="dollar" horiz-adv-x="611" unicode="$" /><glyph d="M294 576Q234 576 234 629Q234 668 256 685.5Q278 703 310 703Q371 703 371 649Q371 613 349.5 594.5Q328 576 294 576Z" glyph-name="dotaccent" horiz-adv-x="600" unicode="&#729;" /><glyph d="M122 491H232L155 0H44Z" glyph-name="dotlessi" horiz-adv-x="279" unicode="&#305;" /><glyph d="M41 -28 124 491H233L150 -38Q135 -131 84 -174.5Q33 -218 -41 -218Q-64 -218 -83.5 -214.5Q-103 -211 -126 -202L-96 -117Q-84 -122 -72.5 -125Q-61 -128 -44 -128Q-28 -128 -14.5 -123.5Q-1 -119 10 -107.5Q21 -96 28.5 -76.5Q36 -57 41 -28Z" glyph-name="dotlessj" horiz-adv-x="279" unicode="&#567;" /><glyph d="M215 -65 346 766H448L317 -65ZM48 -65 179 766H280L149 -65Z" glyph-name="doublebar" horiz-adv-x="472" /><glyph d="M251 -13Q154 -13 100.5 34.5Q47 82 47 184Q47 198 48.5 212.5Q50 227 52 244Q69 370 139 436.5Q209 503 325 503Q373 503 407.5 489Q442 475 464.5 450Q487 425 497.5 390.5Q508 356 508 315Q508 269 494 213H154Q153 205 153 198V184Q153 123 181.5 97Q210 71 266 71Q312 71 345.5 85.5Q379 100 406 140L474 94Q436 39 383.5 13Q331 -13 251 -13ZM312 419Q258 419 220.5 389Q183 359 166 288H404Q405 295 405 301V316Q406 370 382.5 394.5Q359 419 312 419Z" glyph-name="e" horiz-adv-x="547" unicode="e" /><glyph d="M47 0ZM379 696H509L508 690L374 573H281V577ZM251 -13Q154 -13 100.5 34.5Q47 82 47 184Q47 198 48.5 212.5Q50 227 52 244Q69 370 139 436.5Q209 503 325 503Q373 503 407.5 489Q442 475 464.5 450Q487 425 497.5 390.5Q508 356 508 315Q508 269 494 213H154Q153 205 153 198V184Q153 123 181.5 97Q210 71 266 71Q312 71 345.5 85.5Q379 100 406 140L474 94Q436 39 383.5 13Q331 -13 251 -13ZM312 419Q258 419 220.5 389Q183 359 166 288H404Q405 295 405 301V316Q406 370 382.5 394.5Q359 419 312 419Z" glyph-name="eacute" horiz-adv-x="547" unicode="&#233;" /><glyph d="M47 0ZM251 -13Q154 -13 100.5 34.5Q47 82 47 184Q47 198 48.5 212.5Q50 227 52 244Q69 370 139 436.5Q209 503 325 503Q373 503 407.5 489Q442 475 464.5 450Q487 425 497.5 390.5Q508 356 508 315Q508 269 494 213H154Q153 205 153 198V184Q153 123 181.5 97Q210 71 266 71Q312 71 345.5 85.5Q379 100 406 140L474 94Q436 39 383.5 13Q331 -13 251 -13ZM312 419Q258 419 220.5 389Q183 359 166 288H404Q405 295 405 301V316Q406 370 382.5 394.5Q359 419 312 419ZM422 696H499Q494 659 480 634Q466 609 445 594Q424 579 395 573Q366 567 331 567Q296 567 268.5 573Q241 579 224 594Q207 609 200 634Q193 659 198 696H275Q268 658 284 644.5Q300 631 337 631Q374 631 395 644.5Q416 658 422 696Z" glyph-name="ebreve" horiz-adv-x="547" unicode="&#277;" /><glyph d="M47 0ZM286 573 184 694 185 696H289L341 633L417 696H523V694L384 573ZM251 -13Q154 -13 100.5 34.5Q47 82 47 184Q47 198 48.5 212.5Q50 227 52 244Q69 370 139 436.5Q209 503 325 503Q373 503 407.5 489Q442 475 464.5 450Q487 425 497.5 390.5Q508 356 508 315Q508 269 494 213H154Q153 205 153 198V184Q153 123 181.5 97Q210 71 266 71Q312 71 345.5 85.5Q379 100 406 140L474 94Q436 39 383.5 13Q331 -13 251 -13ZM312 419Q258 419 220.5 389Q183 359 166 288H404Q405 295 405 301V316Q406 370 382.5 394.5Q359 419 312 419Z" glyph-name="ecaron" horiz-adv-x="546" unicode="&#283;" /><glyph d="M47 0ZM340 638 264 573H158V576L297 696H396L497 576V573H394ZM251 -13Q154 -13 100.5 34.5Q47 82 47 184Q47 198 48.5 212.5Q50 227 52 244Q69 370 139 436.5Q209 503 325 503Q373 503 407.5 489Q442 475 464.5 450Q487 425 497.5 390.5Q508 356 508 315Q508 269 494 213H154Q153 205 153 198V184Q153 123 181.5 97Q210 71 266 71Q312 71 345.5 85.5Q379 100 406 140L474 94Q436 39 383.5 13Q331 -13 251 -13ZM312 419Q258 419 220.5 389Q183 359 166 288H404Q405 295 405 301V316Q406 370 382.5 394.5Q359 419 312 419Z" glyph-name="ecircumflex" horiz-adv-x="547" unicode="&#234;" /><glyph d="M47 0ZM426 576Q367 576 367 628Q367 666 388 684.5Q409 703 441 703Q501 703 501 650Q501 613 480.5 594.5Q460 576 426 576ZM240 576Q181 576 181 628Q181 667 202.5 685Q224 703 256 703Q315 703 315 651Q315 613 295 594.5Q275 576 240 576ZM251 -13Q154 -13 100.5 34.5Q47 82 47 184Q47 198 48.5 212.5Q50 227 52 244Q69 370 139 436.5Q209 503 325 503Q373 503 407.5 489Q442 475 464.5 450Q487 425 497.5 390.5Q508 356 508 315Q508 269 494 213H154Q153 205 153 198V184Q153 123 181.5 97Q210 71 266 71Q312 71 345.5 85.5Q379 100 406 140L474 94Q436 39 383.5 13Q331 -13 251 -13ZM312 419Q258 419 220.5 389Q183 359 166 288H404Q405 295 405 301V316Q406 370 382.5 394.5Q359 419 312 419Z" glyph-name="edieresis" horiz-adv-x="547" unicode="&#235;" /><glyph d="M47 0ZM251 -13Q154 -13 100.5 34.5Q47 82 47 184Q47 198 48.5 212.5Q50 227 52 244Q69 370 139 436.5Q209 503 325 503Q373 503 407.5 489Q442 475 464.5 450Q487 425 497.5 390.5Q508 356 508 315Q508 269 494 213H154Q153 205 153 198V184Q153 123 181.5 97Q210 71 266 71Q312 71 345.5 85.5Q379 100 406 140L474 94Q436 39 383.5 13Q331 -13 251 -13ZM312 419Q258 419 220.5 389Q183 359 166 288H404Q405 295 405 301V316Q406 370 382.5 394.5Q359 419 312 419ZM334 576Q274 576 274 629Q274 668 296 685.5Q318 703 350 703Q411 703 411 649Q411 613 389.5 594.5Q368 576 334 576Z" glyph-name="edotaccent" horiz-adv-x="547" unicode="&#279;" /><glyph d="M47 0ZM251 -13Q154 -13 100.5 34.5Q47 82 47 184Q47 198 48.5 212.5Q50 227 52 244Q69 370 139 436.5Q209 503 325 503Q373 503 407.5 489Q442 475 464.5 450Q487 425 497.5 390.5Q508 356 508 315Q508 269 494 213H154Q153 205 153 198V184Q153 123 181.5 97Q210 71 266 71Q312 71 345.5 85.5Q379 100 406 140L474 94Q436 39 383.5 13Q331 -13 251 -13ZM312 419Q258 419 220.5 389Q183 359 166 288H404Q405 295 405 301V316Q406 370 382.5 394.5Q359 419 312 419ZM294 573 192 690 193 696H323L381 577V573Z" glyph-name="egrave" horiz-adv-x="547" unicode="&#232;" /><glyph d="M260 -13Q148 -13 89 32Q30 77 30 161Q30 203 42.5 237.5Q55 272 77 298Q99 324 128.5 341Q158 358 191 367Q151 383 129.5 414Q108 445 108 493Q108 548 126.5 589Q145 630 179 657.5Q213 685 261 699Q309 713 368 713Q470 713 523 674.5Q576 636 576 558Q576 485 540 435Q504 385 443 362Q490 348 518.5 314.5Q547 281 547 226Q547 170 527 125.5Q507 81 469.5 50.5Q432 20 379 3.5Q326 -13 260 -13ZM323 408Q353 408 379.5 417Q406 426 426.5 443Q447 460 459 484.5Q471 509 471 541Q471 584 441.5 606Q412 628 358 628Q292 628 251 595Q210 562 210 497Q210 455 238.5 431.5Q267 408 323 408ZM269 73Q302 73 332.5 82Q363 91 386.5 109.5Q410 128 424 155Q438 182 438 218Q438 266 403.5 291Q369 316 308 316Q271 316 240.5 306.5Q210 297 187.5 278.5Q165 260 152.5 233Q140 206 140 172Q140 123 173 98Q206 73 269 73Z" glyph-name="eight" horiz-adv-x="625" unicode="8" /><glyph d="M282 -13Q169 -13 110 32.5Q51 78 51 161Q51 203 63.5 237.5Q76 272 98 298Q120 324 149.5 341Q179 358 212 366Q172 383 150.5 414Q129 445 129 493Q129 547 147.5 588.5Q166 630 200 657.5Q234 685 282.5 699Q331 713 390 713Q493 713 546.5 674.5Q600 636 600 558Q600 484 564 434.5Q528 385 466 362Q514 348 542.5 314.5Q571 281 571 224Q571 169 551 125Q531 81 493.5 50.5Q456 20 402 3.5Q348 -13 282 -13ZM346 408Q375 408 402 416.5Q429 425 449.5 442Q470 459 482 484Q494 509 494 541Q494 584 464.5 606Q435 628 380 628Q314 628 273 595Q232 562 232 497Q232 455 260.5 431.5Q289 408 346 408ZM292 73Q325 73 355.5 82Q386 91 409.5 109.5Q433 128 447.5 155Q462 182 462 218Q462 266 427 291Q392 316 332 316Q295 316 264 306.5Q233 297 210.5 278.5Q188 260 175.5 233Q163 206 163 172Q163 122 196 97.5Q229 73 292 73Z" glyph-name="eight.LP" horiz-adv-x="645" /><glyph d="M263 -13Q156 -13 100 32Q44 77 44 159Q44 202 56 237Q68 272 89 297.5Q110 323 138 340Q166 357 197 366Q159 382 138.5 413Q118 444 118 492Q118 547 136.5 588Q155 629 188 657Q221 685 267.5 699Q314 713 371 713Q469 713 520.5 675Q572 637 572 559Q572 484 536.5 434.5Q501 385 443 363Q488 349 514.5 315.5Q541 282 541 228Q541 172 521.5 127Q502 82 466 51Q430 20 378.5 3.5Q327 -13 263 -13ZM327 408Q356 408 381.5 417.5Q407 427 426 444.5Q445 462 456 487Q467 512 467 543Q467 628 361 628Q298 628 259.5 594.5Q221 561 221 495Q221 454 247 431Q273 408 327 408ZM273 74Q305 74 334 83.5Q363 93 385 111.5Q407 130 420 157.5Q433 185 433 220Q433 267 401 291.5Q369 316 312 316Q241 316 196.5 278.5Q152 241 152 170Q152 122 183 98Q214 74 273 74Z" glyph-name="eight.OP" horiz-adv-x="618" /><glyph d="M262 -13Q150 -13 91 32.5Q32 78 32 161Q32 204 44.5 238Q57 272 79 298Q101 324 130.5 341Q160 358 193 366Q154 383 132.5 414Q111 445 111 493Q111 547 129.5 588.5Q148 630 181.5 657.5Q215 685 263 699Q311 713 370 713Q472 713 525.5 674.5Q579 636 579 558Q579 484 542.5 434.5Q506 385 446 362Q493 348 521 314.5Q549 281 549 226Q549 170 529 126Q509 82 471.5 51Q434 20 381 3.5Q328 -13 262 -13ZM326 408Q355 408 382 416.5Q409 425 429.5 442Q450 459 462 484Q474 509 474 541Q474 584 444.5 606Q415 628 360 628Q294 628 253.5 595Q213 562 213 497Q213 455 241.5 431.5Q270 408 326 408ZM272 73Q304 73 334.5 82Q365 91 388.5 109.5Q412 128 426.5 155Q441 182 441 218Q441 266 406 291Q371 316 311 316Q274 316 243 306.5Q212 297 190 278.5Q168 260 155.5 233Q143 206 143 172Q143 122 176 97.5Q209 73 272 73Z" glyph-name="eight.OT" horiz-adv-x="625" /><glyph d="M0 0ZM135 -211Q-7 -211 -7 -107Q-7 -57 20 -27.5Q47 2 83 13Q40 34 40 89Q40 154 83.5 186.5Q127 219 201 219Q330 219 330 123Q330 81 309.5 52.5Q289 24 255 10Q282 0 297.5 -20Q313 -40 313 -73Q313 -139 265 -175Q217 -211 135 -211ZM174 44Q208 44 229.5 61Q251 78 251 109Q251 130 235.5 141Q220 152 193 152Q158 152 137.5 136Q117 120 117 89Q117 44 174 44ZM144 -147Q181 -147 205 -129Q229 -111 229 -76Q229 -51 211.5 -38.5Q194 -26 164 -26Q126 -26 102.5 -44Q79 -62 79 -97Q79 -121 96 -134Q113 -147 144 -147Z" glyph-name="eight.inf" horiz-adv-x="398" /><glyph d="M555 -6Q525 -6 509 9Q493 24 493 50Q493 87 513.5 107Q534 127 570 127Q632 127 632 70Q632 32 610 13Q588 -6 555 -6ZM319 -6Q289 -6 273.5 9Q258 24 258 50Q258 87 278.5 107Q299 127 335 127Q396 127 396 70Q396 32 374.5 13Q353 -6 319 -6ZM84 -6Q54 -6 38 9Q22 24 22 50Q22 87 43 107Q64 127 99 127Q161 127 161 70Q161 32 139.5 13Q118 -6 84 -6Z" glyph-name="ellipsis" horiz-adv-x="706" unicode="&#8230;" /><glyph d="M47 0ZM251 -13Q154 -13 100.5 34.5Q47 82 47 184Q47 198 48.5 212.5Q50 227 52 244Q69 370 139 436.5Q209 503 325 503Q373 503 407.5 489Q442 475 464.5 450Q487 425 497.5 390.5Q508 356 508 315Q508 269 494 213H154Q153 205 153 198V184Q153 123 181.5 97Q210 71 266 71Q312 71 345.5 85.5Q379 100 406 140L474 94Q436 39 383.5 13Q331 -13 251 -13ZM312 419Q258 419 220.5 389Q183 359 166 288H404Q405 295 405 301V316Q406 370 382.5 394.5Q359 419 312 419ZM479 666 467 597H205L216 666Z" glyph-name="emacron" horiz-adv-x="547" unicode="&#275;" /><glyph d="M732 305 718 214H41L56 305Z" glyph-name="emdash" horiz-adv-x="776" unicode="&#8212;" /><glyph d="M747 399 733 308H56L71 399Z" glyph-name="emdash.cap" horiz-adv-x="776" /><glyph glyph-name="emspace" horiz-adv-x="1000" unicode="&#8195;" /><glyph d="M537 305 523 214H42L56 305Z" glyph-name="endash" horiz-adv-x="579" unicode="&#8211;" /><glyph d="M551 399 537 308H56L70 399Z" glyph-name="endash.cap" horiz-adv-x="579" /><glyph d="M393 -27 440 278Q442 289 443 300Q444 311 444 320Q444 406 356 406Q296 406 251 363.5Q206 321 193 245L155 0H44L121 491H214L211 401Q246 455 297 479Q348 503 405 503Q484 503 522 463Q560 423 560 354Q560 342 559 329.5Q558 317 556 304L502 -38Q487 -133 436 -175.5Q385 -218 311 -218Q289 -218 268.5 -214.5Q248 -211 226 -202L256 -117Q268 -122 279.5 -125Q291 -128 308 -128Q340 -128 362 -106.5Q384 -85 393 -27Z" glyph-name="eng" horiz-adv-x="624" unicode="&#331;" /><glyph glyph-name="enspace" horiz-adv-x="500" unicode="&#8194;" /><glyph d="M291 -218Q270 -218 250 -213.5Q230 -209 214.5 -198Q199 -187 189.5 -168Q180 -149 180 -120Q180 -86 192 -59Q204 -32 224 -11Q139 -6 93 42Q47 90 47 184Q47 198 48.5 212.5Q50 227 52 244Q69 370 139 436.5Q209 503 325 503Q373 503 407.5 489Q442 475 464.5 450Q487 425 497.5 390.5Q508 356 508 315Q508 269 494 213H154Q153 205 153 197V184Q153 123 181.5 97Q210 71 266 71Q312 71 345.5 85.5Q379 100 406 140L474 94Q445 52 408.5 27.5Q372 3 321 -6Q289 -19 272 -47Q255 -75 255 -103Q255 -128 268.5 -137.5Q282 -147 305 -147Q322 -147 339 -143Q356 -139 371 -130L383 -194Q341 -218 291 -218ZM312 419Q257 419 220 389Q183 359 166 288H404Q404 295 404.5 302Q405 309 405 316Q406 370 382.5 394.5Q359 419 312 419Z" glyph-name="eogonek" horiz-adv-x="547" unicode="&#281;" /><glyph d="M468 422 456 343H57L68 422ZM445 276 433 197H34L46 276Z" glyph-name="equal" horiz-adv-x="502" unicode="=" /><glyph d="M0 0ZM254 55 245 -5H3L12 55ZM240 -35 232 -96H-11L-3 -35Z" glyph-name="equal.inf" horiz-adv-x="311" /><glyph d="M547 723 571 675 489 626Q521 578 533.5 522Q546 466 546 403Q546 374 544 344.5Q542 315 538 285Q519 126 448 56.5Q377 -13 260 -13Q156 -13 101.5 34.5Q47 82 47 185Q47 199 48 212.5Q49 226 51 242Q68 373 137 434.5Q206 496 319 496Q402 496 447 445Q443 483 433 516Q423 549 403 575L315 523L290 572L363 616Q341 633 313.5 647Q286 661 252 670L294 744Q392 724 452 668ZM426 240Q428 256 429 271Q430 286 430 297Q430 358 403 384.5Q376 411 319 411Q249 411 209.5 371.5Q170 332 157 240Q155 225 153.5 211.5Q152 198 152 186Q152 126 180.5 99.5Q209 73 265 73Q331 73 371.5 112Q412 151 426 240Z" glyph-name="eth" horiz-adv-x="588" unicode="&#240;" /><glyph d="M245 700 151 204H66L128 700ZM77 -6Q48 -6 32.5 9Q17 24 17 50Q17 88 38.5 107.5Q60 127 94 127Q155 127 155 71Q155 33 133.5 13.5Q112 -6 77 -6Z" glyph-name="exclam" horiz-adv-x="234" unicode="!" /><glyph d="M10 -199 104 297H189L127 -199ZM178 507Q207 507 222.5 492Q238 477 238 451Q238 413 216.5 393.5Q195 374 161 374Q100 374 100 430Q100 468 121.5 487.5Q143 507 178 507Z" glyph-name="exclamdown" horiz-adv-x="234" unicode="&#161;" /><glyph d="M30 0 124 496H209L147 0ZM198 706Q227 706 242.5 691Q258 676 258 650Q258 612 236.5 592.5Q215 573 181 573Q120 573 120 629Q120 667 141.5 686.5Q163 706 198 706Z" glyph-name="exclamdown.cap" horiz-adv-x="234" /><glyph d="M65 0 129 406H44L58 491H143L152 542Q166 637 215.5 679.5Q265 722 341 722Q364 722 390.5 718Q417 714 434 704L403 620Q390 626 377.5 629.5Q365 633 348 633Q313 633 290 612.5Q267 592 258 538L251 491H385L372 406H237L174 0Z" glyph-name="f" horiz-adv-x="361" unicode="f" /><glyph d="M552 574Q490 574 490 629Q490 668 512 687Q534 706 569 706Q598 706 614.5 691.5Q631 677 631 650Q631 611 609 592.5Q587 574 552 574ZM65 0 129 406H44L58 491H143L152 542Q166 637 215.5 679.5Q265 722 341 722Q364 722 390 718Q416 714 433 704L402 620Q390 626 377.5 629.5Q365 633 348 633Q313 633 290 612.5Q267 592 258 538L251 491H385L372 406H237L174 0ZM482 491H594L517 0H406Z" glyph-name="fi" horiz-adv-x="640" unicode="&#64257;" /><glyph d="M537 305 523 214H42L56 305Z" glyph-name="figuredash" horiz-adv-x="579" unicode="&#8210;" /><glyph d="M551 399 537 308H56L70 399Z" glyph-name="figuredash.cap" horiz-adv-x="579" /><glyph glyph-name="figurespace" horiz-adv-x="625" unicode="&#8199;" /><glyph d="M245 605 197 415Q229 432 267.5 441Q306 450 345 450Q388 450 425.5 439.5Q463 429 490.5 407Q518 385 533.5 351.5Q549 318 549 272Q549 208 528 155.5Q507 103 467.5 65.5Q428 28 371.5 7.5Q315 -13 244 -13Q161 -13 102 23Q43 59 15 124L101 179Q142 75 254 75Q294 75 328 88Q362 101 386.5 124.5Q411 148 424.5 181.5Q438 215 438 256Q438 310 404 336Q370 362 309 362Q259 362 219 347Q179 332 144 306L82 340L172 700H587L572 605Z" glyph-name="five" horiz-adv-x="625" unicode="5" /><glyph d="M242 605 194 415Q226 432 264.5 441Q303 450 343 450Q387 450 424.5 439.5Q462 429 490 407Q518 385 533.5 351Q549 317 549 271Q549 208 528 156Q507 104 467 66.5Q427 29 370 8Q313 -13 241 -13Q158 -13 98.5 23Q39 59 11 124L98 179Q140 76 251 76Q291 76 325.5 89Q360 102 384.5 125Q409 148 423 181Q437 214 437 255Q437 310 402 336.5Q367 363 306 363Q257 363 216.5 347.5Q176 332 141 306L79 340L169 700H587L572 605Z" glyph-name="five.LP" horiz-adv-x="591" /><glyph d="M222 507 174 315Q205 332 241 341Q277 350 314 350Q356 350 392 339.5Q428 329 454.5 307Q481 285 496 251Q511 217 511 170Q511 108 490 56Q469 4 430 -33.5Q391 -71 336.5 -92Q282 -113 215 -113Q133 -113 76.5 -79.5Q20 -46 -6 17L77 73Q96 27 131.5 1Q167 -25 224 -25Q262 -25 294 -11.5Q326 2 349.5 26Q373 50 386 83.5Q399 117 399 158Q399 212 367 237Q335 262 273 262Q228 262 190.5 247Q153 232 119 206L58 240L149 600H548L533 507Z" glyph-name="five.OP" horiz-adv-x="559" /><glyph d="M244 505 196 315Q228 332 266.5 341Q305 350 345 350Q388 350 425 339.5Q462 329 489.5 307Q517 285 532.5 251.5Q548 218 548 172Q548 108 527 55.5Q506 3 466.5 -34.5Q427 -72 370.5 -92.5Q314 -113 243 -113Q160 -113 101 -77Q42 -41 14 24L100 79Q142 -25 253 -25Q293 -25 327 -12Q361 1 385.5 25Q410 49 423.5 82.5Q437 116 437 158Q437 212 403 237Q369 262 308 262Q258 262 218 247Q178 232 143 206L82 240L171 600H586L571 505Z" glyph-name="five.OT" horiz-adv-x="625" /><glyph d="M0 0ZM117 137 94 46Q113 54 131.5 57.5Q150 61 173 61Q229 61 262.5 36Q296 11 296 -48Q296 -84 283.5 -113.5Q271 -143 247.5 -165Q224 -187 190.5 -199Q157 -211 114 -211Q60 -211 23 -191Q-14 -171 -32 -132L33 -88Q46 -114 65.5 -127.5Q85 -141 117 -141Q159 -141 185 -118Q211 -95 211 -57Q211 -28 193 -15Q175 -2 143 -2Q96 -2 58 -29L9 -3L61 208H320L309 137Z" glyph-name="five.inf" horiz-adv-x="363" /><glyph d="M65 0 129 406H44L58 491H143L152 542Q166 637 215.5 679.5Q265 722 341 722Q364 722 390 718Q416 714 433 704L402 620Q390 626 377.5 629.5Q365 633 348 633Q313 633 290 612.5Q267 592 258 538L251 491H385L372 406H237L174 0ZM524 0Q466 0 437 27.5Q408 55 419 124L510 700H621L532 133Q528 109 537 98Q546 87 572 87H612L599 0Z" glyph-name="fl" horiz-adv-x="637" unicode="&#64258;" /><glyph d="M65 0 129 406H44L58 491H143L152 542Q166 637 215.5 679.5Q265 722 341 722Q364 722 390 718Q416 714 433 704L402 620Q390 626 377.5 629.5Q365 633 348 633Q313 633 290 612.5Q267 592 258 538L251 491H385L372 406H237L174 0ZM625 700 514 0H404L515 700Z" glyph-name="fl.alt" horiz-adv-x="644" /><glyph d="M42 -32 115 290H33L51 373H134L151 441Q173 537 224 579.5Q275 622 351 622Q374 622 399.5 617.5Q425 613 441 603L404 519Q383 531 351 531Q316 531 293 511Q270 491 258 437L243 373H376L357 290H224L149 -39Q128 -133 76.5 -175.5Q25 -218 -49 -218Q-70 -218 -93 -214Q-116 -210 -133 -202L-98 -117Q-87 -122 -75.5 -125Q-64 -128 -47 -128Q-15 -128 7 -107.5Q29 -87 42 -32Z" glyph-name="florin" horiz-adv-x="389" unicode="&#402;" /><glyph d="M1 171 15 255 316 700H423L131 269H384L427 541H535L491 269H586L570 171H476L449 0H341L368 171Z" glyph-name="four" horiz-adv-x="625" unicode="4" /><glyph d="M18 171 31 250 323 700H437L152 269H412L460 569H569L521 269H619L604 171H505L478 0H369L396 171Z" glyph-name="four.LP" horiz-adv-x="651" /><glyph d="M6 71 17 147 298 600H406L133 163H378L427 469H531L483 163H575L560 71H469L442 -100H337L364 71Z" glyph-name="four.OP" horiz-adv-x="610" /><glyph d="M-2 71 12 155 313 600H420L128 169H381L424 441H532L488 169H583L567 71H473L446 -100H338L365 71Z" glyph-name="four.OT" horiz-adv-x="625" /><glyph d="M0 0ZM-19 -109 -10 -49 155 208H240L82 -34H210L236 120H317L293 -34H348L336 -109H280L266 -200H184L199 -109Z" glyph-name="four.inf" horiz-adv-x="403" /><glyph glyph-name="fourperemspace" horiz-adv-x="250" unicode="&#8197;" /><glyph d="M523 700 79 0H-24L421 700Z" glyph-name="fraction" horiz-adv-x="515" unicode="&#8260;" /><glyph d="M416 255Q418 267 419 278.5Q420 290 420 301Q420 362 389.5 389.5Q359 417 311 417Q247 417 209.5 378Q172 339 159 254Q157 239 155.5 226.5Q154 214 154 201Q154 143 180.5 116.5Q207 90 258 90Q316 90 359 128.5Q402 167 416 255ZM562 491 487 16Q478 -43 453 -87Q428 -131 391 -160Q354 -189 306.5 -203.5Q259 -218 204 -218Q132 -218 80.5 -193Q29 -168 6 -105L83 -49Q100 -95 131.5 -113.5Q163 -132 210 -132Q276 -132 320 -99Q364 -66 376 10L388 86Q329 3 220 3Q137 3 92 50.5Q47 98 47 193Q47 207 48 221.5Q49 236 51 253Q68 377 130.5 440Q193 503 292 503Q351 503 392 480.5Q433 458 451 412L472 491Z" glyph-name="g" horiz-adv-x="608" unicode="g" /><glyph d="M6 0ZM416 255Q418 267 419 278.5Q420 290 420 301Q420 362 389.5 389.5Q359 417 311 417Q247 417 209.5 378Q172 339 159 254Q157 239 155.5 226.5Q154 214 154 201Q154 143 180.5 116.5Q207 90 258 90Q316 90 359 128.5Q402 167 416 255ZM562 491 487 16Q478 -43 453 -87Q428 -131 391 -160Q354 -189 306.5 -203.5Q259 -218 204 -218Q132 -218 80.5 -193Q29 -168 6 -105L83 -49Q100 -95 131.5 -113.5Q163 -132 210 -132Q276 -132 320 -99Q364 -66 376 10L388 86Q329 3 220 3Q137 3 92 50.5Q47 98 47 193Q47 207 48 221.5Q49 236 51 253Q68 377 130.5 440Q193 503 292 503Q351 503 392 480.5Q433 458 451 412L472 491ZM420 696H497Q492 659 478 634Q464 609 443 594Q422 579 393 573Q364 567 329 567Q294 567 266.5 573Q239 579 222 594Q205 609 198 634Q191 659 196 696H273Q266 658 282 644.5Q298 631 335 631Q372 631 393 644.5Q414 658 420 696Z" glyph-name="gbreve" horiz-adv-x="608" unicode="&#287;" /><glyph d="M6 0ZM339 638 263 573H157V576L296 696H395L496 576V573H393ZM416 255Q418 267 419 278.5Q420 290 420 301Q420 362 389.5 389.5Q359 417 311 417Q247 417 209.5 378Q172 339 159 254Q157 239 155.5 226.5Q154 214 154 201Q154 143 180.5 116.5Q207 90 258 90Q316 90 359 128.5Q402 167 416 255ZM562 491 487 16Q478 -43 453 -87Q428 -131 391 -160Q354 -189 306.5 -203.5Q259 -218 204 -218Q132 -218 80.5 -193Q29 -168 6 -105L83 -49Q100 -95 131.5 -113.5Q163 -132 210 -132Q276 -132 320 -99Q364 -66 376 10L388 86Q329 3 220 3Q137 3 92 50.5Q47 98 47 193Q47 207 48 221.5Q49 236 51 253Q68 377 130.5 440Q193 503 292 503Q351 503 392 480.5Q433 458 451 412L472 491Z" glyph-name="gcircumflex" horiz-adv-x="608" unicode="&#285;" /><glyph d="M401 804 414 759Q388 751 369 732Q350 713 342 685Q372 686 388 672.5Q404 659 404 633Q404 598 383.5 581Q363 564 332 564Q304 564 288 579Q272 594 272 628Q272 658 281.5 687Q291 716 308 740Q325 764 348.5 781Q372 798 401 804ZM416 255Q418 267 419 278.5Q420 290 420 301Q420 362 389.5 389.5Q359 417 311 417Q247 417 209.5 378Q172 339 159 254Q157 239 155.5 226.5Q154 214 154 201Q154 143 180.5 116.5Q207 90 258 90Q316 90 359 128.5Q402 167 416 255ZM562 491 487 16Q478 -43 453 -87Q428 -131 391 -160Q354 -189 306.5 -203.5Q259 -218 204 -218Q132 -218 80.5 -193Q29 -168 6 -105L83 -49Q100 -95 131.5 -113.5Q163 -132 210 -132Q276 -132 320 -99Q364 -66 376 10L388 86Q329 3 220 3Q137 3 92 50.5Q47 98 47 193Q47 207 48 221.5Q49 236 51 253Q68 377 130.5 440Q193 503 292 503Q351 503 392 480.5Q433 458 451 412L472 491Z" glyph-name="gcommaaccent" horiz-adv-x="608" unicode="&#291;" /><glyph d="M6 0ZM416 255Q418 267 419 278.5Q420 290 420 301Q420 362 389.5 389.5Q359 417 311 417Q247 417 209.5 378Q172 339 159 254Q157 239 155.5 226.5Q154 214 154 201Q154 143 180.5 116.5Q207 90 258 90Q316 90 359 128.5Q402 167 416 255ZM562 491 487 16Q478 -43 453 -87Q428 -131 391 -160Q354 -189 306.5 -203.5Q259 -218 204 -218Q132 -218 80.5 -193Q29 -168 6 -105L83 -49Q100 -95 131.5 -113.5Q163 -132 210 -132Q276 -132 320 -99Q364 -66 376 10L388 86Q329 3 220 3Q137 3 92 50.5Q47 98 47 193Q47 207 48 221.5Q49 236 51 253Q68 377 130.5 440Q193 503 292 503Q351 503 392 480.5Q433 458 451 412L472 491ZM332 576Q272 576 272 629Q272 668 294 685.5Q316 703 348 703Q409 703 409 649Q409 613 387.5 594.5Q366 576 332 576Z" glyph-name="gdotaccent" horiz-adv-x="608" unicode="&#289;" /><glyph d="M353 329H301L315 417H363Q413 417 444 445.5Q475 474 475 533Q475 581 446.5 604Q418 627 367 627Q307 627 270.5 593.5Q234 560 223 491L145 0H35L115 502Q132 605 199 660.5Q266 716 377 716Q477 716 530 671Q583 626 583 545Q583 483 555 440.5Q527 398 484 375Q531 355 552.5 317.5Q574 280 574 228Q574 174 556.5 130.5Q539 87 508 56.5Q477 26 434.5 9Q392 -8 343 -8Q308 -8 280.5 -2Q253 4 226 17L255 101Q287 82 333 82Q393 82 430 118.5Q467 155 467 224Q467 246 461 265Q455 284 441.5 298Q428 312 406.5 320.5Q385 329 353 329Z" glyph-name="germandbls" horiz-adv-x="611" unicode="&#223;" /><glyph d="M271 573 169 690 170 696H300L358 577V573Z" glyph-name="grave" horiz-adv-x="600" unicode="`" /><glyph d="M101 88 63 154 302 311 117 466 172 530 415 332 408 287Z" glyph-name="greater" horiz-adv-x="493" unicode="&gt;" /><glyph d="M418 315 123 144 91 209 309 337 134 465 183 529 425 359ZM388 79 375 0H46L58 79Z" glyph-name="greaterequal" horiz-adv-x="503" unicode="&#8805;" /><glyph d="M432 0 274 245V248L502 491H625L389 243L546 0ZM207 0 54 243 55 246 282 491H402L170 241L323 0Z" glyph-name="guillemotleft" horiz-adv-x="647" unicode="&#171;" /><glyph d="M216 491 374 246V243L146 0H23L259 248L102 491ZM441 491 594 248 593 245 366 0H246L478 250L325 491Z" glyph-name="guillemotright" horiz-adv-x="647" unicode="&#187;" /><glyph d="M202 0 52 243 53 246 280 491H401L168 241L321 0Z" glyph-name="guilsinglleft" horiz-adv-x="419" unicode="&#8249;" /><glyph d="M218 491 368 248 367 245 140 0H19L252 250L99 491Z" glyph-name="guilsinglright" horiz-adv-x="419" unicode="&#8250;" /><glyph d="M265 700 216 398Q251 453 301 478Q351 503 407 503Q485 503 522.5 463Q560 423 560 354Q560 332 555 304L507 0H397L441 278Q444 300 444 320Q444 406 356 406Q296 406 251 362.5Q206 319 192 238L154 0H44L155 700Z" glyph-name="h" horiz-adv-x="622" unicode="h" /><glyph glyph-name="hairspace" horiz-adv-x="100" unicode="&#8202;" /><glyph d="M73 553 83 620H156L169 700H280L267 620H410L401 553H256L232 397Q267 452 316.5 476.5Q366 501 421 501Q496 501 535 462.5Q574 424 574 352Q574 340 573 327.5Q572 315 570 301L522 0H411L455 275Q458 297 458 317Q458 362 436 383Q414 404 370 404Q309 404 265 360Q221 316 207 236L169 0H58L145 553Z" glyph-name="hbar" horiz-adv-x="636" unicode="&#295;" /><glyph d="M43 0ZM226 813 150 748H44V751L183 871H282L383 751V748H280ZM264 700 215 398Q250 453 300 478Q350 503 406 503Q484 503 521.5 463Q559 423 559 354Q559 332 554 304L506 0H396L440 278Q443 300 443 320Q443 406 355 406Q295 406 250 362.5Q205 319 191 238L153 0H43L154 700Z" glyph-name="hcircumflex" horiz-adv-x="621" unicode="&#293;" /><glyph d="M408 696H537L536 690L396 573H312V577ZM249 696H367L366 690L250 573H167L168 577Z" glyph-name="hungarumlaut" horiz-adv-x="600" unicode="&#733;" /><glyph d="M400 305 386 214H42L56 305Z" glyph-name="hyphen" horiz-adv-x="440" unicode="-" /><glyph d="M415 399 401 308H57L71 399Z" glyph-name="hyphen.cap" horiz-adv-x="440" /><glyph d="M192 574Q129 574 129 629Q129 668 151 687Q173 706 208 706Q270 706 270 650Q270 611 248.5 592.5Q227 574 192 574ZM122 491H232L155 0H44Z" glyph-name="i" horiz-adv-x="279" unicode="i" /><glyph d="M44 0ZM235 696H365L364 690L230 573H137V577ZM122 491H232L155 0H44Z" glyph-name="iacute" horiz-adv-x="279" unicode="&#237;" /><glyph d="M44 0ZM122 491H232L155 0H44ZM278 696H355Q350 659 336 634Q322 609 301 594Q280 579 251 573Q222 567 187 567Q152 567 124.5 573Q97 579 80 594Q63 609 56 634Q49 659 54 696H131Q124 658 140 644.5Q156 631 193 631Q230 631 251 644.5Q272 658 278 696Z" glyph-name="ibreve" horiz-adv-x="279" unicode="&#301;" /><glyph d="M15 0ZM197 638 121 573H15V576L154 696H253L354 576V573H251ZM122 491H232L155 0H44Z" glyph-name="icircumflex" horiz-adv-x="279" unicode="&#238;" /><glyph d="M37 0ZM282 576Q223 576 223 628Q223 666 244 684.5Q265 703 297 703Q357 703 357 650Q357 613 336.5 594.5Q316 576 282 576ZM96 576Q37 576 37 628Q37 667 58.5 685Q80 703 112 703Q171 703 171 651Q171 613 151 594.5Q131 576 96 576ZM122 491H232L155 0H44Z" glyph-name="idieresis" horiz-adv-x="279" unicode="&#239;" /><glyph d="M192 574Q162 574 145.5 588Q129 602 129 629Q129 668 151.5 687Q174 706 208 706Q238 706 254 691Q270 676 270 649Q270 611 248.5 592.5Q227 574 192 574ZM122 491H233L156 0H45Z" glyph-name="idotaccent" horiz-adv-x="279" /><glyph d="M44 0ZM122 491H232L155 0H44ZM150 573 48 690 49 696H179L237 577V573Z" glyph-name="igrave" horiz-adv-x="279" unicode="&#236;" /><glyph d="M44 0ZM192 574Q129 574 129 629Q129 668 151 687Q173 706 208 706Q270 706 270 650Q270 611 248.5 592.5Q227 574 192 574ZM122 491H232L155 0H44ZM470 574Q408 574 408 629Q408 668 430 687Q452 706 487 706Q516 706 532.5 691.5Q549 677 549 650Q549 611 527 592.5Q505 574 470 574ZM319 -28 402 491H511L428 -38Q413 -131 362 -174.5Q311 -218 237 -218Q214 -218 194.5 -214.5Q175 -211 152 -202L182 -117Q194 -122 205.5 -125Q217 -128 234 -128Q250 -128 263.5 -123.5Q277 -119 288 -107.5Q299 -96 306.5 -76.5Q314 -57 319 -28Z" glyph-name="ij" horiz-adv-x="558" unicode="&#307;" /><glyph d="M44 0ZM122 491H232L155 0H44ZM335 666 323 597H61L72 666Z" glyph-name="imacron" horiz-adv-x="279" unicode="&#299;" /><glyph d="M192 574Q129 574 129 629Q129 667 151 686Q173 705 208 705Q237 705 253.5 691Q270 677 270 649Q270 611 248.5 592.5Q227 574 192 574ZM39 -218Q18 -218 -2 -213.5Q-22 -209 -37.5 -198Q-53 -187 -62.5 -168Q-72 -149 -72 -120Q-72 -89 -61.5 -64Q-51 -39 -34 -19.5Q-17 0 5.5 13.5Q28 27 51 34L122 491H233L156 0H102Q79 -2 60.5 -12Q42 -22 29.5 -36.5Q17 -51 10.5 -68.5Q4 -86 4 -103Q4 -128 17.5 -137.5Q31 -147 55 -147Q91 -147 121 -130L131 -194Q90 -218 39 -218Z" glyph-name="iogonek" horiz-adv-x="279" unicode="&#303;" /><glyph d="M24 0ZM122 491H232L155 0H44ZM292 690H366Q364 659 353.5 638Q343 617 327 604.5Q311 592 292.5 586.5Q274 581 257 581Q236 581 219 587Q202 593 187.5 600.5Q173 608 160 614Q147 620 134 620Q116 620 108.5 609Q101 598 99 584H24Q27 615 37.5 636Q48 657 63 669.5Q78 682 96 687.5Q114 693 132 693Q153 693 170 687Q187 681 202 673.5Q217 666 230.5 660Q244 654 257 654Q274 654 282 665Q290 676 292 690Z" glyph-name="itilde" horiz-adv-x="279" unicode="&#297;" /><glyph d="M192 574Q130 574 130 629Q130 668 152 687Q174 706 209 706Q238 706 254.5 691.5Q271 677 271 650Q271 611 249 592.5Q227 574 192 574ZM41 -28 124 491H233L150 -38Q135 -131 84 -174.5Q33 -218 -41 -218Q-64 -218 -83.5 -214.5Q-103 -211 -126 -202L-96 -117Q-84 -122 -72.5 -125Q-61 -128 -44 -128Q-28 -128 -14.5 -123.5Q-1 -119 10 -107.5Q21 -96 28.5 -76.5Q36 -57 41 -28Z" glyph-name="j" horiz-adv-x="279" unicode="j" /><glyph d="M0 0ZM41 -28 124 491H233L150 -38Q135 -131 84 -174.5Q33 -218 -41 -218Q-64 -218 -83.5 -214.5Q-103 -211 -126 -202L-96 -117Q-84 -122 -72.5 -125Q-61 -128 -44 -128Q-28 -128 -14.5 -123.5Q-1 -119 10 -107.5Q21 -96 28.5 -76.5Q36 -57 41 -28ZM196 638 120 573H14V576L153 696H252L353 576V573H250Z" glyph-name="jcircumflex" horiz-adv-x="277" unicode="&#309;" /><glyph d="M266 700 190 240 439 491H567L342 272L492 0H367L260 199L171 115L154 0H44L155 700Z" glyph-name="k" horiz-adv-x="535" unicode="k" /><glyph d="M367 0 190 234 153 0H42L153 700H265L192 243L434 491H557L309 245L490 0Z" glyph-name="k.alt" horiz-adv-x="540" /><glyph d="M44 0ZM178 -301 165 -256Q191 -248 210 -229Q229 -210 237 -182Q207 -183 191 -169.5Q175 -156 175 -130Q175 -95 195.5 -78Q216 -61 247 -61Q275 -61 291 -76Q307 -91 307 -125Q307 -155 297.5 -184Q288 -213 271 -237Q254 -261 230.5 -278Q207 -295 178 -301ZM266 700 190 240 439 491H567L342 272L492 0H367L260 199L171 115L154 0H44L155 700Z" glyph-name="kcommaaccent" horiz-adv-x="535" unicode="&#311;" /><glyph d="M42 0ZM178 -302 165 -257Q191 -249 210 -230Q229 -211 237 -183Q207 -184 191 -170.5Q175 -157 175 -131Q175 -96 195.5 -79Q216 -62 247 -62Q275 -62 291 -77Q307 -92 307 -126Q307 -156 297.5 -185Q288 -214 271 -238Q254 -262 230.5 -279Q207 -296 178 -302ZM367 0 190 234 153 0H42L153 700H265L192 243L434 491H557L309 245L490 0Z" glyph-name="kcommaaccent.alt" horiz-adv-x="540" /><glyph d="M233 491 193 242 441 491H569L343 272L493 0H368L260 197L174 117L155 0H45L123 491Z" glyph-name="kgreenlandic" horiz-adv-x="543" unicode="&#312;" /><glyph d="M164 0Q106 0 77 27.5Q48 55 59 124L150 700H261L172 133Q168 109 177 98Q186 87 212 87H252L239 0Z" glyph-name="l" horiz-adv-x="284" unicode="l" /><glyph d="M265 700 154 0H44L155 700Z" glyph-name="l.alt" horiz-adv-x="277" /><glyph d="M48 0ZM264 906H394L393 900L259 783H166V787ZM164 0Q106 0 77 27.5Q48 55 59 124L150 700H261L172 133Q168 109 177 98Q186 87 212 87H252L239 0Z" glyph-name="lacute" horiz-adv-x="284" unicode="&#314;" /><glyph d="M48 0ZM372 465H297L340 700H442ZM164 0Q106 0 77 27.5Q48 55 59 124L150 700H261L172 133Q168 109 177 98Q186 87 212 87H252L239 0Z" glyph-name="lcaron" horiz-adv-x="362" unicode="&#318;" /><glyph d="M48 0ZM164 0Q106 0 77 27.5Q48 55 59 124L150 700H261L172 133Q168 109 177 98Q186 87 212 87H252L239 0ZM65 -301 52 -256Q78 -248 97 -229Q116 -210 124 -182Q94 -183 78 -169.5Q62 -156 62 -130Q62 -95 82.5 -78Q103 -61 134 -61Q162 -61 178 -76Q194 -91 194 -125Q194 -155 184.5 -184Q175 -213 158 -237Q141 -261 117.5 -278Q94 -295 65 -301Z" glyph-name="lcommaaccent" horiz-adv-x="284" unicode="&#316;" /><glyph d="M48 0ZM164 0Q106 0 77 27.5Q48 55 59 124L150 700H261L172 133Q168 109 177 98Q186 87 212 87H252L239 0ZM325 241Q265 241 265 294Q265 333 287 350.5Q309 368 341 368Q402 368 402 314Q402 278 380.5 259.5Q359 241 325 241Z" glyph-name="ldot" horiz-adv-x="391" unicode="&#320;" /><glyph d="M431 464 191 307 378 153 322 88 79 286 87 332 392 530Z" glyph-name="less" horiz-adv-x="493" unicode="&lt;" /><glyph d="M108 315 115 359 410 529 441 465 224 336 399 207 350 144ZM46 0 58 79H388L375 0Z" glyph-name="lessequal" horiz-adv-x="506" unicode="&#8804;" /><glyph d="M93 640Q93 669 113.5 690Q134 711 164 711Q194 711 214 690Q234 669 234 640Q234 611 214 590.5Q194 570 164 570Q134 570 113.5 590.5Q93 611 93 640ZM200 640Q200 656 189.5 667Q179 678 164 678Q149 678 138 667Q127 656 127 640Q127 625 138 614Q149 603 164 603Q179 603 189.5 613.5Q200 624 200 640Z" glyph-name="logicalnot" horiz-adv-x="221" unicode="&#172;" /><glyph d="M258 0H183Q125 0 96 27.5Q67 55 78 124L98 253L1 185L16 284L114 351L169 700H280L238 432L346 507L329 408L223 334L191 133Q187 109 196 98Q205 87 231 87H271Z" glyph-name="lslash" horiz-adv-x="307" unicode="&#322;" /><glyph d="M44 0 121 491H214L211 402Q245 455 292 479Q339 503 391 503Q451 503 482.5 471.5Q514 440 522 386Q557 447 608 475Q659 503 716 503Q788 503 822.5 464.5Q857 426 857 357Q857 344 855.5 331Q854 318 852 304L804 0H694L738 280Q741 302 741 324Q741 406 664 406Q611 406 570.5 363.5Q530 321 517 245L478 0H368L413 280Q416 302 416 324Q416 406 339 406Q286 406 246 363.5Q206 321 192 244L154 0Z" glyph-name="m" horiz-adv-x="919" unicode="m" /><glyph d="M439 666 427 597H165L176 666Z" glyph-name="macron" horiz-adv-x="600" unicode="&#175;" /><glyph d="M458 349 445 270H46L59 349Z" glyph-name="minus" horiz-adv-x="505" unicode="&#8722;" /><glyph d="M0 0ZM247 10 238 -49H-5L4 10Z" glyph-name="minus.inf" horiz-adv-x="311" /><glyph d="M178 712Q213 712 236 689Q259 666 259 631Q259 597 236 574Q213 551 178 551Q143 551 119.5 574Q96 597 96 631Q96 666 119.5 689Q143 712 178 712ZM178 676Q159 676 146.5 663.5Q134 651 134 631Q134 612 146.5 599.5Q159 587 178 587Q197 587 209 599.5Q221 612 221 631Q221 651 209 663.5Q197 676 178 676Z" glyph-name="mu" horiz-adv-x="251" unicode="&#956;" /><glyph d="M98 134 52 190 196 316 93 442 157 496 258 370 401 495 447 439 305 314 407 191 344 136 242 260Z" glyph-name="multiply" horiz-adv-x="498" unicode="&#215;" /><glyph d="M44 0 121 491H214L211 400Q246 454 297 478.5Q348 503 405 503Q484 503 522 463Q560 423 560 354Q560 332 555 304L507 0H397L441 278Q444 300 444 320Q444 406 356 406Q296 406 251 363.5Q206 321 193 245L154 0Z" glyph-name="n" horiz-adv-x="622" unicode="n" /><glyph d="M44 0ZM400 696H530L529 690L395 573H302V577ZM44 0 121 491H214L211 400Q246 454 297 478.5Q348 503 405 503Q484 503 522 463Q560 423 560 354Q560 332 555 304L507 0H397L441 278Q444 300 444 320Q444 406 356 406Q296 406 251 363.5Q206 321 193 245L154 0Z" glyph-name="nacute" horiz-adv-x="622" unicode="&#324;" /><glyph d="M44 0ZM307 573 205 694 206 696H310L362 633L438 696H544V694L405 573ZM44 0 121 491H214L211 400Q246 454 297 478.5Q348 503 405 503Q484 503 522 463Q560 423 560 354Q560 332 555 304L507 0H397L441 278Q444 300 444 320Q444 406 356 406Q296 406 251 363.5Q206 321 193 245L154 0Z" glyph-name="ncaron" horiz-adv-x="622" unicode="&#328;" /><glyph d="M44 0ZM199 -301 186 -256Q212 -248 231 -229Q250 -210 258 -182Q228 -183 212 -169.5Q196 -156 196 -130Q196 -95 216.5 -78Q237 -61 268 -61Q296 -61 312 -76Q328 -91 328 -125Q328 -155 318.5 -184Q309 -213 292 -237Q275 -261 251.5 -278Q228 -295 199 -301ZM44 0 121 491H214L211 400Q246 454 297 478.5Q348 503 405 503Q484 503 522 463Q560 423 560 354Q560 332 555 304L507 0H397L441 278Q444 300 444 320Q444 406 356 406Q296 406 251 363.5Q206 321 193 245L154 0Z" glyph-name="ncommaaccent" horiz-adv-x="622" unicode="&#326;" /><glyph d="M299 342Q334 342 365 353.5Q396 365 419 386.5Q442 408 455.5 439Q469 470 469 508Q469 560 436 591.5Q403 623 343 623Q306 623 275.5 611Q245 599 223.5 577Q202 555 190.5 523.5Q179 492 179 453Q179 402 208 372Q237 342 299 342ZM344 713Q399 713 443 698Q487 683 518 651Q549 619 566 569Q583 519 583 449Q583 423 581.5 397Q580 371 575 343Q548 164 460.5 75.5Q373 -13 241 -13Q154 -13 98.5 17.5Q43 48 20 105L104 162Q121 119 157.5 98Q194 77 245 77Q299 77 337 99Q375 121 401 159Q427 197 443 247.5Q459 298 468 355L472 376Q443 321 389 288Q335 255 267 255Q173 255 120.5 302.5Q68 350 68 438Q68 493 85 543Q102 593 136.5 630.5Q171 668 223 690.5Q275 713 344 713Z" glyph-name="nine" horiz-adv-x="625" unicode="9" /><glyph d="M326 342Q361 342 392 353.5Q423 365 446.5 386.5Q470 408 483.5 439Q497 470 497 508Q497 560 464 591.5Q431 623 370 623Q333 623 302.5 611Q272 599 250.5 577Q229 555 217 523.5Q205 492 205 453Q205 402 234 372Q263 342 326 342ZM372 713Q427 713 472 698Q517 683 548.5 651Q580 619 597 569Q614 519 614 449Q614 398 605 343Q577 163 490 75Q403 -13 269 -13Q181 -13 125 17.5Q69 48 46 105L131 162Q148 119 184.5 98Q221 77 273 77Q327 77 365 99Q403 121 429.5 159Q456 197 472 247.5Q488 298 497 355L500 376Q471 320 416.5 287.5Q362 255 293 255Q198 255 145.5 303Q93 351 93 439Q93 494 110.5 543.5Q128 593 162.5 630.5Q197 668 249.5 690.5Q302 713 372 713Z" glyph-name="nine.LP" horiz-adv-x="656" /><glyph d="M293 242Q325 242 354.5 254.5Q384 267 406 289Q428 311 441 342Q454 373 454 410Q454 461 423 492Q392 523 334 523Q302 523 273 512.5Q244 502 222.5 481Q201 460 188.5 428Q176 396 176 353Q176 302 204.5 272Q233 242 293 242ZM337 613Q391 613 434.5 598Q478 583 508 551.5Q538 520 554 471Q570 422 570 353Q570 302 561 245Q534 62 451 -25.5Q368 -113 236 -113Q155 -113 100.5 -82Q46 -51 23 7L105 63Q139 -23 241 -23Q278 -23 312.5 -10Q347 3 375 35Q403 67 423.5 121Q444 175 454 258L456 274Q429 219 378.5 187Q328 155 259 155Q168 155 117 202.5Q66 250 66 338Q66 399 84.5 449.5Q103 500 138 536.5Q173 573 223.5 593Q274 613 337 613Z" glyph-name="nine.OP" horiz-adv-x="632" /><glyph d="M297 242Q332 242 363 253.5Q394 265 417 286.5Q440 308 453.5 339Q467 370 467 408Q467 460 434 491.5Q401 523 341 523Q304 523 274 511Q244 499 222.5 477Q201 455 189 423.5Q177 392 177 353Q177 302 206 272Q235 242 297 242ZM342 613Q397 613 441 598Q485 583 516.5 551Q548 519 565 469Q582 419 582 349Q582 298 573 243Q546 63 459.5 -25Q373 -113 240 -113Q152 -113 96.5 -82.5Q41 -52 18 5L103 62Q120 19 156 -2Q192 -23 244 -23Q298 -23 335.5 -1Q373 21 399 59Q425 97 441 147.5Q457 198 466 255L470 276Q441 221 387.5 188Q334 155 265 155Q171 155 118.5 203Q66 251 66 339Q66 394 83 443.5Q100 493 134.5 530.5Q169 568 221 590.5Q273 613 342 613Z" glyph-name="nine.OT" horiz-adv-x="625" /><glyph d="M0 0ZM166 12Q199 12 224.5 34Q250 56 250 94Q250 120 233.5 134.5Q217 149 186 149Q151 149 126.5 128Q102 107 102 65Q102 40 117.5 26Q133 12 166 12ZM188 219Q259 219 298.5 181Q338 143 338 61Q338 27 332 -9Q315 -109 263.5 -160Q212 -211 128 -211Q75 -211 39 -193Q3 -175 -12 -142Q-11 -141 -1.5 -134Q8 -127 18.5 -119Q29 -111 38.5 -104.5Q48 -98 49 -97Q68 -141 128 -141Q180 -141 209 -103.5Q238 -66 250 7L251 13Q232 -19 204 -36Q176 -53 135 -53Q79 -53 48 -25Q17 3 17 55Q17 91 28.5 121Q40 151 61.5 172.5Q83 194 115 206.5Q147 219 188 219Z" glyph-name="nine.inf" horiz-adv-x="405" /><glyph d="M468 422 456 343H321L263 276H446L433 197H195L127 118H46L114 197H34L47 276H182L240 343H57L69 422H308L378 502H459L389 422Z" glyph-name="notequal" horiz-adv-x="503" unicode="&#8800;" /><glyph d="M44 0ZM44 0 121 491H214L211 400Q246 454 297 478.5Q348 503 405 503Q484 503 522 463Q560 423 560 354Q560 332 555 304L507 0H397L441 278Q444 300 444 320Q444 406 356 406Q296 406 251 363.5Q206 321 193 245L154 0ZM457 690H531Q529 659 518.5 638Q508 617 492 604.5Q476 592 457.5 586.5Q439 581 422 581Q401 581 384 587Q367 593 352.5 600.5Q338 608 325 614Q312 620 299 620Q281 620 273.5 609Q266 598 264 584H189Q192 615 202.5 636Q213 657 228 669.5Q243 682 261 687.5Q279 693 297 693Q318 693 335 687Q352 681 367 673.5Q382 666 395.5 660Q409 654 422 654Q439 654 447 665Q455 676 457 690Z" glyph-name="ntilde" horiz-adv-x="622" unicode="&#241;" /><glyph d="M338 428 268 276H441L511 428ZM118 428 154 510H262L351 700H463L375 510H548L637 700H750L661 510H767L731 428H624L553 276H667L631 193H516L428 0H315L404 193H230L142 0H29L118 193H17L53 276H155L226 428Z" glyph-name="numbersign" horiz-adv-x="755" unicode="#" /><glyph d="M52 246Q70 380 141 441.5Q212 503 327 503Q433 503 485 457.5Q537 412 537 312Q537 297 535.5 280.5Q534 264 532 246Q515 114 445 50.5Q375 -13 257 -13Q154 -13 100.5 34Q47 81 47 183Q47 197 48.5 213Q50 229 52 246ZM425 245Q428 262 429 276.5Q430 291 430 305Q430 365 402.5 390.5Q375 416 318 416Q248 416 210.5 377.5Q173 339 159 245Q157 228 155.5 213Q154 198 154 185Q154 125 181 99.5Q208 74 264 74Q331 74 370.5 113Q410 152 425 245Z" glyph-name="o" horiz-adv-x="585" unicode="o" /><glyph d="M47 0ZM385 696H515L514 690L380 573H287V577ZM52 246Q70 380 141 441.5Q212 503 327 503Q433 503 485 457.5Q537 412 537 312Q537 297 535.5 280.5Q534 264 532 246Q515 114 445 50.5Q375 -13 257 -13Q154 -13 100.5 34Q47 81 47 183Q47 197 48.5 213Q50 229 52 246ZM425 245Q428 262 429 276.5Q430 291 430 305Q430 365 402.5 390.5Q375 416 318 416Q248 416 210.5 377.5Q173 339 159 245Q157 228 155.5 213Q154 198 154 185Q154 125 181 99.5Q208 74 264 74Q331 74 370.5 113Q410 152 425 245Z" glyph-name="oacute" horiz-adv-x="585" unicode="&#243;" /><glyph d="M47 0ZM52 246Q70 380 141 441.5Q212 503 327 503Q433 503 485 457.5Q537 412 537 312Q537 297 535.5 280.5Q534 264 532 246Q515 114 445 50.5Q375 -13 257 -13Q154 -13 100.5 34Q47 81 47 183Q47 197 48.5 213Q50 229 52 246ZM425 245Q428 262 429 276.5Q430 291 430 305Q430 365 402.5 390.5Q375 416 318 416Q248 416 210.5 377.5Q173 339 159 245Q157 228 155.5 213Q154 198 154 185Q154 125 181 99.5Q208 74 264 74Q331 74 370.5 113Q410 152 425 245ZM428 696H505Q500 659 486 634Q472 609 451 594Q430 579 401 573Q372 567 337 567Q302 567 274.5 573Q247 579 230 594Q213 609 206 634Q199 659 204 696H281Q274 658 290 644.5Q306 631 343 631Q380 631 401 644.5Q422 658 428 696Z" glyph-name="obreve" horiz-adv-x="585" unicode="&#335;" /><glyph d="M47 0ZM348 638 272 573H166V576L305 696H404L505 576V573H402ZM52 246Q70 380 141 441.5Q212 503 327 503Q433 503 485 457.5Q537 412 537 312Q537 297 535.5 280.5Q534 264 532 246Q515 114 445 50.5Q375 -13 257 -13Q154 -13 100.5 34Q47 81 47 183Q47 197 48.5 213Q50 229 52 246ZM425 245Q428 262 429 276.5Q430 291 430 305Q430 365 402.5 390.5Q375 416 318 416Q248 416 210.5 377.5Q173 339 159 245Q157 228 155.5 213Q154 198 154 185Q154 125 181 99.5Q208 74 264 74Q331 74 370.5 113Q410 152 425 245Z" glyph-name="ocircumflex" horiz-adv-x="585" unicode="&#244;" /><glyph d="M47 0ZM433 576Q374 576 374 628Q374 666 395 684.5Q416 703 448 703Q508 703 508 650Q508 613 487.5 594.5Q467 576 433 576ZM247 576Q188 576 188 628Q188 667 209.5 685Q231 703 263 703Q322 703 322 651Q322 613 302 594.5Q282 576 247 576ZM52 246Q70 380 141 441.5Q212 503 327 503Q433 503 485 457.5Q537 412 537 312Q537 297 535.5 280.5Q534 264 532 246Q515 114 445 50.5Q375 -13 257 -13Q154 -13 100.5 34Q47 81 47 183Q47 197 48.5 213Q50 229 52 246ZM425 245Q428 262 429 276.5Q430 291 430 305Q430 365 402.5 390.5Q375 416 318 416Q248 416 210.5 377.5Q173 339 159 245Q157 228 155.5 213Q154 198 154 185Q154 125 181 99.5Q208 74 264 74Q331 74 370.5 113Q410 152 425 245Z" glyph-name="odieresis" horiz-adv-x="585" unicode="&#246;" /><glyph d="M629 -13Q566 -13 521.5 6.5Q477 26 452 68Q383 -13 257 -13Q47 -13 47 184Q47 198 48 213.5Q49 229 51 246Q69 374 139 438.5Q209 503 327 503Q456 503 502 420Q574 503 703 503Q751 503 785.5 489Q820 475 842.5 450Q865 425 875.5 390.5Q886 356 886 315Q886 269 872 213H532Q531 204 531 197V184Q531 123 559.5 97Q588 71 644 71Q690 71 723.5 85.5Q757 100 784 140L852 94Q814 39 761.5 13Q709 -13 629 -13ZM426 244Q428 260 429 274Q430 288 430 302Q430 362 402.5 389.5Q375 417 318 417Q249 417 210.5 375.5Q172 334 158 244Q156 229 154.5 215Q153 201 153 188Q153 129 180 101.5Q207 74 264 74Q333 74 372.5 115Q412 156 426 244ZM691 419Q636 419 598.5 389Q561 359 544 288H782Q783 295 783 301V316Q784 370 760.5 394.5Q737 419 691 419Z" glyph-name="oe" horiz-adv-x="926" unicode="&#339;" /><glyph d="M299 -218Q278 -218 258 -213.5Q238 -209 222.5 -198Q207 -187 197.5 -168Q188 -149 188 -120Q188 -81 204 -51Q220 -21 245.5 0Q271 21 301.5 31.5Q332 42 362 42V0Q338 -2 320 -12Q302 -22 289.5 -36.5Q277 -51 270.5 -68.5Q264 -86 264 -103Q264 -128 277.5 -137.5Q291 -147 314 -147Q331 -147 348 -143Q365 -139 380 -130L391 -194Q350 -218 299 -218Z" glyph-name="ogonek" horiz-adv-x="600" unicode="&#731;" /><glyph d="M47 0ZM52 246Q70 380 141 441.5Q212 503 327 503Q433 503 485 457.5Q537 412 537 312Q537 297 535.5 280.5Q534 264 532 246Q515 114 445 50.5Q375 -13 257 -13Q154 -13 100.5 34Q47 81 47 183Q47 197 48.5 213Q50 229 52 246ZM425 245Q428 262 429 276.5Q430 291 430 305Q430 365 402.5 390.5Q375 416 318 416Q248 416 210.5 377.5Q173 339 159 245Q157 228 155.5 213Q154 198 154 185Q154 125 181 99.5Q208 74 264 74Q331 74 370.5 113Q410 152 425 245ZM300 573 198 690 199 696H329L387 577V573Z" glyph-name="ograve" horiz-adv-x="585" unicode="&#242;" /><glyph d="M47 0ZM457 696H586L585 690L445 573H361V577ZM298 696H416L415 690L299 573H216L217 577ZM52 246Q70 380 141 441.5Q212 503 327 503Q433 503 485 457.5Q537 412 537 312Q537 297 535.5 280.5Q534 264 532 246Q515 114 445 50.5Q375 -13 257 -13Q154 -13 100.5 34Q47 81 47 183Q47 197 48.5 213Q50 229 52 246ZM425 245Q428 262 429 276.5Q430 291 430 305Q430 365 402.5 390.5Q375 416 318 416Q248 416 210.5 377.5Q173 339 159 245Q157 228 155.5 213Q154 198 154 185Q154 125 181 99.5Q208 74 264 74Q331 74 370.5 113Q410 152 425 245Z" glyph-name="ohungarumlaut" horiz-adv-x="583" unicode="&#337;" /><glyph d="M47 0ZM486 666 474 597H212L223 666ZM52 246Q70 380 141 441.5Q212 503 327 503Q433 503 485 457.5Q537 412 537 312Q537 297 535.5 280.5Q534 264 532 246Q515 114 445 50.5Q375 -13 257 -13Q154 -13 100.5 34Q47 81 47 183Q47 197 48.5 213Q50 229 52 246ZM425 245Q428 262 429 276.5Q430 291 430 305Q430 365 402.5 390.5Q375 416 318 416Q248 416 210.5 377.5Q173 339 159 245Q157 228 155.5 213Q154 198 154 185Q154 125 181 99.5Q208 74 264 74Q331 74 370.5 113Q410 152 425 245Z" glyph-name="omacron" horiz-adv-x="585" unicode="&#333;" /><glyph d="M68 99H235L308 562L211 502L180 593L370 702H442L346 99H522L506 0H52Z" glyph-name="one" horiz-adv-x="625" unicode="1" /><glyph d="M203 0H90L179 562L80 502L49 593L240 702H314Z" glyph-name="one.LP" horiz-adv-x="356" /><glyph d="M196 0H86L159 462L66 402L36 493L220 602H292Z" glyph-name="one.OP" horiz-adv-x="326" /><glyph d="M71 99H229L286 462L195 402L164 493L348 602H419L340 99H502L487 0H55Z" glyph-name="one.OT" horiz-adv-x="625" /><glyph d="M4 0ZM116 -200H30L78 106L25 75L4 145L125 211H180Z" glyph-name="one.inf" horiz-adv-x="238" /><glyph d="M64 0ZM458 0 469 68 619 188Q661 221 684.5 246Q708 271 708 301Q708 346 646 346Q615 346 594 332.5Q573 319 553 290L502 335Q533 380 572 399.5Q611 419 661 419Q724 419 761 395.5Q798 372 798 319Q798 295 790.5 273Q783 251 767.5 230Q752 209 728.5 187.5Q705 166 674 141L591 76L777 77L766 0ZM176 293H90L138 599L85 568L64 638L185 704H240ZM639 700 195 0H92L537 700Z" glyph-name="onehalf" horiz-adv-x="849" unicode="&#189;" /><glyph d="M64 0ZM176 293H90L138 599L85 568L64 638L185 704H240ZM639 700 195 0H92L537 700ZM454 91 463 151 628 408H713L555 166H683L709 320H790L766 166H821L809 91H753L739 0H657L672 91Z" glyph-name="onequarter" horiz-adv-x="865" unicode="&#188;" /><glyph d="M64 294ZM176 294H90L138 600L85 569L64 639L185 705H240Z" glyph-name="onesuperior" horiz-adv-x="237" unicode="&#185;" /><glyph d="M333 305 318 214H41L56 305Z" glyph-name="onethirdemdash" horiz-adv-x="374" /><glyph d="M186 404Q228 404 256.5 431.5Q285 459 293 508L294 513H220Q178 513 156 496Q134 479 134 447Q134 404 186 404ZM153 344Q108 344 80.5 367Q53 390 53 435Q53 491 95 528Q137 565 222 565H301Q302 571 302.5 576Q303 581 303 586Q303 620 284 633Q265 646 230 646Q195 646 169.5 633.5Q144 621 125 601L92 652Q118 681 157.5 697Q197 713 249 713Q310 713 349 687.5Q388 662 388 600Q388 586 385 565L351 355H281L283 411Q262 379 229 361.5Q196 344 153 344Z" glyph-name="ordfeminine" horiz-adv-x="402" unicode="&#170;" /><glyph d="M320 529Q323 547 323 564Q323 607 303.5 626.5Q284 646 252 646Q210 646 183.5 618.5Q157 591 147 528Q145 517 144 508Q143 499 143 490Q143 411 213 411Q253 411 282 439Q311 467 320 529ZM241 713Q279 713 306.5 696.5Q334 680 346 647L361 701H431L376 355H303L306 408Q285 377 254 360.5Q223 344 184 344Q124 344 92.5 378.5Q61 413 61 481Q61 501 64 527Q76 620 122.5 666.5Q169 713 241 713Z" glyph-name="ordfeminine.school" horiz-adv-x="438" /><glyph d="M66 528Q77 620 128 666.5Q179 713 263 713Q414 713 414 571Q414 557 413.5 549Q413 541 411 528Q398 435 347 390Q296 345 213 345Q63 345 63 485Q63 507 66 528ZM329 528Q332 549 332 567Q332 609 314 628Q296 647 257 647Q211 647 184 619Q157 591 147 528Q144 507 144 489Q144 410 219 410Q266 410 292.5 438Q319 466 329 528Z" glyph-name="ordmasculine" horiz-adv-x="418" unicode="&#186;" /><glyph d="M524 491H614L518 405Q538 363 538 306Q538 292 536.5 277Q535 262 533 246Q516 118 445.5 52.5Q375 -13 257 -13Q157 -13 105 34L68 0H-21L69 81Q48 123 48 184Q48 198 49 213.5Q50 229 52 246Q70 374 140 438.5Q210 503 327 503Q430 503 483 454ZM321 419Q250 419 210.5 377Q171 335 156 244Q154 230 152.5 216Q151 202 151 190Q151 171 154 158L408 387Q381 419 321 419ZM265 72Q335 72 375 113Q415 154 429 244Q431 259 432 272.5Q433 286 433 299V313Q433 320 431 327L179 100Q207 72 265 72Z" glyph-name="oslash" horiz-adv-x="586" unicode="&#248;" /><glyph d="M47 0ZM52 246Q70 380 141 441.5Q212 503 327 503Q433 503 485 457.5Q537 412 537 312Q537 297 535.5 280.5Q534 264 532 246Q515 114 445 50.5Q375 -13 257 -13Q154 -13 100.5 34Q47 81 47 183Q47 197 48.5 213Q50 229 52 246ZM425 245Q428 262 429 276.5Q430 291 430 305Q430 365 402.5 390.5Q375 416 318 416Q248 416 210.5 377.5Q173 339 159 245Q157 228 155.5 213Q154 198 154 185Q154 125 181 99.5Q208 74 264 74Q331 74 370.5 113Q410 152 425 245ZM442 690H516Q514 659 503.5 638Q493 617 477 604.5Q461 592 442.5 586.5Q424 581 407 581Q386 581 369 587Q352 593 337.5 600.5Q323 608 310 614Q297 620 284 620Q266 620 258.5 609Q251 598 249 584H174Q177 615 187.5 636Q198 657 213 669.5Q228 682 246 687.5Q264 693 282 693Q303 693 320 687Q337 681 352 673.5Q367 666 380.5 660Q394 654 407 654Q424 654 432 665Q440 676 442 690Z" glyph-name="otilde" horiz-adv-x="585" unicode="&#245;" /><glyph d="M193 243Q191 229 190 216.5Q189 204 189 193Q189 130 219 101.5Q249 73 297 73Q424 73 452 244Q454 261 455.5 274.5Q457 288 457 302Q457 362 430.5 389Q404 416 354 416Q296 416 251.5 375Q207 334 193 243ZM15 -186 122 491H216L212 405Q244 454 291 478.5Q338 503 397 503Q480 503 522.5 455Q565 407 565 313Q565 298 563.5 281.5Q562 265 560 248Q543 126 479 56.5Q415 -13 308 -13Q258 -13 221.5 6Q185 25 165 63L125 -186Z" glyph-name="p" horiz-adv-x="613" unicode="p" /><glyph d="M537 604H470L426 325H494ZM198 438Q197 382 226 354Q255 326 309 326H327L370 604H352Q280 604 239.5 558.5Q199 513 198 438ZM277 0 312 231H303Q200 231 145.5 284Q91 337 93 431Q94 494 113.5 544Q133 594 168.5 628.5Q204 663 254.5 681.5Q305 700 369 700H651L540 0H441L477 230H411L375 0Z" glyph-name="paragraph" horiz-adv-x="668" unicode="&#182;" /><glyph d="M248 -102Q141 -92 90.5 -21.5Q40 49 40 183Q40 212 42 244.5Q44 277 49 312Q77 508 157.5 610.5Q238 713 377 725L373 637Q329 631 293.5 611Q258 591 230.5 553Q203 515 182.5 456Q162 397 148 312Q136 234 136 180Q136 83 170.5 38.5Q205 -6 270 -16Z" glyph-name="parenleft" horiz-adv-x="345" unicode="(" /><glyph d="M0 0ZM121 -275Q54 -269 22.5 -225Q-9 -181 -9 -99Q-9 -66 -3 -25Q13 91 62 153Q111 215 198 223L196 154Q171 151 150.5 140Q130 129 114 108Q98 87 86 54.5Q74 22 67 -25Q63 -45 62 -64.5Q61 -84 61 -100Q61 -154 80.5 -178Q100 -202 138 -208Z" glyph-name="parenleft.inf" horiz-adv-x="218" /><glyph d="M103 725Q210 715 260.5 644.5Q311 574 311 440Q311 411 309 378.5Q307 346 302 311Q274 115 193.5 12.5Q113 -90 -26 -102L-22 -14Q22 -8 57.5 12Q93 32 120.5 70Q148 108 168.5 167Q189 226 203 311Q215 389 215 443Q215 540 180.5 584.5Q146 629 81 639Z" glyph-name="parenright" horiz-adv-x="345" unicode=")" /><glyph d="M0 0ZM25 156 42 223Q109 217 140.5 173Q172 129 172 47Q172 13 166 -27Q150 -143 101 -205Q52 -267 -35 -275L-33 -206Q-8 -203 12.5 -192Q33 -181 49 -160Q65 -139 76.5 -106.5Q88 -74 96 -27Q100 -7 101 12.5Q102 32 102 48Q102 102 82.5 126Q63 150 25 156Z" glyph-name="parenright.inf" horiz-adv-x="218" /><glyph d="M69 0ZM838 419Q915 419 951.5 382Q988 345 988 267Q988 250 987 236.5Q986 223 983 204Q967 97 919.5 43Q872 -11 779 -11Q702 -11 665.5 25.5Q629 62 629 140Q629 154 630.5 170.5Q632 187 634 204Q650 316 699.5 367.5Q749 419 838 419ZM831 347Q810 347 793 340Q776 333 762 316Q748 299 738 271.5Q728 244 721 203L717 171Q715 155 715 144Q715 96 733.5 78.5Q752 61 785 61Q806 61 824 68Q842 75 856 91.5Q870 108 880 135.5Q890 163 897 204Q899 221 901 236Q903 251 903 263Q903 310 884 328.5Q865 347 831 347ZM278 712Q355 712 391.5 675Q428 638 428 560Q428 543 427 529.5Q426 516 423 497Q407 390 359.5 336Q312 282 219 282Q142 282 105.5 318.5Q69 355 69 433Q69 447 70.5 463.5Q72 480 74 497Q90 609 139.5 660.5Q189 712 278 712ZM271 640Q250 640 233 633Q216 626 202 609Q188 592 178 564.5Q168 537 161 496L157 464Q155 448 155 437Q155 389 173.5 371.5Q192 354 225 354Q246 354 264 361Q282 368 296 384.5Q310 401 320 428.5Q330 456 337 497Q339 514 341 529Q343 544 343 556Q343 603 324 621.5Q305 640 271 640ZM796 700 352 0H249L694 700Z" glyph-name="percent" horiz-adv-x="1043" unicode="%" /><glyph d="M84 -6Q54 -6 38 9Q22 24 22 50Q22 87 43 107Q64 127 99 127Q161 127 161 70Q161 32 139.5 13Q118 -6 84 -6Z" glyph-name="period" horiz-adv-x="235" unicode="." /><glyph d="M53 271ZM115 271Q85 271 69 286Q53 301 53 327Q53 364 74 384Q95 404 130 404Q192 404 192 347Q192 309 170.5 290Q149 271 115 271Z" glyph-name="periodcentered" horiz-adv-x="239" unicode="&#183;" /><glyph d="M69 0ZM838 419Q915 419 951.5 382Q988 345 988 267Q988 250 987 236.5Q986 223 983 204Q967 97 919.5 43Q872 -11 779 -11Q702 -11 665.5 25.5Q629 62 629 140Q629 154 630.5 170.5Q632 187 634 204Q650 316 699.5 367.5Q749 419 838 419ZM831 347Q810 347 793 340Q776 333 762 316Q748 299 738 271.5Q728 244 721 203L717 171Q715 155 715 144Q715 96 733.5 78.5Q752 61 785 61Q806 61 824 68Q842 75 856 91.5Q870 108 880 135.5Q890 163 897 204Q899 221 901 236Q903 251 903 263Q903 310 884 328.5Q865 347 831 347ZM278 712Q355 712 391.5 675Q428 638 428 560Q428 543 427 529.5Q426 516 423 497Q407 390 359.5 336Q312 282 219 282Q142 282 105.5 318.5Q69 355 69 433Q69 447 70.5 463.5Q72 480 74 497Q90 609 139.5 660.5Q189 712 278 712ZM271 640Q250 640 233 633Q216 626 202 609Q188 592 178 564.5Q168 537 161 496L157 464Q155 448 155 437Q155 389 173.5 371.5Q192 354 225 354Q246 354 264 361Q282 368 296 384.5Q310 401 320 428.5Q330 456 337 497Q339 514 341 529Q343 544 343 556Q343 603 324 621.5Q305 640 271 640ZM1258 419Q1335 419 1371.5 382Q1408 345 1408 267Q1408 250 1407 236.5Q1406 223 1403 204Q1387 97 1339.5 43Q1292 -11 1199 -11Q1122 -11 1085.5 25.5Q1049 62 1049 140Q1049 154 1050.5 170.5Q1052 187 1054 204Q1070 316 1119.5 367.5Q1169 419 1258 419ZM1251 347Q1230 347 1213 340Q1196 333 1182 316Q1168 299 1158 271.5Q1148 244 1141 203L1137 171Q1135 155 1135 144Q1135 96 1153.5 78.5Q1172 61 1205 61Q1226 61 1244 68Q1262 75 1276 91.5Q1290 108 1300 135.5Q1310 163 1317 204Q1319 221 1321 236Q1323 251 1323 263Q1323 310 1304 328.5Q1285 347 1251 347ZM796 700 352 0H249L694 700Z" glyph-name="perthousand" horiz-adv-x="1466" unicode="&#8240;" /><glyph d="M263 110H178L203 270H46L59 349H216L241 511H327L300 349H458L445 270H288Z" glyph-name="plus" horiz-adv-x="505" unicode="+" /><glyph d="M0 0ZM136 -139H70L84 -49H-5L4 10H92L107 101H172L158 10H247L238 -49H150Z" glyph-name="plus.inf" horiz-adv-x="311" /><glyph d="M278 140H192L215 285H59L71 364H228L251 511H336L312 364H470L458 285H300ZM424 79 412 0H13L25 79Z" glyph-name="plusminus" horiz-adv-x="506" unicode="&#177;" /><glyph glyph-name="punctuationspace" horiz-adv-x="235" unicode="&#8200;" /><glyph d="M458 -186H349L388 67Q359 29 317.5 8Q276 -13 219 -13Q136 -13 91.5 36Q47 85 47 179Q47 194 48.5 210Q50 226 52 244Q69 371 134 437Q199 503 301 503Q355 503 394 480Q433 457 451 411L474 491H566ZM418 246Q420 260 421 273Q422 286 422 297Q422 360 392.5 388Q363 416 314 416Q250 416 212 375Q174 334 160 244Q158 230 156.5 216.5Q155 203 155 190Q155 75 259 75Q317 75 360.5 115.5Q404 156 418 246Z" glyph-name="q" horiz-adv-x="611" unicode="q" /><glyph d="M511 544Q511 431 448.5 369.5Q386 308 280 297L263 204H165L188 366H237Q274 366 304.5 375.5Q335 385 357 405Q379 425 391 455.5Q403 486 403 528Q403 575 371.5 599.5Q340 624 278 624Q225 624 184 602Q143 580 104 520L38 571Q83 647 147.5 681Q212 715 300 715Q401 715 456 671.5Q511 628 511 544ZM182 -6Q121 -6 121 50Q121 88 142.5 107Q164 126 198 126Q259 126 259 70Q259 32 237.5 13Q216 -6 182 -6Z" glyph-name="question" horiz-adv-x="488" unicode="?" /><glyph d="M-4 -47Q-4 66 58.5 127.5Q121 189 227 200L244 293H342L319 131H270Q196 131 150 91.5Q104 52 104 -31Q104 -78 135.5 -102.5Q167 -127 229 -127Q282 -127 323 -105Q364 -83 403 -23L469 -74Q424 -150 359.5 -184Q295 -218 207 -218Q106 -218 51 -174.5Q-4 -131 -4 -47ZM325 503Q386 503 386 447Q386 409 364.5 390Q343 371 309 371Q248 371 248 427Q248 465 269.5 484Q291 503 325 503Z" glyph-name="questiondown" horiz-adv-x="495" unicode="&#191;" /><glyph d="M22 163Q22 276 84.5 337.5Q147 399 253 410L270 503H368L345 341H296Q222 341 176 301.5Q130 262 130 179Q130 132 161.5 107.5Q193 83 255 83Q308 83 349 105Q390 127 429 187L495 136Q450 60 385.5 26Q321 -8 233 -8Q132 -8 77 35.5Q22 79 22 163ZM351 713Q412 713 412 657Q412 619 390.5 600Q369 581 335 581Q274 581 274 637Q274 675 295.5 694Q317 713 351 713Z" glyph-name="questiondown.cap" horiz-adv-x="498" /><glyph d="M274 479H194L227 713H325ZM146 479H66L90 713H187Z" glyph-name="quotedbl" horiz-adv-x="313" unicode="&quot;" /><glyph d="M16 -136 3 -88Q32 -80 53 -58Q74 -36 82 -6Q53 -6 38 8.5Q23 23 23 47Q23 85 43.5 103Q64 121 96 121Q124 121 140 106Q156 91 156 56Q156 29 148 0Q140 -29 123 -56Q106 -83 79.5 -104.5Q53 -126 16 -136ZM189 -136 176 -88Q205 -80 226 -58Q247 -36 255 -6Q226 -6 211 8.5Q196 23 196 47Q196 85 216.5 103Q237 121 269 121Q297 121 313 106Q329 91 329 56Q329 29 321 0Q313 -29 296 -56Q279 -83 252.5 -104.5Q226 -126 189 -136Z" glyph-name="quotedblbase" horiz-adv-x="406" unicode="&#8222;" /><glyph d="M225 744 239 696Q210 687 188.5 664.5Q167 642 158 612Q188 612 203 597.5Q218 583 218 558Q218 520 197 501.5Q176 483 144 483Q116 483 99.5 498.5Q83 514 83 549Q83 576 91 606Q99 636 116.5 663Q134 690 160.5 711.5Q187 733 225 744ZM400 744 414 696Q385 687 363.5 664.5Q342 642 333 612Q363 612 378 597.5Q393 583 393 558Q393 520 372 501.5Q351 483 319 483Q291 483 274.5 498.5Q258 514 258 549Q258 576 266 606Q274 636 291.5 663Q309 690 335.5 711.5Q362 733 400 744Z" glyph-name="quotedblleft" horiz-adv-x="406" unicode="&#8220;" /><glyph d="M102 465 88 513Q117 522 138.5 544.5Q160 567 169 597Q139 597 124 611.5Q109 626 109 651Q109 689 130 707.5Q151 726 183 726Q211 726 227.5 710.5Q244 695 244 660Q244 633 236 603Q228 573 210.5 546Q193 519 166 497Q139 475 102 465ZM277 465 263 513Q292 522 313.5 544.5Q335 567 344 597Q314 597 299 611.5Q284 626 284 651Q284 689 305 707.5Q326 726 358 726Q386 726 402.5 710.5Q419 695 419 660Q419 633 411 603Q403 573 385.5 546Q368 519 341 497Q314 475 277 465Z" glyph-name="quotedblright" horiz-adv-x="407" unicode="&#8221;" /><glyph d="M225 743 239 695Q210 686 188.5 663.5Q167 641 158 611Q188 611 203 596.5Q218 582 218 557Q218 519 197 500.5Q176 482 144 482Q116 482 99.5 497.5Q83 513 83 548Q83 575 91 605Q99 635 116.5 662Q134 689 160.5 710.5Q187 732 225 743Z" glyph-name="quoteleft" horiz-adv-x="233" unicode="&#8216;" /><glyph d="M102 468 88 516Q117 525 138.5 547.5Q160 570 169 600Q139 600 124 614.5Q109 629 109 654Q109 692 130 710.5Q151 729 183 729Q211 729 227.5 713.5Q244 698 244 663Q244 636 236 606Q228 576 210.5 549Q193 522 166 500Q139 478 102 468Z" glyph-name="quoteright" horiz-adv-x="233" unicode="&#8217;" /><glyph d="M16 -135 3 -87Q32 -79 53 -57Q74 -35 82 -5Q53 -5 38 9.5Q23 24 23 48Q23 86 43.5 104Q64 122 96 122Q124 122 140 107Q156 92 156 57Q156 30 148 1Q140 -28 123 -55Q106 -82 79.5 -103.5Q53 -125 16 -135Z" glyph-name="quotesinglbase" horiz-adv-x="233" unicode="&#8218;" /><glyph d="M145 479H65L93 713H191Z" glyph-name="quotesingle" horiz-adv-x="179" unicode="'" /><glyph d="M44 0 121 491H215L211 391Q246 449 297 477Q348 505 407 501L389 393Q307 401 256.5 355Q206 309 189 220L154 0Z" glyph-name="r" horiz-adv-x="386" unicode="r" /><glyph d="M44 0ZM318 696H448L447 690L313 573H220V577ZM44 0 121 491H215L211 391Q246 449 297 477Q348 505 407 501L389 393Q307 401 256.5 355Q206 309 189 220L154 0Z" glyph-name="racute" horiz-adv-x="388" unicode="&#341;" /><glyph d="M44 0ZM231 573 129 694 130 696H234L286 633L362 696H468V694L329 573ZM44 0 121 491H215L211 391Q246 449 297 477Q348 505 407 501L389 393Q307 401 256.5 355Q206 309 189 220L154 0Z" glyph-name="rcaron" horiz-adv-x="386" unicode="&#345;" /><glyph d="M12 0ZM25 -301 12 -256Q38 -248 57 -229Q76 -210 84 -182Q54 -183 38 -169.5Q22 -156 22 -130Q22 -95 42.5 -78Q63 -61 94 -61Q122 -61 138 -76Q154 -91 154 -125Q154 -155 144.5 -184Q135 -213 118 -237Q101 -261 77.5 -278Q54 -295 25 -301ZM47 0 124 491H218L214 391Q249 449 300 477Q351 505 410 501L392 393Q310 401 259.5 355Q209 309 192 220L157 0Z" glyph-name="rcommaaccent" horiz-adv-x="389" unicode="&#343;" /><glyph d="M86 524Q98 609 154 661Q210 713 301 713Q379 713 421.5 672Q464 631 464 561Q464 552 463 540Q462 528 460 519Q444 432 389.5 383.5Q335 335 245 335Q166 335 124.5 376.5Q83 418 83 488Q83 506 86 524ZM117 524Q114 506 114 489Q114 426 151 394Q188 362 248 362Q316 362 365.5 403Q415 444 428 524Q431 543 431 560Q431 622 395 653.5Q359 685 299 685Q230 685 180.5 644.5Q131 604 117 524ZM287 587H249L240 527H273Q292 527 303.5 535Q315 543 315 564Q315 587 287 587ZM186 435 214 621H295Q326 621 340.5 606.5Q355 592 355 569Q355 540 343 524Q331 508 312 500L336 435H293L274 493H234L225 435Z" glyph-name="registered" horiz-adv-x="464" unicode="&#174;" /><glyph d="M213 513 187 466Q136 485 111.5 527Q87 569 87 625Q87 681 106 705Q125 729 156 729Q188 729 206 712.5Q224 696 224 667Q224 652 219 639Q214 626 205 616.5Q196 607 182.5 603Q169 599 151 603Q153 572 169 548Q185 524 213 513ZM386 513 361 466Q310 485 285 527Q260 569 260 625Q260 681 279 705Q298 729 330 729Q361 729 379.5 712.5Q398 696 398 667Q398 638 379.5 617Q361 596 325 603Q326 572 342 548Q358 524 386 513Z" glyph-name="reversequotedblleft" horiz-adv-x="389" /><glyph d="M213 513 187 466Q136 485 111.5 527Q87 569 87 625Q87 681 106 705Q125 729 156 729Q188 729 206 712.5Q224 696 224 667Q224 630 203 614Q182 598 151 601Q153 572 169 548Q185 524 213 513Z" glyph-name="reversequoteleft" horiz-adv-x="217" /><glyph d="M292 548Q253 548 227.5 569.5Q202 591 202 631Q202 656 210.5 676.5Q219 697 234.5 712Q250 727 270.5 735Q291 743 315 743Q356 743 380.5 720.5Q405 698 405 660Q405 609 372.5 578.5Q340 548 292 548ZM312 695Q289 695 273 678.5Q257 662 257 635Q257 617 267.5 606Q278 595 295 595Q316 595 333 611.5Q350 628 350 656Q350 674 339.5 684.5Q329 695 312 695Z" glyph-name="ring" horiz-adv-x="600" unicode="&#730;" /><glyph d="M220 69Q277 69 302.5 86.5Q328 104 328 132Q328 156 312.5 169Q297 182 256 193L217 203Q149 220 113 256Q77 292 77 346Q77 379 90 408Q103 437 129 458Q155 479 192.5 491Q230 503 280 503Q347 503 389.5 482Q432 461 461 419L391 358Q380 372 368.5 383.5Q357 395 343.5 403Q330 411 312.5 415Q295 419 273 419Q224 419 201.5 401Q179 383 179 357Q179 331 195 319.5Q211 308 244 299L293 286Q368 266 399.5 232Q431 198 431 147Q431 117 419.5 88Q408 59 382.5 36.5Q357 14 315.5 0.5Q274 -13 214 -13Q145 -13 95.5 11Q46 35 17 92L93 145Q132 69 220 69Z" glyph-name="s" horiz-adv-x="502" unicode="s" /><glyph d="M21 0ZM347 696H477L476 690L342 573H249V577ZM224 69Q281 69 306.5 86.5Q332 104 332 132Q332 156 316.5 169Q301 182 260 193L221 203Q153 220 117 256Q81 292 81 346Q81 379 94 408Q107 437 133 458Q159 479 196.5 491Q234 503 284 503Q351 503 393.5 482Q436 461 465 419L395 358Q384 372 372.5 383.5Q361 395 347.5 403Q334 411 316.5 415Q299 419 277 419Q228 419 205.5 401Q183 383 183 357Q183 331 199 319.5Q215 308 248 299L297 286Q372 266 403.5 232Q435 198 435 147Q435 117 423.5 88Q412 59 386.5 36.5Q361 14 319.5 0.5Q278 -13 218 -13Q149 -13 99.5 11Q50 35 21 92L97 145Q136 69 224 69Z" glyph-name="sacute" horiz-adv-x="506" unicode="&#347;" /><glyph d="M21 0ZM253 573 151 694 152 696H256L308 633L384 696H490V694L351 573ZM224 69Q281 69 306.5 86.5Q332 104 332 132Q332 156 316.5 169Q301 182 260 193L221 203Q153 220 117 256Q81 292 81 346Q81 379 94 408Q107 437 133 458Q159 479 196.5 491Q234 503 284 503Q351 503 393.5 482Q436 461 465 419L395 358Q384 372 372.5 383.5Q361 395 347.5 403Q334 411 316.5 415Q299 419 277 419Q228 419 205.5 401Q183 383 183 357Q183 331 199 319.5Q215 308 248 299L297 286Q372 266 403.5 232Q435 198 435 147Q435 117 423.5 88Q412 59 386.5 36.5Q361 14 319.5 0.5Q278 -13 218 -13Q149 -13 99.5 11Q50 35 21 92L97 145Q136 69 224 69Z" glyph-name="scaron" horiz-adv-x="506" unicode="&#353;" /><glyph d="M175 -239Q135 -239 103.5 -223Q72 -207 58 -174L111 -130Q122 -153 137 -165.5Q152 -178 181 -178Q204 -178 220 -167.5Q236 -157 236 -136Q236 -114 216.5 -106.5Q197 -99 170 -100L153 -88L186 -12Q129 -7 87.5 17.5Q46 42 21 92L97 145Q136 69 224 69Q281 69 306.5 86.5Q332 104 332 132Q332 156 316.5 169Q301 182 260 193L221 203Q153 220 117 256Q81 292 81 346Q81 379 94 408Q107 437 133 458Q159 479 196.5 491Q234 503 284 503Q351 503 393.5 482Q436 461 465 419L395 358Q384 372 372.5 383.5Q361 395 347.5 403Q334 411 316.5 415Q299 419 277 419Q228 419 205.5 401Q183 383 183 357Q183 331 199 319.5Q215 308 248 299L297 286Q372 266 403.5 232Q435 198 435 147Q435 119 425.5 92.5Q416 66 394.5 44.5Q373 23 338.5 8Q304 -7 254 -11L231 -56Q263 -59 286.5 -79Q310 -99 310 -135Q310 -161 299 -180.5Q288 -200 269.5 -213Q251 -226 226.5 -232.5Q202 -239 175 -239Z" glyph-name="scedilla" horiz-adv-x="506" unicode="&#351;" /><glyph d="M21 0ZM309 638 233 573H127V576L266 696H365L466 576V573H363ZM224 69Q281 69 306.5 86.5Q332 104 332 132Q332 156 316.5 169Q301 182 260 193L221 203Q153 220 117 256Q81 292 81 346Q81 379 94 408Q107 437 133 458Q159 479 196.5 491Q234 503 284 503Q351 503 393.5 482Q436 461 465 419L395 358Q384 372 372.5 383.5Q361 395 347.5 403Q334 411 316.5 415Q299 419 277 419Q228 419 205.5 401Q183 383 183 357Q183 331 199 319.5Q215 308 248 299L297 286Q372 266 403.5 232Q435 198 435 147Q435 117 423.5 88Q412 59 386.5 36.5Q361 14 319.5 0.5Q278 -13 218 -13Q149 -13 99.5 11Q50 35 21 92L97 145Q136 69 224 69Z" glyph-name="scircumflex" horiz-adv-x="506" unicode="&#349;" /><glyph d="M21 0ZM143 -301 130 -256Q156 -248 175 -229Q194 -210 202 -182Q172 -183 156 -169.5Q140 -156 140 -130Q140 -95 160.5 -78Q181 -61 212 -61Q240 -61 256 -76Q272 -91 272 -125Q272 -155 262.5 -184Q253 -213 236 -237Q219 -261 195.5 -278Q172 -295 143 -301ZM224 69Q281 69 306.5 86.5Q332 104 332 132Q332 156 316.5 169Q301 182 260 193L221 203Q153 220 117 256Q81 292 81 346Q81 379 94 408Q107 437 133 458Q159 479 196.5 491Q234 503 284 503Q351 503 393.5 482Q436 461 465 419L395 358Q384 372 372.5 383.5Q361 395 347.5 403Q334 411 316.5 415Q299 419 277 419Q228 419 205.5 401Q183 383 183 357Q183 331 199 319.5Q215 308 248 299L297 286Q372 266 403.5 232Q435 198 435 147Q435 117 423.5 88Q412 59 386.5 36.5Q361 14 319.5 0.5Q278 -13 218 -13Q149 -13 99.5 11Q50 35 21 92L97 145Q136 69 224 69Z" glyph-name="scommaaccent" horiz-adv-x="506" unicode="&#537;" /><glyph d="M226 279 243 274Q294 261 328.5 279.5Q363 298 363 340Q363 389 294 406L274 411Q225 422 193.5 403Q162 384 162 345Q162 324 176 307Q190 290 226 279ZM202 -26Q137 -26 90.5 -6.5Q44 13 20 64L93 117Q110 82 137 66.5Q164 51 210 51Q267 51 291 70.5Q315 90 315 121Q315 145 297 160Q279 175 237 186L201 195Q130 215 100 251.5Q70 288 70 333Q70 351 75 370.5Q80 390 91 407.5Q102 425 121 439Q140 453 168 460Q118 498 118 561Q118 589 128.5 616.5Q139 644 162.5 665.5Q186 687 223.5 700Q261 713 315 713Q374 713 410 695Q446 677 471 642L404 582Q385 608 363.5 621.5Q342 635 304 635Q257 635 235 617Q213 599 213 570Q213 548 226.5 529.5Q240 511 278 500L325 488Q396 468 428 436Q460 404 460 355Q460 336 455 317Q450 298 439 280.5Q428 263 409.5 249Q391 235 363 227Q413 192 413 131Q413 104 403 76Q393 48 369 25.5Q345 3 304.5 -11.5Q264 -26 202 -26Z" glyph-name="section" horiz-adv-x="519" unicode="&#167;" /><glyph d="M3 0ZM17 -140 3 -91Q33 -82 54.5 -59.5Q76 -37 85 -6Q55 -6 39.5 8.5Q24 23 24 49Q24 87 45.5 106Q67 125 99 125Q128 125 144.5 109Q161 93 161 58Q161 30 153 -0.5Q145 -31 127.5 -58.5Q110 -86 82.5 -108Q55 -130 17 -140ZM147 357Q117 357 101 372Q85 387 85 413Q85 450 106 470Q127 490 162 490Q224 490 224 433Q224 395 202.5 376Q181 357 147 357Z" glyph-name="semicolon" horiz-adv-x="235" unicode=";" /><glyph d="M140 0Q153 84 182 168.5Q211 253 252 331.5Q293 410 345.5 479.5Q398 549 458 602L113 600L128 700H605L590 606Q528 568 474 503Q420 438 376.5 356.5Q333 275 302.5 183Q272 91 258 0Z" glyph-name="seven" horiz-adv-x="625" unicode="7" /><glyph d="M113 0Q126 84 155 168.5Q184 253 225 331.5Q266 410 318.5 479.5Q371 549 432 602L85 600L101 700H580L565 606Q503 568 448.5 503Q394 438 350.5 356.5Q307 275 276.5 183Q246 91 232 0Z" glyph-name="seven.LP" horiz-adv-x="511" /><glyph d="M91 -100Q104 -16 131.5 68.5Q159 153 198 231.5Q237 310 287 379.5Q337 449 394 502L65 500L80 600H535L521 506Q462 468 410 403Q358 338 316.5 256.5Q275 175 246 83Q217 -9 204 -100Z" glyph-name="seven.OP" horiz-adv-x="480" /><glyph d="M139 -100Q152 -16 181 68.5Q210 153 251 231.5Q292 310 344.5 379.5Q397 449 457 502L112 500L127 600H604L589 506Q527 468 473 403Q419 338 375.5 256.5Q332 175 301.5 83Q271 -9 257 -100Z" glyph-name="seven.OT" horiz-adv-x="625" /><glyph d="M13 0ZM30 -200Q37 -151 54 -104Q71 -57 94.5 -14Q118 29 147.5 66Q177 103 211 132L13 131L25 207H318L307 142Q234 88 186.5 -3.5Q139 -95 122 -200Z" glyph-name="seven.inf" horiz-adv-x="320" /><glyph d="M283 -13Q229 -13 184.5 2Q140 17 109 49Q78 81 61 131Q44 181 44 250Q44 276 45.5 302.5Q47 329 52 357Q79 536 166.5 624.5Q254 713 385 713Q473 713 528 681.5Q583 650 604 591L520 535Q486 623 382 623Q328 623 290 601Q252 579 226 541Q200 503 184 452.5Q168 402 159 345L156 322Q185 376 238.5 407.5Q292 439 361 439Q455 439 507 392.5Q559 346 559 260Q559 205 542 155.5Q525 106 490.5 68.5Q456 31 404 9Q352 -13 283 -13ZM328 352Q293 352 262.5 341Q232 330 208.5 309Q185 288 171.5 258Q158 228 158 191Q158 139 191 107Q224 75 285 75Q359 75 403.5 121Q448 167 448 245Q448 295 419 323.5Q390 352 328 352Z" glyph-name="six" horiz-adv-x="625" unicode="6" /><glyph d="M321 -13Q265 -13 220 2Q175 17 143.5 49Q112 81 94.5 130.5Q77 180 77 250Q77 272 78.5 295.5Q80 319 84 344Q110 530 197 621.5Q284 713 423 713Q510 713 566 682Q622 651 643 592L557 535Q541 577 507 600Q473 623 419 623Q365 623 327 601Q289 579 262.5 541Q236 503 220 452.5Q204 402 195 345L191 324Q220 375 274 407Q328 439 397 439Q492 439 545.5 392.5Q599 346 599 260Q599 204 581 154.5Q563 105 528 67.5Q493 30 441 8.5Q389 -13 321 -13ZM365 352Q330 352 299 341Q268 330 244.5 309Q221 288 207.5 258Q194 228 194 191Q194 139 227.5 107Q261 75 321 75Q396 75 441 121Q486 167 486 245Q486 295 457 323.5Q428 352 365 352Z" glyph-name="six.LP" horiz-adv-x="658" /><glyph d="M305 -13Q251 -13 208 2Q165 17 134.5 49Q104 81 87.5 131Q71 181 71 250Q71 302 80 356Q108 540 190 626.5Q272 713 403 713Q487 713 540 681.5Q593 650 613 591L532 535Q516 580 482.5 601.5Q449 623 400 623Q348 623 311.5 601Q275 579 250.5 541.5Q226 504 210.5 453.5Q195 403 186 346L183 323Q211 377 263 408Q315 439 381 439Q473 439 523.5 392.5Q574 346 574 260Q574 205 557.5 155.5Q541 106 507.5 68.5Q474 31 423.5 9Q373 -13 305 -13ZM347 353Q314 353 284.5 342Q255 331 233.5 310Q212 289 199 259Q186 229 186 192Q186 141 217 108Q248 75 306 75Q341 75 370 87.5Q399 100 420 122.5Q441 145 452.5 176Q464 207 464 245Q464 295 435.5 324Q407 353 347 353Z" glyph-name="six.OP" horiz-adv-x="631" /><glyph d="M284 -13Q229 -13 185 2Q141 17 110 49Q79 81 62 131Q45 181 45 250Q45 276 46.5 302.5Q48 329 53 356Q80 536 167.5 624.5Q255 713 386 713Q473 713 528.5 681.5Q584 650 605 591L520 535Q503 580 468.5 601.5Q434 623 383 623Q329 623 291 601Q253 579 227 541Q201 503 185 452.5Q169 402 160 345L156 322Q185 376 239 407.5Q293 439 361 439Q455 439 507.5 392.5Q560 346 560 260Q560 205 543 155.5Q526 106 491.5 68.5Q457 31 405 9Q353 -13 284 -13ZM329 352Q294 352 263 341Q232 330 209 309Q186 288 172.5 258Q159 228 159 191Q159 139 192 107Q225 75 285 75Q360 75 404.5 121Q449 167 449 245Q449 295 420 323.5Q391 352 329 352Z" glyph-name="six.OT" horiz-adv-x="625" /><glyph d="M5 0ZM155 -211Q84 -211 44.5 -173Q5 -135 5 -52Q5 -19 11 17Q26 118 78.5 168.5Q131 219 215 219Q268 219 303 199.5Q338 180 351 145L290 102Q272 149 215 149Q186 149 165.5 138.5Q145 128 130.5 108.5Q116 89 107 62Q98 35 93 2L92 -7Q109 23 139.5 39.5Q170 56 208 56Q264 56 295 29Q326 2 326 -49Q326 -81 315.5 -110.5Q305 -140 284 -162.5Q263 -185 230.5 -198Q198 -211 155 -211ZM178 -8Q143 -8 118 -28Q93 -48 93 -86Q93 -111 109 -126.5Q125 -142 157 -142Q195 -142 217.5 -119.5Q240 -97 240 -61Q240 -36 225 -22Q210 -8 178 -8Z" glyph-name="six.inf" horiz-adv-x="407" /><glyph glyph-name="sixperemspace" horiz-adv-x="167" unicode="&#8198;" /><glyph d="M582 700 85 0H-37L461 700Z" glyph-name="slash" horiz-adv-x="515" unicode="/" /><glyph glyph-name="space" horiz-adv-x="230" unicode=" " /><glyph d="M524 74Q483 29 436.5 14.5Q390 0 328 0H-18L-3 94H31Q63 94 75.5 121.5Q88 149 94 199L106 297H28L41 377H117L132 499Q139 554 159 594.5Q179 635 209.5 661Q240 687 279.5 700Q319 713 366 713Q453 713 501 677Q549 641 572 571L483 527Q470 570 442.5 595Q415 620 367 620Q310 620 280.5 586.5Q251 553 242 486L229 377H402L389 297H219L207 202Q202 167 193.5 139Q185 111 172 94H342Q381 94 414 105Q447 116 475 147Z" glyph-name="sterling" horiz-adv-x="581" unicode="&#163;" /><glyph d="M368 491 355 406H219L183 178Q175 122 189.5 99.5Q204 77 246 77Q262 77 275.5 80Q289 83 304 88L308 7Q280 -4 259.5 -8Q239 -12 217 -12Q149 -12 109.5 18Q70 48 70 118Q70 132 71.5 147.5Q73 163 75 177L112 406H31L44 491H126L148 633H255L233 491Z" glyph-name="t" horiz-adv-x="363" unicode="t" /><glyph d="M19 324H99L112 406H31L44 491H126L148 633H255L233 491H368L355 406H219L206 324H343L332 256H195L183 178Q175 122 189.5 99.5Q204 77 246 77Q262 77 275.5 80Q289 83 304 88L308 7Q280 -4 259.5 -8Q239 -12 217 -12Q149 -12 109.5 18Q70 48 70 118Q70 132 71.5 147.5Q73 163 75 177L88 256H8Z" glyph-name="tbar" horiz-adv-x="368" unicode="&#359;" /><glyph d="M377 555H304L341 751H439ZM368 491 355 406H219L183 178Q175 122 189.5 99.5Q204 77 246 77Q262 77 275.5 80Q289 83 304 88L308 7Q280 -4 259.5 -8Q239 -12 217 -12Q149 -12 109.5 18Q70 48 70 118Q70 132 71.5 147.5Q73 163 75 177L112 406H31L44 491H126L148 633H255L233 491Z" glyph-name="tcaron" horiz-adv-x="373" unicode="&#357;" /><glyph d="M303 -135Q303 -161 292 -180.5Q281 -200 262.5 -213Q244 -226 219.5 -232.5Q195 -239 168 -239Q128 -239 96.5 -223Q65 -207 51 -174L104 -130Q115 -153 130 -165.5Q145 -178 174 -178Q197 -178 213 -167.5Q229 -157 229 -136Q229 -114 209.5 -106.5Q190 -99 163 -100L146 -88L180 -10Q129 -2 99.5 28Q70 58 70 118Q70 132 71.5 147.5Q73 163 75 177L112 406H31L44 491H126L148 633H255L233 491H368L355 406H219L183 178Q175 122 189.5 99.5Q204 77 246 77Q262 77 275.5 80Q289 83 304 88L308 7Q291 0 276.5 -4Q262 -8 248 -10L224 -56Q256 -59 279.5 -79Q303 -99 303 -135Z" glyph-name="tcedilla" horiz-adv-x="363" unicode="&#355;" /><glyph glyph-name="thinspace" horiz-adv-x="200" unicode="&#8201;" /><glyph d="M193 243Q191 229 190 216.5Q189 204 189 193Q189 130 219 101.5Q249 73 297 73Q363 73 400.5 115.5Q438 158 452 244Q455 261 456 274Q457 287 457 302Q457 361 430.5 388.5Q404 416 354 416Q296 416 251.5 375Q207 334 193 243ZM267 700 221 416Q284 503 397 503Q480 503 522.5 455Q565 407 565 313Q565 296 564 282Q563 268 560 248Q543 127 479.5 57Q416 -13 308 -13Q258 -13 221.5 6.5Q185 26 165 65L126 -186H15L156 700Z" glyph-name="thorn" horiz-adv-x="613" unicode="&#254;" /><glyph d="M254 -13Q164 -13 107.5 21Q51 55 24 121L111 175Q131 124 167 100.5Q203 77 261 77Q337 77 385 115Q433 153 433 230Q433 272 406.5 294Q380 316 323 316H232L246 408H335Q390 408 427.5 442Q465 476 465 537Q465 581 434.5 601.5Q404 622 348 622Q294 622 255 601.5Q216 581 179 533L110 591Q158 656 220 684.5Q282 713 371 713Q469 713 523 674Q577 635 577 557Q577 499 546.5 446.5Q516 394 458 365Q542 330 542 239Q542 185 523 139Q504 93 467 59Q430 25 376.5 6Q323 -13 254 -13Z" glyph-name="three" horiz-adv-x="625" unicode="3" /><glyph d="M247 -13Q156 -13 99.5 21.5Q43 56 15 122L104 174Q124 124 160.5 101Q197 78 255 78Q293 78 324.5 87Q356 96 379 115Q402 134 414.5 162.5Q427 191 427 229Q427 271 400 293.5Q373 316 316 316H224L239 408H328Q355 408 379 417Q403 426 420.5 442.5Q438 459 448 483Q458 507 458 537Q458 581 427.5 601Q397 621 340 621Q287 621 247.5 601Q208 581 172 533L102 594Q148 656 210 684.5Q272 713 363 713Q464 713 518 674Q572 635 572 556Q572 496 540.5 445.5Q509 395 451 365Q494 347 515.5 316Q537 285 537 237Q537 184 517.5 138Q498 92 461 58.5Q424 25 370 6Q316 -13 247 -13Z" glyph-name="three.LP" horiz-adv-x="605" /><glyph d="M216 -114Q134 -114 79.5 -78.5Q25 -43 0 24L84 79Q101 29 134.5 2Q168 -25 222 -25Q259 -25 290 -15.5Q321 -6 343.5 13Q366 32 379 60.5Q392 89 392 128Q392 170 366 192.5Q340 215 284 215H197L211 307H296Q322 307 345 316Q368 325 385 341.5Q402 358 412 382.5Q422 407 422 437Q422 481 392.5 502Q363 523 309 523Q259 523 222.5 504Q186 485 151 433L80 491Q127 559 188 586Q249 613 332 613Q428 613 481.5 574Q535 535 535 458Q535 399 505 346.5Q475 294 416 264Q500 229 500 137Q500 83 481 37Q462 -9 426 -42.5Q390 -76 337 -95Q284 -114 216 -114Z" glyph-name="three.OP" horiz-adv-x="578" /><glyph d="M250 -113Q160 -113 103.5 -79Q47 -45 20 21L107 75Q127 24 163 0.5Q199 -23 257 -23Q333 -23 381 14.5Q429 52 429 130Q429 172 402.5 194Q376 216 319 216H227L242 308H331Q386 308 423 342Q460 376 460 437Q460 481 430 501.5Q400 522 343 522Q289 522 250 501.5Q211 481 175 433L106 491Q154 556 216 584.5Q278 613 366 613Q464 613 518.5 574Q573 535 573 457Q573 399 542.5 346.5Q512 294 454 265Q537 231 537 139Q537 85 518 39Q499 -7 462.5 -41Q426 -75 372.5 -94Q319 -113 250 -113Z" glyph-name="three.OT" horiz-adv-x="625" /><glyph d="M0 0ZM118 -211Q61 -211 25.5 -189.5Q-10 -168 -27 -126L40 -87Q52 -113 71 -126.5Q90 -140 123 -140Q160 -140 184 -122.5Q208 -105 208 -71Q208 -48 193.5 -37Q179 -26 147 -26H98L109 41H157Q186 41 205.5 58.5Q225 76 225 103Q225 127 210.5 137Q196 147 164 147Q136 147 116.5 137.5Q97 128 77 100L23 144Q50 182 87.5 200.5Q125 219 179 219Q313 219 313 122Q313 84 294.5 54.5Q276 25 242 8Q265 0 278.5 -18Q292 -36 292 -68Q292 -98 280 -124Q268 -150 245.5 -169.5Q223 -189 191 -200Q159 -211 118 -211Z" glyph-name="three.inf" horiz-adv-x="372" /><glyph glyph-name="threeperemspace" horiz-adv-x="333" unicode="&#8196;" /><glyph d="M640 305 626 214H42L56 305Z" glyph-name="threequarteremdash" horiz-adv-x="682" /><glyph d="M35 0ZM180 282Q123 282 87.5 303.5Q52 325 35 367L102 406Q114 380 133 366.5Q152 353 185 353Q222 353 246 370.5Q270 388 270 422Q270 445 255.5 456Q241 467 209 467H160L171 534H219Q248 534 267.5 551.5Q287 569 287 596Q287 620 272.5 630Q258 640 226 640Q198 640 178.5 630.5Q159 621 139 593L85 637Q112 675 149.5 693.5Q187 712 241 712Q375 712 375 615Q375 577 356.5 547.5Q338 518 304 501Q327 493 340.5 475Q354 457 354 425Q354 395 342 369Q330 343 307.5 323.5Q285 304 253 293Q221 282 180 282ZM757 700 313 0H210L655 700ZM553 91 562 151 727 408H812L654 166H782L808 320H889L865 166H920L908 91H852L838 0H756L771 91Z" glyph-name="threequarters" horiz-adv-x="963" unicode="&#190;" /><glyph d="M38 283ZM183 283Q126 283 90.5 304.5Q55 326 38 368L105 407Q117 381 136 367.5Q155 354 188 354Q225 354 249 371.5Q273 389 273 423Q273 446 258.5 457Q244 468 212 468H163L174 535H222Q251 535 270.5 552.5Q290 570 290 597Q290 621 275.5 631Q261 641 229 641Q201 641 181.5 631.5Q162 622 142 594L88 638Q115 676 152.5 694.5Q190 713 244 713Q378 713 378 616Q378 578 359.5 548.5Q341 519 307 502Q330 494 343.5 476Q357 458 357 426Q357 396 345 370Q333 344 310.5 324.5Q288 305 256 294Q224 283 183 283Z" glyph-name="threesuperior" horiz-adv-x="376" unicode="&#179;" /><glyph d="M404 690H478Q476 659 465.5 638Q455 617 439 604.5Q423 592 404.5 586.5Q386 581 369 581Q348 581 331 587Q314 593 299.5 600.5Q285 608 272 614Q259 620 246 620Q228 620 220.5 609Q213 598 211 584H136Q139 615 149.5 636Q160 657 175 669.5Q190 682 208 687.5Q226 693 244 693Q265 693 282 687Q299 681 314 673.5Q329 666 342.5 660Q356 654 369 654Q386 654 394 665Q402 676 404 690Z" glyph-name="tilde" horiz-adv-x="600" unicode="&#732;" /><glyph d="M87 700H339L330 642H238L201 406H136L173 642H77ZM664 406H601L630 588L526 406H470L419 585L392 406H328L375 700H446L507 475L637 700H711Z" glyph-name="trademark" horiz-adv-x="685" unicode="&#8482;" /><glyph d="M12 0 26 96 285 308Q328 343 360 372Q392 401 412.5 428Q433 455 443 481Q453 507 453 536Q453 579 425 599.5Q397 620 345 620Q281 620 238.5 594.5Q196 569 159 514L91 572Q142 647 205.5 680Q269 713 361 713Q461 713 514.5 673.5Q568 634 568 555Q568 515 556 479Q544 443 518 406.5Q492 370 451 330Q410 290 352 242L172 95L529 96L513 0Z" glyph-name="two" horiz-adv-x="625" unicode="2" /><glyph d="M11 0 25 96 286 308Q329 343 361 372Q393 401 414 428Q435 455 445 481Q455 507 455 536Q455 579 426.5 599.5Q398 620 346 620Q282 620 239.5 594.5Q197 569 159 515L89 572Q140 647 204.5 680Q269 713 360 713Q462 713 516.5 673.5Q571 634 571 555Q571 515 559 479.5Q547 444 521 407Q495 370 454 330Q413 290 355 242L172 95L532 96L517 0Z" glyph-name="two.LP" horiz-adv-x="598" /><glyph d="M3 0 16 83 234 264Q271 295 298.5 320.5Q326 346 343.5 368.5Q361 391 369.5 413Q378 435 378 459Q378 492 354.5 507.5Q331 523 290 523Q243 523 207.5 498.5Q172 474 141 425L72 478Q115 547 172 580Q229 613 310 613Q395 613 442.5 579.5Q490 546 490 480Q490 446 479 414.5Q468 383 444.5 350.5Q421 318 385 282.5Q349 247 300 205L159 86L447 88L433 0Z" glyph-name="two.OP" horiz-adv-x="516" /><glyph d="M42 0 56 93 280 261Q317 289 346 312Q375 335 395 355.5Q415 376 426.5 395.5Q438 415 441 437Q448 482 421.5 501.5Q395 521 343 521Q290 521 251.5 497Q213 473 181 421L112 474Q160 546 220 579.5Q280 613 361 613Q462 614 512.5 573Q563 532 555 452Q552 420 538.5 391.5Q525 363 500 334Q475 305 437 272.5Q399 240 347 201L198 89L523 91L508 0Z" glyph-name="two.OT" horiz-adv-x="625" /><glyph d="M0 0ZM-29 -200 -18 -132 132 -12Q174 21 197.5 46Q221 71 221 101Q221 146 159 146Q128 146 107 132.5Q86 119 66 90L15 135Q46 180 85 199.5Q124 219 174 219Q237 219 274 195.5Q311 172 311 119Q311 95 303.5 73Q296 51 280.5 30Q265 9 241.5 -12.5Q218 -34 187 -59L104 -124L290 -123L279 -200Z" glyph-name="two.inf" horiz-adv-x="372" /><glyph d="M34 294ZM34 294 45 362 195 482Q237 515 260.5 540Q284 565 284 595Q284 640 222 640Q191 640 170 626.5Q149 613 129 584L78 629Q109 674 148 693.5Q187 713 237 713Q300 713 337 689.5Q374 666 374 613Q374 589 366.5 567Q359 545 343.5 524Q328 503 304.5 481.5Q281 460 250 435L167 370L353 371L342 294Z" glyph-name="twosuperior" horiz-adv-x="375" unicode="&#178;" /><glyph d="M224 -13Q140 -13 101 28.5Q62 70 62 142Q62 163 65 187L114 491H225L180 213Q178 201 178 190V170Q178 79 266 79Q327 79 369 120Q411 161 425 241L464 491H575L496 0H403L408 84Q373 33 325 10Q277 -13 224 -13Z" glyph-name="u" horiz-adv-x="620" unicode="u" /><glyph d="M62 0ZM405 696H535L534 690L400 573H307V577ZM224 -13Q140 -13 101 28.5Q62 70 62 142Q62 163 65 187L114 491H225L180 213Q178 201 178 190V170Q178 79 266 79Q327 79 369 120Q411 161 425 241L464 491H575L496 0H403L408 84Q373 33 325 10Q277 -13 224 -13Z" glyph-name="uacute" horiz-adv-x="620" unicode="&#250;" /><glyph d="M62 0ZM224 -13Q140 -13 101 28.5Q62 70 62 142Q62 163 65 187L114 491H225L180 213Q178 201 178 190V170Q178 79 266 79Q327 79 369 120Q411 161 425 241L464 491H575L496 0H403L408 84Q373 33 325 10Q277 -13 224 -13ZM448 696H525Q520 659 506 634Q492 609 471 594Q450 579 421 573Q392 567 357 567Q322 567 294.5 573Q267 579 250 594Q233 609 226 634Q219 659 224 696H301Q294 658 310 644.5Q326 631 363 631Q400 631 421 644.5Q442 658 448 696Z" glyph-name="ubreve" horiz-adv-x="620" unicode="&#365;" /><glyph d="M62 0ZM367 638 291 573H185V576L324 696H423L524 576V573H421ZM224 -13Q140 -13 101 28.5Q62 70 62 142Q62 163 65 187L114 491H225L180 213Q178 201 178 190V170Q178 79 266 79Q327 79 369 120Q411 161 425 241L464 491H575L496 0H403L408 84Q373 33 325 10Q277 -13 224 -13Z" glyph-name="ucircumflex" horiz-adv-x="620" unicode="&#251;" /><glyph d="M62 0ZM452 576Q393 576 393 628Q393 666 414 684.5Q435 703 467 703Q527 703 527 650Q527 613 506.5 594.5Q486 576 452 576ZM266 576Q207 576 207 628Q207 667 228.5 685Q250 703 282 703Q341 703 341 651Q341 613 321 594.5Q301 576 266 576ZM224 -13Q140 -13 101 28.5Q62 70 62 142Q62 163 65 187L114 491H225L180 213Q178 201 178 190V170Q178 79 266 79Q327 79 369 120Q411 161 425 241L464 491H575L496 0H403L408 84Q373 33 325 10Q277 -13 224 -13Z" glyph-name="udieresis" horiz-adv-x="620" unicode="&#252;" /><glyph d="M62 0ZM224 -13Q140 -13 101 28.5Q62 70 62 142Q62 163 65 187L114 491H225L180 213Q178 201 178 190V170Q178 79 266 79Q327 79 369 120Q411 161 425 241L464 491H575L496 0H403L408 84Q373 33 325 10Q277 -13 224 -13ZM320 573 218 690 219 696H349L407 577V573Z" glyph-name="ugrave" horiz-adv-x="620" unicode="&#249;" /><glyph d="M62 0ZM224 -13Q140 -13 101 28.5Q62 70 62 142Q62 163 65 187L114 491H225L180 213Q178 201 178 190V170Q178 79 266 79Q327 79 369 120Q411 161 425 241L464 491H575L496 0H403L408 84Q373 33 325 10Q277 -13 224 -13ZM477 696H606L605 690L465 573H381V577ZM318 696H436L435 690L319 573H236L237 577Z" glyph-name="uhungarumlaut" horiz-adv-x="620" unicode="&#369;" /><glyph d="M62 0ZM224 -13Q140 -13 101 28.5Q62 70 62 142Q62 163 65 187L114 491H225L180 213Q178 201 178 190V170Q178 79 266 79Q327 79 369 120Q411 161 425 241L464 491H575L496 0H403L408 84Q373 33 325 10Q277 -13 224 -13ZM505 666 493 597H231L242 666Z" glyph-name="umacron" horiz-adv-x="620" unicode="&#363;" /><glyph d="M437 0 422 -91H-58L-44 0Z" glyph-name="underscore" horiz-adv-x="476" unicode="_" /><glyph glyph-name="uni00A0" horiz-adv-x="176" unicode="&#160;" /><glyph d="M363 305 348 214H41L56 305Z" glyph-name="uni00AD" horiz-adv-x="405" unicode="&#173;" /><glyph d="M61 0ZM169 -301 156 -256Q182 -248 201 -229Q220 -210 228 -182Q198 -183 182 -169.5Q166 -156 166 -130Q166 -95 186.5 -78Q207 -61 238 -61Q266 -61 282 -76Q298 -91 298 -125Q298 -155 288.5 -184Q279 -213 262 -237Q245 -261 221.5 -278Q198 -295 169 -301ZM77 700H631L615 601H395L300 0H186L281 601H61Z" glyph-name="uni021A" horiz-adv-x="578" unicode="&#538;" /><glyph d="M31 0ZM135 -301 122 -256Q148 -248 167 -229Q186 -210 194 -182Q164 -183 148 -169.5Q132 -156 132 -130Q132 -95 152.5 -78Q173 -61 204 -61Q232 -61 248 -76Q264 -91 264 -125Q264 -155 254.5 -184Q245 -213 228 -237Q211 -261 187.5 -278Q164 -295 135 -301ZM368 491 355 406H219L183 178Q175 122 189.5 99.5Q204 77 246 77Q262 77 275.5 80Q289 83 304 88L308 7Q280 -4 259.5 -8Q239 -12 217 -12Q149 -12 109.5 18Q70 48 70 118Q70 132 71.5 147.5Q73 163 75 177L112 406H31L44 491H126L148 633H255L233 491Z" glyph-name="uni021B" horiz-adv-x="363" unicode="&#539;" /><glyph d="M1024 305 1009 214H41L56 305Z" glyph-name="uni2015" horiz-adv-x="1068" unicode="&#8213;" /><glyph d="M70 283ZM279 713Q356 713 392.5 676Q429 639 429 561Q429 544 428 530.5Q427 517 424 498Q408 391 360.5 337Q313 283 220 283Q143 283 106.5 319.5Q70 356 70 434Q70 448 71.5 464.5Q73 481 75 498Q91 610 140.5 661.5Q190 713 279 713ZM272 641Q251 641 234 634Q217 627 203 610Q189 593 179 565.5Q169 538 162 497L158 465Q156 449 156 438Q156 390 174.5 372.5Q193 355 226 355Q247 355 265 362Q283 369 297 385.5Q311 402 321 429.5Q331 457 338 498Q340 515 342 530Q344 545 344 557Q344 604 325 622.5Q306 641 272 641Z" glyph-name="uni2070" horiz-adv-x="437" unicode="&#8304;" /><glyph d="M44 294ZM44 385 53 445 218 702H303L145 460H273L299 614H380L356 460H411L399 385H343L329 294H247L262 385Z" glyph-name="uni2074" horiz-adv-x="406" unicode="&#8308;" /><glyph d="M31 283ZM180 631 157 540Q176 548 194.5 551.5Q213 555 236 555Q292 555 325.5 530Q359 505 359 446Q359 410 346.5 380.5Q334 351 310.5 329Q287 307 253.5 295Q220 283 177 283Q123 283 86 303Q49 323 31 362L96 406Q109 380 128.5 366.5Q148 353 180 353Q222 353 248 376Q274 399 274 437Q274 466 256 479Q238 492 206 492Q159 492 121 465L72 491L124 702H383L372 631Z" glyph-name="uni2075" horiz-adv-x="366" unicode="&#8309;" /><glyph d="M68 283ZM218 283Q147 283 107.5 321Q68 359 68 442Q68 475 74 511Q89 612 141.5 662.5Q194 713 278 713Q331 713 366 693.5Q401 674 414 639L353 596Q335 643 278 643Q249 643 228.5 632.5Q208 622 193.5 602.5Q179 583 170 556Q161 529 156 496L155 487Q172 517 202.5 533.5Q233 550 271 550Q327 550 358 523Q389 496 389 445Q389 413 378.5 383.5Q368 354 347 331.5Q326 309 293.5 296Q261 283 218 283ZM241 486Q206 486 181 466Q156 446 156 408Q156 383 172 367.5Q188 352 220 352Q258 352 280.5 374.5Q303 397 303 433Q303 458 288 472Q273 486 241 486Z" glyph-name="uni2076" horiz-adv-x="411" unicode="&#8310;" /><glyph d="M76 294ZM93 294Q100 343 117 390Q134 437 157.5 480Q181 523 210.5 560Q240 597 274 626L76 625L88 701H381L370 636Q297 582 249.5 490.5Q202 399 185 294Z" glyph-name="uni2077" horiz-adv-x="324" unicode="&#8311;" /><glyph d="M56 283ZM198 283Q56 283 56 387Q56 437 83 466.5Q110 496 146 507Q103 528 103 583Q103 648 146.5 680.5Q190 713 264 713Q393 713 393 617Q393 575 372.5 546.5Q352 518 318 504Q345 494 360.5 474Q376 454 376 421Q376 355 328 319Q280 283 198 283ZM237 538Q271 538 292.5 555Q314 572 314 603Q314 624 298.5 635Q283 646 256 646Q221 646 200.5 630Q180 614 180 583Q180 538 237 538ZM207 347Q244 347 268 365Q292 383 292 418Q292 443 274.5 455.5Q257 468 227 468Q189 468 165.5 450Q142 432 142 397Q142 373 159 360Q176 347 207 347Z" glyph-name="uni2078" horiz-adv-x="402" unicode="&#8312;" /><glyph d="M49 283ZM227 506Q260 506 285.5 528Q311 550 311 588Q311 614 294.5 628.5Q278 643 247 643Q212 643 187.5 622Q163 601 163 559Q163 534 178.5 520Q194 506 227 506ZM249 713Q320 713 359.5 675Q399 637 399 555Q399 521 393 485Q376 385 324.5 334Q273 283 189 283Q136 283 100 301Q64 319 49 352Q50 353 59.5 360Q69 367 79.5 375Q90 383 99.5 389.5Q109 396 110 397Q129 353 189 353Q241 353 270 390.5Q299 428 311 501L312 507Q293 475 265 458Q237 441 196 441Q140 441 109 469Q78 497 78 549Q78 585 89.5 615Q101 645 122.5 666.5Q144 688 176 700.5Q208 713 249 713Z" glyph-name="uni2079" horiz-adv-x="410" unicode="&#8313;" /><glyph d="M58 361ZM199 361H133L147 451H58L67 510H155L170 601H235L221 510H310L301 451H213Z" glyph-name="uni207A" horiz-adv-x="311" unicode="&#8314;" /><glyph d="M58 451ZM310 510 301 451H58L67 510Z" glyph-name="uni207B" horiz-adv-x="311" unicode="&#8315;" /><glyph d="M52 404ZM317 555 308 495H66L75 555ZM303 465 295 404H52L60 465Z" glyph-name="uni207C" horiz-adv-x="311" unicode="&#8316;" /><glyph d="M54 225ZM184 225Q117 231 85.5 275Q54 319 54 401Q54 434 60 475Q76 591 125 653Q174 715 261 723L259 654Q234 651 213.5 640Q193 629 177 608Q161 587 149 554.5Q137 522 130 475Q126 455 125 435.5Q124 416 124 400Q124 346 143.5 322Q163 298 201 292Z" glyph-name="uni207D" horiz-adv-x="220" unicode="&#8317;" /><glyph d="M23 225ZM83 656 100 723Q167 717 198.5 673Q230 629 230 547Q230 513 224 473Q208 357 159 295Q110 233 23 225L25 294Q50 297 70.5 308Q91 319 107 340Q123 361 134.5 393.5Q146 426 154 473Q158 493 159 512.5Q160 532 160 548Q160 602 140.5 626Q121 650 83 656Z" glyph-name="uni207E" horiz-adv-x="220" unicode="&#8318;" /><glyph d="M235 419Q312 419 348.5 382Q385 345 385 267Q385 250 384 236.5Q383 223 380 204Q364 97 316.5 43Q269 -11 176 -11Q99 -11 62.5 25.5Q26 62 26 140Q26 154 27.5 170.5Q29 187 31 204Q47 316 96.5 367.5Q146 419 235 419ZM228 347Q207 347 190 340Q173 333 159 316Q145 299 135 271.5Q125 244 118 203L114 171Q112 155 112 144Q112 96 130.5 78.5Q149 61 182 61Q203 61 221 68Q239 75 253 91.5Q267 108 277 135.5Q287 163 294 204Q296 221 298 236Q300 251 300 263Q300 310 281 328.5Q262 347 228 347Z" glyph-name="uni2080" horiz-adv-x="433" unicode="&#8320;" /><glyph d="M138 0H52L100 306L47 275L26 345L147 411H202Z" glyph-name="uni2081" horiz-adv-x="238" unicode="&#8321;" /><glyph d="M-7 0 4 68 154 188Q196 221 219.5 246Q243 271 243 301Q243 346 181 346Q150 346 129 332.5Q108 319 88 290L37 335Q68 380 107 399.5Q146 419 196 419Q259 419 296 395.5Q333 372 333 319Q333 295 325.5 273Q318 251 302.5 230Q287 209 263.5 187.5Q240 166 209 141L126 76L312 77L301 0Z" glyph-name="uni2082" horiz-adv-x="372" unicode="&#8322;" /><glyph d="M140 -11Q83 -11 47.5 10.5Q12 32 -5 74L62 113Q74 87 93 73.5Q112 60 145 60Q182 60 206 77.5Q230 95 230 129Q230 152 215.5 163Q201 174 169 174H120L131 241H179Q208 241 227.5 258.5Q247 276 247 303Q247 327 232.5 337Q218 347 186 347Q158 347 138.5 337.5Q119 328 99 300L45 344Q72 382 109.5 400.5Q147 419 201 419Q335 419 335 322Q335 284 316.5 254.5Q298 225 264 208Q287 200 300.5 182Q314 164 314 132Q314 102 302 76Q290 50 267.5 30.5Q245 11 213 0Q181 -11 140 -11Z" glyph-name="uni2083" horiz-adv-x="372" unicode="&#8323;" /><glyph d="M3 91 12 151 177 408H262L104 166H232L258 320H339L315 166H370L358 91H302L288 0H206L221 91Z" glyph-name="uni2084" horiz-adv-x="403" unicode="&#8324;" /><glyph d="M139 337 116 246Q135 254 153.5 257.5Q172 261 195 261Q251 261 284.5 236Q318 211 318 152Q318 116 305.5 86.5Q293 57 269.5 35Q246 13 212.5 1Q179 -11 136 -11Q82 -11 45 9Q8 29 -10 68L55 112Q68 86 87.5 72.5Q107 59 139 59Q181 59 207 82Q233 105 233 143Q233 172 215 185Q197 198 165 198Q118 198 80 171L31 197L83 408H342L331 337Z" glyph-name="uni2085" horiz-adv-x="363" unicode="&#8325;" /><glyph d="M177 -11Q106 -11 66.5 27Q27 65 27 148Q27 181 33 217Q48 318 100.5 368.5Q153 419 237 419Q290 419 325 399.5Q360 380 373 345L312 302Q294 349 237 349Q208 349 187.5 338.5Q167 328 152.5 308.5Q138 289 129 262Q120 235 115 202L114 193Q131 223 161.5 239.5Q192 256 230 256Q286 256 317 229Q348 202 348 151Q348 119 337.5 89.5Q327 60 306 37.5Q285 15 252.5 2Q220 -11 177 -11ZM200 192Q165 192 140 172Q115 152 115 114Q115 89 131 73.5Q147 58 179 58Q217 58 239.5 80.5Q262 103 262 139Q262 164 247 178Q232 192 200 192Z" glyph-name="uni2086" horiz-adv-x="407" unicode="&#8326;" /><glyph d="M52 0Q59 49 76 96Q93 143 116.5 186Q140 229 169.5 266Q199 303 233 332L35 331L47 407H340L329 342Q256 288 208.5 196.5Q161 105 144 0Z" glyph-name="uni2087" horiz-adv-x="320" unicode="&#8327;" /><glyph d="M157 -11Q15 -11 15 93Q15 143 42 172.5Q69 202 105 213Q62 234 62 289Q62 354 105.5 386.5Q149 419 223 419Q352 419 352 323Q352 281 331.5 252.5Q311 224 277 210Q304 200 319.5 180Q335 160 335 127Q335 61 287 25Q239 -11 157 -11ZM196 244Q230 244 251.5 261Q273 278 273 309Q273 330 257.5 341Q242 352 215 352Q180 352 159.5 336Q139 320 139 289Q139 244 196 244ZM166 53Q203 53 227 71Q251 89 251 124Q251 149 233.5 161.5Q216 174 186 174Q148 174 124.5 156Q101 138 101 103Q101 79 118 66Q135 53 166 53Z" glyph-name="uni2088" horiz-adv-x="398" unicode="&#8328;" /><glyph d="M186 212Q219 212 244.5 234Q270 256 270 294Q270 320 253.5 334.5Q237 349 206 349Q171 349 146.5 328Q122 307 122 265Q122 240 137.5 226Q153 212 186 212ZM208 419Q279 419 318.5 381Q358 343 358 261Q358 227 352 191Q335 91 283.5 40Q232 -11 148 -11Q95 -11 59 7Q23 25 8 58Q9 59 18.5 66Q28 73 38.5 81Q49 89 58.5 95.5Q68 102 69 103Q88 59 148 59Q200 59 229 96.5Q258 134 270 207L271 213Q252 181 224 164Q196 147 155 147Q99 147 68 175Q37 203 37 255Q37 291 48.5 321Q60 351 81.5 372.5Q103 394 135 406.5Q167 419 208 419Z" glyph-name="uni2089" horiz-adv-x="405" unicode="&#8329;" /><glyph d="M158 61H92L106 151H17L26 210H114L129 301H194L180 210H269L260 151H172Z" glyph-name="uni208A" horiz-adv-x="311" unicode="&#8330;" /><glyph d="M269 210 260 151H17L26 210Z" glyph-name="uni208B" horiz-adv-x="311" unicode="&#8331;" /><glyph d="M276 255 267 195H25L34 255ZM262 165 254 104H11L19 165Z" glyph-name="uni208C" horiz-adv-x="311" unicode="&#8332;" /><glyph d="M143 -75Q76 -69 44.5 -25Q13 19 13 101Q13 134 19 175Q35 291 84 353Q133 415 220 423L218 354Q193 351 172.5 340Q152 329 136 308Q120 287 108 254.5Q96 222 89 175Q85 155 84 135.5Q83 116 83 100Q83 46 102.5 22Q122 -2 160 -8Z" glyph-name="uni208D" horiz-adv-x="218" unicode="&#8333;" /><glyph d="M42 356 59 423Q126 417 157.5 373Q189 329 189 247Q189 213 183 173Q167 57 118 -5Q69 -67 -18 -75L-16 -6Q9 -3 29.5 8Q50 19 66 40Q82 61 93.5 93.5Q105 126 113 173Q117 193 118 212.5Q119 232 119 248Q119 302 99.5 326Q80 350 42 356Z" glyph-name="uni208E" horiz-adv-x="218" unicode="&#8334;" /><glyph d="M64 0ZM601 -11Q544 -11 508.5 10.5Q473 32 456 74L523 113Q535 87 554 73.5Q573 60 606 60Q643 60 667 77.5Q691 95 691 129Q691 152 676.5 163Q662 174 630 174H581L592 241H640Q669 241 688.5 258.5Q708 276 708 303Q708 327 693.5 337Q679 347 647 347Q619 347 599.5 337.5Q580 328 560 300L506 344Q533 382 570.5 400.5Q608 419 662 419Q796 419 796 322Q796 284 777.5 254.5Q759 225 725 208Q748 200 761.5 182Q775 164 775 132Q775 102 763 76Q751 50 728.5 30.5Q706 11 674 0Q642 -11 601 -11ZM176 293H90L138 599L85 568L64 638L185 704H240ZM639 700 195 0H92L537 700Z" glyph-name="uni2153" horiz-adv-x="844" unicode="&#8531;" /><glyph d="M31 0ZM723 -11Q666 -11 630.5 10.5Q595 32 578 74L645 113Q657 87 676 73.5Q695 60 728 60Q765 60 789 77.5Q813 95 813 129Q813 152 798.5 163Q784 174 752 174H703L714 241H762Q791 241 810.5 258.5Q830 276 830 303Q830 327 815.5 337Q801 347 769 347Q741 347 721.5 337.5Q702 328 682 300L628 344Q655 382 692.5 400.5Q730 419 784 419Q918 419 918 322Q918 284 899.5 254.5Q881 225 847 208Q870 200 883.5 182Q897 164 897 132Q897 102 885 76Q873 50 850.5 30.5Q828 11 796 0Q764 -11 723 -11ZM31 293 42 361 192 481Q234 514 257.5 539Q281 564 281 594Q281 639 219 639Q188 639 167 625.5Q146 612 126 583L75 628Q106 673 145 692.5Q184 712 234 712Q297 712 334 688.5Q371 665 371 612Q371 588 363.5 566Q356 544 340.5 523Q325 502 301.5 480.5Q278 459 247 434L164 369L350 370L339 293ZM762 700 318 0H215L660 700Z" glyph-name="uni2154" horiz-adv-x="967" unicode="&#8532;" /><glyph d="M64 0ZM176 293H90L138 599L85 568L64 638L185 704H240ZM603 337 580 246Q599 254 617.5 257.5Q636 261 659 261Q715 261 748.5 236Q782 211 782 152Q782 116 769.5 86.5Q757 57 733.5 35Q710 13 676.5 1Q643 -11 600 -11Q546 -11 509 9Q472 29 454 68L519 112Q532 86 551.5 72.5Q571 59 603 59Q645 59 671 82Q697 105 697 143Q697 172 679 185Q661 198 629 198Q582 198 544 171L495 197L547 408H806L795 337ZM639 700 195 0H92L537 700Z" glyph-name="uni2155" horiz-adv-x="838" unicode="&#8533;" /><glyph d="M31 0ZM31 293 42 361 192 481Q234 514 257.5 539Q281 564 281 594Q281 639 219 639Q188 639 167 625.5Q146 612 126 583L75 628Q106 673 145 692.5Q184 712 234 712Q297 712 334 688.5Q371 665 371 612Q371 588 363.5 566Q356 544 340.5 523Q325 502 301.5 480.5Q278 459 247 434L164 369L350 370L339 293ZM727 337 704 246Q723 254 741.5 257.5Q760 261 783 261Q839 261 872.5 236Q906 211 906 152Q906 116 893.5 86.5Q881 57 857.5 35Q834 13 800.5 1Q767 -11 724 -11Q670 -11 633 9Q596 29 578 68L643 112Q656 86 675.5 72.5Q695 59 727 59Q769 59 795 82Q821 105 821 143Q821 172 803 185Q785 198 753 198Q706 198 668 171L619 197L671 408H930L919 337ZM762 700 318 0H215L660 700Z" glyph-name="uni2156" horiz-adv-x="962" unicode="&#8534;" /><glyph d="M35 0ZM180 282Q123 282 87.5 303.5Q52 325 35 367L102 406Q114 380 133 366.5Q152 353 185 353Q222 353 246 370.5Q270 388 270 422Q270 445 255.5 456Q241 467 209 467H160L171 534H219Q248 534 267.5 551.5Q287 569 287 596Q287 620 272.5 630Q258 640 226 640Q198 640 178.5 630.5Q159 621 139 593L85 637Q112 675 149.5 693.5Q187 712 241 712Q375 712 375 615Q375 577 356.5 547.5Q338 518 304 501Q327 493 340.5 475Q354 457 354 425Q354 395 342 369Q330 343 307.5 323.5Q285 304 253 293Q221 282 180 282ZM723 337 700 246Q719 254 737.5 257.5Q756 261 779 261Q835 261 868.5 236Q902 211 902 152Q902 116 889.5 86.5Q877 57 853.5 35Q830 13 796.5 1Q763 -11 720 -11Q666 -11 629 9Q592 29 574 68L639 112Q652 86 671.5 72.5Q691 59 723 59Q765 59 791 82Q817 105 817 143Q817 172 799 185Q781 198 749 198Q702 198 664 171L615 197L667 408H926L915 337ZM757 700 313 0H210L655 700Z" glyph-name="uni2157" horiz-adv-x="958" unicode="&#8535;" /><glyph d="M43 0ZM751 337 728 246Q747 254 765.5 257.5Q784 261 807 261Q863 261 896.5 236Q930 211 930 152Q930 116 917.5 86.5Q905 57 881.5 35Q858 13 824.5 1Q791 -11 748 -11Q694 -11 657 9Q620 29 602 68L667 112Q680 86 699.5 72.5Q719 59 751 59Q793 59 819 82Q845 105 845 143Q845 172 827 185Q809 198 777 198Q730 198 692 171L643 197L695 408H954L943 337ZM787 700 343 0H240L685 700ZM43 384 52 444 217 701H302L144 459H272L298 613H379L355 459H410L398 384H342L328 293H246L261 384Z" glyph-name="uni2158" horiz-adv-x="986" unicode="&#8536;" /><glyph d="M64 0ZM176 293H90L138 599L85 568L64 638L185 704H240ZM635 -11Q564 -11 524.5 27Q485 65 485 148Q485 181 491 217Q506 318 558.5 368.5Q611 419 695 419Q748 419 783 399.5Q818 380 831 345L770 302Q752 349 695 349Q666 349 645.5 338.5Q625 328 610.5 308.5Q596 289 587 262Q578 235 573 202L572 193Q589 223 619.5 239.5Q650 256 688 256Q744 256 775 229Q806 202 806 151Q806 119 795.5 89.5Q785 60 764 37.5Q743 15 710.5 2Q678 -11 635 -11ZM658 192Q623 192 598 172Q573 152 573 114Q573 89 589 73.5Q605 58 637 58Q675 58 697.5 80.5Q720 103 720 139Q720 164 705 178Q690 192 658 192ZM639 700 195 0H92L537 700Z" glyph-name="uni2159" horiz-adv-x="876" unicode="&#8537;" /><glyph d="M29 0ZM178 630 155 539Q174 547 192.5 550.5Q211 554 234 554Q290 554 323.5 529Q357 504 357 445Q357 409 344.5 379.5Q332 350 308.5 328Q285 306 251.5 294Q218 282 175 282Q121 282 84 302Q47 322 29 361L94 405Q107 379 126.5 365.5Q146 352 178 352Q220 352 246 375Q272 398 272 436Q272 465 254 478Q236 491 204 491Q157 491 119 464L70 490L122 701H381L370 630ZM750 -11Q679 -11 639.5 27Q600 65 600 148Q600 181 606 217Q621 318 673.5 368.5Q726 419 810 419Q863 419 898 399.5Q933 380 946 345L885 302Q867 349 810 349Q781 349 760.5 338.5Q740 328 725.5 308.5Q711 289 702 262Q693 235 688 202L687 193Q704 223 734.5 239.5Q765 256 803 256Q859 256 890 229Q921 202 921 151Q921 119 910.5 89.5Q900 60 879 37.5Q858 15 825.5 2Q793 -11 750 -11ZM773 192Q738 192 713 172Q688 152 688 114Q688 89 704 73.5Q720 58 752 58Q790 58 812.5 80.5Q835 103 835 139Q835 164 820 178Q805 192 773 192ZM755 700 311 0H208L653 700Z" glyph-name="uni215A" horiz-adv-x="991" unicode="&#8538;" /><glyph d="M64 0ZM176 293H90L138 599L85 568L64 638L185 704H240ZM616 -11Q474 -11 474 93Q474 143 501 172.5Q528 202 564 213Q521 234 521 289Q521 354 564.5 386.5Q608 419 682 419Q811 419 811 323Q811 281 790.5 252.5Q770 224 736 210Q763 200 778.5 180Q794 160 794 127Q794 61 746 25Q698 -11 616 -11ZM655 244Q689 244 710.5 261Q732 278 732 309Q732 330 716.5 341Q701 352 674 352Q639 352 618.5 336Q598 320 598 289Q598 244 655 244ZM625 53Q662 53 686 71Q710 89 710 124Q710 149 692.5 161.5Q675 174 645 174Q607 174 583.5 156Q560 138 560 103Q560 79 577 66Q594 53 625 53ZM639 700 195 0H92L537 700Z" glyph-name="uni215B" horiz-adv-x="867" unicode="&#8539;" /><glyph d="M35 0ZM180 282Q123 282 87.5 303.5Q52 325 35 367L102 406Q114 380 133 366.5Q152 353 185 353Q222 353 246 370.5Q270 388 270 422Q270 445 255.5 456Q241 467 209 467H160L171 534H219Q248 534 267.5 551.5Q287 569 287 596Q287 620 272.5 630Q258 640 226 640Q198 640 178.5 630.5Q159 621 139 593L85 637Q112 675 149.5 693.5Q187 712 241 712Q375 712 375 615Q375 577 356.5 547.5Q338 518 304 501Q327 493 340.5 475Q354 457 354 425Q354 395 342 369Q330 343 307.5 323.5Q285 304 253 293Q221 282 180 282ZM734 -11Q592 -11 592 93Q592 143 619 172.5Q646 202 682 213Q639 234 639 289Q639 354 682.5 386.5Q726 419 800 419Q929 419 929 323Q929 281 908.5 252.5Q888 224 854 210Q881 200 896.5 180Q912 160 912 127Q912 61 864 25Q816 -11 734 -11ZM773 244Q807 244 828.5 261Q850 278 850 309Q850 330 834.5 341Q819 352 792 352Q757 352 736.5 336Q716 320 716 289Q716 244 773 244ZM743 53Q780 53 804 71Q828 89 828 124Q828 149 810.5 161.5Q793 174 763 174Q725 174 701.5 156Q678 138 678 103Q678 79 695 66Q712 53 743 53ZM757 700 313 0H210L655 700Z" glyph-name="uni215C" horiz-adv-x="986" unicode="&#8540;" /><glyph d="M29 0ZM730 -11Q588 -11 588 93Q588 143 615 172.5Q642 202 678 213Q635 234 635 289Q635 354 678.5 386.5Q722 419 796 419Q925 419 925 323Q925 281 904.5 252.5Q884 224 850 210Q877 200 892.5 180Q908 160 908 127Q908 61 860 25Q812 -11 730 -11ZM769 244Q803 244 824.5 261Q846 278 846 309Q846 330 830.5 341Q815 352 788 352Q753 352 732.5 336Q712 320 712 289Q712 244 769 244ZM739 53Q776 53 800 71Q824 89 824 124Q824 149 806.5 161.5Q789 174 759 174Q721 174 697.5 156Q674 138 674 103Q674 79 691 66Q708 53 739 53ZM178 630 155 539Q174 547 192.5 550.5Q211 554 234 554Q290 554 323.5 529Q357 504 357 445Q357 409 344.5 379.5Q332 350 308.5 328Q285 306 251.5 294Q218 282 175 282Q121 282 84 302Q47 322 29 361L94 405Q107 379 126.5 365.5Q146 352 178 352Q220 352 246 375Q272 398 272 436Q272 465 254 478Q236 491 204 491Q157 491 119 464L70 490L122 701H381L370 630ZM755 700 311 0H208L653 700Z" glyph-name="uni215D" horiz-adv-x="983" unicode="&#8541;" /><glyph d="M74 0ZM659 -11Q517 -11 517 93Q517 143 544 172.5Q571 202 607 213Q564 234 564 289Q564 354 607.5 386.5Q651 419 725 419Q854 419 854 323Q854 281 833.5 252.5Q813 224 779 210Q806 200 821.5 180Q837 160 837 127Q837 61 789 25Q741 -11 659 -11ZM698 244Q732 244 753.5 261Q775 278 775 309Q775 330 759.5 341Q744 352 717 352Q682 352 661.5 336Q641 320 641 289Q641 244 698 244ZM668 53Q705 53 729 71Q753 89 753 124Q753 149 735.5 161.5Q718 174 688 174Q650 174 626.5 156Q603 138 603 103Q603 79 620 66Q637 53 668 53ZM91 293Q98 342 115 389Q132 436 155.5 479Q179 522 208.5 559Q238 596 272 625L74 624L86 700H379L368 635Q295 581 247.5 489.5Q200 398 183 293ZM683 700 239 0H136L581 700Z" glyph-name="uni215E" horiz-adv-x="911" unicode="&#8542;" /><glyph d="M64 0ZM176 293H90L138 599L85 568L64 638L185 704H240ZM647 700 203 0H100L545 700Z" glyph-name="uni215F" horiz-adv-x="852" unicode="&#8543;" /><glyph d="M429 -218Q408 -218 388 -213.5Q368 -209 352.5 -198Q337 -187 327.5 -168Q318 -149 318 -120Q318 -70 343.5 -35.5Q369 -1 404 19L408 84Q374 32 325.5 9.5Q277 -13 224 -13Q140 -13 101 28.5Q62 70 62 142Q62 167 65 188L114 491H226L181 214Q178 190 178 171Q178 80 266 80Q327 80 368.5 120Q410 160 424 241L463 491H575L496 0H490Q467 -2 449 -12.5Q431 -23 418.5 -37.5Q406 -52 399.5 -69.5Q393 -87 393 -103Q393 -128 406.5 -137.5Q420 -147 444 -147Q480 -147 510 -130L521 -194Q479 -218 429 -218Z" glyph-name="uogonek" horiz-adv-x="620" unicode="&#371;" /><glyph d="M62 0ZM356 548Q317 548 291.5 569.5Q266 591 266 631Q266 656 274.5 676.5Q283 697 298.5 712Q314 727 334.5 735Q355 743 379 743Q420 743 444.5 720.5Q469 698 469 660Q469 609 436.5 578.5Q404 548 356 548ZM376 695Q353 695 337 678.5Q321 662 321 635Q321 617 331.5 606Q342 595 359 595Q380 595 397 611.5Q414 628 414 656Q414 674 403.5 684.5Q393 695 376 695ZM224 -13Q140 -13 101 28.5Q62 70 62 142Q62 163 65 187L114 491H225L180 213Q178 201 178 190V170Q178 79 266 79Q327 79 369 120Q411 161 425 241L464 491H575L496 0H403L408 84Q373 33 325 10Q277 -13 224 -13Z" glyph-name="uring" horiz-adv-x="620" unicode="&#367;" /><glyph d="M62 0ZM224 -13Q140 -13 101 28.5Q62 70 62 142Q62 163 65 187L114 491H225L180 213Q178 201 178 190V170Q178 79 266 79Q327 79 369 120Q411 161 425 241L464 491H575L496 0H403L408 84Q373 33 325 10Q277 -13 224 -13ZM462 690H536Q534 659 523.5 638Q513 617 497 604.5Q481 592 462.5 586.5Q444 581 427 581Q406 581 389 587Q372 593 357.5 600.5Q343 608 330 614Q317 620 304 620Q286 620 278.5 609Q271 598 269 584H194Q197 615 207.5 636Q218 657 233 669.5Q248 682 266 687.5Q284 693 302 693Q323 693 340 687Q357 681 372 673.5Q387 666 400.5 660Q414 654 427 654Q444 654 452 665Q460 676 462 690Z" glyph-name="utilde" horiz-adv-x="620" unicode="&#361;" /><glyph d="M39 491H154L230 107L425 491H541L273 0H155Z" glyph-name="v" horiz-adv-x="513" unicode="v" /><glyph d="M355 488H456L505 127L663 491H768L539 0H431L386 363L228 0H120L43 491H149L194 126Z" glyph-name="w" horiz-adv-x="743" unicode="w" /><glyph d="M43 0ZM464 696H594L593 690L459 573H366V577ZM355 488H456L505 127L663 491H768L539 0H431L386 363L228 0H120L43 491H149L194 126Z" glyph-name="wacute" horiz-adv-x="743" unicode="&#7811;" /><glyph d="M43 0ZM426 638 350 573H244V576L383 696H482L583 576V573H480ZM355 488H456L505 127L663 491H768L539 0H431L386 363L228 0H120L43 491H149L194 126Z" glyph-name="wcircumflex" horiz-adv-x="743" unicode="&#373;" /><glyph d="M43 0ZM511 576Q452 576 452 628Q452 666 473 684.5Q494 703 526 703Q586 703 586 650Q586 613 565.5 594.5Q545 576 511 576ZM325 576Q266 576 266 628Q266 667 287.5 685Q309 703 341 703Q400 703 400 651Q400 613 380 594.5Q360 576 325 576ZM355 488H456L505 127L663 491H768L539 0H431L386 363L228 0H120L43 491H149L194 126Z" glyph-name="wdieresis" horiz-adv-x="743" unicode="&#7813;" /><glyph d="M43 0ZM355 488H456L505 127L663 491H768L539 0H431L386 363L228 0H120L43 491H149L194 126ZM378 573 276 690 277 696H407L465 577V573Z" glyph-name="wgrave" horiz-adv-x="743" unicode="&#7809;" /><glyph d="M49 491H169L263 316L410 491H532L315 246L461 0H341L241 178L86 0H-35L190 248Z" glyph-name="x" horiz-adv-x="509" unicode="x" /><glyph d="M135 -56 161 -6 43 491H157L235 105L430 491H546L226 -93Q186 -165 136 -191Q86 -217 25 -217Q1 -217 -18.5 -213.5Q-38 -210 -59 -202L-32 -115Q-16 -121 -2 -124.5Q12 -128 32 -128Q44 -128 57 -125.5Q70 -123 83 -115.5Q96 -108 109.5 -94Q123 -80 135 -56Z" glyph-name="y" horiz-adv-x="521" unicode="y" /><glyph d="M384 10 394 73Q360 29 316.5 11Q273 -7 225 -7Q141 -7 102 34Q63 75 63 147Q63 170 66 193L114 491H225L181 217Q178 196 178 176Q178 84 267 84Q327 84 367.5 126Q408 168 422 247L461 491H572L497 16Q488 -43 463 -87Q438 -131 401 -160Q364 -189 316.5 -203.5Q269 -218 214 -218Q142 -218 90 -193.5Q38 -169 15 -105L91 -49Q108 -95 139 -113.5Q170 -132 219 -132Q284 -132 328 -99Q372 -66 384 10Z" glyph-name="y.school" horiz-adv-x="617" /><glyph d="M0 0ZM135 -56 161 -6 43 491H157L235 105L430 491H546L226 -93Q186 -165 136 -191Q86 -217 25 -217Q1 -217 -18.5 -213.5Q-38 -210 -59 -202L-32 -115Q-16 -121 -2 -124.5Q12 -128 32 -128Q44 -128 57 -125.5Q70 -123 83 -115.5Q96 -108 109.5 -94Q123 -80 135 -56ZM356 696H486L485 690L351 573H258V577Z" glyph-name="yacute" horiz-adv-x="521" unicode="&#253;" /><glyph d="M15 0ZM384 10 394 73Q360 29 316.5 11Q273 -7 225 -7Q141 -7 102 34Q63 75 63 147Q63 170 66 193L114 491H225L181 217Q178 196 178 176Q178 84 267 84Q327 84 367.5 126Q408 168 422 247L461 491H572L497 16Q488 -43 463 -87Q438 -131 401 -160Q364 -189 316.5 -203.5Q269 -218 214 -218Q142 -218 90 -193.5Q38 -169 15 -105L91 -49Q108 -95 139 -113.5Q170 -132 219 -132Q284 -132 328 -99Q372 -66 384 10ZM397 696H527L526 690L392 573H299V577Z" glyph-name="yacute.school" horiz-adv-x="617" /><glyph d="M0 0ZM135 -56 161 -6 43 491H157L235 105L430 491H546L226 -93Q186 -165 136 -191Q86 -217 25 -217Q1 -217 -18.5 -213.5Q-38 -210 -59 -202L-32 -115Q-16 -121 -2 -124.5Q12 -128 32 -128Q44 -128 57 -125.5Q70 -123 83 -115.5Q96 -108 109.5 -94Q123 -80 135 -56ZM318 638 242 573H136V576L275 696H374L475 576V573H372Z" glyph-name="ycircumflex" horiz-adv-x="521" unicode="&#375;" /><glyph d="M15 0ZM359 638 283 573H177V576L316 696H415L516 576V573H413ZM384 10 394 73Q360 29 316.5 11Q273 -7 225 -7Q141 -7 102 34Q63 75 63 147Q63 170 66 193L114 491H225L181 217Q178 196 178 176Q178 84 267 84Q327 84 367.5 126Q408 168 422 247L461 491H572L497 16Q488 -43 463 -87Q438 -131 401 -160Q364 -189 316.5 -203.5Q269 -218 214 -218Q142 -218 90 -193.5Q38 -169 15 -105L91 -49Q108 -95 139 -113.5Q170 -132 219 -132Q284 -132 328 -99Q372 -66 384 10Z" glyph-name="ycircumflex.school" horiz-adv-x="617" /><glyph d="M0 0ZM135 -56 161 -6 43 491H157L235 105L430 491H546L226 -93Q186 -165 136 -191Q86 -217 25 -217Q1 -217 -18.5 -213.5Q-38 -210 -59 -202L-32 -115Q-16 -121 -2 -124.5Q12 -128 32 -128Q44 -128 57 -125.5Q70 -123 83 -115.5Q96 -108 109.5 -94Q123 -80 135 -56ZM403 576Q344 576 344 628Q344 666 365 684.5Q386 703 418 703Q478 703 478 650Q478 613 457.5 594.5Q437 576 403 576ZM217 576Q158 576 158 628Q158 667 179.5 685Q201 703 233 703Q292 703 292 651Q292 613 272 594.5Q252 576 217 576Z" glyph-name="ydieresis" horiz-adv-x="521" unicode="&#255;" /><glyph d="M15 0ZM445 576Q386 576 386 628Q386 666 407 684.5Q428 703 460 703Q520 703 520 650Q520 613 499.5 594.5Q479 576 445 576ZM259 576Q200 576 200 628Q200 667 221.5 685Q243 703 275 703Q334 703 334 651Q334 613 314 594.5Q294 576 259 576ZM384 10 394 73Q360 29 316.5 11Q273 -7 225 -7Q141 -7 102 34Q63 75 63 147Q63 170 66 193L114 491H225L181 217Q178 196 178 176Q178 84 267 84Q327 84 367.5 126Q408 168 422 247L461 491H572L497 16Q488 -43 463 -87Q438 -131 401 -160Q364 -189 316.5 -203.5Q269 -218 214 -218Q142 -218 90 -193.5Q38 -169 15 -105L91 -49Q108 -95 139 -113.5Q170 -132 219 -132Q284 -132 328 -99Q372 -66 384 10Z" glyph-name="ydieresis.school" horiz-adv-x="617" /><glyph d="M560 288 548 215H363L329 0H213L248 215H62L73 288H250L228 340H82L93 413H199L79 700H200L330 370L564 700H687L475 413H580L568 340H422L383 288Z" glyph-name="yen" horiz-adv-x="635" unicode="&#165;" /><glyph d="M-1 0 10 74 342 404H67L81 491H480L468 414L138 86H425L411 0Z" glyph-name="z" horiz-adv-x="487" unicode="z" /><glyph d="M0 0ZM339 696H469L468 690L334 573H241V577ZM-1 0 10 74 342 404H67L81 491H480L468 414L138 86H425L411 0Z" glyph-name="zacute" horiz-adv-x="487" unicode="&#378;" /><glyph d="M0 0ZM246 573 144 694 145 696H249L301 633L377 696H483V694L344 573ZM-1 0 10 74 342 404H67L81 491H480L468 414L138 86H425L411 0Z" glyph-name="zcaron" horiz-adv-x="487" unicode="&#382;" /><glyph d="M0 0ZM-1 0 10 74 342 404H67L81 491H480L468 414L138 86H425L411 0ZM294 576Q234 576 234 629Q234 668 256 685.5Q278 703 310 703Q371 703 371 649Q371 613 349.5 594.5Q328 576 294 576Z" glyph-name="zdotaccent" horiz-adv-x="487" unicode="&#380;" /><glyph d="M47 350Q72 541 151.5 627Q231 713 371 713Q489 713 547.5 652.5Q606 592 606 460Q606 435 604 408Q602 381 598 350Q571 162 490 74.5Q409 -13 270 -13Q153 -13 95.5 46.5Q38 106 38 236Q38 287 47 350ZM499 460Q499 549 464 585Q429 621 364 621Q324 621 291 607.5Q258 594 232 562.5Q206 531 186.5 479Q167 427 155 349Q150 317 147 289Q144 261 144 237Q144 148 178.5 113Q213 78 277 78Q318 78 352 91.5Q386 105 412 136.5Q438 168 457.5 220.5Q477 273 489 351Q494 383 496.5 410Q499 437 499 460Z" glyph-name="zero" horiz-adv-x="625" unicode="0" /><glyph d="M84 350Q97 445 122.5 513.5Q148 582 188.5 626.5Q229 671 285 692Q341 713 414 713Q538 713 596.5 652.5Q655 592 655 461Q655 435 653 408Q651 381 647 350Q620 162 539.5 74.5Q459 -13 313 -13Q191 -13 132.5 46Q74 105 74 235Q74 261 76.5 289.5Q79 318 84 350ZM544 458Q544 548 509 584.5Q474 621 408 621Q367 621 333 607.5Q299 594 273 562.5Q247 531 227.5 479Q208 427 195 349Q190 317 187.5 289.5Q185 262 185 238Q185 148 220 113Q255 78 320 78Q362 78 396 91Q430 104 456.5 135.5Q483 167 502.5 219.5Q522 272 534 351Q539 382 541.5 408.5Q544 435 544 458Z" glyph-name="zero.LP" horiz-adv-x="701" /><glyph d="M59 300Q81 465 156 539Q231 613 356 613Q463 613 519 559Q575 505 575 387Q575 348 569 299Q546 137 470 62Q394 -13 270 -13Q163 -13 107.5 41Q52 95 52 212Q52 232 53.5 253.5Q55 275 59 300ZM468 387Q468 463 437 492.5Q406 522 349 522Q314 522 285 511.5Q256 501 233 475.5Q210 450 194 407Q178 364 168 300Q163 274 161.5 252.5Q160 231 160 212Q160 136 190.5 107Q221 78 278 78Q314 78 343 88.5Q372 99 395 124.5Q418 150 434 193Q450 236 461 300Q465 325 466.5 346.5Q468 368 468 387Z" glyph-name="zero.OP" horiz-adv-x="619" /><glyph d="M44 300Q66 465 145.5 539Q225 613 355 613Q467 613 527 558Q587 503 587 383Q587 363 585.5 342.5Q584 322 580 299Q557 137 477.5 62Q398 -13 268 -13Q156 -13 96.5 41.5Q37 96 37 216Q37 236 38.5 256.5Q40 277 44 300ZM481 381Q481 460 446.5 491Q412 522 348 522Q309 522 277 511.5Q245 501 220 475.5Q195 450 178 407Q161 364 151 300Q147 276 145 255.5Q143 235 143 217Q143 138 178 108Q213 78 276 78Q315 78 347 88.5Q379 99 403.5 124.5Q428 150 445.5 193Q463 236 473 300Q477 323 479 343.5Q481 364 481 381Z" glyph-name="zero.OT" horiz-adv-x="625" /><glyph d="M4 0ZM213 219Q290 219 326.5 182Q363 145 363 67Q363 50 362 36.5Q361 23 358 4Q342 -103 294.5 -157Q247 -211 154 -211Q77 -211 40.5 -174.5Q4 -138 4 -60Q4 -46 5.5 -29.5Q7 -13 9 4Q25 116 74.5 167.5Q124 219 213 219ZM206 147Q185 147 168 140Q151 133 137 116Q123 99 113 71.5Q103 44 96 3L92 -29Q90 -45 90 -56Q90 -104 108.5 -121.5Q127 -139 160 -139Q181 -139 199 -132Q217 -125 231 -108.5Q245 -92 255 -64.5Q265 -37 272 4Q274 21 276 36Q278 51 278 63Q278 110 259 128.5Q240 147 206 147Z" glyph-name="zero.inf" horiz-adv-x="433" /><glyph glyph-name="zerowidthspace" horiz-adv-x="0" unicode="&#8203;" /></font>
</defs>
</svg>
