<?xml version="1.0" standalone="no"?><!DOCTYPE svg PUBLIC "-//W3C//DTD SVG 1.1//EN" "http://www.w3.org/Graphics/SVG/1.1/DTD/svg11.dtd" ><svg version="1.1" xmlns="http://www.w3.org/2000/svg"><defs><font horiz-adv-x="0" id="font"><font-face ascent="957" bbox="-78 -291 1076 947" cap-height="700" descent="-220" font-family="Honeywell Cond Web" font-stretch="condensed" font-style="normal" font-weight="500" units-per-em="1000" x-height="487" /><missing-glyph d="M85 0V700H605V0ZM314 348 141 627V69ZM376 348 549 70V626ZM188 645 345 389 503 645ZM344 307 189 54H500Z" horiz-adv-x="689" /><glyph d="M0 0Z" glyph-name=".ttfautohint" horiz-adv-x="286" /><glyph d="M241 608 144 217H338ZM391 0 355 145H129L92 0H9L192 700H293L475 0Z" glyph-name="A" horiz-adv-x="485" unicode="A" /><glyph d="M244 624 145 217H337ZM386 0 353 145H128L91 0H8L196 700H679V629H322L378 390H641V315H394L451 72H687V0Z" glyph-name="AE" horiz-adv-x="720" unicode="&#198;" /><glyph d="M9 0ZM241 608 144 217H338ZM391 0 355 145H129L92 0H9L192 700H293L475 0ZM359 896 270 787H206V791L265 902H359Z" glyph-name="Aacute" horiz-adv-x="485" unicode="&#193;" /><glyph d="M9 0ZM241 608 144 217H338ZM391 0 355 145H129L92 0H9L192 700H293L475 0ZM299 902H354Q354 833 324.5 807Q295 781 242 781Q188 781 159 807Q130 833 130 902H184Q184 864 198.5 849.5Q213 835 241 835Q270 835 284.5 849.5Q299 864 299 902Z" glyph-name="Abreve" horiz-adv-x="485" unicode="&#258;" /><glyph d="M9 0ZM241 608 144 217H338ZM391 0 355 145H129L92 0H9L192 700H293L475 0ZM241 857 191 787H115V790L207 902H278L371 790V787H292Z" glyph-name="Acircumflex" horiz-adv-x="485" unicode="&#194;" /><glyph d="M9 0ZM241 608 144 217H338ZM391 0 355 145H129L92 0H9L192 700H293L475 0ZM266 850Q266 904 315 904Q365 904 365 850Q365 795 315 795Q266 795 266 850ZM126 850Q126 876 139 890Q152 904 175 904Q226 904 226 850Q226 795 175 795Q152 795 139 809.5Q126 824 126 850Z" glyph-name="Adieresis" horiz-adv-x="485" unicode="&#196;" /><glyph d="M9 0ZM241 608 144 217H338ZM391 0 355 145H129L92 0H9L192 700H293L475 0ZM217 789 127 898V904H223L281 793V789Z" glyph-name="Agrave" horiz-adv-x="485" unicode="&#192;" /><glyph d="M9 0ZM241 608 144 217H338ZM391 0 355 145H129L92 0H9L192 700H293L475 0ZM341 872V814H144V872Z" glyph-name="Amacron" horiz-adv-x="485" unicode="&#256;" /><glyph d="M478 -184Q460 -198 442 -204.5Q424 -211 401 -211Q383 -211 365 -206Q347 -201 333.5 -189Q320 -177 311.5 -157Q303 -137 303 -106Q303 -53 328 -20Q353 13 385 27L355 145H129L92 0H9L192 700H293L475 0H432Q414 -2 399.5 -11Q385 -20 375.5 -33.5Q366 -47 361 -63.5Q356 -80 356 -96Q356 -128 371.5 -140Q387 -152 407 -152Q433 -152 453 -135ZM241 608 144 217H338Z" glyph-name="Aogonek" horiz-adv-x="485" unicode="&#260;" /><glyph d="M9 0ZM241 608 144 217H338ZM391 0 355 145H129L92 0H9L192 700H293L475 0ZM159 855Q159 898 182.5 922Q206 946 243 946Q278 946 301 922Q324 898 324 855Q324 813 301 788.5Q278 764 242 764Q206 764 182.5 788.5Q159 813 159 855ZM201 855Q201 832 212 817Q223 802 242 802Q259 802 271 817Q283 832 283 855Q283 879 271.5 893Q260 907 243 907Q223 907 212 893Q201 879 201 855Z" glyph-name="Aring" horiz-adv-x="485" unicode="&#197;" /><glyph d="M9 0ZM241 608 144 217H338ZM391 0 355 145H129L92 0H9L192 700H293L475 0ZM310 896H364Q366 867 360 848Q354 829 344 817.5Q334 806 321 801Q308 796 295 796Q279 796 265 802.5Q251 809 239 816.5Q227 824 216.5 830.5Q206 837 196 837Q182 837 178 826Q174 815 174 800H119Q118 828 123.5 847.5Q129 867 139 878Q149 889 161.5 894Q174 899 186 899Q203 899 217.5 892.5Q232 886 244 878.5Q256 871 266.5 864.5Q277 858 288 858Q302 858 306 869Q310 880 310 896Z" glyph-name="Atilde" horiz-adv-x="485" unicode="&#195;" /><glyph d="M81 0V700H283Q332 700 367 687Q402 674 424 650Q446 626 456 593Q466 560 466 520Q466 461 443.5 422Q421 383 381 363Q406 356 425 340Q444 324 456 302Q468 280 474 253.5Q480 227 480 200Q480 101 429.5 50.5Q379 0 276 0ZM280 629H160V395H278Q306 395 326.5 404.5Q347 414 360.5 430Q374 446 380.5 467Q387 488 387 512Q387 569 357.5 599Q328 629 280 629ZM281 320H160V71H278Q340 71 370 102.5Q400 134 400 201Q400 256 371 288Q342 320 281 320Z" glyph-name="B" horiz-adv-x="525" unicode="B" /><glyph d="M296 -12Q236 -12 191 8Q146 28 116 71.5Q86 115 71 184Q56 253 56 351Q56 449 71 517.5Q86 586 116 629.5Q146 673 191.5 692.5Q237 712 297 712Q334 712 367 704Q400 696 426.5 676.5Q453 657 472.5 624.5Q492 592 504 543L431 512Q414 585 379.5 612.5Q345 640 296 640Q258 640 229 627Q200 614 179.5 581Q159 548 148.5 492.5Q138 437 138 352Q138 266 148.5 209.5Q159 153 179.5 119.5Q200 86 230 72Q260 58 298 58Q348 58 384 86.5Q420 115 442 189L511 157Q486 67 428.5 27.5Q371 -12 296 -12Z" glyph-name="C" horiz-adv-x="530" unicode="C" /><glyph glyph-name="CR" horiz-adv-x="132" unicode="" /><glyph d="M56 0ZM296 -12Q236 -12 191 8Q146 28 116 71.5Q86 115 71 184Q56 253 56 351Q56 449 71 517.5Q86 586 116 629.5Q146 673 191.5 692.5Q237 712 297 712Q334 712 367 704Q400 696 426.5 676.5Q453 657 472.5 624.5Q492 592 504 543L431 512Q414 585 379.5 612.5Q345 640 296 640Q258 640 229 627Q200 614 179.5 581Q159 548 148.5 492.5Q138 437 138 352Q138 266 148.5 209.5Q159 153 179.5 119.5Q200 86 230 72Q260 58 298 58Q348 58 384 86.5Q420 115 442 189L511 157Q486 67 428.5 27.5Q371 -12 296 -12ZM410 897 321 788H257V792L316 903H410Z" glyph-name="Cacute" horiz-adv-x="530" unicode="&#262;" /><glyph d="M56 0ZM296 -12Q236 -12 191 8Q146 28 116 71.5Q86 115 71 184Q56 253 56 351Q56 449 71 517.5Q86 586 116 629.5Q146 673 191.5 692.5Q237 712 297 712Q334 712 367 704Q400 696 426.5 676.5Q453 657 472.5 624.5Q492 592 504 543L431 512Q414 585 379.5 612.5Q345 640 296 640Q258 640 229 627Q200 614 179.5 581Q159 548 148.5 492.5Q138 437 138 352Q138 266 148.5 209.5Q159 153 179.5 119.5Q200 86 230 72Q260 58 298 58Q348 58 384 86.5Q420 115 442 189L511 157Q486 67 428.5 27.5Q371 -12 296 -12ZM294 836 347 903H423V901L329 788H258L167 901V903H245Z" glyph-name="Ccaron" horiz-adv-x="530" unicode="&#268;" /><glyph d="M284 -235Q254 -235 227.5 -221.5Q201 -208 184 -173L229 -143Q248 -186 284 -186Q302 -186 313.5 -174.5Q325 -163 325 -145Q325 -127 314 -115Q303 -103 286 -103Q281 -103 277.5 -103.5Q274 -104 269 -105L255 -90L270 -11Q217 -7 177 15.5Q137 38 110 82Q83 126 69.5 192.5Q56 259 56 351Q56 449 71 517.5Q86 586 116 629.5Q146 673 191.5 692.5Q237 712 297 712Q334 712 367 704Q400 696 426.5 676.5Q453 657 472.5 624.5Q492 592 504 543L431 512Q414 585 379.5 612.5Q345 640 296 640Q258 640 229 627Q200 614 179.5 581Q159 548 148.5 492.5Q138 437 138 352Q138 266 148.5 209.5Q159 153 179.5 119.5Q200 86 230 72Q260 58 298 58Q348 58 384 86.5Q420 115 442 189L511 157Q488 75 437.5 35Q387 -5 320 -11L309 -62H312Q339 -62 360 -82.5Q381 -103 381 -143Q381 -191 353 -213Q325 -235 284 -235Z" glyph-name="Ccedilla" horiz-adv-x="530" unicode="&#199;" /><glyph d="M56 0ZM296 -12Q236 -12 191 8Q146 28 116 71.5Q86 115 71 184Q56 253 56 351Q56 449 71 517.5Q86 586 116 629.5Q146 673 191.5 692.5Q237 712 297 712Q334 712 367 704Q400 696 426.5 676.5Q453 657 472.5 624.5Q492 592 504 543L431 512Q414 585 379.5 612.5Q345 640 296 640Q258 640 229 627Q200 614 179.5 581Q159 548 148.5 492.5Q138 437 138 352Q138 266 148.5 209.5Q159 153 179.5 119.5Q200 86 230 72Q260 58 298 58Q348 58 384 86.5Q420 115 442 189L511 157Q486 67 428.5 27.5Q371 -12 296 -12ZM292 858 242 788H166V791L258 903H329L422 791V788H343Z" glyph-name="Ccircumflex" horiz-adv-x="530" unicode="&#264;" /><glyph d="M56 0ZM296 -12Q236 -12 191 8Q146 28 116 71.5Q86 115 71 184Q56 253 56 351Q56 449 71 517.5Q86 586 116 629.5Q146 673 191.5 692.5Q237 712 297 712Q334 712 367 704Q400 696 426.5 676.5Q453 657 472.5 624.5Q492 592 504 543L431 512Q414 585 379.5 612.5Q345 640 296 640Q258 640 229 627Q200 614 179.5 581Q159 548 148.5 492.5Q138 437 138 352Q138 266 148.5 209.5Q159 153 179.5 119.5Q200 86 230 72Q260 58 298 58Q348 58 384 86.5Q420 115 442 189L511 157Q486 67 428.5 27.5Q371 -12 296 -12ZM242 850Q242 876 255.5 890Q269 904 293 904Q343 904 343 850Q343 795 293 795Q269 795 255.5 809.5Q242 824 242 850Z" glyph-name="Cdotaccent" horiz-adv-x="530" unicode="&#266;" /><glyph d="M264 0H81V700H266Q392 700 454.5 617.5Q517 535 517 354Q517 173 453.5 86.5Q390 0 264 0ZM260 72Q300 72 332 86Q364 100 387 132Q410 164 422.5 217.5Q435 271 435 351Q435 429 423.5 482Q412 535 390.5 567.5Q369 600 338 614.5Q307 629 267 629H163V72Z" glyph-name="D" horiz-adv-x="573" unicode="D" /><glyph d="M81 0ZM264 0H81V700H266Q392 700 454.5 617.5Q517 535 517 354Q517 173 453.5 86.5Q390 0 264 0ZM260 72Q300 72 332 86Q364 100 387 132Q410 164 422.5 217.5Q435 271 435 351Q435 429 423.5 482Q412 535 390.5 567.5Q369 600 338 614.5Q307 629 267 629H163V72ZM294 835 347 902H423V900L329 787H258L167 900V902H245Z" glyph-name="Dcaron" horiz-adv-x="573" unicode="&#270;" /><glyph d="M277 0H95V325H36V393H95V700H279Q406 700 468.5 617.5Q531 535 531 354Q531 173 467.5 86.5Q404 0 277 0ZM177 72H274Q314 72 346 86Q378 100 401 132Q424 164 436.5 217.5Q449 271 449 351Q449 429 437.5 482Q426 535 404.5 567.5Q383 600 351.5 614.5Q320 629 280 629H177V393H288V325H177Z" glyph-name="Dcroat" horiz-adv-x="587" unicode="&#272;" /><glyph d="M81 0V700H473V628H161V386H428V311H161V71H466V0Z" glyph-name="E" horiz-adv-x="507" unicode="E" /><glyph d="M81 0ZM81 0V700H473V628H161V386H428V311H161V71H466V0ZM397 896 308 787H244V791L303 902H397Z" glyph-name="Eacute" horiz-adv-x="507" unicode="&#201;" /><glyph d="M81 0ZM81 0V700H473V628H161V386H428V311H161V71H466V0ZM337 902H392Q392 833 362.5 807Q333 781 280 781Q226 781 197 807Q168 833 168 902H222Q222 864 236.5 849.5Q251 835 279 835Q308 835 322.5 849.5Q337 864 337 902Z" glyph-name="Ebreve" horiz-adv-x="507" unicode="&#276;" /><glyph d="M81 0ZM81 0V700H473V628H161V386H428V311H161V71H466V0ZM281 835 334 902H410V900L316 787H245L154 900V902H232Z" glyph-name="Ecaron" horiz-adv-x="507" unicode="&#282;" /><glyph d="M81 0ZM81 0V700H473V628H161V386H428V311H161V71H466V0ZM279 857 229 787H153V790L245 902H316L409 790V787H330Z" glyph-name="Ecircumflex" horiz-adv-x="507" unicode="&#202;" /><glyph d="M81 0ZM81 0V700H473V628H161V386H428V311H161V71H466V0ZM304 850Q304 904 353 904Q403 904 403 850Q403 795 353 795Q304 795 304 850ZM164 850Q164 876 177 890Q190 904 213 904Q264 904 264 850Q264 795 213 795Q190 795 177 809.5Q164 824 164 850Z" glyph-name="Edieresis" horiz-adv-x="507" unicode="&#203;" /><glyph d="M81 0ZM81 0V700H473V628H161V386H428V311H161V71H466V0ZM229 849Q229 875 242.5 889Q256 903 280 903Q330 903 330 849Q330 794 280 794Q256 794 242.5 808.5Q229 823 229 849Z" glyph-name="Edotaccent" horiz-adv-x="507" unicode="&#278;" /><glyph d="M81 0ZM81 0V700H473V628H161V386H428V311H161V71H466V0ZM255 789 165 898V904H261L319 793V789Z" glyph-name="Egrave" horiz-adv-x="507" unicode="&#200;" /><glyph d="M81 0ZM81 0V700H473V628H161V386H428V311H161V71H466V0ZM379 872V814H182V872Z" glyph-name="Emacron" horiz-adv-x="507" unicode="&#274;" /><glyph d="M436 -44V2L154 547L156 0H81V700H160L444 153L440 700H515V-54Q515 -138 481.5 -176.5Q448 -215 392 -215Q375 -215 357.5 -212.5Q340 -210 320 -202L340 -129Q351 -134 360 -137Q369 -140 383 -140Q408 -140 422 -120Q436 -100 436 -44Z" glyph-name="Eng" horiz-adv-x="596" unicode="&#330;" /><glyph d="M471 -184Q453 -198 435 -204.5Q417 -211 394 -211Q376 -211 358 -206Q340 -201 326.5 -189Q313 -177 304.5 -157Q296 -137 296 -106Q296 -71 307.5 -44.5Q319 -18 337 0H81V700H473V628H161V386H428V311H161V71H466V0H426Q407 -2 393 -11Q379 -20 369.5 -33.5Q360 -47 355 -63.5Q350 -80 350 -96Q350 -128 365 -140Q380 -152 400 -152Q426 -152 446 -135Z" glyph-name="Eogonek" horiz-adv-x="507" unicode="&#280;" /><glyph d="M277 0H95V325H36V393H95V700H279Q406 700 468.5 617.5Q531 535 531 354Q531 173 467.5 86.5Q404 0 277 0ZM177 72H274Q314 72 346 86Q378 100 401 132Q424 164 436.5 217.5Q449 271 449 351Q449 429 437.5 482Q426 535 404.5 567.5Q383 600 351.5 614.5Q320 629 280 629H177V393H288V325H177Z" glyph-name="Eth" horiz-adv-x="587" unicode="&#208;" /><glyph d="M503 153Q478 64 424.5 26Q371 -12 292 -12Q195 -12 140.5 49Q86 110 71 243H5V309H67Q65 323 65.5 340Q66 357 66 366H5V431H68Q80 578 139 645Q198 712 300 712Q337 712 368 704Q399 696 424 676.5Q449 657 467.5 624Q486 591 498 542L425 514Q408 587 375.5 615Q343 643 295 643Q265 643 240 632.5Q215 622 196.5 597Q178 572 166 531.5Q154 491 150 431H371L358 366H147V341Q147 324 148 309H348L334 243H153Q165 140 201 98Q237 56 294 56Q342 56 379 86Q416 116 431 186Z" glyph-name="Euro" horiz-adv-x="521" unicode="&#8364;" /><glyph d="M81 0V700H453V627H163V387H422V312H163V0Z" glyph-name="F" horiz-adv-x="467" unicode="F" /><glyph d="M283 -12Q173 -12 114.5 75.5Q56 163 56 351Q56 449 71 517.5Q86 586 116.5 629.5Q147 673 192.5 692.5Q238 712 298 712Q335 712 368 703.5Q401 695 427 675.5Q453 656 472.5 624Q492 592 504 544L433 513Q422 550 409 575Q396 600 379 614Q362 628 342 634Q322 640 298 640Q259 640 229.5 627Q200 614 179.5 581.5Q159 549 148.5 493Q138 437 138 351Q138 267 148.5 210Q159 153 179 119Q199 85 228.5 70.5Q258 56 296 56Q320 56 343.5 65.5Q367 75 385.5 98Q404 121 416.5 160Q429 199 430 258V283H298V350H507V0H449L439 94Q418 43 376 15.5Q334 -12 283 -12Z" glyph-name="G" horiz-adv-x="562" unicode="G" /><glyph d="M299 283V350H508V290Q508 134 451.5 61Q395 -12 296 -12Q177 -12 116.5 75.5Q56 163 56 351Q56 449 71 517.5Q86 586 116.5 629.5Q147 673 192.5 692.5Q238 712 298 712Q335 712 367 703.5Q399 695 425 675.5Q451 656 471 624Q491 592 503 544L432 513Q421 550 407.5 575Q394 600 377.5 614Q361 628 341 634Q321 640 297 640Q259 640 229 627Q199 614 179 581.5Q159 549 148.5 493Q138 437 138 351Q138 267 148.5 210Q159 153 179 118.5Q199 84 228.5 69.5Q258 55 296 55Q326 55 351 67Q376 79 394 106Q412 133 421.5 176.5Q431 220 431 283Z" glyph-name="G.alt" horiz-adv-x="562" /><glyph d="M56 0ZM283 -12Q173 -12 114.5 75.5Q56 163 56 351Q56 449 71 517.5Q86 586 116.5 629.5Q147 673 192.5 692.5Q238 712 298 712Q335 712 368 703.5Q401 695 427 675.5Q453 656 472.5 624Q492 592 504 544L433 513Q422 550 409 575Q396 600 379 614Q362 628 342 634Q322 640 298 640Q259 640 229.5 627Q200 614 179.5 581.5Q159 549 148.5 493Q138 437 138 351Q138 267 148.5 210Q159 153 179 119Q199 85 228.5 70.5Q258 56 296 56Q320 56 343.5 65.5Q367 75 385.5 98Q404 121 416.5 160Q429 199 430 258V283H298V350H507V0H449L439 94Q418 43 376 15.5Q334 -12 283 -12ZM351 903H406Q406 834 376.5 808Q347 782 294 782Q240 782 211 808Q182 834 182 903H236Q236 865 250.5 850.5Q265 836 293 836Q322 836 336.5 850.5Q351 865 351 903Z" glyph-name="Gbreve" horiz-adv-x="562" unicode="&#286;" /><glyph d="M56 0ZM299 283V350H508V290Q508 134 451.5 61Q395 -12 296 -12Q177 -12 116.5 75.5Q56 163 56 351Q56 449 71 517.5Q86 586 116.5 629.5Q147 673 192.5 692.5Q238 712 298 712Q335 712 367 703.5Q399 695 425 675.5Q451 656 471 624Q491 592 503 544L432 513Q421 550 407.5 575Q394 600 377.5 614Q361 628 341 634Q321 640 297 640Q259 640 229 627Q199 614 179 581.5Q159 549 148.5 493Q138 437 138 351Q138 267 148.5 210Q159 153 179 118.5Q199 84 228.5 69.5Q258 55 296 55Q326 55 351 67Q376 79 394 106Q412 133 421.5 176.5Q431 220 431 283ZM351 903H406Q406 834 376.5 808Q347 782 294 782Q240 782 211 808Q182 834 182 903H236Q236 865 250.5 850.5Q265 836 293 836Q322 836 336.5 850.5Q351 865 351 903Z" glyph-name="Gbreve.alt" horiz-adv-x="563" /><glyph d="M56 0ZM283 -12Q173 -12 114.5 75.5Q56 163 56 351Q56 449 71 517.5Q86 586 116.5 629.5Q147 673 192.5 692.5Q238 712 298 712Q335 712 368 703.5Q401 695 427 675.5Q453 656 472.5 624Q492 592 504 544L433 513Q422 550 409 575Q396 600 379 614Q362 628 342 634Q322 640 298 640Q259 640 229.5 627Q200 614 179.5 581.5Q159 549 148.5 493Q138 437 138 351Q138 267 148.5 210Q159 153 179 119Q199 85 228.5 70.5Q258 56 296 56Q320 56 343.5 65.5Q367 75 385.5 98Q404 121 416.5 160Q429 199 430 258V283H298V350H507V0H449L439 94Q418 43 376 15.5Q334 -12 283 -12ZM293 858 243 788H167V791L259 903H330L423 791V788H344Z" glyph-name="Gcircumflex" horiz-adv-x="562" unicode="&#284;" /><glyph d="M56 0ZM299 283V350H508V290Q508 134 451.5 61Q395 -12 296 -12Q177 -12 116.5 75.5Q56 163 56 351Q56 449 71 517.5Q86 586 116.5 629.5Q147 673 192.5 692.5Q238 712 298 712Q335 712 367 703.5Q399 695 425 675.5Q451 656 471 624Q491 592 503 544L432 513Q421 550 407.5 575Q394 600 377.5 614Q361 628 341 634Q321 640 297 640Q259 640 229 627Q199 614 179 581.5Q159 549 148.5 493Q138 437 138 351Q138 267 148.5 210Q159 153 179 118.5Q199 84 228.5 69.5Q258 55 296 55Q326 55 351 67Q376 79 394 106Q412 133 421.5 176.5Q431 220 431 283ZM293 858 243 788H167V791L259 903H330L423 791V788H344Z" glyph-name="Gcircumflex.alt" horiz-adv-x="563" /><glyph d="M56 0ZM283 -12Q173 -12 114.5 75.5Q56 163 56 351Q56 449 71 517.5Q86 586 116.5 629.5Q147 673 192.5 692.5Q238 712 298 712Q335 712 368 703.5Q401 695 427 675.5Q453 656 472.5 624Q492 592 504 544L433 513Q422 550 409 575Q396 600 379 614Q362 628 342 634Q322 640 298 640Q259 640 229.5 627Q200 614 179.5 581.5Q159 549 148.5 493Q138 437 138 351Q138 267 148.5 210Q159 153 179 119Q199 85 228.5 70.5Q258 56 296 56Q320 56 343.5 65.5Q367 75 385.5 98Q404 121 416.5 160Q429 199 430 258V283H298V350H507V0H449L439 94Q418 43 376 15.5Q334 -12 283 -12ZM336 -132Q336 -187 313.5 -227Q291 -267 251 -286L227 -253Q252 -239 269 -216Q286 -193 287 -164Q266 -167 251 -154.5Q236 -142 236 -115Q236 -90 249.5 -77.5Q263 -65 286 -65Q336 -65 336 -132Z" glyph-name="Gcommaaccent" horiz-adv-x="562" unicode="&#290;" /><glyph d="M56 0ZM299 283V350H508V290Q508 134 451.5 61Q395 -12 296 -12Q177 -12 116.5 75.5Q56 163 56 351Q56 449 71 517.5Q86 586 116.5 629.5Q147 673 192.5 692.5Q238 712 298 712Q335 712 367 703.5Q399 695 425 675.5Q451 656 471 624Q491 592 503 544L432 513Q421 550 407.5 575Q394 600 377.5 614Q361 628 341 634Q321 640 297 640Q259 640 229 627Q199 614 179 581.5Q159 549 148.5 493Q138 437 138 351Q138 267 148.5 210Q159 153 179 118.5Q199 84 228.5 69.5Q258 55 296 55Q326 55 351 67Q376 79 394 106Q412 133 421.5 176.5Q431 220 431 283ZM346 -132Q346 -187 323.5 -227Q301 -267 261 -286L237 -253Q262 -239 279 -216Q296 -193 297 -164Q276 -167 261 -154.5Q246 -142 246 -115Q246 -90 259.5 -77.5Q273 -65 296 -65Q346 -65 346 -132Z" glyph-name="Gcommaaccent.alt" horiz-adv-x="562" /><glyph d="M56 0ZM283 -12Q173 -12 114.5 75.5Q56 163 56 351Q56 449 71 517.5Q86 586 116.5 629.5Q147 673 192.5 692.5Q238 712 298 712Q335 712 368 703.5Q401 695 427 675.5Q453 656 472.5 624Q492 592 504 544L433 513Q422 550 409 575Q396 600 379 614Q362 628 342 634Q322 640 298 640Q259 640 229.5 627Q200 614 179.5 581.5Q159 549 148.5 493Q138 437 138 351Q138 267 148.5 210Q159 153 179 119Q199 85 228.5 70.5Q258 56 296 56Q320 56 343.5 65.5Q367 75 385.5 98Q404 121 416.5 160Q429 199 430 258V283H298V350H507V0H449L439 94Q418 43 376 15.5Q334 -12 283 -12ZM243 850Q243 876 256.5 890Q270 904 294 904Q344 904 344 850Q344 795 294 795Q270 795 256.5 809.5Q243 824 243 850Z" glyph-name="Gdotaccent" horiz-adv-x="562" unicode="&#288;" /><glyph d="M56 0ZM299 283V350H508V290Q508 134 451.5 61Q395 -12 296 -12Q177 -12 116.5 75.5Q56 163 56 351Q56 449 71 517.5Q86 586 116.5 629.5Q147 673 192.5 692.5Q238 712 298 712Q335 712 367 703.5Q399 695 425 675.5Q451 656 471 624Q491 592 503 544L432 513Q421 550 407.5 575Q394 600 377.5 614Q361 628 341 634Q321 640 297 640Q259 640 229 627Q199 614 179 581.5Q159 549 148.5 493Q138 437 138 351Q138 267 148.5 210Q159 153 179 118.5Q199 84 228.5 69.5Q258 55 296 55Q326 55 351 67Q376 79 394 106Q412 133 421.5 176.5Q431 220 431 283ZM243 850Q243 876 256.5 890Q270 904 294 904Q344 904 344 850Q344 795 294 795Q270 795 256.5 809.5Q243 824 243 850Z" glyph-name="Gdotaccent.alt" horiz-adv-x="563" /><glyph d="M441 0V315H163V0H81V700H163V389H441V700H523V0Z" glyph-name="H" horiz-adv-x="604" unicode="H" /><glyph d="M171 389H449V491H171ZM449 0V315H171V0H89V491H36V549H89V700H171V549H449V700H531V549H583V491H531V0Z" glyph-name="Hbar" horiz-adv-x="618" unicode="&#294;" /><glyph d="M81 0ZM441 0V315H163V0H81V700H163V389H441V700H523V0ZM302 858 252 788H176V791L268 903H339L432 791V788H353Z" glyph-name="Hcircumflex" horiz-adv-x="604" unicode="&#292;" /><glyph d="M81 0V700H163V0Z" glyph-name="I" horiz-adv-x="245" unicode="I" /><glyph d="M81 0ZM81 0V700H163V0ZM569 245Q569 172 555 122.5Q541 73 515.5 43Q490 13 455 0.5Q420 -12 379 -12Q344 -12 308.5 -0.5Q273 11 244 37L289 100Q308 80 332.5 70.5Q357 61 382 61Q429 61 458 100.5Q487 140 487 234V700H569Z" glyph-name="IJ" horiz-adv-x="636" unicode="&#306;" /><glyph d="M81 0ZM81 0V700H163V0ZM240 896 151 787H87V791L146 902H240Z" glyph-name="Iacute" horiz-adv-x="245" unicode="&#205;" /><glyph d="M11 0ZM81 0V700H163V0ZM180 902H235Q235 833 205.5 807Q176 781 123 781Q69 781 40 807Q11 833 11 902H65Q65 864 79.5 849.5Q94 835 122 835Q151 835 165.5 849.5Q180 864 180 902Z" glyph-name="Ibreve" horiz-adv-x="245" unicode="&#300;" /><glyph d="M0 0ZM81 0V700H163V0ZM122 857 72 787H-4V790L88 902H159L252 790V787H173Z" glyph-name="Icircumflex" horiz-adv-x="245" unicode="&#206;" /><glyph d="M7 0ZM81 0V700H163V0ZM147 850Q147 904 196 904Q246 904 246 850Q246 795 196 795Q147 795 147 850ZM7 850Q7 876 20 890Q33 904 56 904Q107 904 107 850Q107 795 56 795Q33 795 20 809.5Q7 824 7 850Z" glyph-name="Idieresis" horiz-adv-x="245" unicode="&#207;" /><glyph d="M72 0ZM81 0V700H163V0ZM72 849Q72 875 85.5 889Q99 903 123 903Q173 903 173 849Q173 794 123 794Q99 794 85.5 808.5Q72 823 72 849Z" glyph-name="Idotaccent" horiz-adv-x="245" unicode="&#304;" /><glyph d="M8 0ZM81 0V700H163V0ZM98 789 8 898V904H104L162 793V789Z" glyph-name="Igrave" horiz-adv-x="245" unicode="&#204;" /><glyph d="M25 0ZM81 0V700H163V0ZM222 872V814H25V872Z" glyph-name="Imacron" horiz-adv-x="245" unicode="&#298;" /><glyph d="M180 -184Q162 -198 143.5 -204.5Q125 -211 102 -211Q84 -211 66.5 -206Q49 -201 35 -189Q21 -177 12.5 -157Q4 -137 4 -106Q4 -55 27 -22Q50 11 81 25V700H163V0H134Q115 -2 101 -11Q87 -20 77.5 -33.5Q68 -47 63 -63.5Q58 -80 58 -96Q58 -128 73 -140Q88 -152 108 -152Q134 -152 154 -135Z" glyph-name="Iogonek" horiz-adv-x="244" unicode="&#302;" /><glyph d="M0 0ZM81 0V700H163V0ZM191 896H245Q247 867 241 848Q235 829 225 817.5Q215 806 202 801Q189 796 176 796Q160 796 146 802.5Q132 809 120 816.5Q108 824 97.5 830.5Q87 837 77 837Q63 837 59 826Q55 815 55 800H0Q-1 828 4.5 847.5Q10 867 20 878Q30 889 42.5 894Q55 899 67 899Q84 899 98.5 892.5Q113 886 125 878.5Q137 871 147.5 864.5Q158 858 169 858Q183 858 187 869Q191 880 191 896Z" glyph-name="Itilde" horiz-adv-x="245" unicode="&#296;" /><glyph d="M326 245Q326 172 312 122.5Q298 73 272.5 43Q247 13 212 0.5Q177 -12 136 -12Q101 -12 65.5 -0.5Q30 11 1 37L46 100Q65 80 89.5 70.5Q114 61 139 61Q186 61 215 100.5Q244 140 244 234V700H326Z" glyph-name="J" horiz-adv-x="393" unicode="J" /><glyph d="M1 0ZM326 245Q326 172 312 122.5Q298 73 272.5 43Q247 13 212 0.5Q177 -12 136 -12Q101 -12 65.5 -0.5Q30 11 1 37L46 100Q65 80 89.5 70.5Q114 61 139 61Q186 61 215 100.5Q244 140 244 234V700H326ZM284 857 234 787H158V790L250 902H321L414 790V787H335Z" glyph-name="Jcircumflex" horiz-adv-x="393" unicode="&#308;" /><glyph d="M163 201V0H81V700H163L161 323L399 700H488L289 394L501 0H409L240 315Z" glyph-name="K" horiz-adv-x="504" unicode="K" /><glyph d="M81 0V700H165V0ZM398 0 184 340V346L395 700H484L272 353L496 0Z" glyph-name="K.alt" horiz-adv-x="502" /><glyph d="M81 0ZM163 201V0H81V700H163L161 323L399 700H488L289 394L501 0H409L240 315ZM322 -132Q322 -187 299.5 -227Q277 -267 237 -286L213 -253Q238 -239 255 -216Q272 -193 273 -164Q252 -167 237 -154.5Q222 -142 222 -115Q222 -90 235.5 -77.5Q249 -65 272 -65Q322 -65 322 -132Z" glyph-name="Kcommaaccent" horiz-adv-x="504" unicode="&#310;" /><glyph d="M81 0ZM320 -132Q320 -187 297.5 -227Q275 -267 235 -286L211 -253Q236 -239 253 -216Q270 -193 271 -164Q250 -167 235 -154.5Q220 -142 220 -115Q220 -90 233.5 -77.5Q247 -65 270 -65Q320 -65 320 -132ZM81 0V700H165V0ZM398 0 184 340V346L395 700H484L272 353L496 0Z" glyph-name="Kcommaaccent.alt" horiz-adv-x="501" /><glyph d="M163 73H459V0H81V700H163Z" glyph-name="L" horiz-adv-x="481" unicode="L" /><glyph d="M81 0ZM163 73H459V0H81V700H163ZM238 896 149 787H85V791L144 902H238Z" glyph-name="Lacute" horiz-adv-x="481" unicode="&#313;" /><glyph d="M81 0ZM353 483H299L304 701H375ZM163 73H459V0H81V700H163Z" glyph-name="Lcaron" horiz-adv-x="481" unicode="&#317;" /><glyph d="M81 0ZM163 73H459V0H81V700H163ZM319 -132Q319 -187 296.5 -227Q274 -267 234 -286L210 -253Q235 -239 252 -216Q269 -193 270 -164Q249 -167 234 -154.5Q219 -142 219 -115Q219 -90 232.5 -77.5Q246 -65 269 -65Q319 -65 319 -132Z" glyph-name="Lcommaaccent" horiz-adv-x="481" unicode="&#315;" /><glyph d="M81 0ZM163 73H459V0H81V700H163ZM299 359Q299 385 312.5 399Q326 413 350 413Q400 413 400 359Q400 304 350 304Q326 304 312.5 318.5Q299 333 299 359Z" glyph-name="Ldot" horiz-adv-x="481" unicode="&#319;" /><glyph d="M473 0H95V254L20 186V265L95 331V700H177V386L308 499V418L177 307V73H473Z" glyph-name="Lslash" horiz-adv-x="495" unicode="&#321;" /><glyph d="M326 0 153 540 157 0H81V700H175L362 117L547 700H642V0H565L569 540L395 0Z" glyph-name="M" horiz-adv-x="722" unicode="M" /><glyph d="M437 0 155 543 157 0H81V700H160L443 156L439 700H515V0Z" glyph-name="N" horiz-adv-x="596" unicode="N" /><glyph glyph-name="NULL" horiz-adv-x="132" /><glyph d="M81 0ZM437 0 155 543 157 0H81V700H160L443 156L439 700H515V0ZM415 897 326 788H262V792L321 903H415Z" glyph-name="Nacute" horiz-adv-x="596" unicode="&#323;" /><glyph d="M81 0ZM437 0 155 543 157 0H81V700H160L443 156L439 700H515V0ZM299 836 352 903H428V901L334 788H263L172 901V903H250Z" glyph-name="Ncaron" horiz-adv-x="596" unicode="&#327;" /><glyph d="M81 0ZM437 0 155 543 157 0H81V700H160L443 156L439 700H515V0ZM347 -132Q347 -187 324.5 -227Q302 -267 262 -286L238 -253Q263 -239 280 -216Q297 -193 298 -164Q277 -167 262 -154.5Q247 -142 247 -115Q247 -90 260.5 -77.5Q274 -65 297 -65Q347 -65 347 -132Z" glyph-name="Ncommaaccent" horiz-adv-x="596" unicode="&#325;" /><glyph d="M81 0ZM437 0 155 543 157 0H81V700H160L443 156L439 700H515V0ZM366 897H420Q422 868 416 849Q410 830 400 818.5Q390 807 377 802Q364 797 351 797Q335 797 321 803.5Q307 810 295 817.5Q283 825 272.5 831.5Q262 838 252 838Q238 838 234 827Q230 816 230 801H175Q174 829 179.5 848.5Q185 868 195 879Q205 890 217.5 895Q230 900 242 900Q259 900 273.5 893.5Q288 887 300 879.5Q312 872 322.5 865.5Q333 859 344 859Q358 859 362 870Q366 881 366 897Z" glyph-name="Ntilde" horiz-adv-x="596" unicode="&#209;" /><glyph d="M297 -12Q235 -12 189.5 8.5Q144 29 114.5 73.5Q85 118 70.5 186.5Q56 255 56 351Q56 447 71 515.5Q86 584 116 627.5Q146 671 191 691.5Q236 712 297 712Q360 712 405.5 691.5Q451 671 480 627.5Q509 584 523 515.5Q537 447 537 351Q537 159 477.5 73.5Q418 -12 297 -12ZM297 642Q258 642 228.5 628.5Q199 615 178.5 581.5Q158 548 148 491.5Q138 435 138 350Q138 266 148 210Q158 154 178.5 119.5Q199 85 228.5 70.5Q258 56 297 56Q335 56 364.5 70Q394 84 414 118Q434 152 444 209Q454 266 454 352Q454 435 444 490.5Q434 546 414 580Q394 614 364.5 628Q335 642 297 642Z" glyph-name="O" horiz-adv-x="593" unicode="O" /><glyph d="M311 0Q182 0 119 86Q56 172 56 354Q56 535 118.5 617.5Q181 700 312 700H790V629H490V390H752V315H490V72H798V0ZM311 628Q269 628 237 614Q205 600 183 567.5Q161 535 149.5 482Q138 429 138 351Q138 272 149.5 218.5Q161 165 183.5 132Q206 99 238.5 85Q271 71 312 71H410V628Z" glyph-name="OE" horiz-adv-x="831" unicode="&#338;" /><glyph d="M56 0ZM297 -12Q235 -12 189.5 8.5Q144 29 114.5 73.5Q85 118 70.5 186.5Q56 255 56 351Q56 447 71 515.5Q86 584 116 627.5Q146 671 191 691.5Q236 712 297 712Q360 712 405.5 691.5Q451 671 480 627.5Q509 584 523 515.5Q537 447 537 351Q537 159 477.5 73.5Q418 -12 297 -12ZM297 642Q258 642 228.5 628.5Q199 615 178.5 581.5Q158 548 148 491.5Q138 435 138 350Q138 266 148 210Q158 154 178.5 119.5Q199 85 228.5 70.5Q258 56 297 56Q335 56 364.5 70Q394 84 414 118Q434 152 444 209Q454 266 454 352Q454 435 444 490.5Q434 546 414 580Q394 614 364.5 628Q335 642 297 642ZM412 897 323 788H259V792L318 903H412Z" glyph-name="Oacute" horiz-adv-x="593" unicode="&#211;" /><glyph d="M56 0ZM297 -12Q235 -12 189.5 8.5Q144 29 114.5 73.5Q85 118 70.5 186.5Q56 255 56 351Q56 447 71 515.5Q86 584 116 627.5Q146 671 191 691.5Q236 712 297 712Q360 712 405.5 691.5Q451 671 480 627.5Q509 584 523 515.5Q537 447 537 351Q537 159 477.5 73.5Q418 -12 297 -12ZM297 642Q258 642 228.5 628.5Q199 615 178.5 581.5Q158 548 148 491.5Q138 435 138 350Q138 266 148 210Q158 154 178.5 119.5Q199 85 228.5 70.5Q258 56 297 56Q335 56 364.5 70Q394 84 414 118Q434 152 444 209Q454 266 454 352Q454 435 444 490.5Q434 546 414 580Q394 614 364.5 628Q335 642 297 642ZM352 903H407Q407 834 377.5 808Q348 782 295 782Q241 782 212 808Q183 834 183 903H237Q237 865 251.5 850.5Q266 836 294 836Q323 836 337.5 850.5Q352 865 352 903Z" glyph-name="Obreve" horiz-adv-x="593" unicode="&#334;" /><glyph d="M56 0ZM297 -12Q235 -12 189.5 8.5Q144 29 114.5 73.5Q85 118 70.5 186.5Q56 255 56 351Q56 447 71 515.5Q86 584 116 627.5Q146 671 191 691.5Q236 712 297 712Q360 712 405.5 691.5Q451 671 480 627.5Q509 584 523 515.5Q537 447 537 351Q537 159 477.5 73.5Q418 -12 297 -12ZM297 642Q258 642 228.5 628.5Q199 615 178.5 581.5Q158 548 148 491.5Q138 435 138 350Q138 266 148 210Q158 154 178.5 119.5Q199 85 228.5 70.5Q258 56 297 56Q335 56 364.5 70Q394 84 414 118Q434 152 444 209Q454 266 454 352Q454 435 444 490.5Q434 546 414 580Q394 614 364.5 628Q335 642 297 642ZM294 858 244 788H168V791L260 903H331L424 791V788H345Z" glyph-name="Ocircumflex" horiz-adv-x="593" unicode="&#212;" /><glyph d="M56 0ZM297 -12Q235 -12 189.5 8.5Q144 29 114.5 73.5Q85 118 70.5 186.5Q56 255 56 351Q56 447 71 515.5Q86 584 116 627.5Q146 671 191 691.5Q236 712 297 712Q360 712 405.5 691.5Q451 671 480 627.5Q509 584 523 515.5Q537 447 537 351Q537 159 477.5 73.5Q418 -12 297 -12ZM297 642Q258 642 228.5 628.5Q199 615 178.5 581.5Q158 548 148 491.5Q138 435 138 350Q138 266 148 210Q158 154 178.5 119.5Q199 85 228.5 70.5Q258 56 297 56Q335 56 364.5 70Q394 84 414 118Q434 152 444 209Q454 266 454 352Q454 435 444 490.5Q434 546 414 580Q394 614 364.5 628Q335 642 297 642ZM319 851Q319 905 368 905Q418 905 418 851Q418 796 368 796Q319 796 319 851ZM179 851Q179 877 192 891Q205 905 228 905Q279 905 279 851Q279 796 228 796Q205 796 192 810.5Q179 825 179 851Z" glyph-name="Odieresis" horiz-adv-x="593" unicode="&#214;" /><glyph d="M56 0ZM297 -12Q235 -12 189.5 8.5Q144 29 114.5 73.5Q85 118 70.5 186.5Q56 255 56 351Q56 447 71 515.5Q86 584 116 627.5Q146 671 191 691.5Q236 712 297 712Q360 712 405.5 691.5Q451 671 480 627.5Q509 584 523 515.5Q537 447 537 351Q537 159 477.5 73.5Q418 -12 297 -12ZM297 642Q258 642 228.5 628.5Q199 615 178.5 581.5Q158 548 148 491.5Q138 435 138 350Q138 266 148 210Q158 154 178.5 119.5Q199 85 228.5 70.5Q258 56 297 56Q335 56 364.5 70Q394 84 414 118Q434 152 444 209Q454 266 454 352Q454 435 444 490.5Q434 546 414 580Q394 614 364.5 628Q335 642 297 642ZM270 790 180 899V905H276L334 794V790Z" glyph-name="Ograve" horiz-adv-x="593" unicode="&#210;" /><glyph d="M56 0ZM297 -12Q235 -12 189.5 8.5Q144 29 114.5 73.5Q85 118 70.5 186.5Q56 255 56 351Q56 447 71 515.5Q86 584 116 627.5Q146 671 191 691.5Q236 712 297 712Q360 712 405.5 691.5Q451 671 480 627.5Q509 584 523 515.5Q537 447 537 351Q537 159 477.5 73.5Q418 -12 297 -12ZM297 642Q258 642 228.5 628.5Q199 615 178.5 581.5Q158 548 148 491.5Q138 435 138 350Q138 266 148 210Q158 154 178.5 119.5Q199 85 228.5 70.5Q258 56 297 56Q335 56 364.5 70Q394 84 414 118Q434 152 444 209Q454 266 454 352Q454 435 444 490.5Q434 546 414 580Q394 614 364.5 628Q335 642 297 642ZM482 897 386 788H326V792L386 903H482ZM338 903V897L242 788H182V792L242 903Z" glyph-name="Ohungarumlaut" horiz-adv-x="593" unicode="&#336;" /><glyph d="M56 0ZM297 -12Q235 -12 189.5 8.5Q144 29 114.5 73.5Q85 118 70.5 186.5Q56 255 56 351Q56 447 71 515.5Q86 584 116 627.5Q146 671 191 691.5Q236 712 297 712Q360 712 405.5 691.5Q451 671 480 627.5Q509 584 523 515.5Q537 447 537 351Q537 159 477.5 73.5Q418 -12 297 -12ZM297 642Q258 642 228.5 628.5Q199 615 178.5 581.5Q158 548 148 491.5Q138 435 138 350Q138 266 148 210Q158 154 178.5 119.5Q199 85 228.5 70.5Q258 56 297 56Q335 56 364.5 70Q394 84 414 118Q434 152 444 209Q454 266 454 352Q454 435 444 490.5Q434 546 414 580Q394 614 364.5 628Q335 642 297 642ZM393 873V815H196V873Z" glyph-name="Omacron" horiz-adv-x="593" unicode="&#332;" /><glyph d="M301 -12Q199 -12 140 48L109 0H35L103 103Q61 191 61 351Q61 447 76 515.5Q91 584 121 627.5Q151 671 196 691.5Q241 712 301 712Q354 712 394.5 698Q435 684 464 653L495 700H569L501 596Q542 513 542 351Q542 159 482 73.5Q422 -12 301 -12ZM143 350Q143 251 158 190L419 581Q398 614 369 628Q340 642 301 642Q262 642 232.5 628.5Q203 615 183 581.5Q163 548 153 491.5Q143 435 143 350ZM301 56Q340 56 369.5 70Q399 84 419 118Q439 152 449 209Q459 266 459 352Q459 448 444 508L184 116Q204 84 233.5 70Q263 56 301 56Z" glyph-name="Oslash" horiz-adv-x="593" unicode="&#216;" /><glyph d="M56 0ZM297 -12Q235 -12 189.5 8.5Q144 29 114.5 73.5Q85 118 70.5 186.5Q56 255 56 351Q56 447 71 515.5Q86 584 116 627.5Q146 671 191 691.5Q236 712 297 712Q360 712 405.5 691.5Q451 671 480 627.5Q509 584 523 515.5Q537 447 537 351Q537 159 477.5 73.5Q418 -12 297 -12ZM297 642Q258 642 228.5 628.5Q199 615 178.5 581.5Q158 548 148 491.5Q138 435 138 350Q138 266 148 210Q158 154 178.5 119.5Q199 85 228.5 70.5Q258 56 297 56Q335 56 364.5 70Q394 84 414 118Q434 152 444 209Q454 266 454 352Q454 435 444 490.5Q434 546 414 580Q394 614 364.5 628Q335 642 297 642ZM363 897H417Q419 868 413 849Q407 830 397 818.5Q387 807 374 802Q361 797 348 797Q332 797 318 803.5Q304 810 292 817.5Q280 825 269.5 831.5Q259 838 249 838Q235 838 231 827Q227 816 227 801H172Q171 829 176.5 848.5Q182 868 192 879Q202 890 214.5 895Q227 900 239 900Q256 900 270.5 893.5Q285 887 297 879.5Q309 872 319.5 865.5Q330 859 341 859Q355 859 359 870Q363 881 363 897Z" glyph-name="Otilde" horiz-adv-x="593" unicode="&#213;" /><glyph d="M81 0V700H280Q381 700 431.5 643Q482 586 482 480Q482 365 428.5 306Q375 247 272 247H163V0ZM275 629H163V320H275Q334 320 367 359Q400 398 400 478Q400 552 369.5 590.5Q339 629 275 629Z" glyph-name="P" horiz-adv-x="514" unicode="P" /><glyph d="M297 -12Q235 -12 189.5 8.5Q144 29 114.5 73.5Q85 118 70.5 186.5Q56 255 56 351Q56 447 71 515.5Q86 584 116 627.5Q146 671 191 691.5Q236 712 297 712Q360 712 405.5 691.5Q451 671 480 627.5Q509 584 523 515.5Q537 447 537 351Q537 224 511.5 145Q486 66 434 27L499 -92H415L366 -4Q334 -12 297 -12ZM297 643Q258 643 228.5 629.5Q199 616 178.5 582.5Q158 549 148 492.5Q138 436 138 350Q138 266 148 210Q158 154 178.5 119.5Q199 85 228.5 70.5Q258 56 297 55Q305 55 313.5 56.5Q322 58 329 60L259 190H346L398 95Q426 124 440 184.5Q454 245 454 351Q454 435 444 491Q434 547 414 580.5Q394 614 364.5 628.5Q335 643 297 643Z" glyph-name="Q" horiz-adv-x="593" unicode="Q" /><glyph d="M81 0V700H280Q381 700 431.5 645.5Q482 591 482 491Q482 412 453 360Q424 308 368 285L487 0H400L292 269Q287 268 282 268H163V0ZM275 629H163V340H275Q335 340 367.5 377Q400 414 400 488Q400 629 275 629Z" glyph-name="R" horiz-adv-x="518" unicode="R" /><glyph d="M81 0ZM81 0V700H280Q381 700 431.5 645.5Q482 591 482 491Q482 412 453 360Q424 308 368 285L487 0H400L292 269Q287 268 282 268H163V0ZM275 629H163V340H275Q335 340 367.5 377Q400 414 400 488Q400 629 275 629ZM403 896 314 787H250V791L309 902H403Z" glyph-name="Racute" horiz-adv-x="518" unicode="&#340;" /><glyph d="M81 0ZM81 0V700H280Q381 700 431.5 645.5Q482 591 482 491Q482 412 453 360Q424 308 368 285L487 0H400L292 269Q287 268 282 268H163V0ZM275 629H163V340H275Q335 340 367.5 377Q400 414 400 488Q400 629 275 629ZM287 835 340 902H416V900L322 787H251L160 900V902H238Z" glyph-name="Rcaron" horiz-adv-x="518" unicode="&#344;" /><glyph d="M81 0ZM81 0V700H280Q381 700 431.5 645.5Q482 591 482 491Q482 412 453 360Q424 308 368 285L487 0H400L292 269Q287 268 282 268H163V0ZM275 629H163V340H275Q335 340 367.5 377Q400 414 400 488Q400 629 275 629ZM320 -132Q320 -187 297.5 -227Q275 -267 235 -286L211 -253Q236 -239 253 -216Q270 -193 271 -164Q250 -167 235 -154.5Q220 -142 220 -115Q220 -90 233.5 -77.5Q247 -65 270 -65Q320 -65 320 -132Z" glyph-name="Rcommaaccent" horiz-adv-x="518" unicode="&#342;" /><glyph d="M419 550 351 521Q333 589 298 616.5Q263 644 220 644Q175 644 145 618.5Q115 593 115 537Q115 492 140.5 461.5Q166 431 217 408L259 389Q301 370 331.5 349.5Q362 329 382.5 304.5Q403 280 413 249.5Q423 219 423 180Q423 86 371 37Q319 -12 228 -12Q146 -12 92 27.5Q38 67 11 155L79 189Q117 55 228 55Q285 55 314.5 86Q344 117 344 174Q344 223 318.5 254.5Q293 286 231 313L190 331Q118 363 77.5 413Q37 463 37 533Q37 570 49 602.5Q61 635 84.5 659.5Q108 684 143 698Q178 712 225 712Q300 712 350.5 672Q401 632 419 550Z" glyph-name="S" horiz-adv-x="465" unicode="S" /><glyph d="M11 0ZM419 550 351 521Q333 589 298 616.5Q263 644 220 644Q175 644 145 618.5Q115 593 115 537Q115 492 140.5 461.5Q166 431 217 408L259 389Q301 370 331.5 349.5Q362 329 382.5 304.5Q403 280 413 249.5Q423 219 423 180Q423 86 371 37Q319 -12 228 -12Q146 -12 92 27.5Q38 67 11 155L79 189Q117 55 228 55Q285 55 314.5 86Q344 117 344 174Q344 223 318.5 254.5Q293 286 231 313L190 331Q118 363 77.5 413Q37 463 37 533Q37 570 49 602.5Q61 635 84.5 659.5Q108 684 143 698Q178 712 225 712Q300 712 350.5 672Q401 632 419 550ZM341 892 252 783H188V787L247 898H341Z" glyph-name="Sacute" horiz-adv-x="469" unicode="&#346;" /><glyph d="M11 0ZM419 550 351 521Q333 589 298 616.5Q263 644 220 644Q175 644 145 618.5Q115 593 115 537Q115 492 140.5 461.5Q166 431 217 408L259 389Q301 370 331.5 349.5Q362 329 382.5 304.5Q403 280 413 249.5Q423 219 423 180Q423 86 371 37Q319 -12 228 -12Q146 -12 92 27.5Q38 67 11 155L79 189Q117 55 228 55Q285 55 314.5 86Q344 117 344 174Q344 223 318.5 254.5Q293 286 231 313L190 331Q118 363 77.5 413Q37 463 37 533Q37 570 49 602.5Q61 635 84.5 659.5Q108 684 143 698Q178 712 225 712Q300 712 350.5 672Q401 632 419 550ZM225 831 278 898H354V896L260 783H189L98 896V898H176Z" glyph-name="Scaron" horiz-adv-x="469" unicode="&#352;" /><glyph d="M212 -240Q182 -240 155.5 -226Q129 -212 112 -178L157 -147Q176 -190 212 -190Q231 -190 242 -179Q253 -168 253 -150Q253 -132 242.5 -120Q232 -108 215 -108Q210 -108 206 -108.5Q202 -109 197 -110L184 -95L199 -11Q130 -4 83 35.5Q36 75 11 155L79 189Q117 55 228 55Q285 55 314.5 86Q344 117 344 174Q344 223 318.5 254.5Q293 286 231 313L190 331Q118 363 77.5 413Q37 463 37 533Q37 570 49 602.5Q61 635 84.5 659.5Q108 684 143 698Q178 712 225 712Q300 712 350.5 672Q401 632 419 550L351 521Q333 589 298 616.5Q263 644 220 644Q175 644 145 618.5Q115 593 115 537Q115 492 140.5 461.5Q166 431 217 408L259 389Q301 370 331.5 349.5Q362 329 382.5 304.5Q403 280 413 249.5Q423 219 423 180Q423 92 376.5 43.5Q330 -5 249 -11L237 -67H240Q268 -67 289 -87.5Q310 -108 310 -148Q310 -196 281.5 -218Q253 -240 212 -240Z" glyph-name="Scedilla" horiz-adv-x="469" unicode="&#350;" /><glyph d="M11 0ZM419 550 351 521Q333 589 298 616.5Q263 644 220 644Q175 644 145 618.5Q115 593 115 537Q115 492 140.5 461.5Q166 431 217 408L259 389Q301 370 331.5 349.5Q362 329 382.5 304.5Q403 280 413 249.5Q423 219 423 180Q423 86 371 37Q319 -12 228 -12Q146 -12 92 27.5Q38 67 11 155L79 189Q117 55 228 55Q285 55 314.5 86Q344 117 344 174Q344 223 318.5 254.5Q293 286 231 313L190 331Q118 363 77.5 413Q37 463 37 533Q37 570 49 602.5Q61 635 84.5 659.5Q108 684 143 698Q178 712 225 712Q300 712 350.5 672Q401 632 419 550ZM223 853 173 783H97V786L189 898H260L353 786V783H274Z" glyph-name="Scircumflex" horiz-adv-x="469" unicode="&#348;" /><glyph d="M11 0ZM419 550 351 521Q333 589 298 616.5Q263 644 220 644Q175 644 145 618.5Q115 593 115 537Q115 492 140.5 461.5Q166 431 217 408L259 389Q301 370 331.5 349.5Q362 329 382.5 304.5Q403 280 413 249.5Q423 219 423 180Q423 86 371 37Q319 -12 228 -12Q146 -12 92 27.5Q38 67 11 155L79 189Q117 55 228 55Q285 55 314.5 86Q344 117 344 174Q344 223 318.5 254.5Q293 286 231 313L190 331Q118 363 77.5 413Q37 463 37 533Q37 570 49 602.5Q61 635 84.5 659.5Q108 684 143 698Q178 712 225 712Q300 712 350.5 672Q401 632 419 550ZM272 -137Q272 -192 249.5 -232Q227 -272 187 -291L163 -258Q188 -244 205 -221Q222 -198 223 -169Q202 -172 187 -159.5Q172 -147 172 -120Q172 -95 185.5 -82.5Q199 -70 222 -70Q272 -70 272 -137Z" glyph-name="Scommaaccent" horiz-adv-x="469" unicode="&#536;" /><glyph d="M12 700H431V628H263V0H181V628H12Z" glyph-name="T" horiz-adv-x="443" unicode="T" /><glyph d="M12 700H432V628H264V379H396V323H264V0H182V323H49V379H182V628H12Z" glyph-name="Tbar" horiz-adv-x="444" unicode="&#358;" /><glyph d="M12 0ZM12 700H431V628H263V0H181V628H12ZM223 835 276 902H352V900L258 787H187L96 900V902H174Z" glyph-name="Tcaron" horiz-adv-x="443" unicode="&#356;" /><glyph d="M182 -90 199 0H181V628H12V700H431V628H263V0H249L236 -62H239Q266 -62 287 -82.5Q308 -103 308 -143Q308 -191 280 -213Q252 -235 211 -235Q181 -235 154.5 -221.5Q128 -208 111 -173L156 -143Q175 -186 211 -186Q230 -186 241 -174.5Q252 -163 252 -145Q252 -127 241 -115Q230 -103 213 -103Q208 -103 204.5 -103.5Q201 -104 196 -105Z" glyph-name="Tcedilla" horiz-adv-x="443" unicode="&#354;" /><glyph d="M163 0H81V700H163V567H298Q385 567 427 515Q469 463 469 365Q469 258 421.5 203.5Q374 149 289 149H163ZM292 494H163V222H292Q337 222 363 255.5Q389 289 389 360Q389 425 365.5 459.5Q342 494 292 494Z" glyph-name="Thorn" horiz-adv-x="501" unicode="&#222;" /><glyph d="M422 228V700H504V231Q504 110 446.5 49Q389 -12 286 -12Q181 -12 124 49Q67 110 67 231V700H149V228Q149 139 186 99.5Q223 60 286 60Q349 60 385.5 99.5Q422 139 422 228Z" glyph-name="U" horiz-adv-x="571" unicode="U" /><glyph d="M67 0ZM422 228V700H504V231Q504 110 446.5 49Q389 -12 286 -12Q181 -12 124 49Q67 110 67 231V700H149V228Q149 139 186 99.5Q223 60 286 60Q349 60 385.5 99.5Q422 139 422 228ZM404 897 315 788H251V792L310 903H404Z" glyph-name="Uacute" horiz-adv-x="571" unicode="&#218;" /><glyph d="M67 0ZM422 228V700H504V231Q504 110 446.5 49Q389 -12 286 -12Q181 -12 124 49Q67 110 67 231V700H149V228Q149 139 186 99.5Q223 60 286 60Q349 60 385.5 99.5Q422 139 422 228ZM344 903H399Q399 834 369.5 808Q340 782 287 782Q233 782 204 808Q175 834 175 903H229Q229 865 243.5 850.5Q258 836 286 836Q315 836 329.5 850.5Q344 865 344 903Z" glyph-name="Ubreve" horiz-adv-x="571" unicode="&#364;" /><glyph d="M67 0ZM422 228V700H504V231Q504 110 446.5 49Q389 -12 286 -12Q181 -12 124 49Q67 110 67 231V700H149V228Q149 139 186 99.5Q223 60 286 60Q349 60 385.5 99.5Q422 139 422 228ZM286 858 236 788H160V791L252 903H323L416 791V788H337Z" glyph-name="Ucircumflex" horiz-adv-x="571" unicode="&#219;" /><glyph d="M67 0ZM422 228V700H504V231Q504 110 446.5 49Q389 -12 286 -12Q181 -12 124 49Q67 110 67 231V700H149V228Q149 139 186 99.5Q223 60 286 60Q349 60 385.5 99.5Q422 139 422 228ZM311 851Q311 905 360 905Q410 905 410 851Q410 796 360 796Q311 796 311 851ZM171 851Q171 877 184 891Q197 905 220 905Q271 905 271 851Q271 796 220 796Q197 796 184 810.5Q171 825 171 851Z" glyph-name="Udieresis" horiz-adv-x="571" unicode="&#220;" /><glyph d="M67 0ZM422 228V700H504V231Q504 110 446.5 49Q389 -12 286 -12Q181 -12 124 49Q67 110 67 231V700H149V228Q149 139 186 99.5Q223 60 286 60Q349 60 385.5 99.5Q422 139 422 228ZM262 790 172 899V905H268L326 794V790Z" glyph-name="Ugrave" horiz-adv-x="571" unicode="&#217;" /><glyph d="M67 0ZM422 228V700H504V231Q504 110 446.5 49Q389 -12 286 -12Q181 -12 124 49Q67 110 67 231V700H149V228Q149 139 186 99.5Q223 60 286 60Q349 60 385.5 99.5Q422 139 422 228ZM474 897 378 788H318V792L378 903H474ZM330 903V897L234 788H174V792L234 903Z" glyph-name="Uhungarumlaut" horiz-adv-x="571" unicode="&#368;" /><glyph d="M67 0ZM422 228V700H504V231Q504 110 446.5 49Q389 -12 286 -12Q181 -12 124 49Q67 110 67 231V700H149V228Q149 139 186 99.5Q223 60 286 60Q349 60 385.5 99.5Q422 139 422 228ZM385 873V815H188V873Z" glyph-name="Umacron" horiz-adv-x="571" unicode="&#362;" /><glyph d="M342 -211Q324 -211 306.5 -206Q289 -201 275 -189Q261 -177 252.5 -157Q244 -137 244 -106Q244 -76 252.5 -52.5Q261 -29 275 -12Q175 -8 121 52.5Q67 113 67 231V700H149V228Q149 139 186 99.5Q223 60 286 60Q349 60 385.5 99.5Q422 139 422 228V700H504V231Q504 130 463.5 71Q423 12 348 -5Q323 -19 310.5 -43.5Q298 -68 298 -96Q298 -128 313 -140Q328 -152 348 -152Q374 -152 394 -135L420 -184Q402 -198 383.5 -204.5Q365 -211 342 -211Z" glyph-name="Uogonek" horiz-adv-x="571" unicode="&#370;" /><glyph d="M67 0ZM422 228V700H504V231Q504 110 446.5 49Q389 -12 286 -12Q181 -12 124 49Q67 110 67 231V700H149V228Q149 139 186 99.5Q223 60 286 60Q349 60 385.5 99.5Q422 139 422 228ZM204 856Q204 899 227.5 923Q251 947 288 947Q323 947 346 923Q369 899 369 856Q369 814 346 789.5Q323 765 287 765Q251 765 227.5 789.5Q204 814 204 856ZM246 856Q246 833 257 818Q268 803 287 803Q304 803 316 818Q328 833 328 856Q328 880 316.5 894Q305 908 288 908Q268 908 257 894Q246 880 246 856Z" glyph-name="Uring" horiz-adv-x="571" unicode="&#366;" /><glyph d="M67 0ZM422 228V700H504V231Q504 110 446.5 49Q389 -12 286 -12Q181 -12 124 49Q67 110 67 231V700H149V228Q149 139 186 99.5Q223 60 286 60Q349 60 385.5 99.5Q422 139 422 228ZM355 897H409Q411 868 405 849Q399 830 389 818.5Q379 807 366 802Q353 797 340 797Q324 797 310 803.5Q296 810 284 817.5Q272 825 261.5 831.5Q251 838 241 838Q227 838 223 827Q219 816 219 801H164Q163 829 168.5 848.5Q174 868 184 879Q194 890 206.5 895Q219 900 231 900Q248 900 262.5 893.5Q277 887 289 879.5Q301 872 311.5 865.5Q322 859 333 859Q347 859 351 870Q355 881 355 897Z" glyph-name="Utilde" horiz-adv-x="571" unicode="&#360;" /><glyph d="M241 94 391 700H474L290 0H190L7 700H91Z" glyph-name="V" horiz-adv-x="481" unicode="V" /><glyph d="M306 698H396L501 135L615 700H692L544 0H455L349 566L245 0H156L7 700H89L201 131Z" glyph-name="W" horiz-adv-x="699" unicode="W" /><glyph d="M7 0ZM306 698H396L501 135L615 700H692L544 0H455L349 566L245 0H156L7 700H89L201 131ZM467 896 378 787H314V791L373 902H467Z" glyph-name="Wacute" horiz-adv-x="699" unicode="&#7810;" /><glyph d="M7 0ZM306 698H396L501 135L615 700H692L544 0H455L349 566L245 0H156L7 700H89L201 131ZM349 857 299 787H223V790L315 902H386L479 790V787H400Z" glyph-name="Wcircumflex" horiz-adv-x="699" unicode="&#372;" /><glyph d="M7 0ZM306 698H396L501 135L615 700H692L544 0H455L349 566L245 0H156L7 700H89L201 131ZM374 850Q374 904 423 904Q473 904 473 850Q473 795 423 795Q374 795 374 850ZM234 850Q234 876 247 890Q260 904 283 904Q334 904 334 850Q334 795 283 795Q260 795 247 809.5Q234 824 234 850Z" glyph-name="Wdieresis" horiz-adv-x="699" unicode="&#7812;" /><glyph d="M7 0ZM306 698H396L501 135L615 700H692L544 0H455L349 566L245 0H156L7 700H89L201 131ZM325 789 235 898V904H331L389 793V789Z" glyph-name="Wgrave" horiz-adv-x="699" unicode="&#7808;" /><glyph d="M390 0 245 289 99 0H11L200 358L24 700H115L250 428L382 700H470L293 359L482 0Z" glyph-name="X" horiz-adv-x="493" unicode="X" /><glyph d="M197 280 8 700H101L240 360L381 700H469L279 281V0H197Z" glyph-name="Y" horiz-adv-x="477" unicode="Y" /><glyph d="M8 0ZM197 280 8 700H101L240 360L381 700H469L279 281V0H197ZM355 897 266 788H202V792L261 903H355Z" glyph-name="Yacute" horiz-adv-x="477" unicode="&#221;" /><glyph d="M8 0ZM197 280 8 700H101L240 360L381 700H469L279 281V0H197ZM238 858 188 788H112V791L204 903H275L368 791V788H289Z" glyph-name="Ycircumflex" horiz-adv-x="477" unicode="&#374;" /><glyph d="M8 0ZM197 280 8 700H101L240 360L381 700H469L279 281V0H197ZM263 851Q263 905 312 905Q362 905 362 851Q362 796 312 796Q263 796 263 851ZM123 851Q123 877 136 891Q149 905 172 905Q223 905 223 851Q223 796 172 796Q149 796 136 810.5Q123 825 123 851Z" glyph-name="Ydieresis" horiz-adv-x="477" unicode="&#376;" /><glyph d="M17 0V64L332 629L34 627V700H421V636L106 71L424 73V0Z" glyph-name="Z" horiz-adv-x="442" unicode="Z" /><glyph d="M17 0ZM17 0V64L332 629L34 627V700H421V636L106 71L424 73V0ZM338 896 249 787H185V791L244 902H338Z" glyph-name="Zacute" horiz-adv-x="442" unicode="&#377;" /><glyph d="M17 0ZM17 0V64L332 629L34 627V700H421V636L106 71L424 73V0ZM222 835 275 902H351V900L257 787H186L95 900V902H173Z" glyph-name="Zcaron" horiz-adv-x="442" unicode="&#381;" /><glyph d="M17 0ZM17 0V64L332 629L34 627V700H421V636L106 71L424 73V0ZM170 849Q170 875 183.5 889Q197 903 221 903Q271 903 271 849Q271 794 221 794Q197 794 183.5 808.5Q170 823 170 849Z" glyph-name="Zdotaccent" horiz-adv-x="442" unicode="&#379;" /><glyph d="M185 54Q232 54 263 97.5Q294 141 295 220V234H246Q182 234 149.5 205Q117 176 117 129Q117 94 135 74Q153 54 185 54ZM306 0 300 90Q280 41 246.5 14.5Q213 -12 166 -12Q109 -12 76 24.5Q43 61 43 125Q43 162 56 193Q69 224 94 247Q119 270 155.5 283Q192 296 239 296H295V306Q295 342 287 366Q279 390 266.5 404.5Q254 419 237.5 425.5Q221 432 203 432Q171 432 147.5 414Q124 396 113 358L47 391Q55 414 68.5 434Q82 454 101.5 468.5Q121 483 147.5 491Q174 499 208 499Q289 499 330.5 453.5Q372 408 372 303V0Z" glyph-name="a" horiz-adv-x="433" unicode="a" /><glyph d="M321 242Q321 343 292 387.5Q263 432 217 432Q167 432 143.5 386Q120 340 120 243Q120 145 143.5 99.5Q167 54 217 54Q262 54 291.5 98.5Q321 143 321 242ZM194 -12Q121 -12 81 53.5Q41 119 41 244Q41 369 83 434Q125 499 202 499Q290 499 328 405L335 487H399V0H334L327 82Q306 34 274 11Q242 -12 194 -12Z" glyph-name="a.school" horiz-adv-x="465" /><glyph d="M43 0ZM185 54Q232 54 263 97.5Q294 141 295 220V234H246Q182 234 149.5 205Q117 176 117 129Q117 94 135 74Q153 54 185 54ZM306 0 300 90Q280 41 246.5 14.5Q213 -12 166 -12Q109 -12 76 24.5Q43 61 43 125Q43 162 56 193Q69 224 94 247Q119 270 155.5 283Q192 296 239 296H295V306Q295 342 287 366Q279 390 266.5 404.5Q254 419 237.5 425.5Q221 432 203 432Q171 432 147.5 414Q124 396 113 358L47 391Q55 414 68.5 434Q82 454 101.5 468.5Q121 483 147.5 491Q174 499 208 499Q289 499 330.5 453.5Q372 408 372 303V0ZM324 684 235 575H171V579L230 690H324Z" glyph-name="aacute" horiz-adv-x="433" unicode="&#225;" /><glyph d="M41 0ZM321 242Q321 343 292 387.5Q263 432 217 432Q167 432 143.5 386Q120 340 120 243Q120 145 143.5 99.5Q167 54 217 54Q262 54 291.5 98.5Q321 143 321 242ZM194 -12Q121 -12 81 53.5Q41 119 41 244Q41 369 83 434Q125 499 202 499Q290 499 328 405L335 487H399V0H334L327 82Q306 34 274 11Q242 -12 194 -12ZM333 683 244 574H180V578L239 689H333Z" glyph-name="aacute.school" horiz-adv-x="465" /><glyph d="M43 0ZM185 54Q232 54 263 97.5Q294 141 295 220V234H246Q182 234 149.5 205Q117 176 117 129Q117 94 135 74Q153 54 185 54ZM306 0 300 90Q280 41 246.5 14.5Q213 -12 166 -12Q109 -12 76 24.5Q43 61 43 125Q43 162 56 193Q69 224 94 247Q119 270 155.5 283Q192 296 239 296H295V306Q295 342 287 366Q279 390 266.5 404.5Q254 419 237.5 425.5Q221 432 203 432Q171 432 147.5 414Q124 396 113 358L47 391Q55 414 68.5 434Q82 454 101.5 468.5Q121 483 147.5 491Q174 499 208 499Q289 499 330.5 453.5Q372 408 372 303V0ZM264 690H319Q319 621 289.5 595Q260 569 207 569Q153 569 124 595Q95 621 95 690H149Q149 652 163.5 637.5Q178 623 206 623Q235 623 249.5 637.5Q264 652 264 690Z" glyph-name="abreve" horiz-adv-x="433" unicode="&#259;" /><glyph d="M41 0ZM321 242Q321 343 292 387.5Q263 432 217 432Q167 432 143.5 386Q120 340 120 243Q120 145 143.5 99.5Q167 54 217 54Q262 54 291.5 98.5Q321 143 321 242ZM194 -12Q121 -12 81 53.5Q41 119 41 244Q41 369 83 434Q125 499 202 499Q290 499 328 405L335 487H399V0H334L327 82Q306 34 274 11Q242 -12 194 -12ZM274 689H329Q329 620 299.5 594Q270 568 217 568Q163 568 134 594Q105 620 105 689H159Q159 651 173.5 636.5Q188 622 216 622Q245 622 259.5 636.5Q274 651 274 689Z" glyph-name="abreve.school" horiz-adv-x="465" /><glyph d="M43 0ZM185 54Q232 54 263 97.5Q294 141 295 220V234H246Q182 234 149.5 205Q117 176 117 129Q117 94 135 74Q153 54 185 54ZM306 0 300 90Q280 41 246.5 14.5Q213 -12 166 -12Q109 -12 76 24.5Q43 61 43 125Q43 162 56 193Q69 224 94 247Q119 270 155.5 283Q192 296 239 296H295V306Q295 342 287 366Q279 390 266.5 404.5Q254 419 237.5 425.5Q221 432 203 432Q171 432 147.5 414Q124 396 113 358L47 391Q55 414 68.5 434Q82 454 101.5 468.5Q121 483 147.5 491Q174 499 208 499Q289 499 330.5 453.5Q372 408 372 303V0ZM206 645 156 575H80V578L172 690H243L336 578V575H257Z" glyph-name="acircumflex" horiz-adv-x="433" unicode="&#226;" /><glyph d="M41 0ZM216 644 166 574H90V577L182 689H253L346 577V574H267ZM321 242Q321 343 292 387.5Q263 432 217 432Q167 432 143.5 386Q120 340 120 243Q120 145 143.5 99.5Q167 54 217 54Q262 54 291.5 98.5Q321 143 321 242ZM194 -12Q121 -12 81 53.5Q41 119 41 244Q41 369 83 434Q125 499 202 499Q290 499 328 405L335 487H399V0H334L327 82Q306 34 274 11Q242 -12 194 -12Z" glyph-name="acircumflex.school" horiz-adv-x="465" /><glyph d="M335 683 246 574H182V578L241 689H335Z" glyph-name="acute" horiz-adv-x="454" unicode="&#180;" /><glyph d="M43 0ZM185 54Q232 54 263 97.5Q294 141 295 220V234H246Q182 234 149.5 205Q117 176 117 129Q117 94 135 74Q153 54 185 54ZM306 0 300 90Q280 41 246.5 14.5Q213 -12 166 -12Q109 -12 76 24.5Q43 61 43 125Q43 162 56 193Q69 224 94 247Q119 270 155.5 283Q192 296 239 296H295V306Q295 342 287 366Q279 390 266.5 404.5Q254 419 237.5 425.5Q221 432 203 432Q171 432 147.5 414Q124 396 113 358L47 391Q55 414 68.5 434Q82 454 101.5 468.5Q121 483 147.5 491Q174 499 208 499Q289 499 330.5 453.5Q372 408 372 303V0ZM231 638Q231 692 280 692Q330 692 330 638Q330 583 280 583Q231 583 231 638ZM91 638Q91 664 104 678Q117 692 140 692Q191 692 191 638Q191 583 140 583Q117 583 104 597.5Q91 612 91 638Z" glyph-name="adieresis" horiz-adv-x="433" unicode="&#228;" /><glyph d="M41 0ZM237 637Q237 691 286 691Q336 691 336 637Q336 582 286 582Q237 582 237 637ZM97 637Q97 663 110 677Q123 691 146 691Q197 691 197 637Q197 582 146 582Q123 582 110 596.5Q97 611 97 637ZM321 242Q321 343 292 387.5Q263 432 217 432Q167 432 143.5 386Q120 340 120 243Q120 145 143.5 99.5Q167 54 217 54Q262 54 291.5 98.5Q321 143 321 242ZM194 -12Q121 -12 81 53.5Q41 119 41 244Q41 369 83 434Q125 499 202 499Q290 499 328 405L335 487H399V0H334L327 82Q306 34 274 11Q242 -12 194 -12Z" glyph-name="adieresis.school" horiz-adv-x="465" /><glyph d="M473 -12Q420 -12 381 15.5Q342 43 325 103Q302 50 264 19Q226 -12 174 -12Q114 -12 78.5 24Q43 60 43 126Q43 161 56 191Q69 221 94 243Q119 265 155.5 277.5Q192 290 239 290H295V296Q295 373 270 403Q245 433 202 433Q135 433 113 358L47 391Q63 438 100.5 468.5Q138 499 206 499Q252 499 287 479Q322 459 340 411Q381 499 473 499Q516 499 546.5 481Q577 463 596.5 432.5Q616 402 625 360.5Q634 319 634 272V250Q634 239 633 228H370V220Q374 128 400.5 90.5Q427 53 476 53Q546 53 574 145L638 115Q629 90 615.5 67Q602 44 582.5 26.5Q563 9 536.5 -1.5Q510 -12 473 -12ZM182 54Q233 54 264 97.5Q295 141 295 220V229H246Q182 229 149.5 201Q117 173 117 129Q117 94 134.5 74Q152 54 182 54ZM471 433Q429 433 404 401.5Q379 370 373 290H559Q556 433 471 433Z" glyph-name="ae" horiz-adv-x="674" unicode="&#230;" /><glyph d="M43 0ZM185 54Q232 54 263 97.5Q294 141 295 220V234H246Q182 234 149.5 205Q117 176 117 129Q117 94 135 74Q153 54 185 54ZM306 0 300 90Q280 41 246.5 14.5Q213 -12 166 -12Q109 -12 76 24.5Q43 61 43 125Q43 162 56 193Q69 224 94 247Q119 270 155.5 283Q192 296 239 296H295V306Q295 342 287 366Q279 390 266.5 404.5Q254 419 237.5 425.5Q221 432 203 432Q171 432 147.5 414Q124 396 113 358L47 391Q55 414 68.5 434Q82 454 101.5 468.5Q121 483 147.5 491Q174 499 208 499Q289 499 330.5 453.5Q372 408 372 303V0ZM182 577 92 686V692H188L246 581V577Z" glyph-name="agrave" horiz-adv-x="433" unicode="&#224;" /><glyph d="M41 0ZM321 242Q321 343 292 387.5Q263 432 217 432Q167 432 143.5 386Q120 340 120 243Q120 145 143.5 99.5Q167 54 217 54Q262 54 291.5 98.5Q321 143 321 242ZM194 -12Q121 -12 81 53.5Q41 119 41 244Q41 369 83 434Q125 499 202 499Q290 499 328 405L335 487H399V0H334L327 82Q306 34 274 11Q242 -12 194 -12ZM193 576 103 685V691H199L257 580V576Z" glyph-name="agrave.school" horiz-adv-x="465" /><glyph d="M43 0ZM185 54Q232 54 263 97.5Q294 141 295 220V234H246Q182 234 149.5 205Q117 176 117 129Q117 94 135 74Q153 54 185 54ZM306 0 300 90Q280 41 246.5 14.5Q213 -12 166 -12Q109 -12 76 24.5Q43 61 43 125Q43 162 56 193Q69 224 94 247Q119 270 155.5 283Q192 296 239 296H295V306Q295 342 287 366Q279 390 266.5 404.5Q254 419 237.5 425.5Q221 432 203 432Q171 432 147.5 414Q124 396 113 358L47 391Q55 414 68.5 434Q82 454 101.5 468.5Q121 483 147.5 491Q174 499 208 499Q289 499 330.5 453.5Q372 408 372 303V0ZM306 660V602H109V660Z" glyph-name="amacron" horiz-adv-x="433" unicode="&#257;" /><glyph d="M41 0ZM321 242Q321 343 292 387.5Q263 432 217 432Q167 432 143.5 386Q120 340 120 243Q120 145 143.5 99.5Q167 54 217 54Q262 54 291.5 98.5Q321 143 321 242ZM194 -12Q121 -12 81 53.5Q41 119 41 244Q41 369 83 434Q125 499 202 499Q290 499 328 405L335 487H399V0H334L327 82Q306 34 274 11Q242 -12 194 -12ZM317 659V601H120V659Z" glyph-name="amacron.school" horiz-adv-x="465" /><glyph d="M496 -16Q470 0 441 20.5Q412 41 383 67Q349 29 306 8.5Q263 -12 210 -12Q171 -12 137.5 0Q104 12 80 35Q56 58 42 93Q28 128 28 174Q28 235 53 282Q78 329 133 374Q109 421 95 467Q81 513 81 556Q81 589 90 617.5Q99 646 117 667Q135 688 161.5 700Q188 712 223 712Q288 712 320 676.5Q352 641 352 577Q352 547 345 519.5Q338 492 322 466Q306 440 281.5 414Q257 388 221 360Q251 312 289.5 264.5Q328 217 372 175Q399 232 413 309.5Q427 387 426 475H497Q494 254 424 126Q452 102 480 81.5Q508 61 534 44ZM151 556Q151 524 161 488.5Q171 453 190 416Q235 451 259 487Q283 523 283 571Q283 610 264 628.5Q245 647 219 647Q187 647 169 624Q151 601 151 556ZM216 53Q251 53 280 68.5Q309 84 333 113Q286 158 243 209.5Q200 261 166 316Q138 290 119.5 258Q101 226 101 179Q101 119 132 86Q163 53 216 53Z" glyph-name="ampersand" horiz-adv-x="539" unicode="&amp;" /><glyph d="M414 -184Q396 -198 378 -204.5Q360 -211 337 -211Q319 -211 301 -206Q283 -201 269.5 -189Q256 -177 247.5 -157Q239 -137 239 -106Q239 -60 258 -29Q277 2 305 19L300 90Q280 41 246.5 14.5Q213 -12 166 -12Q109 -12 76 24.5Q43 61 43 125Q43 162 56 193Q69 224 94 247Q119 270 155.5 283Q192 296 239 296H295V306Q295 342 287 366Q279 390 266.5 404.5Q254 419 237.5 425.5Q221 432 203 432Q171 432 147.5 414Q124 396 113 358L47 391Q55 414 68.5 434Q82 454 101.5 468.5Q121 483 147.5 491Q174 499 208 499Q289 499 330.5 453.5Q372 408 372 303V0H369Q350 -2 336 -11Q322 -20 312.5 -33.5Q303 -47 298 -63.5Q293 -80 293 -96Q293 -128 308 -140Q323 -152 343 -152Q369 -152 389 -135ZM185 54Q232 54 263 97.5Q294 141 295 220V234H246Q182 234 149.5 205Q117 176 117 129Q117 94 135 74Q153 54 185 54Z" glyph-name="aogonek" horiz-adv-x="434" unicode="&#261;" /><glyph d="M41 0ZM321 242Q321 343 292 387.5Q263 432 217 432Q167 432 143.5 386Q120 340 120 243Q120 145 143.5 99.5Q167 54 217 54Q262 54 291.5 98.5Q321 143 321 242ZM194 -12Q121 -12 81 53.5Q41 119 41 244Q41 369 83 434Q125 499 202 499Q290 499 328 405L335 487H399V0H334L327 82Q306 34 274 11Q242 -12 194 -12ZM365 -211Q347 -211 329 -206Q311 -201 297.5 -189Q284 -177 275.5 -157Q267 -137 267 -106Q267 -71 278.5 -44.5Q290 -18 308.5 0Q327 18 349.5 27Q372 36 394 35L397 0Q378 -2 364 -11Q350 -20 340.5 -33.5Q331 -47 326 -63.5Q321 -80 321 -96Q321 -128 336 -140Q351 -152 371 -152Q397 -152 417 -135L442 -184Q424 -198 406 -204.5Q388 -211 365 -211Z" glyph-name="aogonek.school" horiz-adv-x="466" /><glyph d="M262 396Q278 396 301.5 402Q325 408 344 425V355Q328 342 303.5 335.5Q279 329 257 329Q237 329 220.5 334.5Q204 340 188.5 346Q173 352 157.5 357.5Q142 363 124 363Q107 363 83.5 357.5Q60 352 40 335V405Q57 419 80.5 425Q104 431 125 431Q146 431 163 425.5Q180 420 196 413.5Q212 407 228 401.5Q244 396 262 396ZM262 248Q278 248 301.5 254Q325 260 344 277V207Q328 193 303.5 186.5Q279 180 257 180Q237 180 220.5 185.5Q204 191 188.5 197.5Q173 204 157.5 209.5Q142 215 124 215Q107 215 83.5 209.5Q60 204 40 187V257Q57 270 80.5 276Q104 282 125 282Q146 282 163 276.5Q180 271 196 265Q212 259 228 253.5Q244 248 262 248Z" glyph-name="approxequal" horiz-adv-x="383" unicode="&#8776;" /><glyph d="M43 0ZM185 54Q232 54 263 97.5Q294 141 295 220V234H246Q182 234 149.5 205Q117 176 117 129Q117 94 135 74Q153 54 185 54ZM306 0 300 90Q280 41 246.5 14.5Q213 -12 166 -12Q109 -12 76 24.5Q43 61 43 125Q43 162 56 193Q69 224 94 247Q119 270 155.5 283Q192 296 239 296H295V306Q295 342 287 366Q279 390 266.5 404.5Q254 419 237.5 425.5Q221 432 203 432Q171 432 147.5 414Q124 396 113 358L47 391Q55 414 68.5 434Q82 454 101.5 468.5Q121 483 147.5 491Q174 499 208 499Q289 499 330.5 453.5Q372 408 372 303V0ZM124 643Q124 686 147.5 710Q171 734 208 734Q243 734 266 710Q289 686 289 643Q289 601 266 576.5Q243 552 207 552Q171 552 147.5 576.5Q124 601 124 643ZM166 643Q166 620 177 605Q188 590 207 590Q224 590 236 605Q248 620 248 643Q248 667 236.5 681Q225 695 208 695Q188 695 177 681Q166 667 166 643Z" glyph-name="aring" horiz-adv-x="433" unicode="&#229;" /><glyph d="M41 0ZM321 242Q321 343 292 387.5Q263 432 217 432Q167 432 143.5 386Q120 340 120 243Q120 145 143.5 99.5Q167 54 217 54Q262 54 291.5 98.5Q321 143 321 242ZM194 -12Q121 -12 81 53.5Q41 119 41 244Q41 369 83 434Q125 499 202 499Q290 499 328 405L335 487H399V0H334L327 82Q306 34 274 11Q242 -12 194 -12ZM134 642Q134 685 157.5 709Q181 733 218 733Q253 733 276 709Q299 685 299 642Q299 600 276 575.5Q253 551 217 551Q181 551 157.5 575.5Q134 600 134 642ZM176 642Q176 619 187 604Q198 589 217 589Q234 589 246 604Q258 619 258 642Q258 666 246.5 680Q235 694 218 694Q198 694 187 680Q176 666 176 642Z" glyph-name="aring.school" horiz-adv-x="465" /><glyph d="M133 700H209L319 386V384H245L170 617L93 384H21V386Z" glyph-name="asciicircum" horiz-adv-x="340" unicode="^" /><glyph d="M326 414 388 405Q385 337 357 304.5Q329 272 285 272Q260 272 237.5 284Q215 296 195 310Q178 321 162 331Q146 341 129 341Q112 341 99 324.5Q86 308 84 275L22 284Q25 352 53.5 384Q82 416 126 416Q152 416 174 404.5Q196 393 216 379Q233 368 249.5 359Q266 350 280 350Q299 350 311.5 365Q324 380 326 414Z" glyph-name="asciitilde" horiz-adv-x="409" unicode="~" /><glyph d="M94 366 45 402 114 513 18 551 40 612 130 570 124 712H194L188 570L280 612L302 552L205 513L275 402L225 366L158 473Z" glyph-name="asterisk" horiz-adv-x="320" unicode="*" /><glyph d="M315 -100Q253 -100 203 -76Q153 -52 118 -8Q83 36 64 99.5Q45 163 45 242Q45 322 64 385.5Q83 449 118 493Q153 537 203 560Q253 583 315 583Q376 583 423.5 561.5Q471 540 504 499.5Q537 459 554 401.5Q571 344 571 272Q571 184 537 133Q503 82 444 82Q418 82 399 95.5Q380 109 372 139Q356 107 332.5 90.5Q309 74 276 74Q239 74 214.5 98.5Q190 123 190 167Q190 216 224.5 249Q259 282 325 282H363Q363 334 344 354Q325 374 301 374Q256 374 238 321L193 345Q203 375 229 397.5Q255 420 305 420Q416 420 416 286V187Q416 154 425.5 137.5Q435 121 458 121Q489 121 510 158.5Q531 196 531 270Q531 339 515 391Q499 443 470.5 477.5Q442 512 402 529.5Q362 547 315 547Q265 547 222.5 527.5Q180 508 149.5 469.5Q119 431 102 374Q85 317 85 242Q85 166 103 109Q121 52 152 13.5Q183 -25 225 -44.5Q267 -64 316 -64Q372 -64 415 -44.5Q458 -25 490 20L519 -3Q449 -100 315 -100ZM285 120Q320 120 341.5 149.5Q363 179 363 232V239H330Q285 239 263 219.5Q241 200 241 170Q241 147 253 133.5Q265 120 285 120Z" glyph-name="at" horiz-adv-x="617" unicode="@" /><glyph d="M45 8ZM315 8Q253 8 203 32Q153 56 118 100Q83 144 64 207.5Q45 271 45 350Q45 430 64 493.5Q83 557 118 601Q153 645 203 668Q253 691 315 691Q376 691 423.5 669.5Q471 648 504 607.5Q537 567 554 509.5Q571 452 571 380Q571 292 537 241Q503 190 444 190Q418 190 399 203.5Q380 217 372 247Q356 215 332.5 198.5Q309 182 276 182Q239 182 214.5 206.5Q190 231 190 275Q190 324 224.5 357Q259 390 325 390H363Q363 442 344 462Q325 482 301 482Q256 482 238 429L193 453Q203 483 229 505.5Q255 528 305 528Q416 528 416 394V295Q416 262 425.5 245.5Q435 229 458 229Q489 229 510 266.5Q531 304 531 378Q531 447 515 499Q499 551 470.5 585.5Q442 620 402 637.5Q362 655 315 655Q265 655 222.5 635.5Q180 616 149.5 577.5Q119 539 102 482Q85 425 85 350Q85 274 103 217Q121 160 152 121.5Q183 83 225 63.5Q267 44 316 44Q372 44 415 63.5Q458 83 490 128L519 105Q449 8 315 8ZM285 228Q320 228 341.5 257.5Q363 287 363 340V347H330Q285 347 263 327.5Q241 308 241 278Q241 255 253 241.5Q265 228 285 228Z" glyph-name="at.cap" horiz-adv-x="617" /><glyph d="M43 0ZM185 54Q232 54 263 97.5Q294 141 295 220V234H246Q182 234 149.5 205Q117 176 117 129Q117 94 135 74Q153 54 185 54ZM306 0 300 90Q280 41 246.5 14.5Q213 -12 166 -12Q109 -12 76 24.5Q43 61 43 125Q43 162 56 193Q69 224 94 247Q119 270 155.5 283Q192 296 239 296H295V306Q295 342 287 366Q279 390 266.5 404.5Q254 419 237.5 425.5Q221 432 203 432Q171 432 147.5 414Q124 396 113 358L47 391Q55 414 68.5 434Q82 454 101.5 468.5Q121 483 147.5 491Q174 499 208 499Q289 499 330.5 453.5Q372 408 372 303V0ZM275 684H329Q331 655 325 636Q319 617 309 605.5Q299 594 286 589Q273 584 260 584Q244 584 230 590.5Q216 597 204 604.5Q192 612 181.5 618.5Q171 625 161 625Q147 625 143 614Q139 603 139 588H84Q83 616 88.5 635.5Q94 655 104 666Q114 677 126.5 682Q139 687 151 687Q168 687 182.5 680.5Q197 674 209 666.5Q221 659 231.5 652.5Q242 646 253 646Q267 646 271 657Q275 668 275 684Z" glyph-name="atilde" horiz-adv-x="433" unicode="&#227;" /><glyph d="M41 0ZM321 242Q321 343 292 387.5Q263 432 217 432Q167 432 143.5 386Q120 340 120 243Q120 145 143.5 99.5Q167 54 217 54Q262 54 291.5 98.5Q321 143 321 242ZM194 -12Q121 -12 81 53.5Q41 119 41 244Q41 369 83 434Q125 499 202 499Q290 499 328 405L335 487H399V0H334L327 82Q306 34 274 11Q242 -12 194 -12ZM285 683H339Q341 654 335 635Q329 616 319 604.5Q309 593 296 588Q283 583 270 583Q254 583 240 589.5Q226 596 214 603.5Q202 611 191.5 617.5Q181 624 171 624Q157 624 153 613Q149 602 149 587H94Q93 615 98.5 634.5Q104 654 114 665Q124 676 136.5 681Q149 686 161 686Q178 686 192.5 679.5Q207 673 219 665.5Q231 658 241.5 651.5Q252 645 263 645Q277 645 281 656Q285 667 285 683Z" glyph-name="atilde.school" horiz-adv-x="465" /><glyph d="M262 -12Q222 -12 190 9Q158 30 138 73L133 0H66V700H145V414Q165 456 199 477.5Q233 499 275 499Q347 499 387 435.5Q427 372 427 244Q427 119 385 53.5Q343 -12 262 -12ZM146 242Q146 142 174.5 98Q203 54 248 54Q299 54 324 99Q349 144 349 243Q349 341 324 386.5Q299 432 250 432Q204 432 175 387Q146 342 146 242Z" glyph-name="b" horiz-adv-x="468" unicode="b" /><glyph d="M304 0 5 700H87L386 0Z" glyph-name="backslash" horiz-adv-x="401" unicode="\" /><glyph d="M79 -65V766H151V-65Z" glyph-name="bar" horiz-adv-x="231" unicode="|" /><glyph d="M215 -81Q161 -76 133 -41.5Q105 -7 105 62Q105 94 108.5 123.5Q112 153 112 182Q112 239 93 265Q74 291 32 291H10V353H32Q74 353 93 379Q112 405 112 462Q112 491 108.5 520.5Q105 550 105 584Q105 652 133 685.5Q161 719 215 726L240 664Q208 657 191 638.5Q174 620 174 578Q174 547 177.5 517.5Q181 488 181 455Q181 404 164.5 371.5Q148 339 116 322Q181 289 181 190Q181 158 177.5 128Q174 98 174 68Q174 26 191 6.5Q208 -13 240 -18Z" glyph-name="braceleft" horiz-adv-x="272" unicode="{" /><glyph d="M26 -18Q58 -13 75 6.5Q92 26 92 68Q92 98 88.5 128Q85 158 85 190Q85 289 150 322Q118 339 101.5 371.5Q85 404 85 455Q85 488 88.5 517.5Q92 547 92 578Q92 620 75 638.5Q58 657 26 664L51 726Q105 719 133 685.5Q161 652 161 584Q161 550 157.5 520.5Q154 491 154 462Q154 405 173 379Q192 353 234 353H256V291H234Q192 291 173 265Q154 239 154 182Q154 153 157.5 123.5Q161 94 161 62Q161 -7 133 -41.5Q105 -76 51 -81Z" glyph-name="braceright" horiz-adv-x="272" unicode="}" /><glyph d="M55 -74V715H230V653H126V-11H233V-74Z" glyph-name="bracketleft" horiz-adv-x="262" unicode="[" /><glyph d="M26 -74V-11H133V653H29V715H204V-74Z" glyph-name="bracketright" horiz-adv-x="263" unicode="]" /><glyph d="M284 689H339Q339 620 309.5 594Q280 568 227 568Q173 568 144 594Q115 620 115 689H169Q169 651 183.5 636.5Q198 622 226 622Q255 622 269.5 636.5Q284 651 284 689Z" glyph-name="breve" horiz-adv-x="454" unicode="&#728;" /><glyph d="M79 389V766H151V389ZM79 -65V314H151V-65Z" glyph-name="brokenbar" horiz-adv-x="231" unicode="&#166;" /><glyph d="M41 327Q41 385 73 422.5Q105 460 164 460Q221 460 254 422.5Q287 385 287 327Q287 268 254 231Q221 194 164 194Q105 194 73 231Q41 268 41 327Z" glyph-name="bullet" horiz-adv-x="327" unicode="&#8226;" /><glyph d="M220 -12Q135 -12 88 48.5Q41 109 41 244Q41 376 89.5 437.5Q138 499 227 499Q288 499 324.5 468Q361 437 381 371L314 339Q300 386 279 408.5Q258 431 225 431Q171 431 145.5 389.5Q120 348 120 243Q120 190 126 154Q132 118 144.5 96Q157 74 176.5 64Q196 54 222 54Q293 54 321 146L387 117Q378 91 364.5 68Q351 45 331.5 27Q312 9 284.5 -1.5Q257 -12 220 -12Z" glyph-name="c" horiz-adv-x="405" unicode="c" /><glyph d="M41 0ZM220 -12Q135 -12 88 48.5Q41 109 41 244Q41 376 89.5 437.5Q138 499 227 499Q288 499 324.5 468Q361 437 381 371L314 339Q300 386 279 408.5Q258 431 225 431Q171 431 145.5 389.5Q120 348 120 243Q120 190 126 154Q132 118 144.5 96Q157 74 176.5 64Q196 54 222 54Q293 54 321 146L387 117Q378 91 364.5 68Q351 45 331.5 27Q312 9 284.5 -1.5Q257 -12 220 -12ZM337 683 248 574H184V578L243 689H337Z" glyph-name="cacute" horiz-adv-x="405" unicode="&#263;" /><glyph d="M226 622 279 689H355V687L261 574H190L99 687V689H177Z" glyph-name="caron" horiz-adv-x="454" unicode="&#711;" /><glyph d="M250 483H196L201 701H272Z" glyph-name="caronSlovak" horiz-adv-x="454" /><glyph d="M41 0ZM220 -12Q135 -12 88 48.5Q41 109 41 244Q41 376 89.5 437.5Q138 499 227 499Q288 499 324.5 468Q361 437 381 371L314 339Q300 386 279 408.5Q258 431 225 431Q171 431 145.5 389.5Q120 348 120 243Q120 190 126 154Q132 118 144.5 96Q157 74 176.5 64Q196 54 222 54Q293 54 321 146L387 117Q378 91 364.5 68Q351 45 331.5 27Q312 9 284.5 -1.5Q257 -12 220 -12ZM221 622 274 689H350V687L256 574H185L94 687V689H172Z" glyph-name="ccaron" horiz-adv-x="405" unicode="&#269;" /><glyph d="M209 -235Q179 -235 152.5 -221.5Q126 -208 109 -173L154 -143Q173 -186 209 -186Q228 -186 239 -174.5Q250 -163 250 -145Q250 -127 239.5 -115Q229 -103 212 -103Q207 -103 203 -103.5Q199 -104 194 -105L181 -90L196 -11Q121 -3 81 58Q41 119 41 244Q41 376 89.5 437.5Q138 499 227 499Q288 499 324.5 468Q361 437 381 371L314 339Q300 386 279 408.5Q258 431 225 431Q171 431 145.5 389.5Q120 348 120 243Q120 190 126 154Q132 118 144.5 96Q157 74 176.5 64Q196 54 222 54Q293 54 321 146L387 117Q378 93 366.5 71.5Q355 50 338 33Q321 16 298.5 4.5Q276 -7 245 -11L234 -62H237Q265 -62 286 -82.5Q307 -103 307 -143Q307 -191 278.5 -213Q250 -235 209 -235Z" glyph-name="ccedilla" horiz-adv-x="405" unicode="&#231;" /><glyph d="M41 0ZM220 -12Q135 -12 88 48.5Q41 109 41 244Q41 376 89.5 437.5Q138 499 227 499Q288 499 324.5 468Q361 437 381 371L314 339Q300 386 279 408.5Q258 431 225 431Q171 431 145.5 389.5Q120 348 120 243Q120 190 126 154Q132 118 144.5 96Q157 74 176.5 64Q196 54 222 54Q293 54 321 146L387 117Q378 91 364.5 68Q351 45 331.5 27Q312 9 284.5 -1.5Q257 -12 220 -12ZM219 644 169 574H93V577L185 689H256L349 577V574H270Z" glyph-name="ccircumflex" horiz-adv-x="405" unicode="&#265;" /><glyph d="M41 0ZM220 -12Q135 -12 88 48.5Q41 109 41 244Q41 376 89.5 437.5Q138 499 227 499Q288 499 324.5 468Q361 437 381 371L314 339Q300 386 279 408.5Q258 431 225 431Q171 431 145.5 389.5Q120 348 120 243Q120 190 126 154Q132 118 144.5 96Q157 74 176.5 64Q196 54 222 54Q293 54 321 146L387 117Q378 91 364.5 68Q351 45 331.5 27Q312 9 284.5 -1.5Q257 -12 220 -12ZM169 636Q169 662 182.5 676Q196 690 220 690Q270 690 270 636Q270 581 220 581Q196 581 182.5 595.5Q169 610 169 636Z" glyph-name="cdotaccent" horiz-adv-x="405" unicode="&#267;" /><glyph d="M237 -235Q207 -235 180.5 -221.5Q154 -208 137 -173L182 -143Q201 -186 237 -186Q256 -186 267 -174.5Q278 -163 278 -145Q278 -127 267 -115Q256 -103 239 -103Q234 -103 230.5 -103.5Q227 -104 222 -105L208 -90L225 0H275L262 -62H265Q292 -62 313 -82.5Q334 -103 334 -143Q334 -191 306 -213Q278 -235 237 -235Z" glyph-name="cedilla" horiz-adv-x="454" unicode="&#184;" /><glyph d="M369 136Q361 114 349.5 93.5Q338 73 321.5 57Q305 41 282.5 30Q260 19 231 16V-62H176V16Q106 25 68 82.5Q30 140 30 257Q30 369 68 427Q106 485 176 496V578H231V498Q331 489 364 377L301 347Q280 421 231 431V79Q286 91 307 164ZM102 256Q102 172 120 131Q138 90 176 80V430Q138 420 120 380Q102 340 102 256Z" glyph-name="cent" horiz-adv-x="400" unicode="&#162;" /><glyph d="M225 644 175 574H99V577L191 689H262L355 577V574H276Z" glyph-name="circumflex" horiz-adv-x="454" unicode="&#710;" /><glyph d="M40 0ZM91 -5Q67 -5 53.5 9.5Q40 24 40 50Q40 77 53.5 91Q67 105 91 105Q142 105 142 50Q142 24 129 9.5Q116 -5 91 -5ZM91 374Q67 374 53.5 388.5Q40 403 40 429Q40 456 53.5 470Q67 484 91 484Q142 484 142 429Q142 403 129 388.5Q116 374 91 374Z" glyph-name="colon" horiz-adv-x="182" unicode=":" /><glyph d="M55 -129 32 -93Q61 -77 76.5 -53Q92 -29 94 -2Q71 -4 55.5 9Q40 22 40 51Q40 78 54 91.5Q68 105 91 105Q117 105 131 88Q145 71 145 33Q145 -21 122.5 -64.5Q100 -108 55 -129Z" glyph-name="comma" horiz-adv-x="184" unicode="," /><glyph d="M276 -132Q276 -187 253.5 -227Q231 -267 191 -286L167 -253Q192 -239 209 -216Q226 -193 227 -164Q206 -167 191 -154.5Q176 -142 176 -115Q176 -90 189.5 -77.5Q203 -65 226 -65Q276 -65 276 -132Z" glyph-name="commaaccent" horiz-adv-x="454" unicode="&#63171;" /><glyph d="M47 350Q47 431 66 494.5Q85 558 120.5 602Q156 646 205.5 669Q255 692 315 692Q375 692 423.5 669Q472 646 506.5 602Q541 558 560 494.5Q579 431 579 350Q579 269 560 205.5Q541 142 506.5 97.5Q472 53 423.5 30Q375 7 315 7Q255 7 205.5 30Q156 53 120.5 97.5Q85 142 66 205.5Q47 269 47 350ZM88 350Q88 274 105 216.5Q122 159 152.5 120.5Q183 82 224.5 62.5Q266 43 315 43Q364 43 405 62.5Q446 82 476 120.5Q506 159 522.5 216.5Q539 274 539 350Q539 426 522.5 483Q506 540 476 578.5Q446 617 405 636.5Q364 656 315 656Q266 656 224.5 636.5Q183 617 152.5 578.5Q122 540 105 483Q88 426 88 350ZM439 275Q407 177 316 177Q286 177 262 186.5Q238 196 221 217Q204 238 194.5 272Q185 306 185 354Q185 449 221 490Q257 531 319 531Q364 531 392 509.5Q420 488 437 442L386 417Q375 447 358.5 464Q342 481 318 481Q281 481 262.5 453.5Q244 426 244 353Q244 282 263.5 255.5Q283 229 318 229Q344 229 361 243.5Q378 258 389 293Z" glyph-name="copyright" horiz-adv-x="628" unicode="&#169;" /><glyph d="M157 348Q97 348 63.5 391Q30 434 30 531Q30 625 63.5 668.5Q97 712 160 712Q246 712 272 633L226 604Q215 630 199 645.5Q183 661 160 661Q123 661 106 632Q89 603 89 530Q89 459 106 430Q123 401 160 401Q186 401 201.5 414Q217 427 228 460L274 436Q245 348 157 348Z" glyph-name="cordinal" horiz-adv-x="300" /><glyph d="M322 242Q322 343 293 387.5Q264 432 219 432Q168 432 144 386Q120 340 120 243Q120 145 144.5 99.5Q169 54 219 54Q264 54 293 98.5Q322 143 322 242ZM335 0 328 82Q308 35 276 11.5Q244 -12 196 -12Q122 -12 81.5 53.5Q41 119 41 244Q41 369 83.5 434Q126 499 204 499Q244 499 273 477.5Q302 456 322 415V700H401V0Z" glyph-name="d" horiz-adv-x="467" unicode="d" /><glyph d="M201 532H152L150 299H85V532H34V589H84L83 708H154L152 589H201Z" glyph-name="dagger" horiz-adv-x="237" unicode="&#8224;" /><glyph d="M34 476H86V539H34V597H85L83 708H154L151 597H201V539H151V476H201V417H151L154 299H83L84 417H34Z" glyph-name="daggerdbl" horiz-adv-x="237" unicode="&#8225;" /><glyph d="M41 0ZM516 482H462L467 700H538ZM322 242Q322 343 293 387.5Q264 432 219 432Q168 432 144 386Q120 340 120 243Q120 145 144.5 99.5Q169 54 219 54Q264 54 293 98.5Q322 143 322 242ZM335 0 328 82Q308 35 276 11.5Q244 -12 196 -12Q122 -12 81.5 53.5Q41 119 41 244Q41 369 83.5 434Q126 499 204 499Q244 499 273 477.5Q302 456 322 415V700H401V0Z" glyph-name="dcaron" horiz-adv-x="520" unicode="&#271;" /><glyph d="M322 242Q322 342 293.5 387Q265 432 219 432Q168 432 144 386Q120 340 120 243Q120 145 144 99.5Q168 54 218 54Q264 54 293 98.5Q322 143 322 242ZM328 83Q288 -12 196 -12Q122 -12 81.5 53.5Q41 119 41 244Q41 369 83.5 434Q126 499 204 499Q282 499 322 414V557H209V613H322V700H401V613H457V557H401V0H335Z" glyph-name="dcroat" horiz-adv-x="479" unicode="&#273;" /><glyph d="M178 352Q109 352 71.5 401Q34 450 34 531Q34 612 71.5 661Q109 710 178 710Q245 710 283 661Q321 612 321 531Q321 450 283 401Q245 352 178 352ZM178 656Q138 656 115 624.5Q92 593 92 531Q92 470 115 438.5Q138 407 178 407Q216 407 240 438.5Q264 470 264 531Q264 593 240 624.5Q216 656 178 656Z" glyph-name="degree" horiz-adv-x="355" unicode="&#176;" /><glyph d="M251 637Q251 691 300 691Q350 691 350 637Q350 582 300 582Q251 582 251 637ZM111 637Q111 663 124 677Q137 691 160 691Q211 691 211 637Q211 582 160 582Q137 582 124 596.5Q111 611 111 637Z" glyph-name="dieresis" horiz-adv-x="454" unicode="&#168;" /><glyph d="M145 473Q145 529 192 529Q214 529 227 514.5Q240 500 240 473Q240 447 227 432.5Q214 418 192 418Q169 418 157 432.5Q145 447 145 473ZM344 344V275H40V344ZM145 149Q145 204 192 204Q214 204 227 190Q240 176 240 149Q240 120 227 106.5Q214 93 192 93Q145 93 145 149Z" glyph-name="divide" horiz-adv-x="383" unicode="&#247;" /><glyph d="M196 406V615Q154 610 136 582Q118 554 118 517Q118 440 196 406ZM249 79Q290 86 310.5 113Q331 140 331 181Q331 226 313 252Q295 278 249 299ZM249 -62H196V14Q136 20 90 55Q44 90 19 170L84 199Q99 145 127.5 116Q156 87 196 79V320Q46 379 46 511Q46 581 85 626.5Q124 672 196 679V766H249V679Q371 667 402 529L339 501Q325 552 302 578Q279 604 249 612V385Q327 354 365 309Q403 264 403 187Q403 111 362 68Q321 25 249 17Z" glyph-name="dollar" horiz-adv-x="442" unicode="$" /><glyph d="M178 636Q178 662 191.5 676Q205 690 229 690Q279 690 279 636Q279 581 229 581Q205 581 191.5 595.5Q178 610 178 636Z" glyph-name="dotaccent" horiz-adv-x="454" unicode="&#729;" /><glyph d="M67 487H146V0H67Z" glyph-name="dotlessi" horiz-adv-x="214" unicode="&#305;" /><glyph d="M67 -44V487H146V-55Q146 -139 113 -177Q80 -215 24 -215Q6 -215 -11.5 -212.5Q-29 -210 -49 -202L-28 -129Q-17 -134 -8 -137Q1 -140 14 -140Q39 -140 53 -120Q67 -100 67 -44Z" glyph-name="dotlessj" horiz-adv-x="214" unicode="&#567;" /><glyph d="M204 -65V766H275V-65ZM79 -65V766H151V-65Z" glyph-name="doublebar" horiz-adv-x="354" /><glyph d="M220 -12Q136 -12 88.5 49.5Q41 111 41 243Q41 369 86.5 434Q132 499 220 499Q262 499 292.5 481.5Q323 464 342.5 432.5Q362 401 371.5 358Q381 315 381 265Q381 253 380.5 241.5Q380 230 379 219H118Q119 173 127 141.5Q135 110 148 90.5Q161 71 180 62Q199 53 223 53Q293 53 321 145L385 115Q376 90 362.5 67Q349 44 329.5 26.5Q310 9 283.5 -1.5Q257 -12 220 -12ZM218 433Q174 433 148.5 398.5Q123 364 119 282H305Q303 363 281 398Q259 433 218 433Z" glyph-name="e" horiz-adv-x="420" unicode="e" /><glyph d="M41 0ZM220 -12Q136 -12 88.5 49.5Q41 111 41 243Q41 369 86.5 434Q132 499 220 499Q262 499 292.5 481.5Q323 464 342.5 432.5Q362 401 371.5 358Q381 315 381 265Q381 253 380.5 241.5Q380 230 379 219H118Q119 173 127 141.5Q135 110 148 90.5Q161 71 180 62Q199 53 223 53Q293 53 321 145L385 115Q376 90 362.5 67Q349 44 329.5 26.5Q310 9 283.5 -1.5Q257 -12 220 -12ZM218 433Q174 433 148.5 398.5Q123 364 119 282H305Q303 363 281 398Q259 433 218 433ZM333 683 244 574H180V578L239 689H333Z" glyph-name="eacute" horiz-adv-x="420" unicode="&#233;" /><glyph d="M41 0ZM220 -12Q136 -12 88.5 49.5Q41 111 41 243Q41 369 86.5 434Q132 499 220 499Q262 499 292.5 481.5Q323 464 342.5 432.5Q362 401 371.5 358Q381 315 381 265Q381 253 380.5 241.5Q380 230 379 219H118Q119 173 127 141.5Q135 110 148 90.5Q161 71 180 62Q199 53 223 53Q293 53 321 145L385 115Q376 90 362.5 67Q349 44 329.5 26.5Q310 9 283.5 -1.5Q257 -12 220 -12ZM218 433Q174 433 148.5 398.5Q123 364 119 282H305Q303 363 281 398Q259 433 218 433ZM273 689H328Q328 620 298.5 594Q269 568 216 568Q162 568 133 594Q104 620 104 689H158Q158 651 172.5 636.5Q187 622 215 622Q244 622 258.5 636.5Q273 651 273 689Z" glyph-name="ebreve" horiz-adv-x="420" unicode="&#277;" /><glyph d="M41 0ZM220 -12Q136 -12 88.5 49.5Q41 111 41 243Q41 369 86.5 434Q132 499 220 499Q262 499 292.5 481.5Q323 464 342.5 432.5Q362 401 371.5 358Q381 315 381 265Q381 253 380.5 241.5Q380 230 379 219H118Q119 173 127 141.5Q135 110 148 90.5Q161 71 180 62Q199 53 223 53Q293 53 321 145L385 115Q376 90 362.5 67Q349 44 329.5 26.5Q310 9 283.5 -1.5Q257 -12 220 -12ZM218 433Q174 433 148.5 398.5Q123 364 119 282H305Q303 363 281 398Q259 433 218 433ZM217 622 270 689H346V687L252 574H181L90 687V689H168Z" glyph-name="ecaron" horiz-adv-x="420" unicode="&#283;" /><glyph d="M41 0ZM220 -12Q136 -12 88.5 49.5Q41 111 41 243Q41 369 86.5 434Q132 499 220 499Q262 499 292.5 481.5Q323 464 342.5 432.5Q362 401 371.5 358Q381 315 381 265Q381 253 380.5 241.5Q380 230 379 219H118Q119 173 127 141.5Q135 110 148 90.5Q161 71 180 62Q199 53 223 53Q293 53 321 145L385 115Q376 90 362.5 67Q349 44 329.5 26.5Q310 9 283.5 -1.5Q257 -12 220 -12ZM218 433Q174 433 148.5 398.5Q123 364 119 282H305Q303 363 281 398Q259 433 218 433ZM215 644 165 574H89V577L181 689H252L345 577V574H266Z" glyph-name="ecircumflex" horiz-adv-x="420" unicode="&#234;" /><glyph d="M41 0ZM220 -12Q136 -12 88.5 49.5Q41 111 41 243Q41 369 86.5 434Q132 499 220 499Q262 499 292.5 481.5Q323 464 342.5 432.5Q362 401 371.5 358Q381 315 381 265Q381 253 380.5 241.5Q380 230 379 219H118Q119 173 127 141.5Q135 110 148 90.5Q161 71 180 62Q199 53 223 53Q293 53 321 145L385 115Q376 90 362.5 67Q349 44 329.5 26.5Q310 9 283.5 -1.5Q257 -12 220 -12ZM218 433Q174 433 148.5 398.5Q123 364 119 282H305Q303 363 281 398Q259 433 218 433ZM240 637Q240 691 289 691Q339 691 339 637Q339 582 289 582Q240 582 240 637ZM100 637Q100 663 113 677Q126 691 149 691Q200 691 200 637Q200 582 149 582Q126 582 113 596.5Q100 611 100 637Z" glyph-name="edieresis" horiz-adv-x="420" unicode="&#235;" /><glyph d="M41 0ZM220 -12Q136 -12 88.5 49.5Q41 111 41 243Q41 369 86.5 434Q132 499 220 499Q262 499 292.5 481.5Q323 464 342.5 432.5Q362 401 371.5 358Q381 315 381 265Q381 253 380.5 241.5Q380 230 379 219H118Q119 173 127 141.5Q135 110 148 90.5Q161 71 180 62Q199 53 223 53Q293 53 321 145L385 115Q376 90 362.5 67Q349 44 329.5 26.5Q310 9 283.5 -1.5Q257 -12 220 -12ZM218 433Q174 433 148.5 398.5Q123 364 119 282H305Q303 363 281 398Q259 433 218 433ZM165 636Q165 662 178.5 676Q192 690 216 690Q266 690 266 636Q266 581 216 581Q192 581 178.5 595.5Q165 610 165 636Z" glyph-name="edotaccent" horiz-adv-x="420" unicode="&#279;" /><glyph d="M41 0ZM220 -12Q136 -12 88.5 49.5Q41 111 41 243Q41 369 86.5 434Q132 499 220 499Q262 499 292.5 481.5Q323 464 342.5 432.5Q362 401 371.5 358Q381 315 381 265Q381 253 380.5 241.5Q380 230 379 219H118Q119 173 127 141.5Q135 110 148 90.5Q161 71 180 62Q199 53 223 53Q293 53 321 145L385 115Q376 90 362.5 67Q349 44 329.5 26.5Q310 9 283.5 -1.5Q257 -12 220 -12ZM218 433Q174 433 148.5 398.5Q123 364 119 282H305Q303 363 281 398Q259 433 218 433ZM191 576 101 685V691H197L255 580V576Z" glyph-name="egrave" horiz-adv-x="420" unicode="&#232;" /><glyph d="M72 0ZM267 -12Q222 -12 185.5 2.5Q149 17 124 43.5Q99 70 85.5 107.5Q72 145 72 190Q72 258 100.5 304.5Q129 351 172 368Q135 391 112.5 431.5Q90 472 90 526Q90 613 138 662.5Q186 712 267 712Q349 712 397 662.5Q445 613 445 526Q445 472 422 431.5Q399 391 363 368Q406 351 434.5 304.5Q463 258 463 190Q463 145 449.5 107.5Q436 70 410.5 43.5Q385 17 349 2.5Q313 -12 267 -12ZM369 523Q369 548 362.5 570Q356 592 343 608.5Q330 625 311 634.5Q292 644 268 644Q244 644 225 634.5Q206 625 193 608.5Q180 592 173 570Q166 548 166 523Q166 498 172.5 476Q179 454 192 437.5Q205 421 224 411.5Q243 402 267 402Q291 402 310 411.5Q329 421 342 437.5Q355 454 362 476Q369 498 369 523ZM267 55Q324 55 354 94Q384 133 384 195Q384 253 353 292Q322 331 267 331Q213 331 182 292.5Q151 254 151 195Q151 133 181 94Q211 55 267 55Z" glyph-name="eight" horiz-adv-x="535" unicode="8" /><glyph d="M251 -12Q206 -12 169.5 2.5Q133 17 108 43.5Q83 70 69.5 107.5Q56 145 56 190Q56 258 84.5 304.5Q113 351 156 368Q119 391 96.5 431.5Q74 472 74 526Q74 613 122 662.5Q170 712 251 712Q333 712 381 662.5Q429 613 429 526Q429 472 406 431.5Q383 391 347 368Q390 351 418.5 304.5Q447 258 447 190Q447 145 433.5 107.5Q420 70 394.5 43.5Q369 17 333 2.5Q297 -12 251 -12ZM353 523Q353 548 346.5 570Q340 592 327 608.5Q314 625 295 634.5Q276 644 252 644Q228 644 209 634.5Q190 625 177 608.5Q164 592 157 570Q150 548 150 523Q150 498 156.5 476Q163 454 176 437.5Q189 421 208 411.5Q227 402 251 402Q275 402 294 411.5Q313 421 326 437.5Q339 454 346 476Q353 498 353 523ZM251 55Q308 55 338 94Q368 133 368 195Q368 253 337 292Q306 331 251 331Q197 331 166 292.5Q135 254 135 195Q135 133 165 94Q195 55 251 55Z" glyph-name="eight.LP" horiz-adv-x="503" /><glyph d="M229 -12Q185 -12 150 3Q115 18 91 44.5Q67 71 54 108Q41 145 41 190Q41 258 68.5 304.5Q96 351 138 368Q103 391 81 432Q59 473 59 527Q59 611 104.5 661.5Q150 712 229 712Q307 712 352.5 661.5Q398 611 398 527Q398 473 375.5 432Q353 391 318 368Q361 351 388.5 304.5Q416 258 416 190Q416 145 403 108Q390 71 366 44.5Q342 18 307.5 3Q273 -12 229 -12ZM325 524Q325 578 300 611.5Q275 645 229 645Q182 645 157.5 611.5Q133 578 133 524Q133 471 157.5 436.5Q182 402 229 402Q275 402 300 436.5Q325 471 325 524ZM229 55Q283 55 311 93.5Q339 132 339 193Q339 253 310 292Q281 331 229 331Q177 331 147.5 292Q118 253 118 193Q118 132 146.5 93.5Q175 55 229 55Z" glyph-name="eight.OP" horiz-adv-x="457" /><glyph d="M267 -12Q222 -12 185.5 2.5Q149 17 124 43.5Q99 70 85.5 107.5Q72 145 72 190Q72 258 100.5 304.5Q129 351 172 368Q135 391 112.5 431.5Q90 472 90 526Q90 613 138 662.5Q186 712 267 712Q349 712 397 662.5Q445 613 445 526Q445 472 422 431.5Q399 391 363 368Q406 351 434.5 304.5Q463 258 463 190Q463 145 449.5 107.5Q436 70 410.5 43.5Q385 17 349 2.5Q313 -12 267 -12ZM369 523Q369 548 362.5 570Q356 592 343 608.5Q330 625 311 634.5Q292 644 268 644Q244 644 225 634.5Q206 625 193 608.5Q180 592 173 570Q166 548 166 523Q166 498 172.5 476Q179 454 192 437.5Q205 421 224 411.5Q243 402 267 402Q291 402 310 411.5Q329 421 342 437.5Q355 454 362 476Q369 498 369 523ZM267 55Q324 55 354 94Q384 133 384 195Q384 253 353 292Q322 331 267 331Q213 331 182 292.5Q151 254 151 195Q151 133 181 94Q211 55 267 55Z" glyph-name="eight.OT" horiz-adv-x="535" /><glyph d="M31 0ZM152 -208Q95 -208 63 -175.5Q31 -143 31 -88Q31 -49 47 -22.5Q63 4 89 15Q68 29 55 52.5Q42 76 42 106Q42 159 71.5 188.5Q101 218 152 218Q203 218 232 188.5Q261 159 261 106Q261 76 248 52.5Q235 29 215 15Q240 4 256 -22.5Q272 -49 272 -88Q272 -143 240.5 -175.5Q209 -208 152 -208ZM204 103Q204 129 190.5 147Q177 165 153 165Q127 165 113.5 147Q100 129 100 103Q100 77 113 59Q126 41 152 41Q177 41 190.5 59Q204 77 204 103ZM211 -85Q211 -55 195.5 -34.5Q180 -14 152 -14Q123 -14 108 -34.5Q93 -55 93 -85Q93 -117 108 -137Q123 -157 152 -157Q181 -157 196 -137Q211 -117 211 -85Z" glyph-name="eight.inf" horiz-adv-x="303" /><glyph d="M447 -5Q423 -5 409.5 9.5Q396 24 396 50Q396 77 409.5 91Q423 105 447 105Q497 105 497 50Q497 24 484.5 9.5Q472 -5 447 -5ZM269 -5Q245 -5 231.5 9.5Q218 24 218 50Q218 77 231.5 91Q245 105 269 105Q320 105 320 50Q320 24 307 9.5Q294 -5 269 -5ZM91 -5Q67 -5 53.5 9.5Q40 24 40 50Q40 77 53.5 91Q67 105 91 105Q142 105 142 50Q142 24 129 9.5Q116 -5 91 -5Z" glyph-name="ellipsis" horiz-adv-x="538" unicode="&#8230;" /><glyph d="M41 0ZM220 -12Q136 -12 88.5 49.5Q41 111 41 243Q41 369 86.5 434Q132 499 220 499Q262 499 292.5 481.5Q323 464 342.5 432.5Q362 401 371.5 358Q381 315 381 265Q381 253 380.5 241.5Q380 230 379 219H118Q119 173 127 141.5Q135 110 148 90.5Q161 71 180 62Q199 53 223 53Q293 53 321 145L385 115Q376 90 362.5 67Q349 44 329.5 26.5Q310 9 283.5 -1.5Q257 -12 220 -12ZM218 433Q174 433 148.5 398.5Q123 364 119 282H305Q303 363 281 398Q259 433 218 433ZM315 659V601H118V659Z" glyph-name="emacron" horiz-adv-x="420" unicode="&#275;" /><glyph d="M556 289V220H38V289Z" glyph-name="emdash" horiz-adv-x="594" unicode="&#8212;" /><glyph d="M38 315ZM556 384V315H38V384Z" glyph-name="emdash.cap" horiz-adv-x="594" /><glyph glyph-name="emspace" horiz-adv-x="750" unicode="&#8195;" /><glyph d="M406 289V220H38V289Z" glyph-name="endash" horiz-adv-x="444" unicode="&#8211;" /><glyph d="M38 315ZM406 384V315H38V384Z" glyph-name="endash.cap" horiz-adv-x="444" /><glyph d="M339 -45V300Q339 369 318 399.5Q297 430 255 430Q206 430 176.5 381.5Q147 333 146 243V0H66V487H135L143 394Q163 451 199.5 475Q236 499 281 499Q418 499 418 318V-59Q418 -140 384.5 -177.5Q351 -215 295 -215Q277 -215 259.5 -212.5Q242 -210 222 -202L243 -129Q254 -134 263 -137Q272 -140 285 -140Q312 -140 325.5 -120.5Q339 -101 339 -45Z" glyph-name="eng" horiz-adv-x="479" unicode="&#331;" /><glyph glyph-name="enspace" horiz-adv-x="375" unicode="&#8194;" /><glyph d="M263 -211Q245 -211 227 -206Q209 -201 195 -189Q181 -177 172.5 -157Q164 -137 164 -106Q164 -76 173.5 -52Q183 -28 197 -11Q123 -3 82 58.5Q41 120 41 243Q41 369 86.5 434Q132 499 220 499Q262 499 292.5 481.5Q323 464 342.5 432.5Q362 401 371.5 358Q381 315 381 265Q381 253 380.5 241.5Q380 230 379 219H118Q119 173 127 141.5Q135 110 148 90.5Q161 71 180 62Q199 53 223 53Q293 53 321 145L385 115Q370 76 345 43Q320 10 275 -4Q247 -15 232.5 -41Q218 -67 218 -96Q218 -128 233 -140Q248 -152 268 -152Q294 -152 314 -135L340 -184Q322 -198 304 -204.5Q286 -211 263 -211ZM218 433Q174 433 148.5 398.5Q123 364 119 282H305Q303 363 281 398Q259 433 218 433Z" glyph-name="eogonek" horiz-adv-x="420" unicode="&#281;" /><glyph d="M344 415V346H40V415ZM344 273V204H40V273Z" glyph-name="equal" horiz-adv-x="383" unicode="=" /><glyph d="M26 0ZM211 51V-4H26V51ZM211 -36V-90H26V-36Z" glyph-name="equal.inf" horiz-adv-x="237" /><glyph d="M225 -12Q136 -12 88.5 48Q41 108 41 242Q41 374 88.5 435Q136 496 222 496Q282 496 319 447Q312 484 300.5 516.5Q289 549 272 577L209 527L186 573L241 617Q199 660 137 683L166 740Q243 716 293 660L362 717L387 671L324 621Q366 556 386 464Q406 372 406 253V242Q406 111 360.5 49.5Q315 -12 225 -12ZM329 242Q329 344 304.5 387Q280 430 225 430Q170 430 144.5 387Q119 344 119 242Q119 139 145 97Q171 55 225 55Q279 55 304 97Q329 139 329 242Z" glyph-name="eth" horiz-adv-x="447" unicode="&#240;" /><glyph d="M133 700 120 192H59L48 700ZM90 -5Q66 -5 52.5 9.5Q39 24 39 50Q39 77 52.5 91Q66 105 90 105Q141 105 141 50Q141 24 128 9.5Q115 -5 90 -5Z" glyph-name="exclam" horiz-adv-x="180" unicode="!" /><glyph d="M43 -202 56 306H117L128 -202ZM86 503Q110 503 123.5 488.5Q137 474 137 448Q137 421 123.5 407Q110 393 86 393Q35 393 35 448Q35 474 48 488.5Q61 503 86 503Z" glyph-name="exclamdown" horiz-adv-x="180" unicode="&#161;" /><glyph d="M43 0 56 508H117L128 0ZM86 705Q110 705 123.5 690.5Q137 676 137 650Q137 623 123.5 609Q110 595 86 595Q35 595 35 650Q35 676 48 690.5Q61 705 86 705Z" glyph-name="exclamdown.cap" horiz-adv-x="180" /><glyph d="M266 422H164V0H85V422H19V487H85V557Q85 599 95 630Q105 661 123 680.5Q141 700 165 709.5Q189 719 216 719Q254 719 284 700L264 631Q241 643 219 643Q196 643 180 624.5Q164 606 164 556V487H266Z" glyph-name="f" horiz-adv-x="277" unicode="f" /><glyph d="M381 580Q357 580 343 595Q329 610 329 637Q329 664 343 678Q357 692 381 692Q405 692 419 678Q433 664 433 637Q433 610 419 595Q405 580 381 580ZM266 422H164V0H85V422H19V487H85V557Q85 599 95 630Q105 661 123 680.5Q141 700 165 709.5Q189 719 216 719Q254 719 284 700L264 631Q241 643 219 643Q196 643 180 624.5Q164 606 164 556V487H266ZM342 487H421V0H342Z" glyph-name="fi" horiz-adv-x="487" unicode="&#64257;" /><glyph d="M406 289V220H38V289Z" glyph-name="figuredash" horiz-adv-x="444" unicode="&#8210;" /><glyph d="M38 315ZM406 384V315H38V384Z" glyph-name="figuredash.cap" horiz-adv-x="444" /><glyph glyph-name="figurespace" horiz-adv-x="469" unicode="&#8199;" /><glyph d="M69 0ZM266 -13Q232 -13 201 -5.5Q170 2 144 19.5Q118 37 98.5 64Q79 91 69 130L135 160Q149 103 184.5 78.5Q220 54 264 54Q326 54 357 100Q388 146 388 223Q388 301 356.5 338Q325 375 265 375Q230 375 200.5 360Q171 345 147 318L94 341L119 700H435V629H186L172 403Q196 425 225.5 435Q255 445 287 445Q325 445 358 433Q391 421 415 394.5Q439 368 453 326.5Q467 285 467 226Q467 174 454.5 130Q442 86 417.5 54.5Q393 23 355 5Q317 -13 266 -13Z" glyph-name="five" horiz-adv-x="535" unicode="5" /><glyph d="M213 -13Q179 -13 148 -5.5Q117 2 91 19.5Q65 37 45.5 64Q26 91 16 130L82 160Q96 103 131.5 78.5Q167 54 211 54Q273 54 304 100Q335 146 335 223Q335 301 303.5 338Q272 375 212 375Q177 375 147.5 360Q118 345 94 318L41 341L66 700H382V629H133L119 403Q143 425 172.5 435Q202 445 234 445Q272 445 305 433Q338 421 362 394.5Q386 368 400 326.5Q414 285 414 226Q414 174 401.5 130Q389 86 364.5 54.5Q340 23 302 5Q264 -13 213 -13Z" glyph-name="five.LP" horiz-adv-x="461" /><glyph d="M204 -113Q134 -113 83.5 -78Q33 -43 14 29L81 60Q95 2 128.5 -22.5Q162 -47 204 -47Q264 -47 294.5 -0.5Q325 46 325 123Q325 201 295 238Q265 275 211 275Q176 275 148 260Q120 245 98 218L43 241L69 600H377V529H137L123 303Q143 322 171.5 333.5Q200 345 236 345Q270 345 300.5 333Q331 321 353.5 294.5Q376 268 389.5 226.5Q403 185 403 126Q403 74 390.5 30Q378 -14 353.5 -45.5Q329 -77 291.5 -95Q254 -113 204 -113Z" glyph-name="five.OP" horiz-adv-x="440" /><glyph d="M266 -113Q232 -113 201 -105.5Q170 -98 144 -80.5Q118 -63 98.5 -36Q79 -9 69 30L135 60Q149 3 184.5 -21.5Q220 -46 264 -46Q326 -46 357 0Q388 46 388 123Q388 201 356.5 238Q325 275 265 275Q230 275 200.5 260Q171 245 147 218L94 241L119 600H435V529H186L172 303Q196 325 225.5 335Q255 345 287 345Q325 345 358 333Q391 321 415 294.5Q439 268 453 226.5Q467 185 467 126Q467 74 454.5 30Q442 -14 417.5 -45.5Q393 -77 355 -95Q317 -113 266 -113Z" glyph-name="five.OT" horiz-adv-x="535" /><glyph d="M11 0ZM92 155 85 41Q98 52 115 57Q132 62 149 62Q194 62 225 32Q256 2 256 -67Q256 -130 225 -169Q194 -208 131 -208Q89 -208 57 -188.5Q25 -169 11 -122L60 -99Q69 -130 87.5 -142.5Q106 -155 129 -155Q161 -155 177 -131.5Q193 -108 193 -68Q193 11 130 11Q93 11 69 -21L27 -1L41 210H239V155Z" glyph-name="five.inf" horiz-adv-x="282" /><glyph d="M266 422H164V0H85V422H19V487H85V557Q85 599 95 630Q105 661 123 680.5Q141 700 165 709.5Q189 719 216 719Q254 719 284 700L264 631Q241 643 219 643Q196 643 180 624.5Q164 606 164 556V487H266ZM421 109Q421 68 457 68H485V0H437Q396 0 369 22Q342 44 342 97V700H421Z" glyph-name="fl" horiz-adv-x="499" unicode="&#64258;" /><glyph d="M266 422H164V0H85V422H19V487H85V557Q85 599 95 630Q105 661 123 680.5Q141 700 165 709.5Q189 719 216 719Q254 719 284 700L264 631Q241 643 219 643Q196 643 180 624.5Q164 606 164 556V487H266ZM421 700V0H342V700Z" glyph-name="fl.alt" horiz-adv-x="482" /><glyph d="M-15 -215Q-31 -215 -47.5 -212.5Q-64 -210 -78 -203L-57 -133Q-47 -138 -38.5 -141Q-30 -144 -17 -144Q-5 -144 5 -139Q15 -134 22.5 -122Q30 -110 36 -90Q42 -70 45 -39L86 310H22L31 372H94L103 449Q111 531 144.5 575Q178 619 241 619Q261 619 281 614.5Q301 610 315 603L293 533Q284 539 273 543.5Q262 548 249 548Q238 548 227 543Q216 538 206.5 526Q197 514 189.5 494Q182 474 179 444L172 372H274L264 310H162L124 -46Q115 -134 78 -174.5Q41 -215 -15 -215Z" glyph-name="florin" horiz-adv-x="295" unicode="&#402;" /><glyph d="M45 0ZM45 184V242L216 700H294L127 257H334V575H414V257H490V184H414V0H334V184Z" glyph-name="four" horiz-adv-x="535" unicode="4" /><glyph d="M24 184V242L195 700H273L106 257H313V575H393V257H469V184H393V0H313V184Z" glyph-name="four.LP" horiz-adv-x="487" /><glyph d="M28 84V139L191 600H268L107 154H304V475H382V154H452V84H382V-100H304V84Z" glyph-name="four.OP" horiz-adv-x="470" /><glyph d="M45 84V142L216 600H294L127 157H334V475H414V157H490V84H414V-100H334V84Z" glyph-name="four.OT" horiz-adv-x="535" /><glyph d="M16 0ZM16 -100V-54L113 210H174L80 -43H186V121H247V-43H289V-100H247V-200H186V-100Z" glyph-name="four.inf" horiz-adv-x="302" /><glyph glyph-name="fourperemspace" horiz-adv-x="188" unicode="&#8197;" /><glyph d="M359 700 104 0H32L286 700Z" glyph-name="fraction" horiz-adv-x="394" unicode="&#8260;" /><glyph d="M322 251Q322 347 293.5 389.5Q265 432 220 432Q170 432 145 388.5Q120 345 120 250Q120 155 145 110Q170 65 217 65Q264 65 293 109.5Q322 154 322 251ZM213 -215Q141 -215 99.5 -182.5Q58 -150 35 -90L102 -58Q116 -103 142.5 -126Q169 -149 207 -149Q322 -149 322 5V86Q304 43 272 21.5Q240 0 198 0Q126 0 83.5 62Q41 124 41 249Q41 371 83.5 435Q126 499 207 499Q286 499 329 412L334 487H401V5Q401 -51 387.5 -92.5Q374 -134 349 -161Q324 -188 289.5 -201.5Q255 -215 213 -215Z" glyph-name="g" horiz-adv-x="467" unicode="g" /><glyph d="M35 0ZM322 251Q322 347 293.5 389.5Q265 432 220 432Q170 432 145 388.5Q120 345 120 250Q120 155 145 110Q170 65 217 65Q264 65 293 109.5Q322 154 322 251ZM213 -215Q141 -215 99.5 -182.5Q58 -150 35 -90L102 -58Q116 -103 142.5 -126Q169 -149 207 -149Q322 -149 322 5V86Q304 43 272 21.5Q240 0 198 0Q126 0 83.5 62Q41 124 41 249Q41 371 83.5 435Q126 499 207 499Q286 499 329 412L334 487H401V5Q401 -51 387.5 -92.5Q374 -134 349 -161Q324 -188 289.5 -201.5Q255 -215 213 -215ZM270 689H325Q325 620 295.5 594Q266 568 213 568Q159 568 130 594Q101 620 101 689H155Q155 651 169.5 636.5Q184 622 212 622Q241 622 255.5 636.5Q270 651 270 689Z" glyph-name="gbreve" horiz-adv-x="466" unicode="&#287;" /><glyph d="M35 0ZM213 644 163 574H87V577L179 689H250L343 577V574H264ZM322 251Q322 347 293.5 389.5Q265 432 220 432Q170 432 145 388.5Q120 345 120 250Q120 155 145 110Q170 65 217 65Q264 65 293 109.5Q322 154 322 251ZM213 -215Q141 -215 99.5 -182.5Q58 -150 35 -90L102 -58Q116 -103 142.5 -126Q169 -149 207 -149Q322 -149 322 5V86Q304 43 272 21.5Q240 0 198 0Q126 0 83.5 62Q41 124 41 249Q41 371 83.5 435Q126 499 207 499Q286 499 329 412L334 487H401V5Q401 -51 387.5 -92.5Q374 -134 349 -161Q324 -188 289.5 -201.5Q255 -215 213 -215Z" glyph-name="gcircumflex" horiz-adv-x="466" unicode="&#285;" /><glyph d="M160 632Q160 687 182.5 727Q205 767 245 786L269 753Q244 739 227 716Q210 693 209 664Q230 667 245 654.5Q260 642 260 615Q260 590 246.5 577.5Q233 565 210 565Q160 565 160 632ZM322 251Q322 347 293.5 389.5Q265 432 220 432Q170 432 145 388.5Q120 345 120 250Q120 155 145 110Q170 65 217 65Q264 65 293 109.5Q322 154 322 251ZM213 -215Q141 -215 99.5 -182.5Q58 -150 35 -90L102 -58Q116 -103 142.5 -126Q169 -149 207 -149Q322 -149 322 5V86Q304 43 272 21.5Q240 0 198 0Q126 0 83.5 62Q41 124 41 249Q41 371 83.5 435Q126 499 207 499Q286 499 329 412L334 487H401V5Q401 -51 387.5 -92.5Q374 -134 349 -161Q324 -188 289.5 -201.5Q255 -215 213 -215Z" glyph-name="gcommaaccent" horiz-adv-x="466" unicode="&#291;" /><glyph d="M35 0ZM322 251Q322 347 293.5 389.5Q265 432 220 432Q170 432 145 388.5Q120 345 120 250Q120 155 145 110Q170 65 217 65Q264 65 293 109.5Q322 154 322 251ZM213 -215Q141 -215 99.5 -182.5Q58 -150 35 -90L102 -58Q116 -103 142.5 -126Q169 -149 207 -149Q322 -149 322 5V86Q304 43 272 21.5Q240 0 198 0Q126 0 83.5 62Q41 124 41 249Q41 371 83.5 435Q126 499 207 499Q286 499 329 412L334 487H401V5Q401 -51 387.5 -92.5Q374 -134 349 -161Q324 -188 289.5 -201.5Q255 -215 213 -215ZM164 636Q164 662 177.5 676Q191 690 215 690Q265 690 265 636Q265 581 215 581Q191 581 177.5 595.5Q164 610 164 636Z" glyph-name="gdotaccent" horiz-adv-x="466" unicode="&#289;" /><glyph d="M254 343H226V410H252Q291 410 314 441.5Q337 473 337 527Q337 582 311.5 612.5Q286 643 243 643Q194 643 169.5 608Q145 573 145 510V0H66V509Q66 606 112 658.5Q158 711 245 711Q326 711 370.5 662Q415 613 415 532Q415 479 396.5 442Q378 405 346 384Q393 370 421 321Q449 272 449 196Q449 100 403 46Q357 -8 277 -8Q235 -8 199 10L219 72Q245 59 273 59Q318 59 344 93Q370 127 370 196Q370 260 342.5 301.5Q315 343 254 343Z" glyph-name="germandbls" horiz-adv-x="490" unicode="&#223;" /><glyph d="M205 574 115 683V689H211L269 578V574Z" glyph-name="grave" horiz-adv-x="454" unicode="`" /><glyph d="M98 94 64 148 233 307 63 465 99 523 307 328V290Z" glyph-name="greater" horiz-adv-x="371" unicode="&gt;" /><glyph d="M129 140 92 198 268 331 91 464 130 523 361 353V314ZM368 68V0H78V68Z" glyph-name="greaterequal" horiz-adv-x="446" unicode="&#8805;" /><glyph d="M185 0 40 241V244L184 487H269L124 245L272 0ZM354 0 205 243V246L350 487H436L290 247L442 0Z" glyph-name="guillemotleft" horiz-adv-x="487" unicode="&#171;" /><glyph d="M298 486 443 245V242L299 -1H214L359 241L211 486ZM129 486 278 243V240L133 -1H47L193 239L41 486Z" glyph-name="guillemotright" horiz-adv-x="487" unicode="&#187;" /><glyph d="M184 0 40 241V244L184 487H269L124 245L271 0Z" glyph-name="guilsinglleft" horiz-adv-x="318" unicode="&#8249;" /><glyph d="M129 486 273 245V242L129 -1H44L189 241L42 486Z" glyph-name="guilsinglright" horiz-adv-x="318" unicode="&#8250;" /><glyph d="M339 298Q339 369 317 399.5Q295 430 255 430Q205 430 176 381.5Q147 333 145 243V0H66V700H145V391Q165 449 202 474Q239 499 283 499Q418 499 418 318V0H339Z" glyph-name="h" horiz-adv-x="479" unicode="h" /><glyph glyph-name="hairspace" horiz-adv-x="75" unicode="&#8202;" /><glyph d="M156 244V0H77V557H22V613H77V700H156V613H269V557H156V390Q176 449 213 474.5Q250 500 294 500Q361 500 394.5 450.5Q428 401 428 304V0H349V285Q349 363 327 395.5Q305 428 266 428Q216 428 187 381Q158 334 156 244Z" glyph-name="hbar" horiz-adv-x="489" unicode="&#295;" /><glyph d="M0 0ZM339 298Q339 369 317 399.5Q295 430 255 430Q205 430 176 381.5Q147 333 145 243V0H66V700H145V391Q165 449 202 474Q239 499 283 499Q418 499 418 318V0H339ZM104 857 54 787H-22V790L70 902H141L234 790V787H155Z" glyph-name="hcircumflex" horiz-adv-x="479" unicode="&#293;" /><glyph d="M419 683 323 574H263V578L323 689H419ZM275 689V683L179 574H119V578L179 689Z" glyph-name="hungarumlaut" horiz-adv-x="454" unicode="&#733;" /><glyph d="M298 289V220H39V289Z" glyph-name="hyphen" horiz-adv-x="337" unicode="-" /><glyph d="M39 315ZM298 384V315H39V384Z" glyph-name="hyphen.cap" horiz-adv-x="337" /><glyph d="M54 637Q54 664 68 678Q82 692 106 692Q131 692 145 678Q159 664 159 637Q159 610 145 595Q131 580 106 580Q82 580 68 595Q54 610 54 637ZM67 487H146V0H67Z" glyph-name="i" horiz-adv-x="214" unicode="i" /><glyph d="M67 0ZM67 487H146V0H67ZM225 683 136 574H72V578L131 689H225Z" glyph-name="iacute" horiz-adv-x="214" unicode="&#237;" /><glyph d="M0 0ZM67 487H146V0H67ZM165 689H220Q220 620 190.5 594Q161 568 108 568Q54 568 25 594Q-4 620 -4 689H50Q50 651 64.5 636.5Q79 622 107 622Q136 622 150.5 636.5Q165 651 165 689Z" glyph-name="ibreve" horiz-adv-x="214" unicode="&#301;" /><glyph d="M0 0ZM67 487H146V0H67ZM107 644 57 574H-19V577L73 689H144L237 577V574H158Z" glyph-name="icircumflex" horiz-adv-x="214" unicode="&#238;" /><glyph d="M0 0ZM67 487H146V0H67ZM130 637Q130 691 179 691Q229 691 229 637Q229 582 179 582Q130 582 130 637ZM-10 637Q-10 663 3 677Q16 691 39 691Q90 691 90 637Q90 582 39 582Q16 582 3 596.5Q-10 611 -10 637Z" glyph-name="idieresis" horiz-adv-x="214" unicode="&#239;" /><glyph d="M54 637Q54 664 68 678Q82 692 106 692Q131 692 145 678Q159 664 159 637Q159 610 145 595Q131 580 106 580Q82 580 68 595Q54 610 54 637ZM67 487H146V0H67Z" glyph-name="idotaccent" horiz-adv-x="214" /><glyph d="M0 0ZM67 487H146V0H67ZM83 576 -7 685V691H89L147 580V576Z" glyph-name="igrave" horiz-adv-x="214" unicode="&#236;" /><glyph d="M54 0ZM54 637Q54 664 68 678Q82 692 106 692Q131 692 145 678Q159 664 159 637Q159 610 145 595Q131 580 106 580Q82 580 68 595Q54 610 54 637ZM67 487H146V0H67ZM317 580Q293 580 279 595Q265 610 265 637Q265 664 279 678Q293 692 317 692Q342 692 356 678Q370 664 370 637Q370 610 356 595Q342 580 317 580ZM278 -44V487H357V-55Q357 -139 324 -177Q291 -215 235 -215Q217 -215 200 -212.5Q183 -210 163 -201L183 -130Q193 -135 202 -137.5Q211 -140 224 -140Q250 -140 264 -120Q278 -100 278 -44Z" glyph-name="ij" horiz-adv-x="426" unicode="&#307;" /><glyph d="M10 0ZM67 487H146V0H67ZM207 659V601H10V659Z" glyph-name="imacron" horiz-adv-x="215" unicode="&#299;" /><glyph d="M54 637Q54 664 68 678Q82 692 106 692Q131 692 145 678Q159 664 159 637Q159 610 145 595Q131 580 106 580Q82 580 68 595Q54 610 54 637ZM164 -184Q146 -198 127.5 -204.5Q109 -211 86 -211Q68 -211 50.5 -206Q33 -201 19 -189Q5 -177 -3.5 -157Q-12 -137 -12 -106Q-12 -55 12 -22Q36 11 67 25V487H146V0H118Q100 -2 85.5 -11Q71 -20 61.5 -33.5Q52 -47 47 -63.5Q42 -80 42 -96Q42 -128 57 -140Q72 -152 92 -152Q118 -152 138 -135Z" glyph-name="iogonek" horiz-adv-x="214" unicode="&#303;" /><glyph d="M0 0ZM67 487H146V0H67ZM176 683H230Q232 654 226 635Q220 616 210 604.5Q200 593 187 588Q174 583 161 583Q145 583 131 589.5Q117 596 105 603.5Q93 611 82.5 617.5Q72 624 62 624Q48 624 44 613Q40 602 40 587H-15Q-16 615 -10.5 634.5Q-5 654 5 665Q15 676 27.5 681Q40 686 52 686Q69 686 83.5 679.5Q98 673 110 665.5Q122 658 132.5 651.5Q143 645 154 645Q168 645 172 656Q176 667 176 683Z" glyph-name="itilde" horiz-adv-x="214" unicode="&#297;" /><glyph d="M106 580Q82 580 68 595Q54 610 54 637Q54 664 68 678Q82 692 106 692Q131 692 145 678Q159 664 159 637Q159 610 145 595Q131 580 106 580ZM67 -44V487H146V-55Q146 -139 113 -177Q80 -215 24 -215Q6 -215 -11 -212.5Q-28 -210 -48 -201L-28 -130Q-18 -135 -9 -137.5Q0 -140 13 -140Q39 -140 53 -120Q67 -100 67 -44Z" glyph-name="j" horiz-adv-x="214" unicode="j" /><glyph d="M0 0ZM67 -44V487H146V-55Q146 -139 113 -177Q80 -215 24 -215Q6 -215 -11.5 -212.5Q-29 -210 -49 -202L-28 -129Q-17 -134 -8 -137Q1 -140 14 -140Q39 -140 53 -120Q67 -100 67 -44ZM107 644 57 574H-19V577L73 689H144L237 577V574H158Z" glyph-name="jcircumflex" horiz-adv-x="214" unicode="&#309;" /><glyph d="M146 126V0H66V700H146L144 226L309 487H400L248 274L402 0H312L203 206Z" glyph-name="k" horiz-adv-x="410" unicode="k" /><glyph d="M66 0V700H146V0ZM308 0 157 235V242L307 487H394L242 248L402 0Z" glyph-name="k.alt" horiz-adv-x="409" /><glyph d="M66 0ZM146 126V0H66V700H146L144 226L309 487H400L248 274L402 0H312L203 206ZM268 -132Q268 -187 245.5 -227Q223 -267 183 -286L159 -253Q184 -239 201 -216Q218 -193 219 -164Q198 -167 183 -154.5Q168 -142 168 -115Q168 -90 181.5 -77.5Q195 -65 218 -65Q268 -65 268 -132Z" glyph-name="kcommaaccent" horiz-adv-x="410" unicode="&#311;" /><glyph d="M66 0ZM271 -132Q271 -187 248.5 -227Q226 -267 186 -286L162 -253Q187 -239 204 -216Q221 -193 222 -164Q201 -167 186 -154.5Q171 -142 171 -115Q171 -90 184.5 -77.5Q198 -65 221 -65Q271 -65 271 -132ZM66 0V700H146V0ZM308 0 157 235V242L307 487H394L242 248L402 0Z" glyph-name="kcommaaccent.alt" horiz-adv-x="409" /><glyph d="M146 126V0H66V487H146L144 226L309 487H400L249 274L402 0H312L202 208Z" glyph-name="kgreenlandic" horiz-adv-x="410" unicode="&#312;" /><glyph d="M143 109Q143 68 179 68H207V0H159Q118 0 91 22Q64 44 64 97V700H143Z" glyph-name="l" horiz-adv-x="221" unicode="l" /><glyph d="M146 700V0H67V700Z" glyph-name="l.alt" horiz-adv-x="214" /><glyph d="M64 0ZM143 109Q143 68 179 68H207V0H159Q118 0 91 22Q64 44 64 97V700H143ZM224 896 135 787H71V791L130 902H224Z" glyph-name="lacute" horiz-adv-x="211" unicode="&#314;" /><glyph d="M64 0ZM260 484H206L211 702H282ZM143 109Q143 68 179 68H207V0H159Q118 0 91 22Q64 44 64 97V700H143Z" glyph-name="lcaron" horiz-adv-x="273" unicode="&#318;" /><glyph d="M64 0ZM143 109Q143 68 179 68H207V0H159Q118 0 91 22Q64 44 64 97V700H143ZM183 -132Q183 -187 160.5 -227Q138 -267 98 -286L74 -253Q99 -239 116 -216Q133 -193 134 -164Q113 -167 98 -154.5Q83 -142 83 -115Q83 -90 96.5 -77.5Q110 -65 133 -65Q183 -65 183 -132Z" glyph-name="lcommaaccent" horiz-adv-x="211" unicode="&#316;" /><glyph d="M64 0ZM143 109Q143 68 179 68H207V0H159Q118 0 91 22Q64 44 64 97V700H143ZM194 307Q194 333 207.5 347Q221 361 245 361Q295 361 295 307Q295 252 245 252Q221 252 207.5 266.5Q194 281 194 307Z" glyph-name="ldot" horiz-adv-x="289" unicode="&#320;" /><glyph d="M272 523 307 469 139 310 308 153 271 94 63 290V328Z" glyph-name="less" horiz-adv-x="371" unicode="&lt;" /><glyph d="M323 523 360 466 183 333 361 200 323 140 91 312V352ZM78 0V68H368V0Z" glyph-name="lessequal" horiz-adv-x="446" unicode="&#8804;" /><glyph d="M40 641Q40 670 60 690.5Q80 711 110 711Q139 711 159.5 690.5Q180 670 180 641Q180 612 159.5 591.5Q139 571 110 571Q80 571 60 591.5Q40 612 40 641ZM149 641Q149 658 138 670Q127 682 110 682Q93 682 81.5 670Q70 658 70 641Q70 624 81.5 612Q93 600 110 600Q127 600 138 612Q149 624 149 641Z" glyph-name="logicalnot" horiz-adv-x="220" unicode="&#172;" /><glyph d="M222 0H174Q133 0 106 22Q79 44 79 97V262L11 188V266L79 339V700H158V414L234 496V417L158 336V109Q158 68 194 68H222Z" glyph-name="lslash" horiz-adv-x="238" unicode="&#322;" /><glyph d="M315 0V297Q315 368 296 398.5Q277 429 241 429Q198 429 172.5 384Q147 339 145 251V0H66V487H134L142 395Q162 453 196 476Q230 499 268 499Q315 499 341.5 467Q368 435 379 387Q399 449 435.5 474Q472 499 515 499Q581 499 612.5 454.5Q644 410 644 322V0H565V302Q565 371 546.5 400Q528 429 493 429Q448 429 422 388Q396 347 394 267V0Z" glyph-name="m" horiz-adv-x="705" unicode="m" /><glyph d="M327 659V601H130V659Z" glyph-name="macron" horiz-adv-x="454" unicode="&#175;" /><glyph d="M344 343V278H40V343Z" glyph-name="minus" horiz-adv-x="383" unicode="&#8722;" /><glyph d="M26 0ZM211 7V-46H26V7Z" glyph-name="minus.inf" horiz-adv-x="237" /><glyph d="M125 712Q160 712 183 688.5Q206 665 206 632Q206 598 183 575Q160 552 125 552Q90 552 67 575Q44 598 44 632Q44 665 67 688.5Q90 712 125 712ZM125 679Q105 679 91.5 665.5Q78 652 78 632Q78 612 91.5 598Q105 584 125 584Q145 584 158 598Q171 612 171 632Q171 652 158 665.5Q145 679 125 679Z" glyph-name="mu" horiz-adv-x="250" unicode="&#956;" /><glyph d="M97 147 50 186 148 313 47 444 96 484 188 366 279 483 327 443 227 315 326 188 276 147 186 262Z" glyph-name="multiply" horiz-adv-x="375" unicode="&#215;" /><glyph d="M66 487H135L142 390Q163 450 199.5 474.5Q236 499 281 499Q418 499 418 318V0H339V300Q339 370 317.5 400Q296 430 255 430Q206 430 176 381.5Q146 333 145 243V0H66Z" glyph-name="n" horiz-adv-x="479" unicode="n" /><glyph d="M66 0ZM66 487H135L142 390Q163 450 199.5 474.5Q236 499 281 499Q418 499 418 318V0H339V300Q339 370 317.5 400Q296 430 255 430Q206 430 176 381.5Q146 333 145 243V0H66ZM370 683 281 574H217V578L276 689H370Z" glyph-name="nacute" horiz-adv-x="479" unicode="&#324;" /><glyph d="M66 0ZM66 487H135L142 390Q163 450 199.5 474.5Q236 499 281 499Q418 499 418 318V0H339V300Q339 370 317.5 400Q296 430 255 430Q206 430 176 381.5Q146 333 145 243V0H66ZM254 622 307 689H383V687L289 574H218L127 687V689H205Z" glyph-name="ncaron" horiz-adv-x="479" unicode="&#328;" /><glyph d="M66 0ZM66 487H135L142 390Q163 450 199.5 474.5Q236 499 281 499Q418 499 418 318V0H339V300Q339 370 317.5 400Q296 430 255 430Q206 430 176 381.5Q146 333 145 243V0H66ZM293 -132Q293 -187 270.5 -227Q248 -267 208 -286L184 -253Q209 -239 226 -216Q243 -193 244 -164Q223 -167 208 -154.5Q193 -142 193 -115Q193 -90 206.5 -77.5Q220 -65 243 -65Q293 -65 293 -132Z" glyph-name="ncommaaccent" horiz-adv-x="479" unicode="&#326;" /><glyph d="M66 0ZM256 645Q207 645 175.5 606.5Q144 568 144 485Q144 408 173 366Q202 324 255 324Q308 324 340 369.5Q372 415 372 489Q372 558 340.5 601.5Q309 645 256 645ZM256 712Q307 712 347 691.5Q387 671 414 627.5Q441 584 455 515.5Q469 447 469 352Q469 256 454.5 187Q440 118 412.5 74Q385 30 344.5 9Q304 -12 252 -12Q186 -12 141 15Q96 42 72 108L134 146Q154 98 181.5 76.5Q209 55 248 55Q280 55 306 69.5Q332 84 351 119Q370 154 380 212.5Q390 271 390 360V384Q374 324 334.5 290Q295 256 241 256Q159 256 112.5 313.5Q66 371 66 477Q66 529 78 572.5Q90 616 114 647Q138 678 173.5 695Q209 712 256 712Z" glyph-name="nine" horiz-adv-x="535" unicode="9" /><glyph d="M235 645Q186 645 154.5 606.5Q123 568 123 485Q123 408 152 366Q181 324 234 324Q287 324 319 369.5Q351 415 351 489Q351 558 319.5 601.5Q288 645 235 645ZM235 712Q286 712 326 691.5Q366 671 393 627.5Q420 584 434 515.5Q448 447 448 352Q448 256 433.5 187Q419 118 391.5 74Q364 30 323.5 9Q283 -12 231 -12Q165 -12 120 15Q75 42 51 108L113 146Q133 98 160.5 76.5Q188 55 227 55Q259 55 285 69.5Q311 84 330 119Q349 154 359 212.5Q369 271 369 360V384Q353 324 313.5 290Q274 256 220 256Q138 256 91.5 313.5Q45 371 45 477Q45 529 57 572.5Q69 616 93 647Q117 678 152.5 695Q188 712 235 712Z" glyph-name="nine.LP" horiz-adv-x="504" /><glyph d="M220 545Q171 545 142.5 506Q114 467 114 386Q114 311 141 269.5Q168 228 219 228Q270 228 300 273Q330 318 330 390Q330 459 301 502Q272 545 220 545ZM220 611Q269 611 307.5 590.5Q346 570 371.5 526.5Q397 483 410.5 414.5Q424 346 424 251Q424 155 410 86Q396 17 369 -27.5Q342 -72 302 -92.5Q262 -113 210 -113Q146 -113 104 -81.5Q62 -50 40 8L103 45Q123 -4 148.5 -25Q174 -46 214 -46Q243 -46 267 -31.5Q291 -17 308.5 18Q326 53 336 111.5Q346 170 346 259V279Q333 223 294 191.5Q255 160 204 160Q169 160 138.5 174Q108 188 85 216Q62 244 49 284.5Q36 325 36 378Q36 430 48 473Q60 516 83.5 546.5Q107 577 141.5 594Q176 611 220 611Z" glyph-name="nine.OP" horiz-adv-x="466" /><glyph d="M256 545Q207 545 175.5 506.5Q144 468 144 385Q144 308 173 266Q202 224 255 224Q308 224 340 269.5Q372 315 372 389Q372 458 340.5 501.5Q309 545 256 545ZM256 612Q307 612 347 591.5Q387 571 414 527.5Q441 484 455 415.5Q469 347 469 252Q469 156 454.5 87Q440 18 412.5 -26Q385 -70 344.5 -91Q304 -112 252 -112Q186 -112 141 -85Q96 -58 72 8L134 46Q154 -2 181.5 -23.5Q209 -45 248 -45Q280 -45 306 -30.5Q332 -16 351 19Q370 54 380 112.5Q390 171 390 260V284Q374 224 334.5 190Q295 156 241 156Q159 156 112.5 213.5Q66 271 66 377Q66 429 78 472.5Q90 516 114 547Q138 578 173.5 595Q209 612 256 612Z" glyph-name="nine.OT" horiz-adv-x="535" /><glyph d="M26 0ZM142 218Q206 218 240 167.5Q274 117 274 6Q274 -104 240 -156Q206 -208 139 -208Q99 -208 70.5 -192.5Q42 -177 28 -140L70 -108Q92 -156 135 -156Q153 -156 167.5 -148Q182 -140 191.5 -121Q201 -102 206.5 -71Q212 -40 212 7V13Q212 19 211 20Q203 -13 181.5 -32Q160 -51 128 -51Q81 -51 53.5 -17.5Q26 16 26 79Q26 141 55 179.5Q84 218 142 218ZM202 84Q202 120 186 142.5Q170 165 144 165Q118 165 102.5 145Q87 125 87 83Q87 44 101.5 22Q116 0 143 0Q169 0 185.5 23Q202 46 202 84Z" glyph-name="nine.inf" horiz-adv-x="305" /><glyph d="M40 346V415H220L267 502H327L279 415H344V346H242L202 273H344V204H165L119 119H58L105 204H40V273H142L182 346Z" glyph-name="notequal" horiz-adv-x="383" unicode="&#8800;" /><glyph d="M66 0ZM66 487H135L142 390Q163 450 199.5 474.5Q236 499 281 499Q418 499 418 318V0H339V300Q339 370 317.5 400Q296 430 255 430Q206 430 176 381.5Q146 333 145 243V0H66ZM321 683H375Q377 654 371 635Q365 616 355 604.5Q345 593 332 588Q319 583 306 583Q290 583 276 589.5Q262 596 250 603.5Q238 611 227.5 617.5Q217 624 207 624Q193 624 189 613Q185 602 185 587H130Q129 615 134.5 634.5Q140 654 150 665Q160 676 172.5 681Q185 686 197 686Q214 686 228.5 679.5Q243 673 255 665.5Q267 658 277.5 651.5Q288 645 299 645Q313 645 317 656Q321 667 321 683Z" glyph-name="ntilde" horiz-adv-x="479" unicode="&#241;" /><glyph d="M327 277 366 442H238L199 277ZM263 0 313 214H184L134 0H55L105 214H26L42 277H119L158 442H72L89 505H172L217 700H296L252 505H381L426 700H505L460 505H542L526 442H445L406 277H496L480 214H392L342 0Z" glyph-name="numbersign" horiz-adv-x="556" unicode="#" /><glyph d="M41 242Q41 377 88 438Q135 499 224 499Q313 499 359.5 436.5Q406 374 406 242Q406 109 360.5 48.5Q315 -12 224 -12Q137 -12 89 49Q41 110 41 242ZM327 243Q327 347 302 390Q277 433 223 433Q170 433 144.5 390Q119 347 119 243Q119 191 125 155.5Q131 120 143.5 98Q156 76 176 66Q196 56 223 56Q250 56 269.5 66Q289 76 302 98Q315 120 321 155.5Q327 191 327 243Z" glyph-name="o" horiz-adv-x="448" unicode="o" /><glyph d="M41 0ZM41 242Q41 377 88 438Q135 499 224 499Q313 499 359.5 436.5Q406 374 406 242Q406 109 360.5 48.5Q315 -12 224 -12Q137 -12 89 49Q41 110 41 242ZM327 243Q327 347 302 390Q277 433 223 433Q170 433 144.5 390Q119 347 119 243Q119 191 125 155.5Q131 120 143.5 98Q156 76 176 66Q196 56 223 56Q250 56 269.5 66Q289 76 302 98Q315 120 321 155.5Q327 191 327 243ZM341 683 252 574H188V578L247 689H341Z" glyph-name="oacute" horiz-adv-x="448" unicode="&#243;" /><glyph d="M41 0ZM41 242Q41 377 88 438Q135 499 224 499Q313 499 359.5 436.5Q406 374 406 242Q406 109 360.5 48.5Q315 -12 224 -12Q137 -12 89 49Q41 110 41 242ZM327 243Q327 347 302 390Q277 433 223 433Q170 433 144.5 390Q119 347 119 243Q119 191 125 155.5Q131 120 143.5 98Q156 76 176 66Q196 56 223 56Q250 56 269.5 66Q289 76 302 98Q315 120 321 155.5Q327 191 327 243ZM281 689H336Q336 620 306.5 594Q277 568 224 568Q170 568 141 594Q112 620 112 689H166Q166 651 180.5 636.5Q195 622 223 622Q252 622 266.5 636.5Q281 651 281 689Z" glyph-name="obreve" horiz-adv-x="448" unicode="&#335;" /><glyph d="M41 0ZM41 242Q41 377 88 438Q135 499 224 499Q313 499 359.5 436.5Q406 374 406 242Q406 109 360.5 48.5Q315 -12 224 -12Q137 -12 89 49Q41 110 41 242ZM327 243Q327 347 302 390Q277 433 223 433Q170 433 144.5 390Q119 347 119 243Q119 191 125 155.5Q131 120 143.5 98Q156 76 176 66Q196 56 223 56Q250 56 269.5 66Q289 76 302 98Q315 120 321 155.5Q327 191 327 243ZM223 644 173 574H97V577L189 689H260L353 577V574H274Z" glyph-name="ocircumflex" horiz-adv-x="448" unicode="&#244;" /><glyph d="M41 0ZM41 242Q41 377 88 438Q135 499 224 499Q313 499 359.5 436.5Q406 374 406 242Q406 109 360.5 48.5Q315 -12 224 -12Q137 -12 89 49Q41 110 41 242ZM327 243Q327 347 302 390Q277 433 223 433Q170 433 144.5 390Q119 347 119 243Q119 191 125 155.5Q131 120 143.5 98Q156 76 176 66Q196 56 223 56Q250 56 269.5 66Q289 76 302 98Q315 120 321 155.5Q327 191 327 243ZM248 637Q248 691 297 691Q347 691 347 637Q347 582 297 582Q248 582 248 637ZM108 637Q108 663 121 677Q134 691 157 691Q208 691 208 637Q208 582 157 582Q134 582 121 596.5Q108 611 108 637Z" glyph-name="odieresis" horiz-adv-x="448" unicode="&#246;" /><glyph d="M509 -12Q461 -12 425.5 10Q390 32 368 86Q323 -12 225 -12Q135 -12 88 49Q41 110 41 245Q41 377 89 438Q137 499 225 499Q327 499 368 399Q391 452 426 475.5Q461 499 509 499Q551 499 582 481.5Q613 464 632.5 432.5Q652 401 661.5 358Q671 315 671 265Q671 253 670.5 241.5Q670 230 669 219H406Q410 128 438.5 90.5Q467 53 512 53Q549 53 572.5 75.5Q596 98 610 145L675 115Q666 90 652.5 67Q639 44 619.5 26.5Q600 9 573 -1.5Q546 -12 509 -12ZM507 433Q463 433 437.5 398.5Q412 364 407 282H595Q593 363 570.5 398Q548 433 507 433ZM328 244Q328 296 322 332Q316 368 303.5 390Q291 412 271 422Q251 432 224 432Q197 432 177 422Q157 412 144 390Q131 368 125 332Q119 296 119 244Q119 140 144.5 97Q170 54 224 54Q278 54 303 97Q328 140 328 244Z" glyph-name="oe" horiz-adv-x="708" unicode="&#339;" /><glyph d="M237 -211Q219 -211 201 -206Q183 -201 169.5 -189Q156 -177 147.5 -157Q139 -137 139 -106Q139 -71 150.5 -44.5Q162 -18 180.5 0Q199 18 221.5 27Q244 36 266 35L269 0Q250 -2 236 -11Q222 -20 212.5 -33.5Q203 -47 198 -63.5Q193 -80 193 -96Q193 -128 208 -140Q223 -152 243 -152Q269 -152 289 -135L314 -184Q296 -198 278 -204.5Q260 -211 237 -211Z" glyph-name="ogonek" horiz-adv-x="454" unicode="&#731;" /><glyph d="M41 0ZM41 242Q41 377 88 438Q135 499 224 499Q313 499 359.5 436.5Q406 374 406 242Q406 109 360.5 48.5Q315 -12 224 -12Q137 -12 89 49Q41 110 41 242ZM327 243Q327 347 302 390Q277 433 223 433Q170 433 144.5 390Q119 347 119 243Q119 191 125 155.5Q131 120 143.5 98Q156 76 176 66Q196 56 223 56Q250 56 269.5 66Q289 76 302 98Q315 120 321 155.5Q327 191 327 243ZM199 576 109 685V691H205L263 580V576Z" glyph-name="ograve" horiz-adv-x="448" unicode="&#242;" /><glyph d="M41 0ZM41 242Q41 377 88 438Q135 499 224 499Q313 499 359.5 436.5Q406 374 406 242Q406 109 360.5 48.5Q315 -12 224 -12Q137 -12 89 49Q41 110 41 242ZM327 243Q327 347 302 390Q277 433 223 433Q170 433 144.5 390Q119 347 119 243Q119 191 125 155.5Q131 120 143.5 98Q156 76 176 66Q196 56 223 56Q250 56 269.5 66Q289 76 302 98Q315 120 321 155.5Q327 191 327 243ZM411 683 315 574H255V578L315 689H411ZM267 689V683L171 574H111V578L171 689Z" glyph-name="ohungarumlaut" horiz-adv-x="448" unicode="&#337;" /><glyph d="M41 0ZM41 242Q41 377 88 438Q135 499 224 499Q313 499 359.5 436.5Q406 374 406 242Q406 109 360.5 48.5Q315 -12 224 -12Q137 -12 89 49Q41 110 41 242ZM327 243Q327 347 302 390Q277 433 223 433Q170 433 144.5 390Q119 347 119 243Q119 191 125 155.5Q131 120 143.5 98Q156 76 176 66Q196 56 223 56Q250 56 269.5 66Q289 76 302 98Q315 120 321 155.5Q327 191 327 243ZM323 659V601H126V659Z" glyph-name="omacron" horiz-adv-x="448" unicode="&#333;" /><glyph d="M461 0H73V72H228V589L160 530L125 594L255 700H309V72H461Z" glyph-name="one" horiz-adv-x="535" unicode="1" /><glyph d="M192 0H111V589L43 530L8 594L138 700H192Z" glyph-name="one.LP" horiz-adv-x="273" /><glyph d="M182 0H104V489L40 430L7 494L131 600H182Z" glyph-name="one.OP" horiz-adv-x="248" /><glyph d="M451 0H83V71H228V489L164 430L131 494L255 600H306V71H451Z" glyph-name="one.OT" horiz-adv-x="535" /><glyph d="M7 0ZM133 -200H70V127L33 95L7 147L91 212H133Z" glyph-name="one.inf" horiz-adv-x="180" /><glyph d="M7 0ZM377 0V49L492 212Q533 271 533 307Q533 362 484 362Q460 362 443 348Q426 334 413 302L366 323Q383 375 414.5 396.5Q446 418 489 418Q540 418 568 391.5Q596 365 596 316Q596 285 582.5 254Q569 223 538 179L452 55L608 57V0ZM133 293H70V620L33 588L7 640L91 705H133ZM435 700 180 0H108L362 700Z" glyph-name="onehalf" horiz-adv-x="643" unicode="&#189;" /><glyph d="M7 0ZM133 293H70V620L33 588L7 640L91 705H133ZM435 700 180 0H108L362 700ZM365 100V146L462 410H523L429 157H535V321H596V157H638V100H596V0H535V100Z" glyph-name="onequarter" horiz-adv-x="655" unicode="&#188;" /><glyph d="M7 294ZM133 294H70V621L33 589L7 641L91 706H133Z" glyph-name="onesuperior" horiz-adv-x="180" unicode="&#185;" /><glyph d="M251 289V220H39V289Z" glyph-name="onethirdemdash" horiz-adv-x="288" /><glyph d="M138 399Q170 399 190 431Q210 463 210 518V520H161Q128 520 108 501.5Q88 483 88 454Q88 428 100 413.5Q112 399 138 399ZM213 418Q201 386 177.5 367Q154 348 120 348Q85 348 58 374Q31 400 31 451Q31 500 65.5 533Q100 566 160 566H210Q209 620 192.5 639Q176 658 145 658Q118 658 100 645Q82 632 70 612L29 646Q48 678 78 694.5Q108 711 152 711Q178 711 199.5 703.5Q221 696 236.5 679.5Q252 663 260.5 635Q269 607 269 567V358H218Z" glyph-name="ordfeminine" horiz-adv-x="312" unicode="&#170;" /><glyph d="M228 531Q228 600 208 630Q188 660 158 660Q123 660 106.5 628.5Q90 597 90 530Q90 464 107 432.5Q124 401 159 401Q189 401 208.5 432Q228 463 228 531ZM234 359 230 417Q218 383 194.5 365.5Q171 348 140 348Q88 348 59 394Q30 440 30 530Q30 621 60.5 666.5Q91 712 146 712Q175 712 197.5 695.5Q220 679 232 645L236 701H286V359Z" glyph-name="ordfeminine.school" horiz-adv-x="337" /><glyph d="M30 531Q30 625 64.5 668.5Q99 712 161 712Q227 712 259.5 669.5Q292 627 292 531Q292 437 259 392.5Q226 348 161 348Q98 348 64 391Q30 434 30 531ZM234 531Q234 602 216 631.5Q198 661 161 661Q124 661 107 631.5Q90 602 90 531Q90 460 107.5 430Q125 400 161 400Q197 400 215.5 430Q234 460 234 531Z" glyph-name="ordmasculine" horiz-adv-x="323" unicode="&#186;" /><glyph d="M229 -12Q151 -12 108 32L84 0H18L74 79Q60 110 52.5 150.5Q45 191 45 245Q45 377 93.5 438Q142 499 229 499Q307 499 351 454L374 487H441L383 407Q397 377 403.5 337Q410 297 410 245Q410 113 363.5 50.5Q317 -12 229 -12ZM229 433Q173 433 147.5 390.5Q122 348 122 244Q122 216 124.5 192.5Q127 169 130 150L306 394Q293 415 274 424Q255 433 229 433ZM229 54Q282 54 307.5 96.5Q333 139 333 244Q333 299 326 334L153 90Q176 54 229 54Z" glyph-name="oslash" horiz-adv-x="454" unicode="&#248;" /><glyph d="M41 0ZM41 242Q41 377 88 438Q135 499 224 499Q313 499 359.5 436.5Q406 374 406 242Q406 109 360.5 48.5Q315 -12 224 -12Q137 -12 89 49Q41 110 41 242ZM327 243Q327 347 302 390Q277 433 223 433Q170 433 144.5 390Q119 347 119 243Q119 191 125 155.5Q131 120 143.5 98Q156 76 176 66Q196 56 223 56Q250 56 269.5 66Q289 76 302 98Q315 120 321 155.5Q327 191 327 243ZM292 683H346Q348 654 342 635Q336 616 326 604.5Q316 593 303 588Q290 583 277 583Q261 583 247 589.5Q233 596 221 603.5Q209 611 198.5 617.5Q188 624 178 624Q164 624 160 613Q156 602 156 587H101Q100 615 105.5 634.5Q111 654 121 665Q131 676 143.5 681Q156 686 168 686Q185 686 199.5 679.5Q214 673 226 665.5Q238 658 248.5 651.5Q259 645 270 645Q284 645 288 656Q292 667 292 683Z" glyph-name="otilde" horiz-adv-x="448" unicode="&#245;" /><glyph d="M146 243Q146 143 174 98.5Q202 54 247 54Q298 54 323.5 100.5Q349 147 349 244Q349 341 324.5 386Q300 431 250 431Q204 431 175 386.5Q146 342 146 243ZM134 487 141 403Q161 451 195 475Q229 499 274 499Q348 499 387.5 434.5Q427 370 427 245Q427 120 384.5 54Q342 -12 261 -12Q224 -12 194.5 7Q165 26 145 64V-187H66V487Z" glyph-name="p" horiz-adv-x="468" unicode="p" /><glyph d="M300 321H351V630H300ZM108 478Q108 399 140 359.5Q172 320 226 321H228V629H226Q167 630 137.5 591Q108 552 108 478ZM300 247V0H228V247Q133 252 83 310.5Q33 369 33 480Q33 586 83.5 643Q134 700 237 700H424V0H351V247Z" glyph-name="paragraph" horiz-adv-x="506" unicode="&#182;" /><glyph d="M241 -20 215 -83Q124 -63 79 35Q34 133 34 322Q34 512 79 610Q124 708 215 728L241 665Q207 654 181.5 631.5Q156 609 139 569Q122 529 113.5 469Q105 409 105 322Q105 236 113.5 175.5Q122 115 139 75Q156 35 181.5 12.5Q207 -10 241 -20Z" glyph-name="parenleft" horiz-adv-x="267" unicode="(" /><glyph d="M18 0ZM151 -210 135 -263Q76 -249 47 -191Q18 -133 18 -19Q18 96 47 154Q76 212 135 226L151 173Q131 167 116.5 155Q102 143 92 121Q82 99 77 64.5Q72 30 72 -19Q72 -68 77 -101.5Q82 -135 92 -157.5Q102 -180 116.5 -192Q131 -204 151 -210Z" glyph-name="parenleft.inf" horiz-adv-x="164" /><glyph d="M22 -20Q56 -10 81.5 12.5Q107 35 124 75Q141 115 149.5 175.5Q158 236 158 322Q158 409 149.5 469Q141 529 124 569Q107 609 81.5 631.5Q56 654 22 665L48 728Q139 708 184 610Q229 512 229 322Q229 133 184 35Q139 -63 48 -83Z" glyph-name="parenright" horiz-adv-x="267" unicode=")" /><glyph d="M13 0ZM28 -263 13 -210Q32 -204 47 -192Q62 -180 71.5 -157.5Q81 -135 86 -101.5Q91 -68 91 -19Q91 30 86 64.5Q81 99 71.5 121Q62 143 47 155Q32 167 13 173L29 226Q88 212 117 154Q146 96 146 -19Q146 -133 116.5 -191Q87 -249 28 -263Z" glyph-name="parenright.inf" horiz-adv-x="164" /><glyph d="M31 0ZM492 205Q492 317 524 367.5Q556 418 625 418Q693 418 724 367.5Q755 317 755 205Q755 93 724 42.5Q693 -8 625 -8Q556 -8 524 43.5Q492 95 492 205ZM693 205Q693 250 688.5 280.5Q684 311 675 329Q666 347 653.5 355Q641 363 625 363Q591 363 573.5 328.5Q556 294 556 206Q556 160 560.5 129.5Q565 99 573.5 80.5Q582 62 595 54Q608 46 625 46Q641 46 653.5 54Q666 62 675 80.5Q684 99 688.5 129.5Q693 160 693 205ZM31 498Q31 610 63 660.5Q95 711 164 711Q232 711 263 660.5Q294 610 294 498Q294 386 263 335.5Q232 285 164 285Q95 285 63 336.5Q31 388 31 498ZM232 498Q232 543 227.5 573.5Q223 604 214 622Q205 640 192.5 648Q180 656 164 656Q130 656 112.5 621.5Q95 587 95 499Q95 453 99.5 422.5Q104 392 112.5 373.5Q121 355 134 347Q147 339 164 339Q180 339 192.5 347Q205 355 214 373.5Q223 392 227.5 422.5Q232 453 232 498ZM557 700 302 0H230L484 700Z" glyph-name="percent" horiz-adv-x="792" unicode="%" /><glyph d="M91 -5Q67 -5 53.5 9.5Q40 24 40 50Q40 77 53.5 91Q67 105 91 105Q142 105 142 50Q142 24 129 9.5Q116 -5 91 -5Z" glyph-name="period" horiz-adv-x="182" unicode="." /><glyph d="M40 282ZM91 282Q67 282 53.5 296.5Q40 311 40 337Q40 364 53.5 378Q67 392 91 392Q142 392 142 337Q142 311 129 296.5Q116 282 91 282Z" glyph-name="periodcentered" horiz-adv-x="182" unicode="&#183;" /><glyph d="M31 0ZM492 205Q492 317 524 367.5Q556 418 625 418Q693 418 724 367.5Q755 317 755 205Q755 93 724 42.5Q693 -8 625 -8Q556 -8 524 43.5Q492 95 492 205ZM693 205Q693 250 688.5 280.5Q684 311 675 329Q666 347 653.5 355Q641 363 625 363Q591 363 573.5 328.5Q556 294 556 206Q556 160 560.5 129.5Q565 99 573.5 80.5Q582 62 595 54Q608 46 625 46Q641 46 653.5 54Q666 62 675 80.5Q684 99 688.5 129.5Q693 160 693 205ZM31 498Q31 610 63 660.5Q95 711 164 711Q232 711 263 660.5Q294 610 294 498Q294 386 263 335.5Q232 285 164 285Q95 285 63 336.5Q31 388 31 498ZM232 498Q232 543 227.5 573.5Q223 604 214 622Q205 640 192.5 648Q180 656 164 656Q130 656 112.5 621.5Q95 587 95 499Q95 453 99.5 422.5Q104 392 112.5 373.5Q121 355 134 347Q147 339 164 339Q180 339 192.5 347Q205 355 214 373.5Q223 392 227.5 422.5Q232 453 232 498ZM813 205Q813 317 845 367.5Q877 418 946 418Q1014 418 1045 367.5Q1076 317 1076 205Q1076 93 1045 42.5Q1014 -8 946 -8Q877 -8 845 43.5Q813 95 813 205ZM1014 205Q1014 250 1009.5 280.5Q1005 311 996 329Q987 347 974.5 355Q962 363 946 363Q912 363 894.5 328.5Q877 294 877 206Q877 160 881.5 129.5Q886 99 894.5 80.5Q903 62 916 54Q929 46 946 46Q962 46 974.5 54Q987 62 996 80.5Q1005 99 1009.5 129.5Q1014 160 1014 205ZM557 700 302 0H230L484 700Z" glyph-name="perthousand" horiz-adv-x="1113" unicode="&#8240;" /><glyph d="M225 110H159V278H40V343H159V509H225V343H344V278H225Z" glyph-name="plus" horiz-adv-x="383" unicode="+" /><glyph d="M26 0ZM144 -138H94V-44H26V5H94V100H144V5H211V-44H144Z" glyph-name="plus.inf" horiz-adv-x="237" /><glyph d="M225 136H159V289H40V355H159V509H225V355H344V289H225ZM344 65V0H40V65Z" glyph-name="plusminus" horiz-adv-x="383" unicode="&#177;" /><glyph glyph-name="punctuationspace" horiz-adv-x="178" unicode="&#8200;" /><glyph d="M205 499Q244 499 276.5 477.5Q309 456 329 413L335 487H401V-186H322V73Q280 -12 194 -12Q121 -12 81 51.5Q41 115 41 243Q41 369 83.5 434Q126 499 205 499ZM322 244Q322 344 293 388Q264 432 220 432Q170 432 145 387Q120 342 120 243Q120 145 145 99.5Q170 54 218 54Q264 54 293 99.5Q322 145 322 244Z" glyph-name="q" horiz-adv-x="467" unicode="q" /><glyph d="M148 192 145 346H176Q231 346 262.5 384.5Q294 423 294 499Q294 571 264.5 606.5Q235 642 179 642Q131 642 99.5 616.5Q68 591 54 533L-10 559Q0 601 18.5 630.5Q37 660 62 678Q87 696 117.5 704Q148 712 183 712Q275 712 323 656Q371 600 371 502Q371 409 331.5 356Q292 303 220 292L216 192ZM181 -5Q157 -5 144 9.5Q131 24 131 50Q131 105 181 105Q232 105 232 50Q232 24 219 9.5Q206 -5 181 -5Z" glyph-name="question" horiz-adv-x="386" unicode="?" /><glyph d="M229 306 232 152H201Q146 152 114.5 113.5Q83 75 83 -1Q83 -73 112.5 -108.5Q142 -144 198 -144Q246 -144 277.5 -118.5Q309 -93 323 -35L387 -61Q377 -103 358.5 -132.5Q340 -162 315 -180Q290 -198 259 -206Q228 -214 194 -214Q102 -214 54 -158Q6 -102 6 -4Q6 89 45.5 142Q85 195 157 206L161 306ZM196 503Q220 503 233 488.5Q246 474 246 448Q246 393 196 393Q145 393 145 448Q145 474 158 488.5Q171 503 196 503Z" glyph-name="questiondown" horiz-adv-x="386" unicode="&#191;" /><glyph d="M223 512 226 358H195Q140 358 108.5 319.5Q77 281 77 205Q77 133 106.5 97.5Q136 62 192 62Q240 62 271.5 87.5Q303 113 317 171L381 145Q371 103 352.5 73.5Q334 44 309 26Q284 8 253 0Q222 -8 188 -8Q96 -8 48 48Q0 104 0 202Q0 295 39.5 348Q79 401 151 412L155 512ZM190 709Q214 709 227 694.5Q240 680 240 654Q240 599 190 599Q139 599 139 654Q139 680 152 694.5Q165 709 190 709Z" glyph-name="questiondown.cap" horiz-adv-x="383" /><glyph d="M164 505 158 712H228L220 505ZM108 505H50L42 712H113Z" glyph-name="quotedbl" horiz-adv-x="270" unicode="&quot;" /><glyph d="M54 -127 32 -91Q60 -76 75 -52Q90 -28 92 -2Q70 -4 55 9Q40 22 40 50Q40 76 53.5 89.5Q67 103 89 103Q115 103 128.5 86.5Q142 70 142 32Q142 -21 120 -63.5Q98 -106 54 -127ZM189 -127 167 -91Q195 -76 210 -52Q225 -28 227 -2Q205 -4 190 9Q175 22 175 50Q175 76 188.5 89.5Q202 103 224 103Q250 103 263.5 86.5Q277 70 277 32Q277 -21 255 -63.5Q233 -106 189 -127Z" glyph-name="quotedblbase" horiz-adv-x="312" unicode="&#8222;" /><glyph d="M121 734 143 698Q115 682 99.5 658Q84 634 82 607Q105 609 120 596Q135 583 135 554Q135 527 121.5 513.5Q108 500 85 500Q59 500 45.5 517Q32 534 32 572Q32 626 54 669.5Q76 713 121 734ZM257 734 279 698Q251 682 235.5 658Q220 634 218 607Q241 609 256 596Q271 583 271 554Q271 527 257.5 513.5Q244 500 221 500Q195 500 181.5 517Q168 534 168 572Q168 626 190 669.5Q212 713 257 734Z" glyph-name="quotedblleft" horiz-adv-x="314" unicode="&#8220;" /><glyph d="M53 487 31 523Q59 539 74.5 563Q90 587 92 614Q69 612 54 625Q39 638 39 667Q39 694 52.5 707.5Q66 721 89 721Q115 721 128.5 704Q142 687 142 649Q142 595 120 551.5Q98 508 53 487ZM190 487 168 523Q196 539 211.5 563Q227 587 229 614Q206 612 191 625Q176 638 176 667Q176 694 189.5 707.5Q203 721 226 721Q252 721 265.5 704Q279 687 279 649Q279 595 257 551.5Q235 508 190 487Z" glyph-name="quotedblright" horiz-adv-x="314" unicode="&#8221;" /><glyph d="M121 734 143 698Q115 682 99.5 658Q84 634 82 607Q105 609 120 596Q135 583 135 554Q135 527 121.5 513.5Q108 500 85 500Q59 500 45.5 517Q32 534 32 572Q32 626 54 669.5Q76 713 121 734Z" glyph-name="quoteleft" horiz-adv-x="178" unicode="&#8216;" /><glyph d="M55 488 33 524Q61 540 76.5 564Q92 588 94 615Q71 613 56 626Q41 639 41 668Q41 695 54.5 708.5Q68 722 91 722Q117 722 130.5 705Q144 688 144 650Q144 596 122 552.5Q100 509 55 488Z" glyph-name="quoteright" horiz-adv-x="178" unicode="&#8217;" /><glyph d="M54 -126 32 -90Q60 -75 75 -51Q90 -27 92 -1Q70 -3 55 10Q40 23 40 51Q40 77 53.5 90.5Q67 104 89 104Q115 104 128.5 87.5Q142 71 142 33Q142 -20 120 -62.5Q98 -105 54 -126Z" glyph-name="quotesinglbase" horiz-adv-x="177" unicode="&#8218;" /><glyph d="M49 505 42 712H113L106 505Z" glyph-name="quotesingle" horiz-adv-x="155" unicode="'" /><glyph d="M66 0V487H134L141 382Q161 445 198 474Q235 503 283 498V417Q216 425 181 378.5Q146 332 145 236V0Z" glyph-name="r" horiz-adv-x="295" unicode="r" /><glyph d="M66 0ZM66 0V487H134L141 382Q161 445 198 474Q235 503 283 498V417Q216 425 181 378.5Q146 332 145 236V0ZM315 683 226 574H162V578L221 689H315Z" glyph-name="racute" horiz-adv-x="295" unicode="&#341;" /><glyph d="M66 0ZM66 0V487H134L141 382Q161 445 198 474Q235 503 283 498V417Q216 425 181 378.5Q146 332 145 236V0ZM199 622 252 689H328V687L234 574H163L72 687V689H150Z" glyph-name="rcaron" horiz-adv-x="295" unicode="&#345;" /><glyph d="M45 0ZM66 0V487H134L141 382Q161 445 198 474Q235 503 283 498V417Q216 425 181 378.5Q146 332 145 236V0ZM154 -132Q154 -187 131.5 -227Q109 -267 69 -286L45 -253Q70 -239 87 -216Q104 -193 105 -164Q84 -167 69 -154.5Q54 -142 54 -115Q54 -90 67.5 -77.5Q81 -65 104 -65Q154 -65 154 -132Z" glyph-name="rcommaaccent" horiz-adv-x="295" unicode="&#343;" /><glyph d="M180 339Q111 339 71 389.5Q31 440 31 525Q31 567 41.5 601.5Q52 636 71.5 660.5Q91 685 118.5 698.5Q146 712 180 712Q214 712 241.5 698.5Q269 685 288 660.5Q307 636 317.5 601.5Q328 567 328 525Q328 440 288.5 389.5Q249 339 180 339ZM180 364Q231 364 266.5 404.5Q302 445 302 525Q302 604 266.5 645.5Q231 687 180 687Q127 687 92 646Q57 605 57 525Q57 445 92 404.5Q127 364 180 364ZM179 593H153V527H179Q208 527 208 560Q208 593 179 593ZM124 437V621H180Q209 621 223 604.5Q237 588 237 559Q237 520 211 505L238 437H205L181 499H153V437Z" glyph-name="registered" horiz-adv-x="359" unicode="&#174;" /><glyph d="M120 487Q75 508 53 551.5Q31 595 31 649Q31 687 44.5 704Q58 721 84 721Q107 721 120.5 707.5Q134 694 134 667Q134 638 119 625Q104 612 81 614Q83 587 98.5 563Q114 539 142 523ZM257 487Q212 508 190 551.5Q168 595 168 649Q168 687 181.5 704Q195 721 221 721Q244 721 257.5 707.5Q271 694 271 667Q271 638 256 625Q241 612 218 614Q220 587 235.5 563Q251 539 279 523Z" glyph-name="reversequotedblleft" horiz-adv-x="314" /><glyph d="M121 488Q76 509 54 552.5Q32 596 32 650Q32 688 45.5 705Q59 722 85 722Q108 722 121.5 708.5Q135 695 135 668Q135 639 120 626Q105 613 82 615Q84 588 99.5 564Q115 540 143 524Z" glyph-name="reversequoteleft" horiz-adv-x="178" /><glyph d="M146 642Q146 685 169.5 709Q193 733 230 733Q265 733 288 709Q311 685 311 642Q311 600 288 575.5Q265 551 229 551Q193 551 169.5 575.5Q146 600 146 642ZM188 642Q188 619 199 604Q210 589 229 589Q246 589 258 604Q270 619 270 642Q270 666 258.5 680Q247 694 230 694Q210 694 199 680Q188 666 188 642Z" glyph-name="ring" horiz-adv-x="454" unicode="&#730;" /><glyph d="M179 50Q220 50 239.5 69.5Q259 89 259 123Q259 152 241.5 171.5Q224 191 188 205L154 218Q91 242 61.5 276.5Q32 311 32 365Q32 422 68.5 461.5Q105 501 177 501Q233 501 270 475.5Q307 450 329 391L264 358Q253 393 231 415Q209 437 176 437Q145 437 124 421.5Q103 406 103 371Q103 345 118.5 326Q134 307 176 291L213 277Q267 257 300 222Q333 187 333 128Q333 101 324 76Q315 51 296.5 31.5Q278 12 248.5 0Q219 -12 178 -12Q141 -12 113.5 -2.5Q86 7 66.5 23.5Q47 40 34.5 62Q22 84 13 109L78 141Q105 50 179 50Z" glyph-name="s" horiz-adv-x="358" unicode="s" /><glyph d="M13 0ZM179 50Q220 50 239.5 69.5Q259 89 259 123Q259 152 241.5 171.5Q224 191 188 205L154 218Q91 242 61.5 276.5Q32 311 32 365Q32 422 68.5 461.5Q105 501 177 501Q233 501 270 475.5Q307 450 329 391L264 358Q253 393 231 415Q209 437 176 437Q145 437 124 421.5Q103 406 103 371Q103 345 118.5 326Q134 307 176 291L213 277Q267 257 300 222Q333 187 333 128Q333 101 324 76Q315 51 296.5 31.5Q278 12 248.5 0Q219 -12 178 -12Q141 -12 113.5 -2.5Q86 7 66.5 23.5Q47 40 34.5 62Q22 84 13 109L78 141Q105 50 179 50ZM294 683 205 574H141V578L200 689H294Z" glyph-name="sacute" horiz-adv-x="358" unicode="&#347;" /><glyph d="M13 0ZM179 50Q220 50 239.5 69.5Q259 89 259 123Q259 152 241.5 171.5Q224 191 188 205L154 218Q91 242 61.5 276.5Q32 311 32 365Q32 422 68.5 461.5Q105 501 177 501Q233 501 270 475.5Q307 450 329 391L264 358Q253 393 231 415Q209 437 176 437Q145 437 124 421.5Q103 406 103 371Q103 345 118.5 326Q134 307 176 291L213 277Q267 257 300 222Q333 187 333 128Q333 101 324 76Q315 51 296.5 31.5Q278 12 248.5 0Q219 -12 178 -12Q141 -12 113.5 -2.5Q86 7 66.5 23.5Q47 40 34.5 62Q22 84 13 109L78 141Q105 50 179 50ZM178 622 231 689H307V687L213 574H142L51 687V689H129Z" glyph-name="scaron" horiz-adv-x="358" unicode="&#353;" /><glyph d="M171 -235Q141 -235 114.5 -221.5Q88 -208 71 -173L116 -143Q134 -186 171 -186Q190 -186 201 -174.5Q212 -163 212 -145Q212 -127 201.5 -115Q191 -103 174 -103Q169 -103 165 -103.5Q161 -104 156 -105L143 -90L157 -11Q125 -8 102 2Q79 12 61.5 28Q44 44 32.5 65Q21 86 13 109L78 141Q105 50 179 50Q220 50 239.5 69.5Q259 89 259 123Q259 152 241.5 171.5Q224 191 188 205L154 218Q91 242 62 276.5Q33 311 33 365Q33 422 69 461.5Q105 501 177 501Q233 501 270 475.5Q307 450 329 391L264 358Q253 393 231 415Q209 437 176 437Q145 437 124 421.5Q103 406 103 371Q103 345 118.5 325.5Q134 306 176 291L213 277Q267 257 299.5 222Q332 187 332 128Q332 104 325 80.5Q318 57 302.5 38.5Q287 20 263 7Q239 -6 206 -10L196 -62H199Q227 -62 248 -82.5Q269 -103 269 -143Q269 -191 240.5 -213Q212 -235 171 -235Z" glyph-name="scedilla" horiz-adv-x="358" unicode="&#351;" /><glyph d="M13 0ZM179 50Q220 50 239.5 69.5Q259 89 259 123Q259 152 241.5 171.5Q224 191 188 205L154 218Q91 242 61.5 276.5Q32 311 32 365Q32 422 68.5 461.5Q105 501 177 501Q233 501 270 475.5Q307 450 329 391L264 358Q253 393 231 415Q209 437 176 437Q145 437 124 421.5Q103 406 103 371Q103 345 118.5 326Q134 307 176 291L213 277Q267 257 300 222Q333 187 333 128Q333 101 324 76Q315 51 296.5 31.5Q278 12 248.5 0Q219 -12 178 -12Q141 -12 113.5 -2.5Q86 7 66.5 23.5Q47 40 34.5 62Q22 84 13 109L78 141Q105 50 179 50ZM176 644 126 574H50V577L142 689H213L306 577V574H227Z" glyph-name="scircumflex" horiz-adv-x="358" unicode="&#349;" /><glyph d="M13 0ZM179 50Q220 50 239.5 69.5Q259 89 259 123Q259 152 241.5 171.5Q224 191 188 205L154 218Q91 242 61.5 276.5Q32 311 32 365Q32 422 68.5 461.5Q105 501 177 501Q233 501 270 475.5Q307 450 329 391L264 358Q253 393 231 415Q209 437 176 437Q145 437 124 421.5Q103 406 103 371Q103 345 118.5 326Q134 307 176 291L213 277Q267 257 300 222Q333 187 333 128Q333 101 324 76Q315 51 296.5 31.5Q278 12 248.5 0Q219 -12 178 -12Q141 -12 113.5 -2.5Q86 7 66.5 23.5Q47 40 34.5 62Q22 84 13 109L78 141Q105 50 179 50ZM230 -132Q230 -187 207.5 -227Q185 -267 145 -286L121 -253Q146 -239 163 -216Q180 -193 181 -164Q160 -167 145 -154.5Q130 -142 130 -115Q130 -90 143.5 -77.5Q157 -65 180 -65Q230 -65 230 -132Z" glyph-name="scommaaccent" horiz-adv-x="358" unicode="&#537;" /><glyph d="M116 355Q114 292 177 271L193 266Q228 255 253 274.5Q278 294 278 336Q279 368 265 388.5Q251 409 218 420L202 425Q167 436 142 417Q117 398 116 355ZM191 -23Q155 -23 129 -13.5Q103 -4 84 12Q65 28 52.5 50Q40 72 31 96L94 127Q121 39 192 39Q231 39 248 58Q265 77 265 110Q265 145 250 163Q235 181 201 192L170 202Q51 242 51 350Q51 387 67.5 416Q84 445 113 459Q62 504 62 574Q62 604 71.5 629Q81 654 98.5 673Q116 692 141.5 702.5Q167 713 200 713Q254 713 289.5 689Q325 665 347 611L282 579Q272 611 250.5 630.5Q229 650 197 650Q164 650 146 632Q128 614 128 579Q128 552 142 530.5Q156 509 194 495L234 482Q298 461 321.5 426.5Q345 392 345 340Q345 306 328.5 276Q312 246 278 232Q310 210 322.5 182Q335 154 335 116Q335 89 327.5 64Q320 39 302.5 19.5Q285 0 257.5 -11.5Q230 -23 191 -23Z" glyph-name="section" horiz-adv-x="389" unicode="&#167;" /><glyph d="M32 0ZM55 -129 32 -93Q61 -77 76.5 -53Q92 -29 94 -2Q71 -4 55.5 9Q40 22 40 51Q40 78 54 91.5Q68 105 91 105Q117 105 131 88Q145 71 145 33Q145 -21 122.5 -64.5Q100 -108 55 -129ZM92 374Q68 374 54.5 388.5Q41 403 41 429Q41 456 54.5 470Q68 484 92 484Q143 484 143 429Q143 403 130 388.5Q117 374 92 374Z" glyph-name="semicolon" horiz-adv-x="184" unicode=";" /><glyph d="M87 0ZM180 0Q180 95 193 187Q206 279 229 361.5Q252 444 285 513Q318 582 359 630L87 629V700H449V626Q361 547 312.5 386.5Q264 226 263 0Z" glyph-name="seven" horiz-adv-x="535" unicode="7" /><glyph d="M110 0Q110 95 123 187Q136 279 159 361.5Q182 444 215 513Q248 582 289 630L17 629V700H379V626Q291 547 242.5 386.5Q194 226 193 0Z" glyph-name="seven.LP" horiz-adv-x="387" /><glyph d="M110 -100Q110 -22 119.5 63Q129 148 149 231Q169 314 201.5 390.5Q234 467 279 530L20 529V600H366V526Q328 492 295.5 433Q263 374 240 293.5Q217 213 203.5 114Q190 15 190 -100Z" glyph-name="seven.OP" horiz-adv-x="370" /><glyph d="M180 -100Q180 -5 193 87Q206 179 229 261.5Q252 344 285 413Q318 482 359 530L87 529V600H449V526Q361 447 312.5 286.5Q264 126 263 -100Z" glyph-name="seven.OT" horiz-adv-x="535" /><glyph d="M12 0ZM135 -200H66Q66 -144 74 -92Q82 -40 96 6Q110 52 130 89.5Q150 127 173 154L12 152V210H236V157Q187 104 161 17.5Q135 -69 135 -200Z" glyph-name="seven.inf" horiz-adv-x="244" /><glyph d="M66 0ZM281 -13Q231 -13 191 7.5Q151 28 123 71.5Q95 115 80.5 183.5Q66 252 66 348Q66 444 80.5 513Q95 582 123 626.5Q151 671 191.5 691.5Q232 712 285 712Q351 712 395.5 684.5Q440 657 464 591L402 554Q382 602 354.5 623.5Q327 645 289 645Q257 645 230.5 631Q204 617 185 582Q166 547 155.5 488Q145 429 145 340V315Q160 373 200.5 406Q241 439 297 439Q374 439 422 383.5Q470 328 470 221Q470 168 458 125Q446 82 422.5 51.5Q399 21 363.5 4Q328 -13 281 -13ZM278 55Q329 55 360 93Q391 131 391 213Q391 291 363 331Q335 371 282 371Q227 371 194.5 326Q162 281 162 209Q162 140 192 97.5Q222 55 278 55Z" glyph-name="six" horiz-adv-x="535" unicode="6" /><glyph d="M271 -13Q221 -13 181 7.5Q141 28 113 71.5Q85 115 70.5 183.5Q56 252 56 348Q56 444 70.5 513Q85 582 113 626.5Q141 671 181.5 691.5Q222 712 275 712Q341 712 385.5 684.5Q430 657 454 591L392 554Q372 602 344.5 623.5Q317 645 279 645Q247 645 220.5 631Q194 617 175 582Q156 547 145.5 488Q135 429 135 340V315Q150 373 190.5 406Q231 439 287 439Q364 439 412 383.5Q460 328 460 221Q460 168 448 125Q436 82 412.5 51.5Q389 21 353.5 4Q318 -13 271 -13ZM268 55Q319 55 350 93Q381 131 381 213Q381 291 353 331Q325 371 272 371Q217 371 184.5 326Q152 281 152 209Q152 140 182 97.5Q212 55 268 55Z" glyph-name="six.LP" horiz-adv-x="506" /><glyph d="M247 -12Q199 -12 160.5 8.5Q122 29 95.5 72.5Q69 116 55 184.5Q41 253 41 348Q41 444 55 513Q69 582 96.5 626.5Q124 671 164 691.5Q204 712 256 712Q381 712 425 590L363 554Q343 603 317 624Q291 645 252 645Q223 645 198.5 631Q174 617 156.5 582Q139 547 129.5 488Q120 429 120 340V320Q132 376 171 407.5Q210 439 261 439Q340 439 384.5 382Q429 325 429 221Q429 169 417.5 126Q406 83 383 52.5Q360 22 326 5Q292 -12 247 -12ZM245 55Q293 55 322 93Q351 131 351 213Q351 288 325.5 329.5Q300 371 246 371Q195 371 165.5 326Q136 281 136 209Q136 140 165 97.5Q194 55 245 55Z" glyph-name="six.OP" horiz-adv-x="466" /><glyph d="M281 -13Q231 -13 191 7.5Q151 28 123 71.5Q95 115 80.5 183.5Q66 252 66 348Q66 444 80.5 513Q95 582 123 626.5Q151 671 191.5 691.5Q232 712 285 712Q351 712 395.5 684.5Q440 657 464 591L402 554Q382 602 354.5 623.5Q327 645 289 645Q257 645 230.5 631Q204 617 185 582Q166 547 155.5 488Q145 429 145 340V315Q160 373 200.5 406Q241 439 297 439Q374 439 422 383.5Q470 328 470 221Q470 168 458 125Q446 82 422.5 51.5Q399 21 363.5 4Q328 -13 281 -13ZM278 55Q329 55 360 93Q391 131 391 213Q391 291 363 331Q335 371 282 371Q227 371 194.5 326Q162 281 162 209Q162 140 192 97.5Q222 55 278 55Z" glyph-name="six.OT" horiz-adv-x="535" /><glyph d="M31 0ZM165 -208Q101 -208 66 -158Q31 -108 31 4Q31 114 65.5 166Q100 218 167 218Q209 218 236 200.5Q263 183 277 144L231 118Q212 165 171 165Q153 165 138.5 157Q124 149 114.5 130.5Q105 112 99.5 80.5Q94 49 94 2V-12Q103 20 125 39Q147 58 179 58Q224 58 252 25.5Q280 -7 280 -70Q280 -132 251.5 -170Q223 -208 165 -208ZM104 -76Q104 -111 119 -133.5Q134 -156 162 -156Q188 -156 203.5 -136Q219 -116 219 -74Q219 7 164 7Q136 7 120 -15.5Q104 -38 104 -76Z" glyph-name="six.inf" horiz-adv-x="307" /><glyph glyph-name="sixperemspace" horiz-adv-x="125" unicode="&#8198;" /><glyph d="M388 700 86 0H5L306 700Z" glyph-name="slash" horiz-adv-x="393" unicode="/" /><glyph glyph-name="space" horiz-adv-x="176" unicode=" " /><glyph d="M429 81Q405 35 369 17.5Q333 0 283 0H27V64H54Q79 64 86 94.5Q93 125 91 179L88 304H27V369H87L84 497Q82 611 128.5 661.5Q175 712 253 712Q319 712 357.5 680.5Q396 649 420 583L356 549Q339 597 314.5 621Q290 645 253 645Q205 645 183 609Q161 573 163 496L166 369H302V304H168L171 176Q172 138 168.5 109.5Q165 81 155 64H282Q314 64 337 78Q360 92 378 126Z" glyph-name="sterling" horiz-adv-x="428" unicode="&#163;" /><glyph d="M268 6Q256 -3 237.5 -7.5Q219 -12 201 -12Q147 -12 112.5 22.5Q78 57 78 138V422H18V487H78V630H157V487H261V422H157V144Q157 98 171.5 80Q186 62 207 62Q218 62 230 65Q242 68 251 74Z" glyph-name="t" horiz-adv-x="286" unicode="t" /><glyph d="M273 6Q261 -4 242.5 -8Q224 -12 206 -12Q149 -12 114 22.5Q79 57 79 138V271H18V329H79V422H18V487H79V630H156V487H261V422H156V329H261V271H156V144Q156 98 171.5 80Q187 62 210 62Q235 62 256 75Z" glyph-name="tbar" horiz-adv-x="281" unicode="&#359;" /><glyph d="M257 555H202L208 749H279ZM268 6Q256 -3 237.5 -7.5Q219 -12 201 -12Q147 -12 112.5 22.5Q78 57 78 138V422H18V487H78V630H157V487H261V422H157V144Q157 98 171.5 80Q186 62 207 62Q218 62 230 65Q242 68 251 74Z" glyph-name="tcaron" horiz-adv-x="286" unicode="&#357;" /><glyph d="M259 -143Q259 -191 231 -213Q203 -235 162 -235Q132 -235 105.5 -221.5Q79 -208 62 -173L107 -143Q126 -186 162 -186Q181 -186 192 -174.5Q203 -163 203 -145Q203 -127 192 -115Q181 -103 164 -103Q159 -103 155.5 -103.5Q152 -104 147 -105L133 -90L149 -3Q117 10 97.5 44Q78 78 78 138V422H18V487H78V630H157V487H261V422H157V144Q157 98 171.5 80Q186 62 207 62Q218 62 230 65Q242 68 251 74L268 6Q256 -3 237.5 -7.5Q219 -12 201 -12H197L187 -62H190Q217 -62 238 -82.5Q259 -103 259 -143Z" glyph-name="tcedilla" horiz-adv-x="286" unicode="&#355;" /><glyph glyph-name="thinspace" horiz-adv-x="150" unicode="&#8201;" /><glyph d="M146 243Q146 143 174 98.5Q202 54 247 54Q298 54 323.5 100.5Q349 147 349 244Q349 341 324.5 386Q300 431 250 431Q204 431 175 386.5Q146 342 146 243ZM66 -187V700H146V410Q163 454 197 476.5Q231 499 274 499Q348 499 387.5 434.5Q427 370 427 245Q427 120 384.5 54Q342 -12 261 -12Q225 -12 195.5 6.5Q166 25 146 63V-187Z" glyph-name="thorn" horiz-adv-x="468" unicode="&#254;" /><glyph d="M73 0ZM264 54Q318 54 349.5 91Q381 128 381 199Q381 264 352 296.5Q323 329 269 329H217V402H267Q310 402 339 436Q368 470 368 528Q368 582 340.5 613Q313 644 262 644Q169 644 143 537L77 567Q97 642 147.5 677Q198 712 271 712Q359 712 403 666Q447 620 447 539Q447 482 424.5 438.5Q402 395 363 368Q408 351 435 308Q462 265 462 197Q462 153 450.5 114.5Q439 76 414.5 47.5Q390 19 353 3Q316 -13 265 -13Q194 -13 143.5 20.5Q93 54 73 129L140 160Q154 103 188.5 78.5Q223 54 264 54Z" glyph-name="three" horiz-adv-x="535" unicode="3" /><glyph d="M211 54Q265 54 296.5 91Q328 128 328 199Q328 264 299 296.5Q270 329 216 329H164V402H214Q257 402 286 436Q315 470 315 528Q315 582 287.5 613Q260 644 209 644Q116 644 90 537L24 567Q44 642 94.5 677Q145 712 218 712Q306 712 350 666Q394 620 394 539Q394 482 371.5 438.5Q349 395 310 368Q355 351 382 308Q409 265 409 197Q409 153 397.5 114.5Q386 76 361.5 47.5Q337 19 300 3Q263 -13 212 -13Q141 -13 90.5 20.5Q40 54 20 129L87 160Q101 103 135.5 78.5Q170 54 211 54Z" glyph-name="three.LP" horiz-adv-x="456" /><glyph d="M202 -47Q256 -47 287 -10Q318 27 318 97Q318 163 289.5 196Q261 229 207 229H155V302H204Q248 302 276.5 335Q305 368 305 428Q305 485 278 515Q251 545 201 545Q110 545 83 439L18 467Q37 535 83.5 573.5Q130 612 208 612Q291 612 337 566Q383 520 383 435Q383 377 361 335.5Q339 294 301 268Q345 253 371 209.5Q397 166 397 97Q397 53 385.5 14.5Q374 -24 350 -52.5Q326 -81 289.5 -97Q253 -113 203 -113Q171 -113 141 -105.5Q111 -98 86.5 -80.5Q62 -63 43 -36Q24 -9 14 30L80 60Q94 4 125.5 -21.5Q157 -47 202 -47Z" glyph-name="three.OP" horiz-adv-x="438" /><glyph d="M264 -46Q318 -46 349.5 -9Q381 28 381 99Q381 164 352 196.5Q323 229 269 229H217V302H267Q310 302 339 336Q368 370 368 428Q368 482 340.5 513Q313 544 262 544Q169 544 143 437L77 467Q97 542 147.5 577Q198 612 271 612Q359 612 403 566Q447 520 447 439Q447 382 424.5 338.5Q402 295 363 268Q408 251 435 208Q462 165 462 97Q462 53 450.5 14.5Q439 -24 414.5 -52.5Q390 -81 353 -97Q316 -113 265 -113Q194 -113 143.5 -79.5Q93 -46 73 29L140 60Q154 3 188.5 -21.5Q223 -46 264 -46Z" glyph-name="three.OT" horiz-adv-x="535" /><glyph d="M12 0ZM132 -208Q88 -208 57.5 -188Q27 -168 12 -122L62 -98Q72 -130 90 -142.5Q108 -155 129 -155Q158 -155 174 -136.5Q190 -118 190 -82Q190 -49 174.5 -32Q159 -15 130 -15H100V38H129Q152 38 167 55.5Q182 73 182 103Q182 132 167.5 147.5Q153 163 127 163Q79 163 64 108L16 129Q41 218 135 218Q190 218 217 190Q244 162 244 114Q244 81 231 56Q218 31 195 14Q221 3 236.5 -22Q252 -47 252 -85Q252 -139 222 -173.5Q192 -208 132 -208Z" glyph-name="three.inf" horiz-adv-x="279" /><glyph glyph-name="threeperemspace" horiz-adv-x="250" unicode="&#8196;" /><glyph d="M486 289V220H39V289Z" glyph-name="threequarteremdash" horiz-adv-x="524" /><glyph d="M12 0ZM132 285Q88 285 57.5 305Q27 325 12 371L62 395Q72 363 90 350.5Q108 338 129 338Q158 338 174 356.5Q190 375 190 411Q190 444 174.5 461Q159 478 130 478H100V531H129Q152 531 167 548.5Q182 566 182 596Q182 625 167.5 640.5Q153 656 127 656Q79 656 64 601L16 622Q41 711 135 711Q190 711 217 683Q244 655 244 607Q244 574 231 549Q218 524 195 507Q221 496 236.5 471Q252 446 252 408Q252 354 222 319.5Q192 285 132 285ZM524 700 269 0H197L451 700ZM438 100V146L535 410H596L502 157H608V321H669V157H711V100H669V0H608V100Z" glyph-name="threequarters" horiz-adv-x="728" unicode="&#190;" /><glyph d="M12 286ZM132 286Q88 286 57.5 306Q27 326 12 372L62 396Q72 364 90 351.5Q108 339 129 339Q158 339 174 357.5Q190 376 190 412Q190 445 174.5 462Q159 479 130 479H100V532H129Q152 532 167 549.5Q182 567 182 597Q182 626 167.5 641.5Q153 657 127 657Q79 657 64 602L16 623Q41 712 135 712Q190 712 217 684Q244 656 244 608Q244 575 231 550Q218 525 195 508Q221 497 236.5 472Q252 447 252 409Q252 355 222 320.5Q192 286 132 286Z" glyph-name="threesuperior" horiz-adv-x="279" unicode="&#179;" /><glyph d="M300 683H354Q356 654 350 635Q344 616 334 604.5Q324 593 311 588Q298 583 285 583Q269 583 255 589.5Q241 596 229 603.5Q217 611 206.5 617.5Q196 624 186 624Q172 624 168 613Q164 602 164 587H109Q108 615 113.5 634.5Q119 654 129 665Q139 676 151.5 681Q164 686 176 686Q193 686 207.5 679.5Q222 673 234 665.5Q246 658 256.5 651.5Q267 645 278 645Q292 645 296 656Q300 667 300 683Z" glyph-name="tilde" horiz-adv-x="454" unicode="&#732;" /><glyph d="M18 700H211V655H139V406H92V655H18ZM239 406V700H292L366 467L442 700H494V406H448L450 602L385 406H346L283 599L285 406Z" glyph-name="trademark" horiz-adv-x="525" unicode="&#8482;" /><glyph d="M69 0ZM87 0V66L284 351Q323 408 342 453Q361 498 361 536Q361 591 336 617.5Q311 644 267 644Q219 644 186 617.5Q153 591 131 528L69 557Q99 643 150.5 677.5Q202 712 272 712Q353 712 397.5 668.5Q442 625 442 546Q442 498 421 446Q400 394 352 322L178 68L466 71V0Z" glyph-name="two" horiz-adv-x="535" unicode="2" /><glyph d="M29 0V66L226 351Q265 408 284 453Q303 498 303 536Q303 591 278 617.5Q253 644 209 644Q161 644 128 617.5Q95 591 73 528L11 557Q41 643 92.5 677.5Q144 712 214 712Q295 712 339.5 668.5Q384 625 384 546Q384 498 363 446Q342 394 294 322L120 68L408 71V0Z" glyph-name="two.LP" horiz-adv-x="431" /><glyph d="M29 0V60L199 285Q223 317 240 342.5Q257 368 267.5 389Q278 410 283 428Q288 446 288 463Q288 506 264 525Q240 544 204 544Q167 544 140.5 521Q114 498 97 447L35 476Q58 547 103 579.5Q148 612 213 612Q287 612 327 574.5Q367 537 367 471Q367 424 341 373Q315 322 261 252L119 68L381 70V0Z" glyph-name="two.OP" horiz-adv-x="412" /><glyph d="M94 0V60L269 285Q320 350 341.5 390Q363 430 363 465Q363 507 337.5 525.5Q312 544 274 544Q236 544 207.5 521Q179 498 162 447L100 476Q123 547 170 579.5Q217 612 283 612Q359 612 400.5 573.5Q442 535 442 469Q442 446 435 422.5Q428 399 414 373Q400 347 379 317.5Q358 288 331 252L189 68L456 70V0Z" glyph-name="two.OT" horiz-adv-x="535" /><glyph d="M9 0ZM20 -200V-151L135 12Q176 71 176 107Q176 162 127 162Q103 162 86 148Q69 134 56 102L9 123Q26 175 57.5 196.5Q89 218 132 218Q183 218 211 191.5Q239 165 239 116Q239 85 225.5 54Q212 23 181 -21L95 -145L251 -143V-200Z" glyph-name="two.inf" horiz-adv-x="266" /><glyph d="M9 294ZM20 294V343L135 506Q176 565 176 601Q176 656 127 656Q103 656 86 642Q69 628 56 596L9 617Q26 669 57.5 690.5Q89 712 132 712Q183 712 211 685.5Q239 659 239 610Q239 579 225.5 548Q212 517 181 473L95 349L251 351V294Z" glyph-name="twosuperior" horiz-adv-x="266" unicode="&#178;" /><glyph d="M410 0H342L337 87Q316 34 280.5 11Q245 -12 203 -12Q130 -12 95.5 37.5Q61 87 61 177V487H140V187Q140 55 226 55Q273 55 301 101Q329 147 331 236V487H410Z" glyph-name="u" horiz-adv-x="476" unicode="u" /><glyph d="M61 0ZM410 0H342L337 87Q316 34 280.5 11Q245 -12 203 -12Q130 -12 95.5 37.5Q61 87 61 177V487H140V187Q140 55 226 55Q273 55 301 101Q329 147 331 236V487H410ZM353 683 264 574H200V578L259 689H353Z" glyph-name="uacute" horiz-adv-x="476" unicode="&#250;" /><glyph d="M61 0ZM410 0H342L337 87Q316 34 280.5 11Q245 -12 203 -12Q130 -12 95.5 37.5Q61 87 61 177V487H140V187Q140 55 226 55Q273 55 301 101Q329 147 331 236V487H410ZM293 689H348Q348 620 318.5 594Q289 568 236 568Q182 568 153 594Q124 620 124 689H178Q178 651 192.5 636.5Q207 622 235 622Q264 622 278.5 636.5Q293 651 293 689Z" glyph-name="ubreve" horiz-adv-x="476" unicode="&#365;" /><glyph d="M61 0ZM410 0H342L337 87Q316 34 280.5 11Q245 -12 203 -12Q130 -12 95.5 37.5Q61 87 61 177V487H140V187Q140 55 226 55Q273 55 301 101Q329 147 331 236V487H410ZM235 644 185 574H109V577L201 689H272L365 577V574H286Z" glyph-name="ucircumflex" horiz-adv-x="476" unicode="&#251;" /><glyph d="M61 0ZM410 0H342L337 87Q316 34 280.5 11Q245 -12 203 -12Q130 -12 95.5 37.5Q61 87 61 177V487H140V187Q140 55 226 55Q273 55 301 101Q329 147 331 236V487H410ZM260 637Q260 691 309 691Q359 691 359 637Q359 582 309 582Q260 582 260 637ZM120 637Q120 663 133 677Q146 691 169 691Q220 691 220 637Q220 582 169 582Q146 582 133 596.5Q120 611 120 637Z" glyph-name="udieresis" horiz-adv-x="476" unicode="&#252;" /><glyph d="M61 0ZM410 0H342L337 87Q316 34 280.5 11Q245 -12 203 -12Q130 -12 95.5 37.5Q61 87 61 177V487H140V187Q140 55 226 55Q273 55 301 101Q329 147 331 236V487H410ZM211 576 121 685V691H217L275 580V576Z" glyph-name="ugrave" horiz-adv-x="476" unicode="&#249;" /><glyph d="M61 0ZM410 0H342L337 87Q316 34 280.5 11Q245 -12 203 -12Q130 -12 95.5 37.5Q61 87 61 177V487H140V187Q140 55 226 55Q273 55 301 101Q329 147 331 236V487H410ZM423 683 327 574H267V578L327 689H423ZM279 689V683L183 574H123V578L183 689Z" glyph-name="uhungarumlaut" horiz-adv-x="476" unicode="&#369;" /><glyph d="M61 0ZM410 0H342L337 87Q316 34 280.5 11Q245 -12 203 -12Q130 -12 95.5 37.5Q61 87 61 177V487H140V187Q140 55 226 55Q273 55 301 101Q329 147 331 236V487H410ZM334 659V601H137V659Z" glyph-name="umacron" horiz-adv-x="476" unicode="&#363;" /><glyph d="M364 0V-63H-3V0Z" glyph-name="underscore" horiz-adv-x="361" unicode="_" /><glyph glyph-name="uni00A0" horiz-adv-x="132" unicode="&#160;" /><glyph d="M272 289V220H38V289Z" glyph-name="uni00AD" horiz-adv-x="311" unicode="&#173;" /><glyph d="M12 0ZM12 700H431V628H263V0H181V628H12ZM271 -132Q271 -187 248.5 -227Q226 -267 186 -286L162 -253Q187 -239 204 -216Q221 -193 222 -164Q201 -167 186 -154.5Q171 -142 171 -115Q171 -90 184.5 -77.5Q198 -65 221 -65Q271 -65 271 -132Z" glyph-name="uni021A" horiz-adv-x="443" unicode="&#538;" /><glyph d="M18 0ZM268 6Q256 -3 237.5 -7.5Q219 -12 201 -12Q147 -12 112.5 22.5Q78 57 78 138V422H18V487H78V630H157V487H261V422H157V144Q157 98 171.5 80Q186 62 207 62Q218 62 230 65Q242 68 251 74ZM223 -132Q223 -187 200.5 -227Q178 -267 138 -286L114 -253Q139 -239 156 -216Q173 -193 174 -164Q153 -167 138 -154.5Q123 -142 123 -115Q123 -90 136.5 -77.5Q150 -65 173 -65Q223 -65 223 -132Z" glyph-name="uni021B" horiz-adv-x="286" unicode="&#539;" /><glyph d="M779 289V220H38V289Z" glyph-name="uni2015" horiz-adv-x="817" unicode="&#8213;" /><glyph d="M31 286ZM31 499Q31 611 63 661.5Q95 712 164 712Q232 712 263 661.5Q294 611 294 499Q294 387 263 336.5Q232 286 164 286Q95 286 63 337.5Q31 389 31 499ZM232 499Q232 544 227.5 574.5Q223 605 214 623Q205 641 192.5 649Q180 657 164 657Q130 657 112.5 622.5Q95 588 95 500Q95 454 99.5 423.5Q104 393 112.5 374.5Q121 356 134 348Q147 340 164 340Q180 340 192.5 348Q205 356 214 374.5Q223 393 227.5 423.5Q232 454 232 499Z" glyph-name="uni2070" horiz-adv-x="326" unicode="&#8304;" /><glyph d="M16 294ZM16 394V440L113 704H174L80 451H186V615H247V451H289V394H247V294H186V394Z" glyph-name="uni2074" horiz-adv-x="302" unicode="&#8308;" /><glyph d="M11 286ZM92 649 85 535Q98 546 115 551Q132 556 149 556Q194 556 225 526Q256 496 256 427Q256 364 225 325Q194 286 131 286Q89 286 57 305.5Q25 325 11 372L60 395Q69 364 87.5 351.5Q106 339 129 339Q161 339 177 362.5Q193 386 193 426Q193 505 130 505Q93 505 69 473L27 493L41 704H239V649Z" glyph-name="uni2075" horiz-adv-x="282" unicode="&#8309;" /><glyph d="M31 286ZM165 286Q101 286 66 336Q31 386 31 498Q31 608 65.5 660Q100 712 167 712Q209 712 236 694.5Q263 677 277 638L231 612Q212 659 171 659Q153 659 138.5 651Q124 643 114.5 624.5Q105 606 99.5 574.5Q94 543 94 496V482Q103 514 125 533Q147 552 179 552Q224 552 252 519.5Q280 487 280 424Q280 362 251.5 324Q223 286 165 286ZM104 418Q104 383 119 360.5Q134 338 162 338Q188 338 203.5 358Q219 378 219 420Q219 501 164 501Q136 501 120 478.5Q104 456 104 418Z" glyph-name="uni2076" horiz-adv-x="307" unicode="&#8310;" /><glyph d="M12 294ZM135 294H66Q66 350 74 402Q82 454 96 500Q110 546 130 583.5Q150 621 173 648L12 646V704H236V651Q187 598 161 511.5Q135 425 135 294Z" glyph-name="uni2077" horiz-adv-x="244" unicode="&#8311;" /><glyph d="M31 286ZM152 286Q95 286 63 318.5Q31 351 31 406Q31 445 47 471.5Q63 498 89 509Q68 523 55 546.5Q42 570 42 600Q42 653 71.5 682.5Q101 712 152 712Q203 712 232 682.5Q261 653 261 600Q261 570 248 546.5Q235 523 215 509Q240 498 256 471.5Q272 445 272 406Q272 351 240.5 318.5Q209 286 152 286ZM204 597Q204 623 190.5 641Q177 659 153 659Q127 659 113.5 641Q100 623 100 597Q100 571 113 553Q126 535 152 535Q177 535 190.5 553Q204 571 204 597ZM211 409Q211 439 195.5 459.5Q180 480 152 480Q123 480 108 459.5Q93 439 93 409Q93 377 108 357Q123 337 152 337Q181 337 196 357Q211 377 211 409Z" glyph-name="uni2078" horiz-adv-x="303" unicode="&#8312;" /><glyph d="M26 286ZM142 712Q206 712 240 661.5Q274 611 274 500Q274 390 240 338Q206 286 139 286Q99 286 70.5 301.5Q42 317 28 354L70 386Q92 338 135 338Q153 338 167.5 346Q182 354 191.5 373Q201 392 206.5 423Q212 454 212 501V507Q212 513 211 514Q203 481 181.5 462Q160 443 128 443Q81 443 53.5 476.5Q26 510 26 573Q26 635 55 673.5Q84 712 142 712ZM202 578Q202 614 186 636.5Q170 659 144 659Q118 659 102.5 639Q87 619 87 577Q87 538 101.5 516Q116 494 143 494Q169 494 185.5 517Q202 540 202 578Z" glyph-name="uni2079" horiz-adv-x="305" unicode="&#8313;" /><glyph d="M26 356ZM144 356H94V450H26V499H94V594H144V499H211V450H144Z" glyph-name="uni207A" horiz-adv-x="237" unicode="&#8314;" /><glyph d="M26 448ZM211 501V448H26V501Z" glyph-name="uni207B" horiz-adv-x="237" unicode="&#8315;" /><glyph d="M26 404ZM211 545V490H26V545ZM211 458V404H26V458Z" glyph-name="uni207C" horiz-adv-x="237" unicode="&#8316;" /><glyph d="M18 231ZM151 284 135 231Q76 245 47 303Q18 361 18 475Q18 590 47 648Q76 706 135 720L151 667Q131 661 116.5 649Q102 637 92 615Q82 593 77 558.5Q72 524 72 475Q72 426 77 392.5Q82 359 92 336.5Q102 314 116.5 302Q131 290 151 284Z" glyph-name="uni207D" horiz-adv-x="164" unicode="&#8317;" /><glyph d="M13 231ZM28 231 13 284Q32 290 47 302Q62 314 71.5 336.5Q81 359 86 392.5Q91 426 91 475Q91 524 86 558.5Q81 593 71.5 615Q62 637 47 649Q32 661 13 667L29 720Q88 706 117 648Q146 590 146 475Q146 361 116.5 303Q87 245 28 231Z" glyph-name="uni207E" horiz-adv-x="164" unicode="&#8318;" /><glyph d="M31 205Q31 317 63 367.5Q95 418 164 418Q232 418 263 367.5Q294 317 294 205Q294 93 263 42.5Q232 -8 164 -8Q95 -8 63 43.5Q31 95 31 205ZM232 205Q232 250 227.5 280.5Q223 311 214 329Q205 347 192.5 355Q180 363 164 363Q130 363 112.5 328.5Q95 294 95 206Q95 160 99.5 129.5Q104 99 112.5 80.5Q121 62 134 54Q147 46 164 46Q180 46 192.5 54Q205 62 214 80.5Q223 99 227.5 129.5Q232 160 232 205Z" glyph-name="uni2080" horiz-adv-x="326" unicode="&#8320;" /><glyph d="M133 0H70V327L33 295L7 347L91 412H133Z" glyph-name="uni2081" horiz-adv-x="180" unicode="&#8321;" /><glyph d="M20 0V49L135 212Q176 271 176 307Q176 362 127 362Q103 362 86 348Q69 334 56 302L9 323Q26 375 57.5 396.5Q89 418 132 418Q183 418 211 391.5Q239 365 239 316Q239 285 225.5 254Q212 223 181 179L95 55L251 57V0Z" glyph-name="uni2082" horiz-adv-x="266" unicode="&#8322;" /><glyph d="M132 -8Q88 -8 57.5 12Q27 32 12 78L62 102Q72 70 90 57.5Q108 45 129 45Q158 45 174 63.5Q190 82 190 118Q190 151 174.5 168Q159 185 130 185H100V238H129Q152 238 167 255.5Q182 273 182 303Q182 332 167.5 347.5Q153 363 127 363Q79 363 64 308L16 329Q41 418 135 418Q190 418 217 390Q244 362 244 314Q244 281 231 256Q218 231 195 214Q221 203 236.5 178Q252 153 252 115Q252 61 222 26.5Q192 -8 132 -8Z" glyph-name="uni2083" horiz-adv-x="279" unicode="&#8323;" /><glyph d="M16 100V146L113 410H174L80 157H186V321H247V157H289V100H247V0H186V100Z" glyph-name="uni2084" horiz-adv-x="301" unicode="&#8324;" /><glyph d="M92 355 85 241Q98 252 115 257Q132 262 149 262Q194 262 225 232Q256 202 256 133Q256 70 225 31Q194 -8 131 -8Q89 -8 57 11.5Q25 31 11 78L60 101Q69 70 87.5 57.5Q106 45 129 45Q161 45 177 68.5Q193 92 193 132Q193 211 130 211Q93 211 69 179L27 199L41 410H239V355Z" glyph-name="uni2085" horiz-adv-x="282" unicode="&#8325;" /><glyph d="M165 -8Q101 -8 66 42Q31 92 31 204Q31 314 65.5 366Q100 418 167 418Q209 418 236 400.5Q263 383 277 344L231 318Q212 365 171 365Q153 365 138.5 357Q124 349 114.5 330.5Q105 312 99.5 280.5Q94 249 94 202V188Q103 220 125 239Q147 258 179 258Q224 258 252 225.5Q280 193 280 130Q280 68 251.5 30Q223 -8 165 -8ZM104 124Q104 89 119 66.5Q134 44 162 44Q188 44 203.5 64Q219 84 219 126Q219 207 164 207Q136 207 120 184.5Q104 162 104 124Z" glyph-name="uni2086" horiz-adv-x="307" unicode="&#8326;" /><glyph d="M135 0H66Q66 56 74 108Q82 160 96 206Q110 252 130 289.5Q150 327 173 354L12 352V410H236V357Q187 304 161 217.5Q135 131 135 0Z" glyph-name="uni2087" horiz-adv-x="244" unicode="&#8327;" /><glyph d="M152 -8Q95 -8 63 24.5Q31 57 31 112Q31 151 47 177.5Q63 204 89 215Q68 229 55 252.5Q42 276 42 306Q42 359 71.5 388.5Q101 418 152 418Q203 418 232 388.5Q261 359 261 306Q261 276 248 252.5Q235 229 215 215Q240 204 256 177.5Q272 151 272 112Q272 57 240.5 24.5Q209 -8 152 -8ZM204 303Q204 329 190.5 347Q177 365 153 365Q127 365 113.5 347Q100 329 100 303Q100 277 113 259Q126 241 152 241Q177 241 190.5 259Q204 277 204 303ZM211 115Q211 145 195.5 165.5Q180 186 152 186Q123 186 108 165.5Q93 145 93 115Q93 83 108 63Q123 43 152 43Q181 43 196 63Q211 83 211 115Z" glyph-name="uni2088" horiz-adv-x="303" unicode="&#8328;" /><glyph d="M142 418Q206 418 240 367.5Q274 317 274 206Q274 96 240 44Q206 -8 139 -8Q99 -8 70.5 7.5Q42 23 28 60L70 92Q92 44 135 44Q153 44 167.5 52Q182 60 191.5 79Q201 98 206.5 129Q212 160 212 207V213Q212 219 211 220Q203 187 181.5 168Q160 149 128 149Q81 149 53.5 182.5Q26 216 26 279Q26 341 55 379.5Q84 418 142 418ZM202 284Q202 320 186 342.5Q170 365 144 365Q118 365 102.5 345Q87 325 87 283Q87 244 101.5 222Q116 200 143 200Q169 200 185.5 223Q202 246 202 284Z" glyph-name="uni2089" horiz-adv-x="305" unicode="&#8329;" /><glyph d="M144 62H94V156H26V205H94V300H144V205H211V156H144Z" glyph-name="uni208A" horiz-adv-x="237" unicode="&#8330;" /><glyph d="M211 207V154H26V207Z" glyph-name="uni208B" horiz-adv-x="237" unicode="&#8331;" /><glyph d="M211 251V196H26V251ZM211 164V110H26V164Z" glyph-name="uni208C" horiz-adv-x="237" unicode="&#8332;" /><glyph d="M151 -10 135 -63Q76 -49 47 9Q18 67 18 181Q18 296 47 354Q76 412 135 426L151 373Q131 367 116.5 355Q102 343 92 321Q82 299 77 264.5Q72 230 72 181Q72 132 77 98.5Q82 65 92 42.5Q102 20 116.5 8Q131 -4 151 -10Z" glyph-name="uni208D" horiz-adv-x="164" unicode="&#8333;" /><glyph d="M28 -63 13 -10Q32 -4 47 8Q62 20 71.5 42.5Q81 65 86 98.5Q91 132 91 181Q91 230 86 264.5Q81 299 71.5 321Q62 343 47 355Q32 367 13 373L29 426Q88 412 117 354Q146 296 146 181Q146 67 116.5 9Q87 -49 28 -63Z" glyph-name="uni208E" horiz-adv-x="164" unicode="&#8334;" /><glyph d="M7 0ZM487 -8Q443 -8 412.5 12Q382 32 367 78L417 102Q427 70 445 57.5Q463 45 484 45Q513 45 529 63.5Q545 82 545 118Q545 151 529.5 168Q514 185 485 185H455V238H484Q507 238 522 255.5Q537 273 537 303Q537 332 522.5 347.5Q508 363 482 363Q434 363 419 308L371 329Q396 418 490 418Q545 418 572 390Q599 362 599 314Q599 281 586 256Q573 231 550 214Q576 203 591.5 178Q607 153 607 115Q607 61 577 26.5Q547 -8 487 -8ZM133 293H70V620L33 588L7 640L91 705H133ZM435 700 180 0H108L362 700Z" glyph-name="uni2153" horiz-adv-x="640" unicode="&#8531;" /><glyph d="M9 0ZM580 -8Q536 -8 505.5 12Q475 32 460 78L510 102Q520 70 538 57.5Q556 45 577 45Q606 45 622 63.5Q638 82 638 118Q638 151 622.5 168Q607 185 578 185H548V238H577Q600 238 615 255.5Q630 273 630 303Q630 332 615.5 347.5Q601 363 575 363Q527 363 512 308L464 329Q489 418 583 418Q638 418 665 390Q692 362 692 314Q692 281 679 256Q666 231 643 214Q669 203 684.5 178Q700 153 700 115Q700 61 670 26.5Q640 -8 580 -8ZM20 293V342L135 505Q176 564 176 600Q176 655 127 655Q103 655 86 641Q69 627 56 595L9 616Q26 668 57.5 689.5Q89 711 132 711Q183 711 211 684.5Q239 658 239 609Q239 578 225.5 547Q212 516 181 472L95 348L251 350V293ZM529 700 274 0H202L456 700Z" glyph-name="uni2154" horiz-adv-x="733" unicode="&#8532;" /><glyph d="M7 0ZM133 293H70V620L33 588L7 640L91 705H133ZM450 355 443 241Q456 252 473 257Q490 262 507 262Q552 262 583 232Q614 202 614 133Q614 70 583 31Q552 -8 489 -8Q447 -8 415 11.5Q383 31 369 78L418 101Q427 70 445.5 57.5Q464 45 487 45Q519 45 535 68.5Q551 92 551 132Q551 211 488 211Q451 211 427 179L385 199L399 410H597V355ZM435 700 180 0H108L362 700Z" glyph-name="uni2155" horiz-adv-x="636" unicode="&#8533;" /><glyph d="M9 0ZM20 293V342L135 505Q176 564 176 600Q176 655 127 655Q103 655 86 641Q69 627 56 595L9 616Q26 668 57.5 689.5Q89 711 132 711Q183 711 211 684.5Q239 658 239 609Q239 578 225.5 547Q212 516 181 472L95 348L251 350V293ZM542 355 535 241Q548 252 565 257Q582 262 599 262Q644 262 675 232Q706 202 706 133Q706 70 675 31Q644 -8 581 -8Q539 -8 507 11.5Q475 31 461 78L510 101Q519 70 537.5 57.5Q556 45 579 45Q611 45 627 68.5Q643 92 643 132Q643 211 580 211Q543 211 519 179L477 199L491 410H689V355ZM529 700 274 0H202L456 700Z" glyph-name="uni2156" horiz-adv-x="728" unicode="&#8534;" /><glyph d="M12 0ZM132 285Q88 285 57.5 305Q27 325 12 371L62 395Q72 363 90 350.5Q108 338 129 338Q158 338 174 356.5Q190 375 190 411Q190 444 174.5 461Q159 478 130 478H100V531H129Q152 531 167 548.5Q182 566 182 596Q182 625 167.5 640.5Q153 656 127 656Q79 656 64 601L16 622Q41 711 135 711Q190 711 217 683Q244 655 244 607Q244 574 231 549Q218 524 195 507Q221 496 236.5 471Q252 446 252 408Q252 354 222 319.5Q192 285 132 285ZM539 355 532 241Q545 252 562 257Q579 262 596 262Q641 262 672 232Q703 202 703 133Q703 70 672 31Q641 -8 578 -8Q536 -8 504 11.5Q472 31 458 78L507 101Q516 70 534.5 57.5Q553 45 576 45Q608 45 624 68.5Q640 92 640 132Q640 211 577 211Q540 211 516 179L474 199L488 410H686V355ZM524 700 269 0H197L451 700Z" glyph-name="uni2157" horiz-adv-x="724" unicode="&#8535;" /><glyph d="M16 0ZM561 355 554 241Q567 252 584 257Q601 262 618 262Q663 262 694 232Q725 202 725 133Q725 70 694 31Q663 -8 600 -8Q558 -8 526 11.5Q494 31 480 78L529 101Q538 70 556.5 57.5Q575 45 598 45Q630 45 646 68.5Q662 92 662 132Q662 211 599 211Q562 211 538 179L496 199L510 410H708V355ZM547 700 292 0H220L474 700ZM16 393V439L113 703H174L80 450H186V614H247V450H289V393H247V293H186V393Z" glyph-name="uni2158" horiz-adv-x="747" unicode="&#8536;" /><glyph d="M7 0ZM133 293H70V620L33 588L7 640L91 705H133ZM517 -8Q453 -8 418 42Q383 92 383 204Q383 314 417.5 366Q452 418 519 418Q561 418 588 400.5Q615 383 629 344L583 318Q564 365 523 365Q505 365 490.5 357Q476 349 466.5 330.5Q457 312 451.5 280.5Q446 249 446 202V188Q455 220 477 239Q499 258 531 258Q576 258 604 225.5Q632 193 632 130Q632 68 603.5 30Q575 -8 517 -8ZM456 124Q456 89 471 66.5Q486 44 514 44Q540 44 555.5 64Q571 84 571 126Q571 207 516 207Q488 207 472 184.5Q456 162 456 124ZM435 700 180 0H108L362 700Z" glyph-name="uni2159" horiz-adv-x="663" unicode="&#8537;" /><glyph d="M11 0ZM92 648 85 534Q98 545 115 550Q132 555 149 555Q194 555 225 525Q256 495 256 426Q256 363 225 324Q194 285 131 285Q89 285 57 304.5Q25 324 11 371L60 394Q69 363 87.5 350.5Q106 338 129 338Q161 338 177 361.5Q193 385 193 425Q193 504 130 504Q93 504 69 472L27 492L41 703H239V648ZM606 -8Q542 -8 507 42Q472 92 472 204Q472 314 506.5 366Q541 418 608 418Q650 418 677 400.5Q704 383 718 344L672 318Q653 365 612 365Q594 365 579.5 357Q565 349 555.5 330.5Q546 312 540.5 280.5Q535 249 535 202V188Q544 220 566 239Q588 258 620 258Q665 258 693 225.5Q721 193 721 130Q721 68 692.5 30Q664 -8 606 -8ZM545 124Q545 89 560 66.5Q575 44 603 44Q629 44 644.5 64Q660 84 660 126Q660 207 605 207Q577 207 561 184.5Q545 162 545 124ZM524 700 269 0H197L451 700Z" glyph-name="uni215A" horiz-adv-x="752" unicode="&#8538;" /><glyph d="M7 0ZM133 293H70V620L33 588L7 640L91 705H133ZM506 -8Q449 -8 417 24.5Q385 57 385 112Q385 151 401 177.5Q417 204 443 215Q422 229 409 252.5Q396 276 396 306Q396 359 425.5 388.5Q455 418 506 418Q557 418 586 388.5Q615 359 615 306Q615 276 602 252.5Q589 229 569 215Q594 204 610 177.5Q626 151 626 112Q626 57 594.5 24.5Q563 -8 506 -8ZM558 303Q558 329 544.5 347Q531 365 507 365Q481 365 467.5 347Q454 329 454 303Q454 277 467 259Q480 241 506 241Q531 241 544.5 259Q558 277 558 303ZM565 115Q565 145 549.5 165.5Q534 186 506 186Q477 186 462 165.5Q447 145 447 115Q447 83 462 63Q477 43 506 43Q535 43 550 63Q565 83 565 115ZM435 700 180 0H108L362 700Z" glyph-name="uni215B" horiz-adv-x="658" unicode="&#8539;" /><glyph d="M12 0ZM132 285Q88 285 57.5 305Q27 325 12 371L62 395Q72 363 90 350.5Q108 338 129 338Q158 338 174 356.5Q190 375 190 411Q190 444 174.5 461Q159 478 130 478H100V531H129Q152 531 167 548.5Q182 566 182 596Q182 625 167.5 640.5Q153 656 127 656Q79 656 64 601L16 622Q41 711 135 711Q190 711 217 683Q244 655 244 607Q244 574 231 549Q218 524 195 507Q221 496 236.5 471Q252 446 252 408Q252 354 222 319.5Q192 285 132 285ZM595 -8Q538 -8 506 24.5Q474 57 474 112Q474 151 490 177.5Q506 204 532 215Q511 229 498 252.5Q485 276 485 306Q485 359 514.5 388.5Q544 418 595 418Q646 418 675 388.5Q704 359 704 306Q704 276 691 252.5Q678 229 658 215Q683 204 699 177.5Q715 151 715 112Q715 57 683.5 24.5Q652 -8 595 -8ZM647 303Q647 329 633.5 347Q620 365 596 365Q570 365 556.5 347Q543 329 543 303Q543 277 556 259Q569 241 595 241Q620 241 633.5 259Q647 277 647 303ZM654 115Q654 145 638.5 165.5Q623 186 595 186Q566 186 551 165.5Q536 145 536 115Q536 83 551 63Q566 43 595 43Q624 43 639 63Q654 83 654 115ZM524 700 269 0H197L451 700Z" glyph-name="uni215C" horiz-adv-x="746" unicode="&#8540;" /><glyph d="M11 0ZM595 -8Q538 -8 506 24.5Q474 57 474 112Q474 151 490 177.5Q506 204 532 215Q511 229 498 252.5Q485 276 485 306Q485 359 514.5 388.5Q544 418 595 418Q646 418 675 388.5Q704 359 704 306Q704 276 691 252.5Q678 229 658 215Q683 204 699 177.5Q715 151 715 112Q715 57 683.5 24.5Q652 -8 595 -8ZM647 303Q647 329 633.5 347Q620 365 596 365Q570 365 556.5 347Q543 329 543 303Q543 277 556 259Q569 241 595 241Q620 241 633.5 259Q647 277 647 303ZM654 115Q654 145 638.5 165.5Q623 186 595 186Q566 186 551 165.5Q536 145 536 115Q536 83 551 63Q566 43 595 43Q624 43 639 63Q654 83 654 115ZM92 648 85 534Q98 545 115 550Q132 555 149 555Q194 555 225 525Q256 495 256 426Q256 363 225 324Q194 285 131 285Q89 285 57 304.5Q25 324 11 371L60 394Q69 363 87.5 350.5Q106 338 129 338Q161 338 177 361.5Q193 385 193 425Q193 504 130 504Q93 504 69 472L27 492L41 703H239V648ZM524 700 269 0H197L451 700Z" glyph-name="uni215D" horiz-adv-x="746" unicode="&#8541;" /><glyph d="M12 0ZM541 -8Q484 -8 452 24.5Q420 57 420 112Q420 151 436 177.5Q452 204 478 215Q457 229 444 252.5Q431 276 431 306Q431 359 460.5 388.5Q490 418 541 418Q592 418 621 388.5Q650 359 650 306Q650 276 637 252.5Q624 229 604 215Q629 204 645 177.5Q661 151 661 112Q661 57 629.5 24.5Q598 -8 541 -8ZM593 303Q593 329 579.5 347Q566 365 542 365Q516 365 502.5 347Q489 329 489 303Q489 277 502 259Q515 241 541 241Q566 241 579.5 259Q593 277 593 303ZM600 115Q600 145 584.5 165.5Q569 186 541 186Q512 186 497 165.5Q482 145 482 115Q482 83 497 63Q512 43 541 43Q570 43 585 63Q600 83 600 115ZM135 293H66Q66 349 74 401Q82 453 96 499Q110 545 130 582.5Q150 620 173 647L12 645V703H236V650Q187 597 161 510.5Q135 424 135 293ZM471 700 216 0H144L398 700Z" glyph-name="uni215E" horiz-adv-x="693" unicode="&#8542;" /><glyph d="M7 0ZM133 293H70V620L33 588L7 640L91 705H133ZM435 700 180 0H108L362 700Z" glyph-name="uni215F" horiz-adv-x="627" unicode="&#8543;" /><glyph d="M446 -184Q428 -198 409.5 -204.5Q391 -211 368 -211Q350 -211 332.5 -206Q315 -201 301 -189Q287 -177 278.5 -157Q270 -137 270 -106Q270 -58 290.5 -26Q311 6 340 22L337 87Q316 34 280.5 11Q245 -12 203 -12Q130 -12 95.5 37.5Q61 87 61 177V487H141V187Q141 55 226 55Q273 55 301 101Q329 147 331 236V487H410V0H400Q381 -2 367 -11Q353 -20 343.5 -33.5Q334 -47 329 -63.5Q324 -80 324 -96Q324 -128 339 -140Q354 -152 374 -152Q400 -152 420 -135Z" glyph-name="uogonek" horiz-adv-x="477" unicode="&#371;" /><glyph d="M61 0ZM410 0H342L337 87Q316 34 280.5 11Q245 -12 203 -12Q130 -12 95.5 37.5Q61 87 61 177V487H140V187Q140 55 226 55Q273 55 301 101Q329 147 331 236V487H410ZM153 642Q153 685 176.5 709Q200 733 237 733Q272 733 295 709Q318 685 318 642Q318 600 295 575.5Q272 551 236 551Q200 551 176.5 575.5Q153 600 153 642ZM195 642Q195 619 206 604Q217 589 236 589Q253 589 265 604Q277 619 277 642Q277 666 265.5 680Q254 694 237 694Q217 694 206 680Q195 666 195 642Z" glyph-name="uring" horiz-adv-x="476" unicode="&#367;" /><glyph d="M61 0ZM410 0H342L337 87Q316 34 280.5 11Q245 -12 203 -12Q130 -12 95.5 37.5Q61 87 61 177V487H140V187Q140 55 226 55Q273 55 301 101Q329 147 331 236V487H410ZM304 683H358Q360 654 354 635Q348 616 338 604.5Q328 593 315 588Q302 583 289 583Q273 583 259 589.5Q245 596 233 603.5Q221 611 210.5 617.5Q200 624 190 624Q176 624 172 613Q168 602 168 587H113Q112 615 117.5 634.5Q123 654 133 665Q143 676 155.5 681Q168 686 180 686Q197 686 211.5 679.5Q226 673 238 665.5Q250 658 260.5 651.5Q271 645 282 645Q296 645 300 656Q304 667 304 683Z" glyph-name="utilde" horiz-adv-x="476" unicode="&#361;" /><glyph d="M7 487H91L198 87L307 487H386L239 0H154Z" glyph-name="v" horiz-adv-x="394" unicode="v" /><glyph d="M241 483H329L405 99L482 487H558L446 0H358L283 378L208 0H121L7 487H88L165 100Z" glyph-name="w" horiz-adv-x="566" unicode="w" /><glyph d="M7 0ZM241 483H329L405 99L482 487H558L446 0H358L283 378L208 0H121L7 487H88L165 100ZM399 683 310 574H246V578L305 689H399Z" glyph-name="wacute" horiz-adv-x="566" unicode="&#7811;" /><glyph d="M7 0ZM241 483H329L405 99L482 487H558L446 0H358L283 378L208 0H121L7 487H88L165 100ZM282 644 232 574H156V577L248 689H319L412 577V574H333Z" glyph-name="wcircumflex" horiz-adv-x="566" unicode="&#373;" /><glyph d="M7 0ZM241 483H329L405 99L482 487H558L446 0H358L283 378L208 0H121L7 487H88L165 100ZM306 637Q306 691 355 691Q405 691 405 637Q405 582 355 582Q306 582 306 637ZM166 637Q166 663 179 677Q192 691 215 691Q266 691 266 637Q266 582 215 582Q192 582 179 596.5Q166 611 166 637Z" glyph-name="wdieresis" horiz-adv-x="566" unicode="&#7813;" /><glyph d="M7 0ZM241 483H329L405 99L482 487H558L446 0H358L283 378L208 0H121L7 487H88L165 100ZM257 576 167 685V691H263L321 580V576Z" glyph-name="wgrave" horiz-adv-x="566" unicode="&#7809;" /><glyph d="M298 0 194 184 91 0H8L152 249L16 487H104L198 311L293 487H376L240 249L387 0Z" glyph-name="x" horiz-adv-x="395" unicode="x" /><glyph d="M144 -65 158 -12 7 487H91L199 95L308 487H388L213 -92Q190 -164 155 -190Q120 -216 75 -216Q54 -216 37.5 -213Q21 -210 0 -201L22 -133Q52 -144 72 -144Q100 -144 116.5 -127Q133 -110 144 -65Z" glyph-name="y" horiz-adv-x="396" unicode="y" /><glyph d="M210 -215Q138 -215 96.5 -182.5Q55 -150 32 -90L99 -58Q113 -103 139.5 -126Q166 -149 204 -149Q319 -149 319 5V86Q296 39 264 19Q232 -1 194 -1Q126 -1 93.5 47Q61 95 61 183V487H140V193Q140 64 217 64Q264 64 290.5 111Q317 158 319 247V487H398V5Q398 -51 384.5 -92.5Q371 -134 346 -161Q321 -188 286.5 -201.5Q252 -215 210 -215Z" glyph-name="y.school" horiz-adv-x="464" /><glyph d="M0 0ZM144 -65 158 -12 7 487H91L199 95L308 487H388L213 -92Q190 -164 155 -190Q120 -216 75 -216Q54 -216 37.5 -213Q21 -210 0 -201L22 -133Q52 -144 72 -144Q100 -144 116.5 -127Q133 -110 144 -65ZM315 683 226 574H162V578L221 689H315Z" glyph-name="yacute" horiz-adv-x="396" unicode="&#253;" /><glyph d="M32 0ZM210 -215Q138 -215 96.5 -182.5Q55 -150 32 -90L99 -58Q113 -103 139.5 -126Q166 -149 204 -149Q319 -149 319 5V86Q296 39 264 19Q232 -1 194 -1Q126 -1 93.5 47Q61 95 61 183V487H140V193Q140 64 217 64Q264 64 290.5 111Q317 158 319 247V487H398V5Q398 -51 384.5 -92.5Q371 -134 346 -161Q321 -188 286.5 -201.5Q252 -215 210 -215ZM326 683 237 574H173V578L232 689H326Z" glyph-name="yacute.school" horiz-adv-x="466" /><glyph d="M0 0ZM144 -65 158 -12 7 487H91L199 95L308 487H388L213 -92Q190 -164 155 -190Q120 -216 75 -216Q54 -216 37.5 -213Q21 -210 0 -201L22 -133Q52 -144 72 -144Q100 -144 116.5 -127Q133 -110 144 -65ZM197 644 147 574H71V577L163 689H234L327 577V574H248Z" glyph-name="ycircumflex" horiz-adv-x="396" unicode="&#375;" /><glyph d="M32 0ZM233 644 183 574H107V577L199 689H270L363 577V574H284ZM210 -215Q138 -215 96.5 -182.5Q55 -150 32 -90L99 -58Q113 -103 139.5 -126Q166 -149 204 -149Q319 -149 319 5V86Q296 39 264 19Q232 -1 194 -1Q126 -1 93.5 47Q61 95 61 183V487H140V193Q140 64 217 64Q264 64 290.5 111Q317 158 319 247V487H398V5Q398 -51 384.5 -92.5Q371 -134 346 -161Q321 -188 286.5 -201.5Q252 -215 210 -215Z" glyph-name="ycircumflex.school" horiz-adv-x="466" /><glyph d="M0 0ZM144 -65 158 -12 7 487H91L199 95L308 487H388L213 -92Q190 -164 155 -190Q120 -216 75 -216Q54 -216 37.5 -213Q21 -210 0 -201L22 -133Q52 -144 72 -144Q100 -144 116.5 -127Q133 -110 144 -65ZM222 637Q222 691 271 691Q321 691 321 637Q321 582 271 582Q222 582 222 637ZM82 637Q82 663 95 677Q108 691 131 691Q182 691 182 637Q182 582 131 582Q108 582 95 596.5Q82 611 82 637Z" glyph-name="ydieresis" horiz-adv-x="396" unicode="&#255;" /><glyph d="M32 0ZM255 637Q255 691 304 691Q354 691 354 637Q354 582 304 582Q255 582 255 637ZM115 637Q115 663 128 677Q141 691 164 691Q215 691 215 637Q215 582 164 582Q141 582 128 596.5Q115 611 115 637ZM210 -215Q138 -215 96.5 -182.5Q55 -150 32 -90L99 -58Q113 -103 139.5 -126Q166 -149 204 -149Q319 -149 319 5V86Q296 39 264 19Q232 -1 194 -1Q126 -1 93.5 47Q61 95 61 183V487H140V193Q140 64 217 64Q264 64 290.5 111Q317 158 319 247V487H398V5Q398 -51 384.5 -92.5Q371 -134 346 -161Q321 -188 286.5 -201.5Q252 -215 210 -215Z" glyph-name="ydieresis.school" horiz-adv-x="466" /><glyph d="M424 221H279V0H197V221H53V287H194L168 343H53V410H139L8 700H99L241 355L382 700H469L337 410H424V343H307L282 287H424Z" glyph-name="yen" horiz-adv-x="477" unicode="&#165;" /><glyph d="M27 0V63L247 420H31V487H334V424L113 66H340V0Z" glyph-name="z" horiz-adv-x="368" unicode="z" /><glyph d="M27 0ZM27 0V63L247 420H31V487H334V424L113 66H340V0ZM301 683 212 574H148V578L207 689H301Z" glyph-name="zacute" horiz-adv-x="368" unicode="&#378;" /><glyph d="M27 0ZM27 0V63L247 420H31V487H334V424L113 66H340V0ZM185 622 238 689H314V687L220 574H149L58 687V689H136Z" glyph-name="zcaron" horiz-adv-x="368" unicode="&#382;" /><glyph d="M27 0ZM27 0V63L247 420H31V487H334V424L113 66H340V0ZM133 636Q133 662 146.5 676Q160 690 184 690Q234 690 234 636Q234 581 184 581Q160 581 146.5 595.5Q133 610 133 636Z" glyph-name="zdotaccent" horiz-adv-x="368" unicode="&#380;" /><glyph d="M54 0ZM54 350Q54 446 66.5 515Q79 584 105.5 627.5Q132 671 172 691.5Q212 712 268 712Q323 712 363.5 691.5Q404 671 430 627.5Q456 584 469 515Q482 446 482 350Q482 254 469 185.5Q456 117 430 73Q404 29 363.5 8.5Q323 -12 268 -12Q157 -12 105.5 74.5Q54 161 54 350ZM401 349Q401 433 392.5 489.5Q384 546 367 580.5Q350 615 325 629.5Q300 644 268 644Q236 644 211 629Q186 614 169 579.5Q152 545 143.5 489Q135 433 135 351Q135 266 143.5 209.5Q152 153 169 118.5Q186 84 211 69.5Q236 55 268 55Q300 55 325 69.5Q350 84 367 118Q384 152 392.5 208.5Q401 265 401 349Z" glyph-name="zero" horiz-adv-x="535" unicode="0" /><glyph d="M56 350Q56 446 68.5 515Q81 584 107.5 627.5Q134 671 174 691.5Q214 712 270 712Q325 712 365.5 691.5Q406 671 432 627.5Q458 584 471 515Q484 446 484 350Q484 254 471 185.5Q458 117 432 73Q406 29 365.5 8.5Q325 -12 270 -12Q159 -12 107.5 74.5Q56 161 56 350ZM403 349Q403 433 394.5 489.5Q386 546 369 580.5Q352 615 327 629.5Q302 644 270 644Q238 644 213 629Q188 614 171 579.5Q154 545 145.5 489Q137 433 137 351Q137 266 145.5 209.5Q154 153 171 118.5Q188 84 213 69.5Q238 55 270 55Q302 55 327 69.5Q352 84 369 118Q386 152 394.5 208.5Q403 265 403 349Z" glyph-name="zero.LP" horiz-adv-x="540" /><glyph d="M233 612Q329 612 378.5 538.5Q428 465 428 299Q428 136 377.5 62Q327 -12 233 -12Q186 -12 150 5.5Q114 23 90 61Q66 99 53.5 158Q41 217 41 300Q41 383 53.5 442.5Q66 502 90 539.5Q114 577 150 594.5Q186 612 233 612ZM233 545Q206 545 184.5 533Q163 521 149 493Q135 465 127.5 417.5Q120 370 120 300Q120 230 127.5 183Q135 136 149 107.5Q163 79 184.5 67Q206 55 233 55Q262 55 284 67Q306 79 320.5 107.5Q335 136 342.5 183Q350 230 350 300Q350 369 342.5 416Q335 463 320.5 491.5Q306 520 284 532.5Q262 545 233 545Z" glyph-name="zero.OP" horiz-adv-x="469" /><glyph d="M266 612Q362 612 411.5 538.5Q461 465 461 299Q461 136 410.5 62Q360 -12 266 -12Q219 -12 183 5.5Q147 23 123 61Q99 99 86.5 158Q74 217 74 300Q74 383 86.5 442.5Q99 502 123 539.5Q147 577 183 594.5Q219 612 266 612ZM266 545Q239 545 217.5 533Q196 521 182 493Q168 465 160.5 417.5Q153 370 153 300Q153 230 160.5 183Q168 136 182 107.5Q196 79 217.5 67Q239 55 266 55Q295 55 317 67Q339 79 353.5 107.5Q368 136 375.5 183Q383 230 383 300Q383 369 375.5 416Q368 463 353.5 491.5Q339 520 317 532.5Q295 545 266 545Z" glyph-name="zero.OT" horiz-adv-x="535" /><glyph d="M31 0ZM31 5Q31 117 63 167.5Q95 218 164 218Q232 218 263 167.5Q294 117 294 5Q294 -107 263 -157.5Q232 -208 164 -208Q95 -208 63 -156.5Q31 -105 31 5ZM232 5Q232 50 227.5 80.5Q223 111 214 129Q205 147 192.5 155Q180 163 164 163Q130 163 112.5 128.5Q95 94 95 6Q95 -40 99.5 -70.5Q104 -101 112.5 -119.5Q121 -138 134 -146Q147 -154 164 -154Q180 -154 192.5 -146Q205 -138 214 -119.5Q223 -101 227.5 -70.5Q232 -40 232 5Z" glyph-name="zero.inf" horiz-adv-x="326" /><glyph glyph-name="zerowidthspace" horiz-adv-x="0" unicode="&#8203;" /></font>
</defs>
</svg>
