<?xml version="1.0" standalone="no"?><!DOCTYPE svg PUBLIC "-//W3C//DTD SVG 1.1//EN" "http://www.w3.org/Graphics/SVG/1.1/DTD/svg11.dtd" ><svg version="1.1" xmlns="http://www.w3.org/2000/svg"><defs><font horiz-adv-x="0" id="font"><font-face ascent="957" bbox="-141 -326 1136 957" cap-height="700" descent="-220" font-family="Honeywell Cond Web" font-stretch="condensed" font-style="italic" font-weight="800" units-per-em="1000" x-height="496" /><missing-glyph d="M85 0V700H612V0ZM303 346 157 585V105ZM394 346 540 108V584ZM215 626 349 405 484 626ZM347 289 220 74H477Z" horiz-adv-x="697" /><glyph d="M0 0Z" glyph-name=".ttfautohint" horiz-adv-x="322" /><glyph d="M317 532 203 233H335ZM347 0 340 116H161L116 0H-28L260 700H428L492 0Z" glyph-name="A" horiz-adv-x="542" unicode="A" /><glyph d="M318 543 197 233H337ZM-32 0 267 700H805L786 579H450L460 416H723L703 291H468L478 122H722L702 0H350L343 114H154L108 0Z" glyph-name="AE" horiz-adv-x="775" unicode="&#198;" /><glyph d="M0 0ZM317 532 203 233H335ZM347 0 340 116H161L116 0H-28L260 700H428L492 0ZM375 907H514L513 900L395 775H290V780Z" glyph-name="Aacute" horiz-adv-x="542" unicode="&#193;" /><glyph d="M0 0ZM317 532 203 233H335ZM347 0 340 116H161L116 0H-28L260 700H428L492 0ZM426 905H506Q500 866 487 839.5Q474 813 454.5 797Q435 781 409 774Q383 767 351 767Q319 767 295 774Q271 781 256 797Q241 813 235.5 839.5Q230 866 236 905H317Q311 869 321.5 856Q332 843 360 843Q389 843 405 856Q421 869 426 905Z" glyph-name="Abreve" horiz-adv-x="542" unicode="&#258;" /><glyph d="M0 0ZM317 532 203 233H335ZM347 0 340 116H161L116 0H-28L260 700H428L492 0ZM316 906H426L498 778V774H394L359 833L307 774H202L203 778Z" glyph-name="Acircumflex" horiz-adv-x="542" unicode="&#194;" /><glyph d="M0 0ZM317 532 203 233H335ZM347 0 340 116H161L116 0H-28L260 700H428L492 0ZM200 834Q200 872 220 896Q240 920 278 920Q339 920 339 862Q339 824 319 800Q299 776 259 776Q200 776 200 834ZM381 834Q381 872 400.5 896Q420 920 459 920Q519 920 519 862Q519 824 499.5 800Q480 776 440 776Q381 776 381 834Z" glyph-name="Adieresis" horiz-adv-x="542" unicode="&#196;" /><glyph d="M0 0ZM317 532 203 233H335ZM347 0 340 116H161L116 0H-28L260 700H428L492 0ZM307 774 226 899 227 906H372L411 779V774Z" glyph-name="Agrave" horiz-adv-x="542" unicode="&#192;" /><glyph d="M0 0ZM317 532 203 233H335ZM347 0 340 116H161L116 0H-28L260 700H428L492 0ZM478 878 466 793H241L254 878Z" glyph-name="Amacron" horiz-adv-x="542" unicode="&#256;" /><glyph d="M463 -196Q440 -212 418.5 -219.5Q397 -227 371 -227Q328 -227 298.5 -202.5Q269 -178 269 -122Q269 -72 290 -33.5Q311 5 345 26L340 116H161L116 0H-28L260 700H428L492 0H427Q388 -4 368 -32.5Q348 -61 348 -94Q348 -120 360.5 -131Q373 -142 391 -142Q418 -142 437 -125ZM317 532 203 233H335Z" glyph-name="Aogonek" horiz-adv-x="542" unicode="&#260;" /><glyph d="M0 0ZM317 532 203 233H335ZM347 0 340 116H161L116 0H-28L260 700H428L492 0ZM376 956Q411 956 434 935Q457 914 457 873Q457 822 427 788Q397 754 349 754Q312 754 288.5 775Q265 796 265 838Q265 887 294.5 921.5Q324 956 376 956ZM369 901Q347 901 335 885Q323 869 323 846Q323 809 355 809Q375 809 387.5 826Q400 843 400 866Q400 883 391.5 892Q383 901 369 901Z" glyph-name="Aring" horiz-adv-x="542" unicode="&#197;" /><glyph d="M0 0ZM317 532 203 233H335ZM347 0 340 116H161L116 0H-28L260 700H428L492 0ZM435 902H511Q508 867 498 844Q488 821 474 807Q460 793 444 787Q428 781 413 781Q396 781 382.5 786.5Q369 792 357.5 798.5Q346 805 335.5 810.5Q325 816 314 816Q301 816 295.5 805.5Q290 795 288 782H209Q212 816 222 839.5Q232 863 245.5 876.5Q259 890 275 896Q291 902 306 902Q324 902 338 896.5Q352 891 364 884.5Q376 878 386.5 872.5Q397 867 408 867Q422 867 427.5 877.5Q433 888 435 902Z" glyph-name="Atilde" horiz-adv-x="542" unicode="&#195;" /><glyph d="M22 0 133 700H382Q422 700 451 688.5Q480 677 498.5 656.5Q517 636 525.5 608.5Q534 581 534 549Q534 484 506 436Q478 388 430 362Q466 347 481.5 311.5Q497 276 497 231Q497 178 481.5 135.5Q466 93 437 63Q408 33 366 16.5Q324 0 270 0ZM330 583H250L223 410H303Q348 410 372 439.5Q396 469 396 511Q396 545 378 564Q360 583 330 583ZM291 295H205L176 116H259Q304 116 332 142Q360 168 360 224Q360 257 343.5 276Q327 295 291 295Z" glyph-name="B" horiz-adv-x="536" unicode="B" /><glyph d="M53 351Q80 543 157.5 628.5Q235 714 363 714Q452 714 503 666.5Q554 619 561 508L436 475Q430 537 407.5 561Q385 585 346 585Q320 585 297.5 574Q275 563 256 536Q237 509 221.5 463.5Q206 418 195 349Q190 317 187 289.5Q184 262 184 239Q184 167 208.5 139.5Q233 112 278 112Q313 112 345 135.5Q377 159 400 217L513 161Q475 68 409 27Q343 -14 258 -14Q146 -14 94 44Q42 102 42 229Q42 257 44.5 286.5Q47 316 53 351Z" glyph-name="C" horiz-adv-x="537" unicode="C" /><glyph glyph-name="CR" horiz-adv-x="134" unicode="" /><glyph d="M42 0ZM53 351Q80 543 157.5 628.5Q235 714 363 714Q452 714 503 666.5Q554 619 561 508L436 475Q430 537 407.5 561Q385 585 346 585Q320 585 297.5 574Q275 563 256 536Q237 509 221.5 463.5Q206 418 195 349Q190 317 187 289.5Q184 262 184 239Q184 167 208.5 139.5Q233 112 278 112Q313 112 345 135.5Q377 159 400 217L513 161Q475 68 409 27Q343 -14 258 -14Q146 -14 94 44Q42 102 42 229Q42 257 44.5 286.5Q47 316 53 351ZM398 907H537L536 900L418 775H313V780Z" glyph-name="Cacute" horiz-adv-x="537" unicode="&#262;" /><glyph d="M42 0ZM53 351Q80 543 157.5 628.5Q235 714 363 714Q452 714 503 666.5Q554 619 561 508L436 475Q430 537 407.5 561Q385 585 346 585Q320 585 297.5 574Q275 563 256 536Q237 509 221.5 463.5Q206 418 195 349Q190 317 187 289.5Q184 262 184 239Q184 167 208.5 139.5Q233 112 278 112Q313 112 345 135.5Q377 159 400 217L513 161Q475 68 409 27Q343 -14 258 -14Q146 -14 94 44Q42 102 42 229Q42 257 44.5 286.5Q47 316 53 351ZM319 775 248 904V907H353L384 848L440 907H544L543 904L430 775Z" glyph-name="Ccaron" horiz-adv-x="537" unicode="&#268;" /><glyph d="M216 -249Q177 -249 144.5 -231.5Q112 -214 101 -172L165 -134Q180 -176 217 -176Q239 -176 250 -163.5Q261 -151 261 -134Q261 -116 246 -107Q231 -98 214 -104L195 -90L227 -13Q131 -5 86.5 53Q42 111 42 229Q42 257 44.5 286.5Q47 316 53 351Q80 543 157.5 628.5Q235 714 363 714Q452 714 503 666.5Q554 619 561 508L436 475Q430 537 407.5 561Q385 585 346 585Q320 585 297.5 574Q275 563 256 536Q237 509 221.5 463.5Q206 418 195 349Q190 317 187 289.5Q184 262 184 239Q184 167 208.5 139.5Q233 112 278 112Q313 112 345 135.5Q377 159 400 217L513 161Q478 78 422 37Q366 -4 293 -12L275 -52Q301 -56 321 -75.5Q341 -95 341 -132Q341 -189 305.5 -219Q270 -249 216 -249Z" glyph-name="Ccedilla" horiz-adv-x="537" unicode="&#199;" /><glyph d="M42 0ZM53 351Q80 543 157.5 628.5Q235 714 363 714Q452 714 503 666.5Q554 619 561 508L436 475Q430 537 407.5 561Q385 585 346 585Q320 585 297.5 574Q275 563 256 536Q237 509 221.5 463.5Q206 418 195 349Q190 317 187 289.5Q184 262 184 239Q184 167 208.5 139.5Q233 112 278 112Q313 112 345 135.5Q377 159 400 217L513 161Q475 68 409 27Q343 -14 258 -14Q146 -14 94 44Q42 102 42 229Q42 257 44.5 286.5Q47 316 53 351ZM338 907H448L520 779V775H416L381 834L329 775H224L225 779Z" glyph-name="Ccircumflex" horiz-adv-x="537" unicode="&#264;" /><glyph d="M42 0ZM53 351Q80 543 157.5 628.5Q235 714 363 714Q452 714 503 666.5Q554 619 561 508L436 475Q430 537 407.5 561Q385 585 346 585Q320 585 297.5 574Q275 563 256 536Q237 509 221.5 463.5Q206 418 195 349Q190 317 187 289.5Q184 262 184 239Q184 167 208.5 139.5Q233 112 278 112Q313 112 345 135.5Q377 159 400 217L513 161Q475 68 409 27Q343 -14 258 -14Q146 -14 94 44Q42 102 42 229Q42 257 44.5 286.5Q47 316 53 351ZM310 836Q310 874 330.5 897Q351 920 392 920Q423 920 439 904.5Q455 889 455 860Q455 821 434 798Q413 775 374 775Q310 775 310 836Z" glyph-name="Cdotaccent" horiz-adv-x="537" unicode="&#266;" /><glyph d="M22 0 133 700H335Q447 700 503.5 641.5Q560 583 560 458Q560 436 558 408.5Q556 381 552 353Q500 0 230 0ZM182 125H239Q269 125 296 136.5Q323 148 345 174Q367 200 383.5 243.5Q400 287 410 351Q414 375 416 400Q418 425 418 445Q418 514 394 545Q370 576 321 576H254Z" glyph-name="D" horiz-adv-x="575" unicode="D" /><glyph d="M22 0ZM22 0 133 700H335Q447 700 503.5 641.5Q560 583 560 458Q560 436 558 408.5Q556 381 552 353Q500 0 230 0ZM182 125H239Q269 125 296 136.5Q323 148 345 174Q367 200 383.5 243.5Q400 287 410 351Q414 375 416 400Q418 425 418 445Q418 514 394 545Q370 576 321 576H254ZM324 775 253 904V907H358L389 848L445 907H549L548 904L435 775Z" glyph-name="Dcaron" horiz-adv-x="575" unicode="&#270;" /><glyph d="M241 0H32L79 292H27L46 409H97L143 700H347Q458 700 514.5 641.5Q571 583 571 458Q571 436 569 408.5Q567 381 562 353Q508 0 241 0ZM193 125H249Q279 125 306 136.5Q333 148 355 174Q377 200 393.5 243.5Q410 287 420 351Q424 375 426.5 400Q429 425 429 445Q429 514 405 545Q381 576 333 576H264L237 409H319L301 292H220Z" glyph-name="Dcroat" horiz-adv-x="585" unicode="&#272;" /><glyph d="M452 122 433 0H22L133 700H546L525 578H250L224 414H457L438 289H204L177 122Z" glyph-name="E" horiz-adv-x="512" unicode="E" /><glyph d="M22 0ZM452 122 433 0H22L133 700H546L525 578H250L224 414H457L438 289H204L177 122ZM371 907H510L509 900L391 775H286V780Z" glyph-name="Eacute" horiz-adv-x="512" unicode="&#201;" /><glyph d="M22 0ZM452 122 433 0H22L133 700H546L525 578H250L224 414H457L438 289H204L177 122ZM420 905H500Q494 866 481 839.5Q468 813 448.5 797Q429 781 403 774Q377 767 345 767Q313 767 289 774Q265 781 250 797Q235 813 229.5 839.5Q224 866 230 905H311Q305 869 315.5 856Q326 843 354 843Q383 843 399 856Q415 869 420 905Z" glyph-name="Ebreve" horiz-adv-x="512" unicode="&#276;" /><glyph d="M22 0ZM452 122 433 0H22L133 700H546L525 578H250L224 414H457L438 289H204L177 122ZM291 775 220 904V907H325L356 848L412 907H516L515 904L402 775Z" glyph-name="Ecaron" horiz-adv-x="512" unicode="&#282;" /><glyph d="M22 0ZM452 122 433 0H22L133 700H546L525 578H250L224 414H457L438 289H204L177 122ZM310 906H420L492 778V774H388L353 833L301 774H196L197 778Z" glyph-name="Ecircumflex" horiz-adv-x="512" unicode="&#202;" /><glyph d="M22 0ZM195 834Q195 872 215 896Q235 920 273 920Q334 920 334 862Q334 824 314 800Q294 776 254 776Q195 776 195 834ZM376 834Q376 872 395.5 896Q415 920 454 920Q514 920 514 862Q514 824 494.5 800Q475 776 435 776Q376 776 376 834ZM452 122 433 0H22L133 700H546L525 578H250L224 414H457L438 289H204L177 122Z" glyph-name="Edieresis" horiz-adv-x="512" unicode="&#203;" /><glyph d="M22 0ZM452 122 433 0H22L133 700H546L525 578H250L224 414H457L438 289H204L177 122ZM282 835Q282 873 302.5 896Q323 919 364 919Q395 919 411 903.5Q427 888 427 859Q427 820 406 797Q385 774 346 774Q282 774 282 835Z" glyph-name="Edotaccent" horiz-adv-x="512" unicode="&#278;" /><glyph d="M22 0ZM452 122 433 0H22L133 700H546L525 578H250L224 414H457L438 289H204L177 122ZM301 774 220 899 221 906H366L405 779V774Z" glyph-name="Egrave" horiz-adv-x="512" unicode="&#200;" /><glyph d="M22 0ZM452 122 433 0H22L133 700H546L525 578H250L224 414H457L438 289H204L177 122ZM474 878 462 793H237L250 878Z" glyph-name="Emacron" horiz-adv-x="512" unicode="&#274;" /><glyph d="M364 -22 370 18 214 412 153 0H22L133 700H245L416 266L480 700H612L495 -37Q488 -84 471.5 -118.5Q455 -153 431.5 -175.5Q408 -198 378 -209Q348 -220 315 -220Q293 -220 268.5 -216Q244 -212 225 -199L267 -91Q282 -102 304 -102Q328 -102 342 -84.5Q356 -67 364 -22Z" glyph-name="Eng" horiz-adv-x="604" unicode="&#330;" /><glyph d="M417 -196Q394 -212 372.5 -219.5Q351 -227 325 -227Q282 -227 252.5 -202.5Q223 -178 223 -122Q223 -84 235 -53.5Q247 -23 268 0H22L133 700H546L525 578H250L224 414H457L438 289H204L177 122H452L433 0H381Q342 -4 322 -32.5Q302 -61 302 -94Q302 -120 314.5 -131Q327 -142 345 -142Q372 -142 391 -125Z" glyph-name="Eogonek" horiz-adv-x="512" unicode="&#280;" /><glyph d="M241 0H32L79 292H27L46 409H97L143 700H347Q458 700 514.5 641.5Q571 583 571 458Q571 436 569 408.5Q567 381 562 353Q508 0 241 0ZM193 125H249Q279 125 306 136.5Q333 148 355 174Q377 200 393.5 243.5Q410 287 420 351Q424 375 426.5 400Q429 425 429 445Q429 514 405 545Q381 576 333 576H264L237 409H319L301 292H220Z" glyph-name="Eth" horiz-adv-x="585" unicode="&#208;" /><glyph d="M525 160Q487 66 424.5 26Q362 -14 274 -14Q165 -14 116.5 45.5Q68 105 69 232H6L18 313H73Q75 324 76 336Q77 348 79 359H25L38 438H94Q128 580 200 647Q272 714 379 714Q466 714 516.5 669Q567 624 575 519L446 487Q441 545 419.5 567.5Q398 590 362 590Q321 590 287.5 556.5Q254 523 232 438H401L372 359H215Q212 345 210.5 333.5Q209 322 208 313H355L326 232H206Q206 163 227.5 135Q249 107 290 107Q328 107 360 131.5Q392 156 411 213Z" glyph-name="Euro" horiz-adv-x="556" unicode="&#8364;" /><glyph d="M429 274H206L163 0H22L133 700H532L513 574H254L227 404H450Z" glyph-name="F" horiz-adv-x="478" unicode="F" /><glyph d="M234 -14Q142 -14 92 47Q42 108 42 235Q42 261 45 290Q48 319 53 351Q81 541 157 627.5Q233 714 364 714Q453 715 504 670.5Q555 626 562 522L435 488Q430 544 407.5 564.5Q385 585 347 585Q319 585 296 573.5Q273 562 254 535Q235 508 220.5 463Q206 418 195 350Q190 317 187 289.5Q184 262 184 239Q184 165 208 135.5Q232 106 275 106Q293 106 312 113.5Q331 121 347.5 139Q364 157 377 186Q390 215 396 259H298L317 375H541L482 0H387L388 77Q360 32 321.5 9Q283 -14 234 -14Z" glyph-name="G" horiz-adv-x="567" unicode="G" /><glyph d="M255 -14Q151 -14 97 48Q43 110 43 239Q43 289 52 351Q79 541 156 627.5Q233 714 364 714Q455 714 504 669.5Q553 625 561 522L433 488Q427 544 405.5 565Q384 586 347 586Q320 586 296.5 574.5Q273 563 253.5 536Q234 509 218.5 463.5Q203 418 193 350Q188 317 185.5 289Q183 261 183 238Q183 165 206.5 135.5Q230 106 273 106Q294 106 313.5 114.5Q333 123 349.5 141Q366 159 378 188Q390 217 396 259H297L316 374H554L541 288Q495 -14 255 -14Z" glyph-name="G.alt" horiz-adv-x="566" /><glyph d="M42 0ZM234 -14Q142 -14 92 47Q42 108 42 235Q42 261 45 290Q48 319 53 351Q81 541 157 627.5Q233 714 364 714Q453 715 504 670.5Q555 626 562 522L435 488Q430 544 407.5 564.5Q385 585 347 585Q319 585 296 573.5Q273 562 254 535Q235 508 220.5 463Q206 418 195 350Q190 317 187 289.5Q184 262 184 239Q184 165 208 135.5Q232 106 275 106Q293 106 312 113.5Q331 121 347.5 139Q364 157 377 186Q390 215 396 259H298L317 375H541L482 0H387L388 77Q360 32 321.5 9Q283 -14 234 -14ZM448 906H528Q522 867 509 840.5Q496 814 476.5 798Q457 782 431 775Q405 768 373 768Q341 768 317 775Q293 782 278 798Q263 814 257.5 840.5Q252 867 258 906H339Q333 870 343.5 857Q354 844 382 844Q411 844 427 857Q443 870 448 906Z" glyph-name="Gbreve" horiz-adv-x="567" unicode="&#286;" /><glyph d="M43 0ZM255 -14Q151 -14 97 48Q43 110 43 239Q43 289 52 351Q79 541 156 627.5Q233 714 364 714Q455 714 504 669.5Q553 625 561 522L433 488Q427 544 405.5 565Q384 586 347 586Q320 586 296.5 574.5Q273 563 253.5 536Q234 509 218.5 463.5Q203 418 193 350Q188 317 185.5 289Q183 261 183 238Q183 165 206.5 135.5Q230 106 273 106Q294 106 313.5 114.5Q333 123 349.5 141Q366 159 378 188Q390 217 396 259H297L316 374H554L541 288Q495 -14 255 -14ZM450 906H530Q524 867 511 840.5Q498 814 478.5 798Q459 782 433 775Q407 768 375 768Q343 768 319 775Q295 782 280 798Q265 814 259.5 840.5Q254 867 260 906H341Q335 870 345.5 857Q356 844 384 844Q413 844 429 857Q445 870 450 906Z" glyph-name="Gbreve.alt" horiz-adv-x="566" /><glyph d="M42 0ZM234 -14Q142 -14 92 47Q42 108 42 235Q42 261 45 290Q48 319 53 351Q81 541 157 627.5Q233 714 364 714Q453 715 504 670.5Q555 626 562 522L435 488Q430 544 407.5 564.5Q385 585 347 585Q319 585 296 573.5Q273 562 254 535Q235 508 220.5 463Q206 418 195 350Q190 317 187 289.5Q184 262 184 239Q184 165 208 135.5Q232 106 275 106Q293 106 312 113.5Q331 121 347.5 139Q364 157 377 186Q390 215 396 259H298L317 375H541L482 0H387L388 77Q360 32 321.5 9Q283 -14 234 -14ZM338 907H448L520 779V775H416L381 834L329 775H224L225 779Z" glyph-name="Gcircumflex" horiz-adv-x="567" unicode="&#284;" /><glyph d="M43 0ZM255 -14Q151 -14 97 48Q43 110 43 239Q43 289 52 351Q79 541 156 627.5Q233 714 364 714Q455 714 504 669.5Q553 625 561 522L433 488Q427 544 405.5 565Q384 586 347 586Q320 586 296.5 574.5Q273 563 253.5 536Q234 509 218.5 463.5Q203 418 193 350Q188 317 185.5 289Q183 261 183 238Q183 165 206.5 135.5Q230 106 273 106Q294 106 313.5 114.5Q333 123 349.5 141Q366 159 378 188Q390 217 396 259H297L316 374H554L541 288Q495 -14 255 -14ZM340 907H450L522 779V775H418L383 834L331 775H226L227 779Z" glyph-name="Gcircumflex.alt" horiz-adv-x="566" /><glyph d="M42 0ZM234 -14Q142 -14 92 47Q42 108 42 235Q42 261 45 290Q48 319 53 351Q81 541 157 627.5Q233 714 364 714Q453 715 504 670.5Q555 626 562 522L435 488Q430 544 407.5 564.5Q385 585 347 585Q319 585 296 573.5Q273 562 254 535Q235 508 220.5 463Q206 418 195 350Q190 317 187 289.5Q184 262 184 239Q184 165 208 135.5Q232 106 275 106Q293 106 312 113.5Q331 121 347.5 139Q364 157 377 186Q390 215 396 259H298L317 375H541L482 0H387L388 77Q360 32 321.5 9Q283 -14 234 -14ZM161 -324 140 -272Q166 -261 187.5 -241Q209 -221 217 -195Q191 -196 175 -181.5Q159 -167 160 -138Q161 -101 182 -78.5Q203 -56 240 -56Q301 -56 301 -125Q300 -159 289 -191.5Q278 -224 259.5 -251Q241 -278 215.5 -297Q190 -316 161 -324Z" glyph-name="Gcommaaccent" horiz-adv-x="567" unicode="&#290;" /><glyph d="M43 0ZM255 -14Q151 -14 97 48Q43 110 43 239Q43 289 52 351Q79 541 156 627.5Q233 714 364 714Q455 714 504 669.5Q553 625 561 522L433 488Q427 544 405.5 565Q384 586 347 586Q320 586 296.5 574.5Q273 563 253.5 536Q234 509 218.5 463.5Q203 418 193 350Q188 317 185.5 289Q183 261 183 238Q183 165 206.5 135.5Q230 106 273 106Q294 106 313.5 114.5Q333 123 349.5 141Q366 159 378 188Q390 217 396 259H297L316 374H554L541 288Q495 -14 255 -14ZM177 -324 156 -272Q182 -261 203.5 -241Q225 -221 233 -195Q207 -196 191 -181.5Q175 -167 176 -138Q177 -101 198 -78.5Q219 -56 256 -56Q317 -56 317 -125Q316 -159 305 -191.5Q294 -224 275.5 -251Q257 -278 231.5 -297Q206 -316 177 -324Z" glyph-name="Gcommaaccent.alt" horiz-adv-x="566" /><glyph d="M42 0ZM234 -14Q142 -14 92 47Q42 108 42 235Q42 261 45 290Q48 319 53 351Q81 541 157 627.5Q233 714 364 714Q453 715 504 670.5Q555 626 562 522L435 488Q430 544 407.5 564.5Q385 585 347 585Q319 585 296 573.5Q273 562 254 535Q235 508 220.5 463Q206 418 195 350Q190 317 187 289.5Q184 262 184 239Q184 165 208 135.5Q232 106 275 106Q293 106 312 113.5Q331 121 347.5 139Q364 157 377 186Q390 215 396 259H298L317 375H541L482 0H387L388 77Q360 32 321.5 9Q283 -14 234 -14ZM310 836Q310 874 330.5 897Q351 920 392 920Q423 920 439 904.5Q455 889 455 860Q455 821 434 798Q413 775 374 775Q310 775 310 836Z" glyph-name="Gdotaccent" horiz-adv-x="567" unicode="&#288;" /><glyph d="M43 0ZM255 -14Q151 -14 97 48Q43 110 43 239Q43 289 52 351Q79 541 156 627.5Q233 714 364 714Q455 714 504 669.5Q553 625 561 522L433 488Q427 544 405.5 565Q384 586 347 586Q320 586 296.5 574.5Q273 563 253.5 536Q234 509 218.5 463.5Q203 418 193 350Q188 317 185.5 289Q183 261 183 238Q183 165 206.5 135.5Q230 106 273 106Q294 106 313.5 114.5Q333 123 349.5 141Q366 159 378 188Q390 217 396 259H297L316 374H554L541 288Q495 -14 255 -14ZM313 836Q313 874 333.5 897Q354 920 395 920Q426 920 442 904.5Q458 889 458 860Q458 821 437 798Q416 775 377 775Q313 775 313 836Z" glyph-name="Gdotaccent.alt" horiz-adv-x="566" /><glyph d="M363 0 407 284H208L163 0H22L133 700H274L228 416H429L474 700H615L504 0Z" glyph-name="H" horiz-adv-x="608" unicode="H" /><glyph d="M241 416H441L454 501H254ZM79 582H127L145 700H286L268 582H468L486 700H628L609 582H657L643 501H595L517 0H376L420 284H221L175 0H34L113 501H65Z" glyph-name="Hbar" horiz-adv-x="631" unicode="&#294;" /><glyph d="M22 0ZM363 0 407 284H208L163 0H22L133 700H274L228 416H429L474 700H615L504 0ZM349 907H459L531 779V775H427L392 834L340 775H235L236 779Z" glyph-name="Hcircumflex" horiz-adv-x="608" unicode="&#292;" /><glyph d="M22 0 133 700H274L163 0Z" glyph-name="I" horiz-adv-x="267" unicode="I" /><glyph d="M22 0ZM22 0 133 700H274L163 0ZM382 -14Q343 -14 302 -0.5Q261 13 232 45L310 152Q327 135 347.5 125Q368 115 390 115Q428 115 454.5 146Q481 177 493 250L565 700H707L635 251Q623 177 599.5 126Q576 75 543 44Q510 13 469 -0.5Q428 -14 382 -14Z" glyph-name="IJ" horiz-adv-x="692" unicode="&#306;" /><glyph d="M22 0ZM22 0 133 700H274L163 0ZM239 907H378L377 900L259 775H154V780Z" glyph-name="Iacute" horiz-adv-x="267" unicode="&#205;" /><glyph d="M22 0ZM22 0 133 700H274L163 0ZM288 905H368Q362 866 349 839.5Q336 813 316.5 797Q297 781 271 774Q245 767 213 767Q181 767 157 774Q133 781 118 797Q103 813 97.5 839.5Q92 866 98 905H179Q173 869 183.5 856Q194 843 222 843Q251 843 267 856Q283 869 288 905Z" glyph-name="Ibreve" horiz-adv-x="267" unicode="&#300;" /><glyph d="M22 0ZM22 0 133 700H274L163 0ZM178 906H288L360 778V774H256L221 833L169 774H64L65 778Z" glyph-name="Icircumflex" horiz-adv-x="267" unicode="&#206;" /><glyph d="M22 0ZM22 0 133 700H274L163 0ZM65 834Q65 872 85 896Q105 920 143 920Q204 920 204 862Q204 824 184 800Q164 776 124 776Q65 776 65 834ZM246 834Q246 872 265.5 896Q285 920 324 920Q384 920 384 862Q384 824 364.5 800Q345 776 305 776Q246 776 246 834Z" glyph-name="Idieresis" horiz-adv-x="267" unicode="&#207;" /><glyph d="M22 0ZM22 0 133 700H274L163 0ZM151 835Q151 873 171.5 896Q192 919 233 919Q264 919 280 903.5Q296 888 296 859Q296 820 275 797Q254 774 215 774Q151 774 151 835Z" glyph-name="Idotaccent" horiz-adv-x="267" unicode="&#304;" /><glyph d="M22 0ZM22 0 133 700H274L163 0ZM169 774 88 899 89 906H234L273 779V774Z" glyph-name="Igrave" horiz-adv-x="267" unicode="&#204;" /><glyph d="M22 0ZM22 0 133 700H274L163 0ZM342 878 330 793H105L118 878Z" glyph-name="Imacron" horiz-adv-x="267" unicode="&#298;" /><glyph d="M139 -196Q116 -212 94.5 -219.5Q73 -227 47 -227Q4 -227 -25.5 -202.5Q-55 -178 -55 -122Q-55 -70 -32 -30.5Q-9 9 27 29L133 700H274L163 0H103Q64 -4 44 -32.5Q24 -61 24 -94Q24 -120 36.5 -131Q49 -142 67 -142Q94 -142 113 -125Z" glyph-name="Iogonek" horiz-adv-x="267" unicode="&#302;" /><glyph d="M22 0ZM22 0 133 700H274L163 0ZM298 902H374Q371 867 361 844Q351 821 337 807Q323 793 307 787Q291 781 276 781Q259 781 245.5 786.5Q232 792 220.5 798.5Q209 805 198.5 810.5Q188 816 177 816Q164 816 158.5 805.5Q153 795 151 782H72Q75 816 85 839.5Q95 863 108.5 876.5Q122 890 138 896Q154 902 169 902Q187 902 201 896.5Q215 891 227 884.5Q239 878 249.5 872.5Q260 867 271 867Q285 867 290.5 877.5Q296 888 298 902Z" glyph-name="Itilde" horiz-adv-x="267" unicode="&#296;" /><glyph d="M110 -14Q71 -14 30 -0.5Q-11 13 -40 45L38 152Q55 135 75.5 125Q96 115 118 115Q156 115 182.5 146Q209 177 221 250L293 700H435L363 251Q351 177 327.5 126Q304 75 271 44Q238 13 197 -0.5Q156 -14 110 -14Z" glyph-name="J" horiz-adv-x="418" unicode="J" /><glyph d="M0 0ZM110 -14Q71 -14 30 -0.5Q-11 13 -40 45L38 152Q55 135 75.5 125Q96 115 118 115Q156 115 182.5 146Q209 177 221 250L293 700H435L363 251Q351 177 327.5 126Q304 75 271 44Q238 13 197 -0.5Q156 -14 110 -14ZM338 907H448L520 779V775H416L381 834L329 775H224L225 779Z" glyph-name="Jcircumflex" horiz-adv-x="418" unicode="&#308;" /><glyph d="M344 0 261 268 191 185 163 0H22L133 700H274L223 393L451 700H612L372 402L504 0Z" glyph-name="K" horiz-adv-x="545" unicode="K" /><glyph d="M337 0 215 322 164 0H22L133 700H274L220 355L447 700H608L359 347L505 0Z" glyph-name="K.alt" horiz-adv-x="544" /><glyph d="M22 0ZM344 0 261 268 191 185 163 0H22L133 700H274L223 393L451 700H612L372 402L504 0ZM172 -324 151 -272Q177 -261 198.5 -241Q220 -221 228 -195Q202 -196 186 -181.5Q170 -167 171 -138Q172 -101 193 -78.5Q214 -56 251 -56Q312 -56 312 -125Q311 -159 300 -191.5Q289 -224 270.5 -251Q252 -278 226.5 -297Q201 -316 172 -324Z" glyph-name="Kcommaaccent" horiz-adv-x="551" unicode="&#310;" /><glyph d="M22 0ZM337 0 215 322 164 0H22L133 700H274L220 355L447 700H608L359 347L505 0ZM170 -324 149 -272Q175 -261 196.5 -241Q218 -221 226 -195Q200 -196 184 -181.5Q168 -167 169 -138Q170 -101 191 -78.5Q212 -56 249 -56Q310 -56 310 -125Q309 -159 298 -191.5Q287 -224 268.5 -251Q250 -278 224.5 -297Q199 -316 170 -324Z" glyph-name="Kcommaaccent.alt" horiz-adv-x="544" /><glyph d="M183 129H442L423 0H22L132 700H274Z" glyph-name="L" horiz-adv-x="483" unicode="L" /><glyph d="M22 0ZM183 129H442L423 0H22L132 700H274ZM225 907H364L363 900L245 775H140V780Z" glyph-name="Lacute" horiz-adv-x="483" unicode="&#313;" /><glyph d="M22 0ZM423 446H335L381 701H488ZM183 129H442L423 0H22L132 700H274Z" glyph-name="Lcaron" horiz-adv-x="489" unicode="&#317;" /><glyph d="M22 0ZM183 129H442L423 0H22L132 700H274ZM146 -324 125 -272Q151 -261 172.5 -241Q194 -221 202 -195Q176 -196 160 -181.5Q144 -167 145 -138Q146 -101 167 -78.5Q188 -56 225 -56Q286 -56 286 -125Q285 -159 274 -191.5Q263 -224 244.5 -251Q226 -278 200.5 -297Q175 -316 146 -324Z" glyph-name="Lcommaaccent" horiz-adv-x="483" unicode="&#315;" /><glyph d="M22 0ZM183 129H442L423 0H22L132 700H274ZM329 347Q329 385 349.5 408Q370 431 411 431Q442 431 458 415.5Q474 400 474 371Q474 332 453 309Q432 286 393 286Q329 286 329 347Z" glyph-name="Ldot" horiz-adv-x="486" unicode="&#319;" /><glyph d="M199 129H459L439 0H37L73 221L3 170L22 292L91 343L148 700H290L246 424L382 516L362 393L228 301Z" glyph-name="Lslash" horiz-adv-x="498" unicode="&#321;" /><glyph d="M270 0 210 427 148 0H22L133 700H289L356 200L581 700H744L634 0H501L577 431L380 0Z" glyph-name="M" horiz-adv-x="737" unicode="M" /><glyph d="M376 0 214 412 153 0H22L133 700H245L415 267L480 700H611L500 0Z" glyph-name="N" horiz-adv-x="604" unicode="N" /><glyph glyph-name="NULL" horiz-adv-x="134" /><glyph d="M22 0ZM376 0 214 412 153 0H22L133 700H245L415 267L480 700H611L500 0ZM405 907H544L543 900L425 775H320V780Z" glyph-name="Nacute" horiz-adv-x="604" unicode="&#323;" /><glyph d="M22 0ZM376 0 214 412 153 0H22L133 700H245L415 267L480 700H611L500 0ZM326 775 255 904V907H360L391 848L447 907H551L550 904L437 775Z" glyph-name="Ncaron" horiz-adv-x="604" unicode="&#327;" /><glyph d="M22 0ZM376 0 214 412 153 0H22L133 700H245L415 267L480 700H611L500 0ZM178 -324 157 -272Q183 -261 204.5 -241Q226 -221 234 -195Q208 -196 192 -181.5Q176 -167 177 -138Q178 -101 199 -78.5Q220 -56 257 -56Q318 -56 318 -125Q317 -159 306 -191.5Q295 -224 276.5 -251Q258 -278 232.5 -297Q207 -316 178 -324Z" glyph-name="Ncommaaccent" horiz-adv-x="604" unicode="&#325;" /><glyph d="M22 0ZM376 0 214 412 153 0H22L133 700H245L415 267L480 700H611L500 0ZM464 903H540Q537 868 527 845Q517 822 503 808Q489 794 473 788Q457 782 442 782Q425 782 411.5 787.5Q398 793 386.5 799.5Q375 806 364.5 811.5Q354 817 343 817Q330 817 324.5 806.5Q319 796 317 783H238Q241 817 251 840.5Q261 864 274.5 877.5Q288 891 304 897Q320 903 335 903Q353 903 367 897.5Q381 892 393 885.5Q405 879 415.5 873.5Q426 868 437 868Q451 868 456.5 878.5Q462 889 464 903Z" glyph-name="Ntilde" horiz-adv-x="604" unicode="&#209;" /><glyph d="M364 714Q477 714 529 655Q581 596 581 473Q581 445 578 415Q575 385 570 350Q544 164 468 75Q392 -14 258 -14Q146 -14 94 45.5Q42 105 42 229Q42 256 45 286Q48 316 53 351Q79 536 155 625Q231 714 364 714ZM349 585Q320 585 296 573.5Q272 562 253 534Q234 506 219.5 460.5Q205 415 195 348Q190 315 187 288Q184 261 184 237Q184 168 207 139.5Q230 111 273 111Q302 111 326 123Q350 135 369 162.5Q388 190 402.5 236Q417 282 428 350Q433 383 435.5 410.5Q438 438 438 461Q438 530 415.5 557.5Q393 585 349 585Z" glyph-name="O" horiz-adv-x="597" unicode="O" /><glyph d="M269 0Q156 0 100 60Q44 120 44 246Q44 269 46 294.5Q48 320 52 348Q77 525 153.5 612.5Q230 700 367 700H846L826 579H559L534 416H764L744 291H513L488 122H763L743 0ZM279 124H352L422 575H359Q327 575 301 563.5Q275 552 254.5 525.5Q234 499 219 456Q204 413 194 350Q190 324 187.5 299Q185 274 185 252Q185 124 279 124Z" glyph-name="OE" horiz-adv-x="816" unicode="&#338;" /><glyph d="M42 0ZM364 714Q477 714 529 655Q581 596 581 473Q581 445 578 415Q575 385 570 350Q544 164 468 75Q392 -14 258 -14Q146 -14 94 45.5Q42 105 42 229Q42 256 45 286Q48 316 53 351Q79 536 155 625Q231 714 364 714ZM349 585Q320 585 296 573.5Q272 562 253 534Q234 506 219.5 460.5Q205 415 195 348Q190 315 187 288Q184 261 184 237Q184 168 207 139.5Q230 111 273 111Q302 111 326 123Q350 135 369 162.5Q388 190 402.5 236Q417 282 428 350Q433 383 435.5 410.5Q438 438 438 461Q438 530 415.5 557.5Q393 585 349 585ZM398 907H537L536 900L418 775H313V780Z" glyph-name="Oacute" horiz-adv-x="597" unicode="&#211;" /><glyph d="M42 0ZM364 714Q477 714 529 655Q581 596 581 473Q581 445 578 415Q575 385 570 350Q544 164 468 75Q392 -14 258 -14Q146 -14 94 45.5Q42 105 42 229Q42 256 45 286Q48 316 53 351Q79 536 155 625Q231 714 364 714ZM349 585Q320 585 296 573.5Q272 562 253 534Q234 506 219.5 460.5Q205 415 195 348Q190 315 187 288Q184 261 184 237Q184 168 207 139.5Q230 111 273 111Q302 111 326 123Q350 135 369 162.5Q388 190 402.5 236Q417 282 428 350Q433 383 435.5 410.5Q438 438 438 461Q438 530 415.5 557.5Q393 585 349 585ZM447 906H527Q521 867 508 840.5Q495 814 475.5 798Q456 782 430 775Q404 768 372 768Q340 768 316 775Q292 782 277 798Q262 814 256.5 840.5Q251 867 257 906H338Q332 870 342.5 857Q353 844 381 844Q410 844 426 857Q442 870 447 906Z" glyph-name="Obreve" horiz-adv-x="597" unicode="&#334;" /><glyph d="M42 0ZM364 714Q477 714 529 655Q581 596 581 473Q581 445 578 415Q575 385 570 350Q544 164 468 75Q392 -14 258 -14Q146 -14 94 45.5Q42 105 42 229Q42 256 45 286Q48 316 53 351Q79 536 155 625Q231 714 364 714ZM349 585Q320 585 296 573.5Q272 562 253 534Q234 506 219.5 460.5Q205 415 195 348Q190 315 187 288Q184 261 184 237Q184 168 207 139.5Q230 111 273 111Q302 111 326 123Q350 135 369 162.5Q388 190 402.5 236Q417 282 428 350Q433 383 435.5 410.5Q438 438 438 461Q438 530 415.5 557.5Q393 585 349 585ZM337 907H447L519 779V775H415L380 834L328 775H223L224 779Z" glyph-name="Ocircumflex" horiz-adv-x="597" unicode="&#212;" /><glyph d="M42 0ZM223 834Q223 872 243 896Q263 920 301 920Q362 920 362 862Q362 824 342 800Q322 776 282 776Q223 776 223 834ZM404 834Q404 872 423.5 896Q443 920 482 920Q542 920 542 862Q542 824 522.5 800Q503 776 463 776Q404 776 404 834ZM364 714Q477 714 529 655Q581 596 581 473Q581 445 578 415Q575 385 570 350Q544 164 468 75Q392 -14 258 -14Q146 -14 94 45.5Q42 105 42 229Q42 256 45 286Q48 316 53 351Q79 536 155 625Q231 714 364 714ZM349 585Q320 585 296 573.5Q272 562 253 534Q234 506 219.5 460.5Q205 415 195 348Q190 315 187 288Q184 261 184 237Q184 168 207 139.5Q230 111 273 111Q302 111 326 123Q350 135 369 162.5Q388 190 402.5 236Q417 282 428 350Q433 383 435.5 410.5Q438 438 438 461Q438 530 415.5 557.5Q393 585 349 585Z" glyph-name="Odieresis" horiz-adv-x="597" unicode="&#214;" /><glyph d="M42 0ZM364 714Q477 714 529 655Q581 596 581 473Q581 445 578 415Q575 385 570 350Q544 164 468 75Q392 -14 258 -14Q146 -14 94 45.5Q42 105 42 229Q42 256 45 286Q48 316 53 351Q79 536 155 625Q231 714 364 714ZM349 585Q320 585 296 573.5Q272 562 253 534Q234 506 219.5 460.5Q205 415 195 348Q190 315 187 288Q184 261 184 237Q184 168 207 139.5Q230 111 273 111Q302 111 326 123Q350 135 369 162.5Q388 190 402.5 236Q417 282 428 350Q433 383 435.5 410.5Q438 438 438 461Q438 530 415.5 557.5Q393 585 349 585ZM328 775 247 900 248 907H393L432 780V775Z" glyph-name="Ograve" horiz-adv-x="597" unicode="&#210;" /><glyph d="M42 0ZM364 714Q477 714 529 655Q581 596 581 473Q581 445 578 415Q575 385 570 350Q544 164 468 75Q392 -14 258 -14Q146 -14 94 45.5Q42 105 42 229Q42 256 45 286Q48 316 53 351Q79 536 155 625Q231 714 364 714ZM349 585Q320 585 296 573.5Q272 562 253 534Q234 506 219.5 460.5Q205 415 195 348Q190 315 187 288Q184 261 184 237Q184 168 207 139.5Q230 111 273 111Q302 111 326 123Q350 135 369 162.5Q388 190 402.5 236Q417 282 428 350Q433 383 435.5 410.5Q438 438 438 461Q438 530 415.5 557.5Q393 585 349 585ZM491 907H624L623 901L502 775H411V780ZM315 907H448L447 901L325 775H234V780Z" glyph-name="Ohungarumlaut" horiz-adv-x="597" unicode="&#336;" /><glyph d="M42 0ZM364 714Q477 714 529 655Q581 596 581 473Q581 445 578 415Q575 385 570 350Q544 164 468 75Q392 -14 258 -14Q146 -14 94 45.5Q42 105 42 229Q42 256 45 286Q48 316 53 351Q79 536 155 625Q231 714 364 714ZM349 585Q320 585 296 573.5Q272 562 253 534Q234 506 219.5 460.5Q205 415 195 348Q190 315 187 288Q184 261 184 237Q184 168 207 139.5Q230 111 273 111Q302 111 326 123Q350 135 369 162.5Q388 190 402.5 236Q417 282 428 350Q433 383 435.5 410.5Q438 438 438 461Q438 530 415.5 557.5Q393 585 349 585ZM501 879 489 794H264L277 879Z" glyph-name="Omacron" horiz-adv-x="597" unicode="&#332;" /><glyph d="M262 -14Q160 -14 106 39L75 0H-15L66 100Q44 155 44 232Q44 258 47 289Q50 320 55 351Q81 534 156.5 624Q232 714 367 714Q418 714 456 701.5Q494 689 521 662L552 700H644L562 600Q574 574 579.5 541Q585 508 585 469Q585 443 582 412.5Q579 382 574 350Q547 165 471.5 75.5Q396 -14 262 -14ZM188 250 427 543Q416 567 397 576Q378 585 352 585Q322 585 298 573Q274 561 255 533.5Q236 506 221.5 460.5Q207 415 196 348Q193 326 190.5 302Q188 278 188 250ZM275 111Q305 111 329 123Q353 135 372 163.5Q391 192 405.5 237.5Q420 283 430 351Q432 363 433.5 377Q435 391 436.5 404.5Q438 418 438.5 430Q439 442 438 450L200 155Q211 131 230 121Q249 111 275 111Z" glyph-name="Oslash" horiz-adv-x="596" unicode="&#216;" /><glyph d="M42 0ZM364 714Q477 714 529 655Q581 596 581 473Q581 445 578 415Q575 385 570 350Q544 164 468 75Q392 -14 258 -14Q146 -14 94 45.5Q42 105 42 229Q42 256 45 286Q48 316 53 351Q79 536 155 625Q231 714 364 714ZM349 585Q320 585 296 573.5Q272 562 253 534Q234 506 219.5 460.5Q205 415 195 348Q190 315 187 288Q184 261 184 237Q184 168 207 139.5Q230 111 273 111Q302 111 326 123Q350 135 369 162.5Q388 190 402.5 236Q417 282 428 350Q433 383 435.5 410.5Q438 438 438 461Q438 530 415.5 557.5Q393 585 349 585ZM457 903H533Q530 868 520 845Q510 822 496 808Q482 794 466 788Q450 782 435 782Q418 782 404.5 787.5Q391 793 379.5 799.5Q368 806 357.5 811.5Q347 817 336 817Q323 817 317.5 806.5Q312 796 310 783H231Q234 817 244 840.5Q254 864 267.5 877.5Q281 891 297 897Q313 903 328 903Q346 903 360 897.5Q374 892 386 885.5Q398 879 408.5 873.5Q419 868 430 868Q444 868 449.5 878.5Q455 889 457 903Z" glyph-name="Otilde" horiz-adv-x="597" unicode="&#213;" /><glyph d="M22 0 133 700H371Q458 700 499.5 650.5Q541 601 541 516Q541 444 521.5 387Q502 330 467.5 290.5Q433 251 385.5 230.5Q338 210 281 210H196L163 0ZM329 570H253L216 337H294Q320 337 339.5 348.5Q359 360 372.5 380.5Q386 401 393 428Q400 455 400 486Q400 570 329 570Z" glyph-name="P" horiz-adv-x="534" unicode="P" /><glyph d="M364 714Q477 714 528.5 655Q580 596 580 473Q580 445 578 415Q576 385 571 350Q554 235 519.5 158Q485 81 428 39L471 -88H351L323 -8Q309 -12 292 -13Q275 -14 258 -14Q146 -14 94 45.5Q42 105 42 229Q42 256 45 286Q48 316 53 351Q79 536 155 625Q231 714 364 714ZM348 585Q319 585 295.5 573.5Q272 562 253 534Q234 506 219.5 460.5Q205 415 195 348Q190 315 186.5 287.5Q183 260 183 237Q183 167 206.5 138.5Q230 110 273 111H283L245 225H365L379 181Q393 209 405 250.5Q417 292 426 350Q431 382 434 410.5Q437 439 437 462Q437 530 414 557.5Q391 585 348 585Z" glyph-name="Q" horiz-adv-x="598" unicode="Q" /><glyph d="M219 359H303Q328 359 347.5 369.5Q367 380 380.5 399Q394 418 400.5 443.5Q407 469 407 498Q407 536 390 555.5Q373 575 335 575H252ZM199 235 162 0H22L133 700H375Q464 700 506 652.5Q548 605 548 524Q548 429 514.5 366.5Q481 304 421 271L474 0H325L286 235Z" glyph-name="R" horiz-adv-x="540" unicode="R" /><glyph d="M22 0ZM219 359H303Q328 359 347.5 369.5Q367 380 380.5 399Q394 418 400.5 443.5Q407 469 407 498Q407 536 390 555.5Q373 575 335 575H252ZM199 235 162 0H22L133 700H375Q464 700 506 652.5Q548 605 548 524Q548 429 514.5 366.5Q481 304 421 271L474 0H325L286 235ZM386 907H525L524 900L406 775H301V780Z" glyph-name="Racute" horiz-adv-x="540" unicode="&#340;" /><glyph d="M22 0ZM219 359H303Q328 359 347.5 369.5Q367 380 380.5 399Q394 418 400.5 443.5Q407 469 407 498Q407 536 390 555.5Q373 575 335 575H252ZM199 235 162 0H22L133 700H375Q464 700 506 652.5Q548 605 548 524Q548 429 514.5 366.5Q481 304 421 271L474 0H325L286 235ZM307 775 236 904V907H341L372 848L428 907H532L531 904L418 775Z" glyph-name="Rcaron" horiz-adv-x="540" unicode="&#344;" /><glyph d="M22 0ZM219 359H303Q328 359 347.5 369.5Q367 380 380.5 399Q394 418 400.5 443.5Q407 469 407 498Q407 536 390 555.5Q373 575 335 575H252ZM199 235 162 0H22L133 700H375Q464 700 506 652.5Q548 605 548 524Q548 429 514.5 366.5Q481 304 421 271L474 0H325L286 235ZM158 -324 137 -272Q163 -261 184.5 -241Q206 -221 214 -195Q188 -196 172 -181.5Q156 -167 157 -138Q158 -101 179 -78.5Q200 -56 237 -56Q298 -56 298 -125Q297 -159 286 -191.5Q275 -224 256.5 -251Q238 -278 212.5 -297Q187 -316 158 -324Z" glyph-name="Rcommaaccent" horiz-adv-x="540" unicode="&#342;" /><glyph d="M496 527 370 485Q364 542 341.5 565Q319 588 282 588Q244 588 224 567Q204 546 205 514Q206 488 222.5 467Q239 446 274 429L310 411Q381 376 414.5 330.5Q448 285 448 212Q448 162 431.5 120.5Q415 79 384 49Q353 19 308.5 2.5Q264 -14 208 -14Q114 -14 59.5 35.5Q5 85 -9 174L117 221Q124 160 149.5 133Q175 106 217 106Q256 106 280.5 127.5Q305 149 305 187Q305 217 289 236Q273 255 241 272L208 289Q130 330 98 382.5Q66 435 66 497Q66 539 81 578.5Q96 618 125 648Q154 678 196.5 696Q239 714 294 714Q339 714 376 700.5Q413 687 439 662.5Q465 638 480 603.5Q495 569 496 527Z" glyph-name="S" horiz-adv-x="486" unicode="S" /><glyph d="M0 0ZM496 527 370 485Q364 542 341.5 565Q319 588 282 588Q244 588 224 567Q204 546 205 514Q206 488 222.5 467Q239 446 274 429L310 411Q381 376 414.5 330.5Q448 285 448 212Q448 162 431.5 120.5Q415 79 384 49Q353 19 308.5 2.5Q264 -14 208 -14Q114 -14 59.5 35.5Q5 85 -9 174L117 221Q124 160 149.5 133Q175 106 217 106Q256 106 280.5 127.5Q305 149 305 187Q305 217 289 236Q273 255 241 272L208 289Q130 330 98 382.5Q66 435 66 497Q66 539 81 578.5Q96 618 125 648Q154 678 196.5 696Q239 714 294 714Q339 714 376 700.5Q413 687 439 662.5Q465 638 480 603.5Q495 569 496 527ZM340 905H479L478 898L360 773H255V778Z" glyph-name="Sacute" horiz-adv-x="483" unicode="&#346;" /><glyph d="M0 0ZM496 527 370 485Q364 542 341.5 565Q319 588 282 588Q244 588 224 567Q204 546 205 514Q206 488 222.5 467Q239 446 274 429L310 411Q381 376 414.5 330.5Q448 285 448 212Q448 162 431.5 120.5Q415 79 384 49Q353 19 308.5 2.5Q264 -14 208 -14Q114 -14 59.5 35.5Q5 85 -9 174L117 221Q124 160 149.5 133Q175 106 217 106Q256 106 280.5 127.5Q305 149 305 187Q305 217 289 236Q273 255 241 272L208 289Q130 330 98 382.5Q66 435 66 497Q66 539 81 578.5Q96 618 125 648Q154 678 196.5 696Q239 714 294 714Q339 714 376 700.5Q413 687 439 662.5Q465 638 480 603.5Q495 569 496 527ZM262 773 191 902V905H296L327 846L383 905H487L486 902L373 773Z" glyph-name="Scaron" horiz-adv-x="483" unicode="&#352;" /><glyph d="M157 -251Q118 -251 85.5 -233.5Q53 -216 42 -174L106 -136Q121 -178 158 -178Q180 -178 191 -165.5Q202 -153 202 -136Q202 -118 187 -109Q172 -100 155 -106L136 -92L169 -12Q93 -1 48 47Q3 95 -9 174L117 221Q124 160 149.5 133Q175 106 217 106Q256 106 280.5 127.5Q305 149 305 187Q305 217 289 236Q273 255 241 272L208 289Q130 330 98 382.5Q66 435 66 497Q66 539 81 578.5Q96 618 125 648Q154 678 196.5 696Q239 714 294 714Q339 714 376 700.5Q413 687 439 662.5Q465 638 480 603.5Q495 569 496 527L370 485Q364 542 341.5 565Q319 588 282 588Q244 588 224 567Q204 546 205 514Q206 488 222.5 467Q239 446 274 429L310 411Q381 376 414.5 330.5Q448 285 448 212Q448 165 433.5 125.5Q419 86 391.5 56.5Q364 27 324.5 9Q285 -9 235 -13L216 -54Q242 -58 262 -77.5Q282 -97 282 -134Q282 -191 246.5 -221Q211 -251 157 -251Z" glyph-name="Scedilla" horiz-adv-x="486" unicode="&#350;" /><glyph d="M0 0ZM496 527 370 485Q364 542 341.5 565Q319 588 282 588Q244 588 224 567Q204 546 205 514Q206 488 222.5 467Q239 446 274 429L310 411Q381 376 414.5 330.5Q448 285 448 212Q448 162 431.5 120.5Q415 79 384 49Q353 19 308.5 2.5Q264 -14 208 -14Q114 -14 59.5 35.5Q5 85 -9 174L117 221Q124 160 149.5 133Q175 106 217 106Q256 106 280.5 127.5Q305 149 305 187Q305 217 289 236Q273 255 241 272L208 289Q130 330 98 382.5Q66 435 66 497Q66 539 81 578.5Q96 618 125 648Q154 678 196.5 696Q239 714 294 714Q339 714 376 700.5Q413 687 439 662.5Q465 638 480 603.5Q495 569 496 527ZM281 905H391L463 777V773H359L324 832L272 773H167L168 777Z" glyph-name="Scircumflex" horiz-adv-x="483" unicode="&#348;" /><glyph d="M0 0ZM496 527 370 485Q364 542 341.5 565Q319 588 282 588Q244 588 224 567Q204 546 205 514Q206 488 222.5 467Q239 446 274 429L310 411Q381 376 414.5 330.5Q448 285 448 212Q448 162 431.5 120.5Q415 79 384 49Q353 19 308.5 2.5Q264 -14 208 -14Q114 -14 59.5 35.5Q5 85 -9 174L117 221Q124 160 149.5 133Q175 106 217 106Q256 106 280.5 127.5Q305 149 305 187Q305 217 289 236Q273 255 241 272L208 289Q130 330 98 382.5Q66 435 66 497Q66 539 81 578.5Q96 618 125 648Q154 678 196.5 696Q239 714 294 714Q339 714 376 700.5Q413 687 439 662.5Q465 638 480 603.5Q495 569 496 527ZM113 -326 92 -274Q118 -263 139.5 -243Q161 -223 169 -197Q143 -198 127 -183.5Q111 -169 112 -140Q113 -103 134 -80.5Q155 -58 192 -58Q253 -58 253 -127Q252 -161 241 -193.5Q230 -226 211.5 -253Q193 -280 167.5 -299Q142 -318 113 -326Z" glyph-name="Scommaaccent" horiz-adv-x="483" unicode="&#536;" /><glyph d="M81 700H534L514 569H357L267 0H126L216 569H59Z" glyph-name="T" horiz-adv-x="479" unicode="T" /><glyph d="M71 394H189L217 569H60L81 700H535L515 569H358L331 394H449L433 286H314L268 0H127L172 286H53Z" glyph-name="Tbar" horiz-adv-x="482" unicode="&#358;" /><glyph d="M59 0ZM81 700H534L514 569H357L267 0H126L216 569H59ZM265 775 194 904V907H299L330 848L386 907H490L489 904L376 775Z" glyph-name="Tcaron" horiz-adv-x="479" unicode="&#356;" /><glyph d="M132 -90 169 0H126L216 569H59L81 700H534L514 569H357L267 0H236L212 -52Q238 -56 258 -75.5Q278 -95 278 -132Q278 -189 242.5 -219Q207 -249 153 -249Q114 -249 81.5 -231.5Q49 -214 38 -172L102 -134Q117 -176 154 -176Q176 -176 187 -163.5Q198 -151 198 -134Q198 -116 183 -107Q168 -98 151 -104Z" glyph-name="Tcedilla" horiz-adv-x="479" unicode="&#354;" /><glyph d="M23 0 134 700H275L257 589H363Q443 589 482 542.5Q521 496 521 415Q521 344 502.5 289Q484 234 451 196.5Q418 159 373.5 139Q329 119 278 119H183L164 0ZM320 459H237L202 246H288Q310 246 327 256.5Q344 267 356 285.5Q368 304 374 328.5Q380 353 380 382Q380 459 320 459Z" glyph-name="Thorn" horiz-adv-x="527" unicode="&#222;" /><glyph d="M384 238 457 700H598L527 246Q506 116 435.5 51Q365 -14 254 -14Q154 -14 100 35.5Q46 85 46 184Q46 199 47.5 214Q49 229 51 246L122 700H264L190 238Q187 220 187 203Q187 162 206.5 140Q226 118 268 118Q315 118 344.5 147Q374 176 384 238Z" glyph-name="U" horiz-adv-x="579" unicode="U" /><glyph d="M46 0ZM384 238 457 700H598L527 246Q506 116 435.5 51Q365 -14 254 -14Q154 -14 100 35.5Q46 85 46 184Q46 199 47.5 214Q49 229 51 246L122 700H264L190 238Q187 220 187 203Q187 162 206.5 140Q226 118 268 118Q315 118 344.5 147Q374 176 384 238ZM396 907H535L534 900L416 775H311V780Z" glyph-name="Uacute" horiz-adv-x="579" unicode="&#218;" /><glyph d="M46 0ZM384 238 457 700H598L527 246Q506 116 435.5 51Q365 -14 254 -14Q154 -14 100 35.5Q46 85 46 184Q46 199 47.5 214Q49 229 51 246L122 700H264L190 238Q187 220 187 203Q187 162 206.5 140Q226 118 268 118Q315 118 344.5 147Q374 176 384 238ZM445 906H525Q519 867 506 840.5Q493 814 473.5 798Q454 782 428 775Q402 768 370 768Q338 768 314 775Q290 782 275 798Q260 814 254.5 840.5Q249 867 255 906H336Q330 870 340.5 857Q351 844 379 844Q408 844 424 857Q440 870 445 906Z" glyph-name="Ubreve" horiz-adv-x="579" unicode="&#364;" /><glyph d="M46 0ZM384 238 457 700H598L527 246Q506 116 435.5 51Q365 -14 254 -14Q154 -14 100 35.5Q46 85 46 184Q46 199 47.5 214Q49 229 51 246L122 700H264L190 238Q187 220 187 203Q187 162 206.5 140Q226 118 268 118Q315 118 344.5 147Q374 176 384 238ZM335 907H445L517 779V775H413L378 834L326 775H221L222 779Z" glyph-name="Ucircumflex" horiz-adv-x="579" unicode="&#219;" /><glyph d="M46 0ZM220 834Q220 872 240 896Q260 920 298 920Q359 920 359 862Q359 824 339 800Q319 776 279 776Q220 776 220 834ZM401 834Q401 872 420.5 896Q440 920 479 920Q539 920 539 862Q539 824 519.5 800Q500 776 460 776Q401 776 401 834ZM384 238 457 700H598L527 246Q506 116 435.5 51Q365 -14 254 -14Q154 -14 100 35.5Q46 85 46 184Q46 199 47.5 214Q49 229 51 246L122 700H264L190 238Q187 220 187 203Q187 162 206.5 140Q226 118 268 118Q315 118 344.5 147Q374 176 384 238Z" glyph-name="Udieresis" horiz-adv-x="579" unicode="&#220;" /><glyph d="M46 0ZM384 238 457 700H598L527 246Q506 116 435.5 51Q365 -14 254 -14Q154 -14 100 35.5Q46 85 46 184Q46 199 47.5 214Q49 229 51 246L122 700H264L190 238Q187 220 187 203Q187 162 206.5 140Q226 118 268 118Q315 118 344.5 147Q374 176 384 238ZM326 775 245 900 246 907H391L430 780V775Z" glyph-name="Ugrave" horiz-adv-x="579" unicode="&#217;" /><glyph d="M46 0ZM384 238 457 700H598L527 246Q506 116 435.5 51Q365 -14 254 -14Q154 -14 100 35.5Q46 85 46 184Q46 199 47.5 214Q49 229 51 246L122 700H264L190 238Q187 220 187 203Q187 162 206.5 140Q226 118 268 118Q315 118 344.5 147Q374 176 384 238ZM489 907H622L621 901L500 775H409V780ZM313 907H446L445 901L323 775H232V780Z" glyph-name="Uhungarumlaut" horiz-adv-x="579" unicode="&#368;" /><glyph d="M46 0ZM384 238 457 700H598L527 246Q506 116 435.5 51Q365 -14 254 -14Q154 -14 100 35.5Q46 85 46 184Q46 199 47.5 214Q49 229 51 246L122 700H264L190 238Q187 220 187 203Q187 162 206.5 140Q226 118 268 118Q315 118 344.5 147Q374 176 384 238ZM499 879 487 794H262L275 879Z" glyph-name="Umacron" horiz-adv-x="579" unicode="&#362;" /><glyph d="M293 -227Q250 -227 220 -203Q190 -179 190 -122Q190 -90 199 -62.5Q208 -35 224 -13Q139 -5 92.5 44Q46 93 46 184Q46 199 47.5 214Q49 229 51 246L122 700H264L190 238Q187 220 187 203Q187 162 206.5 140Q226 118 268 118Q315 118 344.5 147Q374 176 384 238L457 700H598L527 246Q509 136 455.5 72.5Q402 9 318 -8Q294 -20 281.5 -44Q269 -68 269 -94Q269 -120 281.5 -131Q294 -142 312 -142Q339 -142 358 -125L384 -196Q340 -227 293 -227Z" glyph-name="Uogonek" horiz-adv-x="579" unicode="&#370;" /><glyph d="M46 0ZM384 238 457 700H598L527 246Q506 116 435.5 51Q365 -14 254 -14Q154 -14 100 35.5Q46 85 46 184Q46 199 47.5 214Q49 229 51 246L122 700H264L190 238Q187 220 187 203Q187 162 206.5 140Q226 118 268 118Q315 118 344.5 147Q374 176 384 238ZM396 957Q431 957 454 936Q477 915 477 874Q477 823 447 789Q417 755 369 755Q332 755 308.5 776Q285 797 285 839Q285 888 314.5 922.5Q344 957 396 957ZM389 902Q367 902 355 886Q343 870 343 847Q343 810 375 810Q395 810 407.5 827Q420 844 420 867Q420 884 411.5 893Q403 902 389 902Z" glyph-name="Uring" horiz-adv-x="579" unicode="&#366;" /><glyph d="M46 0ZM384 238 457 700H598L527 246Q506 116 435.5 51Q365 -14 254 -14Q154 -14 100 35.5Q46 85 46 184Q46 199 47.5 214Q49 229 51 246L122 700H264L190 238Q187 220 187 203Q187 162 206.5 140Q226 118 268 118Q315 118 344.5 147Q374 176 384 238ZM454 903H530Q527 868 517 845Q507 822 493 808Q479 794 463 788Q447 782 432 782Q415 782 401.5 787.5Q388 793 376.5 799.5Q365 806 354.5 811.5Q344 817 333 817Q320 817 314.5 806.5Q309 796 307 783H228Q231 817 241 840.5Q251 864 264.5 877.5Q278 891 294 897Q310 903 325 903Q343 903 357 897.5Q371 892 383 885.5Q395 879 405.5 873.5Q416 868 427 868Q441 868 446.5 878.5Q452 889 454 903Z" glyph-name="Utilde" horiz-adv-x="579" unicode="&#360;" /><glyph d="M252 177 450 700H594L305 0H140L75 700H218Z" glyph-name="V" horiz-adv-x="533" unicode="V" /><glyph d="M106 0 74 700H214L219 226L370 699H508L513 227L666 700H801L547 0H401L402 468L255 0Z" glyph-name="W" horiz-adv-x="741" unicode="W" /><glyph d="M74 0ZM106 0 74 700H214L219 226L370 699H508L513 227L666 700H801L547 0H401L402 468L255 0ZM474 907H613L612 900L494 775H389V780Z" glyph-name="Wacute" horiz-adv-x="741" unicode="&#7810;" /><glyph d="M74 0ZM106 0 74 700H214L219 226L370 699H508L513 227L666 700H801L547 0H401L402 468L255 0ZM413 906H523L595 778V774H491L456 833L404 774H299L300 778Z" glyph-name="Wcircumflex" horiz-adv-x="741" unicode="&#372;" /><glyph d="M74 0ZM106 0 74 700H214L219 226L370 699H508L513 227L666 700H801L547 0H401L402 468L255 0ZM298 834Q298 872 318 896Q338 920 376 920Q437 920 437 862Q437 824 417 800Q397 776 357 776Q298 776 298 834ZM479 834Q479 872 498.5 896Q518 920 557 920Q617 920 617 862Q617 824 597.5 800Q578 776 538 776Q479 776 479 834Z" glyph-name="Wdieresis" horiz-adv-x="741" unicode="&#7812;" /><glyph d="M74 0ZM106 0 74 700H214L219 226L370 699H508L513 227L666 700H801L547 0H401L402 468L255 0ZM404 774 323 899 324 906H469L508 779V774Z" glyph-name="Wgrave" horiz-adv-x="741" unicode="&#7808;" /><glyph d="M333 0 261 225 124 0H-36L201 354L83 700H242L305 481L433 700H592L365 356L491 0Z" glyph-name="X" horiz-adv-x="539" unicode="X" /><glyph d="M188 263 69 700H217L279 405L436 700H588L329 260L288 0H147Z" glyph-name="Y" horiz-adv-x="524" unicode="Y" /><glyph d="M69 0ZM188 263 69 700H217L279 405L436 700H588L329 260L288 0H147ZM361 907H500L499 900L381 775H276V780Z" glyph-name="Yacute" horiz-adv-x="524" unicode="&#221;" /><glyph d="M69 0ZM188 263 69 700H217L279 405L436 700H588L329 260L288 0H147ZM300 907H410L482 779V775H378L343 834L291 775H186L187 779Z" glyph-name="Ycircumflex" horiz-adv-x="524" unicode="&#374;" /><glyph d="M69 0ZM188 263 69 700H217L279 405L436 700H588L329 260L288 0H147ZM185 834Q185 872 205 896Q225 920 263 920Q324 920 324 862Q324 824 304 800Q284 776 244 776Q185 776 185 834ZM366 834Q366 872 385.5 896Q405 920 444 920Q504 920 504 862Q504 824 484.5 800Q465 776 425 776Q366 776 366 834Z" glyph-name="Ydieresis" horiz-adv-x="524" unicode="&#376;" /><glyph d="M-23 0 -8 98 334 577 77 574 98 700H517L501 603L161 122L432 126L412 0Z" glyph-name="Z" horiz-adv-x="472" unicode="Z" /><glyph d="M0 0ZM-23 0 -8 98 334 577 77 574 98 700H517L501 603L161 122L432 126L412 0ZM341 907H480L479 900L361 775H256V780Z" glyph-name="Zacute" horiz-adv-x="472" unicode="&#377;" /><glyph d="M0 0ZM-23 0 -8 98 334 577 77 574 98 700H517L501 603L161 122L432 126L412 0ZM262 775 191 904V907H296L327 848L383 907H487L486 904L373 775Z" glyph-name="Zcaron" horiz-adv-x="472" unicode="&#381;" /><glyph d="M0 0ZM-23 0 -8 98 334 577 77 574 98 700H517L501 603L161 122L432 126L412 0ZM253 835Q253 873 273.5 896Q294 919 335 919Q366 919 382 903.5Q398 888 398 859Q398 820 377 797Q356 774 317 774Q253 774 253 835Z" glyph-name="Zdotaccent" horiz-adv-x="472" unicode="&#379;" /><glyph d="M127 127Q127 107 138 96Q149 85 167 85Q199 85 223 113.5Q247 142 255 194L257 208H228Q184 208 155.5 185Q127 162 127 127ZM248 73Q223 33 187 10Q151 -13 110 -13Q66 -13 37 17Q8 47 8 101Q8 142 22.5 178Q37 214 65 241Q93 268 134 283.5Q175 299 228 299H272Q275 317 275 328Q275 363 258.5 378Q242 393 214 393Q187 393 164 379Q141 365 126 338L46 402Q78 453 127 481.5Q176 510 245 510Q281 510 311 501.5Q341 493 362.5 475Q384 457 396.5 428Q409 399 409 359Q409 345 407.5 331.5Q406 318 404 301L356 0H244Z" glyph-name="a" horiz-adv-x="440" unicode="a" /><glyph d="M205 99Q238 99 263 134.5Q288 170 300 246Q306 286 306 313Q306 358 292.5 378Q279 398 254 398Q221 398 197.5 363Q174 328 161 247Q155 208 155 179Q155 99 205 99ZM286 70Q259 28 226.5 7Q194 -14 149 -14Q91 -14 57.5 31Q24 76 24 165Q24 199 30 243Q49 380 103.5 445Q158 510 232 510Q274 510 303 488.5Q332 467 343 425L365 496H473L395 0H285Z" glyph-name="a.school" horiz-adv-x="483" /><glyph d="M8 0ZM127 127Q127 107 138 96Q149 85 167 85Q199 85 223 113.5Q247 142 255 194L257 208H228Q184 208 155.5 185Q127 162 127 127ZM248 73Q223 33 187 10Q151 -13 110 -13Q66 -13 37 17Q8 47 8 101Q8 142 22.5 178Q37 214 65 241Q93 268 134 283.5Q175 299 228 299H272Q275 317 275 328Q275 363 258.5 378Q242 393 214 393Q187 393 164 379Q141 365 126 338L46 402Q78 453 127 481.5Q176 510 245 510Q281 510 311 501.5Q341 493 362.5 475Q384 457 396.5 428Q409 399 409 359Q409 345 407.5 331.5Q406 318 404 301L356 0H244ZM286 704H425L424 697L306 572H201V577Z" glyph-name="aacute" horiz-adv-x="440" unicode="&#225;" /><glyph d="M24 0ZM205 99Q238 99 263 134.5Q288 170 300 246Q306 286 306 313Q306 358 292.5 378Q279 398 254 398Q221 398 197.5 363Q174 328 161 247Q155 208 155 179Q155 99 205 99ZM286 70Q259 28 226.5 7Q194 -14 149 -14Q91 -14 57.5 31Q24 76 24 165Q24 199 30 243Q49 380 103.5 445Q158 510 232 510Q274 510 303 488.5Q332 467 343 425L365 496H473L395 0H285ZM300 703H439L438 696L320 571H215V576Z" glyph-name="aacute.school" horiz-adv-x="483" /><glyph d="M8 0ZM127 127Q127 107 138 96Q149 85 167 85Q199 85 223 113.5Q247 142 255 194L257 208H228Q184 208 155.5 185Q127 162 127 127ZM248 73Q223 33 187 10Q151 -13 110 -13Q66 -13 37 17Q8 47 8 101Q8 142 22.5 178Q37 214 65 241Q93 268 134 283.5Q175 299 228 299H272Q275 317 275 328Q275 363 258.5 378Q242 393 214 393Q187 393 164 379Q141 365 126 338L46 402Q78 453 127 481.5Q176 510 245 510Q281 510 311 501.5Q341 493 362.5 475Q384 457 396.5 428Q409 399 409 359Q409 345 407.5 331.5Q406 318 404 301L356 0H244ZM336 702H416Q410 663 397 636.5Q384 610 364.5 594Q345 578 319 571Q293 564 261 564Q229 564 205 571Q181 578 166 594Q151 610 145.5 636.5Q140 663 146 702H227Q221 666 231.5 653Q242 640 270 640Q299 640 315 653Q331 666 336 702Z" glyph-name="abreve" horiz-adv-x="440" unicode="&#259;" /><glyph d="M24 0ZM205 99Q238 99 263 134.5Q288 170 300 246Q306 286 306 313Q306 358 292.5 378Q279 398 254 398Q221 398 197.5 363Q174 328 161 247Q155 208 155 179Q155 99 205 99ZM286 70Q259 28 226.5 7Q194 -14 149 -14Q91 -14 57.5 31Q24 76 24 165Q24 199 30 243Q49 380 103.5 445Q158 510 232 510Q274 510 303 488.5Q332 467 343 425L365 496H473L395 0H285ZM351 702H431Q425 663 412 636.5Q399 610 379.5 594Q360 578 334 571Q308 564 276 564Q244 564 220 571Q196 578 181 594Q166 610 160.5 636.5Q155 663 161 702H242Q236 666 246.5 653Q257 640 285 640Q314 640 330 653Q346 666 351 702Z" glyph-name="abreve.school" horiz-adv-x="483" /><glyph d="M8 0ZM127 127Q127 107 138 96Q149 85 167 85Q199 85 223 113.5Q247 142 255 194L257 208H228Q184 208 155.5 185Q127 162 127 127ZM248 73Q223 33 187 10Q151 -13 110 -13Q66 -13 37 17Q8 47 8 101Q8 142 22.5 178Q37 214 65 241Q93 268 134 283.5Q175 299 228 299H272Q275 317 275 328Q275 363 258.5 378Q242 393 214 393Q187 393 164 379Q141 365 126 338L46 402Q78 453 127 481.5Q176 510 245 510Q281 510 311 501.5Q341 493 362.5 475Q384 457 396.5 428Q409 399 409 359Q409 345 407.5 331.5Q406 318 404 301L356 0H244ZM226 703H336L408 575V571H304L269 630L217 571H112L113 575Z" glyph-name="acircumflex" horiz-adv-x="440" unicode="&#226;" /><glyph d="M24 0ZM239 703H349L421 575V571H317L282 630L230 571H125L126 575ZM205 99Q238 99 263 134.5Q288 170 300 246Q306 286 306 313Q306 358 292.5 378Q279 398 254 398Q221 398 197.5 363Q174 328 161 247Q155 208 155 179Q155 99 205 99ZM286 70Q259 28 226.5 7Q194 -14 149 -14Q91 -14 57.5 31Q24 76 24 165Q24 199 30 243Q49 380 103.5 445Q158 510 232 510Q274 510 303 488.5Q332 467 343 425L365 496H473L395 0H285Z" glyph-name="acircumflex.school" horiz-adv-x="481" /><glyph d="M251 703H390L389 696L271 571H166V576Z" glyph-name="acute" horiz-adv-x="459" unicode="&#180;" /><glyph d="M8 0ZM127 127Q127 107 138 96Q149 85 167 85Q199 85 223 113.5Q247 142 255 194L257 208H228Q184 208 155.5 185Q127 162 127 127ZM248 73Q223 33 187 10Q151 -13 110 -13Q66 -13 37 17Q8 47 8 101Q8 142 22.5 178Q37 214 65 241Q93 268 134 283.5Q175 299 228 299H272Q275 317 275 328Q275 363 258.5 378Q242 393 214 393Q187 393 164 379Q141 365 126 338L46 402Q78 453 127 481.5Q176 510 245 510Q281 510 311 501.5Q341 493 362.5 475Q384 457 396.5 428Q409 399 409 359Q409 345 407.5 331.5Q406 318 404 301L356 0H244ZM116 631Q116 669 136 693Q156 717 194 717Q255 717 255 659Q255 621 235 597Q215 573 175 573Q116 573 116 631ZM297 631Q297 669 316.5 693Q336 717 375 717Q435 717 435 659Q435 621 415.5 597Q396 573 356 573Q297 573 297 631Z" glyph-name="adieresis" horiz-adv-x="440" unicode="&#228;" /><glyph d="M24 0ZM126 630Q126 668 146 692Q166 716 204 716Q265 716 265 658Q265 620 245 596Q225 572 185 572Q126 572 126 630ZM307 630Q307 668 326.5 692Q346 716 385 716Q445 716 445 658Q445 620 425.5 596Q406 572 366 572Q307 572 307 630ZM205 99Q238 99 263 134.5Q288 170 300 246Q306 286 306 313Q306 358 292.5 378Q279 398 254 398Q221 398 197.5 363Q174 328 161 247Q155 208 155 179Q155 99 205 99ZM286 70Q259 28 226.5 7Q194 -14 149 -14Q91 -14 57.5 31Q24 76 24 165Q24 199 30 243Q49 380 103.5 445Q158 510 232 510Q274 510 303 488.5Q332 467 343 425L365 496H473L395 0H285Z" glyph-name="adieresis.school" horiz-adv-x="481" /><glyph d="M291 82Q279 60 260.5 42.5Q242 25 220 12.5Q198 0 174 -6.5Q150 -13 127 -13Q73 -13 41.5 17.5Q10 48 10 104Q10 145 25 180.5Q40 216 68.5 242Q97 268 137.5 282.5Q178 297 229 297H272Q273 302 273.5 308Q274 314 274 319Q274 348 261.5 371Q249 394 214 394Q156 394 126 338L45 402Q77 454 126 482Q175 510 245 510Q286 510 317 493.5Q348 477 363 437Q419 510 507 510Q546 510 574.5 496.5Q603 483 621 459Q639 435 647.5 402Q656 369 656 330Q656 301 651.5 271Q647 241 639 209H392Q391 200 391 194V184Q391 139 408.5 119.5Q426 100 458 100Q509 100 535 156L626 108Q611 81 593.5 59Q576 37 553.5 20.5Q531 4 502 -5Q473 -14 435 -14Q381 -14 344 9Q307 32 291 82ZM131 127Q131 106 142 95.5Q153 85 172 85Q203 85 224.5 112.5Q246 140 254 191L256 205H229Q184 205 157.5 183.5Q131 162 131 127ZM540 329Q540 393 490 393Q462 393 440.5 371Q419 349 407 297H537Q540 315 540 329Z" glyph-name="ae" horiz-adv-x="677" unicode="&#230;" /><glyph d="M8 0ZM127 127Q127 107 138 96Q149 85 167 85Q199 85 223 113.5Q247 142 255 194L257 208H228Q184 208 155.5 185Q127 162 127 127ZM248 73Q223 33 187 10Q151 -13 110 -13Q66 -13 37 17Q8 47 8 101Q8 142 22.5 178Q37 214 65 241Q93 268 134 283.5Q175 299 228 299H272Q275 317 275 328Q275 363 258.5 378Q242 393 214 393Q187 393 164 379Q141 365 126 338L46 402Q78 453 127 481.5Q176 510 245 510Q281 510 311 501.5Q341 493 362.5 475Q384 457 396.5 428Q409 399 409 359Q409 345 407.5 331.5Q406 318 404 301L356 0H244ZM217 572 136 697 137 704H282L321 577V572Z" glyph-name="agrave" horiz-adv-x="440" unicode="&#224;" /><glyph d="M24 0ZM205 99Q238 99 263 134.5Q288 170 300 246Q306 286 306 313Q306 358 292.5 378Q279 398 254 398Q221 398 197.5 363Q174 328 161 247Q155 208 155 179Q155 99 205 99ZM286 70Q259 28 226.5 7Q194 -14 149 -14Q91 -14 57.5 31Q24 76 24 165Q24 199 30 243Q49 380 103.5 445Q158 510 232 510Q274 510 303 488.5Q332 467 343 425L365 496H473L395 0H285ZM232 572 151 697 152 704H297L336 577V572Z" glyph-name="agrave.school" horiz-adv-x="483" /><glyph d="M8 0ZM127 127Q127 107 138 96Q149 85 167 85Q199 85 223 113.5Q247 142 255 194L257 208H228Q184 208 155.5 185Q127 162 127 127ZM248 73Q223 33 187 10Q151 -13 110 -13Q66 -13 37 17Q8 47 8 101Q8 142 22.5 178Q37 214 65 241Q93 268 134 283.5Q175 299 228 299H272Q275 317 275 328Q275 363 258.5 378Q242 393 214 393Q187 393 164 379Q141 365 126 338L46 402Q78 453 127 481.5Q176 510 245 510Q281 510 311 501.5Q341 493 362.5 475Q384 457 396.5 428Q409 399 409 359Q409 345 407.5 331.5Q406 318 404 301L356 0H244ZM391 675 379 590H154L167 675Z" glyph-name="amacron" horiz-adv-x="440" unicode="&#257;" /><glyph d="M24 0ZM205 99Q238 99 263 134.5Q288 170 300 246Q306 286 306 313Q306 358 292.5 378Q279 398 254 398Q221 398 197.5 363Q174 328 161 247Q155 208 155 179Q155 99 205 99ZM286 70Q259 28 226.5 7Q194 -14 149 -14Q91 -14 57.5 31Q24 76 24 165Q24 199 30 243Q49 380 103.5 445Q158 510 232 510Q274 510 303 488.5Q332 467 343 425L365 496H473L395 0H285ZM405 675 393 590H168L181 675Z" glyph-name="amacron.school" horiz-adv-x="483" /><glyph d="M525 87 443 -18Q422 -4 402 11Q382 26 361 46Q324 15 281 0.5Q238 -14 190 -14Q150 -14 116 -4.5Q82 5 57 25Q32 45 17.5 76.5Q3 108 3 152Q3 212 30.5 266Q58 320 125 371Q114 401 107 435.5Q100 470 100 507Q100 609 149 662Q198 715 289 715Q355 715 392.5 683Q430 651 430 590Q430 531 396.5 469.5Q363 408 277 347Q296 315 319 282.5Q342 250 368 220Q397 274 418.5 341Q440 408 451 483H569Q552 377 522.5 291.5Q493 206 452 143Q471 126 489 112Q507 98 525 87ZM217 521Q217 480 231 444Q279 478 296 508.5Q313 539 313 563Q313 607 273 607Q252 607 234.5 588.5Q217 570 217 521ZM133 171Q134 132 156.5 114.5Q179 97 208 97Q249 97 278 123Q249 155 223 191.5Q197 228 176 267Q156 246 144 221.5Q132 197 133 171Z" glyph-name="ampersand" horiz-adv-x="560" unicode="&amp;" /><glyph d="M380 -195Q357 -211 335.5 -218.5Q314 -226 288 -226Q245 -226 215.5 -201.5Q186 -177 186 -121Q186 -78 202 -43.5Q218 -9 245 14L248 73Q223 33 187 10Q151 -13 110 -13Q66 -13 37 17Q8 47 8 101Q8 142 22.5 178Q37 214 65 241Q93 268 134 283.5Q175 299 228 299H272Q275 317 275 328Q275 363 258.5 378Q242 393 214 393Q187 393 164 379Q141 365 126 338L46 402Q78 453 127 481.5Q176 510 245 510Q281 510 311 501.5Q341 493 362.5 475Q384 457 396.5 428Q409 399 409 359Q409 345 407.5 331.5Q406 318 404 301L356 0H337Q302 -6 283.5 -33.5Q265 -61 265 -93Q265 -119 277.5 -130Q290 -141 308 -141Q335 -141 354 -124ZM127 127Q127 107 138 96Q149 85 167 85Q199 85 223 113.5Q247 142 255 194L257 208H228Q184 208 155.5 185Q127 162 127 127Z" glyph-name="aogonek" horiz-adv-x="440" unicode="&#261;" /><glyph d="M24 0ZM205 99Q238 99 263 134.5Q288 170 300 246Q306 286 306 313Q306 358 292.5 378Q279 398 254 398Q221 398 197.5 363Q174 328 161 247Q155 208 155 179Q155 99 205 99ZM286 70Q259 28 226.5 7Q194 -14 149 -14Q91 -14 57.5 31Q24 76 24 165Q24 199 30 243Q49 380 103.5 445Q158 510 232 510Q274 510 303 488.5Q332 467 343 425L365 496H473L395 0H285ZM416 -196Q393 -212 371.5 -219.5Q350 -227 324 -227Q281 -227 251.5 -202.5Q222 -178 222 -122Q222 -83 235 -51Q248 -19 270 3.5Q292 26 321.5 38Q351 50 383 48L380 0Q341 -4 321 -32.5Q301 -61 301 -94Q301 -120 313.5 -131Q326 -142 344 -142Q371 -142 390 -125Z" glyph-name="aogonek.school" horiz-adv-x="483" /><glyph d="M286 408Q301 408 325 414Q349 420 372 437L357 346Q338 333 312 326.5Q286 320 265 320Q245 320 229 325.5Q213 331 199 337Q185 343 170 348.5Q155 354 137 354Q120 354 95.5 348.5Q71 343 47 326L62 417Q81 430 106 436Q131 442 153 442Q174 442 190 436.5Q206 431 221 425Q236 419 251 413.5Q266 408 286 408ZM261 257Q276 257 301 263Q326 269 348 286L334 194Q314 181 288.5 174.5Q263 168 241 168Q221 168 205 173.5Q189 179 175 185Q161 191 146 196.5Q131 202 113 202Q96 202 71.5 196.5Q47 191 24 174L39 266Q57 279 82 285Q107 291 128 291Q149 291 165 285.5Q181 280 196 274Q211 268 226.5 262.5Q242 257 261 257Z" glyph-name="approxequal" horiz-adv-x="389" unicode="&#8776;" /><glyph d="M8 0ZM127 127Q127 107 138 96Q149 85 167 85Q199 85 223 113.5Q247 142 255 194L257 208H228Q184 208 155.5 185Q127 162 127 127ZM248 73Q223 33 187 10Q151 -13 110 -13Q66 -13 37 17Q8 47 8 101Q8 142 22.5 178Q37 214 65 241Q93 268 134 283.5Q175 299 228 299H272Q275 317 275 328Q275 363 258.5 378Q242 393 214 393Q187 393 164 379Q141 365 126 338L46 402Q78 453 127 481.5Q176 510 245 510Q281 510 311 501.5Q341 493 362.5 475Q384 457 396.5 428Q409 399 409 359Q409 345 407.5 331.5Q406 318 404 301L356 0H244ZM287 753Q322 753 345 732Q368 711 368 670Q368 619 338 585Q308 551 260 551Q223 551 199.5 572Q176 593 176 635Q176 684 205.5 718.5Q235 753 287 753ZM280 698Q258 698 246 682Q234 666 234 643Q234 606 266 606Q286 606 298.5 623Q311 640 311 663Q311 680 302.5 689Q294 698 280 698Z" glyph-name="aring" horiz-adv-x="440" unicode="&#229;" /><glyph d="M24 0ZM205 99Q238 99 263 134.5Q288 170 300 246Q306 286 306 313Q306 358 292.5 378Q279 398 254 398Q221 398 197.5 363Q174 328 161 247Q155 208 155 179Q155 99 205 99ZM286 70Q259 28 226.5 7Q194 -14 149 -14Q91 -14 57.5 31Q24 76 24 165Q24 199 30 243Q49 380 103.5 445Q158 510 232 510Q274 510 303 488.5Q332 467 343 425L365 496H473L395 0H285ZM302 753Q337 753 360 732Q383 711 383 670Q383 619 353 585Q323 551 275 551Q238 551 214.5 572Q191 593 191 635Q191 684 220.5 718.5Q250 753 302 753ZM295 698Q273 698 261 682Q249 666 249 643Q249 606 281 606Q301 606 313.5 623Q326 640 326 663Q326 680 317.5 689Q309 698 295 698Z" glyph-name="aring.school" horiz-adv-x="483" /><glyph d="M192 700H316L374 370L373 368H266L236 589L135 368H29V370Z" glyph-name="asciicircum" horiz-adv-x="380" unicode="^" /><glyph d="M220 283Q205 293 191 301.5Q177 310 161 310Q145 310 132.5 297Q120 284 113 254L24 269Q38 349 77.5 387Q117 425 166 425Q191 425 210.5 415.5Q230 406 247 395Q262 384 276.5 376Q291 368 305 368Q321 368 333 381Q345 394 353 424L441 408Q428 328 388.5 290Q349 252 301 252Q277 252 257 262Q237 272 220 283Z" glyph-name="asciitilde" horiz-adv-x="437" unicode="~" /><glyph d="M126 347 51 403 127 494 51 529 104 628 169 593 182 714H291L267 593L344 628L365 528L278 494L326 403L233 347L192 433Z" glyph-name="asterisk" horiz-adv-x="346" unicode="*" /><glyph d="M474 -8Q390 -104 260 -104Q151 -104 89.5 -32Q28 40 28 168Q28 265 54 343Q80 421 124.5 475.5Q169 530 229 559.5Q289 589 357 589Q466 589 525.5 522.5Q585 456 585 340Q585 281 572.5 233Q560 185 537.5 150Q515 115 483.5 96Q452 77 414 77Q357 77 341 125Q319 98 295.5 84.5Q272 71 243 71Q208 71 186.5 91.5Q165 112 165 150Q165 177 176 201Q187 225 207 243Q227 261 254.5 271.5Q282 282 315 282H345Q346 287 346.5 291.5Q347 296 347 300Q347 327 333.5 338Q320 349 303 349Q266 349 243 306L191 351Q212 385 246 405Q280 425 328 425Q376 425 406 400Q436 375 436 321Q436 304 433 283L418 183Q417 178 416.5 172Q416 166 416 161Q416 130 441 130Q459 130 475.5 145Q492 160 505.5 187Q519 214 527 252Q535 290 535 337Q535 440 484.5 492Q434 544 353 544Q299 544 249 519.5Q199 495 161 447Q123 399 100 329Q77 259 77 168Q77 111 91 68Q105 25 130.5 -3.5Q156 -32 190 -46Q224 -60 265 -60Q316 -60 361 -41Q406 -22 441 20ZM246 165Q246 151 253.5 143.5Q261 136 272 136Q297 136 313.5 155.5Q330 175 335 213L336 227H318Q284 227 265 209Q246 191 246 165Z" glyph-name="at" horiz-adv-x="612" unicode="@" /><glyph d="M36 4ZM482 100Q398 4 268 4Q159 4 97.5 76Q36 148 36 276Q36 373 62 451Q88 529 132.5 583.5Q177 638 237 667.5Q297 697 365 697Q474 697 533.5 630.5Q593 564 593 448Q593 389 580.5 341Q568 293 545.5 258Q523 223 491.5 204Q460 185 422 185Q365 185 349 233Q327 206 303.5 192.5Q280 179 251 179Q216 179 194.5 199.5Q173 220 173 258Q173 285 184 309Q195 333 215 351Q235 369 262.5 379.5Q290 390 323 390H353Q354 395 354.5 399.5Q355 404 355 408Q355 435 341.5 446Q328 457 311 457Q274 457 251 414L199 459Q220 493 254 513Q288 533 336 533Q384 533 414 508Q444 483 444 429Q444 412 441 391L426 291Q425 286 424.5 280Q424 274 424 269Q424 238 449 238Q467 238 483.5 253Q500 268 513.5 295Q527 322 535 360Q543 398 543 445Q543 548 492.5 600Q442 652 361 652Q307 652 257 627.5Q207 603 169 555Q131 507 108 437Q85 367 85 276Q85 219 99 176Q113 133 138.5 104.5Q164 76 198 62Q232 48 273 48Q324 48 369 67Q414 86 449 128ZM254 273Q254 259 261.5 251.5Q269 244 280 244Q305 244 321.5 263.5Q338 283 343 321L344 335H326Q292 335 273 317Q254 299 254 273Z" glyph-name="at.cap" horiz-adv-x="607" /><glyph d="M8 0ZM127 127Q127 107 138 96Q149 85 167 85Q199 85 223 113.5Q247 142 255 194L257 208H228Q184 208 155.5 185Q127 162 127 127ZM248 73Q223 33 187 10Q151 -13 110 -13Q66 -13 37 17Q8 47 8 101Q8 142 22.5 178Q37 214 65 241Q93 268 134 283.5Q175 299 228 299H272Q275 317 275 328Q275 363 258.5 378Q242 393 214 393Q187 393 164 379Q141 365 126 338L46 402Q78 453 127 481.5Q176 510 245 510Q281 510 311 501.5Q341 493 362.5 475Q384 457 396.5 428Q409 399 409 359Q409 345 407.5 331.5Q406 318 404 301L356 0H244ZM345 699H421Q418 664 408 641Q398 618 384 604Q370 590 354 584Q338 578 323 578Q306 578 292.5 583.5Q279 589 267.5 595.5Q256 602 245.5 607.5Q235 613 224 613Q211 613 205.5 602.5Q200 592 198 579H119Q122 613 132 636.5Q142 660 155.5 673.5Q169 687 185 693Q201 699 216 699Q234 699 248 693.5Q262 688 274 681.5Q286 675 296.5 669.5Q307 664 318 664Q332 664 337.5 674.5Q343 685 345 699Z" glyph-name="atilde" horiz-adv-x="440" unicode="&#227;" /><glyph d="M24 0ZM205 99Q238 99 263 134.5Q288 170 300 246Q306 286 306 313Q306 358 292.5 378Q279 398 254 398Q221 398 197.5 363Q174 328 161 247Q155 208 155 179Q155 99 205 99ZM286 70Q259 28 226.5 7Q194 -14 149 -14Q91 -14 57.5 31Q24 76 24 165Q24 199 30 243Q49 380 103.5 445Q158 510 232 510Q274 510 303 488.5Q332 467 343 425L365 496H473L395 0H285ZM360 699H436Q433 664 423 641Q413 618 399 604Q385 590 369 584Q353 578 338 578Q321 578 307.5 583.5Q294 589 282.5 595.5Q271 602 260.5 607.5Q250 613 239 613Q226 613 220.5 602.5Q215 592 213 579H134Q137 613 147 636.5Q157 660 170.5 673.5Q184 687 200 693Q216 699 231 699Q249 699 263 693.5Q277 688 289 681.5Q301 675 311.5 669.5Q322 664 333 664Q347 664 352.5 674.5Q358 685 360 699Z" glyph-name="atilde.school" horiz-adv-x="483" /><glyph d="M255 700 214 438Q240 473 272.5 491.5Q305 510 341 510Q397 510 428.5 466.5Q460 423 460 337Q460 319 458 298.5Q456 278 453 255Q435 131 383 58.5Q331 -14 247 -14Q164 -14 130 70L112 0H9L121 700ZM278 396Q246 396 220 361.5Q194 327 182 246Q176 208 176 181Q176 98 229 98Q264 98 287 133.5Q310 169 323 247Q326 267 327 284Q328 301 328 316Q328 396 278 396Z" glyph-name="b" horiz-adv-x="482" unicode="b" /><glyph d="M244 0 65 700H209L388 0Z" glyph-name="backslash" horiz-adv-x="438" unicode="\" /><glyph d="M10 -65 141 766H264L133 -65Z" glyph-name="bar" horiz-adv-x="244" unicode="|" /><glyph d="M178 -117Q120 -112 90 -76Q60 -40 60 31Q60 83 70.5 118.5Q81 154 81 179Q81 216 67 230Q53 244 27 244H-2L15 352H45Q74 352 94.5 367.5Q115 383 123 428Q127 454 126 477.5Q125 501 130 533Q142 619 187 662Q232 705 301 716L332 609Q297 601 275.5 583Q254 565 247 522Q242 490 242.5 467Q243 444 238 416Q230 379 209.5 350Q189 321 159 297Q198 264 198 200Q198 185 194 167.5Q190 150 185.5 132Q181 114 177.5 95.5Q174 77 174 60Q174 27 190 11.5Q206 -4 235 -9Z" glyph-name="braceleft" horiz-adv-x="275" unicode="{" /><glyph d="M123 714Q181 709 211 673Q241 637 241 566Q241 514 230.5 478.5Q220 443 220 418Q220 381 234 367Q248 353 274 353H303L286 245H256Q227 245 206.5 229.5Q186 214 178 169Q174 143 175 119.5Q176 96 171 64Q159 -22 114 -65Q69 -108 0 -119L-31 -12Q4 -4 25.5 14Q47 32 54 75Q59 107 58.5 130Q58 153 63 181Q71 218 91.5 247Q112 276 142 300Q103 333 103 397Q103 412 106.5 429.5Q110 447 114.5 465Q119 483 123 501.5Q127 520 127 537Q127 570 111 585.5Q95 601 66 606Z" glyph-name="braceright" horiz-adv-x="307" unicode="}" /><glyph d="M-11 -121 122 717H331L313 608H229L130 -13H217L199 -121Z" glyph-name="bracketleft" horiz-adv-x="282" unicode="[" /><glyph d="M298 717 165 -121H-44L-26 -12H58L157 609H70L88 717Z" glyph-name="bracketright" horiz-adv-x="282" unicode="]" /><glyph d="M318 702H398Q392 663 379 636.5Q366 610 346.5 594Q327 578 301 571Q275 564 243 564Q211 564 187 571Q163 578 148 594Q133 610 127.5 636.5Q122 663 128 702H209Q203 666 213.5 653Q224 640 252 640Q281 640 297 653Q313 666 318 702Z" glyph-name="breve" horiz-adv-x="459" unicode="&#728;" /><glyph d="M82 384 142 766H264L204 384ZM11 -65 71 318H193L133 -65Z" glyph-name="brokenbar" horiz-adv-x="244" unicode="&#166;" /><glyph d="M308 349Q308 316 297.5 286Q287 256 267.5 234Q248 212 220 199Q192 186 157 186Q101 186 71 218.5Q41 251 41 305Q41 339 51.5 369Q62 399 81.5 421Q101 443 128.5 455.5Q156 468 191 468Q248 468 278 435Q308 402 308 349Z" glyph-name="bullet" horiz-adv-x="325" unicode="&#8226;" /><glyph d="M283 173 383 118Q352 48 306.5 17Q261 -14 192 -14Q113 -14 68.5 31Q24 76 24 173Q24 190 26 208.5Q28 227 31 248Q51 383 112.5 446.5Q174 510 269 510Q408 510 420 358L305 319Q300 356 288.5 373Q277 390 251 390Q217 390 194 357.5Q171 325 158 247Q155 229 153 212.5Q151 196 151 182Q151 141 165 123Q179 105 211 105Q232 105 250 120.5Q268 136 283 173Z" glyph-name="c" horiz-adv-x="415" unicode="c" /><glyph d="M24 0ZM283 173 383 118Q352 48 306.5 17Q261 -14 192 -14Q113 -14 68.5 31Q24 76 24 173Q24 190 26 208.5Q28 227 31 248Q51 383 112.5 446.5Q174 510 269 510Q408 510 420 358L305 319Q300 356 288.5 373Q277 390 251 390Q217 390 194 357.5Q171 325 158 247Q155 229 153 212.5Q151 196 151 182Q151 141 165 123Q179 105 211 105Q232 105 250 120.5Q268 136 283 173ZM302 703H441L440 696L322 571H217V576Z" glyph-name="cacute" horiz-adv-x="415" unicode="&#263;" /><glyph d="M183 571 112 700V703H217L248 644L304 703H408L407 700L294 571Z" glyph-name="caron" horiz-adv-x="459" unicode="&#711;" /><glyph d="M285 445H197L243 700H350Z" glyph-name="caronSlovak" horiz-adv-x="459" /><glyph d="M24 0ZM283 173 383 118Q352 48 306.5 17Q261 -14 192 -14Q113 -14 68.5 31Q24 76 24 173Q24 190 26 208.5Q28 227 31 248Q51 383 112.5 446.5Q174 510 269 510Q408 510 420 358L305 319Q300 356 288.5 373Q277 390 251 390Q217 390 194 357.5Q171 325 158 247Q155 229 153 212.5Q151 196 151 182Q151 141 165 123Q179 105 211 105Q232 105 250 120.5Q268 136 283 173ZM222 571 151 700V703H256L287 644L343 703H447L446 700L333 571Z" glyph-name="ccaron" horiz-adv-x="415" unicode="&#269;" /><glyph d="M143 -249Q104 -249 71.5 -231.5Q39 -214 28 -172L92 -134Q107 -176 144 -176Q166 -176 177 -163.5Q188 -151 188 -134Q188 -116 173 -107Q158 -98 141 -104L122 -90L154 -11Q92 -1 58 43.5Q24 88 24 173Q24 190 26 208.5Q28 227 31 248Q51 383 112.5 446.5Q174 510 269 510Q408 510 420 358L305 319Q300 356 288.5 373Q277 390 251 390Q217 390 194 357.5Q171 325 158 247Q155 229 153 212.5Q151 196 151 182Q151 141 165 123Q179 105 211 105Q232 105 250 120.5Q268 136 283 173L383 118Q355 55 316 24Q277 -7 220 -13L202 -52Q228 -56 248 -75.5Q268 -95 268 -132Q268 -189 232.5 -219Q197 -249 143 -249Z" glyph-name="ccedilla" horiz-adv-x="415" unicode="&#231;" /><glyph d="M24 0ZM283 173 383 118Q352 48 306.5 17Q261 -14 192 -14Q113 -14 68.5 31Q24 76 24 173Q24 190 26 208.5Q28 227 31 248Q51 383 112.5 446.5Q174 510 269 510Q408 510 420 358L305 319Q300 356 288.5 373Q277 390 251 390Q217 390 194 357.5Q171 325 158 247Q155 229 153 212.5Q151 196 151 182Q151 141 165 123Q179 105 211 105Q232 105 250 120.5Q268 136 283 173ZM241 703H351L423 575V571H319L284 630L232 571H127L128 575Z" glyph-name="ccircumflex" horiz-adv-x="415" unicode="&#265;" /><glyph d="M24 0ZM283 173 383 118Q352 48 306.5 17Q261 -14 192 -14Q113 -14 68.5 31Q24 76 24 173Q24 190 26 208.5Q28 227 31 248Q51 383 112.5 446.5Q174 510 269 510Q408 510 420 358L305 319Q300 356 288.5 373Q277 390 251 390Q217 390 194 357.5Q171 325 158 247Q155 229 153 212.5Q151 196 151 182Q151 141 165 123Q179 105 211 105Q232 105 250 120.5Q268 136 283 173ZM214 632Q214 670 234.5 693Q255 716 296 716Q327 716 343 700.5Q359 685 359 656Q359 617 338 594Q317 571 278 571Q214 571 214 632Z" glyph-name="cdotaccent" horiz-adv-x="415" unicode="&#267;" /><glyph d="M207 -249Q168 -249 135.5 -231.5Q103 -214 92 -172L156 -134Q171 -176 208 -176Q230 -176 241 -163.5Q252 -151 252 -134Q252 -116 237 -107Q222 -98 205 -104L186 -90L223 0H290L266 -52Q292 -56 312 -75.5Q332 -95 332 -132Q332 -189 296.5 -219Q261 -249 207 -249Z" glyph-name="cedilla" horiz-adv-x="459" unicode="&#184;" /><glyph d="M136 -62 147 9Q87 17 54 59.5Q21 102 21 184Q21 217 27 259Q44 378 97 438Q150 498 226 507L238 579H299L287 506Q343 498 372.5 462Q402 426 409 368L311 323Q307 350 298 367.5Q289 385 269 393L227 118Q245 124 261 138Q277 152 288 178L368 124Q342 78 304.5 46.5Q267 15 210 9L199 -62ZM129 201Q129 137 164 120L207 391Q181 380 162 349Q143 318 134 263Q131 246 130 230.5Q129 215 129 201Z" glyph-name="cent" horiz-adv-x="410" unicode="&#162;" /><glyph d="M210 703H320L392 575V571H288L253 630L201 571H96L97 575Z" glyph-name="circumflex" horiz-adv-x="459" unicode="&#710;" /><glyph d="M0 0ZM149 87Q149 46 127.5 19.5Q106 -7 62 -7Q30 -7 14 10Q-2 27 -2 56Q-2 94 18 122.5Q38 151 83 151Q149 151 149 87ZM204 431Q204 390 182.5 363.5Q161 337 117 337Q85 337 69 354Q53 371 53 400Q53 438 73 466.5Q93 495 138 495Q204 495 204 431Z" glyph-name="colon" horiz-adv-x="206" unicode=":" /><glyph d="M-7 -148 -29 -89Q4 -76 27 -54Q50 -32 58 -6Q1 -1 1 56Q1 96 22.5 123Q44 150 87 150Q119 150 135.5 132Q152 114 152 81Q152 46 141 10.5Q130 -25 110 -56Q90 -87 60 -111.5Q30 -136 -7 -148Z" glyph-name="comma" horiz-adv-x="204" unicode="," /><glyph d="M141 -324 120 -272Q146 -261 167.5 -241Q189 -221 197 -195Q171 -196 155 -181.5Q139 -167 140 -138Q141 -101 162 -78.5Q183 -56 220 -56Q281 -56 281 -125Q280 -159 269 -191.5Q258 -224 239.5 -251Q221 -278 195.5 -297Q170 -316 141 -324Z" glyph-name="commaaccent" horiz-adv-x="459" unicode="&#63171;" /><glyph d="M378 699Q487 699 547 631Q607 563 607 438Q607 416 605.5 395.5Q604 375 600 351Q588 269 559 204.5Q530 140 487.5 95.5Q445 51 391 27.5Q337 4 275 4Q166 4 105 72Q44 140 44 265Q44 286 46 307Q48 328 51 351Q63 433 92 497.5Q121 562 163.5 607Q206 652 260.5 675.5Q315 699 378 699ZM374 653Q326 653 282 634.5Q238 616 202 578.5Q166 541 139.5 484Q113 427 101 351Q93 305 93 271Q93 215 106.5 174Q120 133 145 105.5Q170 78 204 64.5Q238 51 279 51Q327 51 370.5 69.5Q414 88 450 125.5Q486 163 512 219.5Q538 276 550 351Q554 374 555.5 394.5Q557 415 557 434Q557 544 506.5 598.5Q456 653 374 653ZM452 274Q423 219 387 193.5Q351 168 303 168Q248 168 214.5 199Q181 230 181 303Q181 317 182 329.5Q183 342 185 356Q192 407 208 443.5Q224 480 247 502.5Q270 525 299 535.5Q328 546 362 546Q455 546 475 451L392 409Q388 435 378 447.5Q368 460 348 460Q322 460 304 438.5Q286 417 276 354Q274 342 273 332Q272 322 272 313Q272 278 284 265Q296 252 318 252Q357 252 380 306Z" glyph-name="copyright" horiz-adv-x="624" unicode="&#169;" /><glyph d="M241 470 304 424Q258 340 168 340Q113 340 82 372Q51 404 51 473Q51 485 52.5 498Q54 511 56 526Q70 625 114 669.5Q158 714 224 714Q271 714 298.5 694Q326 674 334 626L256 582Q251 604 242 615.5Q233 627 214 627Q190 627 173.5 603.5Q157 580 149 526Q147 512 146 501Q145 490 145 479Q145 450 154.5 437Q164 424 187 424Q204 424 217.5 434.5Q231 445 241 470Z" glyph-name="cordinal" horiz-adv-x="303" /><glyph d="M206 99Q238 99 263 134Q288 169 301 248Q307 287 307 313Q307 358 293 378Q279 398 254 398Q219 398 196.5 362Q174 326 161 248Q157 226 156 211Q155 196 155 181Q155 99 206 99ZM151 -14Q92 -14 58 31Q24 76 24 166Q24 201 30 243Q48 375 103.5 442.5Q159 510 233 510Q268 510 291 492Q314 474 329 439L371 700H506L395 0H286L287 72Q259 30 227.5 8Q196 -14 151 -14Z" glyph-name="d" horiz-adv-x="486" unicode="d" /><glyph d="M235 499H187L150 274H50L86 499H37L53 596H100L117 712H223L204 596H250Z" glyph-name="dagger" horiz-adv-x="245" unicode="&#8224;" /><glyph d="M33 469H81L90 523H42L57 620H104L117 712H223L207 620H254L239 523H191L182 469H230L215 372H168L154 274H48L64 372H18Z" glyph-name="daggerdbl" horiz-adv-x="245" unicode="&#8225;" /><glyph d="M24 0ZM600 445H512L558 700H665ZM206 99Q238 99 263 134Q288 169 301 248Q307 287 307 313Q307 358 293 378Q279 398 254 398Q219 398 196.5 362Q174 326 161 248Q157 226 156 211Q155 196 155 181Q155 99 206 99ZM151 -14Q92 -14 58 31Q24 76 24 166Q24 201 30 243Q48 375 103.5 442.5Q159 510 233 510Q268 510 291 492Q314 474 329 439L371 700H506L395 0H286L287 72Q259 30 227.5 8Q196 -14 151 -14Z" glyph-name="dcaron" horiz-adv-x="590" unicode="&#271;" /><glyph d="M300 245Q306 284 306 311Q306 354 292 373Q278 392 253 392Q220 392 196 358Q172 324 159 247Q153 211 153 181Q153 99 206 99Q238 99 263 134.5Q288 170 300 245ZM150 -14Q91 -14 57.5 31Q24 76 24 164Q24 199 30 241Q39 306 57.5 355Q76 404 102.5 437Q129 470 162 487Q195 504 231 504Q266 504 289.5 485.5Q313 467 327 432L346 547H253L266 628H359L370 700H507L495 628H538L525 547H482L396 0H285L286 71Q260 29 227 7.5Q194 -14 150 -14Z" glyph-name="dcroat" horiz-adv-x="494" unicode="&#273;" /><glyph d="M195 351Q136 351 105.5 389.5Q75 428 75 494Q75 534 85.5 573.5Q96 613 117 644Q138 675 170.5 694Q203 713 247 713Q305 713 335.5 676Q366 639 366 575Q366 525 353.5 483.5Q341 442 318.5 412.5Q296 383 264.5 367Q233 351 195 351ZM205 432Q223 432 238 442Q253 452 264 469.5Q275 487 281 510Q287 533 287 560Q287 595 273 613.5Q259 632 236 632Q204 632 179 598.5Q154 565 154 506Q154 470 167.5 451Q181 432 205 432Z" glyph-name="degree" horiz-adv-x="355" unicode="&#176;" /><glyph d="M98 630Q98 668 118 692Q138 716 176 716Q237 716 237 658Q237 620 217 596Q197 572 157 572Q98 572 98 630ZM279 630Q279 668 298.5 692Q318 716 357 716Q417 716 417 658Q417 620 397.5 596Q378 572 338 572Q279 572 279 630Z" glyph-name="dieresis" horiz-adv-x="459" unicode="&#168;" /><glyph d="M157 476Q157 514 179 536Q201 558 236 558Q294 558 294 497Q294 460 273.5 437Q253 414 216 414Q185 414 171 430.5Q157 447 157 476ZM358 356 344 264H38L52 356ZM103 127Q103 164 123.5 186.5Q144 209 180 209Q239 209 239 148Q239 111 217.5 88.5Q196 66 160 66Q129 66 116 81Q103 96 103 127Z" glyph-name="divide" horiz-adv-x="390" unicode="&#247;" /><glyph d="M227 432 253 584Q217 577 200 555Q183 533 183 501Q183 458 227 432ZM303 196Q303 219 294 236.5Q285 254 259 270L253 234L234 112Q269 118 286 139.5Q303 161 303 196ZM150 -62 162 6Q95 11 51 49Q7 87 -3 166L111 207Q116 165 132 142Q148 119 177 112L206 291L205 293Q128 328 97.5 376.5Q67 425 67 484Q67 526 80.5 562.5Q94 599 120 627Q146 655 184 672Q222 689 270 693L281 766H337L325 693Q390 686 429.5 647Q469 608 474 533L360 492Q355 531 342 552Q329 573 309 580L281 410L291 405Q364 373 395.5 329.5Q427 286 427 224Q427 129 372 71.5Q317 14 218 6L206 -62Z" glyph-name="dollar" horiz-adv-x="461" unicode="$" /><glyph d="M180 632Q180 670 200.5 693Q221 716 262 716Q293 716 309 700.5Q325 685 325 656Q325 617 304 594Q283 571 244 571Q180 571 180 632Z" glyph-name="dotaccent" horiz-adv-x="459" unicode="&#729;" /><glyph d="M88 496H224L146 0H9Z" glyph-name="dotlessi" horiz-adv-x="233" unicode="&#305;" /><glyph d="M4 -27 87 496H222L139 -37Q124 -131 74 -175.5Q24 -220 -42 -220Q-76 -220 -98.5 -213.5Q-121 -207 -141 -195L-93 -90Q-78 -102 -58 -102Q-35 -102 -19.5 -85.5Q-4 -69 4 -27Z" glyph-name="dotlessj" horiz-adv-x="233" unicode="&#567;" /><glyph d="M10 -65 141 766H264L132 -65ZM179 -65 310 766H433L302 -65Z" glyph-name="doublebar" horiz-adv-x="418" /><glyph d="M195 -14Q116 -14 70.5 32.5Q25 79 25 177Q25 192 26.5 210Q28 228 31 246Q49 371 110.5 440.5Q172 510 268 510Q307 510 335 496.5Q363 483 381.5 459Q400 435 408.5 401.5Q417 368 417 329Q417 299 412 266.5Q407 234 400 202H151Q150 197 149.5 191Q149 185 149 180Q150 138 167.5 119.5Q185 101 218 101Q244 101 264 115Q284 129 296 155L387 108Q372 81 354 58.5Q336 36 313.5 20Q291 4 262 -5Q233 -14 195 -14ZM298 331Q298 393 251 393Q220 393 197.5 371Q175 349 165 298H296Q298 307 298 315Z" glyph-name="e" horiz-adv-x="439" unicode="e" /><glyph d="M25 0ZM294 703H433L432 696L314 571H209V576ZM195 -14Q116 -14 70.5 32.5Q25 79 25 177Q25 192 26.5 210Q28 228 31 246Q49 371 110.5 440.5Q172 510 268 510Q307 510 335 496.5Q363 483 381.5 459Q400 435 408.5 401.5Q417 368 417 329Q417 299 412 266.5Q407 234 400 202H151Q150 197 149.5 191Q149 185 149 180Q150 138 167.5 119.5Q185 101 218 101Q244 101 264 115Q284 129 296 155L387 108Q372 81 354 58.5Q336 36 313.5 20Q291 4 262 -5Q233 -14 195 -14ZM298 331Q298 393 251 393Q220 393 197.5 371Q175 349 165 298H296Q298 307 298 315Z" glyph-name="eacute" horiz-adv-x="435" unicode="&#233;" /><glyph d="M25 0ZM195 -14Q116 -14 70.5 32.5Q25 79 25 177Q25 192 26.5 210Q28 228 31 246Q49 371 110.5 440.5Q172 510 268 510Q307 510 335 496.5Q363 483 381.5 459Q400 435 408.5 401.5Q417 368 417 329Q417 299 412 266.5Q407 234 400 202H151Q150 197 149.5 191Q149 185 149 180Q150 138 167.5 119.5Q185 101 218 101Q244 101 264 115Q284 129 296 155L387 108Q372 81 354 58.5Q336 36 313.5 20Q291 4 262 -5Q233 -14 195 -14ZM298 331Q298 393 251 393Q220 393 197.5 371Q175 349 165 298H296Q298 307 298 315ZM345 702H425Q419 663 406 636.5Q393 610 373.5 594Q354 578 328 571Q302 564 270 564Q238 564 214 571Q190 578 175 594Q160 610 154.5 636.5Q149 663 155 702H236Q230 666 240.5 653Q251 640 279 640Q308 640 324 653Q340 666 345 702Z" glyph-name="ebreve" horiz-adv-x="435" unicode="&#277;" /><glyph d="M25 0ZM216 571 145 700V703H250L281 644L337 703H441L440 700L327 571ZM195 -14Q116 -14 70.5 32.5Q25 79 25 177Q25 192 26.5 210Q28 228 31 246Q49 371 110.5 440.5Q172 510 268 510Q307 510 335 496.5Q363 483 381.5 459Q400 435 408.5 401.5Q417 368 417 329Q417 299 412 266.5Q407 234 400 202H151Q150 197 149.5 191Q149 185 149 180Q150 138 167.5 119.5Q185 101 218 101Q244 101 264 115Q284 129 296 155L387 108Q372 81 354 58.5Q336 36 313.5 20Q291 4 262 -5Q233 -14 195 -14ZM298 331Q298 393 251 393Q220 393 197.5 371Q175 349 165 298H296Q298 307 298 315Z" glyph-name="ecaron" horiz-adv-x="435" unicode="&#283;" /><glyph d="M25 0ZM234 703H344L416 575V571H312L277 630L225 571H120L121 575ZM195 -14Q116 -14 70.5 32.5Q25 79 25 177Q25 192 26.5 210Q28 228 31 246Q49 371 110.5 440.5Q172 510 268 510Q307 510 335 496.5Q363 483 381.5 459Q400 435 408.5 401.5Q417 368 417 329Q417 299 412 266.5Q407 234 400 202H151Q150 197 149.5 191Q149 185 149 180Q150 138 167.5 119.5Q185 101 218 101Q244 101 264 115Q284 129 296 155L387 108Q372 81 354 58.5Q336 36 313.5 20Q291 4 262 -5Q233 -14 195 -14ZM298 331Q298 393 251 393Q220 393 197.5 371Q175 349 165 298H296Q298 307 298 315Z" glyph-name="ecircumflex" horiz-adv-x="435" unicode="&#234;" /><glyph d="M25 0ZM124 630Q124 668 144 692Q164 716 202 716Q263 716 263 658Q263 620 243 596Q223 572 183 572Q124 572 124 630ZM305 630Q305 668 324.5 692Q344 716 383 716Q443 716 443 658Q443 620 423.5 596Q404 572 364 572Q305 572 305 630ZM195 -14Q116 -14 70.5 32.5Q25 79 25 177Q25 192 26.5 210Q28 228 31 246Q49 371 110.5 440.5Q172 510 268 510Q307 510 335 496.5Q363 483 381.5 459Q400 435 408.5 401.5Q417 368 417 329Q417 299 412 266.5Q407 234 400 202H151Q150 197 149.5 191Q149 185 149 180Q150 138 167.5 119.5Q185 101 218 101Q244 101 264 115Q284 129 296 155L387 108Q372 81 354 58.5Q336 36 313.5 20Q291 4 262 -5Q233 -14 195 -14ZM298 331Q298 393 251 393Q220 393 197.5 371Q175 349 165 298H296Q298 307 298 315Z" glyph-name="edieresis" horiz-adv-x="435" unicode="&#235;" /><glyph d="M25 0ZM195 -14Q116 -14 70.5 32.5Q25 79 25 177Q25 192 26.5 210Q28 228 31 246Q49 371 110.5 440.5Q172 510 268 510Q307 510 335 496.5Q363 483 381.5 459Q400 435 408.5 401.5Q417 368 417 329Q417 299 412 266.5Q407 234 400 202H151Q150 197 149.5 191Q149 185 149 180Q150 138 167.5 119.5Q185 101 218 101Q244 101 264 115Q284 129 296 155L387 108Q372 81 354 58.5Q336 36 313.5 20Q291 4 262 -5Q233 -14 195 -14ZM298 331Q298 393 251 393Q220 393 197.5 371Q175 349 165 298H296Q298 307 298 315ZM207 632Q207 670 227.5 693Q248 716 289 716Q320 716 336 700.5Q352 685 352 656Q352 617 331 594Q310 571 271 571Q207 571 207 632Z" glyph-name="edotaccent" horiz-adv-x="435" unicode="&#279;" /><glyph d="M25 0ZM195 -14Q116 -14 70.5 32.5Q25 79 25 177Q25 192 26.5 210Q28 228 31 246Q49 371 110.5 440.5Q172 510 268 510Q307 510 335 496.5Q363 483 381.5 459Q400 435 408.5 401.5Q417 368 417 329Q417 299 412 266.5Q407 234 400 202H151Q150 197 149.5 191Q149 185 149 180Q150 138 167.5 119.5Q185 101 218 101Q244 101 264 115Q284 129 296 155L387 108Q372 81 354 58.5Q336 36 313.5 20Q291 4 262 -5Q233 -14 195 -14ZM298 331Q298 393 251 393Q220 393 197.5 371Q175 349 165 298H296Q298 307 298 315ZM225 572 144 697 145 704H290L329 577V572Z" glyph-name="egrave" horiz-adv-x="435" unicode="&#232;" /><glyph d="M37 0ZM467 230Q467 178 451.5 133.5Q436 89 405 56Q374 23 328.5 4.5Q283 -14 222 -14Q130 -14 83.5 32.5Q37 79 37 157Q37 235 70.5 289.5Q104 344 162 369Q137 389 123 420.5Q109 452 109 494Q109 538 123 578Q137 618 165 648Q193 678 235 696Q277 714 333 714Q414 714 457 673Q500 632 500 557Q500 494 473 444.5Q446 395 398 366Q431 347 449 312Q467 277 467 230ZM376 528Q376 560 361.5 581.5Q347 603 314 603Q295 603 279.5 594.5Q264 586 252.5 571Q241 556 235 536.5Q229 517 229 496Q229 466 244 444Q259 422 289 422Q307 422 322.5 430Q338 438 350 452.5Q362 467 369 486Q376 505 376 528ZM336 218Q336 253 319 277Q302 301 267 301Q246 301 228 291.5Q210 282 197.5 265.5Q185 249 178 227.5Q171 206 171 181Q171 143 188 120.5Q205 98 239 98Q259 98 276.5 107.5Q294 117 307 133Q320 149 328 171Q336 193 336 218Z" glyph-name="eight" horiz-adv-x="535" unicode="8" /><glyph d="M457 230Q457 178 441.5 133.5Q426 89 395 56Q364 23 318.5 4.5Q273 -14 212 -14Q120 -14 73.5 32.5Q27 79 27 157Q27 235 60.5 289.5Q94 344 152 369Q127 389 113 420.5Q99 452 99 494Q99 538 113 578Q127 618 155 648Q183 678 225 696Q267 714 323 714Q404 714 447 673Q490 632 490 557Q490 494 463 444.5Q436 395 388 366Q421 347 439 312Q457 277 457 230ZM366 528Q366 560 351.5 581.5Q337 603 304 603Q285 603 269.5 594.5Q254 586 242.5 571Q231 556 225 536.5Q219 517 219 496Q219 466 234 444Q249 422 279 422Q297 422 312.5 430Q328 438 340 452.5Q352 467 359 486Q366 505 366 528ZM326 218Q326 253 309 277Q292 301 257 301Q236 301 218 291.5Q200 282 187.5 265.5Q175 249 168 227.5Q161 206 161 181Q161 143 178 120.5Q195 98 229 98Q249 98 266.5 107.5Q284 117 297 133Q310 149 318 171Q326 193 326 218Z" glyph-name="eight.LP" horiz-adv-x="506" /><glyph d="M449 230Q449 176 433 131.5Q417 87 386 54.5Q355 22 309 4Q263 -14 203 -14Q112 -14 64.5 30.5Q17 75 18 156Q18 233 51 288Q84 343 143 369Q119 389 104 419.5Q89 450 89 489Q89 535 103.5 576Q118 617 146.5 648Q175 679 217 696.5Q259 714 314 714Q396 714 438.5 672.5Q481 631 481 553Q481 486 453 440Q425 394 380 366Q413 347 431 314Q449 281 449 230ZM212 494Q212 465 226 443.5Q240 422 269 422Q288 422 304 431Q320 440 332 455.5Q344 471 350.5 491Q357 511 357 533Q357 561 343 582Q329 603 298 603Q278 603 262.5 594Q247 585 235.5 570Q224 555 218 535.5Q212 516 212 494ZM153 177Q153 145 170.5 121.5Q188 98 220 98Q242 98 260.5 107.5Q279 117 291.5 133.5Q304 150 311 172.5Q318 195 318 220Q318 255 301 278Q284 301 249 301Q228 301 210.5 291.5Q193 282 180 265.5Q167 249 160 226.5Q153 204 153 177Z" glyph-name="eight.OP" horiz-adv-x="486" /><glyph d="M470 230Q470 176 454 131.5Q438 87 407 54.5Q376 22 330 4Q284 -14 224 -14Q133 -14 85.5 30.5Q38 75 39 156Q39 233 72 288Q105 343 164 369Q140 389 125 419.5Q110 450 110 489Q110 535 124.5 576Q139 617 167.5 648Q196 679 238 696.5Q280 714 335 714Q417 714 459.5 672.5Q502 631 502 553Q502 486 474 440Q446 394 401 366Q434 347 452 314Q470 281 470 230ZM233 494Q233 465 247 443.5Q261 422 290 422Q309 422 325 431Q341 440 353 455.5Q365 471 371.5 491Q378 511 378 533Q378 561 364 582Q350 603 319 603Q299 603 283.5 594Q268 585 256.5 570Q245 555 239 535.5Q233 516 233 494ZM174 177Q174 145 191.5 121.5Q209 98 241 98Q263 98 281.5 107.5Q300 117 312.5 133.5Q325 150 332 172.5Q339 195 339 220Q339 255 322 278Q305 301 270 301Q249 301 231.5 291.5Q214 282 201 265.5Q188 249 181 226.5Q174 204 174 177Z" glyph-name="eight.OT" horiz-adv-x="535" /><glyph d="M0 0ZM236 -63Q236 -94 227 -120.5Q218 -147 199 -166.5Q180 -186 151.5 -197.5Q123 -209 84 -209Q25 -209 -4.5 -182Q-34 -155 -34 -107Q-34 -63 -14 -31Q6 1 41 17Q11 42 11 89Q11 116 19.5 140Q28 164 45.5 182Q63 200 89 210.5Q115 221 151 221Q202 221 229 196.5Q256 172 256 127Q256 90 240.5 61.5Q225 33 196 15Q216 4 226 -16.5Q236 -37 236 -63ZM170 106Q170 123 163 134Q156 145 139 145Q118 145 106 127.5Q94 110 94 89Q94 74 101.5 63Q109 52 125 52Q144 52 157 67.5Q170 83 170 106ZM144 -73Q144 -56 135.5 -43.5Q127 -31 110 -31Q88 -31 74 -49Q60 -67 60 -93Q60 -111 68.5 -123.5Q77 -136 95 -136Q117 -136 130.5 -117Q144 -98 144 -73Z" glyph-name="eight.inf" horiz-adv-x="316" /><glyph d="M551 87Q551 46 529.5 19.5Q508 -7 464 -7Q433 -7 417 10Q401 27 401 56Q401 94 421 122.5Q441 151 486 151Q551 151 551 87ZM351 87Q351 46 329.5 19.5Q308 -7 264 -7Q232 -7 216.5 10Q201 27 201 56Q201 94 221 122.5Q241 151 286 151Q351 151 351 87ZM151 87Q151 46 129.5 19.5Q108 -7 64 -7Q32 -7 16 10Q0 27 0 56Q0 94 20 122.5Q40 151 85 151Q151 151 151 87Z" glyph-name="ellipsis" horiz-adv-x="604" unicode="&#8230;" /><glyph d="M25 0ZM195 -14Q116 -14 70.5 32.5Q25 79 25 177Q25 192 26.5 210Q28 228 31 246Q49 371 110.5 440.5Q172 510 268 510Q307 510 335 496.5Q363 483 381.5 459Q400 435 408.5 401.5Q417 368 417 329Q417 299 412 266.5Q407 234 400 202H151Q150 197 149.5 191Q149 185 149 180Q150 138 167.5 119.5Q185 101 218 101Q244 101 264 115Q284 129 296 155L387 108Q372 81 354 58.5Q336 36 313.5 20Q291 4 262 -5Q233 -14 195 -14ZM298 331Q298 393 251 393Q220 393 197.5 371Q175 349 165 298H296Q298 307 298 315ZM399 675 387 590H162L175 675Z" glyph-name="emacron" horiz-adv-x="435" unicode="&#275;" /><glyph d="M565 325 547 208H32L50 325Z" glyph-name="emdash" horiz-adv-x="593" unicode="&#8212;" /><glyph d="M46 293ZM579 410 561 293H46L64 410Z" glyph-name="emdash.cap" horiz-adv-x="593" /><glyph glyph-name="emspace" horiz-adv-x="759" unicode="&#8195;" /><glyph d="M417 325 398 208H32L50 325Z" glyph-name="endash" horiz-adv-x="444" unicode="&#8211;" /><glyph d="M45 293ZM430 410 411 293H45L63 410Z" glyph-name="endash.cap" horiz-adv-x="444" /><glyph d="M401 -40Q386 -133 336.5 -176.5Q287 -220 221 -220Q198 -220 173.5 -215.5Q149 -211 129 -198L172 -91Q191 -102 208 -102Q233 -102 246.5 -84.5Q260 -67 268 -22L316 286Q318 297 319 307.5Q320 318 320 326Q320 381 276 381Q245 381 219 347Q193 313 183 247L145 0H9L87 496H199L196 408Q225 459 263.5 484.5Q302 510 346 510Q406 510 434 473.5Q462 437 462 375Q462 361 460.5 347Q459 333 457 317Z" glyph-name="eng" horiz-adv-x="493" unicode="&#331;" /><glyph glyph-name="enspace" horiz-adv-x="380" unicode="&#8194;" /><glyph d="M218 -227Q176 -227 146 -203Q116 -179 116 -122Q116 -89 125.5 -60.5Q135 -32 152 -10Q92 1 58.5 47Q25 93 25 177Q25 192 26.5 210Q28 228 31 246Q49 371 110.5 440.5Q172 510 268 510Q307 510 335 496.5Q363 483 381.5 459Q400 435 408.5 401.5Q417 368 417 329Q417 299 412 266.5Q407 234 400 202H151Q150 199 149.5 192Q149 185 149 180Q150 138 167.5 119.5Q185 101 218 101Q244 101 264 115Q284 129 296 155L387 108Q361 63 328 31.5Q295 0 241 -10Q218 -22 206.5 -45.5Q195 -69 195 -94Q195 -120 207.5 -131Q220 -142 238 -142Q265 -142 284 -125L310 -196Q287 -212 265.5 -219.5Q244 -227 218 -227ZM298 331Q298 393 251 393Q220 393 197.5 371Q175 349 165 298H296Q298 307 298 315Z" glyph-name="eogonek" horiz-adv-x="439" unicode="&#281;" /><glyph d="M369 429 355 338H49L63 429ZM347 281 332 190H26L40 281Z" glyph-name="equal" horiz-adv-x="389" unicode="=" /><glyph d="M0 0ZM189 64 178 -7H-21L-10 64ZM174 -34 163 -104H-36L-25 -34Z" glyph-name="equal.inf" horiz-adv-x="244" /><glyph d="M29 241Q47 372 105 433.5Q163 495 249 495Q301 495 330 455Q328 487 321.5 515Q315 543 303 566L241 523L217 570L269 607Q238 640 192 656L242 750Q282 742 314 724Q346 706 369 680L439 731L464 684L399 637Q425 592 436.5 536.5Q448 481 448 416Q448 387 445 352Q442 317 435 265Q415 120 355 53Q295 -14 197 -14Q111 -14 67 32Q23 78 23 171Q23 202 29 241ZM207 97Q243 97 267.5 130Q292 163 304 239Q307 259 309 276.5Q311 294 311 308Q311 350 296.5 368Q282 386 253 386Q214 386 191 352Q168 318 157 239Q151 203 151 177Q151 134 165.5 115.5Q180 97 207 97Z" glyph-name="eth" horiz-adv-x="466" unicode="&#240;" /><glyph d="M244 700 146 215H50L106 700ZM151 87Q151 46 129.5 19.5Q108 -7 64 -7Q32 -7 16 10Q0 27 0 56Q0 94 20 122.5Q40 151 85 151Q151 151 151 87Z" glyph-name="exclam" horiz-adv-x="204" unicode="!" /><glyph d="M-44 -193 54 292H150L94 -193ZM49 420Q49 461 70.5 487.5Q92 514 136 514Q168 514 184 497Q200 480 200 451Q200 413 180 384.5Q160 356 115 356Q49 356 49 420Z" glyph-name="exclamdown" horiz-adv-x="202" unicode="&#161;" /><glyph d="M-23 0 75 485H171L115 0ZM70 613Q70 654 91.5 680.5Q113 707 157 707Q189 707 205 690Q221 673 221 644Q221 606 201 577.5Q181 549 136 549Q70 549 70 613Z" glyph-name="exclamdown.cap" horiz-adv-x="201" /><glyph d="M318 385H224L164 0H29L91 385H32L49 496H107L116 541Q123 590 140.5 625.5Q158 661 183 684Q208 707 239 718.5Q270 730 304 730Q333 730 356.5 723.5Q380 717 396 704L348 601Q334 611 310 611Q288 611 271 596Q254 581 248 541L241 496H336Z" glyph-name="f" horiz-adv-x="309" unicode="f" /><glyph d="M402 628Q402 670 424 696Q446 722 491 722Q523 722 540.5 705.5Q558 689 558 659Q558 615 534.5 589.5Q511 564 469 564Q437 564 419.5 581Q402 598 402 628ZM317 385H223L163 0H28L89 385H31L49 496H107L116 546Q131 640 181 685Q231 730 300 730Q357 730 389 701L340 599Q326 611 305 611Q285 611 269.5 595.5Q254 580 248 540L241 496H335ZM390 496H526L448 0H312Z" glyph-name="fi" horiz-adv-x="534" unicode="&#64257;" /><glyph d="M417 325 398 208H32L50 325Z" glyph-name="figuredash" horiz-adv-x="444" unicode="&#8210;" /><glyph d="M46 293ZM431 410 412 293H46L64 410Z" glyph-name="figuredash.cap" horiz-adv-x="444" /><glyph glyph-name="figurespace" horiz-adv-x="475" unicode="&#8199;" /><glyph d="M20 0ZM255 579 221 423Q239 437 266 444Q293 451 324 451Q357 451 384 441Q411 431 431 410Q451 389 462 356.5Q473 324 473 278Q473 215 454.5 161Q436 107 401.5 68Q367 29 318 7Q269 -15 208 -15Q130 -15 81 24Q32 63 20 141L132 193Q140 144 163 123Q186 102 220 102Q247 102 268.5 114Q290 126 305 147Q320 168 327.5 196.5Q335 225 335 258Q335 301 315 321Q295 341 264 341Q209 341 169 295L80 339L161 700H520L501 579Z" glyph-name="five" horiz-adv-x="535" unicode="5" /><glyph d="M229 579 195 423Q213 437 240 444Q267 451 298 451Q331 451 358 441Q385 431 405 410Q425 389 436 356.5Q447 324 447 278Q447 215 428.5 161Q410 107 375.5 68Q341 29 292 7Q243 -15 182 -15Q104 -15 55 24Q6 63 -6 141L106 193Q114 144 137 123Q160 102 194 102Q221 102 242.5 114Q264 126 279 147Q294 168 301.5 196.5Q309 225 309 258Q309 301 289 321Q269 341 238 341Q183 341 143 295L54 339L135 700H494L475 579Z" glyph-name="five.LP" horiz-adv-x="488" /><glyph d="M199 480 167 323Q187 337 211 344Q235 351 261 351Q295 351 322.5 341.5Q350 332 369.5 311.5Q389 291 400 258.5Q411 226 411 180Q411 112 393 57Q375 2 341 -36Q307 -74 258.5 -94.5Q210 -115 150 -115Q74 -115 27.5 -77Q-19 -39 -35 41L76 93Q84 43 106 22Q128 1 163 1Q189 1 209.5 13Q230 25 244.5 46.5Q259 68 266.5 97Q274 126 274 159Q274 202 256.5 221.5Q239 241 206 241Q181 241 158 229Q135 217 115 195L27 239L108 600H462L443 480Z" glyph-name="five.OP" horiz-adv-x="469" /><glyph d="M240 480 208 323Q228 337 252 344Q276 351 302 351Q336 351 363.5 341.5Q391 332 410.5 311.5Q430 291 441 258.5Q452 226 452 180Q452 112 434 57Q416 2 382 -36Q348 -74 299.5 -94.5Q251 -115 191 -115Q115 -115 68.5 -77Q22 -39 6 41L117 93Q125 43 147 22Q169 1 204 1Q230 1 250.5 13Q271 25 285.5 46.5Q300 68 307.5 97Q315 126 315 159Q315 202 297.5 221.5Q280 241 247 241Q222 241 199 229Q176 217 156 195L68 239L149 600H503L484 480Z" glyph-name="five.OT" horiz-adv-x="535" /><glyph d="M0 0ZM98 130 82 53Q92 59 106.5 63Q121 67 138 67Q179 67 204.5 43Q230 19 230 -35Q230 -75 217.5 -107.5Q205 -140 183 -162.5Q161 -185 130.5 -197Q100 -209 64 -209Q17 -209 -13 -188.5Q-43 -168 -55 -121L23 -81Q28 -108 40.5 -118.5Q53 -129 72 -129Q101 -129 117 -106Q133 -83 133 -50Q133 -27 122.5 -16.5Q112 -6 96 -6Q68 -6 47 -32L-16 -1L33 212H261L247 130Z" glyph-name="five.inf" horiz-adv-x="295" /><glyph d="M317 385H223L163 0H28L89 385H31L49 496H107L116 546Q130 640 180 685Q230 730 299 730Q323 730 348 723.5Q373 717 390 703L342 601Q328 612 306 612Q286 612 269.5 596Q253 580 248 540L241 496H335ZM435 0Q378 0 349 30Q320 60 332 134L421 700H555L468 145Q465 125 469 115Q473 105 490 105H518L502 0Z" glyph-name="fl" horiz-adv-x="551" unicode="&#64258;" /><glyph d="M317 385H223L163 0H28L89 385H31L49 496H107L116 546Q130 640 180 685Q230 730 299 730Q323 730 348 723.5Q373 717 390 703L342 601Q328 612 306 612Q286 612 269.5 596Q253 580 248 540L241 496H335ZM556 700 445 0H310L421 700Z" glyph-name="fl.alt" horiz-adv-x="529" /><glyph d="M15 -23 80 270H21L48 378H104L116 432Q138 532 184.5 578Q231 624 301 624Q332 624 356.5 617Q381 610 397 599L352 501Q338 513 315 513Q292 513 273.5 494.5Q255 476 245 428L235 378H330L303 270H211L145 -31Q123 -132 73.5 -176Q24 -220 -41 -220Q-61 -220 -84.5 -215.5Q-108 -211 -123 -199L-82 -98Q-67 -109 -46 -109Q-23 -109 -9.5 -90Q4 -71 15 -23Z" glyph-name="florin" horiz-adv-x="339" unicode="&#402;" /><glyph d="M9 0ZM9 155 26 259 248 700H382L168 281H313L350 516H481L444 281H508L488 155H424L400 0H269L293 155Z" glyph-name="four" horiz-adv-x="535" unicode="4" /><glyph d="M8 155 25 259 247 700H381L167 281H312L349 516H480L443 281H507L487 155H423L399 0H268L292 155Z" glyph-name="four.LP" horiz-adv-x="526" /><glyph d="M-8 55 8 157 224 600H355L145 180H282L318 414H446L408 180H468L449 55H390L365 -100H238L263 55Z" glyph-name="four.OP" horiz-adv-x="500" /><glyph d="M0 55 16 157 232 600H363L153 180H290L326 414H454L416 180H476L457 55H398L373 -100H246L271 55Z" glyph-name="four.OT" horiz-adv-x="535" /><glyph d="M0 0ZM-42 -115 -30 -43 100 212H195L70 -29H144L163 90H255L235 -29H272L257 -115H221L208 -200H116L130 -115Z" glyph-name="four.inf" horiz-adv-x="332" /><glyph glyph-name="fourperemspace" horiz-adv-x="191" unicode="&#8197;" /><glyph d="M477 700 95 0H-21L361 700Z" glyph-name="fraction" horiz-adv-x="432" unicode="&#8260;" /><glyph d="M206 112Q239 112 264 146Q289 180 301 257Q304 274 305 288Q306 302 306 315Q306 397 254 397Q220 397 197.5 364Q175 331 162 256Q159 237 157 221Q155 205 155 191Q155 152 168.5 132Q182 112 206 112ZM80 -38Q89 -108 155 -108Q203 -108 228 -76.5Q253 -45 261 20L271 78Q248 43 217.5 24Q187 5 152 5Q94 5 59 48Q24 91 24 180Q24 213 30 254Q49 382 105.5 446Q162 510 241 510Q315 510 345 427L364 496H472L397 19Q377 -101 311.5 -160.5Q246 -220 145 -220Q67 -220 24.5 -188.5Q-18 -157 -33 -95Z" glyph-name="g" horiz-adv-x="482" unicode="g" /><glyph d="M0 0ZM206 112Q239 112 264 146Q289 180 301 257Q304 274 305 288Q306 302 306 315Q306 397 254 397Q220 397 197.5 364Q175 331 162 256Q159 237 157 221Q155 205 155 191Q155 152 168.5 132Q182 112 206 112ZM80 -38Q89 -108 155 -108Q203 -108 228 -76.5Q253 -45 261 20L271 78Q248 43 217.5 24Q187 5 152 5Q94 5 59 48Q24 91 24 180Q24 213 30 254Q49 382 105.5 446Q162 510 241 510Q315 510 345 427L364 496H472L397 19Q377 -101 311.5 -160.5Q246 -220 145 -220Q67 -220 24.5 -188.5Q-18 -157 -33 -95ZM355 702H435Q429 663 416 636.5Q403 610 383.5 594Q364 578 338 571Q312 564 280 564Q248 564 224 571Q200 578 185 594Q170 610 164.5 636.5Q159 663 165 702H246Q240 666 250.5 653Q261 640 289 640Q318 640 334 653Q350 666 355 702Z" glyph-name="gbreve" horiz-adv-x="482" unicode="&#287;" /><glyph d="M0 0ZM245 703H355L427 575V571H323L288 630L236 571H131L132 575ZM206 112Q239 112 264 146Q289 180 301 257Q304 274 305 288Q306 302 306 315Q306 397 254 397Q220 397 197.5 364Q175 331 162 256Q159 237 157 221Q155 205 155 191Q155 152 168.5 132Q182 112 206 112ZM80 -38Q89 -108 155 -108Q203 -108 228 -76.5Q253 -45 261 20L271 78Q248 43 217.5 24Q187 5 152 5Q94 5 59 48Q24 91 24 180Q24 213 30 254Q49 382 105.5 446Q162 510 241 510Q315 510 345 427L364 496H472L397 19Q377 -101 311.5 -160.5Q246 -220 145 -220Q67 -220 24.5 -188.5Q-18 -157 -33 -95Z" glyph-name="gcircumflex" horiz-adv-x="482" unicode="&#285;" /><glyph d="M350 830 371 778Q345 767 323.5 747Q302 727 294 701Q320 702 336 687.5Q352 673 351 644Q350 607 329 584.5Q308 562 271 562Q210 562 210 631Q211 665 222 697.5Q233 730 251.5 757Q270 784 295.5 803Q321 822 350 830ZM206 112Q239 112 264 146Q289 180 301 257Q304 274 305 288Q306 302 306 315Q306 397 254 397Q220 397 197.5 364Q175 331 162 256Q159 237 157 221Q155 205 155 191Q155 152 168.5 132Q182 112 206 112ZM80 -38Q89 -108 155 -108Q203 -108 228 -76.5Q253 -45 261 20L271 78Q248 43 217.5 24Q187 5 152 5Q94 5 59 48Q24 91 24 180Q24 213 30 254Q49 382 105.5 446Q162 510 241 510Q315 510 345 427L364 496H472L397 19Q377 -101 311.5 -160.5Q246 -220 145 -220Q67 -220 24.5 -188.5Q-18 -157 -33 -95Z" glyph-name="gcommaaccent" horiz-adv-x="480" unicode="&#291;" /><glyph d="M0 0ZM206 112Q239 112 264 146Q289 180 301 257Q304 274 305 288Q306 302 306 315Q306 397 254 397Q220 397 197.5 364Q175 331 162 256Q159 237 157 221Q155 205 155 191Q155 152 168.5 132Q182 112 206 112ZM80 -38Q89 -108 155 -108Q203 -108 228 -76.5Q253 -45 261 20L271 78Q248 43 217.5 24Q187 5 152 5Q94 5 59 48Q24 91 24 180Q24 213 30 254Q49 382 105.5 446Q162 510 241 510Q315 510 345 427L364 496H472L397 19Q377 -101 311.5 -160.5Q246 -220 145 -220Q67 -220 24.5 -188.5Q-18 -157 -33 -95ZM218 632Q218 670 238.5 693Q259 716 300 716Q331 716 347 700.5Q363 685 363 656Q363 617 342 594Q321 571 282 571Q218 571 218 632Z" glyph-name="gdotaccent" horiz-adv-x="482" unicode="&#289;" /><glyph d="M180 12 216 118Q236 104 261 104Q299 104 321 137.5Q343 171 343 224Q343 258 327 280Q311 302 276 302H245L263 427H287Q325 427 347.5 458Q370 489 370 531Q369 563 352.5 583Q336 603 306 603Q273 603 251 579.5Q229 556 221 507L141 0H7L85 494Q102 604 160.5 663.5Q219 723 325 723Q371 723 405 710.5Q439 698 461 675.5Q483 653 494 622.5Q505 592 505 555Q505 493 477 448Q449 403 401 377Q438 362 458 326.5Q478 291 478 235Q478 182 463.5 137.5Q449 93 422 60.5Q395 28 356.5 9.5Q318 -9 271 -9Q245 -9 221.5 -4Q198 1 180 12Z" glyph-name="germandbls" horiz-adv-x="513" unicode="&#223;" /><glyph d="M209 571 128 696 129 703H274L313 576V571Z" glyph-name="grave" horiz-adv-x="459" unicode="`" /><glyph d="M83 80 40 156 227 310 91 462 155 538 334 338 326 281Z" glyph-name="greater" horiz-adv-x="385" unicode="&gt;" /><glyph d="M114 146 79 221 262 341 118 458 176 537 383 369 374 315ZM343 91 329 0H37L52 91Z" glyph-name="greaterequal" horiz-adv-x="447" unicode="&#8805;" /><glyph d="M142 0 29 246 30 249 215 496H348L160 247L273 0ZM341 0 227 247 228 250 414 496H549L358 248L473 0Z" glyph-name="guillemotleft" horiz-adv-x="535" unicode="&#171;" /><glyph d="M390 496 503 250 502 247 317 0H184L372 249L259 496ZM191 496 305 249 304 246 118 0H-17L174 248L59 496Z" glyph-name="guillemotright" horiz-adv-x="534" unicode="&#187;" /><glyph d="M138 0 30 246 31 249 216 496H351L161 246L270 0Z" glyph-name="guilsinglleft" horiz-adv-x="335" unicode="&#8249;" /><glyph d="M196 496 304 250 303 247 118 0H-17L173 250L64 496Z" glyph-name="guilsinglright" horiz-adv-x="335" unicode="&#8250;" /><glyph d="M255 700 209 406Q236 459 273 484.5Q310 510 351 510Q405 510 433.5 475Q462 440 462 376Q462 362 460.5 347.5Q459 333 457 318L407 0H271L316 288Q318 299 319 309.5Q320 320 320 328Q320 381 276 381Q244 381 219 346.5Q194 312 183 246L144 0H9L120 700Z" glyph-name="h" horiz-adv-x="491" unicode="h" /><glyph glyph-name="hairspace" horiz-adv-x="76" unicode="&#8202;" /><glyph d="M60 547 73 628H118L129 700H266L254 628H344L332 547H241L218 403Q247 455 282.5 480Q318 505 360 505Q416 505 442.5 467.5Q469 430 469 367Q469 353 467.5 337.5Q466 322 464 305L416 0H280L323 274Q325 287 326 298.5Q327 310 327 319Q327 375 285 375Q253 375 228.5 341Q204 307 193 240L155 0H18L105 547Z" glyph-name="hbar" horiz-adv-x="499" unicode="&#295;" /><glyph d="M9 0ZM255 700 209 406Q236 459 273 484.5Q310 510 351 510Q405 510 433.5 475Q462 440 462 376Q462 362 460.5 347.5Q459 333 457 318L407 0H271L316 288Q318 299 319 309.5Q320 320 320 328Q320 381 276 381Q244 381 219 346.5Q194 312 183 246L144 0H9L120 700ZM166 906H276L348 778V774H244L209 833L157 774H52L53 778Z" glyph-name="hcircumflex" horiz-adv-x="491" unicode="&#293;" /><glyph d="M360 703H493L492 697L371 571H280V576ZM184 703H317L316 697L194 571H103V576Z" glyph-name="hungarumlaut" horiz-adv-x="459" unicode="&#733;" /><glyph d="M344 325 326 208H32L51 325Z" glyph-name="hyphen" horiz-adv-x="372" unicode="-" /><glyph d="M45 293ZM357 410 339 293H45L64 410Z" glyph-name="hyphen.cap" horiz-adv-x="372" /><glyph d="M101 633Q101 675 122.5 701Q144 727 188 727Q221 727 239 710.5Q257 694 257 663Q257 620 233 594Q209 568 167 568Q135 568 118 585.5Q101 603 101 633ZM88 496H224L146 0H9Z" glyph-name="i" horiz-adv-x="233" unicode="i" /><glyph d="M9 0ZM88 496H224L146 0H9ZM190 703H329L328 696L210 571H105V576Z" glyph-name="iacute" horiz-adv-x="233" unicode="&#237;" /><glyph d="M9 0ZM88 496H224L146 0H9ZM239 702H319Q313 663 300 636.5Q287 610 267.5 594Q248 578 222 571Q196 564 164 564Q132 564 108 571Q84 578 69 594Q54 610 48.5 636.5Q43 663 49 702H130Q124 666 134.5 653Q145 640 173 640Q202 640 218 653Q234 666 239 702Z" glyph-name="ibreve" horiz-adv-x="233" unicode="&#301;" /><glyph d="M9 0ZM88 496H224L146 0H9ZM129 703H239L311 575V571H207L172 630L120 571H15L16 575Z" glyph-name="icircumflex" horiz-adv-x="233" unicode="&#238;" /><glyph d="M9 0ZM88 496H224L146 0H9ZM18 630Q18 668 38 692Q58 716 96 716Q157 716 157 658Q157 620 137 596Q117 572 77 572Q18 572 18 630ZM199 630Q199 668 218.5 692Q238 716 277 716Q337 716 337 658Q337 620 317.5 596Q298 572 258 572Q199 572 199 630Z" glyph-name="idieresis" horiz-adv-x="233" unicode="&#239;" /><glyph d="M101 633Q101 675 122.5 701Q144 727 188 727Q221 727 239 710.5Q257 694 257 663Q257 620 233.5 594Q210 568 168 568Q135 568 118 585.5Q101 603 101 633ZM88 496H224L146 0H9Z" glyph-name="idotaccent" horiz-adv-x="233" /><glyph d="M9 0ZM88 496H224L146 0H9ZM120 572 39 697 40 704H185L224 577V572Z" glyph-name="igrave" horiz-adv-x="233" unicode="&#236;" /><glyph d="M9 0ZM101 633Q101 675 122.5 701Q144 727 188 727Q221 727 239 710.5Q257 694 257 663Q257 620 233 594Q209 568 167 568Q135 568 118 585.5Q101 603 101 633ZM88 496H224L146 0H9ZM328 633Q328 675 349.5 701Q371 727 416 727Q448 727 466 710.5Q484 694 484 663Q484 620 460.5 594Q437 568 395 568Q363 568 345.5 585.5Q328 603 328 633ZM233 -27 316 496H451L368 -37Q352 -131 302.5 -175.5Q253 -220 187 -220Q154 -220 131 -213.5Q108 -207 88 -195L136 -90Q144 -95 152 -98.5Q160 -102 171 -102Q194 -102 210 -85.5Q226 -69 233 -27Z" glyph-name="ij" horiz-adv-x="462" unicode="&#307;" /><glyph d="M9 0ZM88 496H224L146 0H9ZM294 675 282 590H57L70 675Z" glyph-name="imacron" horiz-adv-x="233" unicode="&#299;" /><glyph d="M101 633Q101 675 122.5 701Q144 727 188 727Q221 727 239 710.5Q257 694 257 663Q257 620 233 594Q209 568 167 568Q135 568 118 585.5Q101 603 101 633ZM114 -196Q91 -212 69.5 -219.5Q48 -227 22 -227Q-21 -227 -50.5 -202.5Q-80 -178 -80 -122Q-80 -65 -53.5 -23.5Q-27 18 15 36L88 496H224L146 0H78Q39 -4 19 -32.5Q-1 -61 -1 -94Q-1 -120 11.5 -131Q24 -142 42 -142Q69 -142 88 -125Z" glyph-name="iogonek" horiz-adv-x="233" unicode="&#303;" /><glyph d="M9 0ZM88 496H224L146 0H9ZM249 699H325Q322 664 312 641Q302 618 288 604Q274 590 258 584Q242 578 227 578Q210 578 196.5 583.5Q183 589 171.5 595.5Q160 602 149.5 607.5Q139 613 128 613Q115 613 109.5 602.5Q104 592 102 579H23Q26 613 36 636.5Q46 660 59.5 673.5Q73 687 89 693Q105 699 120 699Q138 699 152 693.5Q166 688 178 681.5Q190 675 200.5 669.5Q211 664 222 664Q236 664 241.5 674.5Q247 685 249 699Z" glyph-name="itilde" horiz-adv-x="233" unicode="&#297;" /><glyph d="M100 633Q100 675 121.5 701Q143 727 188 727Q220 727 238 710.5Q256 694 256 663Q256 620 232.5 594Q209 568 167 568Q135 568 117.5 585.5Q100 603 100 633ZM5 -27 88 496H223L140 -37Q124 -131 74.5 -175.5Q25 -220 -41 -220Q-74 -220 -97 -213.5Q-120 -207 -140 -195L-92 -90Q-84 -95 -76 -98.5Q-68 -102 -57 -102Q-34 -102 -18 -85.5Q-2 -69 5 -27Z" glyph-name="j" horiz-adv-x="233" unicode="j" /><glyph d="M0 0ZM4 -27 87 496H222L139 -37Q124 -131 74 -175.5Q24 -220 -42 -220Q-76 -220 -98.5 -213.5Q-121 -207 -141 -195L-93 -90Q-78 -102 -58 -102Q-35 -102 -19.5 -85.5Q-4 -69 4 -27ZM130 703H240L312 575V571H208L173 630L121 571H16L17 575Z" glyph-name="jcircumflex" horiz-adv-x="232" unicode="&#309;" /><glyph d="M160 107 144 0H9L120 700H256L182 270L342 496H487L313 282L412 0H264L213 173Z" glyph-name="k" horiz-adv-x="456" unicode="k" /><glyph d="M261 1 177 212 143 0H7L118 700H255L186 269L340 496H479L308 253L411 1Z" glyph-name="k.alt" horiz-adv-x="452" /><glyph d="M9 0ZM116 -325 95 -273Q121 -262 142.5 -242Q164 -222 172 -196Q146 -197 130 -182.5Q114 -168 115 -139Q116 -102 137 -79.5Q158 -57 195 -57Q256 -57 256 -126Q255 -160 244 -192.5Q233 -225 214.5 -252Q196 -279 170.5 -298Q145 -317 116 -325ZM160 107 144 0H9L120 700H256L182 270L342 496H487L313 282L412 0H264L213 173Z" glyph-name="kcommaaccent" horiz-adv-x="456" unicode="&#311;" /><glyph d="M7 0ZM261 1 177 212 143 0H7L118 700H255L186 269L340 496H479L308 253L411 1ZM119 -324 98 -272Q124 -261 145.5 -241Q167 -221 175 -195Q149 -196 133 -181.5Q117 -167 118 -138Q119 -101 140 -78.5Q161 -56 198 -56Q259 -56 259 -125Q258 -159 247 -191.5Q236 -224 217.5 -251Q199 -278 173.5 -297Q148 -316 119 -324Z" glyph-name="kcommaaccent.alt" horiz-adv-x="452" /><glyph d="M162 108 145 0H11L88 496H224L185 270L344 496H489L316 282L414 0H266L214 174Z" glyph-name="kgreenlandic" horiz-adv-x="461" unicode="&#312;" /><glyph d="M129 0Q72 0 43 30Q14 60 26 134L115 700H249L162 145Q159 125 163 115Q167 105 184 105H212L196 0Z" glyph-name="l" horiz-adv-x="245" unicode="l" /><glyph d="M255 700 144 0H9L120 700Z" glyph-name="l.alt" horiz-adv-x="232" /><glyph d="M14 0ZM129 0Q72 0 43 30Q14 60 26 134L115 700H249L162 145Q159 125 163 115Q167 105 184 105H212L196 0ZM225 907H364L363 900L245 775H140V780Z" glyph-name="lacute" horiz-adv-x="232" unicode="&#314;" /><glyph d="M14 0ZM347 446H259L305 701H412ZM129 0Q72 0 43 30Q14 60 26 134L115 700H249L162 145Q159 125 163 115Q167 105 184 105H212L196 0Z" glyph-name="lcaron" horiz-adv-x="338" unicode="&#318;" /><glyph d="M0 0ZM129 0Q72 0 43 30Q14 60 26 134L115 700H249L162 145Q159 125 163 115Q167 105 184 105H212L196 0ZM-9 -324 -30 -272Q-4 -261 17.5 -241Q39 -221 47 -195Q21 -196 5 -181.5Q-11 -167 -10 -138Q-9 -101 12 -78.5Q33 -56 70 -56Q131 -56 131 -125Q130 -159 119 -191.5Q108 -224 89.5 -251Q71 -278 45.5 -297Q20 -316 -9 -324Z" glyph-name="lcommaaccent" horiz-adv-x="245" unicode="&#316;" /><glyph d="M15 0ZM130 0Q73 0 44 30Q15 60 27 134L116 700H250L163 145Q160 125 164 115Q168 105 185 105H213L197 0ZM229 292Q229 330 249.5 353Q270 376 311 376Q342 376 358 360.5Q374 345 374 316Q374 277 353 254Q332 231 293 231Q229 231 229 292Z" glyph-name="ldot" horiz-adv-x="361" unicode="&#320;" /><glyph d="M311 538 353 463 166 308 302 157 238 80 58 280 68 338Z" glyph-name="less" horiz-adv-x="385" unicode="&lt;" /><glyph d="M363 537 397 461 214 342 359 223 301 146 94 314 102 369ZM37 0 52 91H343L329 0Z" glyph-name="lessequal" horiz-adv-x="449" unicode="&#8804;" /><glyph d="M95 639Q95 669 115.5 690Q136 711 167 711Q198 711 218.5 690Q239 669 239 639Q239 609 218.5 588Q198 567 167 567Q136 567 115.5 588Q95 609 95 639ZM198 639Q198 653 189 662Q180 671 167 671Q154 671 145 662Q136 653 136 639Q136 626 145 616.5Q154 607 167 607Q180 607 189 616Q198 625 198 639Z" glyph-name="logicalnot" horiz-adv-x="224" unicode="&#172;" /><glyph d="M217 0H150Q93 0 64 30Q35 60 47 134L61 223L-6 165L14 287L80 346L136 700H270L231 451L302 513L282 391L212 328L183 145Q180 125 184 115Q188 105 205 105H233Z" glyph-name="lslash" horiz-adv-x="266" unicode="&#322;" /><glyph d="M548 289Q550 300 551.5 311Q553 322 553 330Q553 380 514 380Q487 380 465 350Q443 320 432 262L391 0H255L302 288Q306 311 306 330Q306 380 268 380Q240 380 217.5 348.5Q195 317 184 254L144 0H9L87 496H198L196 410Q225 461 261 485.5Q297 510 339 510Q383 510 405.5 481Q428 452 436 404Q465 459 501.5 484.5Q538 510 580 510Q639 510 665.5 473.5Q692 437 692 375Q692 360 690.5 343Q689 326 687 310L637 0H503Z" glyph-name="m" horiz-adv-x="721" unicode="m" /><glyph d="M364 675 352 590H127L140 675Z" glyph-name="macron" horiz-adv-x="459" unicode="&#175;" /><glyph d="M358 355 344 266H38L52 355Z" glyph-name="minus" horiz-adv-x="390" unicode="&#8722;" /><glyph d="M0 0ZM181 16 170 -54H-29L-17 16Z" glyph-name="minus.inf" horiz-adv-x="244" /><glyph d="M182 713Q217 713 241 689.5Q265 666 265 631Q265 596 241 572.5Q217 549 182 549Q147 549 123 572.5Q99 596 99 631Q99 666 123 689.5Q147 713 182 713ZM182 670Q165 670 154.5 659Q144 648 144 631Q144 614 154.5 603Q165 592 182 592Q199 592 209.5 603Q220 614 220 631Q220 648 209.5 659Q199 670 182 670Z" glyph-name="mu" horiz-adv-x="254" unicode="&#956;" /><glyph d="M83 135 29 195 145 313 65 433 139 491 209 382 311 489 365 429 251 313 327 199 254 139 188 245Z" glyph-name="multiply" horiz-adv-x="389" unicode="&#215;" /><glyph d="M9 0 88 496H199L196 407Q225 459 263.5 484.5Q302 510 347 510Q407 510 435 473Q463 436 463 373Q463 359 461 344.5Q459 330 457 315L407 0H271L317 288Q320 310 320 326Q320 381 276 381Q245 381 219.5 347.5Q194 314 184 249L144 0Z" glyph-name="n" horiz-adv-x="491" unicode="n" /><glyph d="M9 0ZM320 703H459L458 696L340 571H235V576ZM9 0 88 496H199L196 407Q225 459 263.5 484.5Q302 510 347 510Q407 510 435 473Q463 436 463 373Q463 359 461 344.5Q459 330 457 315L407 0H271L317 288Q320 310 320 326Q320 381 276 381Q245 381 219.5 347.5Q194 314 184 249L144 0Z" glyph-name="nacute" horiz-adv-x="491" unicode="&#324;" /><glyph d="M9 0ZM242 571 171 700V703H276L307 644L363 703H467L466 700L353 571ZM9 0 88 496H199L196 407Q225 459 263.5 484.5Q302 510 347 510Q407 510 435 473Q463 436 463 373Q463 359 461 344.5Q459 330 457 315L407 0H271L317 288Q320 310 320 326Q320 381 276 381Q245 381 219.5 347.5Q194 314 184 249L144 0Z" glyph-name="ncaron" horiz-adv-x="491" unicode="&#328;" /><glyph d="M9 0ZM120 -324 99 -272Q125 -261 146.5 -241Q168 -221 176 -195Q150 -196 134 -181.5Q118 -167 119 -138Q120 -101 141 -78.5Q162 -56 199 -56Q260 -56 260 -125Q259 -159 248 -191.5Q237 -224 218.5 -251Q200 -278 174.5 -297Q149 -316 120 -324ZM9 0 88 496H199L196 407Q225 459 263.5 484.5Q302 510 347 510Q407 510 435 473Q463 436 463 373Q463 359 461 344.5Q459 330 457 315L407 0H271L317 288Q320 310 320 326Q320 381 276 381Q245 381 219.5 347.5Q194 314 184 249L144 0Z" glyph-name="ncommaaccent" horiz-adv-x="491" unicode="&#326;" /><glyph d="M19 0ZM270 363Q292 363 310.5 374.5Q329 386 342.5 406Q356 426 363.5 452Q371 478 371 508Q371 550 354.5 574.5Q338 599 308 599Q285 599 267 587.5Q249 576 237 556Q225 536 218.5 508.5Q212 481 212 449Q212 363 270 363ZM200 -15Q122 -15 79 19Q36 53 19 119L134 173Q143 138 161 119Q179 100 209 100Q244 100 269.5 117Q295 134 313 166Q331 198 343.5 243.5Q356 289 365 347L367 363Q342 313 303 283.5Q264 254 209 254Q148 254 111 297.5Q74 341 74 426Q74 484 88.5 536Q103 588 133 627.5Q163 667 209 690.5Q255 714 319 714Q411 714 460.5 656Q510 598 510 472Q510 441 507 407Q504 373 497 337Q468 162 394 73.5Q320 -15 200 -15Z" glyph-name="nine" horiz-adv-x="535" unicode="9" /><glyph d="M258 363Q280 363 298.5 374.5Q317 386 330.5 406Q344 426 351.5 452Q359 478 359 508Q359 550 342.5 574.5Q326 599 296 599Q273 599 255 587.5Q237 576 225 556Q213 536 206.5 508.5Q200 481 200 449Q200 363 258 363ZM188 -15Q110 -15 67 19Q24 53 7 119L122 173Q131 138 149 119Q167 100 197 100Q232 100 257.5 117Q283 134 301 166Q319 198 331.5 243.5Q344 289 353 347L355 363Q330 313 291 283.5Q252 254 197 254Q136 254 99 297.5Q62 341 62 426Q62 484 76.5 536Q91 588 121 627.5Q151 667 197 690.5Q243 714 307 714Q399 714 448.5 656Q498 598 498 472Q498 441 495 407Q492 373 485 337Q456 162 382 73.5Q308 -15 188 -15Z" glyph-name="nine.LP" horiz-adv-x="507" /><glyph d="M268 499Q224 499 198.5 458.5Q173 418 173 352Q173 311 187.5 289Q202 267 232 267Q253 267 271 277Q289 287 302.5 306Q316 325 324 350.5Q332 376 332 408Q332 449 315.5 474Q299 499 268 499ZM161 -115Q83 -115 41 -80.5Q-1 -46 -15 20L96 73Q106 35 125 17.5Q144 0 173 0Q207 0 231 17Q255 34 273 66.5Q291 99 303.5 145.5Q316 192 326 252L328 265Q304 215 265.5 187Q227 159 173 159Q110 159 73 202Q36 245 36 330Q36 389 51 440.5Q66 492 96 530.5Q126 569 172 591.5Q218 614 280 614Q372 614 420.5 557Q469 500 469 376Q469 346 466 311Q463 276 457 238Q427 59 355.5 -28Q284 -115 161 -115Z" glyph-name="nine.OP" horiz-adv-x="492" /><glyph d="M287 499Q243 499 217.5 458.5Q192 418 192 352Q192 311 206.5 289Q221 267 251 267Q272 267 290 277Q308 287 321.5 306Q335 325 343 350.5Q351 376 351 408Q351 449 334.5 474Q318 499 287 499ZM180 -115Q102 -115 60 -80.5Q18 -46 4 20L115 73Q125 35 144 17.5Q163 0 192 0Q226 0 250 17Q274 34 292 66.5Q310 99 322.5 145.5Q335 192 345 252L347 265Q323 215 284.5 187Q246 159 192 159Q129 159 92 202Q55 245 55 330Q55 389 70 440.5Q85 492 115 530.5Q145 569 191 591.5Q237 614 299 614Q391 614 439.5 557Q488 500 488 376Q488 346 485 311Q482 276 476 238Q446 59 374.5 -28Q303 -115 180 -115Z" glyph-name="nine.OT" horiz-adv-x="535" /><glyph d="M0 0ZM115 20Q138 20 151 43Q164 66 164 95Q164 116 156 128.5Q148 141 133 141Q110 141 98 118.5Q86 96 86 64Q86 44 93 32Q100 20 115 20ZM73 -209Q28 -209 -3 -193.5Q-34 -178 -45 -143L26 -95Q33 -115 43.5 -123.5Q54 -132 73 -132Q94 -132 108 -123Q122 -114 132 -96.5Q142 -79 149 -54.5Q156 -30 161 1L162 9Q148 -21 126.5 -37.5Q105 -54 75 -54Q37 -54 14 -27.5Q-9 -1 -9 50Q-9 84 0 115.5Q9 147 27.5 170Q46 193 74 207Q102 221 140 221Q200 221 232 185.5Q264 150 264 76Q264 56 262 36Q260 16 256 -5Q238 -104 193 -156.5Q148 -209 73 -209Z" glyph-name="nine.inf" horiz-adv-x="323" /><glyph d="M332 190H155L105 117H29L79 190H26L41 281H141L179 338H49L63 429H242L292 502H368L317 429H370L355 338H256L215 281H347Z" glyph-name="notequal" horiz-adv-x="389" unicode="&#8800;" /><glyph d="M9 0ZM9 0 88 496H199L196 407Q225 459 263.5 484.5Q302 510 347 510Q407 510 435 473Q463 436 463 373Q463 359 461 344.5Q459 330 457 315L407 0H271L317 288Q320 310 320 326Q320 381 276 381Q245 381 219.5 347.5Q194 314 184 249L144 0ZM380 699H456Q453 664 443 641Q433 618 419 604Q405 590 389 584Q373 578 358 578Q341 578 327.5 583.5Q314 589 302.5 595.5Q291 602 280.5 607.5Q270 613 259 613Q246 613 240.5 602.5Q235 592 233 579H154Q157 613 167 636.5Q177 660 190.5 673.5Q204 687 220 693Q236 699 251 699Q269 699 283 693.5Q297 688 309 681.5Q321 675 331.5 669.5Q342 664 353 664Q367 664 372.5 674.5Q378 685 380 699Z" glyph-name="ntilde" horiz-adv-x="491" unicode="&#241;" /><glyph d="M349 290 398 417H302L254 290ZM243 0 313 187H215L146 0H19L88 187H5L48 290H125L173 417H90L131 519H211L278 700H407L339 519H435L503 700H631L564 519H645L604 417H526L478 290H563L521 187H441L372 0Z" glyph-name="numbersign" horiz-adv-x="621" unicode="#" /><glyph d="M24 172Q24 189 26 208Q28 227 31 249Q50 384 112.5 447Q175 510 269 510Q354 510 397 466Q440 422 440 327Q440 310 438 290.5Q436 271 433 249Q413 117 353 51.5Q293 -14 195 -14Q24 -14 24 172ZM207 104Q246 104 269.5 137.5Q293 171 305 248Q311 285 311 313Q311 355 297 373Q283 391 254 391Q214 391 192.5 358Q171 325 159 248Q156 228 154 211.5Q152 195 152 181Q152 104 207 104Z" glyph-name="o" horiz-adv-x="464" unicode="o" /><glyph d="M24 0ZM301 703H440L439 696L321 571H216V576ZM24 172Q24 189 26 208Q28 227 31 249Q50 384 112.5 447Q175 510 269 510Q354 510 397 466Q440 422 440 327Q440 310 438 290.5Q436 271 433 249Q413 117 353 51.5Q293 -14 195 -14Q24 -14 24 172ZM207 104Q246 104 269.5 137.5Q293 171 305 248Q311 285 311 313Q311 355 297 373Q283 391 254 391Q214 391 192.5 358Q171 325 159 248Q156 228 154 211.5Q152 195 152 181Q152 104 207 104Z" glyph-name="oacute" horiz-adv-x="464" unicode="&#243;" /><glyph d="M24 0ZM24 172Q24 189 26 208Q28 227 31 249Q50 384 112.5 447Q175 510 269 510Q354 510 397 466Q440 422 440 327Q440 310 438 290.5Q436 271 433 249Q413 117 353 51.5Q293 -14 195 -14Q24 -14 24 172ZM207 104Q246 104 269.5 137.5Q293 171 305 248Q311 285 311 313Q311 355 297 373Q283 391 254 391Q214 391 192.5 358Q171 325 159 248Q156 228 154 211.5Q152 195 152 181Q152 104 207 104ZM352 702H432Q426 663 413 636.5Q400 610 380.5 594Q361 578 335 571Q309 564 277 564Q245 564 221 571Q197 578 182 594Q167 610 161.5 636.5Q156 663 162 702H243Q237 666 247.5 653Q258 640 286 640Q315 640 331 653Q347 666 352 702Z" glyph-name="obreve" horiz-adv-x="464" unicode="&#335;" /><glyph d="M24 0ZM242 703H352L424 575V571H320L285 630L233 571H128L129 575ZM24 172Q24 189 26 208Q28 227 31 249Q50 384 112.5 447Q175 510 269 510Q354 510 397 466Q440 422 440 327Q440 310 438 290.5Q436 271 433 249Q413 117 353 51.5Q293 -14 195 -14Q24 -14 24 172ZM207 104Q246 104 269.5 137.5Q293 171 305 248Q311 285 311 313Q311 355 297 373Q283 391 254 391Q214 391 192.5 358Q171 325 159 248Q156 228 154 211.5Q152 195 152 181Q152 104 207 104Z" glyph-name="ocircumflex" horiz-adv-x="464" unicode="&#244;" /><glyph d="M24 0ZM132 630Q132 668 152 692Q172 716 210 716Q271 716 271 658Q271 620 251 596Q231 572 191 572Q132 572 132 630ZM313 630Q313 668 332.5 692Q352 716 391 716Q451 716 451 658Q451 620 431.5 596Q412 572 372 572Q313 572 313 630ZM24 172Q24 189 26 208Q28 227 31 249Q50 384 112.5 447Q175 510 269 510Q354 510 397 466Q440 422 440 327Q440 310 438 290.5Q436 271 433 249Q413 117 353 51.5Q293 -14 195 -14Q24 -14 24 172ZM207 104Q246 104 269.5 137.5Q293 171 305 248Q311 285 311 313Q311 355 297 373Q283 391 254 391Q214 391 192.5 358Q171 325 159 248Q156 228 154 211.5Q152 195 152 181Q152 104 207 104Z" glyph-name="odieresis" horiz-adv-x="464" unicode="&#246;" /><glyph d="M196 -14Q23 -14 23 173Q23 208 29 249Q48 381 110.5 445.5Q173 510 270 510Q363 510 398 430Q459 510 553 510Q591 510 618.5 497Q646 484 663.5 460Q681 436 689.5 403Q698 370 698 331Q698 300 693 267.5Q688 235 680 202H434V182Q435 139 451.5 120Q468 101 500 101Q526 101 545.5 115Q565 129 577 155L668 108Q653 81 635.5 59Q618 37 595.5 20.5Q573 4 543 -5Q513 -14 473 -14Q429 -14 396 4Q363 22 345 64Q285 -14 196 -14ZM534 396Q505 396 482 372.5Q459 349 449 296H578Q579 305 580 313Q581 321 581 330Q581 396 534 396ZM306 247Q312 286 312 312Q312 392 255 392Q215 392 192.5 357Q170 322 159 247Q153 208 153 179Q153 101 207 101Q246 101 270 136.5Q294 172 306 247Z" glyph-name="oe" horiz-adv-x="716" unicode="&#339;" /><glyph d="M305 -196Q282 -212 260.5 -219.5Q239 -227 213 -227Q170 -227 140.5 -202.5Q111 -178 111 -122Q111 -83 124 -51Q137 -19 159 3.5Q181 26 210.5 38Q240 50 272 48L269 0Q230 -4 210 -32.5Q190 -61 190 -94Q190 -120 202.5 -131Q215 -142 233 -142Q260 -142 279 -125Z" glyph-name="ogonek" horiz-adv-x="459" unicode="&#731;" /><glyph d="M24 0ZM24 172Q24 189 26 208Q28 227 31 249Q50 384 112.5 447Q175 510 269 510Q354 510 397 466Q440 422 440 327Q440 310 438 290.5Q436 271 433 249Q413 117 353 51.5Q293 -14 195 -14Q24 -14 24 172ZM207 104Q246 104 269.5 137.5Q293 171 305 248Q311 285 311 313Q311 355 297 373Q283 391 254 391Q214 391 192.5 358Q171 325 159 248Q156 228 154 211.5Q152 195 152 181Q152 104 207 104ZM232 572 151 697 152 704H297L336 577V572Z" glyph-name="ograve" horiz-adv-x="464" unicode="&#242;" /><glyph d="M24 0ZM391 703H524L523 697L402 571H311V576ZM215 703H348L347 697L225 571H134V576ZM24 172Q24 189 26 208Q28 227 31 249Q50 384 112.5 447Q175 510 269 510Q354 510 397 466Q440 422 440 327Q440 310 438 290.5Q436 271 433 249Q413 117 353 51.5Q293 -14 195 -14Q24 -14 24 172ZM207 104Q246 104 269.5 137.5Q293 171 305 248Q311 285 311 313Q311 355 297 373Q283 391 254 391Q214 391 192.5 358Q171 325 159 248Q156 228 154 211.5Q152 195 152 181Q152 104 207 104Z" glyph-name="ohungarumlaut" horiz-adv-x="463" unicode="&#337;" /><glyph d="M24 0ZM406 675 394 590H169L182 675ZM24 172Q24 189 26 208Q28 227 31 249Q50 384 112.5 447Q175 510 269 510Q354 510 397 466Q440 422 440 327Q440 310 438 290.5Q436 271 433 249Q413 117 353 51.5Q293 -14 195 -14Q24 -14 24 172ZM207 104Q246 104 269.5 137.5Q293 171 305 248Q311 285 311 313Q311 355 297 373Q283 391 254 391Q214 391 192.5 358Q171 325 159 248Q156 228 154 211.5Q152 195 152 181Q152 104 207 104Z" glyph-name="omacron" horiz-adv-x="464" unicode="&#333;" /><glyph d="M448 0H7L27 124H172L235 520L169 473L135 590L312 706H404L311 124H468Z" glyph-name="one" horiz-adv-x="535" unicode="1" /><glyph d="M210 0H71L153 520L87 473L53 590L230 706H322Z" glyph-name="one.LP" horiz-adv-x="319" /><glyph d="M204 0H67L133 420L69 373L37 490L210 606H300Z" glyph-name="one.OP" horiz-adv-x="297" /><glyph d="M440 0H19L38 121H175L222 420L158 373L126 490L299 606H389L312 121H459Z" glyph-name="one.OT" horiz-adv-x="535" /><glyph d="M0 0ZM98 -200H0L47 91L9 66L-13 147L101 217H166Z" glyph-name="one.inf" horiz-adv-x="211" /><glyph d="M69 0ZM180 293H82L129 584L91 559L69 640L183 710H248ZM577 700 195 0H79L461 700ZM399 0 411 68 544 220Q570 248 581 268Q592 288 592 305Q592 319 584.5 327Q577 335 561 335Q545 335 530.5 325Q516 315 502 289L432 321Q457 375 497 398Q537 421 586 421Q637 421 665.5 396Q694 371 694 326Q694 306 689 288.5Q684 271 672.5 252Q661 233 643.5 210.5Q626 188 601 160L533 83L662 87L647 0Z" glyph-name="onehalf" horiz-adv-x="708" unicode="&#189;" /><glyph d="M69 0ZM577 700 195 0H79L461 700ZM180 293H82L129 584L91 559L69 640L183 710H248ZM369 85 381 157 511 412H606L481 171H555L574 290H666L646 171H683L668 85H632L619 0H527L541 85Z" glyph-name="onequarter" horiz-adv-x="709" unicode="&#188;" /><glyph d="M68 294ZM179 294H81L128 585L90 560L68 641L182 711H247Z" glyph-name="onesuperior" horiz-adv-x="209" unicode="&#185;" /><glyph d="M261 325 243 208H32L51 325Z" glyph-name="onethirdemdash" horiz-adv-x="289" /><glyph d="M158 410Q179 410 194 432.5Q209 455 217 497L218 504H188Q165 504 147.5 486Q130 468 130 442Q130 410 158 410ZM210 403Q192 374 168 357.5Q144 341 114 341Q81 341 60.5 362Q40 383 40 422Q40 452 51.5 478Q63 504 82.5 523Q102 542 128 552.5Q154 563 184 563H227Q228 568 228.5 573Q229 578 229 583Q229 612 215.5 621.5Q202 631 182 631Q159 631 139.5 619.5Q120 608 104 589L66 648Q92 681 129.5 697.5Q167 714 213 714Q263 714 295.5 689Q328 664 328 603Q328 594 327 583.5Q326 573 324 561L290 351H208Z" glyph-name="ordfeminine" horiz-adv-x="315" unicode="&#170;" /><glyph d="M183 424Q204 424 221 448.5Q238 473 246 527Q248 539 249 550Q250 561 250 571Q250 603 241 617Q232 631 215 631Q192 631 174.5 606.5Q157 582 149 526Q145 503 145 481Q145 424 183 424ZM54 523Q67 621 106.5 667.5Q146 714 199 714Q228 714 248 698.5Q268 683 276 651L291 703H371L315 351H233L234 403Q199 340 141 340Q99 340 74 372Q49 404 49 468Q49 481 50.5 494.5Q52 508 54 523Z" glyph-name="ordfeminine.school" horiz-adv-x="348" /><glyph d="M51 473Q51 486 52.5 499.5Q54 513 56 528Q70 622 114 668Q158 714 227 714Q348 714 348 582Q348 568 347 555.5Q346 543 344 528Q330 434 287 387.5Q244 341 174 341Q51 341 51 473ZM184 422Q210 422 226.5 447.5Q243 473 251 528Q253 541 253.5 552.5Q254 564 254 574Q254 604 245 617.5Q236 631 216 631Q190 631 174 606.5Q158 582 149 528Q147 513 146 501Q145 489 145 479Q145 422 184 422Z" glyph-name="ordmasculine" horiz-adv-x="333" unicode="&#186;" /><glyph d="M197 -14Q115 -14 76 27L51 0H-27L43 77Q26 117 26 172Q26 205 32 249Q51 381 113.5 445.5Q176 510 272 510Q310 510 341.5 500Q373 490 393 467L418 496H496L426 418Q442 382 442 327Q442 291 436 249Q417 118 356 52Q295 -14 197 -14ZM150 190 306 374Q292 403 259 403Q216 403 192 365.5Q168 328 155 247Q153 230 152 216Q151 202 150 190ZM208 92Q250 92 273.5 129Q297 166 310 247Q316 278 316 302L162 118Q174 92 208 92Z" glyph-name="oslash" horiz-adv-x="467" unicode="&#248;" /><glyph d="M24 0ZM24 172Q24 189 26 208Q28 227 31 249Q50 384 112.5 447Q175 510 269 510Q354 510 397 466Q440 422 440 327Q440 310 438 290.5Q436 271 433 249Q413 117 353 51.5Q293 -14 195 -14Q24 -14 24 172ZM207 104Q246 104 269.5 137.5Q293 171 305 248Q311 285 311 313Q311 355 297 373Q283 391 254 391Q214 391 192.5 358Q171 325 159 248Q156 228 154 211.5Q152 195 152 181Q152 104 207 104ZM361 699H437Q434 664 424 641Q414 618 400 604Q386 590 370 584Q354 578 339 578Q322 578 308.5 583.5Q295 589 283.5 595.5Q272 602 261.5 607.5Q251 613 240 613Q227 613 221.5 602.5Q216 592 214 579H135Q138 613 148 636.5Q158 660 171.5 673.5Q185 687 201 693Q217 699 232 699Q250 699 264 693.5Q278 688 290 681.5Q302 675 312.5 669.5Q323 664 334 664Q348 664 353.5 674.5Q359 685 361 699Z" glyph-name="otilde" horiz-adv-x="464" unicode="&#245;" /><glyph d="M278 396Q246 396 220 361Q194 326 182 246Q179 228 178 212Q177 196 177 182Q177 138 191 117.5Q205 97 230 97Q264 97 287 133Q310 169 323 247Q326 267 328 283.5Q330 300 330 315Q330 396 278 396ZM-20 -186 88 496H200L198 418Q227 465 263.5 487.5Q300 510 340 510Q400 510 430.5 466Q461 422 461 337Q461 318 459 297.5Q457 277 454 254Q445 193 428 143.5Q411 94 384.5 59Q358 24 323 5Q288 -14 245 -14Q182 -14 152 47L115 -186Z" glyph-name="p" horiz-adv-x="485" unicode="p" /><glyph d="M405 573H362L325 333H367ZM160 424Q157 334 220 334H222L259 572H257Q216 572 189 531Q162 490 160 424ZM528 700 417 0H313L347 210H305L273 0H170L203 212H202Q133 217 90 269Q47 321 50 415Q51 481 69.5 534Q88 587 120 624Q152 661 195.5 680.5Q239 700 290 700Z" glyph-name="paragraph" horiz-adv-x="539" unicode="&#182;" /><glyph d="M182 -134Q18 -104 18 145Q18 179 21.5 217Q25 255 31 297Q88 689 314 728L324 608Q291 599 264.5 579Q238 559 216.5 523Q195 487 178.5 431.5Q162 376 150 297Q142 253 139 218Q136 183 136 154Q136 75 159 37Q182 -1 226 -14Z" glyph-name="parenleft" horiz-adv-x="289" unicode="(" /><glyph d="M0 0ZM86 -207 61 -287Q-41 -263 -41 -115Q-41 -94 -39 -70Q-37 -46 -33 -20Q5 218 139 225L141 142Q122 139 107 130Q92 121 79.5 101.5Q67 82 57 51Q47 20 40 -26Q36 -49 34.5 -69Q33 -89 33 -106Q33 -153 46.5 -176Q60 -199 86 -207Z" glyph-name="parenleft.inf" horiz-adv-x="180" /><glyph d="M106 728Q270 698 270 449Q270 415 266.5 377Q263 339 257 297Q200 -95 -26 -134L-36 -14Q-3 -5 23.5 15Q50 35 71.5 71Q93 107 109.5 162Q126 217 138 297Q146 341 149 376Q152 411 152 440Q152 519 129 557Q106 595 62 608Z" glyph-name="parenright" horiz-adv-x="289" unicode=")" /><glyph d="M0 0ZM-5 145 20 225Q123 201 123 53Q123 32 121 8Q119 -16 115 -42Q77 -279 -58 -287L-60 -204Q-41 -201 -26 -192Q-11 -183 1.5 -163.5Q14 -144 23.5 -113Q33 -82 41 -36Q45 -13 46.5 7Q48 27 48 44Q48 91 34.5 114Q21 137 -5 145Z" glyph-name="parenright.inf" horiz-adv-x="180" /><glyph d="M58 0ZM678 421Q799 421 799 280Q799 248 793 206Q776 96 733.5 43.5Q691 -9 616 -9Q553 -9 523.5 25.5Q494 60 494 131Q494 164 500 206Q517 316 559 368.5Q601 421 678 421ZM669 339Q643 339 626 310Q609 281 598 206Q594 183 592 164.5Q590 146 590 132Q590 99 599.5 85.5Q609 72 626 72Q649 72 666.5 101Q684 130 696 206Q700 229 701.5 247Q703 265 703 280Q703 312 694.5 325.5Q686 339 669 339ZM242 714Q363 714 363 573Q363 541 357 499Q340 389 297.5 336.5Q255 284 180 284Q117 284 87.5 318.5Q58 353 58 424Q58 457 64 499Q81 609 123 661.5Q165 714 242 714ZM233 632Q207 632 190 603Q173 574 162 499Q158 476 156 457.5Q154 439 154 425Q154 392 163.5 378.5Q173 365 190 365Q213 365 230.5 394Q248 423 260 499Q264 522 265.5 540Q267 558 267 573Q267 605 258.5 618.5Q250 632 233 632ZM677 700 295 0H179L561 700Z" glyph-name="percent" horiz-adv-x="820" unicode="%" /><glyph d="M151 87Q151 46 129.5 19.5Q108 -7 64 -7Q32 -7 16 10Q0 27 0 56Q0 94 20 122.5Q40 151 85 151Q151 151 151 87Z" glyph-name="period" horiz-adv-x="203" unicode="." /><glyph d="M37 259ZM188 353Q188 312 166.5 285.5Q145 259 101 259Q69 259 53 276Q37 293 37 322Q37 360 57 388.5Q77 417 122 417Q188 417 188 353Z" glyph-name="periodcentered" horiz-adv-x="204" unicode="&#183;" /><glyph d="M58 0ZM678 421Q799 421 799 280Q799 248 793 206Q776 96 733.5 43.5Q691 -9 616 -9Q553 -9 523.5 25.5Q494 60 494 131Q494 164 500 206Q517 316 559 368.5Q601 421 678 421ZM669 339Q643 339 626 310Q609 281 598 206Q594 183 592 164.5Q590 146 590 132Q590 99 599.5 85.5Q609 72 626 72Q649 72 666.5 101Q684 130 696 206Q700 229 701.5 247Q703 265 703 280Q703 312 694.5 325.5Q686 339 669 339ZM242 714Q363 714 363 573Q363 541 357 499Q340 389 297.5 336.5Q255 284 180 284Q117 284 87.5 318.5Q58 353 58 424Q58 457 64 499Q81 609 123 661.5Q165 714 242 714ZM233 632Q207 632 190 603Q173 574 162 499Q158 476 156 457.5Q154 439 154 425Q154 392 163.5 378.5Q173 365 190 365Q213 365 230.5 394Q248 423 260 499Q264 522 265.5 540Q267 558 267 573Q267 605 258.5 618.5Q250 632 233 632ZM1015 421Q1136 421 1136 280Q1136 248 1130 206Q1113 96 1070.5 43.5Q1028 -9 953 -9Q890 -9 860.5 25.5Q831 60 831 131Q831 164 837 206Q854 316 896 368.5Q938 421 1015 421ZM1006 339Q980 339 963 310Q946 281 935 206Q931 183 929 164.5Q927 146 927 132Q927 99 936.5 85.5Q946 72 963 72Q986 72 1003.5 101Q1021 130 1033 206Q1037 229 1038.5 247Q1040 265 1040 280Q1040 312 1031.5 325.5Q1023 339 1006 339ZM677 700 295 0H179L561 700Z" glyph-name="perthousand" horiz-adv-x="1155" unicode="&#8240;" /><glyph d="M214 125H125L146 266H38L52 355H160L184 498H273L249 355H358L344 266H236Z" glyph-name="plus" horiz-adv-x="390" unicode="+" /><glyph d="M0 0ZM93 -142H22L36 -53H-28L-17 15H48L63 105H134L119 15H182L171 -53H108Z" glyph-name="plus.inf" horiz-adv-x="244" /><glyph d="M224 155H135L155 284H47L61 372H169L190 503H281L258 372H367L354 284H246ZM322 88 309 0H3L16 88Z" glyph-name="plusminus" horiz-adv-x="390" unicode="&#177;" /><glyph glyph-name="punctuationspace" horiz-adv-x="198" unicode="&#8200;" /><glyph d="M366 -186H231L267 52Q244 20 214 3Q184 -14 150 -14Q90 -14 56.5 31Q23 76 23 164Q23 182 25 201.5Q27 221 30 243Q50 380 104.5 445Q159 510 234 510Q272 510 302.5 489.5Q333 469 345 428L365 496H474ZM206 99Q238 99 263 134.5Q288 170 301 249Q307 286 307 314Q307 358 293 378Q279 398 255 398Q220 398 197 362.5Q174 327 161 248Q155 209 155 181Q155 99 206 99Z" glyph-name="q" horiz-adv-x="482" unicode="q" /><glyph d="M143 215 165 388H204Q229 388 249.5 399Q270 410 284.5 428.5Q299 447 307 471Q315 495 315 521Q315 562 296.5 583Q278 604 244 604Q208 604 181 583.5Q154 563 137 516L44 559Q72 644 130.5 681.5Q189 719 267 719Q354 719 397 673.5Q440 628 440 546Q440 493 425.5 451.5Q411 410 387 379.5Q363 349 331 328.5Q299 308 263 299L242 215ZM244 87Q244 46 222.5 19.5Q201 -7 157 -7Q125 -7 109 10Q93 27 93 56Q93 94 112.5 122.5Q132 151 177 151Q244 151 244 87Z" glyph-name="question" horiz-adv-x="412" unicode="?" /><glyph d="M247 289 225 116H186Q161 116 140.5 105Q120 94 105.5 75.5Q91 57 83 33Q75 9 75 -17Q75 -58 93.5 -79Q112 -100 146 -100Q182 -100 209 -79.5Q236 -59 253 -12L346 -55Q318 -140 259.5 -177.5Q201 -215 123 -215Q36 -215 -7 -169.5Q-50 -124 -50 -42Q-50 10 -35.5 52Q-21 94 3 124.5Q27 155 59 175.5Q91 196 127 205L148 289ZM146 417Q146 458 167.5 484.5Q189 511 233 511Q265 511 281 494Q297 477 297 448Q297 410 277.5 381.5Q258 353 213 353Q146 353 146 417Z" glyph-name="questiondown" horiz-adv-x="400" unicode="&#191;" /><glyph d="M285 491 263 318H224Q199 318 178.5 307Q158 296 143.5 277.5Q129 259 121 235Q113 211 113 185Q113 144 131.5 123Q150 102 184 102Q220 102 247 122.5Q274 143 291 190L384 147Q356 62 297.5 24.5Q239 -13 161 -13Q74 -13 31 32.5Q-12 78 -12 160Q-12 212 2.5 254Q17 296 41 326.5Q65 357 97 377.5Q129 398 165 407L186 491ZM184 619Q184 660 205.5 686.5Q227 713 271 713Q303 713 319 696Q335 679 335 650Q335 612 315.5 583.5Q296 555 251 555Q184 555 184 619Z" glyph-name="questiondown.cap" horiz-adv-x="411" /><glyph d="M152 450H66L89 714H200ZM287 450H200L236 714H346Z" glyph-name="quotedbl" horiz-adv-x="316" unicode="&quot;" /><glyph d="M-7 -141 -27 -85Q4 -73 25 -51.5Q46 -30 54 -6Q1 -1 1 53Q1 91 21 117Q41 143 82 143Q111 143 127 126Q143 109 143 77Q143 44 133 10Q123 -24 103.5 -53.5Q84 -83 56 -106Q28 -129 -7 -141ZM165 -141 145 -85Q176 -73 197 -51.5Q218 -30 226 -6Q173 -1 173 53Q173 91 193 117Q213 143 254 143Q283 143 299 126Q315 109 315 77Q315 44 305 10Q295 -24 275.5 -53.5Q256 -83 228 -106Q200 -129 165 -141Z" glyph-name="quotedblbase" horiz-adv-x="365" unicode="&#8222;" /><glyph d="M212 750 233 693Q201 681 179.5 659.5Q158 638 150 613Q204 608 204 553Q204 515 184 488.5Q164 462 122 462Q61 462 61 529Q61 563 71 597.5Q81 632 100.5 662Q120 692 148 715Q176 738 212 750ZM384 750 405 693Q373 681 351.5 659.5Q330 638 322 613Q376 608 376 553Q376 515 356 488.5Q336 462 294 462Q233 462 233 529Q233 563 243 597.5Q253 632 272.5 662Q292 692 320 715Q348 738 384 750Z" glyph-name="quotedblleft" horiz-adv-x="366" unicode="&#8220;" /><glyph d="M77 450 57 507Q88 520 109.5 541Q131 562 139 587Q85 591 85 647Q85 685 105 711.5Q125 738 166 738Q228 738 228 671Q228 637 218 602.5Q208 568 188.5 538Q169 508 141 485Q113 462 77 450ZM250 450 230 507Q261 520 282.5 541Q304 562 312 587Q258 591 258 647Q258 685 278 711.5Q298 738 339 738Q401 738 401 671Q401 637 391 602.5Q381 568 361.5 538Q342 508 314 485Q286 462 250 450Z" glyph-name="quotedblright" horiz-adv-x="366" unicode="&#8221;" /><glyph d="M206 749 227 692Q195 680 173.5 658.5Q152 637 144 612Q198 607 198 552Q198 514 178 487.5Q158 461 116 461Q55 461 55 528Q55 562 65 596.5Q75 631 94.5 661Q114 691 142 714Q170 737 206 749Z" glyph-name="quoteleft" horiz-adv-x="194" unicode="&#8216;" /><glyph d="M77 451 57 508Q88 521 109.5 542Q131 563 139 588Q85 592 85 648Q85 686 105 712.5Q125 739 166 739Q228 739 228 672Q228 638 218 603.5Q208 569 188.5 539Q169 509 141 486Q113 463 77 451Z" glyph-name="quoteright" horiz-adv-x="194" unicode="&#8217;" /><glyph d="M-7 -140 -27 -84Q4 -72 25 -50.5Q46 -29 54 -5Q1 0 1 54Q1 92 21 118Q41 144 82 144Q111 144 127 127Q143 110 143 78Q143 45 133 11Q123 -23 103.5 -52.5Q84 -82 56 -105Q28 -128 -7 -140Z" glyph-name="quotesinglbase" horiz-adv-x="196" unicode="&#8218;" /><glyph d="M63 450 93 714H203L149 450Z" glyph-name="quotesingle" horiz-adv-x="173" unicode="'" /><glyph d="M9 0 88 496H199L196 398Q224 455 263 484.5Q302 514 346 512L325 368Q265 374 227.5 329Q190 284 176 202L144 0Z" glyph-name="r" horiz-adv-x="321" unicode="r" /><glyph d="M9 0ZM273 703H412L411 696L293 571H188V576ZM9 0 88 496H199L196 398Q224 455 263 484.5Q302 514 346 512L325 368Q265 374 227.5 329Q190 284 176 202L144 0Z" glyph-name="racute" horiz-adv-x="322" unicode="&#341;" /><glyph d="M9 0ZM193 571 122 700V703H227L258 644L314 703H418L417 700L304 571ZM9 0 88 496H199L196 398Q224 455 263 484.5Q302 514 346 512L325 368Q265 374 227.5 329Q190 284 176 202L144 0Z" glyph-name="rcaron" horiz-adv-x="321" unicode="&#345;" /><glyph d="M0 0ZM-8 -324 -29 -272Q-3 -261 18.5 -241Q40 -221 48 -195Q22 -196 6 -181.5Q-10 -167 -9 -138Q-8 -101 13 -78.5Q34 -56 71 -56Q132 -56 132 -125Q131 -159 120 -191.5Q109 -224 90.5 -251Q72 -278 46.5 -297Q21 -316 -8 -324ZM11 0 90 496H201L198 398Q226 455 265 484.5Q304 514 348 512L327 368Q267 374 229.5 329Q192 284 178 202L146 0Z" glyph-name="rcommaaccent" horiz-adv-x="323" unicode="&#343;" /><glyph d="M192 333Q132 333 98 373Q64 413 64 481Q64 492 65 503Q66 514 68 525Q82 612 130.5 663.5Q179 715 250 715Q310 715 344 675Q378 635 378 568Q378 557 376.5 544.5Q375 532 373 520Q359 432 311 382.5Q263 333 192 333ZM196 361Q247 361 288 401.5Q329 442 342 524Q344 535 345 546Q346 557 346 566Q346 626 318.5 656.5Q291 687 247 687Q194 687 153 646Q112 605 98 524Q95 501 95 482Q95 421 123 391Q151 361 196 361ZM202 529H220Q234 529 241 537Q248 545 249 559Q249 581 228 581H210ZM144 432 174 622H242Q267 622 279 607Q291 592 291 566Q291 543 281.5 526Q272 509 257 498Q258 496 260 486.5Q262 477 264.5 465.5Q267 454 269.5 444Q272 434 272 432H227L218 488H195L187 432Z" glyph-name="registered" horiz-adv-x="357" unicode="&#174;" /><glyph d="M174 452Q116 472 85.5 525Q55 578 55 649Q55 739 127 739Q161 739 180 720Q199 701 199 663Q199 628 181.5 609.5Q164 591 135 589Q141 561 159.5 541Q178 521 204 508ZM346 452Q288 472 257.5 525Q227 578 227 649Q227 739 299 739Q333 739 352 720Q371 701 371 663Q371 628 353.5 609.5Q336 591 307 589Q313 561 331.5 541Q350 521 376 508Z" glyph-name="reversequotedblleft" horiz-adv-x="365" /><glyph d="M174 452Q116 472 85.5 525Q55 578 55 649Q55 739 127 739Q161 739 180 720Q199 701 199 663Q199 628 181.5 609.5Q164 591 135 589Q141 561 159.5 541Q178 521 204 508Z" glyph-name="reversequoteleft" horiz-adv-x="194" /><glyph d="M269 753Q304 753 327 732Q350 711 350 670Q350 619 320 585Q290 551 242 551Q205 551 181.5 572Q158 593 158 635Q158 684 187.5 718.5Q217 753 269 753ZM262 698Q240 698 228 682Q216 666 216 643Q216 606 248 606Q268 606 280.5 623Q293 640 293 663Q293 680 284.5 689Q276 698 262 698Z" glyph-name="ring" horiz-adv-x="459" unicode="&#730;" /><glyph d="M-11 117 90 160Q103 88 168 88Q197 88 211 100Q225 112 225 130Q225 145 214 157Q203 169 177 182L145 198Q99 221 72.5 256Q46 291 46 344Q46 380 58.5 410.5Q71 441 94.5 463.5Q118 486 151 499Q184 512 225 512Q359 512 389 379L286 338Q282 369 263.5 386.5Q245 404 218 404Q194 404 180.5 391.5Q167 379 167 362Q167 348 177.5 336.5Q188 325 218 311L243 299Q265 288 284.5 275Q304 262 319 244Q334 226 342.5 203.5Q351 181 351 153Q351 118 338.5 87.5Q326 57 302.5 34.5Q279 12 244.5 -1Q210 -14 166 -14Q92 -14 46 19Q0 52 -11 117Z" glyph-name="s" horiz-adv-x="388" unicode="s" /><glyph d="M0 0ZM271 703H410L409 696L291 571H186V576ZM-11 117 90 160Q103 88 168 88Q197 88 211 100Q225 112 225 130Q225 145 214 157Q203 169 177 182L145 198Q99 221 72.5 256Q46 291 46 344Q46 380 58.5 410.5Q71 441 94.5 463.5Q118 486 151 499Q184 512 225 512Q359 512 389 379L286 338Q282 369 263.5 386.5Q245 404 218 404Q194 404 180.5 391.5Q167 379 167 362Q167 348 177.5 336.5Q188 325 218 311L243 299Q265 288 284.5 275Q304 262 319 244Q334 226 342.5 203.5Q351 181 351 153Q351 118 338.5 87.5Q326 57 302.5 34.5Q279 12 244.5 -1Q210 -14 166 -14Q92 -14 46 19Q0 52 -11 117Z" glyph-name="sacute" horiz-adv-x="388" unicode="&#347;" /><glyph d="M0 0ZM192 571 121 700V703H226L257 644L313 703H417L416 700L303 571ZM-11 117 90 160Q103 88 168 88Q197 88 211 100Q225 112 225 130Q225 145 214 157Q203 169 177 182L145 198Q99 221 72.5 256Q46 291 46 344Q46 380 58.5 410.5Q71 441 94.5 463.5Q118 486 151 499Q184 512 225 512Q359 512 389 379L286 338Q282 369 263.5 386.5Q245 404 218 404Q194 404 180.5 391.5Q167 379 167 362Q167 348 177.5 336.5Q188 325 218 311L243 299Q265 288 284.5 275Q304 262 319 244Q334 226 342.5 203.5Q351 181 351 153Q351 118 338.5 87.5Q326 57 302.5 34.5Q279 12 244.5 -1Q210 -14 166 -14Q92 -14 46 19Q0 52 -11 117Z" glyph-name="scaron" horiz-adv-x="388" unicode="&#353;" /><glyph d="M124 -249Q85 -249 52.5 -231.5Q20 -214 9 -172L73 -134Q88 -176 125 -176Q147 -176 158 -163.5Q169 -151 169 -134Q169 -116 154 -107Q139 -98 122 -104L103 -90L135 -12Q75 -6 37 26.5Q-1 59 -11 117L90 160Q103 88 168 88Q197 88 211 100Q225 112 225 130Q225 145 214 157Q203 169 177 182L145 198Q99 221 72.5 256Q46 291 46 344Q46 380 58.5 410.5Q71 441 94.5 463.5Q118 486 151 499Q184 512 225 512Q359 512 389 379L286 338Q282 369 263.5 386.5Q245 404 218 404Q194 404 180.5 391.5Q167 379 167 362Q167 348 177.5 336.5Q188 325 218 311L243 299Q265 288 284.5 275Q304 262 319 244Q334 226 342.5 203.5Q351 181 351 153Q351 90 312.5 44.5Q274 -1 202 -12L183 -52Q209 -56 229 -75.5Q249 -95 249 -132Q249 -189 213.5 -219Q178 -249 124 -249Z" glyph-name="scedilla" horiz-adv-x="388" unicode="&#351;" /><glyph d="M0 0ZM210 702H320L392 574V570H288L253 629L201 570H96L97 574ZM-11 117 90 160Q103 88 168 88Q197 88 211 100Q225 112 225 130Q225 145 214 157Q203 169 177 182L145 198Q99 221 72.5 256Q46 291 46 344Q46 380 58.5 410.5Q71 441 94.5 463.5Q118 486 151 499Q184 512 225 512Q359 512 389 379L286 338Q282 369 263.5 386.5Q245 404 218 404Q194 404 180.5 391.5Q167 379 167 362Q167 348 177.5 336.5Q188 325 218 311L243 299Q265 288 284.5 275Q304 262 319 244Q334 226 342.5 203.5Q351 181 351 153Q351 118 338.5 87.5Q326 57 302.5 34.5Q279 12 244.5 -1Q210 -14 166 -14Q92 -14 46 19Q0 52 -11 117Z" glyph-name="scircumflex" horiz-adv-x="388" unicode="&#349;" /><glyph d="M0 0ZM82 -324 61 -272Q87 -261 108.5 -241Q130 -221 138 -195Q112 -196 96 -181.5Q80 -167 81 -138Q82 -101 103 -78.5Q124 -56 161 -56Q222 -56 222 -125Q221 -159 210 -191.5Q199 -224 180.5 -251Q162 -278 136.5 -297Q111 -316 82 -324ZM-11 117 90 160Q103 88 168 88Q197 88 211 100Q225 112 225 130Q225 145 214 157Q203 169 177 182L145 198Q99 221 72.5 256Q46 291 46 344Q46 380 58.5 410.5Q71 441 94.5 463.5Q118 486 151 499Q184 512 225 512Q359 512 389 379L286 338Q282 369 263.5 386.5Q245 404 218 404Q194 404 180.5 391.5Q167 379 167 362Q167 348 177.5 336.5Q188 325 218 311L243 299Q265 288 284.5 275Q304 262 319 244Q334 226 342.5 203.5Q351 181 351 153Q351 118 338.5 87.5Q326 57 302.5 34.5Q279 12 244.5 -1Q210 -14 166 -14Q92 -14 46 19Q0 52 -11 117Z" glyph-name="scommaaccent" horiz-adv-x="388" unicode="&#537;" /><glyph d="M259 341Q259 379 231 393L223 397Q210 403 196 403Q182 403 170 395.5Q158 388 150.5 373.5Q143 359 143 337Q143 302 175 286L183 282Q198 274 212 276.5Q226 279 236.5 287.5Q247 296 253 310Q259 324 259 341ZM322 141Q322 111 313 80Q304 49 283 24.5Q262 0 228 -15.5Q194 -31 143 -31Q69 -31 32.5 0.5Q-4 32 -15 83L77 129Q89 61 147 61Q183 61 196 77.5Q209 94 209 117Q209 138 198 148.5Q187 159 164 170L141 180Q99 198 69.5 230Q40 262 40 314Q40 366 63 401Q86 436 120 454Q106 468 96 490.5Q86 513 86 543Q86 575 96.5 605.5Q107 636 128.5 660Q150 684 182.5 698.5Q215 713 259 713Q321 713 359 687Q397 661 411 604L314 557Q309 585 294 600.5Q279 616 251 616Q223 616 207.5 599Q192 582 192 559Q192 539 203 526.5Q214 514 240 505L270 494Q321 475 343.5 444.5Q366 414 366 366Q366 324 346 287Q326 250 287 230Q306 212 314 190.5Q322 169 322 141Z" glyph-name="section" horiz-adv-x="397" unicode="&#167;" /><glyph d="M0 0ZM207 431Q207 390 185.5 363.5Q164 337 120 337Q88 337 72 354Q56 371 56 400Q56 438 76 466.5Q96 495 141 495Q207 495 207 431ZM-7 -148 -29 -89Q4 -76 27 -54Q50 -32 58 -6Q1 -1 1 56Q1 96 22.5 123Q44 150 87 150Q119 150 135.5 132Q152 114 152 81Q152 46 141 10.5Q130 -25 110 -56Q90 -87 60 -111.5Q30 -136 -7 -148Z" glyph-name="semicolon" horiz-adv-x="207" unicode=";" /><glyph d="M109 0ZM109 0Q124 96 151.5 182Q179 268 214 341.5Q249 415 290.5 474Q332 533 375 575L111 571L132 700H532L514 589Q466 540 425 476Q384 412 351.5 336.5Q319 261 296.5 176Q274 91 263 0Z" glyph-name="seven" horiz-adv-x="535" unicode="7" /><glyph d="M60 0Q75 96 102.5 182Q130 268 165 341.5Q200 415 241.5 474Q283 533 326 575L62 571L83 700H483L465 589Q417 540 376 476Q335 412 302.5 336.5Q270 261 247.5 176Q225 91 214 0Z" glyph-name="seven.LP" horiz-adv-x="427" /><glyph d="M49 -100Q64 -4 90 81.5Q116 167 150 240.5Q184 314 224.5 373Q265 432 309 475L48 471L68 600H463L446 489Q398 440 357.5 376Q317 312 285.5 236.5Q254 161 232.5 76Q211 -9 200 -100Z" glyph-name="seven.OP" horiz-adv-x="420" /><glyph d="M98 -100Q113 -4 139 81.5Q165 167 199 240.5Q233 314 273.5 373Q314 432 358 475L97 471L117 600H512L495 489Q447 440 406.5 376Q366 312 334.5 236.5Q303 161 281.5 76Q260 -9 249 -100Z" glyph-name="seven.OT" horiz-adv-x="535" /><glyph d="M0 0ZM-8 -200Q11 -85 54.5 -3Q98 79 149 126L-8 123L7 212H259L247 140Q217 108 194.5 73.5Q172 39 154.5 -2Q137 -43 124 -91.5Q111 -140 102 -200Z" glyph-name="seven.inf" horiz-adv-x="272" /><glyph d="M44 0ZM535 581 419 526Q403 599 346 599Q311 599 286.5 582Q262 565 244.5 533Q227 501 214.5 455Q202 409 190 351L187 336Q210 383 249.5 411.5Q289 440 343 440Q403 440 441 396.5Q479 353 479 268Q479 211 463.5 159.5Q448 108 417.5 69.5Q387 31 342 8Q297 -15 238 -15Q144 -15 94 42.5Q44 100 44 226Q44 280 53 346Q80 527 154.5 620.5Q229 714 356 714Q508 714 535 581ZM279 332Q259 332 241.5 321Q224 310 211 291Q198 272 190.5 246Q183 220 183 190Q183 148 199.5 124Q216 100 248 100Q272 100 290 112Q308 124 319.5 144Q331 164 337 189.5Q343 215 343 242Q343 332 279 332Z" glyph-name="six" horiz-adv-x="535" unicode="6" /><glyph d="M533 581 417 526Q401 599 344 599Q309 599 284.5 582Q260 565 242.5 533Q225 501 212.5 455Q200 409 188 351L185 336Q208 383 247.5 411.5Q287 440 341 440Q401 440 439 396.5Q477 353 477 268Q477 211 461.5 159.5Q446 108 415.5 69.5Q385 31 340 8Q295 -15 236 -15Q142 -15 92 42.5Q42 100 42 226Q42 280 51 346Q78 527 152.5 620.5Q227 714 354 714Q506 714 533 581ZM277 332Q257 332 239.5 321Q222 310 209 291Q196 272 188.5 246Q181 220 181 190Q181 148 197.5 124Q214 100 246 100Q270 100 288 112Q306 124 317.5 144Q329 164 335 189.5Q341 215 341 242Q341 332 277 332Z" glyph-name="six.LP" horiz-adv-x="511" /><glyph d="M462 269Q462 210 447 158.5Q432 107 402 68.5Q372 30 326 7.5Q280 -15 218 -15Q126 -15 77.5 42Q29 99 29 223Q29 253 32 288Q35 323 41 361Q71 540 142.5 627Q214 714 337 714Q415 714 457 679.5Q499 645 513 579L402 526Q392 564 373 581.5Q354 599 325 599Q291 599 267 582Q243 565 225 532.5Q207 500 194.5 453.5Q182 407 172 347L170 334Q194 384 232.5 412Q271 440 325 440Q388 440 425 397Q462 354 462 269ZM325 247Q325 288 310.5 310Q296 332 266 332Q245 332 227 322Q209 312 195.5 293Q182 274 174 248Q166 222 166 191Q166 150 182.5 125Q199 100 230 100Q274 100 299.5 140.5Q325 181 325 247Z" glyph-name="six.OP" horiz-adv-x="491" /><glyph d="M476 269Q476 210 461 158.5Q446 107 416 68.5Q386 30 340 7.5Q294 -15 232 -15Q140 -15 91.5 42Q43 99 43 223Q43 253 46 288Q49 323 55 361Q85 540 156.5 627Q228 714 351 714Q429 714 471 679.5Q513 645 527 579L416 526Q406 564 387 581.5Q368 599 339 599Q305 599 281 582Q257 565 239 532.5Q221 500 208.5 453.5Q196 407 186 347L184 334Q208 384 246.5 412Q285 440 339 440Q402 440 439 397Q476 354 476 269ZM339 247Q339 288 324.5 310Q310 332 280 332Q259 332 241 322Q223 312 209.5 293Q196 274 188 248Q180 222 180 191Q180 150 196.5 125Q213 100 244 100Q288 100 313.5 140.5Q339 181 339 247Z" glyph-name="six.OT" horiz-adv-x="535" /><glyph d="M0 0ZM281 141 204 103Q201 123 192 132.5Q183 142 165 142Q127 142 108.5 107.5Q90 73 79 8L78 1Q92 27 112.5 43Q133 59 164 59Q202 59 226 34Q250 9 250 -42Q250 -76 240.5 -106.5Q231 -137 212.5 -159.5Q194 -182 166.5 -195.5Q139 -209 103 -209Q41 -209 9 -174Q-23 -139 -23 -64Q-23 -48 -22 -31.5Q-21 -15 -18 3Q-2 108 42.5 164.5Q87 221 166 221Q264 221 281 141ZM123 -13Q102 -13 88.5 -34Q75 -55 75 -86Q75 -107 83 -119Q91 -131 108 -131Q131 -131 142.5 -108.5Q154 -86 154 -58Q154 -13 123 -13Z" glyph-name="six.inf" horiz-adv-x="324" /><glyph glyph-name="sixperemspace" horiz-adv-x="127" unicode="&#8198;" /><glyph d="M501 700 111 0H-37L354 700Z" glyph-name="slash" horiz-adv-x="432" unicode="/" /><glyph glyph-name="space" horiz-adv-x="175" unicode=" " /><glyph d="M443 80Q409 34 364.5 17Q320 0 261 0H-23L-4 119H18Q37 119 47.5 145Q58 171 64 213L75 289H22L38 387H88L101 494Q109 556 131 598.5Q153 641 182.5 666.5Q212 692 246.5 703Q281 714 316 714Q402 714 446 674Q490 634 504 555L391 510Q383 548 365 568.5Q347 589 314 589Q278 589 260 560.5Q242 532 234 477L221 387H334L318 289H209L200 220Q192 155 170 119H282Q306 119 332.5 131.5Q359 144 379 171Z" glyph-name="sterling" horiz-adv-x="471" unicode="&#163;" /><glyph d="M267 112 275 13Q257 1 231 -6Q205 -13 177 -13Q117 -13 79.5 15.5Q42 44 42 107Q42 118 44 130.5Q46 143 48 154L86 385H31L49 496H103L125 638H259L237 496H334L316 385H219L184 166Q179 134 188.5 116.5Q198 99 222 99Q233 99 244.5 103Q256 107 267 112Z" glyph-name="t" horiz-adv-x="322" unicode="t" /><glyph d="M273 114 280 16Q265 2 236 -5.5Q207 -13 177 -13Q150 -13 126.5 -7Q103 -1 85.5 13Q68 27 58 50.5Q48 74 48 109Q48 118 49 129.5Q50 141 52 153L66 238H11L24 318H78L90 385H35L52 496H106L129 638H263L240 496H340L323 385H224L213 318H312L299 238H200L188 166Q182 129 194 114Q206 99 226 99Q237 99 249.5 102.5Q262 106 273 114Z" glyph-name="tbar" horiz-adv-x="324" unicode="&#359;" /><glyph d="M360 553H280L316 750H415ZM267 112 275 13Q257 1 231 -6Q205 -13 177 -13Q117 -13 79.5 15.5Q42 44 42 107Q42 118 44 130.5Q46 143 48 154L86 385H31L49 496H103L125 638H259L237 496H334L316 385H219L184 166Q179 134 188.5 116.5Q198 99 222 99Q233 99 244.5 103Q256 107 267 112Z" glyph-name="tcaron" horiz-adv-x="332" unicode="&#357;" /><glyph d="M241 -132Q241 -189 205.5 -219Q170 -249 116 -249Q77 -249 44.5 -231.5Q12 -214 1 -172L65 -134Q80 -176 117 -176Q139 -176 150 -163.5Q161 -151 161 -134Q161 -116 146 -107Q131 -98 114 -104L95 -90L129 -8Q89 2 65.5 30Q42 58 42 107Q42 118 44 130.5Q46 143 48 154L86 385H31L49 496H103L125 638H259L237 496H334L316 385H219L184 166Q179 134 188.5 116.5Q198 99 222 99Q233 99 244.5 103Q256 107 267 112L275 13Q260 2 238.5 -4Q217 -10 193 -12L175 -52Q201 -56 221 -75.5Q241 -95 241 -132Z" glyph-name="tcedilla" horiz-adv-x="322" unicode="&#355;" /><glyph glyph-name="thinspace" horiz-adv-x="152" unicode="&#8201;" /><glyph d="M278 396Q246 396 220 361Q194 326 182 246Q179 228 178 212Q177 196 177 182Q177 138 191 117.5Q205 97 230 97Q265 97 287.5 133Q310 169 323 247Q327 268 328.5 283.5Q330 299 330 315Q330 396 278 396ZM152 47 116 -186H-20L121 700H256L215 437Q238 472 271.5 491Q305 510 340 510Q400 510 430.5 466Q461 422 461 337Q461 317 459 297.5Q457 278 454 254Q445 193 428 143.5Q411 94 385 59Q359 24 324 5Q289 -14 245 -14Q182 -14 152 47Z" glyph-name="thorn" horiz-adv-x="484" unicode="&#254;" /><glyph d="M24 0ZM24 144 135 193Q144 145 166 123.5Q188 102 223 102Q274 102 300 137Q326 172 326 224Q326 261 306.5 279Q287 297 252 297H203L222 415H270Q290 415 307 424Q324 433 336 448Q348 463 355 483Q362 503 362 525Q362 557 345 575.5Q328 594 296 594Q262 594 237.5 575.5Q213 557 193 516L94 563Q128 640 185 677Q242 714 329 714Q417 714 461 672Q505 630 505 559Q505 502 476.5 449Q448 396 392 361Q424 343 442 310.5Q460 278 460 229Q460 177 443 132.5Q426 88 394 55Q362 22 316.5 3.5Q271 -15 214 -15Q179 -15 147.5 -6Q116 3 91 22.5Q66 42 48.5 72Q31 102 24 144Z" glyph-name="three" horiz-adv-x="535" unicode="3" /><glyph d="M-4 144 107 193Q116 145 138 123.5Q160 102 195 102Q246 102 272 137Q298 172 298 224Q298 261 278.5 279Q259 297 224 297H175L194 415H242Q262 415 279 424Q296 433 308 448Q320 463 327 483Q334 503 334 525Q334 557 317 575.5Q300 594 268 594Q234 594 209.5 575.5Q185 557 165 516L66 563Q100 640 157 677Q214 714 301 714Q389 714 433 672Q477 630 477 559Q477 502 448.5 449Q420 396 364 361Q396 343 414 310.5Q432 278 432 229Q432 177 415 132.5Q398 88 366 55Q334 22 288.5 3.5Q243 -15 186 -15Q151 -15 119.5 -6Q88 3 63 22.5Q38 42 20.5 72Q3 102 -4 144Z" glyph-name="three.LP" horiz-adv-x="474" /><glyph d="M-28 42 84 95Q94 44 115.5 22.5Q137 1 171 1Q219 1 245.5 36Q272 71 272 125Q272 161 252.5 179Q233 197 198 197H148L167 315H215Q236 315 253.5 323.5Q271 332 283 347Q295 362 302 382Q309 402 309 424Q309 456 291 475.5Q273 495 242 495Q207 495 182.5 475Q158 455 140 415L40 460Q76 545 136.5 579.5Q197 614 277 614Q366 614 408.5 572Q451 530 451 462Q451 435 444.5 407Q438 379 423.5 352.5Q409 326 388 302Q367 278 339 260Q405 225 405 133Q405 82 389 37Q373 -8 342.5 -42Q312 -76 266.5 -95.5Q221 -115 161 -115Q88 -115 40 -76Q-8 -37 -28 42Z" glyph-name="three.OP" horiz-adv-x="459" /><glyph d="M15 42 127 95Q137 44 158.5 22.5Q180 1 214 1Q262 1 288.5 36Q315 71 315 125Q315 161 295.5 179Q276 197 241 197H191L210 315H258Q279 315 296.5 323.5Q314 332 326 347Q338 362 345 382Q352 402 352 424Q352 456 334 475.5Q316 495 285 495Q250 495 225.5 475Q201 455 183 415L83 460Q119 545 179.5 579.5Q240 614 320 614Q409 614 451.5 572Q494 530 494 462Q494 435 487.5 407Q481 379 466.5 352.5Q452 326 431 302Q410 278 382 260Q448 225 448 133Q448 82 432 37Q416 -8 385.5 -42Q355 -76 309.5 -95.5Q264 -115 204 -115Q131 -115 83 -76Q35 -37 15 42Z" glyph-name="three.OT" horiz-adv-x="535" /><glyph d="M0 0ZM-51 -114 26 -79Q32 -106 44 -117.5Q56 -129 76 -129Q102 -129 115 -112Q128 -95 128 -70Q128 -51 117 -41Q106 -31 88 -31H59L71 45H100Q122 45 135.5 62Q149 79 149 102Q149 138 114 138Q98 138 83.5 128.5Q69 119 59 97L-8 129Q30 221 139 221Q196 221 223 195Q250 169 250 127Q250 94 233 63Q216 32 181 11Q222 -13 222 -67Q222 -97 211 -123Q200 -149 180.5 -168Q161 -187 132.5 -198Q104 -209 70 -209Q25 -209 -7.5 -186.5Q-40 -164 -51 -114Z" glyph-name="three.inf" horiz-adv-x="298" /><glyph glyph-name="threeperemspace" horiz-adv-x="253" unicode="&#8196;" /><glyph d="M495 325 477 208H32L51 325Z" glyph-name="threequarteremdash" horiz-adv-x="522" /><glyph d="M30 0ZM30 379 107 414Q113 387 125 375.5Q137 364 157 364Q183 364 196 381Q209 398 209 423Q209 442 198 452Q187 462 169 462H140L152 538H181Q203 538 216.5 555Q230 572 230 595Q230 631 195 631Q179 631 164.5 621.5Q150 612 140 590L73 622Q111 714 220 714Q277 714 304 688Q331 662 331 620Q331 587 314 556Q297 525 262 504Q303 480 303 426Q303 396 292 370Q281 344 261.5 325Q242 306 213.5 295Q185 284 151 284Q106 284 73.5 306.5Q41 329 30 379ZM650 700 268 0H152L534 700ZM432 85 444 157 574 412H669L544 171H618L637 290H729L709 171H746L731 85H695L682 0H590L604 85Z" glyph-name="threequarters" horiz-adv-x="773" unicode="&#190;" /><glyph d="M30 285ZM30 380 107 415Q113 388 125 376.5Q137 365 157 365Q183 365 196 382Q209 399 209 424Q209 443 198 453Q187 463 169 463H140L152 539H181Q203 539 216.5 556Q230 573 230 596Q230 632 195 632Q179 632 164.5 622.5Q150 613 140 591L73 623Q111 715 220 715Q277 715 304 689Q331 663 331 621Q331 588 314 557Q297 526 262 505Q303 481 303 427Q303 397 292 371Q281 345 261.5 326Q242 307 213.5 296Q185 285 151 285Q106 285 73.5 307.5Q41 330 30 380Z" glyph-name="threesuperior" horiz-adv-x="300" unicode="&#179;" /><glyph d="M331 699H407Q404 664 394 641Q384 618 370 604Q356 590 340 584Q324 578 309 578Q292 578 278.5 583.5Q265 589 253.5 595.5Q242 602 231.5 607.5Q221 613 210 613Q197 613 191.5 602.5Q186 592 184 579H105Q108 613 118 636.5Q128 660 141.5 673.5Q155 687 171 693Q187 699 202 699Q220 699 234 693.5Q248 688 260 681.5Q272 675 282.5 669.5Q293 664 304 664Q318 664 323.5 674.5Q329 685 331 699Z" glyph-name="tilde" horiz-adv-x="459" unicode="&#732;" /><glyph d="M82 700H294L282 628H216L181 406H108L143 628H70ZM272 406 319 700H400L430 496L524 700H603L556 406H489L516 561L445 406H385L364 560L340 406Z" glyph-name="trademark" horiz-adv-x="567" unicode="&#8482;" /><glyph d="M39 0ZM39 0 56 103 284 368Q329 421 349.5 458.5Q370 496 370 529Q370 558 354 574Q338 590 309 590Q277 590 250 570.5Q223 551 198 504L99 552Q141 640 203 677Q265 714 341 714Q425 714 469 672.5Q513 631 513 559Q513 526 505 496.5Q497 467 479.5 435.5Q462 404 434 368Q406 332 366 286L224 122L460 127L440 0Z" glyph-name="two" horiz-adv-x="535" unicode="2" /><glyph d="M-8 0 9 103 237 368Q282 421 302.5 458.5Q323 496 323 529Q323 558 307 574Q291 590 262 590Q230 590 203 570.5Q176 551 151 504L52 552Q94 640 156 677Q218 714 294 714Q378 714 422 672.5Q466 631 466 559Q466 526 458 496.5Q450 467 432.5 435.5Q415 404 387 368Q359 332 319 286L177 122L413 127L393 0Z" glyph-name="two.LP" horiz-adv-x="456" /><glyph d="M-19 0 -4 89 189 295Q241 351 265.5 385Q290 419 290 447Q290 471 276 482.5Q262 494 239 494Q184 494 148 420L53 466Q92 547 148 580.5Q204 614 273 614Q345 614 387 580Q429 546 429 480Q429 451 420.5 424Q412 397 394 368.5Q376 340 348.5 307Q321 274 283 234L166 110L384 115L365 0Z" glyph-name="two.OP" horiz-adv-x="434" /><glyph d="M25 0 40 89 238 295Q293 352 318.5 385.5Q344 419 344 447Q344 471 329 482.5Q314 494 288 494Q259 494 234.5 476Q210 458 192 420L97 466Q136 547 194 580.5Q252 614 322 614Q397 614 440 580Q483 546 483 480Q483 451 474 424Q465 397 446.5 368.5Q428 340 399.5 307.5Q371 275 332 234L215 110L438 115L419 0Z" glyph-name="two.OT" horiz-adv-x="535" /><glyph d="M0 0ZM-50 -200 -38 -132 95 20Q121 48 132 68Q143 88 143 105Q143 119 135.5 127Q128 135 112 135Q96 135 81.5 125Q67 115 53 89L-17 121Q8 175 48 198Q88 221 137 221Q188 221 216.5 196Q245 171 245 126Q245 106 240 88.5Q235 71 223.5 52Q212 33 194.5 10.5Q177 -12 152 -40L84 -117L213 -113L198 -200Z" glyph-name="two.inf" horiz-adv-x="296" /><glyph d="M27 294ZM27 294 39 362 172 514Q198 542 209 562Q220 582 220 599Q220 613 212.5 621Q205 629 189 629Q173 629 158.5 619Q144 609 130 583L60 615Q85 669 125 692Q165 715 214 715Q265 715 293.5 690Q322 665 322 620Q322 600 317 582.5Q312 565 300.5 546Q289 527 271.5 504.5Q254 482 229 454L161 377L290 381L275 294Z" glyph-name="twosuperior" horiz-adv-x="297" unicode="&#178;" /><glyph d="M147 -13Q85 -13 57 24.5Q29 62 29 125Q29 139 30 154Q31 169 33 184L83 496H220L173 204Q170 181 170 165Q170 109 214 109Q244 109 267 140.5Q290 172 302 238L343 496H479L400 0H289L292 83Q264 34 226.5 10.5Q189 -13 147 -13Z" glyph-name="u" horiz-adv-x="488" unicode="u" /><glyph d="M29 0ZM318 703H457L456 696L338 571H233V576ZM147 -13Q85 -13 57 24.5Q29 62 29 125Q29 139 30 154Q31 169 33 184L83 496H220L173 204Q170 181 170 165Q170 109 214 109Q244 109 267 140.5Q290 172 302 238L343 496H479L400 0H289L292 83Q264 34 226.5 10.5Q189 -13 147 -13Z" glyph-name="uacute" horiz-adv-x="488" unicode="&#250;" /><glyph d="M29 0ZM147 -13Q85 -13 57 24.5Q29 62 29 125Q29 139 30 154Q31 169 33 184L83 496H220L173 204Q170 181 170 165Q170 109 214 109Q244 109 267 140.5Q290 172 302 238L343 496H479L400 0H289L292 83Q264 34 226.5 10.5Q189 -13 147 -13ZM367 702H447Q441 663 428 636.5Q415 610 395.5 594Q376 578 350 571Q324 564 292 564Q260 564 236 571Q212 578 197 594Q182 610 176.5 636.5Q171 663 177 702H258Q252 666 262.5 653Q273 640 301 640Q330 640 346 653Q362 666 367 702Z" glyph-name="ubreve" horiz-adv-x="488" unicode="&#365;" /><glyph d="M29 0ZM257 703H367L439 575V571H335L300 630L248 571H143L144 575ZM147 -13Q85 -13 57 24.5Q29 62 29 125Q29 139 30 154Q31 169 33 184L83 496H220L173 204Q170 181 170 165Q170 109 214 109Q244 109 267 140.5Q290 172 302 238L343 496H479L400 0H289L292 83Q264 34 226.5 10.5Q189 -13 147 -13Z" glyph-name="ucircumflex" horiz-adv-x="488" unicode="&#251;" /><glyph d="M29 0ZM147 630Q147 668 167 692Q187 716 225 716Q286 716 286 658Q286 620 266 596Q246 572 206 572Q147 572 147 630ZM328 630Q328 668 347.5 692Q367 716 406 716Q466 716 466 658Q466 620 446.5 596Q427 572 387 572Q328 572 328 630ZM147 -13Q85 -13 57 24.5Q29 62 29 125Q29 139 30 154Q31 169 33 184L83 496H220L173 204Q170 181 170 165Q170 109 214 109Q244 109 267 140.5Q290 172 302 238L343 496H479L400 0H289L292 83Q264 34 226.5 10.5Q189 -13 147 -13Z" glyph-name="udieresis" horiz-adv-x="488" unicode="&#252;" /><glyph d="M29 0ZM147 -13Q85 -13 57 24.5Q29 62 29 125Q29 139 30 154Q31 169 33 184L83 496H220L173 204Q170 181 170 165Q170 109 214 109Q244 109 267 140.5Q290 172 302 238L343 496H479L400 0H289L292 83Q264 34 226.5 10.5Q189 -13 147 -13ZM248 572 167 697 168 704H313L352 577V572Z" glyph-name="ugrave" horiz-adv-x="488" unicode="&#249;" /><glyph d="M29 0ZM147 -13Q85 -13 57 24.5Q29 62 29 125Q29 139 30 154Q31 169 33 184L83 496H220L173 204Q170 181 170 165Q170 109 214 109Q244 109 267 140.5Q290 172 302 238L343 496H479L400 0H289L292 83Q264 34 226.5 10.5Q189 -13 147 -13ZM411 703H544L543 697L422 571H331V576ZM235 703H368L367 697L245 571H154V576Z" glyph-name="uhungarumlaut" horiz-adv-x="488" unicode="&#369;" /><glyph d="M29 0ZM147 -13Q85 -13 57 24.5Q29 62 29 125Q29 139 30 154Q31 169 33 184L83 496H220L173 204Q170 181 170 165Q170 109 214 109Q244 109 267 140.5Q290 172 302 238L343 496H479L400 0H289L292 83Q264 34 226.5 10.5Q189 -13 147 -13ZM422 675 410 590H185L198 675Z" glyph-name="umacron" horiz-adv-x="488" unicode="&#363;" /><glyph d="M325 0 306 -115H-60L-41 0Z" glyph-name="underscore" horiz-adv-x="364" unicode="_" /><glyph glyph-name="uni00A0" horiz-adv-x="134" unicode="&#160;" /><glyph d="M284 325 266 208H32L50 325Z" glyph-name="uni00AD" horiz-adv-x="312" unicode="&#173;" /><glyph d="M59 0ZM81 700H534L514 569H357L267 0H126L216 569H59ZM111 -324 90 -272Q116 -261 137.5 -241Q159 -221 167 -195Q141 -196 125 -181.5Q109 -167 110 -138Q111 -101 132 -78.5Q153 -56 190 -56Q251 -56 251 -125Q250 -159 239 -191.5Q228 -224 209.5 -251Q191 -278 165.5 -297Q140 -316 111 -324Z" glyph-name="uni021A" horiz-adv-x="479" unicode="&#538;" /><glyph d="M31 0ZM69 -324 48 -272Q74 -261 95.5 -241Q117 -221 125 -195Q99 -196 83 -181.5Q67 -167 68 -138Q69 -101 90 -78.5Q111 -56 148 -56Q209 -56 209 -125Q208 -159 197 -191.5Q186 -224 167.5 -251Q149 -278 123.5 -297Q98 -316 69 -324ZM267 112 275 13Q257 1 231 -6Q205 -13 177 -13Q117 -13 79.5 15.5Q42 44 42 107Q42 118 44 130.5Q46 143 48 154L86 385H31L49 496H103L125 638H259L237 496H334L316 385H219L184 166Q179 134 188.5 116.5Q198 99 222 99Q233 99 244.5 103Q256 107 267 112Z" glyph-name="uni021B" horiz-adv-x="322" unicode="&#539;" /><glyph d="M786 325 768 208H32L50 325Z" glyph-name="uni2015" horiz-adv-x="814" unicode="&#8213;" /><glyph d="M58 285ZM242 715Q363 715 363 574Q363 542 357 500Q340 390 297.5 337.5Q255 285 180 285Q117 285 87.5 319.5Q58 354 58 425Q58 458 64 500Q81 610 123 662.5Q165 715 242 715ZM233 633Q207 633 190 604Q173 575 162 500Q158 477 156 458.5Q154 440 154 426Q154 393 163.5 379.5Q173 366 190 366Q213 366 230.5 395Q248 424 260 500Q264 523 265.5 541Q267 559 267 574Q267 606 258.5 619.5Q250 633 233 633Z" glyph-name="uni2070" horiz-adv-x="343" unicode="&#8304;" /><glyph d="M39 294ZM39 379 51 451 181 706H276L151 465H225L244 584H336L316 465H353L338 379H302L289 294H197L211 379Z" glyph-name="uni2074" horiz-adv-x="334" unicode="&#8308;" /><glyph d="M27 285ZM180 624 164 547Q174 553 188.5 557Q203 561 220 561Q261 561 286.5 537Q312 513 312 459Q312 419 299.5 386.5Q287 354 265 331.5Q243 309 212.5 297Q182 285 146 285Q99 285 69 305.5Q39 326 27 373L105 413Q110 386 122.5 375.5Q135 365 154 365Q183 365 199 388Q215 411 215 444Q215 467 204.5 477.5Q194 488 178 488Q150 488 129 462L66 493L115 706H343L329 624Z" glyph-name="uni2075" horiz-adv-x="304" unicode="&#8309;" /><glyph d="M57 285ZM361 635 284 597Q281 617 272 626.5Q263 636 245 636Q207 636 188.5 601.5Q170 567 159 502L158 495Q172 521 192.5 537Q213 553 244 553Q282 553 306 528Q330 503 330 452Q330 418 320.5 387.5Q311 357 292.5 334.5Q274 312 246.5 298.5Q219 285 183 285Q121 285 89 320Q57 355 57 430Q57 446 58 462.5Q59 479 62 497Q78 602 122.5 658.5Q167 715 246 715Q344 715 361 635ZM203 481Q182 481 168.5 460Q155 439 155 408Q155 387 163 375Q171 363 188 363Q211 363 222.5 385.5Q234 408 234 436Q234 481 203 481Z" glyph-name="uni2076" horiz-adv-x="325" unicode="&#8310;" /><glyph d="M72 294ZM72 294Q91 409 134.5 491Q178 573 229 620L72 617L87 706H339L327 634Q297 602 274.5 567.5Q252 533 234.5 492Q217 451 204 402.5Q191 354 182 294Z" glyph-name="uni2077" horiz-adv-x="272" unicode="&#8311;" /><glyph d="M47 285ZM317 431Q317 400 308 373.5Q299 347 280 327.5Q261 308 232.5 296.5Q204 285 165 285Q106 285 76.5 312Q47 339 47 387Q47 431 67 463Q87 495 122 511Q92 536 92 583Q92 610 100.5 634Q109 658 126.5 676Q144 694 170 704.5Q196 715 232 715Q283 715 310 690.5Q337 666 337 621Q337 584 321.5 555.5Q306 527 277 509Q297 498 307 477.5Q317 457 317 431ZM251 600Q251 617 244 628Q237 639 220 639Q199 639 187 621.5Q175 604 175 583Q175 568 182.5 557Q190 546 206 546Q225 546 238 561.5Q251 577 251 600ZM225 421Q225 438 216.5 450.5Q208 463 191 463Q169 463 155 445Q141 427 141 401Q141 383 149.5 370.5Q158 358 176 358Q198 358 211.5 377Q225 396 225 421Z" glyph-name="uni2078" horiz-adv-x="316" unicode="&#8312;" /><glyph d="M36 285ZM196 514Q219 514 232 537Q245 560 245 589Q245 610 237 622.5Q229 635 214 635Q191 635 179 612.5Q167 590 167 558Q167 538 174 526Q181 514 196 514ZM154 285Q109 285 78 300.5Q47 316 36 351L107 399Q114 379 124.5 370.5Q135 362 154 362Q175 362 189 371Q203 380 213 397.5Q223 415 230 439.5Q237 464 242 495L243 503Q229 473 207.5 456.5Q186 440 156 440Q118 440 95 466.5Q72 493 72 544Q72 578 81 609.5Q90 641 108.5 664Q127 687 155 701Q183 715 221 715Q281 715 313 679.5Q345 644 345 570Q345 550 343 530Q341 510 337 489Q319 390 274 337.5Q229 285 154 285Z" glyph-name="uni2079" horiz-adv-x="323" unicode="&#8313;" /><glyph d="M51 354ZM172 354H101L115 443H51L62 511H127L142 601H213L198 511H261L250 443H187Z" glyph-name="uni207A" horiz-adv-x="244" unicode="&#8314;" /><glyph d="M51 442ZM261 512 250 442H51L63 512Z" glyph-name="uni207B" horiz-adv-x="244" unicode="&#8315;" /><glyph d="M44 392ZM269 560 258 489H59L70 560ZM254 462 243 392H44L55 462Z" glyph-name="uni207C" horiz-adv-x="244" unicode="&#8316;" /><glyph d="M38 211ZM165 291 140 211Q38 235 38 383Q38 404 40 428Q42 452 46 478Q84 716 218 723L220 640Q201 637 186 628Q171 619 158.5 599.5Q146 580 136 549Q126 518 119 472Q115 449 113.5 429Q112 409 112 392Q112 345 125.5 322Q139 299 165 291Z" glyph-name="uni207D" horiz-adv-x="180" unicode="&#8317;" /><glyph d="M19 211ZM74 643 99 723Q202 699 202 551Q202 530 200 506Q198 482 194 456Q156 219 21 211L19 294Q38 297 53 306Q68 315 80.5 334.5Q93 354 102.5 385Q112 416 120 462Q124 485 125.5 505Q127 525 127 542Q127 589 113.5 612Q100 635 74 643Z" glyph-name="uni207E" horiz-adv-x="180" unicode="&#8318;" /><glyph d="M191 421Q312 421 312 280Q312 248 306 206Q289 96 246.5 43.5Q204 -9 129 -9Q66 -9 36.5 25.5Q7 60 7 131Q7 164 13 206Q30 316 72 368.5Q114 421 191 421ZM182 339Q156 339 139 310Q122 281 111 206Q107 183 105 164.5Q103 146 103 132Q103 99 112.5 85.5Q122 72 139 72Q162 72 179.5 101Q197 130 209 206Q213 229 214.5 247Q216 265 216 280Q216 312 207.5 325.5Q199 339 182 339Z" glyph-name="uni2080" horiz-adv-x="332" unicode="&#8320;" /><glyph d="M128 0H30L77 291L39 266L17 347L131 417H196Z" glyph-name="uni2081" horiz-adv-x="206" unicode="&#8321;" /><glyph d="M-20 0 -8 68 125 220Q151 248 162 268Q173 288 173 305Q173 319 165.5 327Q158 335 142 335Q126 335 111.5 325Q97 315 83 289L13 321Q38 375 78 398Q118 421 167 421Q218 421 246.5 396Q275 371 275 326Q275 306 270 288.5Q265 271 253.5 252Q242 233 224.5 210.5Q207 188 182 160L114 83L243 87L228 0Z" glyph-name="uni2082" horiz-adv-x="284" unicode="&#8322;" /><glyph d="M-20 86 57 121Q63 94 75 82.5Q87 71 107 71Q133 71 146 88Q159 105 159 130Q159 149 148 159Q137 169 119 169H90L102 245H131Q153 245 166.5 262Q180 279 180 302Q180 338 145 338Q129 338 114.5 328.5Q100 319 90 297L23 329Q61 421 170 421Q227 421 254 395Q281 369 281 327Q281 294 264 263Q247 232 212 211Q253 187 253 133Q253 103 242 77Q231 51 211.5 32Q192 13 163.5 2Q135 -9 101 -9Q56 -9 23.5 13.5Q-9 36 -20 86Z" glyph-name="uni2083" horiz-adv-x="292" unicode="&#8323;" /><glyph d="M-12 85 0 157 130 412H225L100 171H174L193 290H285L265 171H302L287 85H251L238 0H146L160 85Z" glyph-name="uni2084" horiz-adv-x="329" unicode="&#8324;" /><glyph d="M130 330 114 253Q124 259 138.5 263Q153 267 170 267Q211 267 236.5 243Q262 219 262 165Q262 125 249.5 92.5Q237 60 215 37.5Q193 15 162.5 3Q132 -9 96 -9Q49 -9 19 11.5Q-11 32 -23 79L55 119Q60 92 72.5 81.5Q85 71 104 71Q133 71 149 94Q165 117 165 150Q165 173 154.5 183.5Q144 194 128 194Q100 194 79 168L16 199L65 412H293L279 330Z" glyph-name="uni2085" horiz-adv-x="304" unicode="&#8325;" /><glyph d="M311 341 234 303Q231 323 222 332.5Q213 342 195 342Q157 342 138.5 307.5Q120 273 109 208L108 201Q122 227 142.5 243Q163 259 194 259Q232 259 256 234Q280 209 280 158Q280 124 270.5 93.5Q261 63 242.5 40.5Q224 18 196.5 4.5Q169 -9 133 -9Q71 -9 39 26Q7 61 7 136Q7 152 8 168.5Q9 185 12 203Q28 308 72.5 364.5Q117 421 196 421Q294 421 311 341ZM153 187Q132 187 118.5 166Q105 145 105 114Q105 93 113 81Q121 69 138 69Q161 69 172.5 91.5Q184 114 184 142Q184 187 153 187Z" glyph-name="uni2086" horiz-adv-x="315" unicode="&#8326;" /><glyph d="M22 0Q41 115 84.5 197Q128 279 179 326L22 323L37 412H289L277 340Q247 308 224.5 273.5Q202 239 184.5 198Q167 157 154 108.5Q141 60 132 0Z" glyph-name="uni2087" horiz-adv-x="269" unicode="&#8327;" /><glyph d="M267 137Q267 106 258 79.5Q249 53 230 33.5Q211 14 182.5 2.5Q154 -9 115 -9Q56 -9 26.5 18Q-3 45 -3 93Q-3 137 17 169Q37 201 72 217Q42 242 42 289Q42 316 50.5 340Q59 364 76.5 382Q94 400 120 410.5Q146 421 182 421Q233 421 260 396.5Q287 372 287 327Q287 290 271.5 261.5Q256 233 227 215Q247 204 257 183.5Q267 163 267 137ZM201 306Q201 323 194 334Q187 345 170 345Q149 345 137 327.5Q125 310 125 289Q125 274 132.5 263Q140 252 156 252Q175 252 188 267.5Q201 283 201 306ZM175 127Q175 144 166.5 156.5Q158 169 141 169Q119 169 105 151Q91 133 91 107Q91 89 99.5 76.5Q108 64 126 64Q148 64 161.5 83Q175 102 175 127Z" glyph-name="uni2088" horiz-adv-x="310" unicode="&#8328;" /><glyph d="M146 220Q169 220 182 243Q195 266 195 295Q195 316 187 328.5Q179 341 164 341Q141 341 129 318.5Q117 296 117 264Q117 244 124 232Q131 220 146 220ZM104 -9Q59 -9 28 6.5Q-3 22 -14 57L57 105Q64 85 74.5 76.5Q85 68 104 68Q125 68 139 77Q153 86 163 103.5Q173 121 180 145.5Q187 170 192 201L193 209Q179 179 157.5 162.5Q136 146 106 146Q68 146 45 172.5Q22 199 22 250Q22 284 31 315.5Q40 347 58.5 370Q77 393 105 407Q133 421 171 421Q231 421 263 385.5Q295 350 295 276Q295 256 293 236Q291 216 287 195Q269 96 224 43.5Q179 -9 104 -9Z" glyph-name="uni2089" horiz-adv-x="313" unicode="&#8329;" /><glyph d="M125 58H54L68 147H4L15 215H80L95 305H166L151 215H214L203 147H140Z" glyph-name="uni208A" horiz-adv-x="244" unicode="&#8330;" /><glyph d="M214 216 203 146H4L16 216Z" glyph-name="uni208B" horiz-adv-x="244" unicode="&#8331;" /><glyph d="M222 264 211 193H12L23 264ZM207 166 196 96H-3L8 166Z" glyph-name="uni208C" horiz-adv-x="244" unicode="&#8332;" /><glyph d="M118 -7 93 -87Q-9 -63 -9 85Q-9 106 -7 130Q-5 154 -1 180Q37 418 171 425L173 342Q154 339 139 330Q124 321 111.5 301.5Q99 282 89 251Q79 220 72 174Q68 151 66.5 131Q65 111 65 94Q65 47 78.5 24Q92 1 118 -7Z" glyph-name="uni208D" horiz-adv-x="180" unicode="&#8333;" /><glyph d="M27 345 52 425Q155 401 155 253Q155 232 153 208Q151 184 147 158Q109 -79 -26 -87L-28 -4Q-9 -1 6 8Q21 17 33.5 36.5Q46 56 55.5 87Q65 118 73 164Q77 187 78.5 207Q80 227 80 244Q80 291 66.5 314Q53 337 27 345Z" glyph-name="uni208E" horiz-adv-x="180" unicode="&#8334;" /><glyph d="M69 0ZM180 293H82L129 584L91 559L69 640L183 710H248ZM577 700 195 0H79L461 700ZM388 86 465 121Q471 94 483 82.5Q495 71 515 71Q541 71 554 88Q567 105 567 130Q567 149 556 159Q545 169 527 169H498L510 245H539Q561 245 574.5 262Q588 279 588 302Q588 338 553 338Q537 338 522.5 328.5Q508 319 498 297L431 329Q469 421 578 421Q635 421 662 395Q689 369 689 327Q689 294 672 263Q655 232 620 211Q661 187 661 133Q661 103 650 77Q639 51 619.5 32Q600 13 571.5 2Q543 -9 509 -9Q464 -9 431.5 13.5Q399 36 388 86Z" glyph-name="uni2153" horiz-adv-x="701" unicode="&#8531;" /><glyph d="M27 0ZM480 86 557 121Q563 94 575 82.5Q587 71 607 71Q633 71 646 88Q659 105 659 130Q659 149 648 159Q637 169 619 169H590L602 245H631Q653 245 666.5 262Q680 279 680 302Q680 338 645 338Q629 338 614.5 328.5Q600 319 590 297L523 329Q561 421 670 421Q727 421 754 395Q781 369 781 327Q781 294 764 263Q747 232 712 211Q753 187 753 133Q753 103 742 77Q731 51 711.5 32Q692 13 663.5 2Q635 -9 601 -9Q556 -9 523.5 13.5Q491 36 480 86ZM27 293 39 361 172 513Q198 541 209 561Q220 581 220 598Q220 612 212.5 620Q205 628 189 628Q173 628 158.5 618Q144 608 130 582L60 614Q85 668 125 691Q165 714 214 714Q265 714 293.5 689Q322 664 322 619Q322 599 317 581.5Q312 564 300.5 545Q289 526 271.5 503.5Q254 481 229 453L161 376L290 380L275 293ZM667 700 285 0H169L551 700Z" glyph-name="uni2154" horiz-adv-x="792" unicode="&#8532;" /><glyph d="M68 0ZM179 293H81L128 584L90 559L68 640L182 710H247ZM545 330 529 253Q539 259 553.5 263Q568 267 585 267Q626 267 651.5 243Q677 219 677 165Q677 125 664.5 92.5Q652 60 630 37.5Q608 15 577.5 3Q547 -9 511 -9Q464 -9 434 11.5Q404 32 392 79L470 119Q475 92 487.5 81.5Q500 71 519 71Q548 71 564 94Q580 117 580 150Q580 173 569.5 183.5Q559 194 543 194Q515 194 494 168L431 199L480 412H708L694 330ZM577 700 195 0H79L461 700Z" glyph-name="uni2155" horiz-adv-x="719" unicode="&#8533;" /><glyph d="M29 0ZM29 293 41 361 174 513Q200 541 211 561Q222 581 222 598Q222 612 214.5 620Q207 628 191 628Q175 628 160.5 618Q146 608 132 582L62 614Q87 668 127 691Q167 714 216 714Q267 714 295.5 689Q324 664 324 619Q324 599 319 581.5Q314 564 302.5 545Q291 526 273.5 503.5Q256 481 231 453L163 376L292 380L277 293ZM635 330 619 253Q629 259 643.5 263Q658 267 675 267Q716 267 741.5 243Q767 219 767 165Q767 125 754.5 92.5Q742 60 720 37.5Q698 15 667.5 3Q637 -9 601 -9Q554 -9 524 11.5Q494 32 482 79L560 119Q565 92 577.5 81.5Q590 71 609 71Q638 71 654 94Q670 117 670 150Q670 173 659.5 183.5Q649 194 633 194Q605 194 584 168L521 199L570 412H798L784 330ZM667 700 285 0H169L551 700Z" glyph-name="uni2156" horiz-adv-x="808" unicode="&#8534;" /><glyph d="M30 0ZM30 379 107 414Q113 387 125 375.5Q137 364 157 364Q183 364 196 381Q209 398 209 423Q209 442 198 452Q187 462 169 462H140L152 538H181Q203 538 216.5 555Q230 572 230 595Q230 631 195 631Q179 631 164.5 621.5Q150 612 140 590L73 622Q111 714 220 714Q277 714 304 688Q331 662 331 620Q331 587 314 556Q297 525 262 504Q303 480 303 426Q303 396 292 370Q281 344 261.5 325Q242 306 213.5 295Q185 284 151 284Q106 284 73.5 306.5Q41 329 30 379ZM616 330 600 253Q610 259 624.5 263Q639 267 656 267Q697 267 722.5 243Q748 219 748 165Q748 125 735.5 92.5Q723 60 701 37.5Q679 15 648.5 3Q618 -9 582 -9Q535 -9 505 11.5Q475 32 463 79L541 119Q546 92 558.5 81.5Q571 71 590 71Q619 71 635 94Q651 117 651 150Q651 173 640.5 183.5Q630 194 614 194Q586 194 565 168L502 199L551 412H779L765 330ZM648 700 266 0H150L532 700Z" glyph-name="uni2157" horiz-adv-x="789" unicode="&#8535;" /><glyph d="M39 0ZM653 330 637 253Q647 259 661.5 263Q676 267 693 267Q734 267 759.5 243Q785 219 785 165Q785 125 772.5 92.5Q760 60 738 37.5Q716 15 685.5 3Q655 -9 619 -9Q572 -9 542 11.5Q512 32 500 79L578 119Q583 92 595.5 81.5Q608 71 627 71Q656 71 672 94Q688 117 688 150Q688 173 677.5 183.5Q667 194 651 194Q623 194 602 168L539 199L588 412H816L802 330ZM685 700 303 0H187L569 700ZM39 379 51 451 181 706H276L151 465H225L244 584H336L316 465H353L338 379H302L289 294H197L211 379Z" glyph-name="uni2158" horiz-adv-x="826" unicode="&#8536;" /><glyph d="M68 0ZM179 293H81L128 584L90 559L68 640L182 710H247ZM708 341 631 303Q628 323 619 332.5Q610 342 592 342Q554 342 535.5 307.5Q517 273 506 208L505 201Q519 227 539.5 243Q560 259 591 259Q629 259 653 234Q677 209 677 158Q677 124 667.5 93.5Q658 63 639.5 40.5Q621 18 593.5 4.5Q566 -9 530 -9Q468 -9 436 26Q404 61 404 136Q404 152 405 168.5Q406 185 409 203Q425 308 469.5 364.5Q514 421 593 421Q691 421 708 341ZM550 187Q529 187 515.5 166Q502 145 502 114Q502 93 510 81Q518 69 535 69Q558 69 569.5 91.5Q581 114 581 142Q581 187 550 187ZM577 700 195 0H79L461 700Z" glyph-name="uni2159" horiz-adv-x="712" unicode="&#8537;" /><glyph d="M27 0ZM180 623 164 546Q174 552 188.5 556Q203 560 220 560Q261 560 286.5 536Q312 512 312 458Q312 418 299.5 385.5Q287 353 265 330.5Q243 308 212.5 296Q182 284 146 284Q99 284 69 304.5Q39 325 27 372L105 412Q110 385 122.5 374.5Q135 364 154 364Q183 364 199 387Q215 410 215 443Q215 466 204.5 476.5Q194 487 178 487Q150 487 129 461L66 492L115 705H343L329 623ZM778 341 701 303Q698 323 689 332.5Q680 342 662 342Q624 342 605.5 307.5Q587 273 576 208L575 201Q589 227 609.5 243Q630 259 661 259Q699 259 723 234Q747 209 747 158Q747 124 737.5 93.5Q728 63 709.5 40.5Q691 18 663.5 4.5Q636 -9 600 -9Q538 -9 506 26Q474 61 474 136Q474 152 475 168.5Q476 185 479 203Q495 308 539.5 364.5Q584 421 663 421Q761 421 778 341ZM620 187Q599 187 585.5 166Q572 145 572 114Q572 93 580 81Q588 69 605 69Q628 69 639.5 91.5Q651 114 651 142Q651 187 620 187ZM648 700 266 0H150L532 700Z" glyph-name="uni215A" horiz-adv-x="783" unicode="&#8538;" /><glyph d="M69 0ZM180 293H82L129 584L91 559L69 640L183 710H248ZM578 700 196 0H80L462 700ZM669 137Q669 106 660 79.5Q651 53 632 33.5Q613 14 584.5 2.5Q556 -9 517 -9Q458 -9 428.5 18Q399 45 399 93Q399 137 419 169Q439 201 474 217Q444 242 444 289Q444 316 452.5 340Q461 364 478.5 382Q496 400 522 410.5Q548 421 584 421Q635 421 662 396.5Q689 372 689 327Q689 290 673.5 261.5Q658 233 629 215Q649 204 659 183.5Q669 163 669 137ZM603 306Q603 323 596 334Q589 345 572 345Q551 345 539 327.5Q527 310 527 289Q527 274 534.5 263Q542 252 558 252Q577 252 590 267.5Q603 283 603 306ZM577 127Q577 144 568.5 156.5Q560 169 543 169Q521 169 507 151Q493 133 493 107Q493 89 501.5 76.5Q510 64 528 64Q550 64 563.5 83Q577 102 577 127Z" glyph-name="uni215B" horiz-adv-x="711" unicode="&#8539;" /><glyph d="M30 0ZM30 379 107 414Q113 387 125 375.5Q137 364 157 364Q183 364 196 381Q209 398 209 423Q209 442 198 452Q187 462 169 462H140L152 538H181Q203 538 216.5 555Q230 572 230 595Q230 631 195 631Q179 631 164.5 621.5Q150 612 140 590L73 622Q111 714 220 714Q277 714 304 688Q331 662 331 620Q331 587 314 556Q297 525 262 504Q303 480 303 426Q303 396 292 370Q281 344 261.5 325Q242 306 213.5 295Q185 284 151 284Q106 284 73.5 306.5Q41 329 30 379ZM737 137Q737 106 728 79.5Q719 53 700 33.5Q681 14 652.5 2.5Q624 -9 585 -9Q526 -9 496.5 18Q467 45 467 93Q467 137 487 169Q507 201 542 217Q512 242 512 289Q512 316 520.5 340Q529 364 546.5 382Q564 400 590 410.5Q616 421 652 421Q703 421 730 396.5Q757 372 757 327Q757 290 741.5 261.5Q726 233 697 215Q717 204 727 183.5Q737 163 737 137ZM671 306Q671 323 664 334Q657 345 640 345Q619 345 607 327.5Q595 310 595 289Q595 274 602.5 263Q610 252 626 252Q645 252 658 267.5Q671 283 671 306ZM645 127Q645 144 636.5 156.5Q628 169 611 169Q589 169 575 151Q561 133 561 107Q561 89 569.5 76.5Q578 64 596 64Q618 64 631.5 83Q645 102 645 127ZM648 700 266 0H150L532 700Z" glyph-name="uni215C" horiz-adv-x="780" unicode="&#8540;" /><glyph d="M27 0ZM738 137Q738 106 729 79.5Q720 53 701 33.5Q682 14 653.5 2.5Q625 -9 586 -9Q527 -9 497.5 18Q468 45 468 93Q468 137 488 169Q508 201 543 217Q513 242 513 289Q513 316 521.5 340Q530 364 547.5 382Q565 400 591 410.5Q617 421 653 421Q704 421 731 396.5Q758 372 758 327Q758 290 742.5 261.5Q727 233 698 215Q718 204 728 183.5Q738 163 738 137ZM672 306Q672 323 665 334Q658 345 641 345Q620 345 608 327.5Q596 310 596 289Q596 274 603.5 263Q611 252 627 252Q646 252 659 267.5Q672 283 672 306ZM646 127Q646 144 637.5 156.5Q629 169 612 169Q590 169 576 151Q562 133 562 107Q562 89 570.5 76.5Q579 64 597 64Q619 64 632.5 83Q646 102 646 127ZM180 623 164 546Q174 552 188.5 556Q203 560 220 560Q261 560 286.5 536Q312 512 312 458Q312 418 299.5 385.5Q287 353 265 330.5Q243 308 212.5 296Q182 284 146 284Q99 284 69 304.5Q39 325 27 372L105 412Q110 385 122.5 374.5Q135 364 154 364Q183 364 199 387Q215 410 215 443Q215 466 204.5 476.5Q194 487 178 487Q150 487 129 461L66 492L115 705H343L329 623ZM649 700 267 0H151L533 700Z" glyph-name="uni215D" horiz-adv-x="781" unicode="&#8541;" /><glyph d="M72 0ZM683 137Q683 106 674 79.5Q665 53 646 33.5Q627 14 598.5 2.5Q570 -9 531 -9Q472 -9 442.5 18Q413 45 413 93Q413 137 433 169Q453 201 488 217Q458 242 458 289Q458 316 466.5 340Q475 364 492.5 382Q510 400 536 410.5Q562 421 598 421Q649 421 676 396.5Q703 372 703 327Q703 290 687.5 261.5Q672 233 643 215Q663 204 673 183.5Q683 163 683 137ZM617 306Q617 323 610 334Q603 345 586 345Q565 345 553 327.5Q541 310 541 289Q541 274 548.5 263Q556 252 572 252Q591 252 604 267.5Q617 283 617 306ZM591 127Q591 144 582.5 156.5Q574 169 557 169Q535 169 521 151Q507 133 507 107Q507 89 515.5 76.5Q524 64 542 64Q564 64 577.5 83Q591 102 591 127ZM72 293Q91 408 134.5 490Q178 572 229 619L72 616L87 705H339L327 633Q297 601 274.5 566.5Q252 532 234.5 491Q217 450 204 401.5Q191 353 182 293ZM593 700 211 0H95L477 700Z" glyph-name="uni215E" horiz-adv-x="726" unicode="&#8542;" /><glyph d="M69 0ZM180 293H82L129 584L91 559L69 640L183 710H248ZM576 700 194 0H78L460 700Z" glyph-name="uni215F" horiz-adv-x="660" unicode="&#8543;" /><glyph d="M415 -196Q392 -212 370.5 -219.5Q349 -227 323 -227Q280 -227 250.5 -202.5Q221 -178 221 -122Q221 -74 240 -37.5Q259 -1 290 21L292 83Q264 34 226.5 10.5Q189 -13 147 -13Q85 -13 57 24.5Q29 62 29 125Q29 139 30 154Q31 169 33 184L83 496H220L173 204Q170 181 170 165Q170 109 214 109Q244 109 267 140.5Q290 172 302 238L343 496H479L400 0H379Q340 -4 320 -32.5Q300 -61 300 -94Q300 -120 312.5 -131Q325 -142 343 -142Q370 -142 389 -125Z" glyph-name="uogonek" horiz-adv-x="488" unicode="&#371;" /><glyph d="M29 0ZM318 753Q353 753 376 732Q399 711 399 670Q399 619 369 585Q339 551 291 551Q254 551 230.5 572Q207 593 207 635Q207 684 236.5 718.5Q266 753 318 753ZM311 698Q289 698 277 682Q265 666 265 643Q265 606 297 606Q317 606 329.5 623Q342 640 342 663Q342 680 333.5 689Q325 698 311 698ZM147 -13Q85 -13 57 24.5Q29 62 29 125Q29 139 30 154Q31 169 33 184L83 496H220L173 204Q170 181 170 165Q170 109 214 109Q244 109 267 140.5Q290 172 302 238L343 496H479L400 0H289L292 83Q264 34 226.5 10.5Q189 -13 147 -13Z" glyph-name="uring" horiz-adv-x="488" unicode="&#367;" /><glyph d="M29 0ZM147 -13Q85 -13 57 24.5Q29 62 29 125Q29 139 30 154Q31 169 33 184L83 496H220L173 204Q170 181 170 165Q170 109 214 109Q244 109 267 140.5Q290 172 302 238L343 496H479L400 0H289L292 83Q264 34 226.5 10.5Q189 -13 147 -13ZM376 699H452Q449 664 439 641Q429 618 415 604Q401 590 385 584Q369 578 354 578Q337 578 323.5 583.5Q310 589 298.5 595.5Q287 602 276.5 607.5Q266 613 255 613Q242 613 236.5 602.5Q231 592 229 579H150Q153 613 163 636.5Q173 660 186.5 673.5Q200 687 216 693Q232 699 247 699Q265 699 279 693.5Q293 688 305 681.5Q317 675 327.5 669.5Q338 664 349 664Q363 664 368.5 674.5Q374 685 376 699Z" glyph-name="utilde" horiz-adv-x="488" unicode="&#361;" /><glyph d="M44 496H184L204 161L332 496H471L248 0H109Z" glyph-name="v" horiz-adv-x="440" unicode="v" /><glyph d="M285 494H406L415 182L517 496H641L449 0H322L316 312L213 0H85L49 496H174L180 182Z" glyph-name="w" horiz-adv-x="616" unicode="w" /><glyph d="M49 0ZM285 494H406L415 182L517 496H641L449 0H322L316 312L213 0H85L49 496H174L180 182ZM379 703H518L517 696L399 571H294V576Z" glyph-name="wacute" horiz-adv-x="616" unicode="&#7811;" /><glyph d="M49 0ZM318 703H428L500 575V571H396L361 630L309 571H204L205 575ZM285 494H406L415 182L517 496H641L449 0H322L316 312L213 0H85L49 496H174L180 182Z" glyph-name="wcircumflex" horiz-adv-x="616" unicode="&#373;" /><glyph d="M49 0ZM285 494H406L415 182L517 496H641L449 0H322L316 312L213 0H85L49 496H174L180 182ZM207 630Q207 668 227 692Q247 716 285 716Q346 716 346 658Q346 620 326 596Q306 572 266 572Q207 572 207 630ZM388 630Q388 668 407.5 692Q427 716 466 716Q526 716 526 658Q526 620 506.5 596Q487 572 447 572Q388 572 388 630Z" glyph-name="wdieresis" horiz-adv-x="616" unicode="&#7813;" /><glyph d="M49 0ZM285 494H406L415 182L517 496H641L449 0H322L316 312L213 0H85L49 496H174L180 182ZM309 571 228 696 229 703H374L413 576V571Z" glyph-name="wgrave" horiz-adv-x="616" unicode="&#7809;" /><glyph d="M242 0 199 151 108 0H-38L138 251L46 496H198L234 347L319 496H465L294 249L394 0Z" glyph-name="x" horiz-adv-x="438" unicode="x" /><glyph d="M99 -44 114 -4 47 496H187L209 161L336 496H475L210 -92Q193 -130 172.5 -154.5Q152 -179 128.5 -193.5Q105 -208 80 -214Q55 -220 29 -220Q1 -220 -20.5 -215Q-42 -210 -61 -199L-23 -93Q2 -107 28 -107Q53 -107 69 -93Q85 -79 99 -44Z" glyph-name="y" horiz-adv-x="447" unicode="y" /><glyph d="M272 70Q246 33 213.5 16.5Q181 0 146 0Q84 0 56.5 37.5Q29 75 29 134Q29 161 34 189L82 496H219L175 221Q171 198 171 176Q171 147 182 134.5Q193 122 213 122Q244 122 267 155.5Q290 189 302 256L340 496H476L401 18Q381 -101 314 -160Q247 -219 149 -220Q71 -220 29 -188.5Q-13 -157 -29 -95L81 -37Q89 -72 106 -90Q123 -108 156 -108Q243 -108 264 20Z" glyph-name="y.school" horiz-adv-x="484" /><glyph d="M0 0ZM99 -44 114 -4 47 496H187L209 161L336 496H475L210 -92Q193 -130 172.5 -154.5Q152 -179 128.5 -193.5Q105 -208 80 -214Q55 -220 29 -220Q1 -220 -20.5 -215Q-42 -210 -61 -199L-23 -93Q2 -107 28 -107Q53 -107 69 -93Q85 -79 99 -44ZM298 703H437L436 696L318 571H213V576Z" glyph-name="yacute" horiz-adv-x="447" unicode="&#253;" /><glyph d="M0 0ZM272 70Q246 33 213.5 16.5Q181 0 146 0Q84 0 56.5 37.5Q29 75 29 134Q29 161 34 189L82 496H219L175 221Q171 198 171 176Q171 147 182 134.5Q193 122 213 122Q244 122 267 155.5Q290 189 302 256L340 496H476L401 18Q381 -101 314 -160Q247 -219 149 -220Q71 -220 29 -188.5Q-13 -157 -29 -95L81 -37Q89 -72 106 -90Q123 -108 156 -108Q243 -108 264 20ZM316 703H455L454 696L336 571H231V576Z" glyph-name="yacute.school" horiz-adv-x="484" /><glyph d="M0 0ZM99 -44 114 -4 47 496H187L209 161L336 496H475L210 -92Q193 -130 172.5 -154.5Q152 -179 128.5 -193.5Q105 -208 80 -214Q55 -220 29 -220Q1 -220 -20.5 -215Q-42 -210 -61 -199L-23 -93Q2 -107 28 -107Q53 -107 69 -93Q85 -79 99 -44ZM237 703H347L419 575V571H315L280 630L228 571H123L124 575Z" glyph-name="ycircumflex" horiz-adv-x="447" unicode="&#375;" /><glyph d="M0 0ZM251 703H361L433 575V571H329L294 630L242 571H137L138 575ZM272 70Q246 33 213.5 16.5Q181 0 146 0Q84 0 56.5 37.5Q29 75 29 134Q29 161 34 189L82 496H219L175 221Q171 198 171 176Q171 147 182 134.5Q193 122 213 122Q244 122 267 155.5Q290 189 302 256L340 496H476L401 18Q381 -101 314 -160Q247 -219 149 -220Q71 -220 29 -188.5Q-13 -157 -29 -95L81 -37Q89 -72 106 -90Q123 -108 156 -108Q243 -108 264 20Z" glyph-name="ycircumflex.school" horiz-adv-x="484" /><glyph d="M0 0ZM99 -44 114 -4 47 496H187L209 161L336 496H475L210 -92Q193 -130 172.5 -154.5Q152 -179 128.5 -193.5Q105 -208 80 -214Q55 -220 29 -220Q1 -220 -20.5 -215Q-42 -210 -61 -199L-23 -93Q2 -107 28 -107Q53 -107 69 -93Q85 -79 99 -44ZM127 630Q127 668 147 692Q167 716 205 716Q266 716 266 658Q266 620 246 596Q226 572 186 572Q127 572 127 630ZM308 630Q308 668 327.5 692Q347 716 386 716Q446 716 446 658Q446 620 426.5 596Q407 572 367 572Q308 572 308 630Z" glyph-name="ydieresis" horiz-adv-x="447" unicode="&#255;" /><glyph d="M0 0ZM138 630Q138 668 158 692Q178 716 216 716Q277 716 277 658Q277 620 257 596Q237 572 197 572Q138 572 138 630ZM319 630Q319 668 338.5 692Q358 716 397 716Q457 716 457 658Q457 620 437.5 596Q418 572 378 572Q319 572 319 630ZM272 70Q246 33 213.5 16.5Q181 0 146 0Q84 0 56.5 37.5Q29 75 29 134Q29 161 34 189L82 496H219L175 221Q171 198 171 176Q171 147 182 134.5Q193 122 213 122Q244 122 267 155.5Q290 189 302 256L340 496H476L401 18Q381 -101 314 -160Q247 -219 149 -220Q71 -220 29 -188.5Q-13 -157 -29 -95L81 -37Q89 -72 106 -90Q123 -108 156 -108Q243 -108 264 20Z" glyph-name="ydieresis.school" horiz-adv-x="484" /><glyph d="M461 209H328L294 0H153L187 209H54L68 290H187L174 336H75L88 417H153L76 700H229L289 400L442 700H595L428 417H494L482 336H381L354 290H474Z" glyph-name="yen" horiz-adv-x="538" unicode="&#165;" /><glyph d="M-16 0 -2 89 234 385H48L66 496H397L383 403L150 111H344L326 0Z" glyph-name="z" horiz-adv-x="390" unicode="z" /><glyph d="M0 0ZM268 703H407L406 696L288 571H183V576ZM-16 0 -2 89 234 385H48L66 496H397L383 403L150 111H344L326 0Z" glyph-name="zacute" horiz-adv-x="390" unicode="&#378;" /><glyph d="M0 0ZM189 571 118 700V703H223L254 644L310 703H414L413 700L300 571ZM-16 0 -2 89 234 385H48L66 496H397L383 403L150 111H344L326 0Z" glyph-name="zcaron" horiz-adv-x="390" unicode="&#382;" /><glyph d="M0 0ZM-16 0 -2 89 234 385H48L66 496H397L383 403L150 111H344L326 0ZM179 632Q179 670 199.5 693Q220 716 261 716Q292 716 308 700.5Q324 685 324 656Q324 617 303 594Q282 571 243 571Q179 571 179 632Z" glyph-name="zdotaccent" horiz-adv-x="390" unicode="&#380;" /><glyph d="M30 0ZM328 714Q426 714 472 658Q518 602 518 481Q518 452 515.5 419.5Q513 387 508 350Q481 162 412.5 74Q344 -14 223 -14Q123 -14 76.5 43.5Q30 101 30 220Q30 249 33 281.5Q36 314 41 350Q68 537 136.5 625.5Q205 714 328 714ZM314 594Q290 594 270 581.5Q250 569 233.5 540.5Q217 512 203.5 465.5Q190 419 180 351Q173 310 169.5 277Q166 244 166 218Q166 155 184.5 130Q203 105 235 105Q259 105 279 117Q299 129 315.5 157.5Q332 186 345.5 233Q359 280 370 349Q377 390 379.5 422.5Q382 455 382 481Q382 543 365 568.5Q348 594 314 594Z" glyph-name="zero" horiz-adv-x="535" unicode="0" /><glyph d="M338 714Q436 714 482 658Q528 602 528 481Q528 452 525.5 419.5Q523 387 518 350Q491 162 422.5 74Q354 -14 233 -14Q133 -14 86.5 43.5Q40 101 40 220Q40 249 43 281.5Q46 314 51 350Q78 537 146.5 625.5Q215 714 338 714ZM324 594Q300 594 280 581.5Q260 569 243.5 540.5Q227 512 213.5 465.5Q200 419 190 351Q183 310 179.5 277Q176 244 176 218Q176 155 194.5 130Q213 105 245 105Q269 105 289 117Q309 129 325.5 157.5Q342 186 355.5 233Q369 280 380 349Q387 390 389.5 422.5Q392 455 392 481Q392 543 375 568.5Q358 594 324 594Z" glyph-name="zero.LP" horiz-adv-x="539" /><glyph d="M295 614Q382 614 428.5 562.5Q475 511 475 401Q475 378 473.5 353Q472 328 467 299Q444 139 376.5 62.5Q309 -14 204 -14Q119 -14 72 38Q25 90 25 199Q25 222 27.5 247Q30 272 34 300Q58 462 124.5 538Q191 614 295 614ZM219 104Q239 104 256 114Q273 124 287 147Q301 170 312.5 207.5Q324 245 333 300Q342 358 342 398Q342 451 326 473Q310 495 281 495Q261 495 244.5 485.5Q228 476 214 453.5Q200 431 189 393.5Q178 356 169 300Q164 270 161.5 245Q159 220 159 200Q159 148 174.5 126Q190 104 219 104Z" glyph-name="zero.OP" horiz-adv-x="491" /><glyph d="M313 614Q400 614 446.5 562.5Q493 511 493 401Q493 378 491.5 353Q490 328 485 299Q462 139 394.5 62.5Q327 -14 222 -14Q137 -14 90 38Q43 90 43 199Q43 222 45.5 247Q48 272 52 300Q76 462 142.5 538Q209 614 313 614ZM237 104Q257 104 274 114Q291 124 305 147Q319 170 330.5 207.5Q342 245 351 300Q360 358 360 398Q360 451 344 473Q328 495 299 495Q279 495 262.5 485.5Q246 476 232 453.5Q218 431 207 393.5Q196 356 187 300Q182 270 179.5 245Q177 220 177 200Q177 148 192.5 126Q208 104 237 104Z" glyph-name="zero.OT" horiz-adv-x="535" /><glyph d="M0 0ZM160 221Q281 221 281 80Q281 48 275 6Q258 -104 215.5 -156.5Q173 -209 98 -209Q35 -209 5.5 -174.5Q-24 -140 -24 -69Q-24 -36 -18 6Q-1 116 41 168.5Q83 221 160 221ZM151 139Q125 139 108 110Q91 81 80 6Q76 -17 74 -35.5Q72 -54 72 -68Q72 -101 81.5 -114.5Q91 -128 108 -128Q131 -128 148.5 -99Q166 -70 178 6Q182 29 183.5 47Q185 65 185 80Q185 112 176.5 125.5Q168 139 151 139Z" glyph-name="zero.inf" horiz-adv-x="342" /><glyph glyph-name="zerowidthspace" horiz-adv-x="0" unicode="&#8203;" /></font>
</defs>
</svg>
