<?xml version="1.0" standalone="no"?><!DOCTYPE svg PUBLIC "-//W3C//DTD SVG 1.1//EN" "http://www.w3.org/Graphics/SVG/1.1/DTD/svg11.dtd" ><svg version="1.1" xmlns="http://www.w3.org/2000/svg"><defs><font horiz-adv-x="0" id="font"><font-face ascent="957" bbox="-113 -245 1019 934" cap-height="700" descent="-220" font-family="Honeywell Cond Web" font-stretch="condensed" font-style="italic" font-weight="300" units-per-em="1000" x-height="478" /><missing-glyph d="M84 0V700H599V0ZM328 349 106 668V31ZM354 349 577 31V669ZM124 678 341 366 559 678ZM340 333 124 21H558Z" horiz-adv-x="683" /><glyph d="M0 0Z" glyph-name=".ttfautohint" horiz-adv-x="263" /><glyph d="M288 664 90 198H340ZM362 0 342 171H79L6 0H-26L276 700H312L391 0Z" glyph-name="A" horiz-adv-x="443" unicode="A" /><glyph d="M290 668 90 198H333ZM-25 0 277 700H693L688 674H318L346 365H599L595 338H348L377 27H594L590 0H352L335 171H79L6 0Z" glyph-name="AE" horiz-adv-x="662" unicode="&#198;" /><glyph d="M0 0ZM288 664 90 198H340ZM362 0 342 171H79L6 0H-26L276 700H312L391 0ZM368 892H407L406 888L314 785H290V788Z" glyph-name="Aacute" horiz-adv-x="443" unicode="&#193;" /><glyph d="M0 0ZM288 664 90 198H340ZM362 0 342 171H79L6 0H-26L276 700H312L391 0ZM390 891H411Q403 832 376 809Q349 786 306 786Q263 786 242.5 809.5Q222 833 231 891H253Q246 843 260 825.5Q274 808 307 808Q342 808 362 825.5Q382 843 390 891Z" glyph-name="Abreve" horiz-adv-x="443" unicode="&#258;" /><glyph d="M0 0ZM288 664 90 198H340ZM362 0 342 171H79L6 0H-26L276 700H312L391 0ZM309 892H333L402 787V785H374L319 871L236 785H205V787Z" glyph-name="Acircumflex" horiz-adv-x="443" unicode="&#194;" /><glyph d="M0 0ZM288 664 90 198H340ZM362 0 342 171H79L6 0H-26L276 700H312L391 0ZM231 827Q231 861 262 861Q273 861 279.5 854.5Q286 848 286 836Q286 820 277.5 811Q269 802 255 802Q231 802 231 827ZM338 827Q338 861 369 861Q393 861 393 836Q393 802 362 802Q338 802 338 827Z" glyph-name="Adieresis" horiz-adv-x="443" unicode="&#196;" /><glyph d="M0 0ZM288 664 90 198H340ZM362 0 342 171H79L6 0H-26L276 700H312L391 0ZM298 785 235 888V892H273L321 788V785Z" glyph-name="Agrave" horiz-adv-x="443" unicode="&#192;" /><glyph d="M0 0ZM288 664 90 198H340ZM362 0 342 171H79L6 0H-26L276 700H312L391 0ZM400 848 396 825H228L231 848Z" glyph-name="Amacron" horiz-adv-x="443" unicode="&#256;" /><glyph d="M388 -179Q374 -190 359.5 -194Q345 -198 329 -198Q301 -198 283 -181.5Q265 -165 265 -126Q265 -100 273 -77Q281 -54 294.5 -35.5Q308 -17 325 -4.5Q342 8 360 13L342 171H79L6 0H-26L276 700H312L391 0H376Q360 -2 344.5 -12.5Q329 -23 316.5 -39.5Q304 -56 296 -77Q288 -98 288 -122Q288 -153 302 -164Q316 -175 334 -175Q360 -175 379 -160ZM288 664 90 198H340Z" glyph-name="Aogonek" horiz-adv-x="443" unicode="&#260;" /><glyph d="M0 0ZM288 664 90 198H340ZM362 0 342 171H79L6 0H-26L276 700H312L391 0ZM325 933Q350 933 368 915.5Q386 898 386 865Q386 827 364 799.5Q342 772 307 772Q282 772 264 789Q246 806 246 840Q246 877 268 905Q290 933 325 933ZM322 914Q299 914 283 892.5Q267 871 267 842Q267 817 279 804Q291 791 308 791Q332 791 349 812Q366 833 366 863Q366 888 353 901Q340 914 322 914Z" glyph-name="Aring" horiz-adv-x="443" unicode="&#197;" /><glyph d="M0 0ZM288 664 90 198H340ZM362 0 342 171H79L6 0H-26L276 700H312L391 0ZM392 878H414Q411 855 404.5 840.5Q398 826 389.5 817.5Q381 809 372 806Q363 803 355 803Q339 803 329 811.5Q319 820 310 830.5Q301 841 292.5 849.5Q284 858 271 858Q260 858 250.5 848Q241 838 237 807H215Q218 830 224.5 844.5Q231 859 239 867Q247 875 256 878Q265 881 273 881Q289 881 299 872.5Q309 864 318 854Q327 844 336 835.5Q345 827 358 827Q370 827 378.5 838Q387 849 392 878Z" glyph-name="Atilde" horiz-adv-x="443" unicode="&#195;" /><glyph d="M47 0 158 700H338Q410 700 441.5 662.5Q473 625 473 565Q473 490 439.5 434Q406 378 348 361Q396 349 416.5 312.5Q437 276 437 231Q437 181 424.5 138.5Q412 96 385.5 65Q359 34 317.5 17Q276 0 218 0ZM333 674H183L136 373H296Q330 373 357 388Q384 403 403 428.5Q422 454 432.5 487.5Q443 521 443 558Q443 615 415 644.5Q387 674 333 674ZM293 345H131L80 26H223Q280 26 315.5 44Q351 62 371.5 91Q392 120 399.5 156Q407 192 407 228Q407 282 378.5 313.5Q350 345 293 345Z" glyph-name="B" horiz-adv-x="490" unicode="B" /><glyph d="M73 350Q88 448 114 516.5Q140 585 175 628Q210 671 254 690.5Q298 710 351 710Q384 710 412 702Q440 694 461 675Q482 656 496 625.5Q510 595 516 549L487 540Q482 582 470 609.5Q458 637 440 653.5Q422 670 398.5 676.5Q375 683 347 683Q305 683 267 666.5Q229 650 197.5 611Q166 572 142.5 508.5Q119 445 104 351Q92 276 92 219Q92 163 102.5 124.5Q113 86 133 62Q153 38 181.5 27.5Q210 17 245 17Q300 17 350 48.5Q400 80 435 157L460 144Q424 62 366 26Q308 -10 242 -10Q200 -10 166.5 2.5Q133 15 109.5 42Q86 69 73.5 112Q61 155 61 216Q61 246 64.5 280Q68 314 73 350Z" glyph-name="C" horiz-adv-x="512" unicode="C" /><glyph glyph-name="CR" horiz-adv-x="131" unicode="" /><glyph d="M61 0ZM73 350Q88 448 114 516.5Q140 585 175 628Q210 671 254 690.5Q298 710 351 710Q384 710 412 702Q440 694 461 675Q482 656 496 625.5Q510 595 516 549L487 540Q482 582 470 609.5Q458 637 440 653.5Q422 670 398.5 676.5Q375 683 347 683Q305 683 267 666.5Q229 650 197.5 611Q166 572 142.5 508.5Q119 445 104 351Q92 276 92 219Q92 163 102.5 124.5Q113 86 133 62Q153 38 181.5 27.5Q210 17 245 17Q300 17 350 48.5Q400 80 435 157L460 144Q424 62 366 26Q308 -10 242 -10Q200 -10 166.5 2.5Q133 15 109.5 42Q86 69 73.5 112Q61 155 61 216Q61 246 64.5 280Q68 314 73 350ZM426 893H465L464 889L372 786H348V789Z" glyph-name="Cacute" horiz-adv-x="512" unicode="&#262;" /><glyph d="M61 0ZM73 350Q88 448 114 516.5Q140 585 175 628Q210 671 254 690.5Q298 710 351 710Q384 710 412 702Q440 694 461 675Q482 656 496 625.5Q510 595 516 549L487 540Q482 582 470 609.5Q458 637 440 653.5Q422 670 398.5 676.5Q375 683 347 683Q305 683 267 666.5Q229 650 197.5 611Q166 572 142.5 508.5Q119 445 104 351Q92 276 92 219Q92 163 102.5 124.5Q113 86 133 62Q153 38 181.5 27.5Q210 17 245 17Q300 17 350 48.5Q400 80 435 157L460 144Q424 62 366 26Q308 -10 242 -10Q200 -10 166.5 2.5Q133 15 109.5 42Q86 69 73.5 112Q61 155 61 216Q61 246 64.5 280Q68 314 73 350ZM352 786 283 892V893H312L367 808L449 893H480V892L376 786Z" glyph-name="Ccaron" horiz-adv-x="512" unicode="&#268;" /><glyph d="M206 -221Q175 -221 157.5 -208.5Q140 -196 130 -171L151 -160Q162 -200 206 -200Q238 -200 253 -182.5Q268 -165 268 -139Q268 -110 249 -102Q230 -94 209 -102L201 -95L228 -10Q151 -6 106 46.5Q61 99 61 216Q61 246 64.5 280Q68 314 73 350Q88 448 114 516.5Q140 585 175 628Q210 671 254 690.5Q298 710 351 710Q384 710 412 702Q440 694 461 675Q482 656 496 625.5Q510 595 516 549L487 540Q482 582 470 609.5Q458 637 440 653.5Q422 670 398.5 676.5Q375 683 347 683Q305 683 267 666.5Q229 650 197.5 611Q166 572 142.5 508.5Q119 445 104 351Q92 276 92 219Q92 163 102.5 124.5Q113 86 133 62Q153 38 181.5 27.5Q210 17 245 17Q300 17 350 48.5Q400 80 435 157L460 144Q425 64 368.5 28Q312 -8 249 -10L225 -83Q236 -81 248 -82.5Q260 -84 269.5 -91Q279 -98 285 -109.5Q291 -121 291 -138Q291 -179 267.5 -200Q244 -221 206 -221Z" glyph-name="Ccedilla" horiz-adv-x="512" unicode="&#199;" /><glyph d="M61 0ZM73 350Q88 448 114 516.5Q140 585 175 628Q210 671 254 690.5Q298 710 351 710Q384 710 412 702Q440 694 461 675Q482 656 496 625.5Q510 595 516 549L487 540Q482 582 470 609.5Q458 637 440 653.5Q422 670 398.5 676.5Q375 683 347 683Q305 683 267 666.5Q229 650 197.5 611Q166 572 142.5 508.5Q119 445 104 351Q92 276 92 219Q92 163 102.5 124.5Q113 86 133 62Q153 38 181.5 27.5Q210 17 245 17Q300 17 350 48.5Q400 80 435 157L460 144Q424 62 366 26Q308 -10 242 -10Q200 -10 166.5 2.5Q133 15 109.5 42Q86 69 73.5 112Q61 155 61 216Q61 246 64.5 280Q68 314 73 350ZM367 893H391L460 788V786H432L377 872L294 786H263V788Z" glyph-name="Ccircumflex" horiz-adv-x="512" unicode="&#264;" /><glyph d="M61 0ZM73 350Q88 448 114 516.5Q140 585 175 628Q210 671 254 690.5Q298 710 351 710Q384 710 412 702Q440 694 461 675Q482 656 496 625.5Q510 595 516 549L487 540Q482 582 470 609.5Q458 637 440 653.5Q422 670 398.5 676.5Q375 683 347 683Q305 683 267 666.5Q229 650 197.5 611Q166 572 142.5 508.5Q119 445 104 351Q92 276 92 219Q92 163 102.5 124.5Q113 86 133 62Q153 38 181.5 27.5Q210 17 245 17Q300 17 350 48.5Q400 80 435 157L460 144Q424 62 366 26Q308 -10 242 -10Q200 -10 166.5 2.5Q133 15 109.5 42Q86 69 73.5 112Q61 155 61 216Q61 246 64.5 280Q68 314 73 350ZM344 828Q344 862 375 862Q398 862 398 837Q398 803 367 803Q344 803 344 828Z" glyph-name="Cdotaccent" horiz-adv-x="512" unicode="&#266;" /><glyph d="M47 0 158 700H319Q409 700 459 649Q509 598 509 479Q509 453 506 422Q503 391 498 358Q483 262 456.5 194Q430 126 393 83Q356 40 309.5 20Q263 0 208 0ZM80 27H209Q255 27 296 44Q337 61 370.5 100Q404 139 429 202Q454 265 468 357Q473 390 476 419.5Q479 449 479 475Q479 530 467.5 568Q456 606 434.5 629.5Q413 653 382.5 663.5Q352 674 314 674H183Z" glyph-name="D" horiz-adv-x="542" unicode="D" /><glyph d="M47 0ZM47 0 158 700H319Q409 700 459 649Q509 598 509 479Q509 453 506 422Q503 391 498 358Q483 262 456.5 194Q430 126 393 83Q356 40 309.5 20Q263 0 208 0ZM80 27H209Q255 27 296 44Q337 61 370.5 100Q404 139 429 202Q454 265 468 357Q473 390 476 419.5Q479 449 479 475Q479 530 467.5 568Q456 606 434.5 629.5Q413 653 382.5 663.5Q352 674 314 674H183ZM344 785 275 891V892H304L359 807L441 892H472V891L368 785Z" glyph-name="Dcaron" horiz-adv-x="542" unicode="&#270;" /><glyph d="M216 0H54L111 353H50L55 379H114L165 700H327Q372 700 407 688Q442 676 466.5 649.5Q491 623 504 581Q517 539 517 479Q517 453 514 422Q511 391 506 358Q491 262 464 194Q437 126 400 83Q363 40 316.5 20Q270 0 216 0ZM88 27H217Q263 27 304 44Q345 61 378 100Q411 139 436 202Q461 265 475 357Q480 390 483 419.5Q486 449 486 475Q486 530 474.5 568Q463 606 442 629.5Q421 653 390.5 663.5Q360 674 322 674H190L144 379H277L272 353H139Z" glyph-name="Dcroat" horiz-adv-x="551" unicode="&#272;" /><glyph d="M408 26 404 0H47L158 700H510L505 673H183L134 364H415L411 337H130L81 26Z" glyph-name="E" horiz-adv-x="478" unicode="E" /><glyph d="M47 0ZM408 26 404 0H47L158 700H510L505 673H183L134 364H415L411 337H130L81 26ZM409 892H448L447 888L355 785H331V788Z" glyph-name="Eacute" horiz-adv-x="478" unicode="&#201;" /><glyph d="M47 0ZM408 26 404 0H47L158 700H510L505 673H183L134 364H415L411 337H130L81 26ZM430 891H451Q443 832 416 809Q389 786 346 786Q303 786 282.5 809.5Q262 833 271 891H293Q286 843 300 825.5Q314 808 347 808Q382 808 402 825.5Q422 843 430 891Z" glyph-name="Ebreve" horiz-adv-x="478" unicode="&#276;" /><glyph d="M47 0ZM408 26 404 0H47L158 700H510L505 673H183L134 364H415L411 337H130L81 26ZM335 785 266 891V892H295L350 807L432 892H463V891L359 785Z" glyph-name="Ecaron" horiz-adv-x="478" unicode="&#282;" /><glyph d="M47 0ZM408 26 404 0H47L158 700H510L505 673H183L134 364H415L411 337H130L81 26ZM350 892H374L443 787V785H415L360 871L277 785H246V787Z" glyph-name="Ecircumflex" horiz-adv-x="478" unicode="&#202;" /><glyph d="M47 0ZM408 26 404 0H47L158 700H510L505 673H183L134 364H415L411 337H130L81 26ZM272 827Q272 861 303 861Q314 861 320.5 854.5Q327 848 327 836Q327 820 318.5 811Q310 802 296 802Q272 802 272 827ZM379 827Q379 861 410 861Q434 861 434 836Q434 802 403 802Q379 802 379 827Z" glyph-name="Edieresis" horiz-adv-x="478" unicode="&#203;" /><glyph d="M47 0ZM408 26 404 0H47L158 700H510L505 673H183L134 364H415L411 337H130L81 26ZM327 827Q327 861 358 861Q381 861 381 836Q381 802 350 802Q327 802 327 827Z" glyph-name="Edotaccent" horiz-adv-x="478" unicode="&#278;" /><glyph d="M47 0ZM408 26 404 0H47L158 700H510L505 673H183L134 364H415L411 337H130L81 26ZM339 785 276 888V892H314L362 788V785Z" glyph-name="Egrave" horiz-adv-x="478" unicode="&#200;" /><glyph d="M47 0ZM408 26 404 0H47L158 700H510L505 673H183L134 364H415L411 337H130L81 26ZM441 848 437 825H269L272 848Z" glyph-name="Emacron" horiz-adv-x="478" unicode="&#274;" /><glyph d="M399 -58 409 -1 177 651 75 0H47L158 700H190L419 53L520 700H549L426 -73Q415 -142 388 -173.5Q361 -205 322 -205Q308 -205 294.5 -202.5Q281 -200 267 -192L278 -165Q289 -171 298 -174Q307 -177 321 -177Q352 -177 370.5 -150.5Q389 -124 399 -58Z" glyph-name="Eng" horiz-adv-x="567" unicode="&#330;" /><glyph d="M377 -179Q363 -190 348.5 -194Q334 -198 318 -198Q290 -198 272 -181.5Q254 -165 254 -126Q254 -84 274 -50.5Q294 -17 322 0H47L158 700H510L505 673H183L134 364H415L411 337H130L81 26H408L404 0H365Q349 -2 333.5 -12.5Q318 -23 305.5 -39.5Q293 -56 285 -77Q277 -98 277 -122Q277 -153 291 -164Q305 -175 323 -175Q349 -175 368 -160Z" glyph-name="Eogonek" horiz-adv-x="478" unicode="&#280;" /><glyph d="M216 0H54L111 353H50L55 379H114L165 700H327Q372 700 407 688Q442 676 466.5 649.5Q491 623 504 581Q517 539 517 479Q517 453 514 422Q511 391 506 358Q491 262 464 194Q437 126 400 83Q363 40 316.5 20Q270 0 216 0ZM88 27H217Q263 27 303.5 44Q344 61 377.5 100Q411 139 435.5 202Q460 265 475 357Q480 390 483 419.5Q486 449 486 475Q486 530 474.5 568Q463 606 442 629.5Q421 653 390.5 663.5Q360 674 322 674H190L144 379H277L272 353H139Z" glyph-name="Eth" horiz-adv-x="551" unicode="&#208;" /><glyph d="M458 141Q420 59 365.5 24.5Q311 -10 246 -10Q199 -10 164.5 6.5Q130 23 109 59.5Q88 96 80.5 154Q73 212 82 295H16L20 320H84Q86 337 88 349.5Q90 362 94 382H30L34 406H98Q114 488 139.5 546Q165 604 198 640.5Q231 677 271 693.5Q311 710 357 710Q422 710 462.5 673Q503 636 514 547L485 537Q475 619 441 651Q407 683 353 683Q315 683 281 668.5Q247 654 218.5 621.5Q190 589 167.5 536Q145 483 129 406H383L373 382H124Q119 361 117.5 349Q116 337 114 320H347L338 295H112Q104 217 110 164Q116 111 134 78Q152 45 181 30.5Q210 16 249 16Q303 16 351 47.5Q399 79 433 155Z" glyph-name="Euro" horiz-adv-x="503" unicode="&#8364;" /><glyph d="M408 330H128L76 0H47L158 700H499L494 673H183L133 357H413Z" glyph-name="F" horiz-adv-x="447" unicode="F" /><glyph d="M235 -10Q195 -10 163 3Q131 16 108.5 43.5Q86 71 74 114Q62 157 62 217Q62 246 65.5 281Q69 316 74 351Q89 449 114.5 517.5Q140 586 174.5 628.5Q209 671 253 690.5Q297 710 350 710Q383 710 410 702.5Q437 695 458 676.5Q479 658 493 628Q507 598 513 553L484 543Q479 584 467 611Q455 638 437.5 654Q420 670 396.5 676.5Q373 683 346 683Q303 683 265.5 666.5Q228 650 197 611Q166 572 142.5 508Q119 444 104 350Q92 273 92 219Q92 163 102.5 124.5Q113 86 132 62Q151 38 178.5 27.5Q206 17 241 17Q277 17 310 31Q343 45 371 76.5Q399 108 419.5 159.5Q440 211 452 286H294L298 311H485L436 0H413L434 156Q405 69 354 29.5Q303 -10 235 -10Z" glyph-name="G" horiz-adv-x="533" unicode="G" /><glyph d="M239 -10Q198 -10 165.5 3Q133 16 110 43.5Q87 71 74.5 114Q62 157 62 218Q62 247 65.5 281.5Q69 316 74 351Q89 449 114.5 517.5Q140 586 174.5 628.5Q209 671 253 690.5Q297 710 350 710Q417 710 459.5 675.5Q502 641 513 553L484 543Q479 584 467 611Q455 638 437.5 654Q420 670 396.5 676.5Q373 683 346 683Q303 683 265.5 666.5Q228 650 197 611Q166 572 142.5 508Q119 444 104 350Q92 273 92 218Q92 162 102.5 123.5Q113 85 132 61Q151 37 178.5 26.5Q206 16 241 16Q282 16 316.5 31Q351 46 378 78.5Q405 111 424.5 162Q444 213 454 286H295L299 311H488L484 283Q461 130 400 60Q339 -10 239 -10Z" glyph-name="G.alt" horiz-adv-x="529" /><glyph d="M62 0ZM235 -10Q195 -10 163 3Q131 16 108.5 43.5Q86 71 74 114Q62 157 62 217Q62 246 65.5 281Q69 316 74 351Q89 449 114.5 517.5Q140 586 174.5 628.5Q209 671 253 690.5Q297 710 350 710Q383 710 410 702.5Q437 695 458 676.5Q479 658 493 628Q507 598 513 553L484 543Q479 584 467 611Q455 638 437.5 654Q420 670 396.5 676.5Q373 683 346 683Q303 683 265.5 666.5Q228 650 197 611Q166 572 142.5 508Q119 444 104 350Q92 273 92 219Q92 163 102.5 124.5Q113 86 132 62Q151 38 178.5 27.5Q206 17 241 17Q277 17 310 31Q343 45 371 76.5Q399 108 419.5 159.5Q440 211 452 286H294L298 311H485L436 0H413L434 156Q405 69 354 29.5Q303 -10 235 -10ZM446 891H467Q459 832 432 809Q405 786 362 786Q319 786 298.5 809.5Q278 833 287 891H309Q302 843 316 825.5Q330 808 363 808Q398 808 418 825.5Q438 843 446 891Z" glyph-name="Gbreve" horiz-adv-x="533" unicode="&#286;" /><glyph d="M62 0ZM239 -10Q198 -10 165.5 3Q133 16 110 43.5Q87 71 74.5 114Q62 157 62 218Q62 247 65.5 281.5Q69 316 74 351Q89 449 114.5 517.5Q140 586 174.5 628.5Q209 671 253 690.5Q297 710 350 710Q417 710 459.5 675.5Q502 641 513 553L484 543Q479 584 467 611Q455 638 437.5 654Q420 670 396.5 676.5Q373 683 346 683Q303 683 265.5 666.5Q228 650 197 611Q166 572 142.5 508Q119 444 104 350Q92 273 92 218Q92 162 102.5 123.5Q113 85 132 61Q151 37 178.5 26.5Q206 16 241 16Q282 16 316.5 31Q351 46 378 78.5Q405 111 424.5 162Q444 213 454 286H295L299 311H488L484 283Q461 130 400 60Q339 -10 239 -10ZM446 891H467Q459 832 432 809Q405 786 362 786Q319 786 298.5 809.5Q278 833 287 891H309Q302 843 316 825.5Q330 808 363 808Q398 808 418 825.5Q438 843 446 891Z" glyph-name="Gbreve.alt" horiz-adv-x="529" /><glyph d="M62 0ZM235 -10Q195 -10 163 3Q131 16 108.5 43.5Q86 71 74 114Q62 157 62 217Q62 246 65.5 281Q69 316 74 351Q89 449 114.5 517.5Q140 586 174.5 628.5Q209 671 253 690.5Q297 710 350 710Q383 710 410 702.5Q437 695 458 676.5Q479 658 493 628Q507 598 513 553L484 543Q479 584 467 611Q455 638 437.5 654Q420 670 396.5 676.5Q373 683 346 683Q303 683 265.5 666.5Q228 650 197 611Q166 572 142.5 508Q119 444 104 350Q92 273 92 219Q92 163 102.5 124.5Q113 86 132 62Q151 38 178.5 27.5Q206 17 241 17Q277 17 310 31Q343 45 371 76.5Q399 108 419.5 159.5Q440 211 452 286H294L298 311H485L436 0H413L434 156Q405 69 354 29.5Q303 -10 235 -10ZM365 892H389L458 787V785H430L375 871L292 785H261V787Z" glyph-name="Gcircumflex" horiz-adv-x="533" unicode="&#284;" /><glyph d="M62 0ZM239 -10Q198 -10 165.5 3Q133 16 110 43.5Q87 71 74.5 114Q62 157 62 218Q62 247 65.5 281.5Q69 316 74 351Q89 449 114.5 517.5Q140 586 174.5 628.5Q209 671 253 690.5Q297 710 350 710Q417 710 459.5 675.5Q502 641 513 553L484 543Q479 584 467 611Q455 638 437.5 654Q420 670 396.5 676.5Q373 683 346 683Q303 683 265.5 666.5Q228 650 197 611Q166 572 142.5 508Q119 444 104 350Q92 273 92 218Q92 162 102.5 123.5Q113 85 132 61Q151 37 178.5 26.5Q206 16 241 16Q282 16 316.5 31Q351 46 378 78.5Q405 111 424.5 162Q444 213 454 286H295L299 311H488L484 283Q461 130 400 60Q339 -10 239 -10ZM366 892H390L459 787V785H431L376 871L293 785H262V787Z" glyph-name="Gcircumflex.alt" horiz-adv-x="529" /><glyph d="M62 0ZM235 -10Q195 -10 163 3Q131 16 108.5 43.5Q86 71 74 114Q62 157 62 217Q62 246 65.5 281Q69 316 74 351Q89 449 114.5 517.5Q140 586 174.5 628.5Q209 671 253 690.5Q297 710 350 710Q383 710 410 702.5Q437 695 458 676.5Q479 658 493 628Q507 598 513 553L484 543Q479 584 467 611Q455 638 437.5 654Q420 670 396.5 676.5Q373 683 346 683Q303 683 265.5 666.5Q228 650 197 611Q166 572 142.5 508Q119 444 104 350Q92 273 92 219Q92 163 102.5 124.5Q113 86 132 62Q151 38 178.5 27.5Q206 17 241 17Q277 17 310 31Q343 45 371 76.5Q399 108 419.5 159.5Q440 211 452 286H294L298 311H485L436 0H413L434 156Q405 69 354 29.5Q303 -10 235 -10ZM188 -221 180 -209Q199 -197 213 -174.5Q227 -152 230 -126Q217 -131 207 -124.5Q197 -118 197 -103Q198 -89 206 -80.5Q214 -72 228 -72Q251 -72 251 -101Q251 -119 246 -137Q241 -155 233 -171Q225 -187 213.5 -200.5Q202 -214 188 -221Z" glyph-name="Gcommaaccent" horiz-adv-x="533" unicode="&#290;" /><glyph d="M62 0ZM239 -10Q198 -10 165.5 3Q133 16 110 43.5Q87 71 74.5 114Q62 157 62 218Q62 247 65.5 281.5Q69 316 74 351Q89 449 114.5 517.5Q140 586 174.5 628.5Q209 671 253 690.5Q297 710 350 710Q417 710 459.5 675.5Q502 641 513 553L484 543Q479 584 467 611Q455 638 437.5 654Q420 670 396.5 676.5Q373 683 346 683Q303 683 265.5 666.5Q228 650 197 611Q166 572 142.5 508Q119 444 104 350Q92 273 92 218Q92 162 102.5 123.5Q113 85 132 61Q151 37 178.5 26.5Q206 16 241 16Q282 16 316.5 31Q351 46 378 78.5Q405 111 424.5 162Q444 213 454 286H295L299 311H488L484 283Q461 130 400 60Q339 -10 239 -10ZM184 -221 176 -209Q195 -197 209 -174.5Q223 -152 226 -126Q213 -131 203 -124.5Q193 -118 193 -103Q194 -89 202 -80.5Q210 -72 224 -72Q247 -72 247 -101Q247 -119 242 -137Q237 -155 229 -171Q221 -187 209.5 -200.5Q198 -214 184 -221Z" glyph-name="Gcommaaccent.alt" horiz-adv-x="529" /><glyph d="M62 0ZM235 -10Q195 -10 163 3Q131 16 108.5 43.5Q86 71 74 114Q62 157 62 217Q62 246 65.5 281Q69 316 74 351Q89 449 114.5 517.5Q140 586 174.5 628.5Q209 671 253 690.5Q297 710 350 710Q383 710 410 702.5Q437 695 458 676.5Q479 658 493 628Q507 598 513 553L484 543Q479 584 467 611Q455 638 437.5 654Q420 670 396.5 676.5Q373 683 346 683Q303 683 265.5 666.5Q228 650 197 611Q166 572 142.5 508Q119 444 104 350Q92 273 92 219Q92 163 102.5 124.5Q113 86 132 62Q151 38 178.5 27.5Q206 17 241 17Q277 17 310 31Q343 45 371 76.5Q399 108 419.5 159.5Q440 211 452 286H294L298 311H485L436 0H413L434 156Q405 69 354 29.5Q303 -10 235 -10ZM342 827Q342 861 373 861Q396 861 396 836Q396 802 365 802Q342 802 342 827Z" glyph-name="Gdotaccent" horiz-adv-x="533" unicode="&#288;" /><glyph d="M62 0ZM239 -10Q198 -10 165.5 3Q133 16 110 43.5Q87 71 74.5 114Q62 157 62 218Q62 247 65.5 281.5Q69 316 74 351Q89 449 114.5 517.5Q140 586 174.5 628.5Q209 671 253 690.5Q297 710 350 710Q417 710 459.5 675.5Q502 641 513 553L484 543Q479 584 467 611Q455 638 437.5 654Q420 670 396.5 676.5Q373 683 346 683Q303 683 265.5 666.5Q228 650 197 611Q166 572 142.5 508Q119 444 104 350Q92 273 92 218Q92 162 102.5 123.5Q113 85 132 61Q151 37 178.5 26.5Q206 16 241 16Q282 16 316.5 31Q351 46 378 78.5Q405 111 424.5 162Q444 213 454 286H295L299 311H488L484 283Q461 130 400 60Q339 -10 239 -10ZM342 827Q342 861 373 861Q396 861 396 836Q396 802 365 802Q342 802 342 827Z" glyph-name="Gdotaccent.alt" horiz-adv-x="529" /><glyph d="M413 0 466 338H130L76 0H47L158 700H187L134 365H470L524 700H553L442 0Z" glyph-name="H" horiz-adv-x="572" unicode="H" /><glyph d="M137 365H473L494 500H158ZM73 523H133L161 700H190L162 523H498L527 700H556L528 523H588L584 500H524L445 0H416L469 338H133L80 0H50L129 500H69Z" glyph-name="Hbar" horiz-adv-x="577" unicode="&#294;" /><glyph d="M47 0ZM413 0 466 338H130L76 0H47L158 700H187L134 365H470L524 700H553L442 0ZM371 892H395L464 787V785H436L381 871L298 785H267V787Z" glyph-name="Hcircumflex" horiz-adv-x="572" unicode="&#292;" /><glyph d="M47 0 158 700H187L76 0Z" glyph-name="I" horiz-adv-x="206" unicode="I" /><glyph d="M47 0ZM47 0 158 700H187L76 0ZM284 -10Q254 -10 228.5 0Q203 10 184 31L203 55Q235 17 288 17Q352 17 400 71.5Q448 126 468 252L539 700H569L498 254Q487 182 467 131.5Q447 81 419.5 49.5Q392 18 357.5 4Q323 -10 284 -10Z" glyph-name="IJ" horiz-adv-x="572" unicode="&#306;" /><glyph d="M47 0ZM47 0 158 700H187L76 0ZM248 892H287L286 888L194 785H170V788Z" glyph-name="Iacute" horiz-adv-x="206" unicode="&#205;" /><glyph d="M47 0ZM47 0 158 700H187L76 0ZM269 891H290Q282 832 255 809Q228 786 185 786Q142 786 121.5 809.5Q101 833 110 891H132Q125 843 139 825.5Q153 808 186 808Q221 808 241 825.5Q261 843 269 891Z" glyph-name="Ibreve" horiz-adv-x="206" unicode="&#300;" /><glyph d="M47 0ZM47 0 158 700H187L76 0ZM189 892H213L282 787V785H254L199 871L116 785H85V787Z" glyph-name="Icircumflex" horiz-adv-x="206" unicode="&#206;" /><glyph d="M47 0ZM47 0 158 700H187L76 0ZM111 827Q111 861 142 861Q153 861 159.5 854.5Q166 848 166 836Q166 820 157.5 811Q149 802 135 802Q111 802 111 827ZM218 827Q218 861 249 861Q273 861 273 836Q273 802 242 802Q218 802 218 827Z" glyph-name="Idieresis" horiz-adv-x="206" unicode="&#207;" /><glyph d="M47 0ZM47 0 158 700H187L76 0ZM166 827Q166 861 197 861Q220 861 220 836Q220 802 189 802Q166 802 166 827Z" glyph-name="Idotaccent" horiz-adv-x="206" unicode="&#304;" /><glyph d="M47 0ZM47 0 158 700H187L76 0ZM178 785 115 888V892H153L201 788V785Z" glyph-name="Igrave" horiz-adv-x="206" unicode="&#204;" /><glyph d="M47 0ZM47 0 158 700H187L76 0ZM280 848 276 825H108L111 848Z" glyph-name="Imacron" horiz-adv-x="206" unicode="&#298;" /><glyph d="M74 -179Q60 -190 45.5 -194Q31 -198 15 -198Q-13 -198 -31 -181.5Q-49 -165 -49 -126Q-49 -99 -40.5 -76Q-32 -53 -18 -34.5Q-4 -16 13.5 -3.5Q31 9 49 14L158 700H187L76 0H62Q46 -2 30.5 -12.5Q15 -23 2.5 -39.5Q-10 -56 -18 -77Q-26 -98 -26 -122Q-26 -153 -12 -164Q2 -175 20 -175Q46 -175 65 -160Z" glyph-name="Iogonek" horiz-adv-x="206" unicode="&#302;" /><glyph d="M47 0ZM47 0 158 700H187L76 0ZM272 878H294Q291 855 284.5 840.5Q278 826 269.5 817.5Q261 809 252 806Q243 803 235 803Q219 803 209 811.5Q199 820 190 830.5Q181 841 172.5 849.5Q164 858 151 858Q140 858 130.5 848Q121 838 117 807H95Q98 830 104.5 844.5Q111 859 119 867Q127 875 136 878Q145 881 153 881Q169 881 179 872.5Q189 864 198 854Q207 844 216 835.5Q225 827 238 827Q250 827 258.5 838Q267 849 272 878Z" glyph-name="Itilde" horiz-adv-x="206" unicode="&#296;" /><glyph d="M83 -10Q53 -10 27.5 0Q2 10 -17 31L2 55Q34 17 87 17Q151 17 199 71.5Q247 126 267 252L338 700H368L297 254Q286 182 266 131.5Q246 81 218.5 49.5Q191 18 156.5 4Q122 -10 83 -10Z" glyph-name="J" horiz-adv-x="371" unicode="J" /><glyph d="M0 0ZM83 -10Q53 -10 27.5 0Q2 10 -17 31L2 55Q34 17 87 17Q151 17 199 71.5Q247 126 267 252L338 700H368L297 254Q286 182 266 131.5Q246 81 218.5 49.5Q191 18 156.5 4Q122 -10 83 -10ZM369 892H393L462 787V785H434L379 871L296 785H265V787Z" glyph-name="Jcircumflex" horiz-adv-x="371" unicode="&#308;" /><glyph d="M374 0 228 361 110 217 76 0H47L158 700H187L117 262L468 700H502L250 388L407 0Z" glyph-name="K" horiz-adv-x="457" unicode="K" /><glyph d="M369 0 145 343 146 346 461 700H497L179 345L404 0ZM47 0 158 700H187L76 0Z" glyph-name="K.alt" horiz-adv-x="452" /><glyph d="M47 0ZM374 0 228 361 110 217 76 0H47L158 700H187L117 262L468 700H502L250 388L407 0ZM167 -221 159 -209Q178 -197 192 -174.5Q206 -152 209 -126Q196 -131 186 -124.5Q176 -118 176 -103Q177 -89 185 -80.5Q193 -72 207 -72Q230 -72 230 -101Q230 -119 225 -137Q220 -155 212 -171Q204 -187 192.5 -200.5Q181 -214 167 -221Z" glyph-name="Kcommaaccent" horiz-adv-x="460" unicode="&#310;" /><glyph d="M47 0ZM369 0 145 343 146 346 461 700H497L179 345L404 0ZM47 0 158 700H187L76 0ZM170 -221 162 -209Q181 -197 195 -174.5Q209 -152 212 -126Q199 -131 189 -124.5Q179 -118 179 -103Q180 -89 188 -80.5Q196 -72 210 -72Q233 -72 233 -101Q233 -119 228 -137Q223 -155 215 -171Q207 -187 195.5 -200.5Q184 -214 170 -221Z" glyph-name="Kcommaaccent.alt" horiz-adv-x="452" /><glyph d="M80 27H394L390 0H47L157 700H187Z" glyph-name="L" horiz-adv-x="450" unicode="L" /><glyph d="M47 0ZM80 27H394L390 0H47L157 700H187ZM248 892H287L286 888L194 785H170V788Z" glyph-name="Lacute" horiz-adv-x="450" unicode="&#313;" /><glyph d="M47 0ZM353 516H332L366 701H397ZM80 27H394L390 0H47L157 700H187Z" glyph-name="Lcaron" horiz-adv-x="451" unicode="&#317;" /><glyph d="M47 0ZM80 27H394L390 0H47L157 700H187ZM168 -221 160 -209Q179 -197 193 -174.5Q207 -152 210 -126Q197 -131 187 -124.5Q177 -118 177 -103Q178 -89 186 -80.5Q194 -72 208 -72Q231 -72 231 -101Q231 -119 226 -137Q221 -155 213 -171Q205 -187 193.5 -200.5Q182 -214 168 -221Z" glyph-name="Lcommaaccent" horiz-adv-x="450" unicode="&#315;" /><glyph d="M47 0ZM80 27H394L390 0H47L157 700H187ZM316 348Q316 382 347 382Q370 382 370 357Q370 323 339 323Q316 323 316 348Z" glyph-name="Ldot" horiz-adv-x="451" unicode="&#319;" /><glyph d="M92 27H406L402 0H59L107 307L12 224L17 256L112 338L170 700H199L145 360L291 486L286 454L140 329Z" glyph-name="Lslash" horiz-adv-x="461" unicode="&#321;" /><glyph d="M290 0 176 648 75 0H47L158 700H195L309 44L630 700H667L556 0H528L632 647L314 0Z" glyph-name="M" horiz-adv-x="687" unicode="M" /><glyph d="M407 0 178 652 76 0H47L158 700H191L418 51L519 700H548L437 0Z" glyph-name="N" horiz-adv-x="567" unicode="N" /><glyph glyph-name="NULL" horiz-adv-x="131" /><glyph d="M47 0ZM407 0 178 652 76 0H47L158 700H191L418 51L519 700H548L437 0ZM429 892H468L467 888L375 785H351V788Z" glyph-name="Nacute" horiz-adv-x="567" unicode="&#323;" /><glyph d="M47 0ZM407 0 178 652 76 0H47L158 700H191L418 51L519 700H548L437 0ZM355 785 286 891V892H315L370 807L452 892H483V891L379 785Z" glyph-name="Ncaron" horiz-adv-x="567" unicode="&#327;" /><glyph d="M47 0ZM407 0 178 652 76 0H47L158 700H191L418 51L519 700H548L437 0ZM193 -221 185 -209Q204 -197 218 -174.5Q232 -152 235 -126Q222 -131 212 -124.5Q202 -118 202 -103Q203 -89 211 -80.5Q219 -72 233 -72Q256 -72 256 -101Q256 -119 251 -137Q246 -155 238 -171Q230 -187 218.5 -200.5Q207 -214 193 -221Z" glyph-name="Ncommaaccent" horiz-adv-x="567" unicode="&#325;" /><glyph d="M47 0ZM407 0 178 652 76 0H47L158 700H191L418 51L519 700H548L437 0ZM453 878H475Q472 855 465.5 840.5Q459 826 450.5 817.5Q442 809 433 806Q424 803 416 803Q400 803 390 811.5Q380 820 371 830.5Q362 841 353.5 849.5Q345 858 332 858Q321 858 311.5 848Q302 838 298 807H276Q279 830 285.5 844.5Q292 859 300 867Q308 875 317 878Q326 881 334 881Q350 881 360 872.5Q370 864 379 854Q388 844 397 835.5Q406 827 419 827Q431 827 439.5 838Q448 849 453 878Z" glyph-name="Ntilde" horiz-adv-x="567" unicode="&#209;" /><glyph d="M350 710Q435 710 481 658.5Q527 607 527 489Q527 458 524.5 424.5Q522 391 515 350Q500 252 474.5 183.5Q449 115 414.5 72Q380 29 336.5 9.5Q293 -10 240 -10Q154 -10 107.5 42Q61 94 61 214Q61 273 73 350Q88 448 113.5 516.5Q139 585 173.5 628Q208 671 252.5 690.5Q297 710 350 710ZM347 683Q303 683 265 666.5Q227 650 196.5 611.5Q166 573 142.5 509Q119 445 104 350Q98 312 95 279.5Q92 247 92 215Q92 161 102 123Q112 85 131.5 61.5Q151 38 178.5 27.5Q206 17 242 17Q286 17 323.5 33.5Q361 50 392 89Q423 128 446 192Q469 256 484 351Q496 427 496 488Q496 542 486 579Q476 616 457 639.5Q438 663 410.5 673Q383 683 347 683Z" glyph-name="O" horiz-adv-x="562" unicode="O" /><glyph d="M253 0Q162 0 113 53Q64 106 64 227Q64 254 66.5 284.5Q69 315 74 350Q89 444 115 510.5Q141 577 177 619Q213 661 259 680.5Q305 700 361 700H840L835 674H520L471 365H748L744 338H466L417 27H742L738 0ZM255 26H388L490 673H359Q313 673 273 656.5Q233 640 200.5 602Q168 564 143.5 502Q119 440 105 350Q100 317 97 286.5Q94 256 94 229Q94 174 105 135.5Q116 97 137 72.5Q158 48 188 37Q218 26 255 26Z" glyph-name="OE" horiz-adv-x="811" unicode="&#338;" /><glyph d="M61 0ZM350 710Q435 710 481 658.5Q527 607 527 489Q527 458 524.5 424.5Q522 391 515 350Q500 252 474.5 183.5Q449 115 414.5 72Q380 29 336.5 9.5Q293 -10 240 -10Q154 -10 107.5 42Q61 94 61 214Q61 273 73 350Q88 448 113.5 516.5Q139 585 173.5 628Q208 671 252.5 690.5Q297 710 350 710ZM347 683Q303 683 265 666.5Q227 650 196.5 611.5Q166 573 142.5 509Q119 445 104 350Q98 312 95 279.5Q92 247 92 215Q92 161 102 123Q112 85 131.5 61.5Q151 38 178.5 27.5Q206 17 242 17Q286 17 323.5 33.5Q361 50 392 89Q423 128 446 192Q469 256 484 351Q496 427 496 488Q496 542 486 579Q476 616 457 639.5Q438 663 410.5 673Q383 683 347 683ZM425 892H464L463 888L371 785H347V788Z" glyph-name="Oacute" horiz-adv-x="562" unicode="&#211;" /><glyph d="M61 0ZM350 710Q435 710 481 658.5Q527 607 527 489Q527 458 524.5 424.5Q522 391 515 350Q500 252 474.5 183.5Q449 115 414.5 72Q380 29 336.5 9.5Q293 -10 240 -10Q154 -10 107.5 42Q61 94 61 214Q61 273 73 350Q88 448 113.5 516.5Q139 585 173.5 628Q208 671 252.5 690.5Q297 710 350 710ZM347 683Q303 683 265 666.5Q227 650 196.5 611.5Q166 573 142.5 509Q119 445 104 350Q98 312 95 279.5Q92 247 92 215Q92 161 102 123Q112 85 131.5 61.5Q151 38 178.5 27.5Q206 17 242 17Q286 17 323.5 33.5Q361 50 392 89Q423 128 446 192Q469 256 484 351Q496 427 496 488Q496 542 486 579Q476 616 457 639.5Q438 663 410.5 673Q383 683 347 683ZM446 891H467Q459 832 432 809Q405 786 362 786Q319 786 298.5 809.5Q278 833 287 891H309Q302 843 316 825.5Q330 808 363 808Q398 808 418 825.5Q438 843 446 891Z" glyph-name="Obreve" horiz-adv-x="562" unicode="&#334;" /><glyph d="M61 0ZM350 710Q435 710 481 658.5Q527 607 527 489Q527 458 524.5 424.5Q522 391 515 350Q500 252 474.5 183.5Q449 115 414.5 72Q380 29 336.5 9.5Q293 -10 240 -10Q154 -10 107.5 42Q61 94 61 214Q61 273 73 350Q88 448 113.5 516.5Q139 585 173.5 628Q208 671 252.5 690.5Q297 710 350 710ZM347 683Q303 683 265 666.5Q227 650 196.5 611.5Q166 573 142.5 509Q119 445 104 350Q98 312 95 279.5Q92 247 92 215Q92 161 102 123Q112 85 131.5 61.5Q151 38 178.5 27.5Q206 17 242 17Q286 17 323.5 33.5Q361 50 392 89Q423 128 446 192Q469 256 484 351Q496 427 496 488Q496 542 486 579Q476 616 457 639.5Q438 663 410.5 673Q383 683 347 683ZM366 892H390L459 787V785H431L376 871L293 785H262V787Z" glyph-name="Ocircumflex" horiz-adv-x="562" unicode="&#212;" /><glyph d="M61 0ZM350 710Q435 710 481 658.5Q527 607 527 489Q527 458 524.5 424.5Q522 391 515 350Q500 252 474.5 183.5Q449 115 414.5 72Q380 29 336.5 9.5Q293 -10 240 -10Q154 -10 107.5 42Q61 94 61 214Q61 273 73 350Q88 448 113.5 516.5Q139 585 173.5 628Q208 671 252.5 690.5Q297 710 350 710ZM347 683Q303 683 265 666.5Q227 650 196.5 611.5Q166 573 142.5 509Q119 445 104 350Q98 312 95 279.5Q92 247 92 215Q92 161 102 123Q112 85 131.5 61.5Q151 38 178.5 27.5Q206 17 242 17Q286 17 323.5 33.5Q361 50 392 89Q423 128 446 192Q469 256 484 351Q496 427 496 488Q496 542 486 579Q476 616 457 639.5Q438 663 410.5 673Q383 683 347 683ZM288 827Q288 861 319 861Q330 861 336.5 854.5Q343 848 343 836Q343 820 334.5 811Q326 802 312 802Q288 802 288 827ZM395 827Q395 861 426 861Q450 861 450 836Q450 802 419 802Q395 802 395 827Z" glyph-name="Odieresis" horiz-adv-x="562" unicode="&#214;" /><glyph d="M61 0ZM350 710Q435 710 481 658.5Q527 607 527 489Q527 458 524.5 424.5Q522 391 515 350Q500 252 474.5 183.5Q449 115 414.5 72Q380 29 336.5 9.5Q293 -10 240 -10Q154 -10 107.5 42Q61 94 61 214Q61 273 73 350Q88 448 113.5 516.5Q139 585 173.5 628Q208 671 252.5 690.5Q297 710 350 710ZM347 683Q303 683 265 666.5Q227 650 196.5 611.5Q166 573 142.5 509Q119 445 104 350Q98 312 95 279.5Q92 247 92 215Q92 161 102 123Q112 85 131.5 61.5Q151 38 178.5 27.5Q206 17 242 17Q286 17 323.5 33.5Q361 50 392 89Q423 128 446 192Q469 256 484 351Q496 427 496 488Q496 542 486 579Q476 616 457 639.5Q438 663 410.5 673Q383 683 347 683ZM355 785 292 888V892H330L378 788V785Z" glyph-name="Ograve" horiz-adv-x="562" unicode="&#210;" /><glyph d="M61 0ZM350 710Q435 710 481 658.5Q527 607 527 489Q527 458 524.5 424.5Q522 391 515 350Q500 252 474.5 183.5Q449 115 414.5 72Q380 29 336.5 9.5Q293 -10 240 -10Q154 -10 107.5 42Q61 94 61 214Q61 273 73 350Q88 448 113.5 516.5Q139 585 173.5 628Q208 671 252.5 690.5Q297 710 350 710ZM347 683Q303 683 265 666.5Q227 650 196.5 611.5Q166 573 142.5 509Q119 445 104 350Q98 312 95 279.5Q92 247 92 215Q92 161 102 123Q112 85 131.5 61.5Q151 38 178.5 27.5Q206 17 242 17Q286 17 323.5 33.5Q361 50 392 89Q423 128 446 192Q469 256 484 351Q496 427 496 488Q496 542 486 579Q476 616 457 639.5Q438 663 410.5 673Q383 683 347 683ZM478 892H517V888L422 785H401V788ZM383 892H422V888L327 785H306V788Z" glyph-name="Ohungarumlaut" horiz-adv-x="562" unicode="&#336;" /><glyph d="M61 0ZM350 710Q435 710 481 658.5Q527 607 527 489Q527 458 524.5 424.5Q522 391 515 350Q500 252 474.5 183.5Q449 115 414.5 72Q380 29 336.5 9.5Q293 -10 240 -10Q154 -10 107.5 42Q61 94 61 214Q61 273 73 350Q88 448 113.5 516.5Q139 585 173.5 628Q208 671 252.5 690.5Q297 710 350 710ZM347 683Q303 683 265 666.5Q227 650 196.5 611.5Q166 573 142.5 509Q119 445 104 350Q98 312 95 279.5Q92 247 92 215Q92 161 102 123Q112 85 131.5 61.5Q151 38 178.5 27.5Q206 17 242 17Q286 17 323.5 33.5Q361 50 392 89Q423 128 446 192Q469 256 484 351Q496 427 496 488Q496 542 486 579Q476 616 457 639.5Q438 663 410.5 673Q383 683 347 683ZM457 848 453 825H285L288 848Z" glyph-name="Omacron" horiz-adv-x="562" unicode="&#332;" /><glyph d="M240 -10Q189 -10 151.5 9Q114 28 91 69L35 0H6L80 93Q62 139 62 216Q62 245 65.5 279Q69 313 74 350Q89 447 114.5 515.5Q140 584 174.5 627.5Q209 671 253 690.5Q297 710 350 710Q405 710 444 689Q483 668 504 620L569 700H598L514 596Q521 573 524.5 546.5Q528 520 528 487Q528 429 516 350Q501 252 475.5 183.5Q450 115 415.5 72Q381 29 337 9.5Q293 -10 240 -10ZM104 122 484 593Q467 642 432.5 662.5Q398 683 348 683Q304 683 266 666.5Q228 650 197 611Q166 572 143 508Q120 444 105 350Q99 313 95.5 279Q92 245 92 214Q92 159 104 122ZM242 16Q286 16 324 32.5Q362 49 392.5 88Q423 127 446.5 191Q470 255 485 350Q491 388 494.5 421.5Q498 455 498 487Q498 532 489 565L111 94Q129 52 162 34Q195 16 242 16Z" glyph-name="Oslash" horiz-adv-x="560" unicode="&#216;" /><glyph d="M61 0ZM350 710Q435 710 481 658.5Q527 607 527 489Q527 458 524.5 424.5Q522 391 515 350Q500 252 474.5 183.5Q449 115 414.5 72Q380 29 336.5 9.5Q293 -10 240 -10Q154 -10 107.5 42Q61 94 61 214Q61 273 73 350Q88 448 113.5 516.5Q139 585 173.5 628Q208 671 252.5 690.5Q297 710 350 710ZM347 683Q303 683 265 666.5Q227 650 196.5 611.5Q166 573 142.5 509Q119 445 104 350Q98 312 95 279.5Q92 247 92 215Q92 161 102 123Q112 85 131.5 61.5Q151 38 178.5 27.5Q206 17 242 17Q286 17 323.5 33.5Q361 50 392 89Q423 128 446 192Q469 256 484 351Q496 427 496 488Q496 542 486 579Q476 616 457 639.5Q438 663 410.5 673Q383 683 347 683ZM448 878H470Q467 855 460.5 840.5Q454 826 445.5 817.5Q437 809 428 806Q419 803 411 803Q395 803 385 811.5Q375 820 366 830.5Q357 841 348.5 849.5Q340 858 327 858Q316 858 306.5 848Q297 838 293 807H271Q274 830 280.5 844.5Q287 859 295 867Q303 875 312 878Q321 881 329 881Q345 881 355 872.5Q365 864 374 854Q383 844 392 835.5Q401 827 414 827Q426 827 434.5 838Q443 849 448 878Z" glyph-name="Otilde" horiz-adv-x="562" unicode="&#213;" /><glyph d="M47 0 158 700H325Q409 700 447.5 662Q486 624 486 548Q486 492 473 441.5Q460 391 432.5 353Q405 315 363 292Q321 269 263 269H119L76 0ZM323 674H183L123 295H269Q312 295 346.5 312.5Q381 330 405.5 363Q430 396 443 442.5Q456 489 456 547Q456 674 323 674Z" glyph-name="P" horiz-adv-x="493" unicode="P" /><glyph d="M350 710Q435 710 481 658.5Q527 607 527 489Q527 458 524.5 424.5Q522 391 515 350Q493 214 453.5 134Q414 54 356 20L410 -92H380L331 8Q290 -10 240 -10Q154 -10 107.5 42Q61 94 61 214Q61 244 64.5 278Q68 312 74 350Q89 448 114.5 516.5Q140 585 174.5 628Q209 671 253 690.5Q297 710 350 710ZM347 683Q303 683 265.5 666.5Q228 650 197 611.5Q166 573 142.5 509Q119 445 104 350Q98 312 95 279Q92 246 92 214Q92 160 102 122Q112 84 131.5 60.5Q151 37 178.5 26.5Q206 16 242 16Q263 16 283 20Q303 24 320 33L265 151H295L346 46Q394 77 429 149.5Q464 222 484 350Q490 389 493.5 422.5Q497 456 497 488Q497 542 487 579Q477 616 457.5 639.5Q438 663 410.5 673Q383 683 347 683Z" glyph-name="Q" horiz-adv-x="562" unicode="Q" /><glyph d="M126 315H275Q362 315 409.5 378Q457 441 457 549Q457 616 424 645Q391 674 323 674H183ZM47 0 158 700H325Q409 700 448.5 663.5Q488 627 488 553Q488 508 478.5 467Q469 426 450.5 392Q432 358 403 333Q374 308 335 297L408 0H377L307 291Q300 290 290.5 289.5Q281 289 271 289H122L76 0Z" glyph-name="R" horiz-adv-x="486" unicode="R" /><glyph d="M47 0ZM126 315H275Q362 315 409.5 378Q457 441 457 549Q457 616 424 645Q391 674 323 674H183ZM47 0 158 700H325Q409 700 448.5 663.5Q488 627 488 553Q488 508 478.5 467Q469 426 450.5 392Q432 358 403 333Q374 308 335 297L408 0H377L307 291Q300 290 290.5 289.5Q281 289 271 289H122L76 0ZM397 892H436L435 888L343 785H319V788Z" glyph-name="Racute" horiz-adv-x="486" unicode="&#340;" /><glyph d="M47 0ZM126 315H275Q362 315 409.5 378Q457 441 457 549Q457 616 424 645Q391 674 323 674H183ZM47 0 158 700H325Q409 700 448.5 663.5Q488 627 488 553Q488 508 478.5 467Q469 426 450.5 392Q432 358 403 333Q374 308 335 297L408 0H377L307 291Q300 290 290.5 289.5Q281 289 271 289H122L76 0ZM321 785 252 891V892H281L336 807L418 892H449V891L345 785Z" glyph-name="Rcaron" horiz-adv-x="486" unicode="&#344;" /><glyph d="M47 0ZM126 315H275Q362 315 409.5 378Q457 441 457 549Q457 616 424 645Q391 674 323 674H183ZM47 0 158 700H325Q409 700 448.5 663.5Q488 627 488 553Q488 508 478.5 467Q469 426 450.5 392Q432 358 403 333Q374 308 335 297L408 0H377L307 291Q300 290 290.5 289.5Q281 289 271 289H122L76 0ZM169 -221 161 -209Q180 -197 194 -174.5Q208 -152 211 -126Q198 -131 188 -124.5Q178 -118 178 -103Q179 -89 187 -80.5Q195 -72 209 -72Q232 -72 232 -101Q232 -119 227 -137Q222 -155 214 -171Q206 -187 194.5 -200.5Q183 -214 169 -221Z" glyph-name="Rcommaaccent" horiz-adv-x="486" unicode="&#342;" /><glyph d="M436 552 409 541Q404 582 392.5 609.5Q381 637 363 653.5Q345 670 321 677Q297 684 269 684Q232 684 203.5 672Q175 660 156 639Q137 618 127 590Q117 562 117 530Q117 502 124 481Q131 460 144.5 442.5Q158 425 177.5 411Q197 397 222 384L261 363Q325 328 356 290Q387 252 387 194Q387 98 334.5 44Q282 -10 188 -10Q153 -10 123.5 -1Q94 8 71 28.5Q48 49 32 82Q16 115 9 164L37 175Q43 130 56 99.5Q69 69 88.5 50.5Q108 32 133.5 24Q159 16 189 16Q268 16 312.5 62.5Q357 109 357 190Q357 236 332.5 269.5Q308 303 250 334L211 355Q183 370 160.5 387Q138 404 121.5 424.5Q105 445 96 469.5Q87 494 87 525Q87 564 99 597.5Q111 631 134.5 656.5Q158 682 192.5 696.5Q227 711 273 711Q337 711 381.5 674.5Q426 638 436 552Z" glyph-name="S" horiz-adv-x="442" unicode="S" /><glyph d="M9 0ZM436 552 409 541Q404 582 392.5 609.5Q381 637 363 653.5Q345 670 321 677Q297 684 269 684Q232 684 203.5 672Q175 660 156 639Q137 618 127 590Q117 562 117 530Q117 502 124 481Q131 460 144.5 442.5Q158 425 177.5 411Q197 397 222 384L261 363Q325 328 356 290Q387 252 387 194Q387 98 334.5 44Q282 -10 188 -10Q153 -10 123.5 -1Q94 8 71 28.5Q48 49 32 82Q16 115 9 164L37 175Q43 130 56 99.5Q69 69 88.5 50.5Q108 32 133.5 24Q159 16 189 16Q268 16 312.5 62.5Q357 109 357 190Q357 236 332.5 269.5Q308 303 250 334L211 355Q183 370 160.5 387Q138 404 121.5 424.5Q105 445 96 469.5Q87 494 87 525Q87 564 99 597.5Q111 631 134.5 656.5Q158 682 192.5 696.5Q227 711 273 711Q337 711 381.5 674.5Q426 638 436 552ZM357 891H396L395 887L303 784H279V787Z" glyph-name="Sacute" horiz-adv-x="442" unicode="&#346;" /><glyph d="M9 0ZM436 552 409 541Q404 582 392.5 609.5Q381 637 363 653.5Q345 670 321 677Q297 684 269 684Q232 684 203.5 672Q175 660 156 639Q137 618 127 590Q117 562 117 530Q117 502 124 481Q131 460 144.5 442.5Q158 425 177.5 411Q197 397 222 384L261 363Q325 328 356 290Q387 252 387 194Q387 98 334.5 44Q282 -10 188 -10Q153 -10 123.5 -1Q94 8 71 28.5Q48 49 32 82Q16 115 9 164L37 175Q43 130 56 99.5Q69 69 88.5 50.5Q108 32 133.5 24Q159 16 189 16Q268 16 312.5 62.5Q357 109 357 190Q357 236 332.5 269.5Q308 303 250 334L211 355Q183 370 160.5 387Q138 404 121.5 424.5Q105 445 96 469.5Q87 494 87 525Q87 564 99 597.5Q111 631 134.5 656.5Q158 682 192.5 696.5Q227 711 273 711Q337 711 381.5 674.5Q426 638 436 552ZM284 784 215 890V891H244L299 806L381 891H412V890L308 784Z" glyph-name="Scaron" horiz-adv-x="442" unicode="&#352;" /><glyph d="M144 -221Q113 -221 95.5 -208.5Q78 -196 68 -171L89 -160Q100 -200 144 -200Q176 -200 191 -182.5Q206 -165 206 -139Q206 -110 187 -102Q168 -94 147 -102L139 -95L166 -9Q104 -4 63 35Q22 74 9 164L37 175Q43 130 56 99.5Q69 69 88.5 50.5Q108 32 133.5 24Q159 16 189 16Q268 16 312.5 62.5Q357 109 357 190Q357 236 332.5 269.5Q308 303 250 334L211 355Q183 370 160.5 387Q138 404 121.5 424.5Q105 445 96 469.5Q87 494 87 525Q87 564 99 597.5Q111 631 134.5 656.5Q158 682 192.5 696.5Q227 711 273 711Q337 711 381.5 674.5Q426 638 436 552L409 541Q404 582 392.5 609.5Q381 637 363 653.5Q345 670 321 677Q297 684 269 684Q232 684 203.5 672Q175 660 156 639Q137 618 127 590Q117 562 117 530Q117 502 124 481Q131 460 144.5 442.5Q158 425 177.5 411Q197 397 222 384L261 363Q325 328 356 290Q387 252 387 194Q387 98 334.5 44Q282 -10 188 -10H187L163 -83Q174 -81 186 -82.5Q198 -84 207.5 -91Q217 -98 223 -109.5Q229 -121 229 -138Q229 -179 205.5 -200Q182 -221 144 -221Z" glyph-name="Scedilla" horiz-adv-x="442" unicode="&#350;" /><glyph d="M9 0ZM436 552 409 541Q404 582 392.5 609.5Q381 637 363 653.5Q345 670 321 677Q297 684 269 684Q232 684 203.5 672Q175 660 156 639Q137 618 127 590Q117 562 117 530Q117 502 124 481Q131 460 144.5 442.5Q158 425 177.5 411Q197 397 222 384L261 363Q325 328 356 290Q387 252 387 194Q387 98 334.5 44Q282 -10 188 -10Q153 -10 123.5 -1Q94 8 71 28.5Q48 49 32 82Q16 115 9 164L37 175Q43 130 56 99.5Q69 69 88.5 50.5Q108 32 133.5 24Q159 16 189 16Q268 16 312.5 62.5Q357 109 357 190Q357 236 332.5 269.5Q308 303 250 334L211 355Q183 370 160.5 387Q138 404 121.5 424.5Q105 445 96 469.5Q87 494 87 525Q87 564 99 597.5Q111 631 134.5 656.5Q158 682 192.5 696.5Q227 711 273 711Q337 711 381.5 674.5Q426 638 436 552ZM299 891H323L392 786V784H364L309 870L226 784H195V786Z" glyph-name="Scircumflex" horiz-adv-x="442" unicode="&#348;" /><glyph d="M9 0ZM436 552 409 541Q404 582 392.5 609.5Q381 637 363 653.5Q345 670 321 677Q297 684 269 684Q232 684 203.5 672Q175 660 156 639Q137 618 127 590Q117 562 117 530Q117 502 124 481Q131 460 144.5 442.5Q158 425 177.5 411Q197 397 222 384L261 363Q325 328 356 290Q387 252 387 194Q387 98 334.5 44Q282 -10 188 -10Q153 -10 123.5 -1Q94 8 71 28.5Q48 49 32 82Q16 115 9 164L37 175Q43 130 56 99.5Q69 69 88.5 50.5Q108 32 133.5 24Q159 16 189 16Q268 16 312.5 62.5Q357 109 357 190Q357 236 332.5 269.5Q308 303 250 334L211 355Q183 370 160.5 387Q138 404 121.5 424.5Q105 445 96 469.5Q87 494 87 525Q87 564 99 597.5Q111 631 134.5 656.5Q158 682 192.5 696.5Q227 711 273 711Q337 711 381.5 674.5Q426 638 436 552ZM130 -221 122 -209Q141 -197 155 -174.5Q169 -152 172 -126Q159 -131 149 -124.5Q139 -118 139 -103Q140 -89 148 -80.5Q156 -72 170 -72Q193 -72 193 -101Q193 -119 188 -137Q183 -155 175 -171Q167 -187 155.5 -200.5Q144 -214 130 -221Z" glyph-name="Scommaaccent" horiz-adv-x="442" unicode="&#536;" /><glyph d="M81 700H474L469 673H287L181 0H151L258 673H77Z" glyph-name="T" horiz-adv-x="418" unicode="T" /><glyph d="M62 362H209L258 673H77L81 700H474L470 673H288L239 362H386L383 340H235L181 0H152L206 340H58Z" glyph-name="Tbar" horiz-adv-x="419" unicode="&#358;" /><glyph d="M77 0ZM81 700H474L469 673H287L181 0H151L258 673H77ZM279 785 210 891V892H239L294 807L376 892H407V891L303 785Z" glyph-name="Tcaron" horiz-adv-x="418" unicode="&#356;" /><glyph d="M125 -95 155 0H151L258 673H77L81 700H474L469 673H287L181 0H176L149 -83Q160 -81 172 -82.5Q184 -84 193.5 -91Q203 -98 209 -109.5Q215 -121 215 -138Q215 -179 191.5 -200Q168 -221 130 -221Q99 -221 81.5 -208.5Q64 -196 54 -171L75 -160Q86 -200 130 -200Q162 -200 177 -182.5Q192 -165 192 -139Q192 -110 173 -102Q154 -94 133 -102Z" glyph-name="Tcedilla" horiz-adv-x="418" unicode="&#354;" /><glyph d="M47 0 158 700H188L164 551H319Q387 551 419 516.5Q451 482 451 412Q451 364 440 319.5Q429 275 405 241Q381 207 344 186.5Q307 166 255 166H103L77 0ZM315 525H160L108 192H259Q332 192 376.5 247Q421 302 421 408Q421 470 395 497.5Q369 525 315 525Z" glyph-name="Thorn" horiz-adv-x="469" unicode="&#222;" /><glyph d="M436 234 511 700H541L467 234Q447 106 385 48Q323 -10 230 -10Q149 -10 105 31.5Q61 73 61 164Q61 195 67 234L142 700H172L97 236Q94 218 93 201Q92 184 92 169Q92 89 129 53.5Q166 18 232 18Q311 18 364 67.5Q417 117 436 234Z" glyph-name="U" horiz-adv-x="544" unicode="U" /><glyph d="M61 0ZM436 234 511 700H541L467 234Q447 106 385 48Q323 -10 230 -10Q149 -10 105 31.5Q61 73 61 164Q61 195 67 234L142 700H172L97 236Q94 218 93 201Q92 184 92 169Q92 89 129 53.5Q166 18 232 18Q311 18 364 67.5Q417 117 436 234ZM417 893H456L455 889L363 786H339V789Z" glyph-name="Uacute" horiz-adv-x="544" unicode="&#218;" /><glyph d="M61 0ZM436 234 511 700H541L467 234Q447 106 385 48Q323 -10 230 -10Q149 -10 105 31.5Q61 73 61 164Q61 195 67 234L142 700H172L97 236Q94 218 93 201Q92 184 92 169Q92 89 129 53.5Q166 18 232 18Q311 18 364 67.5Q417 117 436 234ZM439 892H460Q452 833 425 810Q398 787 355 787Q312 787 291.5 810.5Q271 834 280 892H302Q295 844 309 826.5Q323 809 356 809Q391 809 411 826.5Q431 844 439 892Z" glyph-name="Ubreve" horiz-adv-x="544" unicode="&#364;" /><glyph d="M61 0ZM436 234 511 700H541L467 234Q447 106 385 48Q323 -10 230 -10Q149 -10 105 31.5Q61 73 61 164Q61 195 67 234L142 700H172L97 236Q94 218 93 201Q92 184 92 169Q92 89 129 53.5Q166 18 232 18Q311 18 364 67.5Q417 117 436 234ZM358 893H382L451 788V786H423L368 872L285 786H254V788Z" glyph-name="Ucircumflex" horiz-adv-x="544" unicode="&#219;" /><glyph d="M61 0ZM436 234 511 700H541L467 234Q447 106 385 48Q323 -10 230 -10Q149 -10 105 31.5Q61 73 61 164Q61 195 67 234L142 700H172L97 236Q94 218 93 201Q92 184 92 169Q92 89 129 53.5Q166 18 232 18Q311 18 364 67.5Q417 117 436 234ZM280 828Q280 862 311 862Q322 862 328.5 855.5Q335 849 335 837Q335 821 326.5 812Q318 803 304 803Q280 803 280 828ZM387 828Q387 862 418 862Q442 862 442 837Q442 803 411 803Q387 803 387 828Z" glyph-name="Udieresis" horiz-adv-x="544" unicode="&#220;" /><glyph d="M61 0ZM436 234 511 700H541L467 234Q447 106 385 48Q323 -10 230 -10Q149 -10 105 31.5Q61 73 61 164Q61 195 67 234L142 700H172L97 236Q94 218 93 201Q92 184 92 169Q92 89 129 53.5Q166 18 232 18Q311 18 364 67.5Q417 117 436 234ZM348 785 285 888V892H323L371 788V785Z" glyph-name="Ugrave" horiz-adv-x="544" unicode="&#217;" /><glyph d="M61 0ZM436 234 511 700H541L467 234Q447 106 385 48Q323 -10 230 -10Q149 -10 105 31.5Q61 73 61 164Q61 195 67 234L142 700H172L97 236Q94 218 93 201Q92 184 92 169Q92 89 129 53.5Q166 18 232 18Q311 18 364 67.5Q417 117 436 234ZM471 893H510V889L415 786H394V789ZM376 893H415V889L320 786H299V789Z" glyph-name="Uhungarumlaut" horiz-adv-x="544" unicode="&#368;" /><glyph d="M61 0ZM436 234 511 700H541L467 234Q447 106 385 48Q323 -10 230 -10Q149 -10 105 31.5Q61 73 61 164Q61 195 67 234L142 700H172L97 236Q94 218 93 201Q92 184 92 169Q92 89 129 53.5Q166 18 232 18Q311 18 364 67.5Q417 117 436 234ZM450 849 446 826H278L281 849Z" glyph-name="Umacron" horiz-adv-x="544" unicode="&#362;" /><glyph d="M251 -198Q223 -198 205 -181.5Q187 -165 187 -126Q187 -89 203 -59Q219 -29 242 -10Q157 -13 109 28.5Q61 70 61 164Q61 195 67 234L142 700H172L97 236Q95 218 93.5 201Q92 184 92 169Q92 89 129 53.5Q166 18 232 18Q311 18 364.5 67.5Q418 117 436 234L511 700H541L467 234Q449 123 400.5 65.5Q352 8 279 -6Q252 -18 231 -49.5Q210 -81 210 -122Q210 -153 224 -164Q238 -175 256 -175Q282 -175 301 -160L310 -179Q296 -190 281.5 -194Q267 -198 251 -198Z" glyph-name="Uogonek" horiz-adv-x="544" unicode="&#370;" /><glyph d="M61 0ZM436 234 511 700H541L467 234Q447 106 385 48Q323 -10 230 -10Q149 -10 105 31.5Q61 73 61 164Q61 195 67 234L142 700H172L97 236Q94 218 93 201Q92 184 92 169Q92 89 129 53.5Q166 18 232 18Q311 18 364 67.5Q417 117 436 234ZM374 934Q399 934 417 916.5Q435 899 435 866Q435 828 413 800.5Q391 773 356 773Q331 773 313 790Q295 807 295 841Q295 878 317 906Q339 934 374 934ZM371 915Q348 915 332 893.5Q316 872 316 843Q316 818 328 805Q340 792 357 792Q381 792 398 813Q415 834 415 864Q415 889 402 902Q389 915 371 915Z" glyph-name="Uring" horiz-adv-x="544" unicode="&#366;" /><glyph d="M61 0ZM436 234 511 700H541L467 234Q447 106 385 48Q323 -10 230 -10Q149 -10 105 31.5Q61 73 61 164Q61 195 67 234L142 700H172L97 236Q94 218 93 201Q92 184 92 169Q92 89 129 53.5Q166 18 232 18Q311 18 364 67.5Q417 117 436 234ZM441 879H463Q460 856 453.5 841.5Q447 827 438.5 818.5Q430 810 421 807Q412 804 404 804Q388 804 378 812.5Q368 821 359 831.5Q350 842 341.5 850.5Q333 859 320 859Q309 859 299.5 849Q290 839 286 808H264Q267 831 273.5 845.5Q280 860 288 868Q296 876 305 879Q314 882 322 882Q338 882 348 873.5Q358 865 367 855Q376 845 385 836.5Q394 828 407 828Q419 828 427.5 839Q436 850 441 879Z" glyph-name="Utilde" horiz-adv-x="544" unicode="&#360;" /><glyph d="M183 36 466 700H497L195 0H159L80 700H110Z" glyph-name="V" horiz-adv-x="441" unicode="V" /><glyph d="M126 0 81 700H111L151 47L383 692H418L444 48L691 700H721L453 0H420L392 640L161 0Z" glyph-name="W" horiz-adv-x="665" unicode="W" /><glyph d="M81 0ZM126 0 81 700H111L151 47L383 692H418L444 48L691 700H721L453 0H420L392 640L161 0ZM477 892H516L515 888L423 785H399V788Z" glyph-name="Wacute" horiz-adv-x="665" unicode="&#7810;" /><glyph d="M81 0ZM126 0 81 700H111L151 47L383 692H418L444 48L691 700H721L453 0H420L392 640L161 0ZM418 892H442L511 787V785H483L428 871L345 785H314V787Z" glyph-name="Wcircumflex" horiz-adv-x="665" unicode="&#372;" /><glyph d="M81 0ZM126 0 81 700H111L151 47L383 692H418L444 48L691 700H721L453 0H420L392 640L161 0ZM339 827Q339 861 370 861Q381 861 387.5 854.5Q394 848 394 836Q394 820 385.5 811Q377 802 363 802Q339 802 339 827ZM446 827Q446 861 477 861Q501 861 501 836Q501 802 470 802Q446 802 446 827Z" glyph-name="Wdieresis" horiz-adv-x="665" unicode="&#7812;" /><glyph d="M81 0ZM126 0 81 700H111L151 47L383 692H418L444 48L691 700H721L453 0H420L392 640L161 0ZM407 785 344 888V892H382L430 788V785Z" glyph-name="Wgrave" horiz-adv-x="665" unicode="&#7808;" /><glyph d="M371 0 245 338 9 0H-22L232 365L106 700H137L252 391L465 700H496L264 364L400 0Z" glyph-name="X" horiz-adv-x="463" unicode="X" /><glyph d="M207 286 84 700H116L227 317L458 700H492L237 286L192 0H162Z" glyph-name="Y" horiz-adv-x="440" unicode="Y" /><glyph d="M84 0ZM207 286 84 700H116L227 317L458 700H492L237 286L192 0H162ZM362 892H401L400 888L308 785H284V788Z" glyph-name="Yacute" horiz-adv-x="440" unicode="&#221;" /><glyph d="M84 0ZM207 286 84 700H116L227 317L458 700H492L237 286L192 0H162ZM303 892H327L396 787V785H368L313 871L230 785H199V787Z" glyph-name="Ycircumflex" horiz-adv-x="440" unicode="&#374;" /><glyph d="M84 0ZM207 286 84 700H116L227 317L458 700H492L237 286L192 0H162ZM225 827Q225 861 256 861Q267 861 273.5 854.5Q280 848 280 836Q280 820 271.5 811Q263 802 249 802Q225 802 225 827ZM332 827Q332 861 363 861Q387 861 387 836Q387 802 356 802Q332 802 332 827Z" glyph-name="Ydieresis" horiz-adv-x="440" unicode="&#376;" /><glyph d="M-17 0 -13 24 429 674 105 673 110 700H467L463 676L20 26L369 27L364 0Z" glyph-name="Z" horiz-adv-x="426" unicode="Z" /><glyph d="M0 0ZM-17 0 -13 24 429 674 105 673 110 700H467L463 676L20 26L369 27L364 0ZM359 892H398L397 888L305 785H281V788Z" glyph-name="Zacute" horiz-adv-x="426" unicode="&#377;" /><glyph d="M0 0ZM-17 0 -13 24 429 674 105 673 110 700H467L463 676L20 26L369 27L364 0ZM285 785 216 891V892H245L300 807L382 892H413V891L309 785Z" glyph-name="Zcaron" horiz-adv-x="426" unicode="&#381;" /><glyph d="M0 0ZM-17 0 -13 24 429 674 105 673 110 700H467L463 676L20 26L369 27L364 0ZM277 827Q277 861 308 861Q331 861 331 836Q331 802 300 802Q277 802 277 827Z" glyph-name="Zdotaccent" horiz-adv-x="426" unicode="&#379;" /><glyph d="M55 102Q55 59 75.5 37.5Q96 16 134 16Q197 16 239.5 70Q282 124 302 220L308 258H222Q184 258 153.5 246.5Q123 235 101 214.5Q79 194 67 165Q55 136 55 102ZM291 133Q266 62 223.5 26Q181 -10 127 -10Q83 -10 55 18Q27 46 27 98Q27 135 39.5 168Q52 201 76.5 226.5Q101 252 137.5 267Q174 282 222 282H312Q317 309 319 327.5Q321 346 321 360Q321 419 297 440.5Q273 462 230 462Q189 462 155 442.5Q121 423 97 375L73 387Q99 437 138 462.5Q177 488 234 488Q291 488 321 460Q351 432 351 368Q351 338 345 302L298 0H273Z" glyph-name="a" horiz-adv-x="406" unicode="a" /><glyph d="M172 16Q229 16 275 71.5Q321 127 339 244Q345 284 345 317Q345 392 317.5 427Q290 462 244 462Q180 462 138.5 404Q97 346 80 239Q76 216 74.5 195.5Q73 175 73 157Q73 88 97 52Q121 16 172 16ZM321 124Q296 55 254.5 22.5Q213 -10 162 -10Q103 -10 73.5 32Q44 74 44 154Q44 173 45.5 194.5Q47 216 51 239Q68 359 118 423.5Q168 488 243 488Q291 488 323 457.5Q355 427 359 363L380 478H404L329 0H305Z" glyph-name="a.school" horiz-adv-x="443" /><glyph d="M27 0ZM55 102Q55 59 75.5 37.5Q96 16 134 16Q197 16 239.5 70Q282 124 302 220L308 258H222Q184 258 153.5 246.5Q123 235 101 214.5Q79 194 67 165Q55 136 55 102ZM291 133Q266 62 223.5 26Q181 -10 127 -10Q83 -10 55 18Q27 46 27 98Q27 135 39.5 168Q52 201 76.5 226.5Q101 252 137.5 267Q174 282 222 282H312Q317 309 319 327.5Q321 346 321 360Q321 419 297 440.5Q273 462 230 462Q189 462 155 442.5Q121 423 97 375L73 387Q99 437 138 462.5Q177 488 234 488Q291 488 321 460Q351 432 351 368Q351 338 345 302L298 0H273ZM311 671H350L349 667L257 564H233V567Z" glyph-name="aacute" horiz-adv-x="406" unicode="&#225;" /><glyph d="M44 0ZM172 16Q229 16 275 71.5Q321 127 339 244Q345 284 345 317Q345 392 317.5 427Q290 462 244 462Q180 462 138.5 404Q97 346 80 239Q76 216 74.5 195.5Q73 175 73 157Q73 88 97 52Q121 16 172 16ZM321 124Q296 55 254.5 22.5Q213 -10 162 -10Q103 -10 73.5 32Q44 74 44 154Q44 173 45.5 194.5Q47 216 51 239Q68 359 118 423.5Q168 488 243 488Q291 488 323 457.5Q355 427 359 363L380 478H404L329 0H305ZM326 670H365L364 666L272 563H248V566Z" glyph-name="aacute.school" horiz-adv-x="443" /><glyph d="M27 0ZM55 102Q55 59 75.5 37.5Q96 16 134 16Q197 16 239.5 70Q282 124 302 220L308 258H222Q184 258 153.5 246.5Q123 235 101 214.5Q79 194 67 165Q55 136 55 102ZM291 133Q266 62 223.5 26Q181 -10 127 -10Q83 -10 55 18Q27 46 27 98Q27 135 39.5 168Q52 201 76.5 226.5Q101 252 137.5 267Q174 282 222 282H312Q317 309 319 327.5Q321 346 321 360Q321 419 297 440.5Q273 462 230 462Q189 462 155 442.5Q121 423 97 375L73 387Q99 437 138 462.5Q177 488 234 488Q291 488 321 460Q351 432 351 368Q351 338 345 302L298 0H273ZM333 670H354Q346 611 319 588Q292 565 249 565Q206 565 185.5 588.5Q165 612 174 670H196Q189 622 203 604.5Q217 587 250 587Q285 587 305 604.5Q325 622 333 670Z" glyph-name="abreve" horiz-adv-x="406" unicode="&#259;" /><glyph d="M44 0ZM172 16Q229 16 275 71.5Q321 127 339 244Q345 284 345 317Q345 392 317.5 427Q290 462 244 462Q180 462 138.5 404Q97 346 80 239Q76 216 74.5 195.5Q73 175 73 157Q73 88 97 52Q121 16 172 16ZM321 124Q296 55 254.5 22.5Q213 -10 162 -10Q103 -10 73.5 32Q44 74 44 154Q44 173 45.5 194.5Q47 216 51 239Q68 359 118 423.5Q168 488 243 488Q291 488 323 457.5Q355 427 359 363L380 478H404L329 0H305ZM348 669H369Q361 610 334 587Q307 564 264 564Q221 564 200.5 587.5Q180 611 189 669H211Q204 621 218 603.5Q232 586 265 586Q300 586 320 603.5Q340 621 348 669Z" glyph-name="abreve.school" horiz-adv-x="443" /><glyph d="M27 0ZM55 102Q55 59 75.5 37.5Q96 16 134 16Q197 16 239.5 70Q282 124 302 220L308 258H222Q184 258 153.5 246.5Q123 235 101 214.5Q79 194 67 165Q55 136 55 102ZM291 133Q266 62 223.5 26Q181 -10 127 -10Q83 -10 55 18Q27 46 27 98Q27 135 39.5 168Q52 201 76.5 226.5Q101 252 137.5 267Q174 282 222 282H312Q317 309 319 327.5Q321 346 321 360Q321 419 297 440.5Q273 462 230 462Q189 462 155 442.5Q121 423 97 375L73 387Q99 437 138 462.5Q177 488 234 488Q291 488 321 460Q351 432 351 368Q351 338 345 302L298 0H273ZM252 671H276L345 566V564H317L262 650L179 564H148V566Z" glyph-name="acircumflex" horiz-adv-x="406" unicode="&#226;" /><glyph d="M44 0ZM172 16Q229 16 275 71.5Q321 127 339 244Q345 284 345 317Q345 392 317.5 427Q290 462 244 462Q180 462 138.5 404Q97 346 80 239Q76 216 74.5 195.5Q73 175 73 157Q73 88 97 52Q121 16 172 16ZM321 124Q296 55 254.5 22.5Q213 -10 162 -10Q103 -10 73.5 32Q44 74 44 154Q44 173 45.5 194.5Q47 216 51 239Q68 359 118 423.5Q168 488 243 488Q291 488 323 457.5Q355 427 359 363L380 478H404L329 0H305ZM268 670H292L361 565V563H333L278 649L195 563H164V565Z" glyph-name="acircumflex.school" horiz-adv-x="443" /><glyph d="M304 670H343L342 666L250 563H226V566Z" glyph-name="acute" horiz-adv-x="451" unicode="&#180;" /><glyph d="M27 0ZM55 102Q55 59 75.5 37.5Q96 16 134 16Q197 16 239.5 70Q282 124 302 220L308 258H222Q184 258 153.5 246.5Q123 235 101 214.5Q79 194 67 165Q55 136 55 102ZM291 133Q266 62 223.5 26Q181 -10 127 -10Q83 -10 55 18Q27 46 27 98Q27 135 39.5 168Q52 201 76.5 226.5Q101 252 137.5 267Q174 282 222 282H312Q317 309 319 327.5Q321 346 321 360Q321 419 297 440.5Q273 462 230 462Q189 462 155 442.5Q121 423 97 375L73 387Q99 437 138 462.5Q177 488 234 488Q291 488 321 460Q351 432 351 368Q351 338 345 302L298 0H273ZM176 606Q176 640 207 640Q218 640 224.5 633.5Q231 627 231 615Q231 599 222.5 590Q214 581 200 581Q176 581 176 606ZM283 606Q283 640 314 640Q338 640 338 615Q338 581 307 581Q283 581 283 606Z" glyph-name="adieresis" horiz-adv-x="406" unicode="&#228;" /><glyph d="M44 0ZM184 605Q184 639 215 639Q226 639 232.5 632.5Q239 626 239 614Q239 598 230.5 589Q222 580 208 580Q184 580 184 605ZM291 605Q291 639 322 639Q346 639 346 614Q346 580 315 580Q291 580 291 605ZM172 16Q229 16 275 71.5Q321 127 339 244Q345 284 345 317Q345 392 317.5 427Q290 462 244 462Q180 462 138.5 404Q97 346 80 239Q76 216 74.5 195.5Q73 175 73 157Q73 88 97 52Q121 16 172 16ZM321 124Q296 55 254.5 22.5Q213 -10 162 -10Q103 -10 73.5 32Q44 74 44 154Q44 173 45.5 194.5Q47 216 51 239Q68 359 118 423.5Q168 488 243 488Q291 488 323 457.5Q355 427 359 363L380 478H404L329 0H305Z" glyph-name="adieresis.school" horiz-adv-x="443" /><glyph d="M308 154Q281 73 235 31.5Q189 -10 129 -10Q84 -10 56.5 18Q29 46 29 98Q29 133 41.5 164.5Q54 196 79 219.5Q104 243 140 257Q176 271 223 271H315Q320 303 322 323Q324 343 324 359Q324 417 301 440Q278 463 233 463Q194 463 161.5 443Q129 423 105 375L82 388Q106 437 144 462.5Q182 488 237 488Q294 488 321.5 455.5Q349 423 346 351Q399 488 511 488Q571 488 600.5 447Q630 406 630 332Q630 293 620 247H341Q337 221 335 199.5Q333 178 333 159Q333 117 341.5 89Q350 61 365 44.5Q380 28 399.5 21.5Q419 15 440 15Q532 15 580 124L603 112Q576 54 536 22Q496 -10 437 -10Q375 -10 340.5 30Q306 70 308 154ZM602 331Q602 395 578.5 429Q555 463 507 463Q447 463 406.5 414Q366 365 346 270H597Q599 287 600.5 302Q602 317 602 331ZM57 102Q57 59 78.5 37.5Q100 16 138 16Q203 16 244.5 69.5Q286 123 306 218L311 247H224Q186 247 155.5 236.5Q125 226 103 207Q81 188 69 161Q57 134 57 102Z" glyph-name="ae" horiz-adv-x="662" unicode="&#230;" /><glyph d="M27 0ZM55 102Q55 59 75.5 37.5Q96 16 134 16Q197 16 239.5 70Q282 124 302 220L308 258H222Q184 258 153.5 246.5Q123 235 101 214.5Q79 194 67 165Q55 136 55 102ZM291 133Q266 62 223.5 26Q181 -10 127 -10Q83 -10 55 18Q27 46 27 98Q27 135 39.5 168Q52 201 76.5 226.5Q101 252 137.5 267Q174 282 222 282H312Q317 309 319 327.5Q321 346 321 360Q321 419 297 440.5Q273 462 230 462Q189 462 155 442.5Q121 423 97 375L73 387Q99 437 138 462.5Q177 488 234 488Q291 488 321 460Q351 432 351 368Q351 338 345 302L298 0H273ZM238 565 175 668V672H213L261 568V565Z" glyph-name="agrave" horiz-adv-x="408" unicode="&#224;" /><glyph d="M44 0ZM172 16Q229 16 275 71.5Q321 127 339 244Q345 284 345 317Q345 392 317.5 427Q290 462 244 462Q180 462 138.5 404Q97 346 80 239Q76 216 74.5 195.5Q73 175 73 157Q73 88 97 52Q121 16 172 16ZM321 124Q296 55 254.5 22.5Q213 -10 162 -10Q103 -10 73.5 32Q44 74 44 154Q44 173 45.5 194.5Q47 216 51 239Q68 359 118 423.5Q168 488 243 488Q291 488 323 457.5Q355 427 359 363L380 478H404L329 0H305ZM257 563 194 666V670H232L280 566V563Z" glyph-name="agrave.school" horiz-adv-x="443" /><glyph d="M27 0ZM55 102Q55 59 75.5 37.5Q96 16 134 16Q197 16 239.5 70Q282 124 302 220L308 258H222Q184 258 153.5 246.5Q123 235 101 214.5Q79 194 67 165Q55 136 55 102ZM291 133Q266 62 223.5 26Q181 -10 127 -10Q83 -10 55 18Q27 46 27 98Q27 135 39.5 168Q52 201 76.5 226.5Q101 252 137.5 267Q174 282 222 282H312Q317 309 319 327.5Q321 346 321 360Q321 419 297 440.5Q273 462 230 462Q189 462 155 442.5Q121 423 97 375L73 387Q99 437 138 462.5Q177 488 234 488Q291 488 321 460Q351 432 351 368Q351 338 345 302L298 0H273ZM343 627 339 604H171L174 627Z" glyph-name="amacron" horiz-adv-x="406" unicode="&#257;" /><glyph d="M44 0ZM172 16Q229 16 275 71.5Q321 127 339 244Q345 284 345 317Q345 392 317.5 427Q290 462 244 462Q180 462 138.5 404Q97 346 80 239Q76 216 74.5 195.5Q73 175 73 157Q73 88 97 52Q121 16 172 16ZM321 124Q296 55 254.5 22.5Q213 -10 162 -10Q103 -10 73.5 32Q44 74 44 154Q44 173 45.5 194.5Q47 216 51 239Q68 359 118 423.5Q168 488 243 488Q291 488 323 457.5Q355 427 359 363L380 478H404L329 0H305ZM358 626 354 603H186L189 626Z" glyph-name="amacron.school" horiz-adv-x="443" /><glyph d="M165 527Q165 464 191 394Q277 447 316 497Q355 547 355 602Q355 647 333 666Q311 685 276 685Q223 685 194 642.5Q165 600 165 527ZM49 149Q49 112 60.5 86.5Q72 61 90.5 45Q109 29 132.5 22Q156 15 179 15Q221 15 261.5 36Q302 57 338 104Q284 170 243.5 232.5Q203 295 177 355Q106 310 77.5 258Q49 206 49 149ZM464 12 446 -10Q420 14 398.5 37.5Q377 61 355 86Q316 36 270.5 12.5Q225 -11 176 -11Q144 -11 116 -1.5Q88 8 67 27.5Q46 47 33.5 76Q21 105 21 145Q21 222 59.5 278Q98 334 168 378Q154 416 146 453Q138 490 138 526Q138 565 147 598.5Q156 632 173.5 657Q191 682 217.5 696Q244 710 279 710Q300 710 318.5 704.5Q337 699 351 687Q365 675 373.5 655Q382 635 382 607Q382 576 372.5 547Q363 518 341 489Q319 460 284.5 430.5Q250 401 200 370Q223 314 262 253.5Q301 193 355 128Q393 185 423 270Q453 355 472 471H498Q478 347 446 258Q414 169 372 109Q394 84 417 59.5Q440 35 464 12Z" glyph-name="ampersand" horiz-adv-x="513" unicode="&amp;" /><glyph d="M297 -179Q283 -190 268.5 -194Q254 -198 238 -198Q210 -198 192 -181.5Q174 -165 174 -126Q174 -99 183 -75.5Q192 -52 206 -33.5Q220 -15 238.5 -2.5Q257 10 275 14L291 133Q266 62 223.5 26Q181 -10 127 -10Q83 -10 55 18Q27 46 27 98Q27 135 39.5 168Q52 201 76.5 226.5Q101 252 137.5 267Q174 282 222 282H312Q317 309 319 327.5Q321 346 321 360Q321 419 297 440.5Q273 462 230 462Q189 462 155 442.5Q121 423 97 375L73 387Q99 437 138 462.5Q177 488 234 488Q291 488 321 460Q351 432 351 368Q351 338 345 302L298 0H285Q269 -2 253.5 -12.5Q238 -23 225.5 -39.5Q213 -56 205 -77Q197 -98 197 -122Q197 -153 211 -164Q225 -175 243 -175Q269 -175 288 -160ZM55 102Q55 59 75.5 37.5Q96 16 134 16Q197 16 239.5 70Q282 124 302 220L308 258H222Q184 258 153.5 246.5Q123 235 101 214.5Q79 194 67 165Q55 136 55 102Z" glyph-name="aogonek" horiz-adv-x="406" unicode="&#261;" /><glyph d="M44 0ZM172 16Q229 16 275 71.5Q321 127 339 244Q345 284 345 317Q345 392 317.5 427Q290 462 244 462Q180 462 138.5 404Q97 346 80 239Q76 216 74.5 195.5Q73 175 73 157Q73 88 97 52Q121 16 172 16ZM321 124Q296 55 254.5 22.5Q213 -10 162 -10Q103 -10 73.5 32Q44 74 44 154Q44 173 45.5 194.5Q47 216 51 239Q68 359 118 423.5Q168 488 243 488Q291 488 323 457.5Q355 427 359 363L380 478H404L329 0H305ZM337 -179Q323 -190 308.5 -194Q294 -198 278 -198Q250 -198 232 -181.5Q214 -165 214 -126Q214 -97 224 -72Q234 -47 250 -28.5Q266 -10 285.5 2Q305 14 324 16L325 0Q309 -2 293.5 -12.5Q278 -23 265.5 -39.5Q253 -56 245 -77Q237 -98 237 -122Q237 -153 251 -164Q265 -175 283 -175Q309 -175 328 -160Z" glyph-name="aogonek.school" horiz-adv-x="443" /><glyph d="M262 353Q281 353 303.5 361Q326 369 346 385L341 359Q324 344 300.5 336Q277 328 258 328Q238 328 224 334.5Q210 341 196.5 349.5Q183 358 169 364.5Q155 371 136 371Q116 371 93.5 363Q71 355 52 339L57 366Q74 381 97 388.5Q120 396 140 396Q160 396 175 389.5Q190 383 203 374.5Q216 366 230 359.5Q244 353 262 353ZM244 242Q263 242 285.5 250Q308 258 328 274L323 247Q306 232 282.5 224.5Q259 217 240 217Q220 217 205.5 223.5Q191 230 178 238.5Q165 247 151 253.5Q137 260 118 260Q98 260 75 252Q52 244 34 227L39 255Q56 270 78.5 277.5Q101 285 121 285Q142 285 156.5 278.5Q171 272 184.5 263.5Q198 255 212 248.5Q226 242 244 242Z" glyph-name="approxequal" horiz-adv-x="369" unicode="&#8776;" /><glyph d="M27 0ZM55 102Q55 59 75.5 37.5Q96 16 134 16Q197 16 239.5 70Q282 124 302 220L308 258H222Q184 258 153.5 246.5Q123 235 101 214.5Q79 194 67 165Q55 136 55 102ZM291 133Q266 62 223.5 26Q181 -10 127 -10Q83 -10 55 18Q27 46 27 98Q27 135 39.5 168Q52 201 76.5 226.5Q101 252 137.5 267Q174 282 222 282H312Q317 309 319 327.5Q321 346 321 360Q321 419 297 440.5Q273 462 230 462Q189 462 155 442.5Q121 423 97 375L73 387Q99 437 138 462.5Q177 488 234 488Q291 488 321 460Q351 432 351 368Q351 338 345 302L298 0H273ZM268 712Q293 712 311 694.5Q329 677 329 644Q329 606 307 578.5Q285 551 250 551Q225 551 207 568Q189 585 189 619Q189 656 211 684Q233 712 268 712ZM265 693Q242 693 226 671.5Q210 650 210 621Q210 596 222 583Q234 570 251 570Q275 570 292 591Q309 612 309 642Q309 667 296 680Q283 693 265 693Z" glyph-name="aring" horiz-adv-x="406" unicode="&#229;" /><glyph d="M44 0ZM172 16Q229 16 275 71.5Q321 127 339 244Q345 284 345 317Q345 392 317.5 427Q290 462 244 462Q180 462 138.5 404Q97 346 80 239Q76 216 74.5 195.5Q73 175 73 157Q73 88 97 52Q121 16 172 16ZM321 124Q296 55 254.5 22.5Q213 -10 162 -10Q103 -10 73.5 32Q44 74 44 154Q44 173 45.5 194.5Q47 216 51 239Q68 359 118 423.5Q168 488 243 488Q291 488 323 457.5Q355 427 359 363L380 478H404L329 0H305ZM283 711Q308 711 326 693.5Q344 676 344 643Q344 605 322 577.5Q300 550 265 550Q240 550 222 567Q204 584 204 618Q204 655 226 683Q248 711 283 711ZM280 692Q257 692 241 670.5Q225 649 225 620Q225 595 237 582Q249 569 266 569Q290 569 307 590Q324 611 324 641Q324 666 311 679Q298 692 280 692Z" glyph-name="aring.school" horiz-adv-x="443" /><glyph d="M196 701H222L283 403V402H256L205 670L65 402H38V403Z" glyph-name="asciicircum" horiz-adv-x="282" unicode="^" /><glyph d="M196 332Q179 347 163.5 359Q148 371 127 371Q107 371 86.5 354.5Q66 338 53 289L30 293Q37 324 48.5 344.5Q60 365 73 377Q86 389 100.5 394Q115 399 130 399Q156 399 174.5 386Q193 373 210 356Q225 341 241.5 329Q258 317 279 317Q288 317 298.5 320.5Q309 324 319 333Q329 342 337.5 358Q346 374 352 399L375 395Q368 364 357 343.5Q346 323 333 311Q320 299 305 294Q290 289 276 289Q250 289 231.5 302.5Q213 316 196 332Z" glyph-name="asciitilde" horiz-adv-x="373" unicode="~" /><glyph d="M91 382 74 397 169 527 73 572 85 596 180 549 202 710H230L202 549L312 596L317 572L205 526L262 397L240 383L185 512Z" glyph-name="asterisk" horiz-adv-x="308" unicode="*" /><glyph d="M466 4Q426 -44 374 -68.5Q322 -93 259 -93Q158 -93 102.5 -25.5Q47 42 47 161Q47 249 70.5 325Q94 401 135.5 457Q177 513 234 545Q291 577 359 577Q457 577 509 515.5Q561 454 561 346Q561 293 551 246.5Q541 200 522.5 165.5Q504 131 478 111Q452 91 421 91Q391 91 377 112Q363 133 370 177Q351 127 321.5 103.5Q292 80 256 80Q222 80 202 99.5Q182 119 182 154Q182 206 218 242Q254 278 319 278H383Q385 292 386 304Q387 316 387 327Q387 367 370 383Q353 399 322 399Q291 399 270.5 385Q250 371 232 344L216 355Q253 419 326 419Q367 419 388 398Q409 377 409 330Q409 320 408 308Q407 296 405 282L390 193Q388 184 388 175V159Q388 109 426 109Q451 109 472 127.5Q493 146 508.5 178Q524 210 532.5 253Q541 296 541 346Q541 447 493 503.5Q445 560 357 560Q294 560 241 529Q188 498 149 444Q110 390 88.5 317.5Q67 245 67 163Q67 48 118 -14Q169 -76 261 -76Q377 -76 454 15ZM204 156Q204 130 219 115Q234 100 261 100Q306 100 336.5 142Q367 184 378 252L379 260H318Q264 260 234 230.5Q204 201 204 156Z" glyph-name="at" horiz-adv-x="603" unicode="@" /><glyph d="M48 14ZM467 111Q427 63 375 38.5Q323 14 260 14Q159 14 103.5 81.5Q48 149 48 268Q48 356 71.5 432Q95 508 136.5 564Q178 620 235 652Q292 684 360 684Q458 684 510 622.5Q562 561 562 453Q562 400 552 353.5Q542 307 523.5 272.5Q505 238 479 218Q453 198 422 198Q392 198 378 219Q364 240 371 284Q352 234 322.5 210.5Q293 187 257 187Q223 187 203 206.5Q183 226 183 261Q183 313 219 349Q255 385 320 385H384Q386 399 387 411Q388 423 388 434Q388 474 371 490Q354 506 323 506Q292 506 271.5 492Q251 478 233 451L217 462Q254 526 327 526Q368 526 389 505Q410 484 410 437Q410 427 409 415Q408 403 406 389L391 300Q389 291 389 282V266Q389 216 427 216Q452 216 473 234.5Q494 253 509.5 285Q525 317 533.5 360Q542 403 542 453Q542 554 494 610.5Q446 667 358 667Q295 667 242 636Q189 605 150 551Q111 497 89.5 424.5Q68 352 68 270Q68 155 119 93Q170 31 262 31Q378 31 455 122ZM205 263Q205 237 220 222Q235 207 262 207Q307 207 337.5 249Q368 291 379 359L380 367H319Q265 367 235 337.5Q205 308 205 263Z" glyph-name="at.cap" horiz-adv-x="602" /><glyph d="M27 0ZM55 102Q55 59 75.5 37.5Q96 16 134 16Q197 16 239.5 70Q282 124 302 220L308 258H222Q184 258 153.5 246.5Q123 235 101 214.5Q79 194 67 165Q55 136 55 102ZM291 133Q266 62 223.5 26Q181 -10 127 -10Q83 -10 55 18Q27 46 27 98Q27 135 39.5 168Q52 201 76.5 226.5Q101 252 137.5 267Q174 282 222 282H312Q317 309 319 327.5Q321 346 321 360Q321 419 297 440.5Q273 462 230 462Q189 462 155 442.5Q121 423 97 375L73 387Q99 437 138 462.5Q177 488 234 488Q291 488 321 460Q351 432 351 368Q351 338 345 302L298 0H273ZM335 657H357Q354 634 347.5 619.5Q341 605 332.5 596.5Q324 588 315 585Q306 582 298 582Q282 582 272 590.5Q262 599 253 609.5Q244 620 235.5 628.5Q227 637 214 637Q203 637 193.5 627Q184 617 180 586H158Q161 609 167.5 623.5Q174 638 182 646Q190 654 199 657Q208 660 216 660Q232 660 242 651.5Q252 643 261 633Q270 623 279 614.5Q288 606 301 606Q313 606 321.5 617Q330 628 335 657Z" glyph-name="atilde" horiz-adv-x="406" unicode="&#227;" /><glyph d="M44 0ZM172 16Q229 16 275 71.5Q321 127 339 244Q345 284 345 317Q345 392 317.5 427Q290 462 244 462Q180 462 138.5 404Q97 346 80 239Q76 216 74.5 195.5Q73 175 73 157Q73 88 97 52Q121 16 172 16ZM321 124Q296 55 254.5 22.5Q213 -10 162 -10Q103 -10 73.5 32Q44 74 44 154Q44 173 45.5 194.5Q47 216 51 239Q68 359 118 423.5Q168 488 243 488Q291 488 323 457.5Q355 427 359 363L380 478H404L329 0H305ZM350 656H372Q369 633 362.5 618.5Q356 604 347.5 595.5Q339 587 330 584Q321 581 313 581Q297 581 287 589.5Q277 598 268 608.5Q259 619 250.5 627.5Q242 636 229 636Q218 636 208.5 626Q199 616 195 585H173Q176 608 182.5 622.5Q189 637 197 645Q205 653 214 656Q223 659 231 659Q247 659 257 650.5Q267 642 276 632Q285 622 294 613.5Q303 605 316 605Q328 605 336.5 616Q345 627 350 656Z" glyph-name="atilde.school" horiz-adv-x="443" /><glyph d="M178 700 124 356Q148 424 191.5 456Q235 488 286 488Q343 488 373 446.5Q403 405 403 324Q403 305 401.5 284Q400 263 396 240Q377 121 327 55.5Q277 -10 201 -10Q154 -10 121.5 19Q89 48 84 113L63 0H38L149 700ZM274 462Q215 462 169 406Q123 350 105 234Q102 213 100 194.5Q98 176 98 159Q98 85 126 50.5Q154 16 199 16Q265 16 307 74Q349 132 366 239Q370 262 372 283Q374 304 374 322Q374 391 349.5 426.5Q325 462 274 462Z" glyph-name="b" horiz-adv-x="445" unicode="b" /><glyph d="M256 0 77 700H105L286 0Z" glyph-name="backslash" horiz-adv-x="346" unicode="\" /><glyph d="M36 -65 167 766H195L64 -65Z" glyph-name="bar" horiz-adv-x="202" unicode="|" /><glyph d="M148 -72Q85 -64 86 12Q86 32 91 56.5Q96 81 102.5 108.5Q109 136 114.5 164.5Q120 193 120 221Q120 266 104.5 287Q89 308 49 308H35L38 332H53Q104 332 129 365.5Q154 399 164 468Q169 500 170.5 535Q172 570 177 605Q185 656 209 682Q233 708 271 713L277 689Q248 684 229 664Q210 644 204 603Q199 574 198 538Q197 502 191 464Q181 400 159.5 365.5Q138 331 98 320Q125 310 136 287Q147 264 147 225Q147 196 141.5 166.5Q136 137 129.5 109.5Q123 82 117.5 57.5Q112 33 112 15Q112 -14 124.5 -28.5Q137 -43 160 -48Z" glyph-name="braceleft" horiz-adv-x="261" unicode="{" /><glyph d="M128 713Q191 705 190 629Q190 609 185 584.5Q180 560 173.5 532.5Q167 505 161.5 476.5Q156 448 156 420Q156 375 171.5 354Q187 333 227 333H241L238 309H223Q172 309 147 275.5Q122 242 112 173Q107 141 105.5 106Q104 71 99 36Q91 -15 67 -41Q43 -67 5 -72L-1 -48Q28 -43 47 -23Q66 -3 72 38Q77 67 78 103Q79 139 85 177Q95 241 116.5 275.5Q138 310 178 321Q151 331 140 354Q129 377 129 416Q129 444 134.5 474Q140 504 146.5 531.5Q153 559 158.5 583.5Q164 608 164 626Q164 655 151.5 669.5Q139 684 116 689Z" glyph-name="braceright" horiz-adv-x="261" unicode="}" /><glyph d="M31 -65 151 700H270L266 676H174L62 -41H161L158 -65Z" glyph-name="bracketleft" horiz-adv-x="255" unicode="[" /><glyph d="M239 700 119 -65H0L4 -41H96L208 676H109L112 700Z" glyph-name="bracketright" horiz-adv-x="255" unicode="]" /><glyph d="M328 669H349Q341 610 314 587Q287 564 244 564Q201 564 180.5 587.5Q160 611 169 669H191Q184 621 198 603.5Q212 586 245 586Q280 586 300 603.5Q320 621 328 669Z" glyph-name="breve" horiz-adv-x="451" unicode="&#728;" /><glyph d="M106 377 167 766H195L133 377ZM36 -65 98 324H125L64 -65Z" glyph-name="brokenbar" horiz-adv-x="202" unicode="&#166;" /><glyph d="M276 347Q276 317 267 293Q258 269 241.5 252Q225 235 203 225.5Q181 216 156 216Q113 216 90.5 241Q68 266 68 308Q68 364 100 401Q132 438 186 438Q229 438 252.5 413.5Q276 389 276 347Z" glyph-name="bullet" horiz-adv-x="320" unicode="&#8226;" /><glyph d="M318 122 343 111Q291 -10 179 -10Q44 -10 44 153Q44 173 45.5 193.5Q47 214 51 237Q71 367 121.5 427.5Q172 488 254 488Q310 488 338.5 458Q367 428 377 368L350 358Q340 414 316.5 438Q293 462 251 462Q183 462 141 408Q99 354 80 237Q76 213 74 192.5Q72 172 72 152Q72 82 99 49Q126 16 182 16Q227 16 260.5 41Q294 66 318 122Z" glyph-name="c" horiz-adv-x="395" unicode="c" /><glyph d="M44 0ZM318 122 343 111Q291 -10 179 -10Q44 -10 44 153Q44 173 45.5 193.5Q47 214 51 237Q71 367 121.5 427.5Q172 488 254 488Q310 488 338.5 458Q367 428 377 368L350 358Q340 414 316.5 438Q293 462 251 462Q183 462 141 408Q99 354 80 237Q76 213 74 192.5Q72 172 72 152Q72 82 99 49Q126 16 182 16Q227 16 260.5 41Q294 66 318 122ZM325 671H364L363 667L271 564H247V567Z" glyph-name="cacute" horiz-adv-x="395" unicode="&#263;" /><glyph d="M226 563 157 669V670H186L241 585L323 670H354V669L250 563Z" glyph-name="caron" horiz-adv-x="451" unicode="&#711;" /><glyph d="M227 515H206L240 700H271Z" glyph-name="caronSlovak" horiz-adv-x="451" /><glyph d="M44 0ZM318 122 343 111Q291 -10 179 -10Q44 -10 44 153Q44 173 45.5 193.5Q47 214 51 237Q71 367 121.5 427.5Q172 488 254 488Q310 488 338.5 458Q367 428 377 368L350 358Q340 414 316.5 438Q293 462 251 462Q183 462 141 408Q99 354 80 237Q76 213 74 192.5Q72 172 72 152Q72 82 99 49Q126 16 182 16Q227 16 260.5 41Q294 66 318 122ZM251 564 182 670V671H211L266 586L348 671H379V670L275 564Z" glyph-name="ccaron" horiz-adv-x="395" unicode="&#269;" /><glyph d="M141 -221Q110 -221 92.5 -208.5Q75 -196 65 -171L86 -160Q97 -200 141 -200Q173 -200 188 -182.5Q203 -165 203 -139Q203 -110 184 -102Q165 -94 144 -102L136 -95L163 -9Q44 0 44 153Q44 173 45.5 193.5Q47 214 51 237Q71 367 121.5 427.5Q172 488 254 488Q310 488 338.5 458Q367 428 377 368L350 358Q340 414 316.5 438Q293 462 251 462Q183 462 141 408Q99 354 80 237Q76 213 74 192.5Q72 172 72 152Q72 82 99 49Q126 16 182 16Q227 16 260.5 41Q294 66 318 122L343 111Q291 -10 184 -10L160 -83Q171 -81 183 -82.5Q195 -84 204.5 -91Q214 -98 220 -109.5Q226 -121 226 -138Q226 -179 202.5 -200Q179 -221 141 -221Z" glyph-name="ccedilla" horiz-adv-x="395" unicode="&#231;" /><glyph d="M44 0ZM318 122 343 111Q291 -10 179 -10Q44 -10 44 153Q44 173 45.5 193.5Q47 214 51 237Q71 367 121.5 427.5Q172 488 254 488Q310 488 338.5 458Q367 428 377 368L350 358Q340 414 316.5 438Q293 462 251 462Q183 462 141 408Q99 354 80 237Q76 213 74 192.5Q72 172 72 152Q72 82 99 49Q126 16 182 16Q227 16 260.5 41Q294 66 318 122ZM266 671H290L359 566V564H331L276 650L193 564H162V566Z" glyph-name="ccircumflex" horiz-adv-x="395" unicode="&#265;" /><glyph d="M44 0ZM318 122 343 111Q291 -10 179 -10Q44 -10 44 153Q44 173 45.5 193.5Q47 214 51 237Q71 367 121.5 427.5Q172 488 254 488Q310 488 338.5 458Q367 428 377 368L350 358Q340 414 316.5 438Q293 462 251 462Q183 462 141 408Q99 354 80 237Q76 213 74 192.5Q72 172 72 152Q72 82 99 49Q126 16 182 16Q227 16 260.5 41Q294 66 318 122ZM242 606Q242 640 273 640Q296 640 296 615Q296 581 265 581Q242 581 242 606Z" glyph-name="cdotaccent" horiz-adv-x="395" unicode="&#267;" /><glyph d="M204 -221Q173 -221 155.5 -208.5Q138 -196 128 -171L149 -160Q160 -200 204 -200Q236 -200 251 -182.5Q266 -165 266 -139Q266 -110 247 -102Q228 -94 207 -102L199 -95L229 0H250L223 -83Q234 -81 246 -82.5Q258 -84 267.5 -91Q277 -98 283 -109.5Q289 -121 289 -138Q289 -179 265.5 -200Q242 -221 204 -221Z" glyph-name="cedilla" horiz-adv-x="451" unicode="&#184;" /><glyph d="M150 -62 162 17Q44 23 44 169Q44 188 45.5 208.5Q47 229 51 252Q68 370 115 428Q162 486 237 491L250 571H271L259 491Q310 489 338 459Q366 429 376 372L350 362Q341 416 317.5 440Q294 464 255 466L188 41Q231 43 262.5 68Q294 93 317 146L340 134Q314 77 275 47.5Q236 18 184 17L172 -62ZM71 168Q71 47 166 41L233 465Q172 460 133.5 409Q95 358 78 252Q74 228 72.5 207Q71 186 71 168Z" glyph-name="cent" horiz-adv-x="398" unicode="&#162;" /><glyph d="M245 670H269L338 565V563H310L255 649L172 563H141V565Z" glyph-name="circumflex" horiz-adv-x="451" unicode="&#710;" /><glyph d="M20 0ZM75 29Q75 -6 44 -6Q20 -6 20 19Q20 35 28 44.5Q36 54 51 54Q75 54 75 29ZM138 424Q138 389 107 389Q83 389 83 414Q83 430 91 439.5Q99 449 114 449Q138 449 138 424Z" glyph-name="colon" horiz-adv-x="153" unicode=":" /><glyph d="M7 -106 -1 -93Q22 -79 36 -55Q50 -31 55 -4Q39 -9 30 -2Q21 5 21 19Q21 33 29.5 43Q38 53 52 53Q77 53 77 25Q77 8 72.5 -11.5Q68 -31 59 -49Q50 -67 37 -82Q24 -97 7 -106Z" glyph-name="comma" horiz-adv-x="153" unicode="," /><glyph d="M165 -221 157 -209Q176 -197 190 -174.5Q204 -152 207 -126Q194 -131 184 -124.5Q174 -118 174 -103Q175 -89 183 -80.5Q191 -72 205 -72Q228 -72 228 -101Q228 -119 223 -137Q218 -155 210 -171Q202 -187 190.5 -200.5Q179 -214 165 -221Z" glyph-name="commaaccent" horiz-adv-x="451" unicode="&#63171;" /><glyph d="M365 685Q465 685 519 619Q573 553 573 437Q573 374 561 314Q547 247 521 192Q495 137 457.5 97.5Q420 58 372.5 36Q325 14 268 14Q168 14 113 80.5Q58 147 58 262Q58 298 63 333Q68 368 76 403Q91 467 117.5 519Q144 571 180.5 608Q217 645 263.5 665Q310 685 365 685ZM363 668Q313 668 270.5 649Q228 630 193.5 594.5Q159 559 133.5 510Q108 461 94 401Q86 368 82 334Q78 300 78 265Q78 154 128 92.5Q178 31 270 31Q322 31 366.5 52Q411 73 446 110.5Q481 148 505.5 200.5Q530 253 542 316Q554 374 554 435Q554 546 504.5 607Q455 668 363 668ZM419 271Q375 174 291 174Q240 174 213 202.5Q186 231 186 293Q186 307 187.5 321.5Q189 336 191 351Q205 445 245 488Q285 531 347 531Q428 531 441 445L418 436Q411 476 392.5 493Q374 510 345 510Q294 510 261.5 474Q229 438 215 351Q212 334 211 320.5Q210 307 210 295Q210 242 232 218.5Q254 195 294 195Q361 195 399 279Z" glyph-name="copyright" horiz-adv-x="605" unicode="&#169;" /><glyph d="M257 446 276 435Q257 395 228.5 377Q200 359 163 359Q69 359 69 475Q69 489 70.5 502.5Q72 516 74 533Q88 624 124 667Q160 710 216 710Q292 710 306 634L285 626Q271 689 215 689Q168 689 139.5 651.5Q111 614 98 533Q95 516 94 501.5Q93 487 93 474Q93 425 111 403Q129 381 167 381Q197 381 219 395.5Q241 410 257 446Z" glyph-name="cordinal" horiz-adv-x="291" /><glyph d="M174 16Q231 16 276.5 71Q322 126 341 244Q347 286 347 318Q347 392 320 427Q293 462 246 462Q180 462 138.5 404Q97 346 80 239Q76 215 74.5 195.5Q73 176 73 157Q73 88 98 52Q123 16 174 16ZM164 -10Q104 -10 74 32Q44 74 44 154Q44 174 45.5 195Q47 216 51 239Q69 360 119 424Q169 488 245 488Q293 488 323.5 458Q354 428 360 365L413 700H441L330 0H306L324 123Q299 55 257 22.5Q215 -10 164 -10Z" glyph-name="d" horiz-adv-x="446" unicode="d" /><glyph d="M207 571H154L115 334H91L128 571H75L79 593H132L150 709H177L158 593H211Z" glyph-name="dagger" horiz-adv-x="229" unicode="&#8224;" /><glyph d="M59 465H112L128 573H75L79 596H133L150 709H177L158 596H211L207 573H154L137 465H191L187 442H133L116 327H89L108 442H55Z" glyph-name="daggerdbl" horiz-adv-x="229" unicode="&#8225;" /><glyph d="M44 0ZM510 515H489L523 700H554ZM174 16Q231 16 276.5 71Q322 126 341 244Q347 286 347 318Q347 392 320 427Q293 462 246 462Q180 462 138.5 404Q97 346 80 239Q76 215 74.5 195.5Q73 176 73 157Q73 88 98 52Q123 16 174 16ZM164 -10Q104 -10 74 32Q44 74 44 154Q44 174 45.5 195Q47 216 51 239Q69 360 119 424Q169 488 245 488Q293 488 323.5 458Q354 428 360 365L413 700H441L330 0H306L324 123Q299 55 257 22.5Q215 -10 164 -10Z" glyph-name="dcaron" horiz-adv-x="483" unicode="&#271;" /><glyph d="M341 244Q347 286 347 318Q347 392 320 427Q293 462 246 462Q180 462 138.5 404Q97 346 80 239Q76 216 74.5 196Q73 176 73 157Q73 88 98 52Q123 16 174 16Q231 16 276.5 71Q322 126 341 244ZM164 -10Q104 -10 74 32Q44 74 44 154Q44 174 45.5 195Q47 216 51 239Q69 358 119 423Q169 488 245 488Q293 488 324 457.5Q355 427 360 362L392 569H266L270 591H395L413 700H442L424 591H486L482 569H421L331 0H306L323 125Q299 55 257 22.5Q215 -10 164 -10Z" glyph-name="dcroat" horiz-adv-x="455" unicode="&#273;" /><glyph d="M181 366Q129 366 102 402.5Q75 439 76 502Q76 548 88 587Q100 626 121 653.5Q142 681 170.5 696.5Q199 712 234 712Q286 712 313 675.5Q340 639 339 577Q339 530 327 491Q315 452 294 424.5Q273 397 244 381.5Q215 366 181 366ZM183 388Q211 388 235 401.5Q259 415 277 440Q295 465 305.5 499.5Q316 534 316 576Q316 630 294.5 660Q273 690 231 690Q203 690 179 676.5Q155 663 137.5 638Q120 613 110 578.5Q100 544 100 502Q99 448 120.5 418Q142 388 183 388Z" glyph-name="degree" horiz-adv-x="339" unicode="&#176;" /><glyph d="M171 605Q171 639 202 639Q213 639 219.5 632.5Q226 626 226 614Q226 598 217.5 589Q209 580 195 580Q171 580 171 605ZM278 605Q278 639 309 639Q333 639 333 614Q333 580 302 580Q278 580 278 605Z" glyph-name="dieresis" horiz-adv-x="451" unicode="&#168;" /><glyph d="M185 443Q185 460 193.5 468.5Q202 477 215 477Q238 477 238 452Q236 418 207 418Q185 418 185 443ZM333 318 328 292H45L49 318ZM141 164Q143 198 171 198Q194 198 194 173Q194 156 185.5 147Q177 138 164 138Q141 138 141 164Z" glyph-name="divide" horiz-adv-x="367" unicode="&#247;" /><glyph d="M114 508Q114 460 138 431Q162 402 209 381L218 377L263 657Q226 657 198 645.5Q170 634 151.5 614Q133 594 123.5 566.5Q114 539 114 508ZM340 201Q340 243 320.5 275.5Q301 308 247 331L233 337L186 36Q255 38 297.5 80Q340 122 340 201ZM149 -62 160 12Q133 14 109 23Q85 32 65.5 50Q46 68 32 97Q18 126 12 167L39 178Q48 104 81.5 72Q115 40 165 36L213 345L204 349Q149 375 117.5 410Q86 445 86 502Q86 542 98 575Q110 608 133 632Q156 656 189.5 669Q223 682 267 682L280 766H302L288 681Q339 677 373.5 644.5Q408 612 416 543L389 531Q381 595 353.5 623Q326 651 284 655L238 368L252 362Q312 336 340.5 299Q369 262 369 205Q369 114 318.5 64Q268 14 182 12L171 -62Z" glyph-name="dollar" horiz-adv-x="418" unicode="$" /><glyph d="M225 605Q225 639 256 639Q279 639 279 614Q279 580 248 580Q225 580 225 605Z" glyph-name="dotaccent" horiz-adv-x="451" unicode="&#729;" /><glyph d="M115 478H144L69 0H39Z" glyph-name="dotlessi" horiz-adv-x="183" unicode="&#305;" /><glyph d="M30 -58 115 478H144L57 -68Q46 -141 17.5 -173Q-11 -205 -53 -205Q-67 -205 -80.5 -202Q-94 -199 -105 -192L-91 -166Q-81 -172 -71.5 -175Q-62 -178 -48 -178Q-19 -178 0 -151.5Q19 -125 30 -58Z" glyph-name="dotlessj" horiz-adv-x="183" unicode="&#567;" /><glyph d="M36 -65 167 766H195L63 -65ZM118 -65 249 766H276L145 -65Z" glyph-name="doublebar" horiz-adv-x="281" /><glyph d="M177 -10Q114 -10 79 30.5Q44 71 44 157Q44 175 45.5 196Q47 217 51 239Q70 362 121 425Q172 488 251 488Q310 488 339.5 447Q369 406 369 332Q369 309 366.5 285Q364 261 359 232H79Q75 213 74 193.5Q73 174 73 158Q73 15 180 15Q272 15 320 124L343 112Q316 53 276 21.5Q236 -10 177 -10ZM341 331Q341 463 247 463Q184 463 142.5 410.5Q101 358 83 256H335Q337 275 339 294.5Q341 314 341 331Z" glyph-name="e" horiz-adv-x="404" unicode="e" /><glyph d="M44 0ZM177 -10Q114 -10 79 30.5Q44 71 44 157Q44 175 45.5 196Q47 217 51 239Q70 362 121 425Q172 488 251 488Q310 488 339.5 447Q369 406 369 332Q369 309 366.5 285Q364 261 359 232H79Q75 213 74 193.5Q73 174 73 158Q73 15 180 15Q272 15 320 124L343 112Q316 53 276 21.5Q236 -10 177 -10ZM341 331Q341 463 247 463Q184 463 142.5 410.5Q101 358 83 256H335Q337 275 339 294.5Q341 314 341 331ZM318 671H357L356 667L264 564H240V567Z" glyph-name="eacute" horiz-adv-x="404" unicode="&#233;" /><glyph d="M44 0ZM177 -10Q114 -10 79 30.5Q44 71 44 157Q44 175 45.5 196Q47 217 51 239Q70 362 121 425Q172 488 251 488Q310 488 339.5 447Q369 406 369 332Q369 309 366.5 285Q364 261 359 232H79Q75 213 74 193.5Q73 174 73 158Q73 15 180 15Q272 15 320 124L343 112Q316 53 276 21.5Q236 -10 177 -10ZM341 331Q341 463 247 463Q184 463 142.5 410.5Q101 358 83 256H335Q337 275 339 294.5Q341 314 341 331ZM340 670H361Q353 611 326 588Q299 565 256 565Q213 565 192.5 588.5Q172 612 181 670H203Q196 622 210 604.5Q224 587 257 587Q292 587 312 604.5Q332 622 340 670Z" glyph-name="ebreve" horiz-adv-x="404" unicode="&#277;" /><glyph d="M44 0ZM177 -10Q114 -10 79 30.5Q44 71 44 157Q44 175 45.5 196Q47 217 51 239Q70 362 121 425Q172 488 251 488Q310 488 339.5 447Q369 406 369 332Q369 309 366.5 285Q364 261 359 232H79Q75 213 74 193.5Q73 174 73 158Q73 15 180 15Q272 15 320 124L343 112Q316 53 276 21.5Q236 -10 177 -10ZM341 331Q341 463 247 463Q184 463 142.5 410.5Q101 358 83 256H335Q337 275 339 294.5Q341 314 341 331ZM246 564 177 670V671H206L261 586L343 671H374V670L270 564Z" glyph-name="ecaron" horiz-adv-x="403" unicode="&#283;" /><glyph d="M44 0ZM177 -10Q114 -10 79 30.5Q44 71 44 157Q44 175 45.5 196Q47 217 51 239Q70 362 121 425Q172 488 251 488Q310 488 339.5 447Q369 406 369 332Q369 309 366.5 285Q364 261 359 232H79Q75 213 74 193.5Q73 174 73 158Q73 15 180 15Q272 15 320 124L343 112Q316 53 276 21.5Q236 -10 177 -10ZM341 331Q341 463 247 463Q184 463 142.5 410.5Q101 358 83 256H335Q337 275 339 294.5Q341 314 341 331ZM260 671H284L353 566V564H325L270 650L187 564H156V566Z" glyph-name="ecircumflex" horiz-adv-x="404" unicode="&#234;" /><glyph d="M44 0ZM177 -10Q114 -10 79 30.5Q44 71 44 157Q44 175 45.5 196Q47 217 51 239Q70 362 121 425Q172 488 251 488Q310 488 339.5 447Q369 406 369 332Q369 309 366.5 285Q364 261 359 232H79Q75 213 74 193.5Q73 174 73 158Q73 15 180 15Q272 15 320 124L343 112Q316 53 276 21.5Q236 -10 177 -10ZM341 331Q341 463 247 463Q184 463 142.5 410.5Q101 358 83 256H335Q337 275 339 294.5Q341 314 341 331ZM183 606Q183 640 214 640Q225 640 231.5 633.5Q238 627 238 615Q238 599 229.5 590Q221 581 207 581Q183 581 183 606ZM290 606Q290 640 321 640Q345 640 345 615Q345 581 314 581Q290 581 290 606Z" glyph-name="edieresis" horiz-adv-x="404" unicode="&#235;" /><glyph d="M44 0ZM177 -10Q114 -10 79 30.5Q44 71 44 157Q44 175 45.5 196Q47 217 51 239Q70 362 121 425Q172 488 251 488Q310 488 339.5 447Q369 406 369 332Q369 309 366.5 285Q364 261 359 232H79Q75 213 74 193.5Q73 174 73 158Q73 15 180 15Q272 15 320 124L343 112Q316 53 276 21.5Q236 -10 177 -10ZM341 331Q341 463 247 463Q184 463 142.5 410.5Q101 358 83 256H335Q337 275 339 294.5Q341 314 341 331ZM236 606Q236 640 267 640Q290 640 290 615Q290 581 259 581Q236 581 236 606Z" glyph-name="edotaccent" horiz-adv-x="404" unicode="&#279;" /><glyph d="M44 0ZM177 -10Q114 -10 79 30.5Q44 71 44 157Q44 175 45.5 196Q47 217 51 239Q70 362 121 425Q172 488 251 488Q310 488 339.5 447Q369 406 369 332Q369 309 366.5 285Q364 261 359 232H79Q75 213 74 193.5Q73 174 73 158Q73 15 180 15Q272 15 320 124L343 112Q316 53 276 21.5Q236 -10 177 -10ZM341 331Q341 463 247 463Q184 463 142.5 410.5Q101 358 83 256H335Q337 275 339 294.5Q341 314 341 331ZM247 564 184 667V671H222L270 567V564Z" glyph-name="egrave" horiz-adv-x="404" unicode="&#232;" /><glyph d="M74 0ZM434 229Q434 175 418.5 131Q403 87 375 55.5Q347 24 308.5 7Q270 -10 225 -10Q153 -10 113.5 32Q74 74 74 147Q74 195 86 234.5Q98 274 119 303.5Q140 333 168.5 352Q197 371 229 379Q193 392 171 424Q149 456 149 507Q149 548 161.5 585Q174 622 197.5 649.5Q221 677 255.5 693.5Q290 710 334 710Q397 710 432.5 675Q468 640 468 577Q468 499 432 447.5Q396 396 339 376Q382 364 408 326Q434 288 434 229ZM439 571Q439 624 411.5 654Q384 684 330 684Q293 684 264.5 669.5Q236 655 216.5 631Q197 607 187 575Q177 543 177 507Q177 453 205.5 421.5Q234 390 285 390Q317 390 345 403Q373 416 394 439.5Q415 463 427 496.5Q439 530 439 571ZM405 227Q405 288 372.5 325.5Q340 363 279 363Q240 363 208 346.5Q176 330 152.5 301.5Q129 273 116.5 234.5Q104 196 104 151Q104 90 135.5 53Q167 16 228 16Q265 16 297.5 31Q330 46 354 74Q378 102 391.5 141Q405 180 405 227Z" glyph-name="eight" horiz-adv-x="535" unicode="8" /><glyph d="M404 229Q404 175 388.5 131Q373 87 345 55.5Q317 24 278.5 7Q240 -10 195 -10Q123 -10 83.5 32Q44 74 44 147Q44 195 56 234.5Q68 274 89 303.5Q110 333 138.5 352Q167 371 199 379Q163 392 141 424Q119 456 119 507Q119 548 131.5 585Q144 622 167.5 649.5Q191 677 225.5 693.5Q260 710 304 710Q367 710 402.5 675Q438 640 438 577Q438 499 402 447.5Q366 396 309 376Q352 364 378 326Q404 288 404 229ZM409 571Q409 624 381.5 654Q354 684 300 684Q263 684 234.5 669.5Q206 655 186.5 631Q167 607 157 575Q147 543 147 507Q147 453 175.5 421.5Q204 390 255 390Q287 390 315 403Q343 416 364 439.5Q385 463 397 496.5Q409 530 409 571ZM375 227Q375 288 342.5 325.5Q310 363 249 363Q210 363 178 346.5Q146 330 122.5 301.5Q99 273 86.5 234.5Q74 196 74 151Q74 90 105.5 53Q137 16 198 16Q235 16 267.5 31Q300 46 324 74Q348 102 361.5 141Q375 180 375 227Z" glyph-name="eight.LP" horiz-adv-x="469" /><glyph d="M381 230Q381 176 365.5 131.5Q350 87 323 55.5Q296 24 259 7Q222 -10 178 -10Q110 -10 72 31.5Q34 73 34 146Q34 194 45.5 233.5Q57 273 77.5 302.5Q98 332 125.5 351Q153 370 185 378Q150 391 129.5 423.5Q109 456 109 506Q109 548 121 585Q133 622 155.5 649.5Q178 677 211.5 693.5Q245 710 287 710Q347 710 381 675Q415 640 415 577Q415 497 378 445Q341 393 287 376Q329 365 355 327Q381 289 381 230ZM138 506Q138 452 164 421Q190 390 238 390Q269 390 295.5 403.5Q322 417 342 441Q362 465 373.5 498.5Q385 532 385 573Q385 625 359.5 654.5Q334 684 284 684Q248 684 221 670Q194 656 175.5 631.5Q157 607 147.5 574.5Q138 542 138 506ZM64 150Q64 89 94 52.5Q124 16 181 16Q217 16 248 31.5Q279 47 302 74.5Q325 102 338 141Q351 180 351 228Q351 288 320.5 325.5Q290 363 233 363Q195 363 164 347Q133 331 111 302.5Q89 274 76.5 235Q64 196 64 150Z" glyph-name="eight.OP" horiz-adv-x="438" /><glyph d="M434 229Q434 175 418.5 131Q403 87 375 55.5Q347 24 308.5 7Q270 -10 225 -10Q153 -10 113.5 32Q74 74 74 147Q74 195 86 234.5Q98 274 119 303.5Q140 333 168.5 352Q197 371 229 379Q193 392 171 424Q149 456 149 507Q149 548 161.5 585Q174 622 197.5 649.5Q221 677 255.5 693.5Q290 710 334 710Q397 710 432.5 675Q468 640 468 577Q468 499 432 447.5Q396 396 339 376Q382 364 408 326Q434 288 434 229ZM439 571Q439 624 411.5 654Q384 684 330 684Q293 684 264.5 669.5Q236 655 216.5 631Q197 607 187 575Q177 543 177 507Q177 453 205.5 421.5Q234 390 285 390Q317 390 345 403Q373 416 394 439.5Q415 463 427 496.5Q439 530 439 571ZM405 227Q405 288 372.5 325.5Q340 363 279 363Q240 363 208 346.5Q176 330 152.5 301.5Q129 273 116.5 234.5Q104 196 104 151Q104 90 135.5 53Q167 16 228 16Q265 16 297.5 31Q330 46 354 74Q378 102 391.5 141Q405 180 405 227Z" glyph-name="eight.OT" horiz-adv-x="535" /><glyph d="M0 0ZM205 -66Q205 -129 170.5 -167.5Q136 -206 80 -206Q37 -206 13.5 -181.5Q-10 -157 -10 -114Q-10 -58 15.5 -23.5Q41 11 79 21Q58 29 45.5 47.5Q33 66 33 95Q33 119 40.5 141Q48 163 62 179Q76 195 96.5 204.5Q117 214 144 214Q182 214 203 193.5Q224 173 224 136Q224 91 203.5 61Q183 31 151 19Q175 11 190 -11Q205 -33 205 -66ZM201 131Q201 160 186 176.5Q171 193 141 193Q99 193 77.5 164Q56 135 56 95Q56 65 71.5 47.5Q87 30 116 30Q151 30 176 57.5Q201 85 201 131ZM181 -68Q181 -34 163 -13Q145 8 112 8Q68 8 41 -25.5Q14 -59 14 -110Q14 -144 31 -164.5Q48 -185 83 -185Q125 -185 153 -153Q181 -121 181 -68Z" glyph-name="eight.inf" horiz-adv-x="286" /><glyph d="M371 29Q371 -6 339 -6Q316 -6 316 19Q316 35 324 44.5Q332 54 347 54Q358 54 364.5 47.5Q371 41 371 29ZM223 29Q223 -6 192 -6Q181 -6 174.5 1Q168 8 168 19Q168 35 176 44.5Q184 54 199 54Q223 54 223 29ZM76 29Q76 -6 45 -6Q21 -6 21 19Q21 35 29 44.5Q37 54 52 54Q76 54 76 29Z" glyph-name="ellipsis" horiz-adv-x="447" unicode="&#8230;" /><glyph d="M44 0ZM177 -10Q114 -10 79 30.5Q44 71 44 157Q44 175 45.5 196Q47 217 51 239Q70 362 121 425Q172 488 251 488Q310 488 339.5 447Q369 406 369 332Q369 309 366.5 285Q364 261 359 232H79Q75 213 74 193.5Q73 174 73 158Q73 15 180 15Q272 15 320 124L343 112Q316 53 276 21.5Q236 -10 177 -10ZM341 331Q341 463 247 463Q184 463 142.5 410.5Q101 358 83 256H335Q337 275 339 294.5Q341 314 341 331ZM351 627 347 604H179L182 627Z" glyph-name="emacron" horiz-adv-x="404" unicode="&#275;" /><glyph d="M543 256 538 230H35L39 256Z" glyph-name="emdash" horiz-adv-x="582" unicode="&#8212;" /><glyph d="M560 363 555 337H52L56 363Z" glyph-name="emdash.cap" horiz-adv-x="582" /><glyph glyph-name="emspace" horiz-adv-x="743" unicode="&#8195;" /><glyph d="M396 256 392 230H35L39 256Z" glyph-name="endash" horiz-adv-x="435" unicode="&#8211;" /><glyph d="M413 363 409 337H52L56 363Z" glyph-name="endash.cap" horiz-adv-x="435" /><glyph d="M330 -66Q319 -140 291.5 -172.5Q264 -205 224 -205Q210 -205 196 -203Q182 -201 168 -193L181 -166Q199 -177 225 -177Q254 -177 273 -149Q292 -121 302 -58L359 302Q361 318 362.5 332.5Q364 347 364 359Q364 416 341 439Q318 462 277 462Q245 462 218.5 446.5Q192 431 170.5 403.5Q149 376 133 338Q117 300 108 255L68 0H38L115 478H140L122 347Q146 417 190 452.5Q234 488 289 488Q340 488 367 458.5Q394 429 394 368Q394 354 392.5 339.5Q391 325 389 308Z" glyph-name="eng" horiz-adv-x="450" unicode="&#331;" /><glyph glyph-name="enspace" horiz-adv-x="371" unicode="&#8194;" /><glyph d="M192 -198Q164 -198 146 -181.5Q128 -165 128 -126Q128 -89 143 -59.5Q158 -30 180 -10Q114 -11 79 30Q44 71 44 157Q44 175 45.5 196Q47 217 51 239Q70 362 121 425Q172 488 251 488Q310 488 339.5 447Q369 406 369 332Q369 309 366.5 285Q364 261 359 232H79Q75 213 74 193.5Q73 174 73 158Q73 15 180 15Q272 15 320 124L343 112Q320 64 289.5 33.5Q259 3 216 -6Q190 -20 170.5 -51.5Q151 -83 151 -122Q151 -153 165 -164Q179 -175 197 -175Q223 -175 242 -160L251 -179Q237 -190 222.5 -194Q208 -198 192 -198ZM341 331Q341 463 247 463Q184 463 142.5 410.5Q101 358 83 256H335Q337 275 339 294.5Q341 314 341 331Z" glyph-name="eogonek" horiz-adv-x="404" unicode="&#281;" /><glyph d="M341 377 337 351H53L58 377ZM324 267 320 242H36L41 267Z" glyph-name="equal" horiz-adv-x="367" unicode="=" /><glyph d="M0 0ZM168 24 164 3H-4L0 24ZM156 -43 153 -64H-14L-11 -43Z" glyph-name="equal.inf" horiz-adv-x="236" /><glyph d="M51 237Q71 365 121 426Q171 487 252 487Q300 487 329.5 462Q359 437 367 384Q371 455 363.5 508Q356 561 336 602L262 549L255 567L325 619Q291 678 228 710L242 731Q309 700 347 636L429 695L436 677L357 619Q376 579 385 529.5Q394 480 394 421Q394 383 390 340Q386 297 378 241Q358 112 307 51Q256 -10 177 -10Q44 -10 44 153Q44 173 45.5 193Q47 213 51 237ZM179 16Q313 16 349 237Q353 261 355 283Q357 305 357 324Q357 462 250 462Q180 462 138.5 407Q97 352 79 237Q76 214 74 192.5Q72 171 72 153Q72 16 179 16Z" glyph-name="eth" horiz-adv-x="427" unicode="&#240;" /><glyph d="M163 700 75 170H50L130 700ZM67 29Q67 -6 36 -6Q25 -6 18.5 1Q12 8 12 19Q12 35 20 44.5Q28 54 43 54Q67 54 67 29Z" glyph-name="exclam" horiz-adv-x="152" unicode="!" /><glyph d="M-19 -206 69 324H94L14 -206ZM77 465Q77 500 108 500Q119 500 125.5 493Q132 486 132 475Q132 459 124 449.5Q116 440 101 440Q77 440 77 465Z" glyph-name="exclamdown" horiz-adv-x="155" unicode="&#161;" /><glyph d="M13 0 101 530H126L46 0ZM109 671Q109 706 140 706Q151 706 157.5 699Q164 692 164 681Q164 665 156 655.5Q148 646 133 646Q109 646 109 671Z" glyph-name="exclamdown.cap" horiz-adv-x="155" /><glyph d="M278 454H159L87 0H58L130 454H59L63 478H134L150 573Q161 647 193 677.5Q225 708 267 708Q281 708 297.5 704.5Q314 701 327 690L311 666Q300 674 289 677.5Q278 681 265 681Q230 681 208.5 656Q187 631 177 568L163 478H283Z" glyph-name="f" horiz-adv-x="260" unicode="f" /><glyph d="M278 454H159L87 0H58L130 454H59L63 478H134L150 573Q162 647 193.5 677.5Q225 708 267 708Q281 708 297.5 704.5Q314 701 327 690L311 666Q300 674 289 677.5Q278 681 265 681Q230 681 208.5 656Q187 631 177 568L163 478H283ZM376 605Q376 621 384 630.5Q392 640 407 640Q431 640 431 615Q431 598 422.5 589Q414 580 400 580Q376 580 376 605ZM369 478H398L323 0H293Z" glyph-name="fi" horiz-adv-x="438" unicode="&#64257;" /><glyph d="M396 256 392 230H35L39 256Z" glyph-name="figuredash" horiz-adv-x="435" unicode="&#8210;" /><glyph d="M413 363 409 337H52L56 363Z" glyph-name="figuredash.cap" horiz-adv-x="435" /><glyph glyph-name="figurespace" horiz-adv-x="465" unicode="&#8199;" /><glyph d="M61 0ZM222 674 153 373Q183 403 220 418Q257 433 305 433Q368 433 405.5 395.5Q443 358 443 275Q443 219 428.5 167.5Q414 116 386 76.5Q358 37 316.5 13.5Q275 -10 221 -10Q154 -10 113 23Q72 56 61 126L88 137Q96 73 131 44Q166 15 223 15Q269 15 304.5 36Q340 57 364 92.5Q388 128 400.5 174.5Q413 221 413 272Q413 406 294 406Q241 406 204 385Q167 364 135 332L116 340L200 700H487L483 674Z" glyph-name="five" horiz-adv-x="535" unicode="5" /><glyph d="M171 674 102 373Q132 403 169 418Q206 433 254 433Q317 433 354.5 395.5Q392 358 392 275Q392 219 377.5 167.5Q363 116 335 76.5Q307 37 265.5 13.5Q224 -10 170 -10Q103 -10 62 23Q21 56 10 126L37 137Q45 73 80 44Q115 15 172 15Q218 15 253.5 36Q289 57 313 92.5Q337 128 349.5 174.5Q362 221 362 272Q362 406 243 406Q190 406 153 385Q116 364 84 332L65 340L149 700H436L432 674Z" glyph-name="five.LP" horiz-adv-x="443" /><glyph d="M156 574 86 273Q116 303 150.5 318Q185 333 230 333Q292 333 327.5 295.5Q363 258 363 175Q363 119 349 67.5Q335 16 308 -23.5Q281 -63 240.5 -86.5Q200 -110 147 -110Q82 -110 42 -78Q2 -46 -9 26L18 37Q26 -27 59.5 -56Q93 -85 148 -85Q193 -85 227.5 -64Q262 -43 285.5 -7.5Q309 28 321 74.5Q333 121 333 172Q333 306 219 306Q169 306 134.5 285Q100 264 70 232L51 240L135 600H408L405 574Z" glyph-name="five.OP" horiz-adv-x="424" /><glyph d="M212 574 143 273Q173 303 210 318Q247 333 295 333Q358 333 395.5 295.5Q433 258 433 175Q433 119 418.5 67.5Q404 16 376 -23.5Q348 -63 306.5 -86.5Q265 -110 211 -110Q144 -110 103 -77Q62 -44 51 26L78 37Q86 -27 121 -56Q156 -85 213 -85Q259 -85 294.5 -64Q330 -43 354 -7.5Q378 28 390.5 74.5Q403 121 403 172Q403 306 284 306Q231 306 194 285Q157 264 125 232L106 240L190 600H477L473 574Z" glyph-name="five.OT" horiz-adv-x="535" /><glyph d="M0 0ZM75 187 36 19Q54 36 75 45Q96 54 123 54Q161 54 182.5 31.5Q204 9 204 -39Q204 -72 195.5 -102.5Q187 -133 170 -156Q153 -179 128.5 -192.5Q104 -206 72 -206Q31 -206 6.5 -187.5Q-18 -169 -24 -127L-2 -116Q3 -152 22 -168.5Q41 -185 73 -185Q99 -185 119 -173Q139 -161 152.5 -141.5Q166 -122 173 -96Q180 -70 180 -42Q180 33 113 33Q84 33 63 21.5Q42 10 24 -9L9 -2L58 209H230L227 187Z" glyph-name="five.inf" horiz-adv-x="272" /><glyph d="M278 454H159L87 0H58L130 454H59L63 478H134L150 573Q161 647 193 677.5Q225 708 267 708Q281 708 297.5 704.5Q314 701 327 690L311 666Q300 674 289 677.5Q278 681 265 681Q230 681 208.5 656Q187 631 177 568L163 478H283ZM334 91Q328 55 339.5 40Q351 25 376 25H402L398 0H369Q332 0 314.5 21.5Q297 43 305 92L401 700H430Z" glyph-name="fl" horiz-adv-x="440" unicode="&#64258;" /><glyph d="M278 454H159L87 0H58L130 454H59L63 478H134L150 573Q161 647 193 677.5Q225 708 267 708Q281 708 297.5 704.5Q314 701 327 690L311 666Q300 674 289 677.5Q278 681 265 681Q230 681 208.5 656Q187 631 177 568L163 478H283ZM430 700 319 0H290L401 700Z" glyph-name="fl.alt" horiz-adv-x="429" /><glyph d="M27 -57 114 329H43L49 353H119L146 473Q163 547 193 581Q223 615 270 615Q286 615 301.5 611.5Q317 608 330 598L318 572Q307 580 296.5 584Q286 588 270 588Q237 588 212 561.5Q187 535 173 468L148 353H268L262 329H142L54 -63Q37 -138 9 -171.5Q-19 -205 -60 -205Q-74 -205 -87.5 -202.5Q-101 -200 -113 -192L-101 -167Q-92 -172 -82 -175Q-72 -178 -58 -178Q-30 -178 -9 -151.5Q12 -125 27 -57Z" glyph-name="florin" horiz-adv-x="289" unicode="&#402;" /><glyph d="M48 0ZM48 196 51 220 312 700H342L82 222H344L402 584H431L374 222H461L457 196H370L338 0H309L340 196Z" glyph-name="four" horiz-adv-x="535" unicode="4" /><glyph d="M25 196 28 220 289 700H319L59 222H321L379 584H408L351 222H438L434 196H347L315 0H286L317 196Z" glyph-name="four.LP" horiz-adv-x="470" /><glyph d="M11 96 14 119 264 600H293L44 121H294L351 484H380L322 121H407L403 96H318L287 -100H259L290 96Z" glyph-name="four.OP" horiz-adv-x="448" /><glyph d="M48 96 51 120 312 600H342L82 122H344L402 484H431L374 122H461L457 96H370L338 -100H309L340 96Z" glyph-name="four.OT" horiz-adv-x="535" /><glyph d="M0 0ZM-21 -88 -18 -70 131 209H155L6 -67H152L184 135H208L176 -67H225L222 -88H173L154 -200H131L149 -88Z" glyph-name="four.inf" horiz-adv-x="288" /><glyph glyph-name="fourperemspace" horiz-adv-x="186" unicode="&#8197;" /><glyph d="M394 700 39 0H11L366 700Z" glyph-name="fraction" horiz-adv-x="365" unicode="&#8260;" /><glyph d="M170 19Q228 19 274 74.5Q320 130 338 247Q344 284 344 319Q344 392 316.5 427Q289 462 243 462Q179 462 138 404.5Q97 347 80 241Q76 218 74.5 197.5Q73 177 73 158Q73 90 97.5 54.5Q122 19 170 19ZM23 -84Q34 -138 62.5 -158.5Q91 -179 133 -179Q196 -179 239 -138Q282 -97 299 4L319 124Q295 57 252.5 25.5Q210 -6 162 -6Q104 -6 73.5 35.5Q43 77 43 157Q43 176 44.5 196.5Q46 217 50 240Q69 361 118.5 424.5Q168 488 243 488Q291 488 322.5 457Q354 426 359 363L380 478H404L328 -2Q311 -111 259.5 -158Q208 -205 132 -205Q79 -205 44.5 -180.5Q10 -156 -5 -96Z" glyph-name="g" horiz-adv-x="443" unicode="g" /><glyph d="M0 0ZM170 19Q228 19 274 74.5Q320 130 338 247Q344 284 344 319Q344 392 316.5 427Q289 462 243 462Q179 462 138 404.5Q97 347 80 241Q76 218 74.5 197.5Q73 177 73 158Q73 90 97.5 54.5Q122 19 170 19ZM23 -84Q34 -138 62.5 -158.5Q91 -179 133 -179Q196 -179 239 -138Q282 -97 299 4L319 124Q295 57 252.5 25.5Q210 -6 162 -6Q104 -6 73.5 35.5Q43 77 43 157Q43 176 44.5 196.5Q46 217 50 240Q69 361 118.5 424.5Q168 488 243 488Q291 488 322.5 457Q354 426 359 363L380 478H404L328 -2Q311 -111 259.5 -158Q208 -205 132 -205Q79 -205 44.5 -180.5Q10 -156 -5 -96ZM337 670H358Q350 611 323 588Q296 565 253 565Q210 565 189.5 588.5Q169 612 178 670H200Q193 622 207 604.5Q221 587 254 587Q289 587 309 604.5Q329 622 337 670Z" glyph-name="gbreve" horiz-adv-x="443" unicode="&#287;" /><glyph d="M0 0ZM170 19Q228 19 274 74.5Q320 130 338 247Q344 284 344 319Q344 392 316.5 427Q289 462 243 462Q179 462 138 404.5Q97 347 80 241Q76 218 74.5 197.5Q73 177 73 158Q73 90 97.5 54.5Q122 19 170 19ZM23 -84Q34 -138 62.5 -158.5Q91 -179 133 -179Q196 -179 239 -138Q282 -97 299 4L319 124Q295 57 252.5 25.5Q210 -6 162 -6Q104 -6 73.5 35.5Q43 77 43 157Q43 176 44.5 196.5Q46 217 50 240Q69 361 118.5 424.5Q168 488 243 488Q291 488 322.5 457Q354 426 359 363L380 478H404L328 -2Q311 -111 259.5 -158Q208 -205 132 -205Q79 -205 44.5 -180.5Q10 -156 -5 -96ZM256 671H280L349 566V564H321L266 650L183 564H152V566Z" glyph-name="gcircumflex" horiz-adv-x="443" unicode="&#285;" /><glyph d="M289 726 297 714Q278 702 264 679.5Q250 657 247 631Q260 636 270 629.5Q280 623 280 608Q279 594 271 585.5Q263 577 249 577Q226 577 226 606Q226 624 231 642Q236 660 244 676Q252 692 263.5 705Q275 718 289 726ZM170 19Q228 19 274 74.5Q320 130 338 247Q344 284 344 319Q344 392 316.5 427Q289 462 243 462Q179 462 138 404.5Q97 347 80 241Q76 218 74.5 197.5Q73 177 73 158Q73 90 97.5 54.5Q122 19 170 19ZM23 -84Q34 -138 62.5 -158.5Q91 -179 133 -179Q196 -179 239 -138Q282 -97 299 4L319 124Q295 57 252.5 25.5Q210 -6 162 -6Q104 -6 73.5 35.5Q43 77 43 157Q43 176 44.5 196.5Q46 217 50 240Q69 361 118.5 424.5Q168 488 243 488Q291 488 322.5 457Q354 426 359 363L380 478H404L328 -2Q311 -111 259.5 -158Q208 -205 132 -205Q79 -205 44.5 -180.5Q10 -156 -5 -96Z" glyph-name="gcommaaccent" horiz-adv-x="443" unicode="&#291;" /><glyph d="M0 0ZM170 19Q228 19 274 74.5Q320 130 338 247Q344 284 344 319Q344 392 316.5 427Q289 462 243 462Q179 462 138 404.5Q97 347 80 241Q76 218 74.5 197.5Q73 177 73 158Q73 90 97.5 54.5Q122 19 170 19ZM23 -84Q34 -138 62.5 -158.5Q91 -179 133 -179Q196 -179 239 -138Q282 -97 299 4L319 124Q295 57 252.5 25.5Q210 -6 162 -6Q104 -6 73.5 35.5Q43 77 43 157Q43 176 44.5 196.5Q46 217 50 240Q69 361 118.5 424.5Q168 488 243 488Q291 488 322.5 457Q354 426 359 363L380 478H404L328 -2Q311 -111 259.5 -158Q208 -205 132 -205Q79 -205 44.5 -180.5Q10 -156 -5 -96ZM233 606Q233 640 264 640Q287 640 287 615Q287 581 256 581Q233 581 233 606Z" glyph-name="gdotaccent" horiz-adv-x="443" unicode="&#289;" /><glyph d="M127 17 142 40Q169 19 213 19Q283 19 323.5 74.5Q364 130 364 225Q364 288 335.5 325Q307 362 250 362H222L226 388H252Q283 388 307 403Q331 418 348 442.5Q365 467 374 498.5Q383 530 383 563Q383 619 358 650Q333 681 285 681Q232 681 194.5 641Q157 601 143 512L62 1H33L114 511Q131 615 176.5 661Q222 707 289 707Q352 707 382.5 668Q413 629 413 567Q413 533 405 502.5Q397 472 382.5 446.5Q368 421 348 403Q328 385 303 376Q348 363 370.5 324.5Q393 286 393 226Q393 171 379.5 127.5Q366 84 342 54Q318 24 285 8.5Q252 -7 213 -7Q189 -7 167 -2Q145 3 127 17Z" glyph-name="germandbls" horiz-adv-x="443" unicode="&#223;" /><glyph d="M233 563 170 666V670H208L256 566V563Z" glyph-name="grave" horiz-adv-x="451" unicode="`" /><glyph d="M66 127 55 148 250 311 108 474 124 495 279 318 277 303Z" glyph-name="greater" horiz-adv-x="330" unicode="&gt;" /><glyph d="M81 141 70 162 287 318 121 474 139 495 321 326 319 312ZM276 25 273 0H39L42 25Z" glyph-name="greaterequal" horiz-adv-x="391" unicode="&#8805;" /><glyph d="M155 0 51 237 52 240 231 478H264L82 237L187 0ZM294 0 188 238 189 241 368 478H401L220 237L326 0Z" glyph-name="guillemotleft" horiz-adv-x="445" unicode="&#171;" /><glyph d="M285 479 389 242 388 239 209 1H176L358 242L253 479ZM146 479 252 241 251 238 72 1H39L220 242L114 479Z" glyph-name="guillemotright" horiz-adv-x="445" unicode="&#187;" /><glyph d="M153 0 50 237 51 240 228 478H262L82 238L186 0Z" glyph-name="guilsinglleft" horiz-adv-x="306" unicode="&#8249;" /><glyph d="M148 478 251 241 250 238 73 0H39L219 240L115 478Z" glyph-name="guilsinglright" horiz-adv-x="306" unicode="&#8250;" /><glyph d="M178 700 123 349Q147 417 191 452.5Q235 488 290 488Q341 488 367.5 458.5Q394 429 394 368Q394 354 393 339.5Q392 325 389 308L340 0H311L359 302Q361 318 362.5 332.5Q364 347 364 360Q364 417 341 439.5Q318 462 277 462Q245 462 218.5 446.5Q192 431 170 403.5Q148 376 132.5 337.5Q117 299 108 254L67 0H38L149 700Z" glyph-name="h" horiz-adv-x="450" unicode="h" /><glyph glyph-name="hairspace" horiz-adv-x="74" unicode="&#8202;" /><glyph d="M75 569 78 591H140L157 700H187L170 591H295L292 569H166L132 350Q155 417 199 452.5Q243 488 298 488Q401 488 401 366Q401 352 400 337Q399 322 396 305L348 0H319L366 298Q368 315 369.5 330Q371 345 371 358Q371 415 348 438.5Q325 462 285 462Q253 462 226.5 446.5Q200 431 178 403.5Q156 376 140.5 338Q125 300 116 254L76 0H46L137 569Z" glyph-name="hbar" horiz-adv-x="458" unicode="&#295;" /><glyph d="M38 0ZM178 700 123 349Q147 417 191 452.5Q235 488 290 488Q341 488 367.5 458.5Q394 429 394 368Q394 354 393 339.5Q392 325 389 308L340 0H311L359 302Q361 318 362.5 332.5Q364 347 364 360Q364 417 341 439.5Q318 462 277 462Q245 462 218.5 446.5Q192 431 170 403.5Q148 376 132.5 337.5Q117 299 108 254L67 0H38L149 700ZM180 892H204L273 787V785H245L190 871L107 785H76V787Z" glyph-name="hcircumflex" horiz-adv-x="450" unicode="&#293;" /><glyph d="M365 670H404V666L309 563H288V566ZM270 670H309V666L214 563H193V566Z" glyph-name="hungarumlaut" horiz-adv-x="451" unicode="&#733;" /><glyph d="M262 256 258 230H35L39 256Z" glyph-name="hyphen" horiz-adv-x="301" unicode="-" /><glyph d="M279 363 275 337H52L56 363Z" glyph-name="hyphen.cap" horiz-adv-x="301" /><glyph d="M122 605Q122 621 130 630.5Q138 640 153 640Q177 640 177 615Q177 580 146 580Q122 580 122 605ZM115 478H144L69 0H39Z" glyph-name="i" horiz-adv-x="183" unicode="i" /><glyph d="M39 0ZM115 478H144L69 0H39ZM204 670H243L242 666L150 563H126V566Z" glyph-name="iacute" horiz-adv-x="183" unicode="&#237;" /><glyph d="M39 0ZM115 478H144L69 0H39ZM226 669H247Q239 610 212 587Q185 564 142 564Q99 564 78.5 587.5Q58 611 67 669H89Q82 621 96 603.5Q110 586 143 586Q178 586 198 603.5Q218 621 226 669Z" glyph-name="ibreve" horiz-adv-x="183" unicode="&#301;" /><glyph d="M39 0ZM115 478H144L69 0H39ZM145 670H169L238 565V563H210L155 649L72 563H41V565Z" glyph-name="icircumflex" horiz-adv-x="183" unicode="&#238;" /><glyph d="M39 0ZM115 478H144L69 0H39ZM69 605Q69 639 100 639Q111 639 117.5 632.5Q124 626 124 614Q124 598 115.5 589Q107 580 93 580Q69 580 69 605ZM176 605Q176 639 207 639Q231 639 231 614Q231 580 200 580Q176 580 176 605Z" glyph-name="idieresis" horiz-adv-x="183" unicode="&#239;" /><glyph d="M122 605Q122 621 130 630.5Q138 640 153 640Q177 640 177 615Q177 580 146 580Q122 580 122 605ZM115 478H144L69 0H39Z" glyph-name="idotaccent" horiz-adv-x="183" /><glyph d="M39 0ZM115 478H144L69 0H39ZM134 564 71 667V671H109L157 567V564Z" glyph-name="igrave" horiz-adv-x="185" unicode="&#236;" /><glyph d="M39 0ZM122 605Q122 621 130 630.5Q138 640 153 640Q177 640 177 615Q177 580 146 580Q122 580 122 605ZM115 478H144L69 0H39ZM302 605Q302 621 310 630.5Q318 640 333 640Q357 640 357 615Q357 580 326 580Q302 580 302 605ZM210 -58 295 478H324L237 -68Q226 -141 197.5 -173Q169 -205 127 -205Q96 -205 74 -192L89 -166Q99 -172 108.5 -175Q118 -178 132 -178Q161 -178 180 -151.5Q199 -125 210 -58Z" glyph-name="ij" horiz-adv-x="366" unicode="&#307;" /><glyph d="M39 0ZM115 478H144L69 0H39ZM238 626 234 603H66L69 626Z" glyph-name="imacron" horiz-adv-x="186" unicode="&#299;" /><glyph d="M122 605Q122 621 130 630.5Q138 640 153 640Q177 640 177 615Q177 580 146 580Q122 580 122 605ZM67 -179Q53 -190 38.5 -194Q24 -198 8 -198Q-20 -198 -38 -181.5Q-56 -165 -56 -126Q-56 -99 -47.5 -76Q-39 -53 -25 -35Q-11 -17 6 -4.5Q23 8 41 13L115 478H144L69 0H55Q39 -2 23.5 -12.5Q8 -23 -4.5 -39.5Q-17 -56 -25 -77Q-33 -98 -33 -122Q-33 -153 -19 -164Q-5 -175 13 -175Q39 -175 58 -160Z" glyph-name="iogonek" horiz-adv-x="183" unicode="&#303;" /><glyph d="M39 0ZM115 478H144L69 0H39ZM228 656H250Q247 633 240.5 618.5Q234 604 225.5 595.5Q217 587 208 584Q199 581 191 581Q175 581 165 589.5Q155 598 146 608.5Q137 619 128.5 627.5Q120 636 107 636Q96 636 86.5 626Q77 616 73 585H51Q54 608 60.5 622.5Q67 637 75 645Q83 653 92 656Q101 659 109 659Q125 659 135 650.5Q145 642 154 632Q163 622 172 613.5Q181 605 194 605Q206 605 214.5 616Q223 627 228 656Z" glyph-name="itilde" horiz-adv-x="183" unicode="&#297;" /><glyph d="M122 605Q122 621 130 630.5Q138 640 153 640Q177 640 177 615Q177 580 146 580Q122 580 122 605ZM30 -58 115 478H144L57 -68Q46 -141 17.5 -173Q-11 -205 -53 -205Q-84 -205 -106 -192L-91 -166Q-81 -172 -71.5 -175Q-62 -178 -48 -178Q-19 -178 0 -151.5Q19 -125 30 -58Z" glyph-name="j" horiz-adv-x="183" unicode="j" /><glyph d="M0 0ZM30 -58 115 478H144L57 -68Q46 -141 17.5 -173Q-11 -205 -53 -205Q-67 -205 -80.5 -202Q-94 -199 -105 -192L-91 -166Q-81 -172 -71.5 -175Q-62 -178 -48 -178Q-19 -178 0 -151.5Q19 -125 30 -58ZM145 670H169L238 565V563H210L155 649L72 563H41V565Z" glyph-name="jcircumflex" horiz-adv-x="182" unicode="&#309;" /><glyph d="M89 135 68 0H38L149 700H178L94 174L349 478H383L204 269L317 0H285L184 245Z" glyph-name="k" horiz-adv-x="376" unicode="k" /><glyph d="M38 0 149 700H178L67 0ZM281 0 115 233V236L344 478H378L147 237L315 0Z" glyph-name="k.alt" horiz-adv-x="373" /><glyph d="M38 0ZM89 135 68 0H38L149 700H178L94 174L349 478H383L204 269L317 0H285L184 245ZM121 -221 113 -209Q132 -197 146 -174.5Q160 -152 163 -126Q150 -131 140 -124.5Q130 -118 130 -103Q131 -89 139 -80.5Q147 -72 161 -72Q184 -72 184 -101Q184 -119 179 -137Q174 -155 166 -171Q158 -187 146.5 -200.5Q135 -214 121 -221Z" glyph-name="kcommaaccent" horiz-adv-x="376" unicode="&#311;" /><glyph d="M38 0ZM38 0 149 700H178L67 0ZM281 0 115 233V236L344 478H378L147 237L315 0ZM121 -221 113 -209Q132 -197 146 -174.5Q160 -152 163 -126Q150 -131 140 -124.5Q130 -118 130 -103Q131 -89 139 -80.5Q147 -72 161 -72Q184 -72 184 -101Q184 -119 179 -137Q174 -155 166 -171Q158 -187 146.5 -200.5Q135 -214 121 -221Z" glyph-name="kcommaaccent.alt" horiz-adv-x="373" /><glyph d="M89 136 68 0H38L114 478H143L94 174L349 478H383L205 269L317 0H285L183 246Z" glyph-name="kgreenlandic" horiz-adv-x="377" unicode="&#312;" /><glyph d="M77 91Q71 55 82.5 40Q94 25 119 25H145L141 0H112Q75 0 57.5 21.5Q40 43 48 92L144 700H173Z" glyph-name="l" horiz-adv-x="183" unicode="l" /><glyph d="M178 700 67 0H38L149 700Z" glyph-name="l.alt" horiz-adv-x="183" /><glyph d="M40 0ZM77 91Q71 55 82.5 40Q94 25 119 25H145L141 0H112Q75 0 57.5 21.5Q40 43 48 92L144 700H173ZM238 892H277L276 888L184 785H160V788Z" glyph-name="lacute" horiz-adv-x="183" unicode="&#314;" /><glyph d="M41 0ZM248 515H227L261 700H292ZM78 91Q72 55 83.5 40Q95 25 120 25H146L142 0H113Q76 0 58.5 21.5Q41 43 49 92L145 700H174Z" glyph-name="lcaron" horiz-adv-x="219" unicode="&#318;" /><glyph d="M24 0ZM77 91Q71 55 82.5 40Q94 25 119 25H145L141 0H112Q75 0 57.5 21.5Q40 43 48 92L144 700H173ZM32 -221 24 -209Q43 -197 57 -174.5Q71 -152 74 -126Q61 -131 51 -124.5Q41 -118 41 -103Q42 -89 50 -80.5Q58 -72 72 -72Q95 -72 95 -101Q95 -119 90 -137Q85 -155 77 -171Q69 -187 57.5 -200.5Q46 -214 32 -221Z" glyph-name="lcommaaccent" horiz-adv-x="183" unicode="&#316;" /><glyph d="M41 0ZM78 91Q72 55 83.5 40Q95 25 120 25H146L142 0H113Q76 0 58.5 21.5Q41 43 49 92L145 700H174ZM189 293Q189 327 220 327Q243 327 243 302Q243 268 212 268Q189 268 189 293Z" glyph-name="ldot" horiz-adv-x="238" unicode="&#320;" /><glyph d="M283 495 295 475 98 310 241 148 225 127 69 304 71 319Z" glyph-name="less" horiz-adv-x="330" unicode="&lt;" /><glyph d="M331 494 342 474 125 316 292 161 275 140 91 310 94 324ZM35 0 39 25H273L269 0Z" glyph-name="lessequal" horiz-adv-x="391" unicode="&#8804;" /><glyph d="M95 642Q95 671 115 691Q135 711 164 711Q193 711 213 691Q233 671 233 642Q233 613 213 593Q193 573 164 573Q135 573 115 593Q95 613 95 642ZM211 642Q211 663 197.5 677.5Q184 692 164 692Q144 692 130.5 677.5Q117 663 117 642Q117 622 130.5 607Q144 592 164 592Q184 592 197.5 606.5Q211 621 211 642Z" glyph-name="logicalnot" horiz-adv-x="218" unicode="&#172;" /><glyph d="M158 0H129Q92 0 74.5 21.5Q57 43 65 92L100 313L5 210L10 242L105 346L161 700H190L139 375L243 489L238 457L134 343L94 91Q88 55 99.5 40Q111 25 136 25H162Z" glyph-name="lslash" horiz-adv-x="205" unicode="&#322;" /><glyph d="M579 302Q582 319 584 335Q586 351 586 364Q586 418 565 440Q544 462 509 462Q455 462 415 408.5Q375 355 355 264L313 0H285L333 301Q336 319 337 334.5Q338 350 338 363Q338 417 318 439.5Q298 462 263 462Q209 462 168.5 407Q128 352 108 255L67 0H38L115 478H140L121 349Q144 418 186 453Q228 488 276 488Q324 488 346 451.5Q368 415 362 344Q388 416 430 452Q472 488 521 488Q615 488 615 373Q615 343 609 309L560 0H531Z" glyph-name="m" horiz-adv-x="670" unicode="m" /><glyph d="M345 626 341 603H173L176 626Z" glyph-name="macron" horiz-adv-x="451" unicode="&#175;" /><glyph d="M333 318 329 293H45L49 318Z" glyph-name="minus" horiz-adv-x="367" unicode="&#8722;" /><glyph d="M0 -12ZM162 -12 158 -33H-10L-6 -12Z" glyph-name="minus.inf" horiz-adv-x="236" /><glyph d="M174 710Q209 710 231.5 687Q254 664 254 631Q254 598 231.5 575Q209 552 174 552Q139 552 116.5 575Q94 598 94 631Q94 664 116.5 687Q139 710 174 710ZM174 688Q149 688 133.5 672Q118 656 118 631Q118 606 133.5 590Q149 574 174 574Q199 574 214.5 590Q230 606 230 631Q230 656 214.5 672Q199 688 174 688Z" glyph-name="mu" horiz-adv-x="248" unicode="&#956;" /><glyph d="M58 161 42 177 166 315 87 452 106 467 183 334 302 466 319 451 195 313 273 177 254 162 178 294Z" glyph-name="multiply" horiz-adv-x="342" unicode="&#215;" /><glyph d="M38 0 115 478H140L122 347Q144 416 189 452Q234 488 289 488Q340 488 367 458.5Q394 429 394 368Q394 354 393 339.5Q392 325 389 308L340 0H311L359 302Q361 318 362.5 332.5Q364 347 364 359Q364 416 341 439Q318 462 277 462Q245 462 218.5 446.5Q192 431 170 403.5Q148 376 132.5 338Q117 300 108 255L67 0Z" glyph-name="n" horiz-adv-x="450" unicode="n" /><glyph d="M38 0ZM38 0 115 478H140L122 347Q144 416 189 452Q234 488 289 488Q340 488 367 458.5Q394 429 394 368Q394 354 393 339.5Q392 325 389 308L340 0H311L359 302Q361 318 362.5 332.5Q364 347 364 359Q364 416 341 439Q318 462 277 462Q245 462 218.5 446.5Q192 431 170 403.5Q148 376 132.5 338Q117 300 108 255L67 0ZM341 671H380L379 667L287 564H263V567Z" glyph-name="nacute" horiz-adv-x="450" unicode="&#324;" /><glyph d="M38 0ZM38 0 115 478H140L122 347Q144 416 189 452Q234 488 289 488Q340 488 367 458.5Q394 429 394 368Q394 354 393 339.5Q392 325 389 308L340 0H311L359 302Q361 318 362.5 332.5Q364 347 364 359Q364 416 341 439Q318 462 277 462Q245 462 218.5 446.5Q192 431 170 403.5Q148 376 132.5 338Q117 300 108 255L67 0ZM268 564 199 670V671H228L283 586L365 671H396V670L292 564Z" glyph-name="ncaron" horiz-adv-x="450" unicode="&#328;" /><glyph d="M38 0ZM38 0 115 478H140L122 347Q144 416 189 452Q234 488 289 488Q340 488 367 458.5Q394 429 394 368Q394 354 393 339.5Q392 325 389 308L340 0H311L359 302Q361 318 362.5 332.5Q364 347 364 359Q364 416 341 439Q318 462 277 462Q245 462 218.5 446.5Q192 431 170 403.5Q148 376 132.5 338Q117 300 108 255L67 0ZM137 -221 129 -209Q148 -197 162 -174.5Q176 -152 179 -126Q166 -131 156 -124.5Q146 -118 146 -103Q147 -89 155 -80.5Q163 -72 177 -72Q200 -72 200 -101Q200 -119 195 -137Q190 -155 182 -171Q174 -187 162.5 -200.5Q151 -214 137 -221Z" glyph-name="ncommaaccent" horiz-adv-x="450" unicode="&#326;" /><glyph d="M67 0ZM257 290Q301 290 335 311.5Q369 333 392.5 367.5Q416 402 428.5 444Q441 486 441 528Q441 557 434 585Q427 613 412 635Q397 657 374 670.5Q351 684 318 684Q280 684 247.5 666.5Q215 649 191.5 617Q168 585 155 539.5Q142 494 142 438Q142 369 172 329.5Q202 290 257 290ZM209 -10Q149 -10 113.5 19Q78 48 67 116L93 128Q102 67 131 41.5Q160 16 208 16Q290 16 349 99.5Q408 183 436 360Q440 383 443 408Q446 433 447 461Q441 417 424 381Q407 345 381 319Q355 293 322 278.5Q289 264 251 264Q188 264 150 307.5Q112 351 112 432Q112 492 126 542.5Q140 593 166.5 630.5Q193 668 231.5 689Q270 710 320 710Q353 710 381.5 697.5Q410 685 431 659Q452 633 463.5 591Q475 549 475 491Q475 462 472 429Q469 396 464 359Q449 262 424.5 192.5Q400 123 367 78Q334 33 294 11.5Q254 -10 209 -10Z" glyph-name="nine" horiz-adv-x="535" unicode="9" /><glyph d="M224 290Q268 290 302 311.5Q336 333 359.5 367.5Q383 402 395.5 444Q408 486 408 528Q408 557 401 585Q394 613 379 635Q364 657 341 670.5Q318 684 285 684Q247 684 214.5 666.5Q182 649 158.5 617Q135 585 122 539.5Q109 494 109 438Q109 369 139 329.5Q169 290 224 290ZM176 -10Q116 -10 80.5 19Q45 48 34 116L60 128Q69 67 98 41.5Q127 16 175 16Q257 16 316 99.5Q375 183 403 360Q407 383 410 408Q413 433 414 461Q408 417 391 381Q374 345 348 319Q322 293 289 278.5Q256 264 218 264Q155 264 117 307.5Q79 351 79 432Q79 492 93 542.5Q107 593 133.5 630.5Q160 668 198.5 689Q237 710 287 710Q320 710 348.5 697.5Q377 685 398 659Q419 633 430.5 591Q442 549 442 491Q442 462 439 429Q436 396 431 359Q416 262 391.5 192.5Q367 123 334 78Q301 33 261 11.5Q221 -10 176 -10Z" glyph-name="nine.LP" horiz-adv-x="473" /><glyph d="M253 584Q217 584 186 567Q155 550 132.5 517.5Q110 485 97.5 439.5Q85 394 85 337Q85 270 113 230.5Q141 191 195 191Q235 191 267.5 212.5Q300 234 322.5 268Q345 302 357.5 344Q370 386 370 428Q370 457 363.5 485Q357 513 342.5 535Q328 557 306 570.5Q284 584 253 584ZM146 -110Q88 -110 55 -80Q22 -50 11 16L37 27Q46 -33 73 -58.5Q100 -84 146 -84Q182 -84 215 -66Q248 -48 276 -7Q304 34 326 99Q348 164 363 259Q367 284 370 308Q373 332 375 361Q368 317 351.5 281Q335 245 310.5 219.5Q286 194 255 179.5Q224 165 188 165Q128 165 91.5 208Q55 251 55 333Q55 392 69 443Q83 494 109 531Q135 568 172 589Q209 610 256 610Q288 610 315 598Q342 586 361.5 559.5Q381 533 392 491.5Q403 450 403 392Q403 363 400 330Q397 297 392 259Q377 162 353.5 92Q330 22 298.5 -23Q267 -68 228.5 -89Q190 -110 146 -110Z" glyph-name="nine.OP" horiz-adv-x="446" /><glyph d="M247 190Q291 190 325 211.5Q359 233 382.5 267.5Q406 302 418.5 344Q431 386 431 428Q431 457 424 485Q417 513 402 535Q387 557 364 570.5Q341 584 308 584Q270 584 237.5 566.5Q205 549 181.5 517Q158 485 145 439.5Q132 394 132 338Q132 269 162 229.5Q192 190 247 190ZM199 -110Q139 -110 103.5 -81Q68 -52 57 16L83 28Q92 -33 121 -58.5Q150 -84 198 -84Q280 -84 339 -0.5Q398 83 426 260Q430 283 433 308Q436 333 437 361Q431 317 414 281Q397 245 371 219Q345 193 312 178.5Q279 164 241 164Q178 164 140 207.5Q102 251 102 332Q102 392 116 442.5Q130 493 156.5 530.5Q183 568 221.5 589Q260 610 310 610Q343 610 371.5 597.5Q400 585 421 559Q442 533 453.5 491Q465 449 465 391Q465 362 462 329Q459 296 454 259Q439 162 414.5 92.5Q390 23 357 -22Q324 -67 284 -88.5Q244 -110 199 -110Z" glyph-name="nine.OT" horiz-adv-x="535" /><glyph d="M0 0ZM96 -26Q120 -26 139 -14Q158 -2 170.5 17Q183 36 190 59.5Q197 83 197 106Q197 139 181 166.5Q165 194 129 194Q86 194 59 156Q32 118 32 55Q32 18 48.5 -4Q65 -26 96 -26ZM66 -206Q30 -206 9 -189Q-12 -172 -20 -133L1 -123Q7 -156 23 -170.5Q39 -185 66 -185Q114 -185 147 -138Q180 -91 195 9Q197 21 198 34.5Q199 48 200 62Q192 14 162 -16.5Q132 -47 89 -47Q52 -47 30 -21.5Q8 4 8 52Q8 86 16 116Q24 146 40 167.5Q56 189 78.5 201.5Q101 214 131 214Q172 214 198 184Q224 154 224 85Q224 51 218 8Q201 -103 161 -154.5Q121 -206 66 -206Z" glyph-name="nine.inf" horiz-adv-x="289" /><glyph d="M319 242H150L56 120H31L126 242H35L40 267H144L208 351H53L58 377H227L323 502H349L252 377H341L337 351H233L169 267H324Z" glyph-name="notequal" horiz-adv-x="367" unicode="&#8800;" /><glyph d="M38 0ZM38 0 115 478H140L122 347Q144 416 189 452Q234 488 289 488Q340 488 367 458.5Q394 429 394 368Q394 354 393 339.5Q392 325 389 308L340 0H311L359 302Q361 318 362.5 332.5Q364 347 364 359Q364 416 341 439Q318 462 277 462Q245 462 218.5 446.5Q192 431 170 403.5Q148 376 132.5 338Q117 300 108 255L67 0ZM365 657H387Q384 634 377.5 619.5Q371 605 362.5 596.5Q354 588 345 585Q336 582 328 582Q312 582 302 590.5Q292 599 283 609.5Q274 620 265.5 628.5Q257 637 244 637Q233 637 223.5 627Q214 617 210 586H188Q191 609 197.5 623.5Q204 638 212 646Q220 654 229 657Q238 660 246 660Q262 660 272 651.5Q282 643 291 633Q300 623 309 614.5Q318 606 331 606Q343 606 351.5 617Q360 628 365 657Z" glyph-name="ntilde" horiz-adv-x="450" unicode="&#241;" /><glyph d="M321 250 401 454H240L160 250ZM223 0 311 225H150L61 0H32L121 225H34L46 250H130L211 454H118L129 478H220L307 700H336L249 478H411L497 700H527L440 478H527L516 454H430L350 250H442L433 225H341L253 0Z" glyph-name="numbersign" horiz-adv-x="533" unicode="#" /><glyph d="M44 153Q44 172 45.5 193Q47 214 51 238Q71 366 121.5 427Q172 488 254 488Q319 488 352.5 448.5Q386 409 386 325Q386 306 384 284Q382 262 378 238Q358 111 307.5 50.5Q257 -10 177 -10Q44 -10 44 153ZM180 16Q249 16 290 70.5Q331 125 349 237Q353 262 355 284Q357 306 357 326Q357 462 250 462Q181 462 139.5 407Q98 352 80 237Q76 214 74.5 192Q73 170 73 153Q73 16 180 16Z" glyph-name="o" horiz-adv-x="429" unicode="o" /><glyph d="M44 0ZM44 153Q44 172 45.5 193Q47 214 51 238Q71 366 121.5 427Q172 488 254 488Q319 488 352.5 448.5Q386 409 386 325Q386 306 384 284Q382 262 378 238Q358 111 307.5 50.5Q257 -10 177 -10Q44 -10 44 153ZM180 16Q249 16 290 70.5Q331 125 349 237Q353 262 355 284Q357 306 357 326Q357 462 250 462Q181 462 139.5 407Q98 352 80 237Q76 214 74.5 192Q73 170 73 153Q73 16 180 16ZM327 671H366L365 667L273 564H249V567Z" glyph-name="oacute" horiz-adv-x="429" unicode="&#243;" /><glyph d="M44 0ZM44 153Q44 172 45.5 193Q47 214 51 238Q71 366 121.5 427Q172 488 254 488Q319 488 352.5 448.5Q386 409 386 325Q386 306 384 284Q382 262 378 238Q358 111 307.5 50.5Q257 -10 177 -10Q44 -10 44 153ZM180 16Q249 16 290 70.5Q331 125 349 237Q353 262 355 284Q357 306 357 326Q357 462 250 462Q181 462 139.5 407Q98 352 80 237Q76 214 74.5 192Q73 170 73 153Q73 16 180 16ZM348 670H369Q361 611 334 588Q307 565 264 565Q221 565 200.5 588.5Q180 612 189 670H211Q204 622 218 604.5Q232 587 265 587Q300 587 320 604.5Q340 622 348 670Z" glyph-name="obreve" horiz-adv-x="429" unicode="&#335;" /><glyph d="M44 0ZM44 153Q44 172 45.5 193Q47 214 51 238Q71 366 121.5 427Q172 488 254 488Q319 488 352.5 448.5Q386 409 386 325Q386 306 384 284Q382 262 378 238Q358 111 307.5 50.5Q257 -10 177 -10Q44 -10 44 153ZM180 16Q249 16 290 70.5Q331 125 349 237Q353 262 355 284Q357 306 357 326Q357 462 250 462Q181 462 139.5 407Q98 352 80 237Q76 214 74.5 192Q73 170 73 153Q73 16 180 16ZM268 671H292L361 566V564H333L278 650L195 564H164V566Z" glyph-name="ocircumflex" horiz-adv-x="429" unicode="&#244;" /><glyph d="M44 0ZM44 153Q44 172 45.5 193Q47 214 51 238Q71 366 121.5 427Q172 488 254 488Q319 488 352.5 448.5Q386 409 386 325Q386 306 384 284Q382 262 378 238Q358 111 307.5 50.5Q257 -10 177 -10Q44 -10 44 153ZM180 16Q249 16 290 70.5Q331 125 349 237Q353 262 355 284Q357 306 357 326Q357 462 250 462Q181 462 139.5 407Q98 352 80 237Q76 214 74.5 192Q73 170 73 153Q73 16 180 16ZM192 606Q192 640 223 640Q234 640 240.5 633.5Q247 627 247 615Q247 599 238.5 590Q230 581 216 581Q192 581 192 606ZM299 606Q299 640 330 640Q354 640 354 615Q354 581 323 581Q299 581 299 606Z" glyph-name="odieresis" horiz-adv-x="429" unicode="&#246;" /><glyph d="M177 -10Q44 -10 44 153Q44 173 45 193.5Q46 214 50 237Q89 488 254 488Q313 488 345 450.5Q377 413 379 336Q405 414 448.5 451Q492 488 550 488Q610 488 639.5 447Q669 406 669 331Q669 309 666.5 285Q664 261 659 232H378Q375 212 374 193.5Q373 175 373 159Q373 85 399.5 50Q426 15 480 15Q570 15 620 124L643 112Q616 54 576 22Q536 -10 476 -10Q419 -10 386 25Q353 60 348 138Q322 63 279 26.5Q236 -10 177 -10ZM547 463Q484 463 442.5 410.5Q401 358 383 256H635Q641 298 641 331Q641 463 547 463ZM349 237Q353 262 355 284Q357 306 357 326Q357 463 251 463Q181 463 139 407Q97 351 79 237Q75 214 73.5 192.5Q72 171 72 153Q72 84 98 50Q124 16 180 16Q249 16 290 71Q331 126 349 237Z" glyph-name="oe" horiz-adv-x="701" unicode="&#339;" /><glyph d="M256 -179Q242 -190 227.5 -194Q213 -198 197 -198Q169 -198 151 -181.5Q133 -165 133 -126Q133 -97 143 -72Q153 -47 169 -28.5Q185 -10 204.5 2Q224 14 243 16L244 0Q228 -2 212.5 -12.5Q197 -23 184.5 -39.5Q172 -56 164 -77Q156 -98 156 -122Q156 -153 170 -164Q184 -175 202 -175Q228 -175 247 -160Z" glyph-name="ogonek" horiz-adv-x="451" unicode="&#731;" /><glyph d="M44 0ZM44 153Q44 172 45.5 193Q47 214 51 238Q71 366 121.5 427Q172 488 254 488Q319 488 352.5 448.5Q386 409 386 325Q386 306 384 284Q382 262 378 238Q358 111 307.5 50.5Q257 -10 177 -10Q44 -10 44 153ZM180 16Q249 16 290 70.5Q331 125 349 237Q353 262 355 284Q357 306 357 326Q357 462 250 462Q181 462 139.5 407Q98 352 80 237Q76 214 74.5 192Q73 170 73 153Q73 16 180 16ZM256 564 193 667V671H231L279 567V564Z" glyph-name="ograve" horiz-adv-x="429" unicode="&#242;" /><glyph d="M44 0ZM44 153Q44 172 45.5 193Q47 214 51 238Q71 366 121.5 427Q172 488 254 488Q319 488 352.5 448.5Q386 409 386 325Q386 306 384 284Q382 262 378 238Q358 111 307.5 50.5Q257 -10 177 -10Q44 -10 44 153ZM180 16Q249 16 290 70.5Q331 125 349 237Q353 262 355 284Q357 306 357 326Q357 462 250 462Q181 462 139.5 407Q98 352 80 237Q76 214 74.5 192Q73 170 73 153Q73 16 180 16ZM379 671H418V667L323 564H302V567ZM284 671H323V667L228 564H207V567Z" glyph-name="ohungarumlaut" horiz-adv-x="429" unicode="&#337;" /><glyph d="M44 0ZM44 153Q44 172 45.5 193Q47 214 51 238Q71 366 121.5 427Q172 488 254 488Q319 488 352.5 448.5Q386 409 386 325Q386 306 384 284Q382 262 378 238Q358 111 307.5 50.5Q257 -10 177 -10Q44 -10 44 153ZM180 16Q249 16 290 70.5Q331 125 349 237Q353 262 355 284Q357 306 357 326Q357 462 250 462Q181 462 139.5 407Q98 352 80 237Q76 214 74.5 192Q73 170 73 153Q73 16 180 16ZM359 627 355 604H187L190 627Z" glyph-name="omacron" horiz-adv-x="429" unicode="&#333;" /><glyph d="M410 0H36L40 26H211L310 654L225 572L211 594L326 700H348L241 26H414Z" glyph-name="one" horiz-adv-x="535" unicode="1" /><glyph d="M88 0H58L161 654L76 572L62 594L177 700H199Z" glyph-name="one.LP" horiz-adv-x="221" /><glyph d="M86 0H58L145 553L62 474L47 494L161 600H181Z" glyph-name="one.OP" horiz-adv-x="207" /><glyph d="M397 0H53L57 26H214L297 553L214 474L199 494L313 600H333L242 26H401Z" glyph-name="one.OT" horiz-adv-x="535" /><glyph d="M0 0ZM24 -200H0L58 171L8 127L0 146L71 209H89Z" glyph-name="one.inf" horiz-adv-x="146" /><glyph d="M99 293H75L133 664L83 620L75 639L146 702H164ZM452 700 97 0H69L424 700ZM307 0 310 19 455 194Q495 243 511.5 275Q528 307 528 336Q528 392 468 392Q439 392 414.5 376Q390 360 369 318L352 327Q375 377 405.5 395.5Q436 414 472 414Q514 414 533.5 393.5Q553 373 553 339Q553 324 549.5 308Q546 292 537 273.5Q528 255 512 232.5Q496 210 472 181L339 21L520 22L517 0Z" glyph-name="onehalf" horiz-adv-x="579" unicode="&#189;" /><glyph d="M98 293H74L132 664L82 620L74 639L145 702H163ZM452 700 97 0H69L424 700ZM322 112 325 130 474 409H498L349 133H495L527 335H551L519 133H568L565 112H516L497 0H474L492 112Z" glyph-name="onequarter" horiz-adv-x="605" unicode="&#188;" /><glyph d="M76 293ZM100 293H76L134 664L84 620L76 639L147 702H165Z" glyph-name="onesuperior" horiz-adv-x="146" unicode="&#185;" /><glyph d="M239 256 234 230H35L39 256Z" glyph-name="onethirdemdash" horiz-adv-x="277" /><glyph d="M139 379Q182 379 214 417.5Q246 456 259 527L262 546H200Q171 546 149 537.5Q127 529 112.5 514.5Q98 500 90.5 481.5Q83 463 83 443Q83 411 98 395Q113 379 139 379ZM248 454Q231 408 201 383.5Q171 359 133 359Q101 359 80.5 379Q60 399 60 440Q60 466 69 488.5Q78 511 96 528Q114 545 140.5 555Q167 565 202 565H266Q270 585 270.5 597Q271 609 271 618Q271 658 254.5 673Q238 688 206 688Q172 688 150 674.5Q128 661 111 636L96 649Q118 681 146 695.5Q174 710 211 710Q252 710 273.5 690Q295 670 295 623Q295 612 294 601.5Q293 591 291 577L258 366H238Z" glyph-name="ordfeminine" horiz-adv-x="296" unicode="&#170;" /><glyph d="M160 381Q200 381 231 419.5Q262 458 274 539Q276 553 277 565.5Q278 578 278 589Q278 640 259.5 664.5Q241 689 210 689Q165 689 137 649Q109 609 97 534Q91 502 91 477Q91 381 160 381ZM74 536Q88 621 121.5 665.5Q155 710 209 710Q242 710 264.5 689Q287 668 289 622L303 702H323L271 367H250L261 452Q244 404 215 381.5Q186 359 152 359Q110 359 89 388.5Q68 418 68 475Q68 501 74 536Z" glyph-name="ordfeminine.school" horiz-adv-x="321" /><glyph d="M69 475Q69 488 70.5 502.5Q72 517 74 534Q88 625 123.5 667.5Q159 710 216 710Q311 710 311 594Q311 579 310 565Q309 551 307 534Q293 444 256.5 401.5Q220 359 163 359Q69 359 69 475ZM165 380Q259 380 283 534Q285 550 286 565Q287 580 287 594Q287 690 214 690Q122 690 98 534Q95 517 94 502Q93 487 93 474Q93 427 110 403.5Q127 380 165 380Z" glyph-name="ordmasculine" horiz-adv-x="310" unicode="&#186;" /><glyph d="M177 -10Q96 -10 65 50L21 0H-6L56 71Q44 104 44 153Q44 190 50 237Q90 488 254 488Q334 488 365 426L410 478H437L374 406Q386 371 386 325Q386 305 384 283.5Q382 262 378 237Q359 112 308 51Q257 -10 177 -10ZM79 97 345 404Q321 463 251 463Q181 463 139 407Q97 351 79 237Q75 213 73.5 191Q72 169 72 149Q72 134 74 121Q76 108 79 97ZM180 16Q249 16 290.5 71Q332 126 350 237Q354 262 356 285Q358 308 358 328Q358 343 356 356Q354 369 351 380L86 73Q108 16 180 16Z" glyph-name="oslash" horiz-adv-x="430" unicode="&#248;" /><glyph d="M44 0ZM44 153Q44 172 45.5 193Q47 214 51 238Q71 366 121.5 427Q172 488 254 488Q319 488 352.5 448.5Q386 409 386 325Q386 306 384 284Q382 262 378 238Q358 111 307.5 50.5Q257 -10 177 -10Q44 -10 44 153ZM180 16Q249 16 290 70.5Q331 125 349 237Q353 262 355 284Q357 306 357 326Q357 462 250 462Q181 462 139.5 407Q98 352 80 237Q76 214 74.5 192Q73 170 73 153Q73 16 180 16ZM350 657H372Q369 634 362.5 619.5Q356 605 347.5 596.5Q339 588 330 585Q321 582 313 582Q297 582 287 590.5Q277 599 268 609.5Q259 620 250.5 628.5Q242 637 229 637Q218 637 208.5 627Q199 617 195 586H173Q176 609 182.5 623.5Q189 638 197 646Q205 654 214 657Q223 660 231 660Q247 660 257 651.5Q267 643 276 633Q285 623 294 614.5Q303 606 316 606Q328 606 336.5 617Q345 628 350 657Z" glyph-name="otilde" horiz-adv-x="429" unicode="&#245;" /><glyph d="M278 462Q218 462 171 406Q124 350 105 234Q102 214 100 195Q98 176 98 159Q98 85 126.5 50Q155 15 200 15Q266 15 307.5 73.5Q349 132 366 239Q370 263 372 284Q374 305 374 325Q374 392 350.5 427Q327 462 278 462ZM9 -186 115 478H140L122 352Q147 422 191.5 455Q236 488 288 488Q345 488 374 446.5Q403 405 403 326Q403 306 401 285Q399 264 395 240Q378 121 327.5 55.5Q277 -10 201 -10Q155 -10 122.5 19Q90 48 87 111L38 -186Z" glyph-name="p" horiz-adv-x="446" unicode="p" /><glyph d="M87 443Q87 367 119.5 331Q152 295 212 296H248L308 674H276Q188 674 137.5 616Q87 558 87 443ZM394 674H335L275 296H333ZM425 700 314 0H287L329 269H271L229 0H202L244 269H209Q169 269 140.5 281.5Q112 294 93.5 317Q75 340 66.5 372Q58 404 58 443Q58 566 115.5 633Q173 700 283 700Z" glyph-name="paragraph" horiz-adv-x="473" unicode="&#182;" /><glyph d="M147 -71Q97 -57 71 3.5Q45 64 45 164Q45 198 48.5 238Q52 278 59 322Q87 493 142 594.5Q197 696 270 715L276 691Q212 671 163 579Q114 487 88 322Q73 232 73 162Q73 71 95.5 19Q118 -33 160 -47Z" glyph-name="parenleft" horiz-adv-x="259" unicode="(" /><glyph d="M0 0ZM57 -225 47 -244Q17 -234 0 -201.5Q-17 -169 -17 -109Q-17 -89 -15.5 -65Q-14 -41 -9 -15Q8 90 41 148Q74 206 119 217L124 197Q86 186 58 134Q30 82 14 -15Q9 -41 7.5 -64Q6 -87 6 -107Q6 -210 57 -225Z" glyph-name="parenleft.inf" horiz-adv-x="163" /><glyph d="M124 715Q174 701 200 640.5Q226 580 226 480Q226 446 222.5 406Q219 366 212 322Q184 151 129 49.5Q74 -52 1 -71L-5 -47Q59 -27 108 65Q157 157 183 322Q198 412 198 482Q198 573 175.5 625Q153 677 111 691Z" glyph-name="parenright" horiz-adv-x="259" unicode=")" /><glyph d="M0 0ZM26 197 36 217Q66 207 83 173.5Q100 140 100 80Q100 60 98.5 36Q97 12 92 -14Q75 -119 42 -176.5Q9 -234 -36 -245L-41 -225Q-3 -214 25 -162Q53 -110 69 -13Q74 13 75.5 36Q77 59 77 79Q77 182 26 197Z" glyph-name="parenright.inf" horiz-adv-x="163" /><glyph d="M229 707Q274 707 297.5 678.5Q321 650 321 584Q321 565 319 544Q317 523 313 497Q296 383 259 335Q222 287 165 287Q120 287 96.5 316Q73 345 73 411Q73 430 74.5 451Q76 472 80 497Q98 611 135 659Q172 707 229 707ZM582 700 227 0H199L554 700ZM227 686Q205 686 186.5 676.5Q168 667 152.5 644.5Q137 622 125 586Q113 550 105 498Q101 472 99.5 450Q98 428 98 411Q98 354 116.5 331Q135 308 167 308Q189 308 207.5 317.5Q226 327 241 349Q256 371 268 407.5Q280 444 289 497Q293 523 295 544Q297 565 297 584Q297 640 278.5 663Q260 686 227 686ZM620 414Q665 414 688.5 385.5Q712 357 712 291Q712 272 710 251Q708 230 704 204Q687 90 650 42Q613 -6 556 -6Q511 -6 487.5 23Q464 52 464 118Q464 137 465.5 158Q467 179 471 204Q489 318 526 366Q563 414 620 414ZM618 393Q596 393 577.5 383.5Q559 374 543.5 351.5Q528 329 516 293Q504 257 496 205Q492 179 490.5 157Q489 135 489 118Q489 61 507.5 38Q526 15 558 15Q580 15 598.5 24.5Q617 34 632 56Q647 78 659 114.5Q671 151 680 204Q684 230 686 251Q688 272 688 291Q688 347 669.5 370Q651 393 618 393Z" glyph-name="percent" horiz-adv-x="750" unicode="%" /><glyph d="M76 29Q76 -6 45 -6Q21 -6 21 19Q21 35 29 44.5Q37 54 52 54Q76 54 76 29Z" glyph-name="period" horiz-adv-x="152" unicode="." /><glyph d="M60 306ZM115 341Q115 306 84 306Q60 306 60 331Q60 347 68 356.5Q76 366 91 366Q115 366 115 341Z" glyph-name="periodcentered" horiz-adv-x="154" unicode="&#183;" /><glyph d="M227 707Q272 707 295.5 678.5Q319 650 319 584Q319 565 317 544Q315 523 311 497Q294 383 257 335Q220 287 163 287Q118 287 94.5 316Q71 345 71 411Q71 430 72.5 451Q74 472 78 497Q96 611 133 659Q170 707 227 707ZM582 700 227 0H199L554 700ZM225 686Q203 686 184.5 676.5Q166 667 150.5 644.5Q135 622 123 586Q111 550 103 498Q99 472 97.5 450Q96 428 96 411Q96 354 114.5 331Q133 308 165 308Q187 308 205.5 317.5Q224 327 239 349Q254 371 266 407.5Q278 444 287 497Q291 523 293 544Q295 565 295 584Q295 640 276.5 663Q258 686 225 686ZM927 414Q972 414 995.5 385.5Q1019 357 1019 291Q1019 272 1017 251Q1015 230 1011 204Q994 90 957 42Q920 -6 863 -6Q818 -6 794.5 23Q771 52 771 118Q771 137 772.5 158Q774 179 778 204Q796 318 833 366Q870 414 927 414ZM622 414Q667 414 690.5 385.5Q714 357 714 291Q714 272 712 251Q710 230 706 204Q689 90 652 42Q615 -6 558 -6Q513 -6 489.5 23Q466 52 466 118Q466 137 467.5 158Q469 179 473 204Q491 318 528 366Q565 414 622 414ZM925 393Q903 393 884.5 383.5Q866 374 850.5 351.5Q835 329 823 293Q811 257 803 205Q799 179 797.5 157Q796 135 796 118Q796 61 814.5 38Q833 15 865 15Q887 15 905.5 24.5Q924 34 939 56Q954 78 966 114.5Q978 151 987 204Q991 230 993 251Q995 272 995 291Q995 347 976.5 370Q958 393 925 393ZM620 393Q598 393 579.5 383.5Q561 374 545.5 351.5Q530 329 518 293Q506 257 498 205Q494 179 492.5 157Q491 135 491 118Q491 61 509.5 38Q528 15 560 15Q582 15 600.5 24.5Q619 34 634 56Q649 78 661 114.5Q673 151 682 204Q686 230 688 251Q690 272 690 291Q690 347 671.5 370Q653 393 620 393Z" glyph-name="perthousand" horiz-adv-x="1058" unicode="&#8240;" /><glyph d="M171 120H146L174 293H45L48 318H177L207 499H232L203 318H332L329 293H199Z" glyph-name="plus" horiz-adv-x="367" unicode="+" /><glyph d="M0 0ZM69 -135H48L65 -32H-10L-6 -13H68L85 96H106L88 -13H161L158 -32H85Z" glyph-name="plus.inf" horiz-adv-x="236" /><glyph d="M174 127H149L176 296H47L51 321H180L209 499H234L205 321H335L330 296H201ZM288 25 284 0H0L4 25Z" glyph-name="plusminus" horiz-adv-x="368" unicode="&#177;" /><glyph glyph-name="punctuationspace" horiz-adv-x="147" unicode="&#8200;" /><glyph d="M301 -186H273L321 118Q297 52 254.5 21Q212 -10 164 -10Q104 -10 74 32Q44 74 44 154Q44 174 45.5 195Q47 216 51 239Q69 358 118.5 423Q168 488 245 488Q292 488 325 458Q358 428 363 364L383 478H407ZM174 16Q231 16 276.5 71.5Q322 127 342 245Q348 285 348 318Q348 392 320.5 427Q293 462 247 462Q181 462 139 404Q97 346 80 238Q76 216 74.5 195.5Q73 175 73 158Q73 16 174 16Z" glyph-name="q" horiz-adv-x="446" unicode="q" /><glyph d="M146 170 166 301H180Q221 301 255 319.5Q289 338 313 370Q337 402 350.5 445.5Q364 489 364 539Q364 608 331.5 645.5Q299 683 240 683Q216 683 192.5 677Q169 671 147 656.5Q125 642 105.5 617Q86 592 70 553L45 563Q63 604 84.5 632Q106 660 131 677.5Q156 695 184 702.5Q212 710 241 710Q315 710 354 665.5Q393 621 393 541Q393 483 377.5 435.5Q362 388 335 354Q308 320 271 300.5Q234 281 191 279L172 170ZM163 29Q163 -6 132 -6Q108 -6 108 19Q108 35 116 44.5Q124 54 139 54Q163 54 163 29Z" glyph-name="question" horiz-adv-x="373" unicode="?" /><glyph d="M208 323 188 192H174Q133 192 99 173.5Q65 155 41 123Q17 91 3.5 47.5Q-10 4 -10 -46Q-10 -115 22.5 -152.5Q55 -190 114 -190Q138 -190 161.5 -184Q185 -178 207 -163.5Q229 -149 248.5 -124Q268 -99 284 -60L309 -70Q274 -152 222.5 -184.5Q171 -217 113 -217Q39 -217 0 -172.5Q-39 -128 -39 -48Q-39 10 -24 57.5Q-9 105 18 139Q45 173 82 192.5Q119 212 163 214L182 323ZM191 464Q191 499 222 499Q246 499 246 474Q246 458 238 448.5Q230 439 215 439Q191 439 191 464Z" glyph-name="questiondown" horiz-adv-x="370" unicode="&#191;" /><glyph d="M250 533 230 402H216Q175 402 141 383.5Q107 365 83 333Q59 301 45.5 257.5Q32 214 32 164Q32 95 64.5 57.5Q97 20 156 20Q180 20 203.5 26Q227 32 249 46.5Q271 61 290.5 86Q310 111 326 150L351 140Q316 58 264.5 25.5Q213 -7 155 -7Q81 -7 42 37.5Q3 82 3 162Q3 220 18 267.5Q33 315 60 349Q87 383 124 402.5Q161 422 205 424L224 533ZM233 674Q233 709 264 709Q288 709 288 684Q288 668 280 658.5Q272 649 257 649Q233 649 233 674Z" glyph-name="questiondown.cap" horiz-adv-x="384" /><glyph d="M111 548H87L109 710H138ZM185 548H161L186 710H215Z" glyph-name="quotedbl" horiz-adv-x="197" unicode="&quot;" /><glyph d="M7 -105 -1 -93Q22 -79 36 -55Q50 -31 55 -4Q39 -9 30 -2Q21 5 21 19Q21 33 29.5 43Q38 53 52 53Q76 53 76 25Q76 8 71.5 -11.5Q67 -31 58.5 -49Q50 -67 37 -82Q24 -97 7 -105ZM96 -105 88 -93Q111 -79 125 -55Q139 -31 144 -4Q128 -9 119 -2Q110 5 110 19Q110 33 118.5 43Q127 53 141 53Q165 53 165 25Q165 8 160.5 -11.5Q156 -31 147.5 -49Q139 -67 126 -82Q113 -97 96 -105Z" glyph-name="quotedblbase" horiz-adv-x="241" unicode="&#8222;" /><glyph d="M153 724 161 711Q138 697 124 673Q110 649 105 622Q121 627 130 620Q139 613 139 599Q139 585 130.5 575Q122 565 108 565Q83 565 83 593Q83 610 87.5 629.5Q92 649 101 667Q110 685 123 700Q136 715 153 724ZM243 724 251 711Q228 697 214 673Q200 649 195 622Q211 627 220 620Q229 613 229 599Q229 585 220.5 575Q212 565 198 565Q173 565 173 593Q173 610 177.5 629.5Q182 649 191 667Q200 685 213 700Q226 715 243 724Z" glyph-name="quotedblleft" horiz-adv-x="242" unicode="&#8220;" /><glyph d="M100 556 92 569Q115 583 129 607Q143 631 148 658Q132 653 123 660Q114 667 114 681Q114 695 122.5 705Q131 715 145 715Q170 715 170 687Q170 670 165.5 650.5Q161 631 152 613Q143 595 130 580Q117 565 100 556ZM189 556 181 569Q204 583 218 607Q232 631 237 658Q221 653 212 660Q203 667 203 681Q203 695 211.5 705Q220 715 234 715Q259 715 259 687Q259 670 254.5 650.5Q250 631 241 613Q232 595 219 580Q206 565 189 556Z" glyph-name="quotedblright" horiz-adv-x="242" unicode="&#8221;" /><glyph d="M150 724 158 711Q135 697 121 673Q107 649 102 622Q118 627 127 620Q136 613 136 599Q136 585 127.5 575Q119 565 105 565Q80 565 80 593Q80 610 84.5 629.5Q89 649 98 667Q107 685 120 700Q133 715 150 724Z" glyph-name="quoteleft" horiz-adv-x="153" unicode="&#8216;" /><glyph d="M95 556 87 569Q110 583 124 607Q138 631 143 658Q127 653 118 660Q109 667 109 681Q109 695 117.5 705Q126 715 140 715Q165 715 165 687Q165 670 160.5 650.5Q156 631 147 613Q138 595 125 580Q112 565 95 556Z" glyph-name="quoteright" horiz-adv-x="153" unicode="&#8217;" /><glyph d="M7 -105 -1 -93Q22 -79 36 -55Q50 -31 55 -4Q39 -9 30 -2Q21 5 21 19Q21 33 29.5 43Q38 53 52 53Q76 53 76 25Q76 8 71.5 -11.5Q67 -31 58.5 -49Q50 -67 37 -82Q24 -97 7 -105Z" glyph-name="quotesinglbase" horiz-adv-x="152" unicode="&#8218;" /><glyph d="M86 548 110 710H138L110 548Z" glyph-name="quotesingle" horiz-adv-x="121" unicode="'" /><glyph d="M38 0 115 478H140L121 343Q144 412 187 448.5Q230 485 278 483L273 452Q216 454 172 402.5Q128 351 107 252L67 0Z" glyph-name="r" horiz-adv-x="252" unicode="r" /><glyph d="M38 0ZM38 0 115 478H140L121 343Q144 412 187 448.5Q230 485 278 483L273 452Q216 454 172 402.5Q128 351 107 252L67 0ZM284 671H323L322 667L230 564H206V567Z" glyph-name="racute" horiz-adv-x="252" unicode="&#341;" /><glyph d="M38 0ZM38 0 115 478H140L121 343Q144 412 187 448.5Q230 485 278 483L273 452Q216 454 172 402.5Q128 351 107 252L67 0ZM205 564 136 670V671H165L220 586L302 671H333V670L229 564Z" glyph-name="rcaron" horiz-adv-x="252" unicode="&#345;" /><glyph d="M0 0ZM39 0 116 478H141L122 343Q145 412 188 448.5Q231 485 279 483L274 452Q217 454 173 402.5Q129 351 108 252L68 0ZM4 -221 -4 -209Q15 -197 29 -174.5Q43 -152 46 -126Q33 -131 23 -124.5Q13 -118 13 -103Q14 -89 22 -80.5Q30 -72 44 -72Q67 -72 67 -101Q67 -119 62 -137Q57 -155 49 -171Q41 -187 29.5 -200.5Q18 -214 4 -221Z" glyph-name="rcommaaccent" horiz-adv-x="253" unicode="&#343;" /><glyph d="M185 352Q131 352 102.5 387.5Q74 423 74 485Q74 508 78 531Q84 571 98.5 604Q113 637 134 660.5Q155 684 182 697Q209 710 241 710Q293 710 322 674Q351 638 351 577Q351 566 350 554Q349 542 347 530Q333 449 291 400.5Q249 352 185 352ZM186 365Q243 365 281.5 409.5Q320 454 332 531Q334 543 335 554.5Q336 566 336 576Q336 634 310.5 665.5Q285 697 240 697Q183 697 144 652.5Q105 608 93 531Q91 519 90 507.5Q89 496 89 486Q89 429 115 397Q141 365 186 365ZM177 528H213Q234 528 244.5 541.5Q255 555 255 578Q255 611 226 611H191ZM150 445 178 625H227Q249 625 259.5 612.5Q270 600 270 580Q270 556 260.5 539.5Q251 523 232 517L247 445H232L217 514H175L164 445Z" glyph-name="registered" horiz-adv-x="351" unicode="&#174;" /><glyph d="M129 560Q104 575 91 606Q78 637 78 673Q78 697 86 706.5Q94 716 108 716Q119 716 127 708Q135 700 135 686Q135 669 123.5 661.5Q112 654 98 660Q99 634 109 610.5Q119 587 139 574ZM219 560Q194 575 181 606Q168 637 168 673Q168 697 176 706.5Q184 716 198 716Q209 716 217 708Q225 700 225 686Q225 669 213.5 661.5Q202 654 188 660Q189 634 199 610.5Q209 587 229 574Z" glyph-name="reversequotedblleft" horiz-adv-x="244" /><glyph d="M129 560Q104 575 91 606Q78 637 78 673Q78 697 86 706.5Q94 716 108 716Q119 716 127 708Q135 700 135 686Q135 669 123.5 661.5Q112 654 98 660Q99 634 109 610.5Q119 587 139 574Z" glyph-name="reversequoteleft" horiz-adv-x="153" /><glyph d="M264 711Q289 711 307 693.5Q325 676 325 643Q325 605 303 577.5Q281 550 246 550Q221 550 203 567Q185 584 185 618Q185 655 207 683Q229 711 264 711ZM261 692Q238 692 222 670.5Q206 649 206 620Q206 595 218 582Q230 569 247 569Q271 569 288 590Q305 611 305 641Q305 666 292 679Q279 692 261 692Z" glyph-name="ring" horiz-adv-x="451" unicode="&#730;" /><glyph d="M11 113 38 124Q49 65 78.5 40Q108 15 153 15Q207 15 238.5 46.5Q270 78 270 126Q270 158 253 182Q236 206 193 225L164 238Q119 258 94 286.5Q69 315 69 360Q69 420 107 454.5Q145 489 210 489Q263 489 291.5 464.5Q320 440 332 387L306 375Q297 422 272 443Q247 464 208 464Q152 464 124.5 434Q97 404 97 363Q97 331 114 308.5Q131 286 174 266L202 253Q253 230 276 201Q299 172 299 130Q299 101 289.5 76Q280 51 261 31.5Q242 12 214 1Q186 -10 150 -10Q92 -10 58 21.5Q24 53 11 113Z" glyph-name="s" horiz-adv-x="358" unicode="s" /><glyph d="M11 0ZM11 113 38 124Q49 65 78.5 40Q108 15 153 15Q207 15 238.5 46.5Q270 78 270 126Q270 158 253 182Q236 206 193 225L164 238Q119 258 94 286.5Q69 315 69 360Q69 420 107 454.5Q145 489 210 489Q263 489 291.5 464.5Q320 440 332 387L306 375Q297 422 272 443Q247 464 208 464Q152 464 124.5 434Q97 404 97 363Q97 331 114 308.5Q131 286 174 266L202 253Q253 230 276 201Q299 172 299 130Q299 101 289.5 76Q280 51 261 31.5Q242 12 214 1Q186 -10 150 -10Q92 -10 58 21.5Q24 53 11 113ZM283 670H322L321 666L229 563H205V566Z" glyph-name="sacute" horiz-adv-x="358" unicode="&#347;" /><glyph d="M11 0ZM11 113 38 124Q49 65 78.5 40Q108 15 153 15Q207 15 238.5 46.5Q270 78 270 126Q270 158 253 182Q236 206 193 225L164 238Q119 258 94 286.5Q69 315 69 360Q69 420 107 454.5Q145 489 210 489Q263 489 291.5 464.5Q320 440 332 387L306 375Q297 422 272 443Q247 464 208 464Q152 464 124.5 434Q97 404 97 363Q97 331 114 308.5Q131 286 174 266L202 253Q253 230 276 201Q299 172 299 130Q299 101 289.5 76Q280 51 261 31.5Q242 12 214 1Q186 -10 150 -10Q92 -10 58 21.5Q24 53 11 113ZM210 563 141 669V670H170L225 585L307 670H338V669L234 563Z" glyph-name="scaron" horiz-adv-x="358" unicode="&#353;" /><glyph d="M116 -221Q85 -221 67.5 -208.5Q50 -196 40 -171L61 -160Q72 -200 116 -200Q148 -200 163 -182.5Q178 -165 178 -139Q178 -110 159 -102Q140 -94 119 -102L111 -95L138 -10Q35 -3 11 113L38 124Q49 65 78.5 40Q108 15 153 15Q207 15 238.5 46.5Q270 78 270 126Q270 158 253 182Q236 206 193 225L164 238Q119 258 94 286.5Q69 315 69 360Q69 420 107 454.5Q145 489 210 489Q263 489 291.5 464.5Q320 440 332 387L306 375Q297 422 272 443Q247 464 208 464Q152 464 124.5 434Q97 404 97 363Q97 331 114 308.5Q131 286 174 266L202 253Q253 230 276 201Q299 172 299 130Q299 102 290 77.5Q281 53 263 34Q245 15 219 3Q193 -9 159 -10L135 -83Q146 -81 158 -82.5Q170 -84 179.5 -91Q189 -98 195 -109.5Q201 -121 201 -138Q201 -179 177.5 -200Q154 -221 116 -221Z" glyph-name="scedilla" horiz-adv-x="358" unicode="&#351;" /><glyph d="M11 0ZM11 113 38 124Q49 65 78.5 40Q108 15 153 15Q207 15 238.5 46.5Q270 78 270 126Q270 158 253 182Q236 206 193 225L164 238Q119 258 94 286.5Q69 315 69 360Q69 420 107 454.5Q145 489 210 489Q263 489 291.5 464.5Q320 440 332 387L306 375Q297 422 272 443Q247 464 208 464Q152 464 124.5 434Q97 404 97 363Q97 331 114 308.5Q131 286 174 266L202 253Q253 230 276 201Q299 172 299 130Q299 101 289.5 76Q280 51 261 31.5Q242 12 214 1Q186 -10 150 -10Q92 -10 58 21.5Q24 53 11 113ZM225 670H249L318 565V563H290L235 649L152 563H121V565Z" glyph-name="scircumflex" horiz-adv-x="358" unicode="&#349;" /><glyph d="M11 0ZM11 113 38 124Q49 65 78.5 40Q108 15 153 15Q207 15 238.5 46.5Q270 78 270 126Q270 158 253 182Q236 206 193 225L164 238Q119 258 94 286.5Q69 315 69 360Q69 420 107 454.5Q145 489 210 489Q263 489 291.5 464.5Q320 440 332 387L306 375Q297 422 272 443Q247 464 208 464Q152 464 124.5 434Q97 404 97 363Q97 331 114 308.5Q131 286 174 266L202 253Q253 230 276 201Q299 172 299 130Q299 101 289.5 76Q280 51 261 31.5Q242 12 214 1Q186 -10 150 -10Q92 -10 58 21.5Q24 53 11 113ZM102 -221 94 -209Q113 -197 127 -174.5Q141 -152 144 -126Q131 -131 121 -124.5Q111 -118 111 -103Q112 -89 120 -80.5Q128 -72 142 -72Q165 -72 165 -101Q165 -119 160 -137Q155 -155 147 -171Q139 -187 127.5 -200.5Q116 -214 102 -221Z" glyph-name="scommaaccent" horiz-adv-x="358" unicode="&#537;" /><glyph d="M320 349Q320 376 304 400.5Q288 425 250 440L224 450Q205 457 183 454Q161 451 142.5 437.5Q124 424 112 400.5Q100 377 100 343Q100 316 116.5 292Q133 268 171 251L192 242Q214 233 237 236.5Q260 240 278.5 255Q297 270 308.5 294Q320 318 320 349ZM296 122Q296 94 288 68Q280 42 263.5 22Q247 2 221.5 -10Q196 -22 160 -22Q94 -22 60 11Q26 44 12 105L37 118Q49 56 80.5 29.5Q112 3 160 3Q216 3 241.5 35.5Q267 68 267 117Q267 150 251 172.5Q235 195 194 212L165 224Q123 241 98 269.5Q73 298 73 340Q74 400 104.5 434.5Q135 469 175 472Q157 483 140 508.5Q123 534 123 572Q123 600 131.5 625Q140 650 157 669Q174 688 199 699Q224 710 257 710Q308 710 337 685Q366 660 379 606L353 594Q344 643 318.5 664Q293 685 255 685Q210 685 180.5 654.5Q151 624 151 576Q151 544 167 519.5Q183 495 223 478L255 465Q283 454 300.5 440Q318 426 328 411.5Q338 397 341.5 381.5Q345 366 345 352Q345 302 318 264Q291 226 244 219Q272 200 284 175.5Q296 151 296 122Z" glyph-name="section" horiz-adv-x="390" unicode="&#167;" /><glyph d="M0 0ZM8 -106 0 -93Q23 -79 37 -55Q51 -31 56 -4Q40 -9 31 -2Q22 5 22 19Q22 33 30.5 43Q39 53 53 53Q78 53 78 25Q78 8 73.5 -11.5Q69 -31 60 -49Q51 -67 38 -82Q25 -97 8 -106ZM139 425Q139 390 108 390Q84 390 84 415Q84 431 92 440.5Q100 450 115 450Q139 450 139 425Z" glyph-name="semicolon" horiz-adv-x="153" unicode=";" /><glyph d="M146 0ZM146 0Q161 93 191 191Q221 289 262.5 379.5Q304 470 354 546.5Q404 623 460 674H162L167 700H501L497 674Q443 632 392.5 560.5Q342 489 300 399Q258 309 226 206.5Q194 104 177 0Z" glyph-name="seven" horiz-adv-x="535" unicode="7" /><glyph d="M79 0Q94 93 124 191Q154 289 195.5 379.5Q237 470 287 546.5Q337 623 393 674H95L100 700H434L430 674Q376 632 325.5 560.5Q275 489 233 399Q191 309 159 206.5Q127 104 110 0Z" glyph-name="seven.LP" horiz-adv-x="370" /><glyph d="M53 -100Q67 -12 94.5 84Q122 180 161 270.5Q200 361 249 440.5Q298 520 354 574H71L76 600H393L389 574Q338 533 290 462Q242 391 201.5 301Q161 211 130 108Q99 5 82 -100Z" glyph-name="seven.OP" horiz-adv-x="350" /><glyph d="M146 -100Q161 -7 191 91Q221 189 262.5 279.5Q304 370 354 446.5Q404 523 460 574H162L167 600H501L497 574Q443 532 392.5 460.5Q342 389 300 299Q258 209 226 106.5Q194 4 177 -100Z" glyph-name="seven.OT" horiz-adv-x="535" /><glyph d="M10 0ZM10 -200Q19 -146 36.5 -89.5Q54 -33 78 19Q102 71 130.5 114.5Q159 158 191 187L19 186L23 209H223L219 189Q187 163 158 121.5Q129 80 105 28Q81 -24 63.5 -82.5Q46 -141 37 -200Z" glyph-name="seven.inf" horiz-adv-x="230" /><glyph d="M80 0ZM489 584 464 574Q454 634 425 659Q396 684 348 684Q265 684 207 601Q149 518 120 340Q116 317 113.5 292.5Q111 268 109 240Q116 283 133 318.5Q150 354 176 380Q202 406 235 420.5Q268 435 306 435Q368 435 406 391.5Q444 348 444 267Q444 208 430 157.5Q416 107 389 69.5Q362 32 323.5 11Q285 -10 236 -10Q203 -10 174.5 2.5Q146 15 125 41.5Q104 68 92 109.5Q80 151 80 210Q80 239 83 271.5Q86 304 91 341Q105 438 130 507.5Q155 577 188.5 622Q222 667 262.5 688.5Q303 710 348 710Q408 710 443.5 681Q479 652 489 584ZM296 409Q254 409 220.5 387.5Q187 366 163.5 332.5Q140 299 127 257Q114 215 114 173Q114 144 121 115.5Q128 87 142.5 65Q157 43 180.5 29.5Q204 16 237 16Q277 16 309.5 34Q342 52 365 85Q388 118 400.5 163Q413 208 413 262Q413 331 383 370Q353 409 296 409Z" glyph-name="six" horiz-adv-x="535" unicode="6" /><glyph d="M469 584 444 574Q434 634 405 659Q376 684 328 684Q245 684 187 601Q129 518 100 340Q96 317 93.5 292.5Q91 268 89 240Q96 283 113 318.5Q130 354 156 380Q182 406 215 420.5Q248 435 286 435Q348 435 386 391.5Q424 348 424 267Q424 208 410 157.5Q396 107 369 69.5Q342 32 303.5 11Q265 -10 216 -10Q183 -10 154.5 2.5Q126 15 105 41.5Q84 68 72 109.5Q60 151 60 210Q60 239 63 271.5Q66 304 71 341Q85 438 110 507.5Q135 577 168.5 622Q202 667 242.5 688.5Q283 710 328 710Q388 710 423.5 681Q459 652 469 584ZM276 409Q234 409 200.5 387.5Q167 366 143.5 332.5Q120 299 107 257Q94 215 94 173Q94 144 101 115.5Q108 87 122.5 65Q137 43 160.5 29.5Q184 16 217 16Q257 16 289.5 34Q322 52 345 85Q368 118 380.5 163Q393 208 393 262Q393 331 363 370Q333 409 276 409Z" glyph-name="six.LP" horiz-adv-x="474" /><glyph d="M401 267Q401 207 387.5 156.5Q374 106 348.5 69Q323 32 286 11Q249 -10 203 -10Q171 -10 143.5 2.5Q116 15 96 41.5Q76 68 65 109.5Q54 151 54 210Q54 239 57 271.5Q60 304 65 341Q80 438 103.5 508Q127 578 158.5 623Q190 668 228.5 689Q267 710 311 710Q369 710 402.5 680Q436 650 446 584L421 573Q411 633 384 658.5Q357 684 310 684Q232 684 176.5 601Q121 518 93 341Q89 316 86 292.5Q83 269 81 240Q88 283 104.5 318.5Q121 354 145.5 380Q170 406 201.5 420.5Q233 435 269 435Q330 435 365.5 391.5Q401 348 401 267ZM371 263Q371 330 344 369.5Q317 409 261 409Q221 409 189 388Q157 367 134.5 333.5Q112 300 99.5 257.5Q87 215 87 173Q87 144 93.5 115.5Q100 87 114.5 65Q129 43 151 29.5Q173 16 204 16Q240 16 271 33.5Q302 51 324 83Q346 115 358.5 161Q371 207 371 263Z" glyph-name="six.OP" horiz-adv-x="446" /><glyph d="M499 584 474 574Q464 634 435 659Q406 684 358 684Q275 684 217 601Q159 518 130 340Q126 317 123.5 292.5Q121 268 119 240Q126 283 143 318.5Q160 354 186 380Q212 406 245 420.5Q278 435 316 435Q378 435 416 391.5Q454 348 454 267Q454 208 440 157.5Q426 107 399 69.5Q372 32 333.5 11Q295 -10 246 -10Q213 -10 184.5 2.5Q156 15 135 41.5Q114 68 102 109.5Q90 151 90 210Q90 239 93 271.5Q96 304 101 341Q115 438 140 507.5Q165 577 198.5 622Q232 667 272.5 688.5Q313 710 358 710Q418 710 453.5 681Q489 652 499 584ZM306 409Q264 409 230.5 387.5Q197 366 173.5 332.5Q150 299 137 257Q124 215 124 173Q124 144 131 115.5Q138 87 152.5 65Q167 43 190.5 29.5Q214 16 247 16Q287 16 319.5 34Q352 52 375 85Q398 118 410.5 163Q423 208 423 262Q423 331 393 370Q363 409 306 409Z" glyph-name="six.OT" horiz-adv-x="535" /><glyph d="M0 0ZM242 141 222 132Q217 164 201 178.5Q185 193 158 193Q111 193 78.5 146Q46 99 30 -1Q26 -25 24 -54Q32 -6 62.5 24Q93 54 136 54Q172 54 194 29Q216 4 216 -44Q216 -79 208 -108.5Q200 -138 184.5 -159.5Q169 -181 146.5 -193.5Q124 -206 95 -206Q53 -206 26.5 -175.5Q0 -145 0 -76Q0 -59 1 -40.5Q2 -22 6 -1Q23 111 63 162.5Q103 214 158 214Q195 214 216 197Q237 180 242 141ZM126 34Q103 34 85 22Q67 10 53.5 -9Q40 -28 33 -51.5Q26 -75 26 -98Q26 -115 30 -130.5Q34 -146 42.5 -158Q51 -170 64 -177.5Q77 -185 96 -185Q141 -185 166.5 -146.5Q192 -108 192 -48Q192 -9 175 12.5Q158 34 126 34Z" glyph-name="six.inf" horiz-adv-x="289" /><glyph glyph-name="sixperemspace" horiz-adv-x="124" unicode="&#8198;" /><glyph d="M399 701 3 1H-29L368 701Z" glyph-name="slash" horiz-adv-x="341" unicode="/" /><glyph glyph-name="space" horiz-adv-x="167" unicode=" " /><glyph d="M369 67Q337 23 304.5 11.5Q272 0 237 0H-6L-2 25H12Q41 25 57.5 53Q74 81 82 141L106 324H46L50 349H109L132 526Q144 617 185 663.5Q226 710 294 710Q352 710 387 678.5Q422 647 434 569L407 559Q397 628 368 656Q339 684 294 684Q183 684 162 525L139 349H308L303 324H136L112 144Q100 46 64 25H239Q268 25 295 35.5Q322 46 350 85Z" glyph-name="sterling" horiz-adv-x="427" unicode="&#163;" /><glyph d="M206 32 213 7Q198 -2 182 -6Q166 -10 154 -10Q113 -10 89.5 11.5Q66 33 66 86Q66 97 67 109.5Q68 122 70 133L122 454H53L56 478H126L149 626H178L154 478H275L271 454H151L100 136Q90 75 102.5 46Q115 17 154 17Q167 17 180 20.5Q193 24 206 32Z" glyph-name="t" horiz-adv-x="263" unicode="t" /><glyph d="M206 32 212 7Q197 -2 180 -6Q163 -10 148 -10Q111 -10 88 11.5Q65 33 65 87Q65 105 68 128L95 300H25L29 322H99L120 454H50L53 478H124L147 626H176L152 478H275L272 454H149L128 322H251L247 300H124L98 135Q87 68 102.5 42.5Q118 17 153 17Q167 17 180 20.5Q193 24 206 32Z" glyph-name="tbar" horiz-adv-x="260" unicode="&#359;" /><glyph d="M247 554H227L259 720H289ZM206 32 213 7Q198 -2 182 -6Q166 -10 154 -10Q113 -10 89.5 11.5Q66 33 66 86Q66 97 67 109.5Q68 122 70 133L122 454H53L56 478H126L149 626H178L154 478H275L271 454H151L100 136Q90 75 102.5 46Q115 17 154 17Q167 17 180 20.5Q193 24 206 32Z" glyph-name="tcaron" horiz-adv-x="263" unicode="&#357;" /><glyph d="M180 -138Q180 -179 156.5 -200Q133 -221 95 -221Q64 -221 46.5 -208.5Q29 -196 19 -171L40 -160Q51 -200 95 -200Q127 -200 142 -182.5Q157 -165 157 -139Q157 -110 138 -102Q119 -94 98 -102L90 -95L118 -5Q93 3 79.5 24.5Q66 46 66 86Q66 97 67 109.5Q68 122 70 133L122 454H53L56 478H126L149 626H178L154 478H275L271 454H151L100 136Q90 75 102.5 46Q115 17 154 17Q167 17 180 20.5Q193 24 206 32L213 7Q198 -2 182 -6Q166 -10 154 -10Q143 -10 138 -9L114 -83Q125 -81 137 -82.5Q149 -84 158.5 -91Q168 -98 174 -109.5Q180 -121 180 -138Z" glyph-name="tcedilla" horiz-adv-x="263" unicode="&#355;" /><glyph glyph-name="thinspace" horiz-adv-x="149" unicode="&#8201;" /><glyph d="M277 462Q217 462 170 406Q123 350 105 234Q102 214 100 195Q98 176 98 159Q98 85 126 50Q154 15 199 15Q265 15 307 74Q349 133 366 239Q371 264 372.5 284.5Q374 305 374 324Q374 462 277 462ZM86 111 39 -186H9L150 700H179L124 353Q148 424 192 456Q236 488 288 488Q345 488 374 446.5Q403 405 403 326Q403 306 401 285Q399 264 395 240Q377 120 327 55Q277 -10 201 -10Q155 -10 122.5 19Q90 48 86 111Z" glyph-name="thorn" horiz-adv-x="445" unicode="&#254;" /><glyph d="M64 0ZM64 127 90 138Q98 73 132 44Q166 15 222 15Q265 15 299.5 30.5Q334 46 357 74.5Q380 103 392.5 142Q405 181 405 229Q405 256 399 279Q393 302 379 319Q365 336 343 345.5Q321 355 289 355H225L229 382H292Q327 382 355 398Q383 414 402 440.5Q421 467 431 501Q441 535 441 572Q441 626 415 655Q389 684 335 684Q278 684 235.5 655.5Q193 627 164 562L141 574Q172 643 220 676.5Q268 710 340 710Q407 710 439.5 674Q472 638 472 575Q472 541 463.5 508.5Q455 476 439 448.5Q423 421 399.5 400.5Q376 380 346 369Q387 358 411 325.5Q435 293 435 231Q435 178 420 133.5Q405 89 377.5 57Q350 25 310 7.5Q270 -10 220 -10Q157 -10 116 22.5Q75 55 64 127Z" glyph-name="three" horiz-adv-x="535" unicode="3" /><glyph d="M11 127 37 138Q45 73 79 44Q113 15 169 15Q212 15 246.5 30.5Q281 46 304 74.5Q327 103 339.5 142Q352 181 352 229Q352 256 346 279Q340 302 326 319Q312 336 290 345.5Q268 355 236 355H172L176 382H239Q274 382 302 398Q330 414 349 440.5Q368 467 378 501Q388 535 388 572Q388 626 362 655Q336 684 282 684Q225 684 182.5 655.5Q140 627 111 562L88 574Q119 643 167 676.5Q215 710 287 710Q354 710 386.5 674Q419 638 419 575Q419 541 410.5 508.5Q402 476 386 448.5Q370 421 346.5 400.5Q323 380 293 369Q334 358 358 325.5Q382 293 382 231Q382 178 367 133.5Q352 89 324.5 57Q297 25 257 7.5Q217 -10 167 -10Q104 -10 63 22.5Q22 55 11 127Z" glyph-name="three.LP" horiz-adv-x="437" /><glyph d="M-3 27 23 38Q31 -27 62.5 -56Q94 -85 146 -85Q188 -85 221.5 -69.5Q255 -54 278 -25.5Q301 3 313 42Q325 81 325 129Q325 183 299 219Q273 255 212 255H152L156 282H215Q249 282 276.5 298Q304 314 322.5 340.5Q341 367 351 401Q361 435 361 472Q361 526 335 555Q309 584 255 584Q201 584 162.5 555.5Q124 527 95 462L72 474Q102 543 147 576.5Q192 610 260 610Q327 610 359 574Q391 538 391 475Q391 441 383 408.5Q375 376 359 348.5Q343 321 320 300Q297 279 267 269Q307 258 330.5 225.5Q354 193 354 131Q354 78 340 33.5Q326 -11 299 -43Q272 -75 233 -92.5Q194 -110 145 -110Q85 -110 46 -77.5Q7 -45 -3 27Z" glyph-name="three.OP" horiz-adv-x="418" /><glyph d="M54 27 80 38Q88 -27 122 -56Q156 -85 212 -85Q255 -85 289.5 -69.5Q324 -54 347 -25.5Q370 3 382.5 42Q395 81 395 129Q395 156 389 179Q383 202 369 219Q355 236 333 245.5Q311 255 279 255H215L219 282H282Q317 282 345 298Q373 314 392 340.5Q411 367 421 401Q431 435 431 472Q431 526 405 555Q379 584 325 584Q268 584 225.5 555.5Q183 527 154 462L131 474Q162 543 210 576.5Q258 610 330 610Q397 610 429.5 574Q462 538 462 475Q462 441 453.5 408.5Q445 376 429 348.5Q413 321 389.5 300.5Q366 280 336 269Q377 258 401 225.5Q425 193 425 131Q425 78 410 33.5Q395 -11 367.5 -43Q340 -75 300 -92.5Q260 -110 210 -110Q147 -110 106 -77.5Q65 -45 54 27Z" glyph-name="three.OT" horiz-adv-x="535" /><glyph d="M0 0ZM-29 -125 -7 -117Q-2 -152 16.5 -168.5Q35 -185 65 -185Q114 -185 140.5 -151.5Q167 -118 167 -66Q167 -35 152 -15.5Q137 4 101 4H66L69 24H104Q124 24 139.5 33Q155 42 166 57Q177 72 182.5 91Q188 110 188 131Q188 193 129 193Q97 193 73.5 177Q50 161 34 125L14 133Q49 214 133 214Q174 214 193.5 192.5Q213 171 213 134Q213 96 194 62Q175 28 140 15Q163 7 177 -11.5Q191 -30 191 -65Q191 -128 157.5 -167Q124 -206 64 -206Q26 -206 1.5 -187.5Q-23 -169 -29 -125Z" glyph-name="three.inf" horiz-adv-x="268" /><glyph glyph-name="threeperemspace" horiz-adv-x="247" unicode="&#8196;" /><glyph d="M475 256 471 230H35L39 256Z" glyph-name="threequarteremdash" horiz-adv-x="513" /><glyph d="M558 700 203 0H175L530 700ZM422 112 425 130 574 409H598L449 133H595L627 335H651L619 133H668L665 112H616L597 0H574L592 112ZM48 368 70 376Q75 341 93.5 324.5Q112 308 142 308Q191 308 217.5 341.5Q244 375 244 427Q244 458 229 477.5Q214 497 178 497H143L146 517H181Q201 517 216.5 526Q232 535 243 550Q254 565 259.5 584Q265 603 265 624Q265 686 206 686Q174 686 150.5 670Q127 654 111 618L91 626Q126 707 210 707Q251 707 270.5 685.5Q290 664 290 627Q290 589 271 555Q252 521 217 508Q240 500 254 481.5Q268 463 268 428Q268 365 234.5 326Q201 287 141 287Q103 287 78.5 305.5Q54 324 48 368Z" glyph-name="threequarters" horiz-adv-x="704" unicode="&#190;" /><glyph d="M47 287ZM47 368 69 376Q74 341 92.5 324.5Q111 308 141 308Q190 308 216.5 341.5Q243 375 243 427Q243 458 228 477.5Q213 497 177 497H142L145 517H180Q200 517 215.5 526Q231 535 242 550Q253 565 258.5 584Q264 603 264 624Q264 686 205 686Q173 686 149.5 670Q126 654 110 618L90 626Q125 707 209 707Q250 707 269.5 685.5Q289 664 289 627Q289 589 270 555Q251 521 216 508Q239 500 253 481.5Q267 463 267 428Q267 365 233.5 326Q200 287 140 287Q102 287 77.5 305.5Q53 324 47 368Z" glyph-name="threesuperior" horiz-adv-x="268" unicode="&#179;" /><glyph d="M335 656H357Q354 633 347.5 618.5Q341 604 332.5 595.5Q324 587 315 584Q306 581 298 581Q282 581 272 589.5Q262 598 253 608.5Q244 619 235.5 627.5Q227 636 214 636Q203 636 193.5 626Q184 616 180 585H158Q161 608 167.5 622.5Q174 637 182 645Q190 653 199 656Q208 659 216 659Q232 659 242 650.5Q252 642 261 632Q270 622 279 613.5Q288 605 301 605Q313 605 321.5 616Q330 627 335 656Z" glyph-name="tilde" horiz-adv-x="451" unicode="&#732;" /><glyph d="M89 700H265L262 682H185L141 406H121L165 682H86ZM245 406 292 700H315L359 432L486 700H511L464 406H446L488 666L363 406H347L304 664L264 406Z" glyph-name="trademark" horiz-adv-x="514" unicode="&#8482;" /><glyph d="M51 0ZM51 0 55 25 307 329Q343 372 367.5 407Q392 442 407 472.5Q422 503 428.5 529.5Q435 556 435 582Q435 631 408 657.5Q381 684 328 684Q277 684 232.5 655Q188 626 153 550L130 563Q149 605 172 633Q195 661 220.5 678.5Q246 696 274 703Q302 710 332 710Q401 710 433.5 675Q466 640 466 583Q466 558 460.5 531.5Q455 505 440 473.5Q425 442 398.5 403.5Q372 365 330 315L89 26H410L405 0Z" glyph-name="two" horiz-adv-x="535" unicode="2" /><glyph d="M-10 0 -6 25 246 329Q282 372 306.5 407Q331 442 346 472.5Q361 503 367.5 529.5Q374 556 374 582Q374 631 347 657.5Q320 684 267 684Q216 684 171.5 655Q127 626 92 550L69 563Q88 605 111 633Q134 661 159.5 678.5Q185 696 213 703Q241 710 271 710Q340 710 372.5 675Q405 640 405 583Q405 558 399.5 531.5Q394 505 379 473.5Q364 442 337.5 403.5Q311 365 269 315L28 26H349L344 0Z" glyph-name="two.LP" horiz-adv-x="415" /><glyph d="M-3 0 1 22 230 276Q295 348 325 399.5Q355 451 356 495Q356 584 261 584Q218 584 179.5 558Q141 532 110 464L87 474Q121 550 167 580Q213 610 268 610Q328 610 356.5 580.5Q385 551 385 500Q385 475 377.5 449.5Q370 424 353.5 395.5Q337 367 312 334.5Q287 302 252 263L37 26H330L326 0Z" glyph-name="two.OP" horiz-adv-x="400" /><glyph d="M57 0 61 22 295 276Q362 349 393.5 400Q425 451 426 495Q426 584 326 584Q281 584 241 558.5Q201 533 170 464L147 474Q181 550 228.5 580Q276 610 333 610Q395 610 425 580.5Q455 551 455 500Q455 475 447 449.5Q439 424 422 395.5Q405 367 379 334.5Q353 302 317 263L97 26H400L396 0Z" glyph-name="two.OT" horiz-adv-x="535" /><glyph d="M0 0ZM-37 -200 -34 -181 111 -6Q151 43 167.5 75Q184 107 184 136Q184 192 124 192Q95 192 70.5 176Q46 160 25 118L8 127Q31 177 61.5 195.5Q92 214 128 214Q170 214 189.5 193.5Q209 173 209 139Q209 124 205.5 108Q202 92 193 73.5Q184 55 168 32.5Q152 10 128 -19L-5 -179L176 -178L173 -200Z" glyph-name="two.inf" horiz-adv-x="255" /><glyph d="M39 293ZM39 293 42 312 187 487Q227 536 243.5 568Q260 600 260 629Q260 685 200 685Q171 685 146.5 669Q122 653 101 611L84 620Q107 670 137.5 688.5Q168 707 204 707Q246 707 265.5 686.5Q285 666 285 632Q285 617 281.5 601Q278 585 269 566.5Q260 548 244 525.5Q228 503 204 474L71 314L252 315L249 293Z" glyph-name="twosuperior" horiz-adv-x="255" unicode="&#178;" /><glyph d="M165 -10Q111 -10 83.5 22Q56 54 56 113Q56 127 57 141Q58 155 60 171L109 478H138L90 178Q87 161 86.5 147Q86 133 86 120Q86 65 110 40.5Q134 16 177 16Q207 16 233 31Q259 46 280 73Q301 100 316.5 138Q332 176 341 221L381 478H410L334 0H309L328 128Q305 62 262 26Q219 -10 165 -10Z" glyph-name="u" horiz-adv-x="449" unicode="u" /><glyph d="M56 0ZM165 -10Q111 -10 83.5 22Q56 54 56 113Q56 127 57 141Q58 155 60 171L109 478H138L90 178Q87 161 86.5 147Q86 133 86 120Q86 65 110 40.5Q134 16 177 16Q207 16 233 31Q259 46 280 73Q301 100 316.5 138Q332 176 341 221L381 478H410L334 0H309L328 128Q305 62 262 26Q219 -10 165 -10ZM336 671H375L374 667L282 564H258V567Z" glyph-name="uacute" horiz-adv-x="449" unicode="&#250;" /><glyph d="M56 0ZM165 -10Q111 -10 83.5 22Q56 54 56 113Q56 127 57 141Q58 155 60 171L109 478H138L90 178Q87 161 86.5 147Q86 133 86 120Q86 65 110 40.5Q134 16 177 16Q207 16 233 31Q259 46 280 73Q301 100 316.5 138Q332 176 341 221L381 478H410L334 0H309L328 128Q305 62 262 26Q219 -10 165 -10ZM357 670H378Q370 611 343 588Q316 565 273 565Q230 565 209.5 588.5Q189 612 198 670H220Q213 622 227 604.5Q241 587 274 587Q309 587 329 604.5Q349 622 357 670Z" glyph-name="ubreve" horiz-adv-x="449" unicode="&#365;" /><glyph d="M56 0ZM165 -10Q111 -10 83.5 22Q56 54 56 113Q56 127 57 141Q58 155 60 171L109 478H138L90 178Q87 161 86.5 147Q86 133 86 120Q86 65 110 40.5Q134 16 177 16Q207 16 233 31Q259 46 280 73Q301 100 316.5 138Q332 176 341 221L381 478H410L334 0H309L328 128Q305 62 262 26Q219 -10 165 -10ZM277 671H301L370 566V564H342L287 650L204 564H173V566Z" glyph-name="ucircumflex" horiz-adv-x="449" unicode="&#251;" /><glyph d="M56 0ZM165 -10Q111 -10 83.5 22Q56 54 56 113Q56 127 57 141Q58 155 60 171L109 478H138L90 178Q87 161 86.5 147Q86 133 86 120Q86 65 110 40.5Q134 16 177 16Q207 16 233 31Q259 46 280 73Q301 100 316.5 138Q332 176 341 221L381 478H410L334 0H309L328 128Q305 62 262 26Q219 -10 165 -10ZM201 606Q201 640 232 640Q243 640 249.5 633.5Q256 627 256 615Q256 599 247.5 590Q239 581 225 581Q201 581 201 606ZM308 606Q308 640 339 640Q363 640 363 615Q363 581 332 581Q308 581 308 606Z" glyph-name="udieresis" horiz-adv-x="449" unicode="&#252;" /><glyph d="M56 0ZM165 -10Q111 -10 83.5 22Q56 54 56 113Q56 127 57 141Q58 155 60 171L109 478H138L90 178Q87 161 86.5 147Q86 133 86 120Q86 65 110 40.5Q134 16 177 16Q207 16 233 31Q259 46 280 73Q301 100 316.5 138Q332 176 341 221L381 478H410L334 0H309L328 128Q305 62 262 26Q219 -10 165 -10ZM265 564 202 667V671H240L288 567V564Z" glyph-name="ugrave" horiz-adv-x="449" unicode="&#249;" /><glyph d="M56 0ZM165 -10Q111 -10 83.5 22Q56 54 56 113Q56 127 57 141Q58 155 60 171L109 478H138L90 178Q87 161 86.5 147Q86 133 86 120Q86 65 110 40.5Q134 16 177 16Q207 16 233 31Q259 46 280 73Q301 100 316.5 138Q332 176 341 221L381 478H410L334 0H309L328 128Q305 62 262 26Q219 -10 165 -10ZM390 671H429V667L334 564H313V567ZM295 671H334V667L239 564H218V567Z" glyph-name="uhungarumlaut" horiz-adv-x="449" unicode="&#369;" /><glyph d="M56 0ZM165 -10Q111 -10 83.5 22Q56 54 56 113Q56 127 57 141Q58 155 60 171L109 478H138L90 178Q87 161 86.5 147Q86 133 86 120Q86 65 110 40.5Q134 16 177 16Q207 16 233 31Q259 46 280 73Q301 100 316.5 138Q332 176 341 221L381 478H410L334 0H309L328 128Q305 62 262 26Q219 -10 165 -10ZM368 627 364 604H196L199 627Z" glyph-name="umacron" horiz-adv-x="449" unicode="&#363;" /><glyph d="M312 0 308 -25H-49L-44 0Z" glyph-name="underscore" horiz-adv-x="356" unicode="_" /><glyph glyph-name="uni00A0" horiz-adv-x="131" unicode="&#160;" /><glyph d="M255 256 251 230H35L39 256Z" glyph-name="uni00AD" horiz-adv-x="294" unicode="&#173;" /><glyph d="M77 0ZM81 700H474L469 673H287L181 0H151L258 673H77ZM116 -221 108 -209Q127 -197 141 -174.5Q155 -152 158 -126Q145 -131 135 -124.5Q125 -118 125 -103Q126 -89 134 -80.5Q142 -72 156 -72Q179 -72 179 -101Q179 -119 174 -137Q169 -155 161 -171Q153 -187 141.5 -200.5Q130 -214 116 -221Z" glyph-name="uni021A" horiz-adv-x="418" unicode="&#538;" /><glyph d="M53 0ZM86 -221 78 -209Q97 -197 111 -174.5Q125 -152 128 -126Q115 -131 105 -124.5Q95 -118 95 -103Q96 -89 104 -80.5Q112 -72 126 -72Q149 -72 149 -101Q149 -119 144 -137Q139 -155 131 -171Q123 -187 111.5 -200.5Q100 -214 86 -221ZM206 32 213 7Q198 -2 182 -6Q166 -10 154 -10Q113 -10 89.5 11.5Q66 33 66 86Q66 97 67 109.5Q68 122 70 133L122 454H53L56 478H126L149 626H178L154 478H275L271 454H151L100 136Q90 75 102.5 46Q115 17 154 17Q167 17 180 20.5Q193 24 206 32Z" glyph-name="uni021B" horiz-adv-x="265" unicode="&#539;" /><glyph d="M761 256 757 230H35L39 256Z" glyph-name="uni2015" horiz-adv-x="800" unicode="&#8213;" /><glyph d="M73 287ZM229 707Q274 707 297.5 678.5Q321 650 321 584Q321 565 319 544Q317 523 313 497Q296 383 259 335Q222 287 165 287Q120 287 96.5 316Q73 345 73 411Q73 430 74.5 451Q76 472 80 497Q98 611 135 659Q172 707 229 707ZM227 686Q205 686 186.5 676.5Q168 667 152.5 644.5Q137 622 125 586Q113 550 105 498Q101 472 99.5 450Q98 428 98 411Q98 354 116.5 331Q135 308 167 308Q189 308 207.5 317.5Q226 327 241 349Q256 371 268 407.5Q280 444 289 497Q293 523 295 544Q297 565 297 584Q297 640 278.5 663Q260 686 227 686Z" glyph-name="uni2070" horiz-adv-x="307" unicode="&#8304;" /><glyph d="M55 293ZM55 405 58 423 207 702H231L82 426H228L260 628H284L252 426H301L298 405H249L230 293H207L225 405Z" glyph-name="uni2074" horiz-adv-x="288" unicode="&#8308;" /><glyph d="M52 287ZM151 680 112 512Q130 529 151 538Q172 547 199 547Q237 547 258.5 524.5Q280 502 280 454Q280 421 271.5 390.5Q263 360 246 337Q229 314 204.5 300.5Q180 287 148 287Q107 287 82.5 305.5Q58 324 52 366L74 377Q79 341 98 324.5Q117 308 149 308Q175 308 195 320Q215 332 228.5 351.5Q242 371 249 397Q256 423 256 451Q256 526 189 526Q160 526 139 514.5Q118 503 100 484L85 491L134 702H306L303 680Z" glyph-name="uni2075" horiz-adv-x="272" unicode="&#8309;" /><glyph d="M76 287ZM318 634 298 625Q293 657 277 671.5Q261 686 234 686Q187 686 154.5 639Q122 592 106 492Q102 468 100 439Q108 487 138.5 517Q169 547 212 547Q248 547 270 522Q292 497 292 449Q292 414 284 384.5Q276 355 260.5 333.5Q245 312 222.5 299.5Q200 287 171 287Q129 287 102.5 317.5Q76 348 76 417Q76 434 77 452.5Q78 471 82 492Q99 604 139 655.5Q179 707 234 707Q271 707 292 690Q313 673 318 634ZM202 527Q179 527 161 515Q143 503 129.5 484Q116 465 109 441.5Q102 418 102 395Q102 378 106 362.5Q110 347 118.5 335Q127 323 140 315.5Q153 308 172 308Q217 308 242.5 346.5Q268 385 268 445Q268 484 251 505.5Q234 527 202 527Z" glyph-name="uni2076" horiz-adv-x="289" unicode="&#8310;" /><glyph d="M86 293ZM86 293Q95 347 112.5 403.5Q130 460 154 512Q178 564 206.5 607.5Q235 651 267 680L95 679L99 702H299L295 682Q263 656 234 614.5Q205 573 181 521Q157 469 139.5 410.5Q122 352 113 293Z" glyph-name="uni2077" horiz-adv-x="230" unicode="&#8311;" /><glyph d="M66 287ZM281 427Q281 364 246.5 325.5Q212 287 156 287Q113 287 89.5 311.5Q66 336 66 379Q66 435 91.5 469.5Q117 504 155 514Q134 522 121.5 540.5Q109 559 109 588Q109 612 116.5 634Q124 656 138 672Q152 688 172.5 697.5Q193 707 220 707Q258 707 279 686.5Q300 666 300 629Q300 584 279.5 554Q259 524 227 512Q251 504 266 482Q281 460 281 427ZM277 624Q277 653 262 669.5Q247 686 217 686Q175 686 153.5 657Q132 628 132 588Q132 558 147.5 540.5Q163 523 192 523Q227 523 252 550.5Q277 578 277 624ZM257 425Q257 459 239 480Q221 501 188 501Q144 501 117 467.5Q90 434 90 383Q90 349 107 328.5Q124 308 159 308Q201 308 229 340Q257 372 257 425Z" glyph-name="uni2078" horiz-adv-x="286" unicode="&#8312;" /><glyph d="M56 287ZM172 467Q196 467 215 479Q234 491 246.5 510Q259 529 266 552.5Q273 576 273 599Q273 632 257 659.5Q241 687 205 687Q162 687 135 649Q108 611 108 548Q108 511 124.5 489Q141 467 172 467ZM142 287Q106 287 85 304Q64 321 56 360L77 370Q83 337 99 322.5Q115 308 142 308Q190 308 223 355Q256 402 271 502Q273 514 274 527.5Q275 541 276 555Q268 507 238 476.5Q208 446 165 446Q128 446 106 471.5Q84 497 84 545Q84 579 92 609Q100 639 116 660.5Q132 682 154.5 694.5Q177 707 207 707Q248 707 274 677Q300 647 300 578Q300 544 294 501Q277 390 237 338.5Q197 287 142 287Z" glyph-name="uni2079" horiz-adv-x="289" unicode="&#8313;" /><glyph d="M67 363ZM146 363H125L142 466H67L71 485H145L162 594H183L165 485H238L235 466H162Z" glyph-name="uni207A" horiz-adv-x="236" unicode="&#8314;" /><glyph d="M67 465ZM239 486 235 465H67L71 486Z" glyph-name="uni207B" horiz-adv-x="236" unicode="&#8315;" /><glyph d="M63 434ZM245 522 241 501H73L77 522ZM233 455 230 434H63L66 455Z" glyph-name="uni207C" horiz-adv-x="236" unicode="&#8316;" /><glyph d="M60 254ZM134 273 124 254Q94 264 77 296.5Q60 329 60 389Q60 409 61.5 433Q63 457 68 483Q85 588 118 646Q151 704 196 715L201 695Q163 684 135 632Q107 580 91 483Q86 457 84.5 434Q83 411 83 391Q83 288 134 273Z" glyph-name="uni207D" horiz-adv-x="163" unicode="&#8317;" /><glyph d="M36 253ZM103 695 113 715Q143 705 160 671.5Q177 638 177 578Q177 558 175.5 534Q174 510 169 484Q152 379 119 321.5Q86 264 41 253L36 273Q74 284 102 336Q130 388 146 485Q151 511 152.5 534Q154 557 154 577Q154 680 103 695Z" glyph-name="uni207E" horiz-adv-x="163" unicode="&#8318;" /><glyph d="M182 414Q227 414 250.5 385.5Q274 357 274 291Q274 272 272 251Q270 230 266 204Q249 90 212 42Q175 -6 118 -6Q73 -6 49.5 23Q26 52 26 118Q26 137 27.5 158Q29 179 33 204Q51 318 88 366Q125 414 182 414ZM180 393Q158 393 139.5 383.5Q121 374 105.5 351.5Q90 329 78 293Q66 257 58 205Q54 179 52.5 157Q51 135 51 118Q51 61 69.5 38Q88 15 120 15Q142 15 160.5 24.5Q179 34 194 56Q209 78 221 114.5Q233 151 242 204Q246 230 248 251Q250 272 250 291Q250 347 231.5 370Q213 393 180 393Z" glyph-name="uni2080" horiz-adv-x="307" unicode="&#8320;" /><glyph d="M53 0H29L87 371L37 327L29 346L100 409H118Z" glyph-name="uni2081" horiz-adv-x="146" unicode="&#8321;" /><glyph d="M-8 0 -5 19 140 194Q180 243 196.5 275Q213 307 213 336Q213 392 153 392Q124 392 99.5 376Q75 360 54 318L37 327Q60 377 90.5 395.5Q121 414 157 414Q199 414 218.5 393.5Q238 373 238 339Q238 324 234.5 308Q231 292 222 273.5Q213 255 197 232.5Q181 210 157 181L24 21L205 22L202 0Z" glyph-name="uni2082" horiz-adv-x="255" unicode="&#8322;" /><glyph d="M0 75 22 83Q27 48 45.5 31.5Q64 15 94 15Q143 15 169.5 48.5Q196 82 196 134Q196 165 181 184.5Q166 204 130 204H95L98 224H133Q153 224 168.5 233Q184 242 195 257Q206 272 211.5 291Q217 310 217 331Q217 393 158 393Q126 393 102.5 377Q79 361 63 325L43 333Q78 414 162 414Q203 414 222.5 392.5Q242 371 242 334Q242 296 223 262Q204 228 169 215Q192 207 206 188.5Q220 170 220 135Q220 72 186.5 33Q153 -6 93 -6Q55 -6 30.5 12.5Q6 31 0 75Z" glyph-name="uni2083" horiz-adv-x="268" unicode="&#8323;" /><glyph d="M8 112 11 130 160 409H184L35 133H181L213 335H237L205 133H254L251 112H202L183 0H160L178 112Z" glyph-name="uni2084" horiz-adv-x="288" unicode="&#8324;" /><glyph d="M104 387 65 219Q83 236 104 245Q125 254 152 254Q190 254 211.5 231.5Q233 209 233 161Q233 128 224.5 97.5Q216 67 199 44Q182 21 157.5 7.5Q133 -6 101 -6Q60 -6 35.5 12.5Q11 31 5 73L27 84Q32 48 51 31.5Q70 15 102 15Q128 15 148 27Q168 39 181.5 58.5Q195 78 202 104Q209 130 209 158Q209 233 142 233Q113 233 92 221.5Q71 210 53 191L38 198L87 409H259L256 387Z" glyph-name="uni2085" horiz-adv-x="272" unicode="&#8325;" /><glyph d="M271 341 251 332Q246 364 230 378.5Q214 393 187 393Q140 393 107.5 346Q75 299 59 199Q55 175 53 146Q61 194 91.5 224Q122 254 165 254Q201 254 223 229Q245 204 245 156Q245 121 237 91.5Q229 62 213.5 40.5Q198 19 175.5 6.5Q153 -6 124 -6Q82 -6 55.5 24.5Q29 55 29 124Q29 141 30 159.5Q31 178 35 199Q52 311 92 362.5Q132 414 187 414Q224 414 245 397Q266 380 271 341ZM155 234Q132 234 114 222Q96 210 82.5 191Q69 172 62 148.5Q55 125 55 102Q55 85 59 69.5Q63 54 71.5 42Q80 30 93 22.5Q106 15 125 15Q170 15 195.5 53.5Q221 92 221 152Q221 191 204 212.5Q187 234 155 234Z" glyph-name="uni2086" horiz-adv-x="289" unicode="&#8326;" /><glyph d="M39 0Q48 54 65.5 110.5Q83 167 107 219Q131 271 159.5 314.5Q188 358 220 387L48 386L52 409H252L248 389Q216 363 187 321.5Q158 280 134 228Q110 176 92.5 117.5Q75 59 66 0Z" glyph-name="uni2087" horiz-adv-x="230" unicode="&#8327;" /><glyph d="M234 134Q234 71 199.5 32.5Q165 -6 109 -6Q66 -6 42.5 18.5Q19 43 19 86Q19 142 44.5 176.5Q70 211 108 221Q87 229 74.5 247.5Q62 266 62 295Q62 319 69.5 341Q77 363 91 379Q105 395 125.5 404.5Q146 414 173 414Q211 414 232 393.5Q253 373 253 336Q253 291 232.5 261Q212 231 180 219Q204 211 219 189Q234 167 234 134ZM230 331Q230 360 215 376.5Q200 393 170 393Q128 393 106.5 364Q85 335 85 295Q85 265 100.5 247.5Q116 230 145 230Q180 230 205 257.5Q230 285 230 331ZM210 132Q210 166 192 187Q174 208 141 208Q97 208 70 174.5Q43 141 43 90Q43 56 60 35.5Q77 15 112 15Q154 15 182 47Q210 79 210 132Z" glyph-name="uni2088" horiz-adv-x="286" unicode="&#8328;" /><glyph d="M125 174Q149 174 168 186Q187 198 199.5 217Q212 236 219 259.5Q226 283 226 306Q226 339 210 366.5Q194 394 158 394Q115 394 88 356Q61 318 61 255Q61 218 77.5 196Q94 174 125 174ZM95 -6Q59 -6 38 11Q17 28 9 67L30 77Q36 44 52 29.5Q68 15 95 15Q143 15 176 62Q209 109 224 209Q226 221 227 234.5Q228 248 229 262Q221 214 191 183.5Q161 153 118 153Q81 153 59 178.5Q37 204 37 252Q37 286 45 316Q53 346 69 367.5Q85 389 107.5 401.5Q130 414 160 414Q201 414 227 384Q253 354 253 285Q253 251 247 208Q230 97 190 45.5Q150 -6 95 -6Z" glyph-name="uni2089" horiz-adv-x="289" unicode="&#8329;" /><glyph d="M100 65H79L96 168H21L25 187H99L116 296H137L119 187H192L189 168H116Z" glyph-name="uni208A" horiz-adv-x="236" unicode="&#8330;" /><glyph d="M193 188 189 167H21L25 188Z" glyph-name="uni208B" horiz-adv-x="236" unicode="&#8331;" /><glyph d="M199 224 195 203H27L31 224ZM187 157 184 136H17L20 157Z" glyph-name="uni208C" horiz-adv-x="236" unicode="&#8332;" /><glyph d="M88 -25 78 -44Q48 -34 31 -1.5Q14 31 14 91Q14 111 15.5 135Q17 159 22 185Q39 290 72 348Q105 406 150 417L155 397Q117 386 89 334Q61 282 45 185Q40 159 38.5 136Q37 113 37 93Q37 -10 88 -25Z" glyph-name="uni208D" horiz-adv-x="163" unicode="&#8333;" /><glyph d="M57 397 67 417Q97 407 114 373.5Q131 340 131 280Q131 260 129.5 236Q128 212 123 186Q106 81 73 23.5Q40 -34 -5 -45L-10 -25Q28 -14 56 38Q84 90 100 187Q105 213 106.5 236Q108 259 108 279Q108 382 57 397Z" glyph-name="uni208E" horiz-adv-x="163" unicode="&#8334;" /><glyph d="M98 293H74L132 664L82 620L74 639L145 702H163ZM452 700 97 0H69L424 700ZM318 75 340 83Q345 48 363.5 31.5Q382 15 412 15Q461 15 487.5 48.5Q514 82 514 134Q514 165 499 184.5Q484 204 448 204H413L416 224H451Q471 224 486.5 233Q502 242 513 257Q524 272 529.5 291Q535 310 535 331Q535 393 476 393Q444 393 420.5 377Q397 361 381 325L361 333Q396 414 480 414Q521 414 540.5 392.5Q560 371 560 334Q560 296 541 262Q522 228 487 215Q510 207 524 188.5Q538 170 538 135Q538 72 504.5 33Q471 -6 411 -6Q373 -6 348.5 12.5Q324 31 318 75Z" glyph-name="uni2153" horiz-adv-x="590" unicode="&#8531;" /><glyph d="M36 293 39 312 184 487Q224 536 240.5 568Q257 600 257 629Q257 685 197 685Q168 685 143.5 669Q119 653 98 611L81 620Q104 670 134.5 688.5Q165 707 201 707Q243 707 262.5 686.5Q282 666 282 632Q282 617 278.5 601Q275 585 266 566.5Q257 548 241 525.5Q225 503 201 474L68 314L249 315L246 293ZM553 700 198 0H170L525 700ZM418 75 440 83Q445 48 463.5 31.5Q482 15 512 15Q561 15 587.5 48.5Q614 82 614 134Q614 165 599 184.5Q584 204 548 204H513L516 224H551Q571 224 586.5 233Q602 242 613 257Q624 272 629.5 291Q635 310 635 331Q635 393 576 393Q544 393 520.5 377Q497 361 481 325L461 333Q496 414 580 414Q621 414 640.5 392.5Q660 371 660 334Q660 296 641 262Q622 228 587 215Q610 207 624 188.5Q638 170 638 135Q638 72 604.5 33Q571 -6 511 -6Q473 -6 448.5 12.5Q424 31 418 75Z" glyph-name="uni2154" horiz-adv-x="691" unicode="&#8532;" /><glyph d="M98 293H74L132 664L82 620L74 639L145 702H163ZM452 700 97 0H69L424 700ZM431 387 392 219Q410 236 431 245Q452 254 479 254Q517 254 538.5 231.5Q560 209 560 161Q560 128 551.5 97.5Q543 67 526 44Q509 21 484.5 7.5Q460 -6 428 -6Q387 -6 362.5 12.5Q338 31 332 73L354 84Q359 48 378 31.5Q397 15 429 15Q455 15 475 27Q495 39 508.5 58.5Q522 78 529 104Q536 130 536 158Q536 233 469 233Q440 233 419 221.5Q398 210 380 191L365 198L414 409H586L583 387Z" glyph-name="uni2155" horiz-adv-x="603" unicode="&#8533;" /><glyph d="M37 293 40 312 185 487Q225 536 241.5 568Q258 600 258 629Q258 685 198 685Q169 685 144.5 669Q120 653 99 611L82 620Q105 670 135.5 688.5Q166 707 202 707Q244 707 263.5 686.5Q283 666 283 632Q283 617 279.5 601Q276 585 267 566.5Q258 548 242 525.5Q226 503 202 474L69 314L250 315L247 293ZM558 700 203 0H175L530 700ZM535 387 496 219Q514 236 535 245Q556 254 583 254Q621 254 642.5 231.5Q664 209 664 161Q664 128 655.5 97.5Q647 67 630 44Q613 21 588.5 7.5Q564 -6 532 -6Q491 -6 466.5 12.5Q442 31 436 73L458 84Q463 48 482 31.5Q501 15 533 15Q559 15 579 27Q599 39 612.5 58.5Q626 78 633 104Q640 130 640 158Q640 233 573 233Q544 233 523 221.5Q502 210 484 191L469 198L518 409H690L687 387Z" glyph-name="uni2156" horiz-adv-x="707" unicode="&#8534;" /><glyph d="M557 700 202 0H174L529 700ZM47 368 69 376Q74 341 92.5 324.5Q111 308 141 308Q190 308 216.5 341.5Q243 375 243 427Q243 458 228 477.5Q213 497 177 497H142L145 517H180Q200 517 215.5 526Q231 535 242 550Q253 565 258.5 584Q264 603 264 624Q264 686 205 686Q173 686 149.5 670Q126 654 110 618L90 626Q125 707 209 707Q250 707 269.5 685.5Q289 664 289 627Q289 589 270 555Q251 521 216 508Q239 500 253 481.5Q267 463 267 428Q267 365 233.5 326Q200 287 140 287Q102 287 77.5 305.5Q53 324 47 368ZM535 387 496 219Q514 236 535 245Q556 254 583 254Q621 254 642.5 231.5Q664 209 664 161Q664 128 655.5 97.5Q647 67 630 44Q613 21 588.5 7.5Q564 -6 532 -6Q491 -6 466.5 12.5Q442 31 436 73L458 84Q463 48 482 31.5Q501 15 533 15Q559 15 579 27Q599 39 612.5 58.5Q626 78 633 104Q640 130 640 158Q640 233 573 233Q544 233 523 221.5Q502 210 484 191L469 198L518 409H690L687 387Z" glyph-name="uni2157" horiz-adv-x="706" unicode="&#8535;" /><glyph d="M54 405 57 423 206 702H230L81 426H227L259 628H283L251 426H300L297 405H248L229 293H206L224 405ZM576 700 221 0H193L548 700ZM554 387 515 219Q533 236 554 245Q575 254 602 254Q640 254 661.5 231.5Q683 209 683 161Q683 128 674.5 97.5Q666 67 649 44Q632 21 607.5 7.5Q583 -6 551 -6Q510 -6 485.5 12.5Q461 31 455 73L477 84Q482 48 501 31.5Q520 15 552 15Q578 15 598 27Q618 39 631.5 58.5Q645 78 652 104Q659 130 659 158Q659 233 592 233Q563 233 542 221.5Q521 210 503 191L488 198L537 409H709L706 387Z" glyph-name="uni2158" horiz-adv-x="727" unicode="&#8536;" /><glyph d="M97 293H73L131 664L81 620L73 639L144 702H162ZM452 700 97 0H69L424 700ZM598 341 578 332Q573 364 557 378.5Q541 393 514 393Q467 393 434.5 346Q402 299 386 199Q382 175 380 146Q388 194 418.5 224Q449 254 492 254Q528 254 550 229Q572 204 572 156Q572 121 564 91.5Q556 62 540.5 40.5Q525 19 502.5 6.5Q480 -6 451 -6Q409 -6 382.5 24.5Q356 55 356 124Q356 141 357 159.5Q358 178 362 199Q379 311 419 362.5Q459 414 514 414Q551 414 572 397Q593 380 598 341ZM482 234Q459 234 441 222Q423 210 409.5 191Q396 172 389 148.5Q382 125 382 102Q382 85 386 69.5Q390 54 398.5 42Q407 30 420 22.5Q433 15 452 15Q497 15 522.5 53.5Q548 92 548 152Q548 191 531 212.5Q514 234 482 234Z" glyph-name="uni2159" horiz-adv-x="619" unicode="&#8537;" /><glyph d="M557 700 202 0H174L529 700ZM688 341 668 332Q663 364 647 378.5Q631 393 604 393Q557 393 524.5 346Q492 299 476 199Q472 175 470 146Q478 194 508.5 224Q539 254 582 254Q618 254 640 229Q662 204 662 156Q662 121 654 91.5Q646 62 630.5 40.5Q615 19 592.5 6.5Q570 -6 541 -6Q499 -6 472.5 24.5Q446 55 446 124Q446 141 447 159.5Q448 178 452 199Q469 311 509 362.5Q549 414 604 414Q641 414 662 397Q683 380 688 341ZM149 680 110 512Q128 529 149 538Q170 547 197 547Q235 547 256.5 524.5Q278 502 278 454Q278 421 269.5 390.5Q261 360 244 337Q227 314 202.5 300.5Q178 287 146 287Q105 287 80.5 305.5Q56 324 50 366L72 377Q77 341 96 324.5Q115 308 147 308Q173 308 193 320Q213 332 226.5 351.5Q240 371 247 397Q254 423 254 451Q254 526 187 526Q158 526 137 514.5Q116 503 98 484L83 491L132 702H304L301 680ZM572 234Q549 234 531 222Q513 210 499.5 191Q486 172 479 148.5Q472 125 472 102Q472 85 476 69.5Q480 54 488.5 42Q497 30 510 22.5Q523 15 542 15Q587 15 612.5 53.5Q638 92 638 152Q638 191 621 212.5Q604 234 572 234Z" glyph-name="uni215A" horiz-adv-x="710" unicode="&#8538;" /><glyph d="M98 293H74L132 664L82 620L74 639L145 702H163ZM452 700 97 0H69L424 700ZM560 134Q560 71 525.5 32.5Q491 -6 435 -6Q392 -6 368.5 18.5Q345 43 345 86Q345 142 370.5 176.5Q396 211 434 221Q413 229 400.5 247.5Q388 266 388 295Q388 319 395.5 341Q403 363 417 379Q431 395 451.5 404.5Q472 414 499 414Q537 414 558 393.5Q579 373 579 336Q579 291 558.5 261Q538 231 506 219Q530 211 545 189Q560 167 560 134ZM556 331Q556 360 541 376.5Q526 393 496 393Q454 393 432.5 364Q411 335 411 295Q411 265 426.5 247.5Q442 230 471 230Q506 230 531 257.5Q556 285 556 331ZM536 132Q536 166 518 187Q500 208 467 208Q423 208 396 174.5Q369 141 369 90Q369 56 386 35.5Q403 15 438 15Q480 15 508 47Q536 79 536 132Z" glyph-name="uni215B" horiz-adv-x="618" unicode="&#8539;" /><glyph d="M557 700 202 0H174L529 700ZM663 134Q663 71 628.5 32.5Q594 -6 538 -6Q495 -6 471.5 18.5Q448 43 448 86Q448 142 473.5 176.5Q499 211 537 221Q516 229 503.5 247.5Q491 266 491 295Q491 319 498.5 341Q506 363 520 379Q534 395 554.5 404.5Q575 414 602 414Q640 414 661 393.5Q682 373 682 336Q682 291 661.5 261Q641 231 609 219Q633 211 648 189Q663 167 663 134ZM659 331Q659 360 644 376.5Q629 393 599 393Q557 393 535.5 364Q514 335 514 295Q514 265 529.5 247.5Q545 230 574 230Q609 230 634 257.5Q659 285 659 331ZM47 368 69 376Q74 341 92.5 324.5Q111 308 141 308Q190 308 216.5 341.5Q243 375 243 427Q243 458 228 477.5Q213 497 177 497H142L145 517H180Q200 517 215.5 526Q231 535 242 550Q253 565 258.5 584Q264 603 264 624Q264 686 205 686Q173 686 149.5 670Q126 654 110 618L90 626Q125 707 209 707Q250 707 269.5 685.5Q289 664 289 627Q289 589 270 555Q251 521 216 508Q239 500 253 481.5Q267 463 267 428Q267 365 233.5 326Q200 287 140 287Q102 287 77.5 305.5Q53 324 47 368ZM639 132Q639 166 621 187Q603 208 570 208Q526 208 499 174.5Q472 141 472 90Q472 56 489 35.5Q506 15 541 15Q583 15 611 47Q639 79 639 132Z" glyph-name="uni215C" horiz-adv-x="721" unicode="&#8540;" /><glyph d="M557 700 202 0H174L529 700ZM665 134Q665 71 630.5 32.5Q596 -6 540 -6Q497 -6 473.5 18.5Q450 43 450 86Q450 142 475.5 176.5Q501 211 539 221Q518 229 505.5 247.5Q493 266 493 295Q493 319 500.5 341Q508 363 522 379Q536 395 556.5 404.5Q577 414 604 414Q642 414 663 393.5Q684 373 684 336Q684 291 663.5 261Q643 231 611 219Q635 211 650 189Q665 167 665 134ZM661 331Q661 360 646 376.5Q631 393 601 393Q559 393 537.5 364Q516 335 516 295Q516 265 531.5 247.5Q547 230 576 230Q611 230 636 257.5Q661 285 661 331ZM148 680 109 512Q127 529 148 538Q169 547 196 547Q234 547 255.5 524.5Q277 502 277 454Q277 421 268.5 390.5Q260 360 243 337Q226 314 201.5 300.5Q177 287 145 287Q104 287 79.5 305.5Q55 324 49 366L71 377Q76 341 95 324.5Q114 308 146 308Q172 308 192 320Q212 332 225.5 351.5Q239 371 246 397Q253 423 253 451Q253 526 186 526Q157 526 136 514.5Q115 503 97 484L82 491L131 702H303L300 680ZM641 132Q641 166 623 187Q605 208 572 208Q528 208 501 174.5Q474 141 474 90Q474 56 491 35.5Q508 15 543 15Q585 15 613 47Q641 79 641 132Z" glyph-name="uni215D" horiz-adv-x="722" unicode="&#8541;" /><glyph d="M83 292Q92 346 109.5 402.5Q127 459 151 511Q175 563 203.5 606.5Q232 650 264 679L92 678L96 701H296L292 681Q260 655 231 613.5Q202 572 178 520Q154 468 136.5 409.5Q119 351 110 292ZM504 700 149 0H121L476 700ZM611 134Q611 71 576.5 32.5Q542 -6 486 -6Q443 -6 419.5 18.5Q396 43 396 86Q396 142 421.5 176.5Q447 211 485 221Q464 229 451.5 247.5Q439 266 439 295Q439 319 446.5 341Q454 363 468 379Q482 395 502.5 404.5Q523 414 550 414Q588 414 609 393.5Q630 373 630 336Q630 291 609.5 261Q589 231 557 219Q581 211 596 189Q611 167 611 134ZM607 331Q607 360 592 376.5Q577 393 547 393Q505 393 483.5 364Q462 335 462 295Q462 265 477.5 247.5Q493 230 522 230Q557 230 582 257.5Q607 285 607 331ZM587 132Q587 166 569 187Q551 208 518 208Q474 208 447 174.5Q420 141 420 90Q420 56 437 35.5Q454 15 489 15Q531 15 559 47Q587 79 587 132Z" glyph-name="uni215E" horiz-adv-x="669" unicode="&#8542;" /><glyph d="M98 293H74L132 664L82 620L74 639L145 702H163ZM452 700 97 0H69L424 700Z" glyph-name="uni215F" horiz-adv-x="626" unicode="&#8543;" /><glyph d="M330 -179Q316 -190 301.5 -194Q287 -198 271 -198Q243 -198 225 -181.5Q207 -165 207 -126Q207 -98 216.5 -74Q226 -50 241 -31Q256 -12 274.5 0Q293 12 311 15L328 128Q305 62 262 26Q219 -10 165 -10Q111 -10 83.5 22Q56 54 56 113Q56 127 57 141Q58 155 60 171L109 478H138L90 178Q87 161 86.5 147Q86 133 86 120Q86 65 110 40.5Q134 16 177 16Q207 16 233 31Q259 46 280 73Q301 100 316.5 138Q332 176 341 221L381 478H410L334 0H318Q302 -2 286.5 -12.5Q271 -23 258.5 -39.5Q246 -56 238 -77Q230 -98 230 -122Q230 -153 244 -164Q258 -175 276 -175Q302 -175 321 -160Z" glyph-name="uogonek" horiz-adv-x="449" unicode="&#371;" /><glyph d="M56 0ZM165 -10Q111 -10 83.5 22Q56 54 56 113Q56 127 57 141Q58 155 60 171L109 478H138L90 178Q87 161 86.5 147Q86 133 86 120Q86 65 110 40.5Q134 16 177 16Q207 16 233 31Q259 46 280 73Q301 100 316.5 138Q332 176 341 221L381 478H410L334 0H309L328 128Q305 62 262 26Q219 -10 165 -10ZM293 712Q318 712 336 694.5Q354 677 354 644Q354 606 332 578.5Q310 551 275 551Q250 551 232 568Q214 585 214 619Q214 656 236 684Q258 712 293 712ZM290 693Q267 693 251 671.5Q235 650 235 621Q235 596 247 583Q259 570 276 570Q300 570 317 591Q334 612 334 642Q334 667 321 680Q308 693 290 693Z" glyph-name="uring" horiz-adv-x="449" unicode="&#367;" /><glyph d="M56 0ZM165 -10Q111 -10 83.5 22Q56 54 56 113Q56 127 57 141Q58 155 60 171L109 478H138L90 178Q87 161 86.5 147Q86 133 86 120Q86 65 110 40.5Q134 16 177 16Q207 16 233 31Q259 46 280 73Q301 100 316.5 138Q332 176 341 221L381 478H410L334 0H309L328 128Q305 62 262 26Q219 -10 165 -10ZM360 657H382Q379 634 372.5 619.5Q366 605 357.5 596.5Q349 588 340 585Q331 582 323 582Q307 582 297 590.5Q287 599 278 609.5Q269 620 260.5 628.5Q252 637 239 637Q228 637 218.5 627Q209 617 205 586H183Q186 609 192.5 623.5Q199 638 207 646Q215 654 224 657Q233 660 241 660Q257 660 267 651.5Q277 643 286 633Q295 623 304 614.5Q313 606 326 606Q338 606 346.5 617Q355 628 360 657Z" glyph-name="utilde" horiz-adv-x="449" unicode="&#361;" /><glyph d="M48 478H79L141 32L344 478H375L153 0H120Z" glyph-name="v" horiz-adv-x="350" unicode="v" /><glyph d="M280 466H312L346 37L518 478H547L356 0H323L290 424L127 0H93L51 478H81L116 36Z" glyph-name="w" horiz-adv-x="526" unicode="w" /><glyph d="M51 0ZM280 466H312L346 37L518 478H547L356 0H323L290 424L127 0H93L51 478H81L116 36ZM372 671H411L410 667L318 564H294V567Z" glyph-name="wacute" horiz-adv-x="526" unicode="&#7811;" /><glyph d="M51 0ZM280 466H312L346 37L518 478H547L356 0H323L290 424L127 0H93L51 478H81L116 36ZM313 671H337L406 566V564H378L323 650L240 564H209V566Z" glyph-name="wcircumflex" horiz-adv-x="526" unicode="&#373;" /><glyph d="M51 0ZM280 466H312L346 37L518 478H547L356 0H323L290 424L127 0H93L51 478H81L116 36ZM236 606Q236 640 267 640Q278 640 284.5 633.5Q291 627 291 615Q291 599 282.5 590Q274 581 260 581Q236 581 236 606ZM343 606Q343 640 374 640Q398 640 398 615Q398 581 367 581Q343 581 343 606Z" glyph-name="wdieresis" horiz-adv-x="526" unicode="&#7813;" /><glyph d="M51 0ZM280 466H312L346 37L518 478H547L356 0H323L290 424L127 0H93L51 478H81L116 36ZM303 564 240 667V671H278L326 567V564Z" glyph-name="wgrave" horiz-adv-x="526" unicode="&#7809;" /><glyph d="M272 0 177 223 12 0H-19L165 248L66 478H97L185 272L338 478H369L196 247L303 0Z" glyph-name="x" horiz-adv-x="361" unicode="x" /><glyph d="M105 -48 126 -3 52 478H83L147 37L349 478H380L129 -59Q107 -106 87 -135Q67 -164 48 -179.5Q29 -195 11.5 -200Q-6 -205 -24 -205Q-38 -205 -52 -202.5Q-66 -200 -80 -192L-67 -167Q-45 -178 -21 -178Q-6 -178 8 -173.5Q22 -169 37 -155Q52 -141 68.5 -115.5Q85 -90 105 -48Z" glyph-name="y" horiz-adv-x="354" unicode="y" /><glyph d="M320 120Q296 58 254.5 26.5Q213 -5 162 -5Q56 -5 56 120Q56 149 62 182L109 478H138L92 188Q86 152 86 125Q86 68 108.5 44Q131 20 171 20Q203 20 229 34.5Q255 49 275.5 74.5Q296 100 311 135.5Q326 171 335 213L377 478H406L330 -3Q313 -109 263 -157Q213 -205 138 -205Q85 -205 49.5 -180.5Q14 -156 0 -96L28 -83Q39 -137 68 -158Q97 -179 139 -179Q200 -179 243.5 -137Q287 -95 302 4Z" glyph-name="y.school" horiz-adv-x="445" /><glyph d="M0 0ZM105 -48 126 -3 52 478H83L147 37L349 478H380L129 -59Q107 -106 87 -135Q67 -164 48 -179.5Q29 -195 11.5 -200Q-6 -205 -24 -205Q-38 -205 -52 -202.5Q-66 -200 -80 -192L-67 -167Q-45 -178 -21 -178Q-6 -178 8 -173.5Q22 -169 37 -155Q52 -141 68.5 -115.5Q85 -90 105 -48ZM290 671H329L328 667L236 564H212V567Z" glyph-name="yacute" horiz-adv-x="354" unicode="&#253;" /><glyph d="M0 0ZM320 120Q296 58 254.5 26.5Q213 -5 162 -5Q56 -5 56 120Q56 149 62 182L109 478H138L92 188Q86 152 86 125Q86 68 108.5 44Q131 20 171 20Q203 20 229 34.5Q255 49 275.5 74.5Q296 100 311 135.5Q326 171 335 213L377 478H406L330 -3Q313 -109 263 -157Q213 -205 138 -205Q85 -205 49.5 -180.5Q14 -156 0 -96L28 -83Q39 -137 68 -158Q97 -179 139 -179Q200 -179 243.5 -137Q287 -95 302 4ZM325 670H364L363 666L271 563H247V566Z" glyph-name="yacute.school" horiz-adv-x="445" /><glyph d="M0 0ZM105 -48 126 -3 52 478H83L147 37L349 478H380L129 -59Q107 -106 87 -135Q67 -164 48 -179.5Q29 -195 11.5 -200Q-6 -205 -24 -205Q-38 -205 -52 -202.5Q-66 -200 -80 -192L-67 -167Q-45 -178 -21 -178Q-6 -178 8 -173.5Q22 -169 37 -155Q52 -141 68.5 -115.5Q85 -90 105 -48ZM232 671H256L325 566V564H297L242 650L159 564H128V566Z" glyph-name="ycircumflex" horiz-adv-x="354" unicode="&#375;" /><glyph d="M0 0ZM320 120Q296 58 254.5 26.5Q213 -5 162 -5Q56 -5 56 120Q56 149 62 182L109 478H138L92 188Q86 152 86 125Q86 68 108.5 44Q131 20 171 20Q203 20 229 34.5Q255 49 275.5 74.5Q296 100 311 135.5Q326 171 335 213L377 478H406L330 -3Q313 -109 263 -157Q213 -205 138 -205Q85 -205 49.5 -180.5Q14 -156 0 -96L28 -83Q39 -137 68 -158Q97 -179 139 -179Q200 -179 243.5 -137Q287 -95 302 4ZM267 670H291L360 565V563H332L277 649L194 563H163V565Z" glyph-name="ycircumflex.school" horiz-adv-x="445" /><glyph d="M0 0ZM105 -48 126 -3 52 478H83L147 37L349 478H380L129 -59Q107 -106 87 -135Q67 -164 48 -179.5Q29 -195 11.5 -200Q-6 -205 -24 -205Q-38 -205 -52 -202.5Q-66 -200 -80 -192L-67 -167Q-45 -178 -21 -178Q-6 -178 8 -173.5Q22 -169 37 -155Q52 -141 68.5 -115.5Q85 -90 105 -48ZM156 606Q156 640 187 640Q198 640 204.5 633.5Q211 627 211 615Q211 599 202.5 590Q194 581 180 581Q156 581 156 606ZM263 606Q263 640 294 640Q318 640 318 615Q318 581 287 581Q263 581 263 606Z" glyph-name="ydieresis" horiz-adv-x="354" unicode="&#255;" /><glyph d="M0 0ZM196 605Q196 639 227 639Q238 639 244.5 632.5Q251 626 251 614Q251 598 242.5 589Q234 580 220 580Q196 580 196 605ZM303 605Q303 639 334 639Q358 639 358 614Q358 580 327 580Q303 580 303 605ZM320 120Q296 58 254.5 26.5Q213 -5 162 -5Q56 -5 56 120Q56 149 62 182L109 478H138L92 188Q86 152 86 125Q86 68 108.5 44Q131 20 171 20Q203 20 229 34.5Q255 49 275.5 74.5Q296 100 311 135.5Q326 171 335 213L377 478H406L330 -3Q313 -109 263 -157Q213 -205 138 -205Q85 -205 49.5 -180.5Q14 -156 0 -96L28 -83Q39 -137 68 -158Q97 -179 139 -179Q200 -179 243.5 -137Q287 -95 302 4Z" glyph-name="ydieresis.school" horiz-adv-x="446" /><glyph d="M388 263H236L194 0H164L207 263H53L58 288H209L191 347H67L71 372H185L87 700H119L230 315L462 700H495L292 372H406L402 347H278L241 288H393Z" glyph-name="yen" horiz-adv-x="449" unicode="&#165;" /><glyph d="M-8 0 -4 24 315 453H73L77 478H351L347 454L29 25H281L277 0Z" glyph-name="z" horiz-adv-x="350" unicode="z" /><glyph d="M0 0ZM-8 0 -4 24 315 453H73L77 478H351L347 454L29 25H281L277 0ZM283 671H322L321 667L229 564H205V567Z" glyph-name="zacute" horiz-adv-x="350" unicode="&#378;" /><glyph d="M0 0ZM-8 0 -4 24 315 453H73L77 478H351L347 454L29 25H281L277 0ZM209 564 140 670V671H169L224 586L306 671H337V670L233 564Z" glyph-name="zcaron" horiz-adv-x="350" unicode="&#382;" /><glyph d="M0 0ZM-8 0 -4 24 315 453H73L77 478H351L347 454L29 25H281L277 0ZM200 606Q200 640 231 640Q254 640 254 615Q254 581 223 581Q200 581 200 606Z" glyph-name="zdotaccent" horiz-adv-x="350" unicode="&#380;" /><glyph d="M68 0ZM330 710Q405 710 444 661.5Q483 613 483 500Q483 468 480 431Q477 394 470 350Q455 252 432 183.5Q409 115 377.5 72Q346 29 306.5 9.5Q267 -10 220 -10Q146 -10 107 39.5Q68 89 68 202Q68 234 71 270.5Q74 307 81 350Q96 448 119 516.5Q142 585 173.5 628Q205 671 244 690.5Q283 710 330 710ZM328 684Q289 684 256 667Q223 650 196 610.5Q169 571 147.5 507Q126 443 111 350Q104 305 100.5 268Q97 231 97 200Q97 99 130.5 57.5Q164 16 223 16Q262 16 295 33Q328 50 355 89Q382 128 403.5 192Q425 256 440 350Q447 394 450.5 431Q454 468 454 500Q454 600 421 642Q388 684 328 684Z" glyph-name="zero" horiz-adv-x="535" unicode="0" /><glyph d="M320 710Q395 710 434 661.5Q473 613 473 500Q473 468 470 431Q467 394 460 350Q445 252 422 183.5Q399 115 367.5 72Q336 29 296.5 9.5Q257 -10 210 -10Q136 -10 97 39.5Q58 89 58 202Q58 234 61 270.5Q64 307 71 350Q86 448 109 516.5Q132 585 163.5 628Q195 671 234 690.5Q273 710 320 710ZM318 684Q279 684 246 667Q213 650 186 610.5Q159 571 137.5 507Q116 443 101 350Q94 305 90.5 268Q87 231 87 200Q87 99 120.5 57.5Q154 16 213 16Q252 16 285 33Q318 50 345 89Q372 128 393.5 192Q415 256 430 350Q437 394 440.5 431Q444 468 444 500Q444 600 411 642Q378 684 318 684Z" glyph-name="zero.LP" horiz-adv-x="503" /><glyph d="M289 610Q357 610 395 565.5Q433 521 433 419Q433 393 430.5 363Q428 333 423 300Q410 216 388.5 157Q367 98 338 61Q309 24 272.5 7Q236 -10 193 -10Q124 -10 87 34Q50 78 50 179Q50 205 52.5 235Q55 265 61 300Q74 384 95 443Q116 502 144.5 539Q173 576 209.5 593Q246 610 289 610ZM196 16Q232 16 262.5 30.5Q293 45 317.5 78Q342 111 361 165.5Q380 220 393 300Q399 335 401.5 365Q404 395 404 421Q404 512 372.5 548Q341 584 286 584Q250 584 219.5 569.5Q189 555 164.5 522Q140 489 121 434.5Q102 380 89 300Q84 265 81 233.5Q78 202 78 176Q78 132 86 101.5Q94 71 109 52Q124 33 146 24.5Q168 16 196 16Z" glyph-name="zero.OP" horiz-adv-x="472" /><glyph d="M320 610Q388 610 426 565.5Q464 521 464 419Q464 393 461.5 363Q459 333 454 300Q441 216 419.5 157Q398 98 369 61Q340 24 303.5 7Q267 -10 224 -10Q155 -10 118 34Q81 78 81 179Q81 205 83.5 235Q86 265 92 300Q105 384 126 443Q147 502 175.5 539Q204 576 240.5 593Q277 610 320 610ZM227 16Q263 16 293.5 30.5Q324 45 348.5 78Q373 111 392 165.5Q411 220 424 300Q430 335 432.5 365Q435 395 435 421Q435 512 403.5 548Q372 584 317 584Q281 584 250.5 569.5Q220 555 195.5 522Q171 489 152 434.5Q133 380 120 300Q115 265 112 233.5Q109 202 109 176Q109 132 117 101.5Q125 71 140 52Q155 33 177 24.5Q199 16 227 16Z" glyph-name="zero.OT" horiz-adv-x="535" /><glyph d="M0 0ZM153 214Q198 214 221.5 185.5Q245 157 245 91Q245 72 243 51Q241 30 237 4Q220 -110 183 -158Q146 -206 89 -206Q44 -206 20.5 -177Q-3 -148 -3 -82Q-3 -63 -1.5 -42Q0 -21 4 4Q22 118 59 166Q96 214 153 214ZM151 193Q129 193 110.5 183.5Q92 174 76.5 151.5Q61 129 49 93Q37 57 29 5Q25 -21 23.5 -43Q22 -65 22 -82Q22 -139 40.5 -162Q59 -185 91 -185Q113 -185 131.5 -175.5Q150 -166 165 -144Q180 -122 192 -85.5Q204 -49 213 4Q217 30 219 51Q221 72 221 91Q221 147 202.5 170Q184 193 151 193Z" glyph-name="zero.inf" horiz-adv-x="307" /><glyph glyph-name="zerowidthspace" horiz-adv-x="0" unicode="&#8203;" /></font>
</defs>
</svg>
