<?xml version="1.0" standalone="no"?><!DOCTYPE svg PUBLIC "-//W3C//DTD SVG 1.1//EN" "http://www.w3.org/Graphics/SVG/1.1/DTD/svg11.dtd" ><svg version="1.1" xmlns="http://www.w3.org/2000/svg"><defs><font horiz-adv-x="0" id="font"><font-face ascent="972" bbox="-114 -333 1474 959" cap-height="700" descent="-226" font-family="Honeywell Sans Web" font-stretch="normal" font-style="normal" font-weight="800" units-per-em="1000" x-height="497" /><missing-glyph d="M110 0V700H804V0ZM403 346 197 580V110ZM513 346 717 112V579ZM269 623 459 406 647 623ZM455 286 275 77H638Z" horiz-adv-x="914" /><glyph d="M0 0Z" glyph-name=".ttfautohint" horiz-adv-x="411" /><glyph d="M341 541 244 235H438ZM512 0 476 110H206L171 0H8L245 700H443L680 0Z" glyph-name="A" horiz-adv-x="688" unicode="A" /><glyph d="M345 537 246 235H441ZM514 0 479 110H205L169 0H8L256 700H950V571H496L546 418H899V288H590L642 129H960V0Z" glyph-name="AE" horiz-adv-x="1004" unicode="&#198;" /><glyph d="M8 0ZM341 541 244 235H438ZM512 0 476 110H206L171 0H8L245 700H443L680 0ZM524 902 395 775H273V780L354 908H524Z" glyph-name="Aacute" horiz-adv-x="688" unicode="&#193;" /><glyph d="M8 0ZM341 541 244 235H438ZM512 0 476 110H206L171 0H8L245 700H443L680 0ZM419 907H516Q516 867 504.5 840Q493 813 471 797Q449 781 417 774Q385 767 345 767Q304 767 272.5 774Q241 781 219 797Q197 813 185.5 840Q174 867 174 907H271Q271 871 289 858Q307 845 345 845Q383 845 401 858Q419 871 419 907Z" glyph-name="Abreve" horiz-adv-x="688" unicode="&#258;" /><glyph d="M8 0ZM341 541 244 235H438ZM512 0 476 110H206L171 0H8L245 700H443L680 0ZM344 832 283 774H158V778L281 907H412L537 778V774H405Z" glyph-name="Acircumflex" horiz-adv-x="688" unicode="&#194;" /><glyph d="M8 0ZM341 541 244 235H438ZM512 0 476 110H206L171 0H8L245 700H443L680 0ZM367 848Q367 886 389 904Q411 922 451 922Q491 922 512.5 904Q534 886 534 848Q534 810 512.5 791.5Q491 773 451 773Q411 773 389 791.5Q367 810 367 848ZM157 848Q157 886 179 904Q201 922 240 922Q280 922 301.5 904Q323 886 323 848Q323 810 301.5 791.5Q280 773 240 773Q201 773 179 791.5Q157 810 157 848Z" glyph-name="Adieresis" horiz-adv-x="688" unicode="&#196;" /><glyph d="M8 0ZM341 541 244 235H438ZM512 0 476 110H206L171 0H8L245 700H443L680 0ZM295 775 166 902V908H340L419 780V775Z" glyph-name="Agrave" horiz-adv-x="688" unicode="&#192;" /><glyph d="M8 0ZM341 541 244 235H438ZM512 0 476 110H206L171 0H8L245 700H443L680 0ZM490 880V793H201V880Z" glyph-name="Amacron" horiz-adv-x="688" unicode="&#256;" /><glyph d="M505 17 476 110H206L171 0H8L245 700H443L680 0H619Q571 -4 549.5 -31Q528 -58 528 -90Q528 -119 546.5 -130Q565 -141 591 -141Q609 -141 626.5 -137Q644 -133 659 -124L681 -202Q637 -229 580 -229Q553 -229 527.5 -223Q502 -217 481.5 -202.5Q461 -188 448.5 -164.5Q436 -141 436 -105Q436 -62 456 -31.5Q476 -1 505 17ZM341 541 244 235H438Z" glyph-name="Aogonek" horiz-adv-x="688" unicode="&#260;" /><glyph d="M8 0ZM341 541 244 235H438ZM512 0 476 110H206L171 0H8L245 700H443L680 0ZM230 856Q230 906 262.5 932.5Q295 959 345 959Q395 959 427 932.5Q459 906 459 856Q459 805 427 778.5Q395 752 344 752Q295 752 262.5 778.5Q230 805 230 856ZM300 856Q300 835 312 822.5Q324 810 344 810Q364 810 377 822.5Q390 835 390 856Q390 877 377.5 889Q365 901 345 901Q325 901 312.5 889Q300 877 300 856Z" glyph-name="Aring" horiz-adv-x="688" unicode="&#197;" /><glyph d="M8 0ZM341 541 244 235H438ZM512 0 476 110H206L171 0H8L245 700H443L680 0ZM432 903H527Q530 868 521 844.5Q512 821 497 807Q482 793 463 787Q444 781 425 781Q402 781 383 786.5Q364 792 347 798Q330 804 315 809.5Q300 815 286 815Q269 815 263.5 804.5Q258 794 258 781H163Q161 816 169.5 839.5Q178 863 193 877.5Q208 892 227 898Q246 904 265 904Q288 904 307 898.5Q326 893 343 886.5Q360 880 375 874.5Q390 869 404 869Q422 869 427 879Q432 889 432 903Z" glyph-name="Atilde" horiz-adv-x="688" unicode="&#195;" /><glyph d="M93 0V700H441Q496 700 535 686.5Q574 673 599.5 648.5Q625 624 637 589.5Q649 555 649 514Q649 462 624.5 423.5Q600 385 556 366Q585 358 606 341.5Q627 325 640.5 303Q654 281 660 254.5Q666 228 666 201Q666 0 431 0ZM408 578H251V412H405Q450 412 470.5 436Q491 460 491 495Q491 536 468.5 557Q446 578 408 578ZM415 292H251V120H410Q459 120 482.5 143Q506 166 506 209Q506 247 484.5 269.5Q463 292 415 292Z" glyph-name="B" horiz-adv-x="711" unicode="B" /><glyph d="M393 -14Q222 -14 139.5 74.5Q57 163 57 351Q57 542 142.5 628Q228 714 398 714Q504 714 572.5 677.5Q641 641 676 556L545 488Q521 540 487 559.5Q453 579 397 579Q355 579 322.5 568.5Q290 558 267.5 531.5Q245 505 233.5 460.5Q222 416 222 349Q222 282 233.5 237.5Q245 193 267.5 166Q290 139 323 128Q356 117 398 117Q452 117 491 139.5Q530 162 554 216L685 151Q647 69 576 27.5Q505 -14 393 -14Z" glyph-name="C" horiz-adv-x="709" unicode="C" /><glyph glyph-name="CR" horiz-adv-x="176" unicode="" /><glyph d="M57 0ZM577 902 448 775H326V780L407 908H577ZM393 -14Q222 -14 139.5 74.5Q57 163 57 351Q57 542 142.5 628Q228 714 398 714Q504 714 572.5 677.5Q641 641 676 556L545 488Q521 540 487 559.5Q453 579 397 579Q355 579 322.5 568.5Q290 558 267.5 531.5Q245 505 233.5 460.5Q222 416 222 349Q222 282 233.5 237.5Q245 193 267.5 166Q290 139 323 128Q356 117 398 117Q452 117 491 139.5Q530 162 554 216L685 151Q647 69 576 27.5Q505 -14 393 -14Z" glyph-name="Cacute" horiz-adv-x="709" unicode="&#262;" /><glyph d="M57 0ZM403 851 465 908H589V906L465 775H334L210 906V908H341ZM393 -14Q222 -14 139.5 74.5Q57 163 57 351Q57 542 142.5 628Q228 714 398 714Q504 714 572.5 677.5Q641 641 676 556L545 488Q521 540 487 559.5Q453 579 397 579Q355 579 322.5 568.5Q290 558 267.5 531.5Q245 505 233.5 460.5Q222 416 222 349Q222 282 233.5 237.5Q245 193 267.5 166Q290 139 323 128Q356 117 398 117Q452 117 491 139.5Q530 162 554 216L685 151Q647 69 576 27.5Q505 -14 393 -14Z" glyph-name="Ccaron" horiz-adv-x="709" unicode="&#268;" /><glyph d="M391 -251Q346 -251 309 -234Q272 -217 250 -182L304 -127Q319 -150 337.5 -162.5Q356 -175 385 -175Q406 -175 420.5 -166.5Q435 -158 435 -139Q435 -122 421 -112Q407 -102 382 -102Q376 -102 370.5 -102.5Q365 -103 359 -104L336 -89L361 -13Q206 -6 131.5 83Q57 172 57 351Q57 542 142.5 628Q228 714 398 714Q504 714 572.5 677.5Q641 641 676 556L545 488Q521 540 487 559.5Q453 579 397 579Q355 579 322.5 568.5Q290 558 267.5 531.5Q245 505 233.5 460.5Q222 416 222 349Q222 282 233.5 237.5Q245 193 267.5 166Q290 139 323 128Q356 117 398 117Q452 117 491 139.5Q530 162 554 216L685 151Q651 78 591.5 37Q532 -4 441 -12L427 -50H428Q448 -52 466.5 -58Q485 -64 499 -75.5Q513 -87 521.5 -103.5Q530 -120 530 -142Q530 -170 518.5 -190.5Q507 -211 488 -224.5Q469 -238 444 -244.5Q419 -251 391 -251Z" glyph-name="Ccedilla" horiz-adv-x="709" unicode="&#199;" /><glyph d="M57 0ZM397 833 336 775H211V779L334 908H465L590 779V775H458ZM393 -14Q222 -14 139.5 74.5Q57 163 57 351Q57 542 142.5 628Q228 714 398 714Q504 714 572.5 677.5Q641 641 676 556L545 488Q521 540 487 559.5Q453 579 397 579Q355 579 322.5 568.5Q290 558 267.5 531.5Q245 505 233.5 460.5Q222 416 222 349Q222 282 233.5 237.5Q245 193 267.5 166Q290 139 323 128Q356 117 398 117Q452 117 491 139.5Q530 162 554 216L685 151Q647 69 576 27.5Q505 -14 393 -14Z" glyph-name="Ccircumflex" horiz-adv-x="709" unicode="&#264;" /><glyph d="M57 0ZM393 -14Q222 -14 139.5 74.5Q57 163 57 351Q57 542 142.5 628Q228 714 398 714Q504 714 572.5 677.5Q641 641 676 556L545 488Q521 540 487 559.5Q453 579 397 579Q355 579 322.5 568.5Q290 558 267.5 531.5Q245 505 233.5 460.5Q222 416 222 349Q222 282 233.5 237.5Q245 193 267.5 166Q290 139 323 128Q356 117 398 117Q452 117 491 139.5Q530 162 554 216L685 151Q647 69 576 27.5Q505 -14 393 -14ZM311 849Q311 887 334 905.5Q357 924 399 924Q441 924 463 905.5Q485 887 485 849Q485 811 463 792.5Q441 774 399 774Q357 774 334 792.5Q311 811 311 849Z" glyph-name="Cdotaccent" horiz-adv-x="709" unicode="&#266;" /><glyph d="M383 0H93V700H394Q557 700 634.5 616.5Q712 533 712 355Q712 178 631.5 89Q551 0 383 0ZM257 132H371Q411 132 444 143Q477 154 499.5 180Q522 206 534.5 248Q547 290 547 352Q547 467 505.5 517.5Q464 568 385 568H257Z" glyph-name="D" horiz-adv-x="767" unicode="D" /><glyph d="M93 0ZM401 851 463 908H587V906L463 775H332L208 906V908H339ZM383 0H93V700H394Q557 700 634.5 616.5Q712 533 712 355Q712 178 631.5 89Q551 0 383 0ZM257 132H371Q411 132 444 143Q477 154 499.5 180Q522 206 534.5 248Q547 290 547 352Q547 467 505.5 517.5Q464 568 385 568H257Z" glyph-name="Dcaron" horiz-adv-x="767" unicode="&#270;" /><glyph d="M398 0H109V288H37V410H109V700H409Q572 700 649.5 616.5Q727 533 727 355Q727 178 646.5 89Q566 0 398 0ZM272 132H387Q427 132 459.5 143Q492 154 515 180Q538 206 550.5 248Q563 290 563 352Q563 467 521.5 517.5Q480 568 400 568H272V410H393V288H272Z" glyph-name="Dcroat" horiz-adv-x="783" unicode="&#272;" /><glyph d="M93 0V700H630V571H253V418H579V288H253V129H640V0Z" glyph-name="E" horiz-adv-x="684" unicode="E" /><glyph d="M93 0ZM549 902 420 775H298V780L379 908H549ZM93 0V700H630V571H253V418H579V288H253V129H640V0Z" glyph-name="Eacute" horiz-adv-x="684" unicode="&#201;" /><glyph d="M93 0ZM93 0V700H630V571H253V418H579V288H253V129H640V0ZM444 907H541Q541 867 529.5 840Q518 813 496 797Q474 781 442 774Q410 767 370 767Q329 767 297.5 774Q266 781 244 797Q222 813 210.5 840Q199 867 199 907H296Q296 871 314 858Q332 845 370 845Q408 845 426 858Q444 871 444 907Z" glyph-name="Ebreve" horiz-adv-x="684" unicode="&#276;" /><glyph d="M93 0ZM374 851 436 908H560V906L436 775H305L181 906V908H312ZM93 0V700H630V571H253V418H579V288H253V129H640V0Z" glyph-name="Ecaron" horiz-adv-x="684" unicode="&#282;" /><glyph d="M93 0ZM368 832 307 774H182V778L305 907H436L561 778V774H429ZM93 0V700H630V571H253V418H579V288H253V129H640V0Z" glyph-name="Ecircumflex" horiz-adv-x="684" unicode="&#202;" /><glyph d="M93 0ZM392 848Q392 886 414 904Q436 922 476 922Q516 922 537.5 904Q559 886 559 848Q559 810 537.5 791.5Q516 773 476 773Q436 773 414 791.5Q392 810 392 848ZM182 848Q182 886 204 904Q226 922 265 922Q305 922 326.5 904Q348 886 348 848Q348 810 326.5 791.5Q305 773 265 773Q226 773 204 791.5Q182 810 182 848ZM93 0V700H630V571H253V418H579V288H253V129H640V0Z" glyph-name="Edieresis" horiz-adv-x="684" unicode="&#203;" /><glyph d="M93 0ZM93 0V700H630V571H253V418H579V288H253V129H640V0ZM283 848Q283 886 306 904.5Q329 923 371 923Q413 923 435 904.5Q457 886 457 848Q457 810 435 791.5Q413 773 371 773Q329 773 306 791.5Q283 810 283 848Z" glyph-name="Edotaccent" horiz-adv-x="684" unicode="&#278;" /><glyph d="M93 0ZM93 0V700H630V571H253V418H579V288H253V129H640V0ZM319 775 190 902V908H364L443 780V775Z" glyph-name="Egrave" horiz-adv-x="684" unicode="&#200;" /><glyph d="M93 0ZM93 0V700H630V571H253V418H579V288H253V129H640V0ZM515 880V793H226V880Z" glyph-name="Emacron" horiz-adv-x="684" unicode="&#274;" /><glyph d="M559 -20V14L244 444L248 0H93V700H222L564 233L560 700H716V-30Q716 -79 702 -115Q688 -151 662.5 -174.5Q637 -198 601.5 -209.5Q566 -221 523 -221Q497 -221 469.5 -216Q442 -211 416 -199L441 -94Q454 -99 466 -102Q478 -105 494 -105Q527 -105 543 -86.5Q559 -68 559 -20Z" glyph-name="Eng" horiz-adv-x="808" unicode="&#330;" /><glyph d="M93 0V700H630V572H252V418H579V288H252V129H640V0Q588 -4 565 -31Q542 -58 542 -90Q542 -119 560.5 -130Q579 -141 605 -141Q643 -141 673 -124L694 -202Q652 -229 594 -229Q567 -229 541 -223Q515 -217 495 -202.5Q475 -188 462.5 -164.5Q450 -141 450 -105Q450 -72 462 -45.5Q474 -19 494 0Z" glyph-name="Eogonek" horiz-adv-x="684" unicode="&#280;" /><glyph d="M398 0H109V288H37V410H109V700H409Q572 700 649.5 616.5Q727 533 727 355Q727 178 646.5 89Q566 0 398 0ZM272 132H387Q427 132 459.5 143Q492 154 515 180Q538 206 550.5 248Q563 290 563 352Q563 467 521.5 517.5Q480 568 400 568H272V410H393V288H272Z" glyph-name="Eth" horiz-adv-x="783" unicode="&#208;" /><glyph d="M400 -15Q263 -15 184 44.5Q105 104 82 231H6V312H73Q72 320 72 330V357H6V438H77Q95 582 177 648Q259 714 406 714Q505 714 571.5 678Q638 642 671 558L544 491Q520 544 488 564Q456 584 404 584Q337 584 294.5 552.5Q252 521 238 438H485L463 357H230V330Q230 320 231 312H451L429 231H248Q264 166 304 140.5Q344 115 403 115Q454 115 490.5 135.5Q527 156 549 205L677 140Q640 62 572.5 23.5Q505 -15 400 -15Z" glyph-name="Euro" horiz-adv-x="708" unicode="&#8364;" /><glyph d="M93 0V700H617V568H257V406H571V270H257V0Z" glyph-name="F" horiz-adv-x="628" unicode="F" /><glyph d="M369 -14Q296 -14 238 8Q180 30 140 75.5Q100 121 78.5 189.5Q57 258 57 351Q57 541 142.5 627.5Q228 714 398 714Q502 714 569 679Q636 644 671 565L540 495Q516 542 483.5 560.5Q451 579 397 579Q355 579 322 568Q289 557 267 531Q245 505 233.5 461Q222 417 222 350Q222 283 233.5 238Q245 193 267.5 166Q290 139 323 127.5Q356 116 399 116Q425 116 450 123Q475 130 495.5 145.5Q516 161 529.5 186Q543 211 546 248V256H400V378H694V0H578L568 86Q540 39 489 12.5Q438 -14 369 -14Z" glyph-name="G" horiz-adv-x="750" unicode="G" /><glyph d="M388 -14Q220 -14 138.5 75.5Q57 165 57 351Q57 541 142.5 627.5Q228 714 398 714Q501 714 568.5 678.5Q636 643 671 565L539 495Q516 542 483.5 560.5Q451 579 397 579Q354 579 321.5 568Q289 557 267 531Q245 505 233.5 461Q222 417 222 350Q222 283 233.5 238Q245 193 267.5 166Q290 139 322.5 127.5Q355 116 398 116Q458 116 499 148.5Q540 181 544 256H400V378H694V287Q694 200 670 142.5Q646 85 604.5 50Q563 15 507.5 0.5Q452 -14 388 -14Z" glyph-name="G.alt" horiz-adv-x="753" /><glyph d="M57 0ZM369 -14Q296 -14 238 8Q180 30 140 75.5Q100 121 78.5 189.5Q57 258 57 351Q57 541 142.5 627.5Q228 714 398 714Q502 714 569 679Q636 644 671 565L540 495Q516 542 483.5 560.5Q451 579 397 579Q355 579 322 568Q289 557 267 531Q245 505 233.5 461Q222 417 222 350Q222 283 233.5 238Q245 193 267.5 166Q290 139 323 127.5Q356 116 399 116Q425 116 450 123Q475 130 495.5 145.5Q516 161 529.5 186Q543 211 546 248V256H400V378H694V0H578L568 86Q540 39 489 12.5Q438 -14 369 -14ZM471 908H568Q568 868 556.5 841Q545 814 523 798Q501 782 469 775Q437 768 397 768Q356 768 324.5 775Q293 782 271 798Q249 814 237.5 841Q226 868 226 908H323Q323 872 341 859Q359 846 397 846Q435 846 453 859Q471 872 471 908Z" glyph-name="Gbreve" horiz-adv-x="750" unicode="&#286;" /><glyph d="M468 907H565Q565 867 553.5 840Q542 813 520 797Q498 781 466 774.5Q434 768 394 768Q353 768 321.5 774.5Q290 781 268 797Q246 813 234.5 840Q223 867 223 907H320Q320 871 337.5 858Q355 845 393 845Q431 845 449.5 858Q468 871 468 907ZM388 -14Q220 -14 138.5 75.5Q57 165 57 351Q57 541 142.5 627.5Q228 714 398 714Q501 714 568.5 678.5Q636 643 671 565L539 495Q516 542 483.5 560.5Q451 579 397 579Q354 579 321.5 568Q289 557 267 531Q245 505 233.5 461Q222 417 222 350Q222 283 233.5 238Q245 193 267.5 166Q290 139 322.5 127.5Q355 116 398 116Q458 116 499 148.5Q540 181 544 256H400V378H694V287Q694 200 670 142.5Q646 85 604.5 50Q563 15 507.5 0.5Q452 -14 388 -14Z" glyph-name="Gbreve.alt" horiz-adv-x="753" /><glyph d="M57 0ZM396 833 335 775H210V779L333 908H464L589 779V775H457ZM369 -14Q296 -14 238 8Q180 30 140 75.5Q100 121 78.5 189.5Q57 258 57 351Q57 541 142.5 627.5Q228 714 398 714Q502 714 569 679Q636 644 671 565L540 495Q516 542 483.5 560.5Q451 579 397 579Q355 579 322 568Q289 557 267 531Q245 505 233.5 461Q222 417 222 350Q222 283 233.5 238Q245 193 267.5 166Q290 139 323 127.5Q356 116 399 116Q425 116 450 123Q475 130 495.5 145.5Q516 161 529.5 186Q543 211 546 248V256H400V378H694V0H578L568 86Q540 39 489 12.5Q438 -14 369 -14Z" glyph-name="Gcircumflex" horiz-adv-x="750" unicode="&#284;" /><glyph d="M393 832 332 775H207V778L330 908H461L586 778V775H454ZM388 -14Q220 -14 138.5 75.5Q57 165 57 351Q57 541 142.5 627.5Q228 714 398 714Q501 714 568.5 678.5Q636 643 671 565L539 495Q516 542 483.5 560.5Q451 579 397 579Q354 579 321.5 568Q289 557 267 531Q245 505 233.5 461Q222 417 222 350Q222 283 233.5 238Q245 193 267.5 166Q290 139 322.5 127.5Q355 116 398 116Q458 116 499 148.5Q540 181 544 256H400V378H694V287Q694 200 670 142.5Q646 85 604.5 50Q563 15 507.5 0.5Q452 -14 388 -14Z" glyph-name="Gcircumflex.alt" horiz-adv-x="753" /><glyph d="M57 0ZM334 -333 306 -275Q338 -267 359 -247.5Q380 -228 387 -201H385Q347 -201 324.5 -183Q302 -165 302 -130Q302 -92 324 -73.5Q346 -55 386 -55Q427 -55 450 -79Q473 -103 473 -154Q473 -188 463 -218Q453 -248 435 -271.5Q417 -295 391.5 -311Q366 -327 334 -333ZM369 -14Q296 -14 238 8Q180 30 140 75.5Q100 121 78.5 189.5Q57 258 57 351Q57 541 142.5 627.5Q228 714 398 714Q502 714 569 679Q636 644 671 565L540 495Q516 542 483.5 560.5Q451 579 397 579Q355 579 322 568Q289 557 267 531Q245 505 233.5 461Q222 417 222 350Q222 283 233.5 238Q245 193 267.5 166Q290 139 323 127.5Q356 116 399 116Q425 116 450 123Q475 130 495.5 145.5Q516 161 529.5 186Q543 211 546 248V256H400V378H694V0H578L568 86Q540 39 489 12.5Q438 -14 369 -14Z" glyph-name="Gcommaaccent" horiz-adv-x="750" unicode="&#290;" /><glyph d="M388 -14Q220 -14 138.5 75.5Q57 165 57 351Q57 541 142.5 627.5Q228 714 398 714Q501 714 568.5 678.5Q636 643 671 565L539 495Q516 542 483.5 560.5Q451 579 397 579Q354 579 321.5 568Q289 557 267 531Q245 505 233.5 461Q222 417 222 350Q222 283 233.5 238Q245 193 267.5 166Q290 139 322.5 127.5Q355 116 398 116Q458 116 499 148.5Q540 181 544 256H400V378H694V287Q694 200 670 142.5Q646 85 604.5 50Q563 15 507.5 0.5Q452 -14 388 -14ZM331 -333 303 -275Q335 -267 356 -247.5Q377 -228 384 -201H382Q343 -201 321 -183Q299 -165 299 -130Q299 -92 321 -73.5Q343 -55 383 -55Q424 -55 447 -79Q470 -103 470 -154Q470 -188 460 -218Q450 -248 432 -271.5Q414 -295 388.5 -311Q363 -327 331 -333Z" glyph-name="Gcommaaccent.alt" horiz-adv-x="753" /><glyph d="M57 0ZM369 -14Q296 -14 238 8Q180 30 140 75.5Q100 121 78.5 189.5Q57 258 57 351Q57 541 142.5 627.5Q228 714 398 714Q502 714 569 679Q636 644 671 565L540 495Q516 542 483.5 560.5Q451 579 397 579Q355 579 322 568Q289 557 267 531Q245 505 233.5 461Q222 417 222 350Q222 283 233.5 238Q245 193 267.5 166Q290 139 323 127.5Q356 116 399 116Q425 116 450 123Q475 130 495.5 145.5Q516 161 529.5 186Q543 211 546 248V256H400V378H694V0H578L568 86Q540 39 489 12.5Q438 -14 369 -14ZM310 849Q310 887 333 905.5Q356 924 398 924Q440 924 462 905.5Q484 887 484 849Q484 811 462 792.5Q440 774 398 774Q356 774 333 792.5Q310 811 310 849Z" glyph-name="Gdotaccent" horiz-adv-x="750" unicode="&#288;" /><glyph d="M307 848Q307 887 330 905.5Q353 924 395 924Q436 924 458.5 905.5Q481 887 481 848Q481 810 458.5 791.5Q436 773 395 773Q353 773 330 791.5Q307 810 307 848ZM388 -14Q220 -14 138.5 75.5Q57 165 57 351Q57 541 142.5 627.5Q228 714 398 714Q501 714 568.5 678.5Q636 643 671 565L539 495Q516 542 483.5 560.5Q451 579 397 579Q354 579 321.5 568Q289 557 267 531Q245 505 233.5 461Q222 417 222 350Q222 283 233.5 238Q245 193 267.5 166Q290 139 322.5 127.5Q355 116 398 116Q458 116 499 148.5Q540 181 544 256H400V378H694V287Q694 200 670 142.5Q646 85 604.5 50Q563 15 507.5 0.5Q452 -14 388 -14Z" glyph-name="Gdotaccent.alt" horiz-adv-x="753" /><glyph d="M558 0V280H257V0H93V700H257V420H558V700H722V0Z" glyph-name="H" horiz-adv-x="815" unicode="H" /><glyph d="M267 420H568V501H267ZM568 0V280H267V0H103V501H37V586H103V700H267V586H568V700H732V586H797V501H732V0Z" glyph-name="Hbar" horiz-adv-x="835" unicode="&#294;" /><glyph d="M93 0ZM406 833 345 775H220V779L343 908H474L599 779V775H467ZM558 0V280H257V0H93V700H257V420H558V700H722V0Z" glyph-name="Hcircumflex" horiz-adv-x="815" unicode="&#292;" /><glyph d="M93 0V700H257V0Z" glyph-name="I" horiz-adv-x="350" unicode="I" /><glyph d="M94 0ZM94 0V700H258V0ZM541 -14Q494 -14 444.5 0Q395 14 353 48L419 162Q445 140 476.5 129Q508 118 539 118Q593 118 624.5 150.5Q656 183 656 261V700H821V262Q821 185 800 132.5Q779 80 742 47.5Q705 15 653.5 0.5Q602 -14 541 -14Z" glyph-name="IJ" horiz-adv-x="897" unicode="&#306;" /><glyph d="M93 0ZM93 0V700H257V0ZM354 902 225 775H103V780L184 908H354Z" glyph-name="Iacute" horiz-adv-x="350" unicode="&#205;" /><glyph d="M4 0ZM93 0V700H257V0ZM249 907H346Q346 867 334.5 840Q323 813 301 797Q279 781 247 774Q215 767 175 767Q134 767 102.5 774Q71 781 49 797Q27 813 15.5 840Q4 867 4 907H101Q101 871 119 858Q137 845 175 845Q213 845 231 858Q249 871 249 907Z" glyph-name="Ibreve" horiz-adv-x="350" unicode="&#300;" /><glyph d="M0 0ZM93 0V700H257V0ZM173 832 112 774H-13V778L110 907H241L366 778V774H234Z" glyph-name="Icircumflex" horiz-adv-x="350" unicode="&#206;" /><glyph d="M0 0ZM93 0V700H257V0ZM197 848Q197 886 219 904Q241 922 281 922Q321 922 342.5 904Q364 886 364 848Q364 810 342.5 791.5Q321 773 281 773Q241 773 219 791.5Q197 810 197 848ZM-13 848Q-13 886 9 904Q31 922 70 922Q110 922 131.5 904Q153 886 153 848Q153 810 131.5 791.5Q110 773 70 773Q31 773 9 791.5Q-13 810 -13 848Z" glyph-name="Idieresis" horiz-adv-x="350" unicode="&#207;" /><glyph d="M88 0ZM93 0V700H257V0ZM88 848Q88 886 111 904.5Q134 923 176 923Q218 923 240 904.5Q262 886 262 848Q262 810 240 791.5Q218 773 176 773Q134 773 111 791.5Q88 810 88 848Z" glyph-name="Idotaccent" horiz-adv-x="350" unicode="&#304;" /><glyph d="M0 0ZM93 0V700H257V0ZM124 775 -5 902V908H169L248 780V775Z" glyph-name="Igrave" horiz-adv-x="350" unicode="&#204;" /><glyph d="M31 0ZM93 0V700H257V0ZM320 880V793H31V880Z" glyph-name="Imacron" horiz-adv-x="350" unicode="&#298;" /><glyph d="M138 -229Q111 -229 85 -223Q59 -217 38.5 -202.5Q18 -188 5.5 -164.5Q-7 -141 -7 -105Q-7 -51 22 -16Q51 19 93 35V700H257V0H177Q129 -4 107.5 -31Q86 -58 86 -90Q86 -119 104.5 -130Q123 -141 149 -141Q167 -141 184 -137Q201 -133 216 -124L238 -202Q194 -229 138 -229Z" glyph-name="Iogonek" horiz-adv-x="350" unicode="&#302;" /><glyph d="M0 0ZM93 0V700H257V0ZM262 903H357Q360 868 351 844.5Q342 821 327 807Q312 793 293 787Q274 781 255 781Q232 781 213 786.5Q194 792 177 798Q160 804 145 809.5Q130 815 116 815Q99 815 93.5 804.5Q88 794 88 781H-7Q-9 816 -0.5 839.5Q8 863 23 877.5Q38 892 57 898Q76 904 95 904Q118 904 137 898.5Q156 893 173 886.5Q190 880 205 874.5Q220 869 234 869Q252 869 257 879Q262 889 262 903Z" glyph-name="Itilde" horiz-adv-x="350" unicode="&#296;" /><glyph d="M188 -14Q141 -14 91.5 0Q42 14 0 48L66 162Q92 140 123.5 129Q155 118 186 118Q240 118 271.5 150.5Q303 183 303 261V700H468V262Q468 185 447 132.5Q426 80 389 47.5Q352 15 300.5 0.5Q249 -14 188 -14Z" glyph-name="J" horiz-adv-x="544" unicode="J" /><glyph d="M0 0ZM387 832 326 774H201V778L324 907H455L580 778V774H448ZM188 -14Q141 -14 91.5 0Q42 14 0 48L66 162Q92 140 123.5 129Q155 118 186 118Q240 118 271.5 150.5Q303 183 303 261V700H468V262Q468 185 447 132.5Q426 80 389 47.5Q352 15 300.5 0.5Q249 -14 188 -14Z" glyph-name="Jcircumflex" horiz-adv-x="544" unicode="&#308;" /><glyph d="M93 0V700H257L256 372L517 700H710L451 389L711 0H514L339 270L257 176V0Z" glyph-name="K" horiz-adv-x="719" unicode="K" /><glyph d="M512 0 258 328V0H92V700H258V347L518 700H706L439 350L718 0Z" glyph-name="K.alt" horiz-adv-x="721" /><glyph d="M93 0ZM329 -333 301 -275Q333 -267 354 -247.5Q375 -228 382 -201H380Q342 -201 319.5 -183Q297 -165 297 -130Q297 -92 319 -73.5Q341 -55 381 -55Q422 -55 445 -79Q468 -103 468 -154Q468 -188 458 -218Q448 -248 430 -271.5Q412 -295 386.5 -311Q361 -327 329 -333ZM93 0V700H257L256 372L517 700H710L451 389L711 0H514L339 270L257 176V0Z" glyph-name="Kcommaaccent" horiz-adv-x="719" unicode="&#310;" /><glyph d="M92 0ZM329 -333 301 -275Q333 -267 354 -247.5Q375 -228 382 -201H380Q342 -201 319.5 -183Q297 -165 297 -130Q297 -92 319 -73.5Q341 -55 381 -55Q422 -55 445 -79Q468 -103 468 -154Q468 -188 458 -218Q448 -248 430 -271.5Q412 -295 386.5 -311Q361 -327 329 -333ZM512 0 258 328V0H92V700H258V347L518 700H706L439 350L718 0Z" glyph-name="Kcommaaccent.alt" horiz-adv-x="721" /><glyph d="M258 136H620V0H93V700H258Z" glyph-name="L" horiz-adv-x="646" unicode="L" /><glyph d="M93 0ZM354 901 225 774H103V779L184 907H354ZM258 136H620V0H93V700H258Z" glyph-name="Lacute" horiz-adv-x="646" unicode="&#313;" /><glyph d="M93 0ZM502 441H400L407 700H535ZM258 136H620V0H93V700H258Z" glyph-name="Lcaron" horiz-adv-x="646" unicode="&#317;" /><glyph d="M93 0ZM307 -333 279 -275Q311 -267 332 -247.5Q353 -228 360 -201H358Q320 -201 297.5 -183Q275 -165 275 -130Q275 -92 297 -73.5Q319 -55 359 -55Q400 -55 423 -79Q446 -103 446 -154Q446 -188 436 -218Q426 -248 408 -271.5Q390 -295 364.5 -311Q339 -327 307 -333ZM258 136H620V0H93V700H258Z" glyph-name="Lcommaaccent" horiz-adv-x="646" unicode="&#315;" /><glyph d="M93 0ZM258 136H620V0H93V700H258ZM399 361Q399 399 422 417.5Q445 436 487 436Q529 436 551 417.5Q573 399 573 361Q573 323 551 304.5Q529 286 487 286Q445 286 422 304.5Q399 323 399 361Z" glyph-name="Ldot" horiz-adv-x="646" unicode="&#319;" /><glyph d="M275 136H638V0H111V218L23 168V295L111 345V700H275V427L441 518V390L275 300Z" glyph-name="Lslash" horiz-adv-x="663" unicode="&#321;" /><glyph d="M430 0 236 440 242 0H93V700H268L491 187L712 700H892V0H737L744 451L547 0Z" glyph-name="M" horiz-adv-x="985" unicode="M" /><glyph d="M572 0 244 444 248 0H93V700H222L564 233L560 700H716V0Z" glyph-name="N" horiz-adv-x="808" unicode="N" /><glyph glyph-name="NULL" horiz-adv-x="176" /><glyph d="M93 0ZM582 902 453 775H331V780L412 908H582ZM572 0 244 444 248 0H93V700H222L564 233L560 700H716V0Z" glyph-name="Nacute" horiz-adv-x="808" unicode="&#323;" /><glyph d="M93 0ZM408 851 470 908H594V906L470 775H339L215 906V908H346ZM572 0 244 444 248 0H93V700H222L564 233L560 700H716V0Z" glyph-name="Ncaron" horiz-adv-x="808" unicode="&#327;" /><glyph d="M93 0ZM355 -333 327 -275Q359 -267 380 -247.5Q401 -228 408 -201H406Q368 -201 345.5 -183Q323 -165 323 -130Q323 -92 345 -73.5Q367 -55 407 -55Q448 -55 471 -79Q494 -103 494 -154Q494 -188 484 -218Q474 -248 456 -271.5Q438 -295 412.5 -311Q387 -327 355 -333ZM572 0 244 444 248 0H93V700H222L564 233L560 700H716V0Z" glyph-name="Ncommaaccent" horiz-adv-x="808" unicode="&#325;" /><glyph d="M93 0ZM572 0 244 444 248 0H93V700H222L564 233L560 700H716V0ZM490 903H585Q588 868 579 844.5Q570 821 555 807Q540 793 521 787Q502 781 483 781Q460 781 441 786.5Q422 792 405 798Q388 804 373 809.5Q358 815 344 815Q327 815 321.5 804.5Q316 794 316 781H221Q219 816 227.5 839.5Q236 863 251 877.5Q266 892 285 898Q304 904 323 904Q346 904 365 898.5Q384 893 401 886.5Q418 880 433 874.5Q448 869 462 869Q480 869 485 879Q490 889 490 903Z" glyph-name="Ntilde" horiz-adv-x="808" unicode="&#209;" /><glyph d="M396 -14Q219 -14 138 76Q57 166 57 351Q57 536 140.5 625Q224 714 397 714Q576 714 656 624.5Q736 535 736 350Q736 165 652 75.5Q568 -14 396 -14ZM396 580Q353 580 320.5 568.5Q288 557 266 530Q244 503 233 459Q222 415 222 349Q222 285 233 241Q244 197 266 170Q288 143 320.5 131Q353 119 396 119Q439 119 471.5 131Q504 143 526 170Q548 197 559 241.5Q570 286 570 351Q570 415 559 459Q548 503 526 530Q504 557 471.5 568.5Q439 580 396 580Z" glyph-name="O" horiz-adv-x="793" unicode="O" /><glyph d="M1056 0H385Q221 0 138.5 86.5Q56 173 56 352Q56 528 136.5 614Q217 700 387 700H1046V571H673V418H996V288H673V129H1056ZM386 132H512V568H391Q350 568 318 556.5Q286 545 264.5 519Q243 493 232 451.5Q221 410 221 350Q221 232 263.5 182Q306 132 386 132Z" glyph-name="OE" horiz-adv-x="1100" unicode="&#338;" /><glyph d="M57 0ZM573 902 444 775H322V780L403 908H573ZM396 -14Q219 -14 138 76Q57 166 57 351Q57 536 140.5 625Q224 714 397 714Q576 714 656 624.5Q736 535 736 350Q736 165 652 75.5Q568 -14 396 -14ZM396 580Q353 580 320.5 568.5Q288 557 266 530Q244 503 233 459Q222 415 222 349Q222 285 233 241Q244 197 266 170Q288 143 320.5 131Q353 119 396 119Q439 119 471.5 131Q504 143 526 170Q548 197 559 241.5Q570 286 570 351Q570 415 559 459Q548 503 526 530Q504 557 471.5 568.5Q439 580 396 580Z" glyph-name="Oacute" horiz-adv-x="793" unicode="&#211;" /><glyph d="M57 0ZM396 -14Q219 -14 138 76Q57 166 57 351Q57 536 140.5 625Q224 714 397 714Q576 714 656 624.5Q736 535 736 350Q736 165 652 75.5Q568 -14 396 -14ZM396 580Q353 580 320.5 568.5Q288 557 266 530Q244 503 233 459Q222 415 222 349Q222 285 233 241Q244 197 266 170Q288 143 320.5 131Q353 119 396 119Q439 119 471.5 131Q504 143 526 170Q548 197 559 241.5Q570 286 570 351Q570 415 559 459Q548 503 526 530Q504 557 471.5 568.5Q439 580 396 580ZM468 908H565Q565 868 553.5 841Q542 814 520 798Q498 782 466 775Q434 768 394 768Q353 768 321.5 775Q290 782 268 798Q246 814 234.5 841Q223 868 223 908H320Q320 872 338 859Q356 846 394 846Q432 846 450 859Q468 872 468 908Z" glyph-name="Obreve" horiz-adv-x="793" unicode="&#334;" /><glyph d="M57 0ZM392 833 331 775H206V779L329 908H460L585 779V775H453ZM396 -14Q219 -14 138 76Q57 166 57 351Q57 536 140.5 625Q224 714 397 714Q576 714 656 624.5Q736 535 736 350Q736 165 652 75.5Q568 -14 396 -14ZM396 580Q353 580 320.5 568.5Q288 557 266 530Q244 503 233 459Q222 415 222 349Q222 285 233 241Q244 197 266 170Q288 143 320.5 131Q353 119 396 119Q439 119 471.5 131Q504 143 526 170Q548 197 559 241.5Q570 286 570 351Q570 415 559 459Q548 503 526 530Q504 557 471.5 568.5Q439 580 396 580Z" glyph-name="Ocircumflex" horiz-adv-x="793" unicode="&#212;" /><glyph d="M57 0ZM418 849Q418 887 440 905Q462 923 502 923Q542 923 563.5 905Q585 887 585 849Q585 811 563.5 792.5Q542 774 502 774Q462 774 440 792.5Q418 811 418 849ZM208 849Q208 887 230 905Q252 923 291 923Q331 923 352.5 905Q374 887 374 849Q374 811 352.5 792.5Q331 774 291 774Q252 774 230 792.5Q208 811 208 849ZM396 -14Q219 -14 138 76Q57 166 57 351Q57 536 140.5 625Q224 714 397 714Q576 714 656 624.5Q736 535 736 350Q736 165 652 75.5Q568 -14 396 -14ZM396 580Q353 580 320.5 568.5Q288 557 266 530Q244 503 233 459Q222 415 222 349Q222 285 233 241Q244 197 266 170Q288 143 320.5 131Q353 119 396 119Q439 119 471.5 131Q504 143 526 170Q548 197 559 241.5Q570 286 570 351Q570 415 559 459Q548 503 526 530Q504 557 471.5 568.5Q439 580 396 580Z" glyph-name="Odieresis" horiz-adv-x="793" unicode="&#214;" /><glyph d="M57 0ZM396 -14Q219 -14 138 76Q57 166 57 351Q57 536 140.5 625Q224 714 397 714Q576 714 656 624.5Q736 535 736 350Q736 165 652 75.5Q568 -14 396 -14ZM396 580Q353 580 320.5 568.5Q288 557 266 530Q244 503 233 459Q222 415 222 349Q222 285 233 241Q244 197 266 170Q288 143 320.5 131Q353 119 396 119Q439 119 471.5 131Q504 143 526 170Q548 197 559 241.5Q570 286 570 351Q570 415 559 459Q548 503 526 530Q504 557 471.5 568.5Q439 580 396 580ZM343 776 214 903V909H388L467 781V776Z" glyph-name="Ograve" horiz-adv-x="793" unicode="&#210;" /><glyph d="M57 0ZM661 903 531 775H416V780L495 908H661ZM457 902 345 775H238V780L306 908H457ZM396 -14Q219 -14 138 76Q57 166 57 351Q57 536 140.5 625Q224 714 397 714Q576 714 656 624.5Q736 535 736 350Q736 165 652 75.5Q568 -14 396 -14ZM396 580Q353 580 320.5 568.5Q288 557 266 530Q244 503 233 459Q222 415 222 349Q222 285 233 241Q244 197 266 170Q288 143 320.5 131Q353 119 396 119Q439 119 471.5 131Q504 143 526 170Q548 197 559 241.5Q570 286 570 351Q570 415 559 459Q548 503 526 530Q504 557 471.5 568.5Q439 580 396 580Z" glyph-name="Ohungarumlaut" horiz-adv-x="793" unicode="&#336;" /><glyph d="M57 0ZM539 881V794H250V881ZM396 -14Q219 -14 138 76Q57 166 57 351Q57 536 140.5 625Q224 714 397 714Q576 714 656 624.5Q736 535 736 350Q736 165 652 75.5Q568 -14 396 -14ZM396 580Q353 580 320.5 568.5Q288 557 266 530Q244 503 233 459Q222 415 222 349Q222 285 233 241Q244 197 266 170Q288 143 320.5 131Q353 119 396 119Q439 119 471.5 131Q504 143 526 170Q548 197 559 241.5Q570 286 570 351Q570 415 559 459Q548 503 526 530Q504 557 471.5 568.5Q439 580 396 580Z" glyph-name="Omacron" horiz-adv-x="793" unicode="&#332;" /><glyph d="M154 0H39L126 99Q93 145 77.5 207.5Q62 270 62 350Q62 535 145.5 624.5Q229 714 402 714Q539 714 616 659L652 700H768L679 598Q741 509 741 350Q741 163 658.5 74.5Q576 -14 404 -14Q267 -14 188 40ZM515 544Q494 564 465.5 572Q437 580 401 580Q358 580 325.5 568.5Q293 557 271 530.5Q249 504 238 460Q227 416 227 350Q227 276 243 234ZM287 154Q308 134 336.5 126.5Q365 119 401 119Q444 119 476.5 130.5Q509 142 531 169Q553 196 564 240.5Q575 285 575 351Q575 420 560 465Z" glyph-name="Oslash" horiz-adv-x="803" unicode="&#216;" /><glyph d="M57 0ZM396 -14Q219 -14 138 76Q57 166 57 351Q57 536 140.5 625Q224 714 397 714Q576 714 656 624.5Q736 535 736 350Q736 165 652 75.5Q568 -14 396 -14ZM396 580Q353 580 320.5 568.5Q288 557 266 530Q244 503 233 459Q222 415 222 349Q222 285 233 241Q244 197 266 170Q288 143 320.5 131Q353 119 396 119Q439 119 471.5 131Q504 143 526 170Q548 197 559 241.5Q570 286 570 351Q570 415 559 459Q548 503 526 530Q504 557 471.5 568.5Q439 580 396 580ZM480 904H575Q578 869 569 845.5Q560 822 545 808Q530 794 511 788Q492 782 473 782Q450 782 431 787.5Q412 793 395 799Q378 805 363 810.5Q348 816 334 816Q317 816 311.5 805.5Q306 795 306 782H211Q209 817 217.5 840.5Q226 864 241 878.5Q256 893 275 899Q294 905 313 905Q336 905 355 899.5Q374 894 391 887.5Q408 881 423 875.5Q438 870 452 870Q470 870 475 880Q480 890 480 904Z" glyph-name="Otilde" horiz-adv-x="793" unicode="&#213;" /><glyph d="M93 0V700H422Q483 700 529.5 682.5Q576 665 606.5 632.5Q637 600 652.5 554.5Q668 509 668 453Q668 333 597.5 269.5Q527 206 403 206H257V0ZM396 562H257V339H397Q448 339 477 368.5Q506 398 506 455Q506 500 480 531Q454 562 396 562Z" glyph-name="P" horiz-adv-x="701" unicode="P" /><glyph d="M607 37 686 -88H540L488 -6Q467 -10 444 -12Q421 -14 396 -14Q219 -14 138 76Q57 166 57 351Q57 536 140.5 625Q224 714 397 714Q576 714 656 624.5Q736 535 736 350Q736 122 607 37ZM396 584Q353 584 320.5 572Q288 560 266 532.5Q244 505 233 460Q222 415 222 348Q222 283 233 238.5Q244 194 266 167Q288 140 320.5 128Q353 116 396 116H410L338 229H486L526 166Q548 193 559.5 238Q571 283 571 350Q571 415 560 460Q549 505 527 532.5Q505 560 472 572Q439 584 396 584Z" glyph-name="Q" horiz-adv-x="791" unicode="Q" /><glyph d="M407 565H254V361H404Q453 361 480.5 387.5Q508 414 508 466Q508 510 484.5 537.5Q461 565 407 565ZM254 230V0H93V700H434Q552 700 611.5 637.5Q671 575 671 470Q671 392 640.5 339.5Q610 287 553 261L679 0H499L393 230Z" glyph-name="R" horiz-adv-x="714" unicode="R" /><glyph d="M93 0ZM560 902 431 775H309V780L390 908H560ZM407 565H254V361H404Q453 361 480.5 387.5Q508 414 508 466Q508 510 484.5 537.5Q461 565 407 565ZM254 230V0H93V700H434Q552 700 611.5 637.5Q671 575 671 470Q671 392 640.5 339.5Q610 287 553 261L679 0H499L393 230Z" glyph-name="Racute" horiz-adv-x="714" unicode="&#340;" /><glyph d="M93 0ZM386 851 448 908H572V906L448 775H317L193 906V908H324ZM407 565H254V361H404Q453 361 480.5 387.5Q508 414 508 466Q508 510 484.5 537.5Q461 565 407 565ZM254 230V0H93V700H434Q552 700 611.5 637.5Q671 575 671 470Q671 392 640.5 339.5Q610 287 553 261L679 0H499L393 230Z" glyph-name="Rcaron" horiz-adv-x="714" unicode="&#344;" /><glyph d="M93 0ZM317 -333 289 -275Q321 -267 342 -247.5Q363 -228 370 -201H368Q330 -201 307.5 -183Q285 -165 285 -130Q285 -92 307 -73.5Q329 -55 369 -55Q410 -55 433 -79Q456 -103 456 -154Q456 -188 446 -218Q436 -248 418 -271.5Q400 -295 374.5 -311Q349 -327 317 -333ZM407 565H254V361H404Q453 361 480.5 387.5Q508 414 508 466Q508 510 484.5 537.5Q461 565 407 565ZM254 230V0H93V700H434Q552 700 611.5 637.5Q671 575 671 470Q671 392 640.5 339.5Q610 287 553 261L679 0H499L393 230Z" glyph-name="Rcommaaccent" horiz-adv-x="714" unicode="&#342;" /><glyph d="M577 583 465 509Q440 547 405 569Q370 591 314 591Q252 591 225.5 569.5Q199 548 199 514Q199 499 203 486Q207 473 218.5 462Q230 451 249.5 441.5Q269 432 299 425L369 409Q488 382 540 331Q592 280 592 201Q592 99 518.5 42.5Q445 -14 308 -14Q264 -14 222.5 -7.5Q181 -1 144.5 14.5Q108 30 77.5 56Q47 82 24 121L131 200Q161 151 204.5 126Q248 101 308 101Q438 101 438 184Q438 215 416.5 235.5Q395 256 334 270L265 286Q148 313 99 369.5Q50 426 50 503Q50 548 67.5 586.5Q85 625 119 653.5Q153 682 202 698Q251 714 313 714Q404 714 470.5 684.5Q537 655 577 583Z" glyph-name="S" horiz-adv-x="637" unicode="S" /><glyph d="M24 0ZM493 902 364 775H242V780L323 908H493ZM577 583 465 509Q440 547 405 569Q370 591 314 591Q252 591 225.5 569.5Q199 548 199 514Q199 499 203 486Q207 473 218.5 462Q230 451 249.5 441.5Q269 432 299 425L369 409Q488 382 540 331Q592 280 592 201Q592 99 518.5 42.5Q445 -14 308 -14Q264 -14 222.5 -7.5Q181 -1 144.5 14.5Q108 30 77.5 56Q47 82 24 121L131 200Q161 151 204.5 126Q248 101 308 101Q438 101 438 184Q438 215 416.5 235.5Q395 256 334 270L265 286Q148 313 99 369.5Q50 426 50 503Q50 548 67.5 586.5Q85 625 119 653.5Q153 682 202 698Q251 714 313 714Q404 714 470.5 684.5Q537 655 577 583Z" glyph-name="Sacute" horiz-adv-x="637" unicode="&#346;" /><glyph d="M24 0ZM319 851 381 908H505V906L381 775H250L126 906V908H257ZM577 583 465 509Q440 547 405 569Q370 591 314 591Q252 591 225.5 569.5Q199 548 199 514Q199 499 203 486Q207 473 218.5 462Q230 451 249.5 441.5Q269 432 299 425L369 409Q488 382 540 331Q592 280 592 201Q592 99 518.5 42.5Q445 -14 308 -14Q264 -14 222.5 -7.5Q181 -1 144.5 14.5Q108 30 77.5 56Q47 82 24 121L131 200Q161 151 204.5 126Q248 101 308 101Q438 101 438 184Q438 215 416.5 235.5Q395 256 334 270L265 286Q148 313 99 369.5Q50 426 50 503Q50 548 67.5 586.5Q85 625 119 653.5Q153 682 202 698Q251 714 313 714Q404 714 470.5 684.5Q537 655 577 583Z" glyph-name="Scaron" horiz-adv-x="637" unicode="&#352;" /><glyph d="M308 -251Q263 -251 226 -234Q189 -217 167 -182L221 -127Q236 -150 254.5 -162.5Q273 -175 302 -175Q323 -175 337.5 -166.5Q352 -158 352 -139Q352 -122 338 -112Q324 -102 299 -102Q293 -102 287.5 -102.5Q282 -103 276 -104L253 -89L278 -13Q198 -9 132 20.5Q66 50 24 121L131 200Q161 151 204.5 126Q248 101 308 101Q438 101 438 184Q438 215 416.5 235.5Q395 256 334 270L265 286Q148 313 99 369.5Q50 426 50 503Q50 548 67.5 586.5Q85 625 119 653.5Q153 682 202 698Q251 714 313 714Q404 714 470.5 684.5Q537 655 577 583L465 509Q440 547 405 569Q370 591 314 591Q252 591 225.5 569.5Q199 548 199 514Q199 499 203 486Q207 473 218.5 462Q230 451 249.5 441.5Q269 432 299 425L369 409Q488 382 540 331Q592 280 592 201Q592 109 531.5 54Q471 -1 358 -12L344 -50H345Q365 -52 383.5 -58Q402 -64 416 -75.5Q430 -87 438.5 -103.5Q447 -120 447 -142Q447 -170 435.5 -190.5Q424 -211 405 -224.5Q386 -238 361 -244.5Q336 -251 308 -251Z" glyph-name="Scedilla" horiz-adv-x="637" unicode="&#350;" /><glyph d="M24 0ZM312 832 251 774H126V778L249 907H380L505 778V774H373ZM577 583 465 509Q440 547 405 569Q370 591 314 591Q252 591 225.5 569.5Q199 548 199 514Q199 499 203 486Q207 473 218.5 462Q230 451 249.5 441.5Q269 432 299 425L369 409Q488 382 540 331Q592 280 592 201Q592 99 518.5 42.5Q445 -14 308 -14Q264 -14 222.5 -7.5Q181 -1 144.5 14.5Q108 30 77.5 56Q47 82 24 121L131 200Q161 151 204.5 126Q248 101 308 101Q438 101 438 184Q438 215 416.5 235.5Q395 256 334 270L265 286Q148 313 99 369.5Q50 426 50 503Q50 548 67.5 586.5Q85 625 119 653.5Q153 682 202 698Q251 714 313 714Q404 714 470.5 684.5Q537 655 577 583Z" glyph-name="Scircumflex" horiz-adv-x="637" unicode="&#348;" /><glyph d="M24 0ZM261 -333 233 -275Q265 -267 286 -247.5Q307 -228 314 -201H312Q274 -201 251.5 -183Q229 -165 229 -130Q229 -92 251 -73.5Q273 -55 313 -55Q354 -55 377 -79Q400 -103 400 -154Q400 -188 390 -218Q380 -248 362 -271.5Q344 -295 318.5 -311Q293 -327 261 -333ZM577 583 465 509Q440 547 405 569Q370 591 314 591Q252 591 225.5 569.5Q199 548 199 514Q199 499 203 486Q207 473 218.5 462Q230 451 249.5 441.5Q269 432 299 425L369 409Q488 382 540 331Q592 280 592 201Q592 99 518.5 42.5Q445 -14 308 -14Q264 -14 222.5 -7.5Q181 -1 144.5 14.5Q108 30 77.5 56Q47 82 24 121L131 200Q161 151 204.5 126Q248 101 308 101Q438 101 438 184Q438 215 416.5 235.5Q395 256 334 270L265 286Q148 313 99 369.5Q50 426 50 503Q50 548 67.5 586.5Q85 625 119 653.5Q153 682 202 698Q251 714 313 714Q404 714 470.5 684.5Q537 655 577 583Z" glyph-name="Scommaaccent" horiz-adv-x="637" unicode="&#536;" /><glyph d="M14 700H606V562H392V0H228V562H14Z" glyph-name="T" horiz-adv-x="620" unicode="T" /><glyph d="M14 700H606V562H393V395H557V282H393V0H228V282H65V395H228V562H14Z" glyph-name="Tbar" horiz-adv-x="621" unicode="&#358;" /><glyph d="M14 0ZM314 851 376 908H500V906L376 775H245L121 906V908H252ZM14 700H606V562H392V0H228V562H14Z" glyph-name="Tcaron" horiz-adv-x="620" unicode="&#356;" /><glyph d="M248 -89 277 0H228V562H14V700H606V562H392V0H357L339 -50H340Q360 -52 378.5 -58Q397 -64 411 -75.5Q425 -87 433.5 -103.5Q442 -120 442 -142Q442 -170 430.5 -190.5Q419 -211 400 -224.5Q381 -238 356 -244.5Q331 -251 303 -251Q258 -251 221 -234Q184 -217 162 -182L216 -127Q231 -150 249.5 -162.5Q268 -175 297 -175Q318 -175 332.5 -166.5Q347 -158 347 -139Q347 -122 333 -112Q319 -102 294 -102Q288 -102 282.5 -102.5Q277 -103 271 -104Z" glyph-name="Tcedilla" horiz-adv-x="620" unicode="&#354;" /><glyph d="M93 0V700H257V592H420Q539 592 598.5 527Q658 462 658 354Q658 296 640 251.5Q622 207 588 177Q554 147 506.5 131.5Q459 116 400 116H257V0ZM394 454H257V249H395Q443 249 469.5 275.5Q496 302 496 354Q496 396 472 425Q448 454 394 454Z" glyph-name="Thorn" horiz-adv-x="690" unicode="&#222;" /><glyph d="M532 276V700H695V285Q695 206 674 149.5Q653 93 613.5 56.5Q574 20 516.5 3Q459 -14 387 -14Q237 -14 156.5 58Q76 130 76 285V700H240V276Q240 196 278.5 158.5Q317 121 386 121Q455 121 493.5 158.5Q532 196 532 276Z" glyph-name="U" horiz-adv-x="771" unicode="U" /><glyph d="M76 0ZM565 902 436 775H314V780L395 908H565ZM532 276V700H695V285Q695 206 674 149.5Q653 93 613.5 56.5Q574 20 516.5 3Q459 -14 387 -14Q237 -14 156.5 58Q76 130 76 285V700H240V276Q240 196 278.5 158.5Q317 121 386 121Q455 121 493.5 158.5Q532 196 532 276Z" glyph-name="Uacute" horiz-adv-x="771" unicode="&#218;" /><glyph d="M76 0ZM532 276V700H695V285Q695 206 674 149.5Q653 93 613.5 56.5Q574 20 516.5 3Q459 -14 387 -14Q237 -14 156.5 58Q76 130 76 285V700H240V276Q240 196 278.5 158.5Q317 121 386 121Q455 121 493.5 158.5Q532 196 532 276ZM460 907H557Q557 867 545.5 840Q534 813 512 797Q490 781 458 774Q426 767 386 767Q345 767 313.5 774Q282 781 260 797Q238 813 226.5 840Q215 867 215 907H312Q312 871 330 858Q348 845 386 845Q424 845 442 858Q460 871 460 907Z" glyph-name="Ubreve" horiz-adv-x="771" unicode="&#364;" /><glyph d="M76 0ZM384 832 323 774H198V778L321 907H452L577 778V774H445ZM532 276V700H695V285Q695 206 674 149.5Q653 93 613.5 56.5Q574 20 516.5 3Q459 -14 387 -14Q237 -14 156.5 58Q76 130 76 285V700H240V276Q240 196 278.5 158.5Q317 121 386 121Q455 121 493.5 158.5Q532 196 532 276Z" glyph-name="Ucircumflex" horiz-adv-x="771" unicode="&#219;" /><glyph d="M76 0ZM409 848Q409 886 431 904Q453 922 493 922Q533 922 554.5 904Q576 886 576 848Q576 810 554.5 791.5Q533 773 493 773Q453 773 431 791.5Q409 810 409 848ZM199 848Q199 886 221 904Q243 922 282 922Q322 922 343.5 904Q365 886 365 848Q365 810 343.5 791.5Q322 773 282 773Q243 773 221 791.5Q199 810 199 848ZM532 276V700H695V285Q695 206 674 149.5Q653 93 613.5 56.5Q574 20 516.5 3Q459 -14 387 -14Q237 -14 156.5 58Q76 130 76 285V700H240V276Q240 196 278.5 158.5Q317 121 386 121Q455 121 493.5 158.5Q532 196 532 276Z" glyph-name="Udieresis" horiz-adv-x="771" unicode="&#220;" /><glyph d="M76 0ZM532 276V700H695V285Q695 206 674 149.5Q653 93 613.5 56.5Q574 20 516.5 3Q459 -14 387 -14Q237 -14 156.5 58Q76 130 76 285V700H240V276Q240 196 278.5 158.5Q317 121 386 121Q455 121 493.5 158.5Q532 196 532 276ZM336 776 207 903V909H381L460 781V776Z" glyph-name="Ugrave" horiz-adv-x="771" unicode="&#217;" /><glyph d="M76 0ZM532 276V700H695V285Q695 206 674 149.5Q653 93 613.5 56.5Q574 20 516.5 3Q459 -14 387 -14Q237 -14 156.5 58Q76 130 76 285V700H240V276Q240 196 278.5 158.5Q317 121 386 121Q455 121 493.5 158.5Q532 196 532 276ZM652 902 522 774H407V779L486 907H652ZM448 901 336 774H229V779L297 907H448Z" glyph-name="Uhungarumlaut" horiz-adv-x="771" unicode="&#368;" /><glyph d="M76 0ZM532 276V700H695V285Q695 206 674 149.5Q653 93 613.5 56.5Q574 20 516.5 3Q459 -14 387 -14Q237 -14 156.5 58Q76 130 76 285V700H240V276Q240 196 278.5 158.5Q317 121 386 121Q455 121 493.5 158.5Q532 196 532 276ZM531 880V793H242V880Z" glyph-name="Umacron" horiz-adv-x="771" unicode="&#362;" /><glyph d="M362 -98Q362 -49 389 -14H381Q234 -12 155 59.5Q76 131 76 285V700H241V276Q241 196 279.5 159Q318 122 386 122Q455 122 493.5 159Q532 196 532 276V700H696V285Q696 166 648.5 98.5Q601 31 514 3Q482 -8 468.5 -31Q455 -54 455 -79Q455 -114 473.5 -127.5Q492 -141 518 -141Q554 -141 586 -123L607 -202Q563 -229 506 -229Q479 -229 453.5 -222.5Q428 -216 407.5 -200.5Q387 -185 374.5 -160Q362 -135 362 -98Z" glyph-name="Uogonek" horiz-adv-x="772" unicode="&#370;" /><glyph d="M76 0ZM271 856Q271 906 303.5 932.5Q336 959 386 959Q436 959 468 932.5Q500 906 500 856Q500 805 468 778.5Q436 752 385 752Q336 752 303.5 778.5Q271 805 271 856ZM341 856Q341 835 353 822.5Q365 810 385 810Q405 810 418 822.5Q431 835 431 856Q431 877 418.5 889Q406 901 386 901Q366 901 353.5 889Q341 877 341 856ZM532 276V700H695V285Q695 206 674 149.5Q653 93 613.5 56.5Q574 20 516.5 3Q459 -14 387 -14Q237 -14 156.5 58Q76 130 76 285V700H240V276Q240 196 278.5 158.5Q317 121 386 121Q455 121 493.5 158.5Q532 196 532 276Z" glyph-name="Uring" horiz-adv-x="771" unicode="&#366;" /><glyph d="M76 0ZM532 276V700H695V285Q695 206 674 149.5Q653 93 613.5 56.5Q574 20 516.5 3Q459 -14 387 -14Q237 -14 156.5 58Q76 130 76 285V700H240V276Q240 196 278.5 158.5Q317 121 386 121Q455 121 493.5 158.5Q532 196 532 276ZM473 903H568Q571 868 562 844.5Q553 821 538 807Q523 793 504 787Q485 781 466 781Q443 781 424 786.5Q405 792 388 798Q371 804 356 809.5Q341 815 327 815Q310 815 304.5 804.5Q299 794 299 781H204Q202 816 210.5 839.5Q219 863 234 877.5Q249 892 268 898Q287 904 306 904Q329 904 348 898.5Q367 893 384 886.5Q401 880 416 874.5Q431 869 445 869Q463 869 468 879Q473 889 473 903Z" glyph-name="Utilde" horiz-adv-x="771" unicode="&#360;" /><glyph d="M6 700H178L344 174L513 700H678L439 0H246Z" glyph-name="V" horiz-adv-x="685" unicode="V" /><glyph d="M414 699H558L681 224L802 700H963L763 0H603L483 470L361 0H205L6 700H173L290 226Z" glyph-name="W" horiz-adv-x="968" unicode="W" /><glyph d="M6 0ZM663 901 534 774H412V779L493 907H663ZM414 699H558L681 224L802 700H963L763 0H603L483 470L361 0H205L6 700H173L290 226Z" glyph-name="Wacute" horiz-adv-x="968" unicode="&#7810;" /><glyph d="M6 0ZM483 832 422 774H297V778L420 907H551L676 778V774H544ZM414 699H558L681 224L802 700H963L763 0H603L483 470L361 0H205L6 700H173L290 226Z" glyph-name="Wcircumflex" horiz-adv-x="968" unicode="&#372;" /><glyph d="M6 0ZM505 848Q505 886 527 904Q549 922 589 922Q629 922 650.5 904Q672 886 672 848Q672 810 650.5 791.5Q629 773 589 773Q549 773 527 791.5Q505 810 505 848ZM295 848Q295 886 317 904Q339 922 378 922Q418 922 439.5 904Q461 886 461 848Q461 810 439.5 791.5Q418 773 378 773Q339 773 317 791.5Q295 810 295 848ZM414 699H558L681 224L802 700H963L763 0H603L483 470L361 0H205L6 700H173L290 226Z" glyph-name="Wdieresis" horiz-adv-x="968" unicode="&#7812;" /><glyph d="M6 0ZM414 699H558L681 224L802 700H963L763 0H603L483 470L361 0H205L6 700H173L290 226ZM434 775 305 902V908H479L558 780V775Z" glyph-name="Wgrave" horiz-adv-x="968" unicode="&#7808;" /><glyph d="M494 0 340 240 187 0H9L249 354L23 700H215L357 463L497 700H674L444 358L687 0Z" glyph-name="X" horiz-adv-x="696" unicode="X" /><glyph d="M259 261 8 700H189L346 401L502 700H674L423 257V0H259Z" glyph-name="Y" horiz-adv-x="682" unicode="Y" /><glyph d="M8 0ZM259 261 8 700H189L346 401L502 700H674L423 257V0H259ZM520 902 391 775H269V780L350 908H520Z" glyph-name="Yacute" horiz-adv-x="682" unicode="&#221;" /><glyph d="M8 0ZM259 261 8 700H189L346 401L502 700H674L423 257V0H259ZM340 832 279 774H154V778L277 907H408L533 778V774H401Z" glyph-name="Ycircumflex" horiz-adv-x="682" unicode="&#374;" /><glyph d="M8 0ZM259 261 8 700H189L346 401L502 700H674L423 257V0H259ZM363 848Q363 886 385 904Q407 922 447 922Q487 922 508.5 904Q530 886 530 848Q530 810 508.5 791.5Q487 773 447 773Q407 773 385 791.5Q363 810 363 848ZM153 848Q153 886 175 904Q197 922 236 922Q276 922 297.5 904Q319 886 319 848Q319 810 297.5 791.5Q276 773 236 773Q197 773 175 791.5Q153 810 153 848Z" glyph-name="Ydieresis" horiz-adv-x="682" unicode="&#376;" /><glyph d="M21 0V102L383 571L37 568V700H583V599L221 129L590 132V0Z" glyph-name="Z" horiz-adv-x="613" unicode="Z" /><glyph d="M21 0ZM484 902 355 775H233V780L314 908H484ZM21 0V102L383 571L37 568V700H583V599L221 129L590 132V0Z" glyph-name="Zacute" horiz-adv-x="613" unicode="&#377;" /><glyph d="M21 0ZM309 851 371 908H495V906L371 775H240L116 906V908H247ZM21 0V102L383 571L37 568V700H583V599L221 129L590 132V0Z" glyph-name="Zcaron" horiz-adv-x="613" unicode="&#381;" /><glyph d="M21 0ZM21 0V102L383 571L37 568V700H583V599L221 129L590 132V0ZM218 848Q218 886 241 904.5Q264 923 306 923Q348 923 370 904.5Q392 886 392 848Q392 810 370 791.5Q348 773 306 773Q264 773 241 791.5Q218 810 218 848Z" glyph-name="Zdotaccent" horiz-adv-x="613" unicode="&#379;" /><glyph d="M258 86Q307 86 335.5 116.5Q364 147 364 204V213H280Q230 213 207 196.5Q184 180 184 145Q184 117 202 101.5Q220 86 258 86ZM375 74Q351 33 310 10Q269 -13 209 -13Q134 -13 87.5 24.5Q41 62 41 133Q41 214 99.5 259Q158 304 264 304H364Q361 357 333 375Q305 393 258 393Q208 393 173.5 378Q139 363 115 336L55 424Q127 510 282 510Q333 510 376.5 499.5Q420 489 451.5 464Q483 439 501 398Q519 357 519 297V0H386Z" glyph-name="a" horiz-adv-x="583" unicode="a" /><glyph d="M407 248Q407 326 376 359.5Q345 393 298 393Q247 393 220.5 359Q194 325 194 247Q194 104 298 104Q346 104 376.5 138.5Q407 173 407 248ZM428 0 418 79Q393 33 350.5 9.5Q308 -14 252 -14Q155 -14 98.5 51Q42 116 42 243Q42 379 101.5 444.5Q161 510 261 510Q317 510 358 489Q399 468 422 424L434 497H562V0Z" glyph-name="a.school" horiz-adv-x="631" /><glyph d="M41 0ZM258 86Q307 86 335.5 116.5Q364 147 364 204V213H280Q230 213 207 196.5Q184 180 184 145Q184 117 202 101.5Q220 86 258 86ZM375 74Q351 33 310 10Q269 -13 209 -13Q134 -13 87.5 24.5Q41 62 41 133Q41 214 99.5 259Q158 304 264 304H364Q361 357 333 375Q305 393 258 393Q208 393 173.5 378Q139 363 115 336L55 424Q127 510 282 510Q333 510 376.5 499.5Q420 489 451.5 464Q483 439 501 398Q519 357 519 297V0H386ZM459 698 330 571H208V576L289 704H459Z" glyph-name="aacute" horiz-adv-x="583" unicode="&#225;" /><glyph d="M42 0ZM407 248Q407 326 376 359.5Q345 393 298 393Q247 393 220.5 359Q194 325 194 247Q194 104 298 104Q346 104 376.5 138.5Q407 173 407 248ZM428 0 418 79Q393 33 350.5 9.5Q308 -14 252 -14Q155 -14 98.5 51Q42 116 42 243Q42 379 101.5 444.5Q161 510 261 510Q317 510 358 489Q399 468 422 424L434 497H562V0ZM473 698 344 571H222V576L303 704H473Z" glyph-name="aacute.school" horiz-adv-x="631" /><glyph d="M41 0ZM258 86Q307 86 335.5 116.5Q364 147 364 204V213H280Q230 213 207 196.5Q184 180 184 145Q184 117 202 101.5Q220 86 258 86ZM375 74Q351 33 310 10Q269 -13 209 -13Q134 -13 87.5 24.5Q41 62 41 133Q41 214 99.5 259Q158 304 264 304H364Q361 357 333 375Q305 393 258 393Q208 393 173.5 378Q139 363 115 336L55 424Q127 510 282 510Q333 510 376.5 499.5Q420 489 451.5 464Q483 439 501 398Q519 357 519 297V0H386ZM354 704H451Q451 664 439.5 637Q428 610 406 594Q384 578 352 571Q320 564 280 564Q239 564 207.5 571Q176 578 154 594Q132 610 120.5 637Q109 664 109 704H206Q206 668 224 655Q242 642 280 642Q318 642 336 655Q354 668 354 704Z" glyph-name="abreve" horiz-adv-x="583" unicode="&#259;" /><glyph d="M42 0ZM407 248Q407 326 376 359.5Q345 393 298 393Q247 393 220.5 359Q194 325 194 247Q194 104 298 104Q346 104 376.5 138.5Q407 173 407 248ZM428 0 418 79Q393 33 350.5 9.5Q308 -14 252 -14Q155 -14 98.5 51Q42 116 42 243Q42 379 101.5 444.5Q161 510 261 510Q317 510 358 489Q399 468 422 424L434 497H562V0ZM368 704H465Q465 664 453.5 637Q442 610 420 594Q398 578 366 571Q334 564 294 564Q253 564 221.5 571Q190 578 168 594Q146 610 134.5 637Q123 664 123 704H220Q220 668 238 655Q256 642 294 642Q332 642 350 655Q368 668 368 704Z" glyph-name="abreve.school" horiz-adv-x="631" /><glyph d="M41 0ZM258 86Q307 86 335.5 116.5Q364 147 364 204V213H280Q230 213 207 196.5Q184 180 184 145Q184 117 202 101.5Q220 86 258 86ZM375 74Q351 33 310 10Q269 -13 209 -13Q134 -13 87.5 24.5Q41 62 41 133Q41 214 99.5 259Q158 304 264 304H364Q361 357 333 375Q305 393 258 393Q208 393 173.5 378Q139 363 115 336L55 424Q127 510 282 510Q333 510 376.5 499.5Q420 489 451.5 464Q483 439 501 398Q519 357 519 297V0H386ZM279 629 218 571H93V575L216 704H347L472 575V571H340Z" glyph-name="acircumflex" horiz-adv-x="583" unicode="&#226;" /><glyph d="M42 0ZM292 629 231 571H106V575L229 704H360L485 575V571H353ZM407 248Q407 326 376 359.5Q345 393 298 393Q247 393 220.5 359Q194 325 194 247Q194 104 298 104Q346 104 376.5 138.5Q407 173 407 248ZM428 0 418 79Q393 33 350.5 9.5Q308 -14 252 -14Q155 -14 98.5 51Q42 116 42 243Q42 379 101.5 444.5Q161 510 261 510Q317 510 358 489Q399 468 422 424L434 497H562V0Z" glyph-name="acircumflex.school" horiz-adv-x="631" /><glyph d="M468 698 339 571H217V576L298 704H468Z" glyph-name="acute" horiz-adv-x="600" unicode="&#180;" /><glyph d="M41 0ZM258 86Q307 86 335.5 116.5Q364 147 364 204V213H280Q230 213 207 196.5Q184 180 184 145Q184 117 202 101.5Q220 86 258 86ZM375 74Q351 33 310 10Q269 -13 209 -13Q134 -13 87.5 24.5Q41 62 41 133Q41 214 99.5 259Q158 304 264 304H364Q361 357 333 375Q305 393 258 393Q208 393 173.5 378Q139 363 115 336L55 424Q127 510 282 510Q333 510 376.5 499.5Q420 489 451.5 464Q483 439 501 398Q519 357 519 297V0H386ZM302 645Q302 683 324 701Q346 719 386 719Q426 719 447.5 701Q469 683 469 645Q469 607 447.5 588.5Q426 570 386 570Q346 570 324 588.5Q302 607 302 645ZM92 645Q92 683 114 701Q136 719 175 719Q215 719 236.5 701Q258 683 258 645Q258 607 236.5 588.5Q215 570 175 570Q136 570 114 588.5Q92 607 92 645Z" glyph-name="adieresis" horiz-adv-x="583" unicode="&#228;" /><glyph d="M42 0ZM316 645Q316 683 338 701Q360 719 400 719Q440 719 461.5 701Q483 683 483 645Q483 607 461.5 588.5Q440 570 400 570Q360 570 338 588.5Q316 607 316 645ZM106 645Q106 683 128 701Q150 719 189 719Q229 719 250.5 701Q272 683 272 645Q272 607 250.5 588.5Q229 570 189 570Q150 570 128 588.5Q106 607 106 645ZM407 248Q407 326 376 359.5Q345 393 298 393Q247 393 220.5 359Q194 325 194 247Q194 104 298 104Q346 104 376.5 138.5Q407 173 407 248ZM428 0 418 79Q393 33 350.5 9.5Q308 -14 252 -14Q155 -14 98.5 51Q42 116 42 243Q42 379 101.5 444.5Q161 510 261 510Q317 510 358 489Q399 468 422 424L434 497H562V0Z" glyph-name="adieresis.school" horiz-adv-x="631" /><glyph d="M625 -14Q558 -14 507 8.5Q456 31 425 78Q396 35 345 11Q294 -13 221 -13Q140 -13 90.5 24.5Q41 62 41 133Q41 213 99.5 256.5Q158 300 264 300H364Q362 356 333.5 374.5Q305 393 258 393Q164 393 115 336L55 424Q91 467 148 488.5Q205 510 280 510Q334 510 376.5 494.5Q419 479 448 443Q510 510 625 510Q686 510 730 491Q774 472 802 438.5Q830 405 843.5 360Q857 315 857 264Q857 250 856 237.5Q855 225 853 211H518Q523 149 553 121.5Q583 94 638 94Q680 94 708 108Q736 122 753 157L849 99Q788 -14 625 -14ZM622 400Q579 400 551.5 376.5Q524 353 519 300H712Q709 352 686 376Q663 400 622 400ZM258 86Q306 86 335 117Q364 148 364 205V211H280Q230 211 207 194.5Q184 178 184 142Q184 116 202 101Q220 86 258 86Z" glyph-name="ae" horiz-adv-x="900" unicode="&#230;" /><glyph d="M41 0ZM258 86Q307 86 335.5 116.5Q364 147 364 204V213H280Q230 213 207 196.5Q184 180 184 145Q184 117 202 101.5Q220 86 258 86ZM375 74Q351 33 310 10Q269 -13 209 -13Q134 -13 87.5 24.5Q41 62 41 133Q41 214 99.5 259Q158 304 264 304H364Q361 357 333 375Q305 393 258 393Q208 393 173.5 378Q139 363 115 336L55 424Q127 510 282 510Q333 510 376.5 499.5Q420 489 451.5 464Q483 439 501 398Q519 357 519 297V0H386ZM230 571 101 698V704H275L354 576V571Z" glyph-name="agrave" horiz-adv-x="583" unicode="&#224;" /><glyph d="M42 0ZM407 248Q407 326 376 359.5Q345 393 298 393Q247 393 220.5 359Q194 325 194 247Q194 104 298 104Q346 104 376.5 138.5Q407 173 407 248ZM428 0 418 79Q393 33 350.5 9.5Q308 -14 252 -14Q155 -14 98.5 51Q42 116 42 243Q42 379 101.5 444.5Q161 510 261 510Q317 510 358 489Q399 468 422 424L434 497H562V0ZM244 572 115 699V705H289L368 577V572Z" glyph-name="agrave.school" horiz-adv-x="631" /><glyph d="M41 0ZM258 86Q307 86 335.5 116.5Q364 147 364 204V213H280Q230 213 207 196.5Q184 180 184 145Q184 117 202 101.5Q220 86 258 86ZM375 74Q351 33 310 10Q269 -13 209 -13Q134 -13 87.5 24.5Q41 62 41 133Q41 214 99.5 259Q158 304 264 304H364Q361 357 333 375Q305 393 258 393Q208 393 173.5 378Q139 363 115 336L55 424Q127 510 282 510Q333 510 376.5 499.5Q420 489 451.5 464Q483 439 501 398Q519 357 519 297V0H386ZM426 677V590H137V677Z" glyph-name="amacron" horiz-adv-x="583" unicode="&#257;" /><glyph d="M42 0ZM407 248Q407 326 376 359.5Q345 393 298 393Q247 393 220.5 359Q194 325 194 247Q194 104 298 104Q346 104 376.5 138.5Q407 173 407 248ZM428 0 418 79Q393 33 350.5 9.5Q308 -14 252 -14Q155 -14 98.5 51Q42 116 42 243Q42 379 101.5 444.5Q161 510 261 510Q317 510 358 489Q399 468 422 424L434 497H562V0ZM440 677V590H151V677Z" glyph-name="amacron.school" horiz-adv-x="631" /><glyph d="M563 483H693Q693 382 673 298.5Q653 215 614 152Q638 136 663.5 119.5Q689 103 718 86L648 -19Q637 -12 620 -1.5Q603 9 584.5 20.5Q566 32 549.5 42.5Q533 53 524 59Q430 -14 286 -14Q230 -14 183 -2.5Q136 9 102.5 32Q69 55 50 91Q31 127 31 176Q31 213 41 242Q51 271 68.5 294.5Q86 318 109.5 337Q133 356 159 373Q121 426 106.5 467Q92 508 92 540Q92 624 145 669Q198 714 301 714Q398 714 443.5 676Q489 638 489 567Q489 499 451.5 450Q414 401 344 354Q373 325 413 292Q453 259 507 221Q536 270 550.5 335.5Q565 401 563 483ZM220 539Q220 520 229 494.5Q238 469 265 434Q317 467 340.5 492Q364 517 364 549Q364 608 295 608Q257 608 238.5 590Q220 572 220 539ZM295 95Q365 95 415 135Q356 179 311 216.5Q266 254 233 288Q204 268 185.5 246Q167 224 167 189Q167 147 199 121Q231 95 295 95Z" glyph-name="ampersand" horiz-adv-x="729" unicode="&amp;" /><glyph d="M567 -202Q523 -229 466 -229Q439 -229 413 -223Q387 -217 367 -202.5Q347 -188 334.5 -164.5Q322 -141 322 -105Q322 -65 339 -35Q356 -5 384 15L375 74Q351 33 310 10Q269 -13 209 -13Q134 -13 87.5 24.5Q41 62 41 133Q41 214 99.5 259Q158 304 264 304H364Q361 357 333 375Q305 393 258 393Q208 393 173.5 378Q139 363 115 336L55 424Q127 510 282 510Q333 510 376.5 499.5Q420 489 451.5 464Q483 439 501 398Q519 357 519 297V0H505Q457 -4 435.5 -31Q414 -58 414 -90Q414 -119 432.5 -130Q451 -141 478 -141Q515 -141 545 -124ZM258 86Q307 86 335.5 116.5Q364 147 364 204V213H280Q230 213 207 196.5Q184 180 184 145Q184 117 202 101.5Q220 86 258 86Z" glyph-name="aogonek" horiz-adv-x="583" unicode="&#261;" /><glyph d="M429 10 419 78Q394 32 351.5 9Q309 -14 252 -14Q155 -14 98.5 50.5Q42 115 42 243Q42 379 101.5 444.5Q161 510 261 510Q317 510 358 489Q399 468 422 424L434 497H562V0Q507 -4 483.5 -31Q460 -58 460 -90Q460 -119 478.5 -130Q497 -141 524 -141Q541 -141 558.5 -137Q576 -133 591 -124L613 -202Q569 -229 512 -229Q485 -229 459.5 -223Q434 -217 413.5 -202.5Q393 -188 380.5 -164.5Q368 -141 368 -105Q368 -65 385.5 -36.5Q403 -8 429 10ZM407 248Q407 326 376.5 359.5Q346 393 298 393Q247 393 220.5 359Q194 325 194 247Q194 104 298 104Q346 104 376.5 138.5Q407 173 407 248Z" glyph-name="aogonek.school" horiz-adv-x="631" /><glyph d="M350 409Q370 409 402 415Q434 421 460 438V345Q437 332 404 325.5Q371 319 342 319Q315 319 292.5 324.5Q270 330 249.5 336Q229 342 208.5 347.5Q188 353 163 353Q142 353 110 347.5Q78 342 50 325V418Q73 431 105 437Q137 443 166 443Q194 443 216.5 437.5Q239 432 260 426Q281 420 302.5 414.5Q324 409 350 409ZM350 257Q370 257 402 263Q434 269 460 286V194Q437 181 404 174.5Q371 168 342 168Q315 168 292.5 173.5Q270 179 249.5 185Q229 191 208.5 196.5Q188 202 163 202Q142 202 110 196.5Q78 191 50 174V266Q73 279 105 285Q137 291 166 291Q194 291 216.5 285.5Q239 280 260 274Q281 268 302.5 262.5Q324 257 350 257Z" glyph-name="approxequal" horiz-adv-x="510" unicode="&#8776;" /><glyph d="M41 0ZM258 86Q307 86 335.5 116.5Q364 147 364 204V213H280Q230 213 207 196.5Q184 180 184 145Q184 117 202 101.5Q220 86 258 86ZM375 74Q351 33 310 10Q269 -13 209 -13Q134 -13 87.5 24.5Q41 62 41 133Q41 214 99.5 259Q158 304 264 304H364Q361 357 333 375Q305 393 258 393Q208 393 173.5 378Q139 363 115 336L55 424Q127 510 282 510Q333 510 376.5 499.5Q420 489 451.5 464Q483 439 501 398Q519 357 519 297V0H386ZM165 653Q165 703 197.5 729.5Q230 756 280 756Q330 756 362 729.5Q394 703 394 653Q394 602 362 575.5Q330 549 279 549Q230 549 197.5 575.5Q165 602 165 653ZM235 653Q235 632 247 619.5Q259 607 279 607Q299 607 312 619.5Q325 632 325 653Q325 674 312.5 686Q300 698 280 698Q260 698 247.5 686Q235 674 235 653Z" glyph-name="aring" horiz-adv-x="583" unicode="&#229;" /><glyph d="M42 0ZM407 248Q407 326 376 359.5Q345 393 298 393Q247 393 220.5 359Q194 325 194 247Q194 104 298 104Q346 104 376.5 138.5Q407 173 407 248ZM428 0 418 79Q393 33 350.5 9.5Q308 -14 252 -14Q155 -14 98.5 51Q42 116 42 243Q42 379 101.5 444.5Q161 510 261 510Q317 510 358 489Q399 468 422 424L434 497H562V0ZM179 653Q179 703 211.5 729.5Q244 756 294 756Q344 756 376 729.5Q408 703 408 653Q408 602 376 575.5Q344 549 293 549Q244 549 211.5 575.5Q179 602 179 653ZM249 653Q249 632 261 619.5Q273 607 293 607Q313 607 326 619.5Q339 632 339 653Q339 674 326.5 686Q314 698 294 698Q274 698 261.5 686Q249 674 249 653Z" glyph-name="aring.school" horiz-adv-x="631" /><glyph d="M173 700H319L466 369V366H333L243 584L153 366H25V369Z" glyph-name="asciicircum" horiz-adv-x="491" unicode="^" /><glyph d="M424 425 536 408Q531 329 489.5 289Q448 249 385 249Q355 249 328.5 257.5Q302 266 277 277Q253 288 231 296.5Q209 305 187 305Q167 305 153 292Q139 279 137 250L25 267Q30 346 71.5 386Q113 426 178 426Q208 426 234.5 417.5Q261 409 285 399Q309 388 331 379.5Q353 371 374 371Q396 371 409 383.5Q422 396 424 425Z" glyph-name="asciitilde" horiz-adv-x="561" unicode="~" /><glyph d="M147 325 54 399 127 487 24 515 54 625 160 590 153 714H281L274 590L381 625L411 514L308 487L381 399L287 325L217 423Z" glyph-name="asterisk" horiz-adv-x="439" unicode="*" /><glyph d="M684 -5Q639 -53 571.5 -79.5Q504 -106 416 -106Q333 -106 267.5 -81Q202 -56 157 -10.5Q112 35 88 99.5Q64 164 64 242Q64 320 88 384Q112 448 157 493.5Q202 539 267.5 563.5Q333 588 416 588Q497 588 559.5 565Q622 542 664 499Q706 456 728 396Q750 336 750 263Q750 174 706 125Q662 76 582 76Q543 76 516.5 89.5Q490 103 479 132Q462 103 432 86Q402 69 360 69Q308 69 275.5 95Q243 121 243 170Q243 226 283.5 254.5Q324 283 396 283H462Q460 320 440 332Q420 344 387 344Q322 344 292 306L252 366Q301 426 403 426Q438 426 467.5 418.5Q497 411 519 393.5Q541 376 553 348Q565 320 565 279V189Q565 161 575.5 147Q586 133 612 133Q649 133 672.5 165Q696 197 696 263Q696 333 675.5 384.5Q655 436 618 470.5Q581 505 529.5 522Q478 539 416 539Q351 539 296.5 520.5Q242 502 202.5 465Q163 428 141 372Q119 316 119 242Q119 167 141 111Q163 55 202.5 18.5Q242 -18 296.5 -36.5Q351 -55 417 -55Q489 -55 548 -33.5Q607 -12 648 32ZM387 137Q421 137 441 158Q461 179 462 217V223H402Q369 223 353 212.5Q337 202 337 178Q337 137 387 137Z" glyph-name="at" horiz-adv-x="815" unicode="@" /><glyph d="M64 2ZM684 103Q639 55 571.5 28.5Q504 2 416 2Q333 2 267.5 27Q202 52 157 97.5Q112 143 88 207.5Q64 272 64 350Q64 428 88 492Q112 556 157 601.5Q202 647 267.5 671.5Q333 696 416 696Q497 696 559.5 673Q622 650 664 607Q706 564 728 504Q750 444 750 371Q750 282 706 233Q662 184 582 184Q543 184 516.5 197.5Q490 211 479 240Q462 211 432 194Q402 177 360 177Q308 177 275.5 203Q243 229 243 278Q243 334 283.5 362.5Q324 391 396 391H462Q460 428 440 440Q420 452 387 452Q322 452 292 414L252 474Q301 534 403 534Q438 534 467.5 526.5Q497 519 519 501.5Q541 484 553 456Q565 428 565 387V297Q565 269 575.5 255Q586 241 612 241Q649 241 672.5 273Q696 305 696 371Q696 441 675.5 492.5Q655 544 618 578.5Q581 613 529.5 630Q478 647 416 647Q351 647 296.5 628.5Q242 610 202.5 573Q163 536 141 480Q119 424 119 350Q119 275 141 219Q163 163 202.5 126.5Q242 90 296.5 71.5Q351 53 417 53Q489 53 548 74.5Q607 96 648 140ZM387 245Q421 245 441 266Q461 287 462 325V331H402Q369 331 353 320.5Q337 310 337 286Q337 245 387 245Z" glyph-name="at.cap" horiz-adv-x="815" /><glyph d="M41 0ZM258 86Q307 86 335.5 116.5Q364 147 364 204V213H280Q230 213 207 196.5Q184 180 184 145Q184 117 202 101.5Q220 86 258 86ZM375 74Q351 33 310 10Q269 -13 209 -13Q134 -13 87.5 24.5Q41 62 41 133Q41 214 99.5 259Q158 304 264 304H364Q361 357 333 375Q305 393 258 393Q208 393 173.5 378Q139 363 115 336L55 424Q127 510 282 510Q333 510 376.5 499.5Q420 489 451.5 464Q483 439 501 398Q519 357 519 297V0H386ZM367 700H462Q465 665 456 641.5Q447 618 432 604Q417 590 398 584Q379 578 360 578Q337 578 318 583.5Q299 589 282 595Q265 601 250 606.5Q235 612 221 612Q204 612 198.5 601.5Q193 591 193 578H98Q96 613 104.5 636.5Q113 660 128 674.5Q143 689 162 695Q181 701 200 701Q223 701 242 695.5Q261 690 278 683.5Q295 677 310 671.5Q325 666 339 666Q357 666 362 676Q367 686 367 700Z" glyph-name="atilde" horiz-adv-x="583" unicode="&#227;" /><glyph d="M42 0ZM407 248Q407 326 376 359.5Q345 393 298 393Q247 393 220.5 359Q194 325 194 247Q194 104 298 104Q346 104 376.5 138.5Q407 173 407 248ZM428 0 418 79Q393 33 350.5 9.5Q308 -14 252 -14Q155 -14 98.5 51Q42 116 42 243Q42 379 101.5 444.5Q161 510 261 510Q317 510 358 489Q399 468 422 424L434 497H562V0ZM381 700H476Q479 665 470 641.5Q461 618 446 604Q431 590 412 584Q393 578 374 578Q351 578 332 583.5Q313 589 296 595Q279 601 264 606.5Q249 612 235 612Q218 612 212.5 601.5Q207 591 207 578H112Q110 613 118.5 636.5Q127 660 142 674.5Q157 689 176 695Q195 701 214 701Q237 701 256 695.5Q275 690 292 683.5Q309 677 324 671.5Q339 666 353 666Q371 666 376 676Q381 686 381 700Z" glyph-name="atilde.school" horiz-adv-x="631" /><glyph d="M227 700V427Q254 470 295.5 490Q337 510 390 510Q484 510 537.5 446.5Q591 383 591 255Q591 130 534.5 58Q478 -14 368 -14Q311 -14 268.5 7Q226 28 200 70L191 0H69V700ZM224 245Q224 170 254 136Q284 102 332 102Q439 102 439 246Q439 324 411.5 358Q384 392 334 392Q285 392 254.5 357.5Q224 323 224 245Z" glyph-name="b" horiz-adv-x="633" unicode="b" /><glyph d="M382 0 3 700H174L553 0Z" glyph-name="backslash" horiz-adv-x="561" unicode="\" /><glyph d="M87 -65V766H229V-65Z" glyph-name="bar" horiz-adv-x="315" unicode="|" /><glyph d="M332 -138Q287 -136 250 -125Q213 -114 186.5 -94Q160 -74 145 -45Q130 -16 130 23Q130 57 134 86.5Q138 116 138 147Q138 195 111 216.5Q84 238 31 238H5V351H31Q84 351 111 372.5Q138 394 138 442Q138 473 134 502.5Q130 532 130 567Q130 605 145 634Q160 663 186.5 683Q213 703 250 714Q287 725 332 727L350 604Q262 601 262 521Q262 493 266 467Q270 441 270 412Q270 370 248.5 341.5Q227 313 186 295Q227 276 248.5 247Q270 218 270 177Q270 148 266 122Q262 96 262 68Q262 -12 350 -15Z" glyph-name="braceleft" horiz-adv-x="380" unicode="{" /><glyph d="M28 -15Q116 -12 116 68Q116 96 112 122Q108 148 108 177Q108 218 129.5 247Q151 276 192 295Q151 313 129.5 341.5Q108 370 108 412Q108 441 112 467Q116 493 116 521Q116 601 28 604L46 727Q91 725 128 714Q165 703 191.5 683Q218 663 233 634Q248 605 248 567Q248 532 244 502.5Q240 473 240 442Q240 394 267 372.5Q294 351 347 351H373V238H347Q294 238 267 216.5Q240 195 240 147Q240 116 244 86.5Q248 57 248 23Q248 -16 233 -45Q218 -74 191.5 -94Q165 -114 128 -125Q91 -136 46 -138Z" glyph-name="braceright" horiz-adv-x="380" unicode="}" /><glyph d="M64 -151V717H329V603H206V-37H331V-151Z" glyph-name="bracketleft" horiz-adv-x="358" unicode="[" /><glyph d="M27 -151V-37H152V603H29V717H294V-151Z" glyph-name="bracketright" horiz-adv-x="358" unicode="]" /><glyph d="M374 704H471Q471 664 459.5 637Q448 610 426 594Q404 578 372 571Q340 564 300 564Q259 564 227.5 571Q196 578 174 594Q152 610 140.5 637Q129 664 129 704H226Q226 668 244 655Q262 642 300 642Q338 642 356 655Q374 668 374 704Z" glyph-name="breve" horiz-adv-x="600" unicode="&#728;" /><glyph d="M87 383V766H229V383ZM87 -65V318H229V-65Z" glyph-name="brokenbar" horiz-adv-x="315" unicode="&#166;" /><glyph d="M49 327Q49 401 93.5 446Q138 491 216 491Q294 491 338 446Q382 401 382 327Q382 252 338 207.5Q294 163 216 163Q138 163 93.5 207.5Q49 252 49 327Z" glyph-name="bullet" horiz-adv-x="431" unicode="&#8226;" /><glyph d="M294 -14Q236 -14 189.5 1Q143 16 110 47.5Q77 79 59.5 129Q42 179 42 248Q42 384 110 447Q178 510 301 510Q379 510 431 483.5Q483 457 515 400L407 323Q390 357 364.5 371.5Q339 386 303 386Q249 386 221.5 356.5Q194 327 194 247Q194 175 219 139.5Q244 104 302 104Q383 104 412 172L521 110Q489 48 434 17Q379 -14 294 -14Z" glyph-name="c" horiz-adv-x="541" unicode="c" /><glyph d="M42 0ZM478 698 349 571H227V576L308 704H478ZM294 -14Q236 -14 189.5 1Q143 16 110 47.5Q77 79 59.5 129Q42 179 42 248Q42 384 110 447Q178 510 301 510Q379 510 431 483.5Q483 457 515 400L407 323Q390 357 364.5 371.5Q339 386 303 386Q249 386 221.5 356.5Q194 327 194 247Q194 175 219 139.5Q244 104 302 104Q383 104 412 172L521 110Q489 48 434 17Q379 -14 294 -14Z" glyph-name="cacute" horiz-adv-x="541" unicode="&#263;" /><glyph d="M303 647 365 704H489V702L365 571H234L110 702V704H241Z" glyph-name="caron" horiz-adv-x="600" unicode="&#711;" /><glyph d="M361 441H259L266 700H394Z" glyph-name="caronSlovak" horiz-adv-x="600" /><glyph d="M42 0ZM304 647 366 704H490V702L366 571H235L111 702V704H242ZM294 -14Q236 -14 189.5 1Q143 16 110 47.5Q77 79 59.5 129Q42 179 42 248Q42 384 110 447Q178 510 301 510Q379 510 431 483.5Q483 457 515 400L407 323Q390 357 364.5 371.5Q339 386 303 386Q249 386 221.5 356.5Q194 327 194 247Q194 175 219 139.5Q244 104 302 104Q383 104 412 172L521 110Q489 48 434 17Q379 -14 294 -14Z" glyph-name="ccaron" horiz-adv-x="541" unicode="&#269;" /><glyph d="M290 -251Q245 -251 208 -234Q171 -217 149 -182L203 -127Q218 -150 236.5 -162.5Q255 -175 284 -175Q305 -175 319.5 -166.5Q334 -158 334 -139Q334 -122 320 -112Q306 -102 281 -102Q275 -102 269.5 -102.5Q264 -103 258 -104L235 -89L260 -13Q159 -5 100.5 57.5Q42 120 42 248Q42 384 110 447Q178 510 301 510Q379 510 431 483.5Q483 457 515 400L407 323Q390 357 364.5 371.5Q339 386 303 386Q249 386 221.5 356.5Q194 327 194 247Q194 175 219 139.5Q244 104 302 104Q383 104 412 172L521 110Q494 57 449.5 27Q405 -3 340 -11L326 -50H327Q347 -52 365.5 -58Q384 -64 398 -75.5Q412 -87 420.5 -103.5Q429 -120 429 -142Q429 -170 417.5 -190.5Q406 -211 387 -224.5Q368 -238 343 -244.5Q318 -251 290 -251Z" glyph-name="ccedilla" horiz-adv-x="541" unicode="&#231;" /><glyph d="M42 0ZM300 629 239 571H114V575L237 704H368L493 575V571H361ZM294 -14Q236 -14 189.5 1Q143 16 110 47.5Q77 79 59.5 129Q42 179 42 248Q42 384 110 447Q178 510 301 510Q379 510 431 483.5Q483 457 515 400L407 323Q390 357 364.5 371.5Q339 386 303 386Q249 386 221.5 356.5Q194 327 194 247Q194 175 219 139.5Q244 104 302 104Q383 104 412 172L521 110Q489 48 434 17Q379 -14 294 -14Z" glyph-name="ccircumflex" horiz-adv-x="541" unicode="&#265;" /><glyph d="M42 0ZM294 -14Q236 -14 189.5 1Q143 16 110 47.5Q77 79 59.5 129Q42 179 42 248Q42 384 110 447Q178 510 301 510Q379 510 431 483.5Q483 457 515 400L407 323Q390 357 364.5 371.5Q339 386 303 386Q249 386 221.5 356.5Q194 327 194 247Q194 175 219 139.5Q244 104 302 104Q383 104 412 172L521 110Q489 48 434 17Q379 -14 294 -14ZM215 645Q215 683 238 701.5Q261 720 303 720Q345 720 367 701.5Q389 683 389 645Q389 607 367 588.5Q345 570 303 570Q261 570 238 588.5Q215 607 215 645Z" glyph-name="cdotaccent" horiz-adv-x="541" unicode="&#267;" /><glyph d="M295 0H375L357 -50H358Q378 -52 396.5 -58Q415 -64 429 -75.5Q443 -87 451.5 -103.5Q460 -120 460 -142Q460 -170 448.5 -190.5Q437 -211 418 -224.5Q399 -238 374 -244.5Q349 -251 321 -251Q276 -251 239 -234Q202 -217 180 -182L234 -127Q249 -150 267.5 -162.5Q286 -175 315 -175Q336 -175 350.5 -166.5Q365 -158 365 -139Q365 -122 351 -112Q337 -102 312 -102Q306 -102 300.5 -102.5Q295 -103 289 -104L266 -89Z" glyph-name="cedilla" horiz-adv-x="600" unicode="&#184;" /><glyph d="M261 -62V7Q159 16 104.5 75.5Q50 135 50 257Q50 377 104 438Q158 499 261 509V579H341V509Q460 497 510 401L413 335Q388 381 341 390V122Q368 127 386 142Q404 157 417 184L519 130Q493 75 447.5 45Q402 15 341 8V-62ZM189 255Q189 195 206.5 164Q224 133 261 124V389Q223 380 206 349Q189 318 189 255Z" glyph-name="cent" horiz-adv-x="550" unicode="&#162;" /><glyph d="M299 629 238 571H113V575L236 704H367L492 575V571H360Z" glyph-name="circumflex" horiz-adv-x="600" unicode="&#710;" /><glyph d="M41 0ZM41 74Q41 116 64 136.5Q87 157 129 157Q171 157 193.5 136.5Q216 116 216 74Q216 35 193.5 14Q171 -7 129 -7Q87 -7 64 13.5Q41 34 41 74ZM41 414Q41 456 64 476.5Q87 497 129 497Q171 497 193.5 476.5Q216 456 216 414Q216 375 193.5 354Q171 333 129 333Q87 333 64 353.5Q41 374 41 414Z" glyph-name="colon" horiz-adv-x="257" unicode=":" /><glyph d="M73 -150 41 -85Q71 -76 92 -56Q113 -36 121 -6Q81 -4 60.5 17Q40 38 40 75Q40 116 63 136.5Q86 157 127 157Q170 157 194 132Q218 107 218 53Q218 -26 181 -79Q144 -132 73 -150Z" glyph-name="comma" horiz-adv-x="257" unicode="," /><glyph d="M247 -333 219 -275Q251 -267 272 -247.5Q293 -228 300 -201H298Q260 -201 237.5 -183Q215 -165 215 -130Q215 -92 237 -73.5Q259 -55 299 -55Q340 -55 363 -79Q386 -103 386 -154Q386 -188 376 -218Q366 -248 348 -271.5Q330 -295 304.5 -311Q279 -327 247 -333Z" glyph-name="commaaccent" horiz-adv-x="600" unicode="&#63171;" /><glyph d="M65 350Q65 428 88.5 492Q112 556 157 601Q202 646 267.5 671Q333 696 416 696Q499 696 564 671Q629 646 674 601Q719 556 742.5 492Q766 428 766 350Q766 272 742.5 208Q719 144 674 98.5Q629 53 564 28Q499 3 416 3Q333 3 267.5 28Q202 53 157 98.5Q112 144 88.5 208Q65 272 65 350ZM120 350Q120 275 142 219.5Q164 164 203 127.5Q242 91 296.5 72.5Q351 54 416 54Q481 54 535.5 72.5Q590 91 629 127.5Q668 164 690 219.5Q712 275 712 350Q712 425 690 480.5Q668 536 629 573Q590 610 535.5 628.5Q481 647 416 647Q351 647 296.5 628.5Q242 610 203 573Q164 536 142 480.5Q120 425 120 350ZM422 162Q331 162 282 208Q233 254 233 354Q233 454 281.5 501.5Q330 549 424 549Q484 549 522 528Q560 507 582 468L502 411Q490 437 471 448Q452 459 425 459Q381 459 361 434.5Q341 410 341 353Q341 297 362 274Q383 251 425 251Q455 251 475 262Q495 273 506 299L586 254Q563 207 521 184.5Q479 162 422 162Z" glyph-name="copyright" horiz-adv-x="831" unicode="&#169;" /><glyph d="M213 340Q130 340 81 384Q32 428 32 527Q32 625 81 669.5Q130 714 218 714Q328 714 371 636L291 578Q268 624 220 624Q182 624 163 603Q144 582 144 527Q144 476 161 452Q178 428 219 428Q274 428 295 474L375 429Q353 384 313.5 362Q274 340 213 340Z" glyph-name="cordinal" horiz-adv-x="393" /><glyph d="M408 248Q408 326 376.5 359.5Q345 393 297 393Q246 393 220 359Q194 325 194 247Q194 104 298 104Q346 104 377 138.5Q408 173 408 248ZM429 0 421 77Q396 32 353.5 9Q311 -14 251 -14Q155 -14 98 51Q41 116 41 243Q41 375 101 442.5Q161 510 260 510Q357 510 406 442V700H564V0Z" glyph-name="d" horiz-adv-x="632" unicode="d" /><glyph d="M284 493H218L216 269H98V493H31V598H96L94 714H222L219 598H284Z" glyph-name="dagger" horiz-adv-x="316" unicode="&#8224;" /><glyph d="M31 468H99V518H31V623H96L94 714H222L219 623H284V518H217V468H284V363H219L222 269H94L96 363H31Z" glyph-name="daggerdbl" horiz-adv-x="316" unicode="&#8225;" /><glyph d="M41 0ZM735 441H633L640 700H768ZM408 248Q408 326 376.5 359.5Q345 393 297 393Q246 393 220 359Q194 325 194 247Q194 104 298 104Q346 104 377 138.5Q408 173 408 248ZM429 0 421 77Q396 32 353.5 9Q311 -14 251 -14Q155 -14 98 51Q41 116 41 243Q41 375 101 442.5Q161 510 260 510Q357 510 406 442V700H564V0Z" glyph-name="dcaron" horiz-adv-x="749" unicode="&#271;" /><glyph d="M408 248Q408 323 377.5 356.5Q347 390 299 390Q248 390 221 355.5Q194 321 194 247Q194 104 299 104Q347 104 377.5 139Q408 174 408 248ZM627 629V546H564V0H429L420 81Q396 36 353.5 11Q311 -14 251 -14Q154 -14 97.5 50.5Q41 115 41 241Q41 371 101 437.5Q161 504 260 504Q357 504 405 439V546H273V629H405V700H564V629Z" glyph-name="dcroat" horiz-adv-x="645" unicode="&#273;" /><glyph d="M236 349Q147 349 99 399.5Q51 450 51 532Q51 615 99 664.5Q147 714 236 714Q324 714 372 664.5Q420 615 420 532Q420 450 372 399.5Q324 349 236 349ZM236 629Q195 629 170.5 604.5Q146 580 146 532Q146 483 170.5 459Q195 435 236 435Q275 435 299.5 459Q324 483 324 532Q324 580 299.5 604.5Q275 629 236 629Z" glyph-name="degree" horiz-adv-x="470" unicode="&#176;" /><glyph d="M328 645Q328 683 350 701Q372 719 412 719Q452 719 473.5 701Q495 683 495 645Q495 607 473.5 588.5Q452 570 412 570Q372 570 350 588.5Q328 607 328 645ZM118 645Q118 683 140 701Q162 719 201 719Q241 719 262.5 701Q284 683 284 645Q284 607 262.5 588.5Q241 570 201 570Q162 570 140 588.5Q118 607 118 645Z" glyph-name="dieresis" horiz-adv-x="600" unicode="&#168;" /><glyph d="M179 488Q179 522 200 542Q221 562 254 562Q288 562 309.5 542Q331 522 331 488Q331 456 309.5 435.5Q288 415 254 415Q221 415 200 435.5Q179 456 179 488ZM460 357V264H50V357ZM179 134Q179 168 200 188Q221 208 254 208Q288 208 309.5 188Q331 168 331 134Q331 101 309.5 80.5Q288 60 254 60Q221 60 200 80.5Q179 101 179 134Z" glyph-name="divide" horiz-adv-x="510" unicode="&#247;" /><glyph d="M266 428V574Q226 569 209 552Q192 535 192 507Q192 478 210 459.5Q228 441 266 428ZM345 124Q422 136 422 197Q422 223 405 239.5Q388 256 345 270ZM345 -62H266V6Q193 11 133 40.5Q73 70 34 135L135 212Q161 173 192 151.5Q223 130 266 124V289L257 291Q156 314 104 366.5Q52 419 52 501Q52 582 105 633.5Q158 685 266 693V766H345V693Q414 686 465 657.5Q516 629 548 573L443 501Q423 530 400.5 547.5Q378 565 345 572V408L357 405Q417 391 457.5 372Q498 353 522.5 329Q547 305 557.5 275Q568 245 568 209Q568 117 511.5 65.5Q455 14 345 6Z" glyph-name="dollar" horiz-adv-x="602" unicode="$" /><glyph d="M213 645Q213 683 236 701.5Q259 720 301 720Q343 720 365 701.5Q387 683 387 645Q387 607 365 588.5Q343 570 301 570Q259 570 236 588.5Q213 607 213 645Z" glyph-name="dotaccent" horiz-adv-x="600" unicode="&#729;" /><glyph d="M70 497H228V0H70Z" glyph-name="dotlessi" horiz-adv-x="298" unicode="&#305;" /><glyph d="M70 -20V497H228V-30Q228 -79 214 -115Q200 -151 174.5 -174.5Q149 -198 113.5 -209.5Q78 -221 35 -221Q9 -221 -18.5 -216Q-46 -211 -71 -199L-46 -94Q-34 -99 -22 -102Q-10 -105 6 -105Q38 -105 54 -86.5Q70 -68 70 -20Z" glyph-name="dotlessj" horiz-adv-x="298" unicode="&#567;" /><glyph d="M295 -65V766H437V-65ZM87 -65V766H229V-65Z" glyph-name="doublebar" horiz-adv-x="524" /><glyph d="M299 -14Q240 -14 192 1.5Q144 17 110.5 49.5Q77 82 59 130.5Q41 179 41 245Q41 371 107 440.5Q173 510 295 510Q357 510 401.5 490.5Q446 471 474.5 437.5Q503 404 516 358Q529 312 529 259Q529 246 528 233Q527 220 525 205H191Q196 145 226.5 119.5Q257 94 311 94Q352 94 379.5 108Q407 122 426 157L521 99Q490 41 433.5 13.5Q377 -14 299 -14ZM292 400Q248 400 222 375Q196 350 191 296H384Q378 400 292 400Z" glyph-name="e" horiz-adv-x="572" unicode="e" /><glyph d="M41 0ZM467 698 338 571H216V576L297 704H467ZM299 -14Q240 -14 192 1.5Q144 17 110.5 49.5Q77 82 59 130.5Q41 179 41 245Q41 371 107 440.5Q173 510 295 510Q357 510 401.5 490.5Q446 471 474.5 437.5Q503 404 516 358Q529 312 529 259Q529 246 528 233Q527 220 525 205H191Q196 145 226.5 119.5Q257 94 311 94Q352 94 379.5 108Q407 122 426 157L521 99Q490 41 433.5 13.5Q377 -14 299 -14ZM292 400Q248 400 222 375Q196 350 191 296H384Q378 400 292 400Z" glyph-name="eacute" horiz-adv-x="572" unicode="&#233;" /><glyph d="M41 0ZM299 -14Q240 -14 192 1.5Q144 17 110.5 49.5Q77 82 59 130.5Q41 179 41 245Q41 371 107 440.5Q173 510 295 510Q357 510 401.5 490.5Q446 471 474.5 437.5Q503 404 516 358Q529 312 529 259Q529 246 528 233Q527 220 525 205H191Q196 145 226.5 119.5Q257 94 311 94Q352 94 379.5 108Q407 122 426 157L521 99Q490 41 433.5 13.5Q377 -14 299 -14ZM292 400Q248 400 222 375Q196 350 191 296H384Q378 400 292 400ZM362 704H459Q459 664 447.5 637Q436 610 414 594Q392 578 360 571Q328 564 288 564Q247 564 215.5 571Q184 578 162 594Q140 610 128.5 637Q117 664 117 704H214Q214 668 232 655Q250 642 288 642Q326 642 344 655Q362 668 362 704Z" glyph-name="ebreve" horiz-adv-x="572" unicode="&#277;" /><glyph d="M41 0ZM293 647 355 704H479V702L355 571H224L100 702V704H231ZM299 -14Q240 -14 192 1.5Q144 17 110.5 49.5Q77 82 59 130.5Q41 179 41 245Q41 371 107 440.5Q173 510 295 510Q357 510 401.5 490.5Q446 471 474.5 437.5Q503 404 516 358Q529 312 529 259Q529 246 528 233Q527 220 525 205H191Q196 145 226.5 119.5Q257 94 311 94Q352 94 379.5 108Q407 122 426 157L521 99Q490 41 433.5 13.5Q377 -14 299 -14ZM292 400Q248 400 222 375Q196 350 191 296H384Q378 400 292 400Z" glyph-name="ecaron" horiz-adv-x="572" unicode="&#283;" /><glyph d="M41 0ZM287 629 226 571H101V575L224 704H355L480 575V571H348ZM299 -14Q240 -14 192 1.5Q144 17 110.5 49.5Q77 82 59 130.5Q41 179 41 245Q41 371 107 440.5Q173 510 295 510Q357 510 401.5 490.5Q446 471 474.5 437.5Q503 404 516 358Q529 312 529 259Q529 246 528 233Q527 220 525 205H191Q196 145 226.5 119.5Q257 94 311 94Q352 94 379.5 108Q407 122 426 157L521 99Q490 41 433.5 13.5Q377 -14 299 -14ZM292 400Q248 400 222 375Q196 350 191 296H384Q378 400 292 400Z" glyph-name="ecircumflex" horiz-adv-x="572" unicode="&#234;" /><glyph d="M41 0ZM309 645Q309 683 331 701Q353 719 393 719Q433 719 454.5 701Q476 683 476 645Q476 607 454.5 588.5Q433 570 393 570Q353 570 331 588.5Q309 607 309 645ZM99 645Q99 683 121 701Q143 719 182 719Q222 719 243.5 701Q265 683 265 645Q265 607 243.5 588.5Q222 570 182 570Q143 570 121 588.5Q99 607 99 645ZM299 -14Q240 -14 192 1.5Q144 17 110.5 49.5Q77 82 59 130.5Q41 179 41 245Q41 371 107 440.5Q173 510 295 510Q357 510 401.5 490.5Q446 471 474.5 437.5Q503 404 516 358Q529 312 529 259Q529 246 528 233Q527 220 525 205H191Q196 145 226.5 119.5Q257 94 311 94Q352 94 379.5 108Q407 122 426 157L521 99Q490 41 433.5 13.5Q377 -14 299 -14ZM292 400Q248 400 222 375Q196 350 191 296H384Q378 400 292 400Z" glyph-name="edieresis" horiz-adv-x="572" unicode="&#235;" /><glyph d="M41 0ZM299 -14Q240 -14 192 1.5Q144 17 110.5 49.5Q77 82 59 130.5Q41 179 41 245Q41 371 107 440.5Q173 510 295 510Q357 510 401.5 490.5Q446 471 474.5 437.5Q503 404 516 358Q529 312 529 259Q529 246 528 233Q527 220 525 205H191Q196 145 226.5 119.5Q257 94 311 94Q352 94 379.5 108Q407 122 426 157L521 99Q490 41 433.5 13.5Q377 -14 299 -14ZM292 400Q248 400 222 375Q196 350 191 296H384Q378 400 292 400ZM201 645Q201 683 224 701.5Q247 720 289 720Q331 720 353 701.5Q375 683 375 645Q375 607 353 588.5Q331 570 289 570Q247 570 224 588.5Q201 607 201 645Z" glyph-name="edotaccent" horiz-adv-x="572" unicode="&#279;" /><glyph d="M41 0ZM299 -14Q240 -14 192 1.5Q144 17 110.5 49.5Q77 82 59 130.5Q41 179 41 245Q41 371 107 440.5Q173 510 295 510Q357 510 401.5 490.5Q446 471 474.5 437.5Q503 404 516 358Q529 312 529 259Q529 246 528 233Q527 220 525 205H191Q196 145 226.5 119.5Q257 94 311 94Q352 94 379.5 108Q407 122 426 157L521 99Q490 41 433.5 13.5Q377 -14 299 -14ZM292 400Q248 400 222 375Q196 350 191 296H384Q378 400 292 400ZM238 571 109 698V704H283L362 576V571Z" glyph-name="egrave" horiz-adv-x="572" unicode="&#232;" /><glyph d="M311 -14Q178 -14 108 39.5Q38 93 38 195Q38 263 70.5 305Q103 347 159 365Q114 385 89 423.5Q64 462 64 518Q64 619 127 666.5Q190 714 312 714Q435 714 498 666.5Q561 619 561 519Q561 462 535.5 423.5Q510 385 465 365Q520 347 553 305.5Q586 264 586 195Q586 93 516.5 39.5Q447 -14 311 -14ZM420 511Q420 554 392 577Q364 600 313 600Q261 600 232.5 577Q204 554 204 511Q204 469 232.5 445Q261 421 313 421Q364 421 392 445Q420 469 420 511ZM433 198Q433 246 400.5 271.5Q368 297 314 297Q257 297 224 271.5Q191 246 191 198Q191 148 223.5 123Q256 98 313 98Q368 98 400.5 123Q433 148 433 198Z" glyph-name="eight" horiz-adv-x="625" unicode="8" /><glyph d="M334 -14Q198 -14 126.5 39.5Q55 93 55 193Q55 262 89 304.5Q123 347 180 365Q134 385 107.5 423.5Q81 462 81 518Q81 617 145 665.5Q209 714 334 714Q459 714 523.5 665.5Q588 617 588 519Q588 462 561.5 423.5Q535 385 489 365Q546 346 580 304Q614 262 614 193Q614 93 542.5 39.5Q471 -14 334 -14ZM443 511Q443 554 414.5 577Q386 600 336 600Q283 600 254.5 577Q226 554 226 511Q226 469 254.5 445Q283 421 335 421Q387 421 415 445Q443 469 443 511ZM456 198Q456 246 423 271.5Q390 297 336 297Q279 297 246 271.5Q213 246 213 198Q213 148 245.5 123Q278 98 335 98Q391 98 423.5 123Q456 148 456 198Z" glyph-name="eight.LP" horiz-adv-x="669" /><glyph d="M323 -14Q191 -14 122.5 39.5Q54 93 54 195Q54 263 85.5 305Q117 347 172 365Q128 385 103 423.5Q78 462 78 518Q78 619 140 666.5Q202 714 323 714Q444 714 506.5 666.5Q569 619 569 519Q569 462 544 423.5Q519 385 475 365Q529 347 561 305.5Q593 264 593 195Q593 93 525 39.5Q457 -14 323 -14ZM426 511Q426 554 399.5 577Q373 600 325 600Q274 600 247 577Q220 554 220 511Q220 469 246.5 445Q273 421 323 421Q374 421 400 445Q426 469 426 511ZM439 198Q439 246 408 271.5Q377 297 325 297Q271 297 239.5 271.5Q208 246 208 198Q208 148 238.5 123.5Q269 99 323 99Q377 99 408 123.5Q439 148 439 198Z" glyph-name="eight.OP" horiz-adv-x="647" /><glyph d="M306 -14Q172 -14 102.5 39.5Q33 93 33 195Q33 263 65.5 305Q98 347 154 365Q109 385 83.5 423.5Q58 462 58 518Q58 619 121.5 666.5Q185 714 307 714Q429 714 492 666.5Q555 619 555 519Q555 462 529.5 423.5Q504 385 459 365Q515 347 547.5 305.5Q580 264 580 195Q580 93 511 39.5Q442 -14 306 -14ZM415 511Q415 554 386.5 577Q358 600 308 600Q256 600 227.5 577Q199 554 199 511Q199 469 227 445Q255 421 307 421Q358 421 386.5 445Q415 469 415 511ZM427 198Q427 246 394.5 271.5Q362 297 308 297Q252 297 219 271.5Q186 246 186 198Q186 148 218.5 123Q251 98 307 98Q362 98 394.5 123Q427 148 427 198Z" glyph-name="eight.OT" horiz-adv-x="625" /><glyph d="M31 0ZM203 -212Q119 -212 75 -181Q31 -150 31 -87Q31 -48 48.5 -23.5Q66 1 98 13Q75 27 60.5 49Q46 71 46 101Q46 162 86 191Q126 220 203 220Q281 220 321 191Q361 162 361 101Q361 71 346.5 49Q332 27 308 13Q375 -11 375 -87Q375 -212 203 -212ZM258 96Q258 116 243.5 127Q229 138 204 138Q178 138 163.5 127Q149 116 149 96Q149 74 163 62.5Q177 51 203 51Q229 51 243.5 62.5Q258 74 258 96ZM263 -85Q263 -62 247.5 -49.5Q232 -37 205 -37Q176 -37 159.5 -49.5Q143 -62 143 -85Q143 -108 159 -120.5Q175 -133 203 -133Q232 -133 247.5 -120.5Q263 -108 263 -85Z" glyph-name="eight.inf" horiz-adv-x="410" /><glyph d="M555 74Q555 116 578 136.5Q601 157 643 157Q685 157 707 136.5Q729 116 729 74Q729 35 707 14Q685 -7 643 -7Q601 -7 578 13.5Q555 34 555 74ZM297 74Q297 116 320 136.5Q343 157 385 157Q473 157 473 74Q473 35 450.5 14Q428 -7 385 -7Q343 -7 320 13.5Q297 34 297 74ZM41 74Q41 116 64 136.5Q87 157 129 157Q171 157 193.5 136.5Q216 116 216 74Q216 35 193.5 14Q171 -7 129 -7Q87 -7 64 13.5Q41 34 41 74Z" glyph-name="ellipsis" horiz-adv-x="771" unicode="&#8230;" /><glyph d="M41 0ZM299 -14Q240 -14 192 1.5Q144 17 110.5 49.5Q77 82 59 130.5Q41 179 41 245Q41 371 107 440.5Q173 510 295 510Q357 510 401.5 490.5Q446 471 474.5 437.5Q503 404 516 358Q529 312 529 259Q529 246 528 233Q527 220 525 205H191Q196 145 226.5 119.5Q257 94 311 94Q352 94 379.5 108Q407 122 426 157L521 99Q490 41 433.5 13.5Q377 -14 299 -14ZM292 400Q248 400 222 375Q196 350 191 296H384Q378 400 292 400ZM434 677V590H145V677Z" glyph-name="emacron" horiz-adv-x="572" unicode="&#275;" /><glyph d="M740 328V205H50V328Z" glyph-name="emdash" horiz-adv-x="789" unicode="&#8212;" /><glyph d="M740 412V289H50V412Z" glyph-name="emdash.cap" horiz-adv-x="789" /><glyph glyph-name="emspace" horiz-adv-x="1000" unicode="&#8195;" /><glyph d="M541 328V205H50V328Z" glyph-name="endash" horiz-adv-x="589" unicode="&#8211;" /><glyph d="M541 412V289H50V412Z" glyph-name="endash.cap" horiz-adv-x="589" /><glyph d="M424 -20V259Q424 324 402 348.5Q380 373 336 373Q288 373 258 341Q228 309 227 244V0H69V497H200L214 408Q242 460 289.5 485Q337 510 397 510Q445 510 480 496Q515 482 537.5 456Q560 430 571 393.5Q582 357 582 312V-30Q582 -128 529 -174.5Q476 -221 390 -221Q364 -221 336.5 -216Q309 -211 283 -199L308 -94Q320 -99 332.5 -102Q345 -105 361 -105Q393 -105 408.5 -86.5Q424 -68 424 -20Z" glyph-name="eng" horiz-adv-x="646" unicode="&#331;" /><glyph glyph-name="enspace" horiz-adv-x="500" unicode="&#8194;" /><glyph d="M233 -106Q233 -77 241.5 -53.5Q250 -30 265 -12Q161 -4 101 59.5Q41 123 41 245Q41 371 107 440.5Q173 510 295 510Q357 510 401.5 490.5Q446 471 474.5 437.5Q503 404 516 358Q529 312 529 259Q529 246 528 233Q527 220 525 205H190Q196 145 227 119.5Q258 94 311 94Q352 94 379.5 108Q407 122 426 157L521 99Q500 58 465 32.5Q430 7 385 -4Q357 -15 341.5 -37Q326 -59 326 -88Q326 -119 344.5 -130Q363 -141 390 -141Q427 -141 457 -124L478 -202Q436 -229 378 -229Q351 -229 325 -223Q299 -217 278.5 -202.5Q258 -188 245.5 -164.5Q233 -141 233 -106ZM292 400Q248 400 221.5 375Q195 350 190 296H384Q380 400 292 400Z" glyph-name="eogonek" horiz-adv-x="572" unicode="&#281;" /><glyph d="M460 430V337H50V430ZM460 281V188H50V281Z" glyph-name="equal" horiz-adv-x="510" unicode="=" /><glyph d="M28 0ZM287 64V-8H28V64ZM287 -33V-105H28V-33Z" glyph-name="equal.inf" horiz-adv-x="315" /><glyph d="M483 734 518 682 450 639Q509 576 537 485.5Q565 395 565 283V258Q565 115 498.5 50.5Q432 -14 304 -14Q174 -14 107.5 48.5Q41 111 41 241Q41 307 58 355Q75 403 107 434Q139 465 184.5 480Q230 495 287 495Q356 495 400 460Q382 523 340 568L262 518L227 569L287 609Q264 623 237 633.5Q210 644 178 652L215 751Q325 736 401 681ZM414 240Q414 315 387.5 348.5Q361 382 304 382Q245 382 218 348.5Q191 315 191 240Q191 165 219 133Q247 101 304 101Q360 101 387 133Q414 165 414 240Z" glyph-name="eth" horiz-adv-x="606" unicode="&#240;" /><glyph d="M208 701 185 217H71L47 701ZM41 74Q41 116 63.5 136.5Q86 157 128 157Q170 157 193 136.5Q216 116 216 74Q216 35 193 14Q170 -7 128 -7Q86 -7 63.5 13.5Q41 34 41 74Z" glyph-name="exclam" horiz-adv-x="256" unicode="!" /><glyph d="M48 -194 71 290H185L209 -194ZM215 433Q215 391 192.5 370.5Q170 350 128 350Q86 350 63 370.5Q40 391 40 433Q40 472 63 493Q86 514 128 514Q170 514 192.5 493.5Q215 473 215 433Z" glyph-name="exclamdown" horiz-adv-x="256" unicode="&#161;" /><glyph d="M50 -1 73 483H187L211 -1ZM217 626Q217 584 194.5 563.5Q172 543 130 543Q88 543 65 563.5Q42 584 42 626Q42 665 65 686Q88 707 130 707Q172 707 194.5 686.5Q217 666 217 626Z" glyph-name="exclamdown.cap" horiz-adv-x="258" /><glyph d="M16 497H97V535Q97 637 149 683.5Q201 730 285 730Q314 730 347.5 723.5Q381 717 402 703L375 600Q351 614 318 614Q285 614 268 595.5Q251 577 251 532V497H381V382H251V0H97V382H16Z" glyph-name="f" horiz-adv-x="392" unicode="f" /><glyph d="M451 643Q451 686 474.5 705.5Q498 725 542 725Q585 725 609 705.5Q633 686 633 643Q633 601 609 581.5Q585 562 542 562Q498 562 474.5 581.5Q451 601 451 643ZM97 0V382H16V497H97V535Q97 586 110.5 623Q124 660 148.5 683.5Q173 707 207 718.5Q241 730 283 730Q312 730 345.5 723.5Q379 717 400 703L373 600Q349 614 316 614Q284 614 267.5 595.5Q251 577 251 532V497H381V382H251V0ZM462 497H620V0H462Z" glyph-name="fi" horiz-adv-x="691" unicode="&#64257;" /><glyph d="M541 328V205H50V328Z" glyph-name="figuredash" horiz-adv-x="589" unicode="&#8210;" /><glyph d="M541 412V289H50V412Z" glyph-name="figuredash.cap" horiz-adv-x="589" /><glyph glyph-name="figurespace" horiz-adv-x="625" unicode="&#8199;" /><glyph d="M228 573 214 426Q241 440 275 446.5Q309 453 345 453Q399 453 443.5 439.5Q488 426 519.5 398Q551 370 568 328.5Q585 287 585 231Q585 116 514 51Q443 -14 305 -14Q219 -14 150.5 15Q82 44 40 110L148 191Q174 148 210 127Q246 106 297 106Q362 106 396 138.5Q430 171 430 228Q430 287 395.5 313Q361 339 305 339Q261 339 229 326.5Q197 314 172 291L73 339L105 700H555V573Z" glyph-name="five" horiz-adv-x="625" unicode="5" /><glyph d="M215 573 201 426Q229 440 263 446.5Q297 453 334 453Q446 453 512 398Q578 343 578 231Q578 116 506.5 51Q435 -14 294 -14Q206 -14 135.5 15Q65 44 23 110L133 191Q186 108 285 108Q351 108 385 140Q419 172 419 228Q419 287 384 313Q349 339 293 339Q248 339 215.5 326.5Q183 314 159 291L56 339L88 700H549V573Z" glyph-name="five.LP" horiz-adv-x="610" /><glyph d="M210 475 196 326Q222 340 255 346.5Q288 353 323 353Q377 353 420.5 339.5Q464 326 494.5 298Q525 270 542 228.5Q559 187 559 130Q559 15 489.5 -49.5Q420 -114 285 -114Q198 -114 130 -85Q62 -56 20 10L128 91Q154 46 189 26Q224 6 275 6Q336 6 369.5 38.5Q403 71 403 127Q403 187 370 213Q337 239 280 239Q240 239 209 226.5Q178 214 154 191L53 239L85 600H530V475Z" glyph-name="five.OP" horiz-adv-x="588" /><glyph d="M222 473 208 326Q235 340 269 346.5Q303 353 340 353Q394 353 438 339.5Q482 326 513.5 298Q545 270 562 228.5Q579 187 579 131Q579 16 508.5 -49Q438 -114 300 -114Q214 -114 145 -85Q76 -56 34 10L142 91Q169 48 205 27Q241 6 291 6Q355 6 390 38.5Q425 71 425 128Q425 187 390 213Q355 239 300 239Q256 239 223.5 226.5Q191 214 167 191L67 239L100 600H549V473Z" glyph-name="five.OT" horiz-adv-x="625" /><glyph d="M11 0ZM143 121 135 54Q168 65 206 65Q278 65 317 32Q356 -1 356 -67Q356 -136 311.5 -174Q267 -212 181 -212Q127 -212 82.5 -195Q38 -178 11 -138Q11 -137 23.5 -128.5Q36 -120 50 -109.5Q64 -99 76 -90L89 -81Q119 -124 174 -124Q206 -124 223.5 -109Q241 -94 241 -68Q241 -39 222.5 -26Q204 -13 175 -13Q133 -13 107 -38L33 -4L51 208H339V120Z" glyph-name="five.inf" horiz-adv-x="376" /><glyph d="M97 0V382H16V497H97V535Q97 637 149 683.5Q201 730 286 730Q321 730 350 721.5Q379 713 397 701L370 598Q358 604 344.5 608Q331 612 316 612Q284 612 267.5 594.5Q251 577 251 532V497H381V382H251V0ZM606 0Q537 0 499.5 32Q462 64 462 141V700H620V162Q620 138 628.5 127.5Q637 117 663 117H695V0Z" glyph-name="fl" horiz-adv-x="708" unicode="&#64258;" /><glyph d="M97 0V382H16V497H97V535Q97 637 149 683.5Q201 730 286 730Q321 730 350 721.5Q379 713 397 701L370 598Q358 604 344.5 608Q331 612 316 612Q284 612 267.5 594.5Q251 577 251 532V497H381V382H251V0ZM620 700V0H462V700Z" glyph-name="fl.alt" horiz-adv-x="696" /><glyph d="M49 -22 94 262H16L34 377H112L121 429Q138 531 194 578Q250 625 333 625Q361 625 393.5 618.5Q426 612 446 598L405 495Q383 508 352 508Q320 508 300 490Q280 472 272 427L264 377H393L375 262H246L201 -30Q186 -127 130 -174Q74 -221 -11 -221Q-36 -221 -64.5 -216Q-93 -211 -114 -199L-76 -94Q-65 -99 -54 -102Q-43 -105 -27 -105Q5 -105 23 -87Q41 -69 49 -22Z" glyph-name="florin" horiz-adv-x="415" unicode="&#402;" /><glyph d="M20 152V266L249 700H401L184 285H373V478H523V285H603V152H523V0H373V152Z" glyph-name="four" horiz-adv-x="625" unicode="4" /><glyph d="M33 152V261L245 700H406L198 285H417V553H569V285H660V152H569V0H417V152Z" glyph-name="four.LP" horiz-adv-x="680" /><glyph d="M33 52V159L236 600H391L193 181H404V453H552V181H637V52H552V-100H404V52Z" glyph-name="four.OP" horiz-adv-x="657" /><glyph d="M20 52V166L249 600H401L184 185H373V378H523V185H603V52H523V-100H373V52Z" glyph-name="four.OT" horiz-adv-x="625" /><glyph d="M22 0ZM22 -119V-43L144 209H257L139 -26H250V110H358V-26H405V-119H358V-200H250V-119Z" glyph-name="four.inf" horiz-adv-x="424" /><glyph glyph-name="fourperemspace" horiz-adv-x="250" unicode="&#8197;" /><glyph d="M511 700 165 0H28L376 700Z" glyph-name="fraction" horiz-adv-x="558" unicode="&#8260;" /><glyph d="M405 259Q405 328 374 361Q343 394 295 394Q191 394 191 258Q191 187 217.5 154Q244 121 295 121Q345 121 375 155Q405 189 405 259ZM561 497V20Q561 -42 540 -87.5Q519 -133 482 -162.5Q445 -192 394 -206.5Q343 -221 282 -221Q245 -221 210.5 -215Q176 -209 146.5 -196.5Q117 -184 93.5 -163Q70 -142 55 -112L144 -35Q167 -75 200.5 -91.5Q234 -108 276 -108Q336 -108 370 -78Q404 -48 404 18V89Q357 6 248 6Q154 6 97 68.5Q40 131 40 256Q40 383 99 446.5Q158 510 257 510Q313 510 354.5 489Q396 468 420 425L433 497Z" glyph-name="g" horiz-adv-x="630" unicode="g" /><glyph d="M40 0ZM405 259Q405 328 374 361Q343 394 295 394Q191 394 191 258Q191 187 217.5 154Q244 121 295 121Q345 121 375 155Q405 189 405 259ZM561 497V20Q561 -42 540 -87.5Q519 -133 482 -162.5Q445 -192 394 -206.5Q343 -221 282 -221Q245 -221 210.5 -215Q176 -209 146.5 -196.5Q117 -184 93.5 -163Q70 -142 55 -112L144 -35Q167 -75 200.5 -91.5Q234 -108 276 -108Q336 -108 370 -78Q404 -48 404 18V89Q357 6 248 6Q154 6 97 68.5Q40 131 40 256Q40 383 99 446.5Q158 510 257 510Q313 510 354.5 489Q396 468 420 425L433 497ZM365 704H462Q462 664 450.5 637Q439 610 417 594Q395 578 363 571Q331 564 291 564Q250 564 218.5 571Q187 578 165 594Q143 610 131.5 637Q120 664 120 704H217Q217 668 235 655Q253 642 291 642Q329 642 347 655Q365 668 365 704Z" glyph-name="gbreve" horiz-adv-x="630" unicode="&#287;" /><glyph d="M40 0ZM291 629 230 571H105V575L228 704H359L484 575V571H352ZM405 259Q405 328 374 361Q343 394 295 394Q191 394 191 258Q191 187 217.5 154Q244 121 295 121Q345 121 375 155Q405 189 405 259ZM561 497V20Q561 -42 540 -87.5Q519 -133 482 -162.5Q445 -192 394 -206.5Q343 -221 282 -221Q245 -221 210.5 -215Q176 -209 146.5 -196.5Q117 -184 93.5 -163Q70 -142 55 -112L144 -35Q167 -75 200.5 -91.5Q234 -108 276 -108Q336 -108 370 -78Q404 -48 404 18V89Q357 6 248 6Q154 6 97 68.5Q40 131 40 256Q40 383 99 446.5Q158 510 257 510Q313 510 354.5 489Q396 468 420 425L433 497Z" glyph-name="gcircumflex" horiz-adv-x="630" unicode="&#285;" /><glyph d="M345 838 373 780Q341 772 320 752.5Q299 733 292 706H294Q332 706 354.5 688Q377 670 377 635Q377 597 355 578.5Q333 560 293 560Q252 560 229 584Q206 608 206 659Q206 693 216 723Q226 753 244 776.5Q262 800 287.5 816Q313 832 345 838ZM405 259Q405 328 374 361Q343 394 295 394Q191 394 191 258Q191 187 217.5 154Q244 121 295 121Q345 121 375 155Q405 189 405 259ZM561 497V20Q561 -42 540 -87.5Q519 -133 482 -162.5Q445 -192 394 -206.5Q343 -221 282 -221Q245 -221 210.5 -215Q176 -209 146.5 -196.5Q117 -184 93.5 -163Q70 -142 55 -112L144 -35Q167 -75 200.5 -91.5Q234 -108 276 -108Q336 -108 370 -78Q404 -48 404 18V89Q357 6 248 6Q154 6 97 68.5Q40 131 40 256Q40 383 99 446.5Q158 510 257 510Q313 510 354.5 489Q396 468 420 425L433 497Z" glyph-name="gcommaaccent" horiz-adv-x="630" unicode="&#291;" /><glyph d="M40 0ZM405 259Q405 328 374 361Q343 394 295 394Q191 394 191 258Q191 187 217.5 154Q244 121 295 121Q345 121 375 155Q405 189 405 259ZM561 497V20Q561 -42 540 -87.5Q519 -133 482 -162.5Q445 -192 394 -206.5Q343 -221 282 -221Q245 -221 210.5 -215Q176 -209 146.5 -196.5Q117 -184 93.5 -163Q70 -142 55 -112L144 -35Q167 -75 200.5 -91.5Q234 -108 276 -108Q336 -108 370 -78Q404 -48 404 18V89Q357 6 248 6Q154 6 97 68.5Q40 131 40 256Q40 383 99 446.5Q158 510 257 510Q313 510 354.5 489Q396 468 420 425L433 497ZM204 645Q204 683 227 701.5Q250 720 292 720Q334 720 356 701.5Q378 683 378 645Q378 607 356 588.5Q334 570 292 570Q250 570 227 588.5Q204 607 204 645Z" glyph-name="gdotaccent" horiz-adv-x="630" unicode="&#289;" /><glyph d="M359 310H307V429H350Q395 429 417.5 453.5Q440 478 440 516Q440 562 411 583Q382 604 336 604Q279 604 250.5 572Q222 540 222 479V0H67V483Q67 598 135 661.5Q203 725 335 725Q402 725 449.5 710.5Q497 696 528 670Q559 644 573.5 608.5Q588 573 588 531Q588 478 566 441.5Q544 405 508 383Q569 364 597 316.5Q625 269 625 206Q625 156 608 116.5Q591 77 561 49.5Q531 22 488.5 7.5Q446 -7 395 -7Q366 -7 338 -3.5Q310 0 287 10L301 122Q316 116 330.5 113Q345 110 362 110Q412 110 442.5 135Q473 160 473 212Q473 258 445 284Q417 310 359 310Z" glyph-name="germandbls" horiz-adv-x="660" unicode="&#223;" /><glyph d="M254 571 125 698V704H299L378 576V571Z" glyph-name="grave" horiz-adv-x="600" unicode="`" /><glyph d="M140 76 81 154 295 306 78 460 140 541 426 338V280Z" glyph-name="greater" horiz-adv-x="501" unicode="&gt;" /><glyph d="M144 145 97 220 285 339 96 457 145 536 418 368V315ZM423 93V0H86V93Z" glyph-name="greaterequal" horiz-adv-x="512" unicode="&#8805;" /><glyph d="M486 0 282 249V252L479 497H636L437 253L645 0ZM237 0 41 247V250L236 497H392L196 251L396 0Z" glyph-name="guillemotleft" horiz-adv-x="678" unicode="&#171;" /><glyph d="M192 497 396 248V245L199 0H42L241 244L33 497ZM441 497 637 250V247L442 0H286L482 246L282 497Z" glyph-name="guillemotright" horiz-adv-x="678" unicode="&#187;" /><glyph d="M236 0 41 247V250L235 497H391L196 251L395 0Z" glyph-name="guilsinglleft" horiz-adv-x="428" unicode="&#8249;" /><glyph d="M192 497 387 250V247L193 0H37L232 246L33 497Z" glyph-name="guilsinglright" horiz-adv-x="428" unicode="&#8250;" /><glyph d="M227 700V406Q253 458 299.5 484Q346 510 402 510Q448 510 482 496Q516 482 538.5 456Q561 430 571.5 393.5Q582 357 582 312V0H424V259Q424 324 401.5 348.5Q379 373 336 373Q288 373 258 341Q228 309 227 244V0H69V700Z" glyph-name="h" horiz-adv-x="646" unicode="h" /><glyph glyph-name="hairspace" horiz-adv-x="100" unicode="&#8202;" /><glyph d="M19 546V629H82V700H239V629H372V546H239V400Q266 454 312.5 480Q359 506 415 506Q500 506 547 456Q594 406 594 306V0H436V250Q436 315 414 340.5Q392 366 349 366Q301 366 271 333.5Q241 301 239 235V0H82V546Z" glyph-name="hbar" horiz-adv-x="659" unicode="&#295;" /><glyph d="M0 0ZM148 814 87 756H-38V760L85 889H216L341 760V756H209ZM227 700V406Q253 458 299.5 484Q346 510 402 510Q448 510 482 496Q516 482 538.5 456Q561 430 571.5 393.5Q582 357 582 312V0H424V259Q424 324 401.5 348.5Q379 373 336 373Q288 373 258 341Q228 309 227 244V0H69V700Z" glyph-name="hcircumflex" horiz-adv-x="646" unicode="&#293;" /><glyph d="M568 699 438 571H323V576L402 704H568ZM364 698 252 571H145V576L213 704H364Z" glyph-name="hungarumlaut" horiz-adv-x="600" unicode="&#733;" /><glyph d="M429 328V205H51V328Z" glyph-name="hyphen" horiz-adv-x="477" unicode="-" /><glyph d="M428 412V289H50V412Z" glyph-name="hyphen.cap" horiz-adv-x="477" /><glyph d="M58 643Q58 686 81.5 705.5Q105 725 149 725Q193 725 216.5 705.5Q240 686 240 643Q240 601 216.5 581.5Q193 562 149 562Q105 562 81.5 581.5Q58 601 58 643ZM70 497H228V0H70Z" glyph-name="i" horiz-adv-x="298" unicode="i" /><glyph d="M70 0ZM328 698 199 571H77V576L158 704H328ZM70 497H228V0H70Z" glyph-name="iacute" horiz-adv-x="298" unicode="&#237;" /><glyph d="M0 0ZM70 497H228V0H70ZM223 704H320Q320 664 308.5 637Q297 610 275 594Q253 578 221 571Q189 564 149 564Q108 564 76.5 571Q45 578 23 594Q1 610 -10.5 637Q-22 664 -22 704H75Q75 668 93 655Q111 642 149 642Q187 642 205 655Q223 668 223 704Z" glyph-name="ibreve" horiz-adv-x="298" unicode="&#301;" /><glyph d="M0 0ZM146 629 85 571H-40V575L83 704H214L339 575V571H207ZM70 497H228V0H70Z" glyph-name="icircumflex" horiz-adv-x="298" unicode="&#238;" /><glyph d="M0 0ZM171 645Q171 683 193 701Q215 719 255 719Q295 719 316.5 701Q338 683 338 645Q338 607 316.5 588.5Q295 570 255 570Q215 570 193 588.5Q171 607 171 645ZM-39 645Q-39 683 -17 701Q5 719 44 719Q84 719 105.5 701Q127 683 127 645Q127 607 105.5 588.5Q84 570 44 570Q5 570 -17 588.5Q-39 607 -39 645ZM70 497H228V0H70Z" glyph-name="idieresis" horiz-adv-x="298" unicode="&#239;" /><glyph d="M58 643Q58 686 81.5 705.5Q105 725 149 725Q193 725 216.5 705.5Q240 686 240 643Q240 601 216.5 581.5Q193 562 149 562Q105 562 81.5 581.5Q58 601 58 643ZM70 497H228V0H70Z" glyph-name="idotaccent" horiz-adv-x="298" /><glyph d="M0 0ZM70 497H228V0H70ZM98 571 -31 698V704H143L222 576V571Z" glyph-name="igrave" horiz-adv-x="298" unicode="&#236;" /><glyph d="M58 0ZM58 643Q58 686 81.5 705.5Q105 725 149 725Q193 725 216.5 705.5Q240 686 240 643Q240 601 216.5 581.5Q193 562 149 562Q105 562 81.5 581.5Q58 601 58 643ZM70 497H228V0H70ZM356 643Q356 686 379.5 705.5Q403 725 447 725Q491 725 514.5 705.5Q538 686 538 643Q538 601 514.5 581.5Q491 562 447 562Q403 562 379.5 581.5Q356 601 356 643ZM368 -20V497H526V-30Q526 -79 512 -115Q498 -151 472.5 -174.5Q447 -198 411.5 -209.5Q376 -221 333 -221Q307 -221 279.5 -216Q252 -211 227 -199L252 -94Q264 -99 276 -102Q288 -105 304 -105Q336 -105 352 -86.5Q368 -68 368 -20Z" glyph-name="ij" horiz-adv-x="596" unicode="&#307;" /><glyph d="M5 0ZM70 497H228V0H70ZM294 677V590H5V677Z" glyph-name="imacron" horiz-adv-x="298" unicode="&#299;" /><glyph d="M58 643Q58 686 81.5 705.5Q105 725 149 725Q193 725 216.5 705.5Q240 686 240 643Q240 601 216.5 581.5Q193 562 149 562Q105 562 81.5 581.5Q58 601 58 643ZM113 -229Q86 -229 60.5 -223Q35 -217 14.5 -202.5Q-6 -188 -18.5 -164.5Q-31 -141 -31 -105Q-31 -51 -1.5 -15.5Q28 20 70 36V497H228V0H152Q128 -2 111 -10.5Q94 -19 83 -31.5Q72 -44 67 -59Q62 -74 62 -90Q62 -119 80.5 -130Q99 -141 125 -141Q142 -141 159.5 -137Q177 -133 192 -124L214 -202Q170 -229 113 -229Z" glyph-name="iogonek" horiz-adv-x="298" unicode="&#303;" /><glyph d="M0 0ZM70 497H228V0H70ZM235 700H330Q333 665 324 641.5Q315 618 300 604Q285 590 266 584Q247 578 228 578Q205 578 186 583.5Q167 589 150 595Q133 601 118 606.5Q103 612 89 612Q72 612 66.5 601.5Q61 591 61 578H-34Q-36 613 -27.5 636.5Q-19 660 -4 674.5Q11 689 30 695Q49 701 68 701Q91 701 110 695.5Q129 690 146 683.5Q163 677 178 671.5Q193 666 207 666Q225 666 230 676Q235 686 235 700Z" glyph-name="itilde" horiz-adv-x="298" unicode="&#297;" /><glyph d="M58 643Q58 686 81.5 705.5Q105 725 149 725Q193 725 216.5 705.5Q240 686 240 643Q240 601 216.5 581.5Q193 562 149 562Q105 562 81.5 581.5Q58 601 58 643ZM70 -20V497H228V-30Q228 -79 214 -115Q200 -151 174.5 -174.5Q149 -198 113.5 -209.5Q78 -221 35 -221Q9 -221 -18.5 -216Q-46 -211 -71 -199L-46 -94Q-34 -99 -22 -102Q-10 -105 6 -105Q38 -105 54 -86.5Q70 -68 70 -20Z" glyph-name="j" horiz-adv-x="298" unicode="j" /><glyph d="M0 0ZM70 -20V497H228V-30Q228 -79 214 -115Q200 -151 174.5 -174.5Q149 -198 113.5 -209.5Q78 -221 35 -221Q9 -221 -18.5 -216Q-46 -211 -71 -199L-46 -94Q-34 -99 -22 -102Q-10 -105 6 -105Q38 -105 54 -86.5Q70 -68 70 -20ZM147 629 86 571H-39V575L84 704H215L340 575V571H208Z" glyph-name="jcircumflex" horiz-adv-x="298" unicode="&#309;" /><glyph d="M69 0V700H226L222 270L406 497H577L388 276L579 0H405L286 174L225 107V0Z" glyph-name="k" horiz-adv-x="584" unicode="k" /><glyph d="M69 0V700H227L223 262L405 497H568L370 249L580 0H405L224 218L225 0Z" glyph-name="k.alt" horiz-adv-x="585" /><glyph d="M69 0ZM258 -333 230 -275Q262 -267 283 -247.5Q304 -228 311 -201H309Q271 -201 248.5 -183Q226 -165 226 -130Q226 -92 248 -73.5Q270 -55 310 -55Q351 -55 374 -79Q397 -103 397 -154Q397 -188 387 -218Q377 -248 359 -271.5Q341 -295 315.5 -311Q290 -327 258 -333ZM69 0V700H226L222 270L406 497H577L388 276L579 0H405L286 174L225 107V0Z" glyph-name="kcommaaccent" horiz-adv-x="584" unicode="&#311;" /><glyph d="M69 0ZM260 -333 232 -275Q264 -267 285 -247.5Q306 -228 313 -201H311Q273 -201 250.5 -183Q228 -165 228 -130Q228 -92 250 -73.5Q272 -55 312 -55Q353 -55 376 -79Q399 -103 399 -154Q399 -188 389 -218Q379 -248 361 -271.5Q343 -295 317.5 -311Q292 -327 260 -333ZM69 0V700H227L223 262L405 497H568L370 249L580 0H405L224 218L225 0Z" glyph-name="kcommaaccent.alt" horiz-adv-x="588" /><glyph d="M69 0V497H224L223 270L406 497H577L388 276L579 0H405L286 174L225 107V0Z" glyph-name="kgreenlandic" horiz-adv-x="584" unicode="&#312;" /><glyph d="M209 0Q140 0 102.5 32Q65 64 65 141V700H223V162Q223 138 231.5 127.5Q240 117 266 117H298V0Z" glyph-name="l" horiz-adv-x="311" unicode="l" /><glyph d="M228 700V0H70V700Z" glyph-name="l.alt" horiz-adv-x="298" /><glyph d="M65 0ZM323 902 194 775H72V780L153 908H323ZM209 0Q140 0 102.5 32Q65 64 65 141V700H223V162Q223 138 231.5 127.5Q240 117 266 117H298V0Z" glyph-name="lacute" horiz-adv-x="311" unicode="&#314;" /><glyph d="M65 0ZM401 441H299L306 700H434ZM209 0Q140 0 102.5 32Q65 64 65 141V700H223V162Q223 138 231.5 127.5Q240 117 266 117H298V0Z" glyph-name="lcaron" horiz-adv-x="415" unicode="&#318;" /><glyph d="M65 0ZM209 0Q140 0 102.5 32Q65 64 65 141V700H223V162Q223 138 231.5 127.5Q240 117 266 117H298V0ZM126 -333 98 -275Q130 -267 151 -247.5Q172 -228 179 -201H177Q139 -201 116.5 -183Q94 -165 94 -130Q94 -92 116 -73.5Q138 -55 178 -55Q219 -55 242 -79Q265 -103 265 -154Q265 -188 255 -218Q245 -248 227 -271.5Q209 -295 183.5 -311Q158 -327 126 -333Z" glyph-name="lcommaaccent" horiz-adv-x="311" unicode="&#316;" /><glyph d="M65 0ZM209 0Q140 0 102.5 32Q65 64 65 141V700H223V162Q223 138 231.5 127.5Q240 117 266 117H298V0ZM277 304Q277 342 300 360.5Q323 379 365 379Q407 379 429 360.5Q451 342 451 304Q451 266 429 247.5Q407 229 365 229Q323 229 300 247.5Q277 266 277 304Z" glyph-name="ldot" horiz-adv-x="437" unicode="&#320;" /><glyph d="M363 541 422 463 209 311 425 158 363 76 77 279V338Z" glyph-name="less" horiz-adv-x="501" unicode="&lt;" /><glyph d="M369 536 417 461 228 342 418 225 369 145 96 313V367ZM86 0V93H423V0Z" glyph-name="lessequal" horiz-adv-x="512" unicode="&#8804;" /><glyph d="M40 639Q40 669 60.5 690Q81 711 112 711Q143 711 163.5 690Q184 669 184 639Q184 609 163.5 588Q143 567 112 567Q81 567 60.5 588Q40 609 40 639ZM143 639Q143 653 134 662Q125 671 112 671Q99 671 90 662Q81 653 81 639Q81 626 90 616.5Q99 607 112 607Q125 607 134 616Q143 625 143 639Z" glyph-name="logicalnot" horiz-adv-x="224" unicode="&#172;" /><glyph d="M323 0H229Q160 0 122.5 32Q85 64 85 141V223L3 163V291L85 351V700H243V451L330 516V388L243 325V162Q243 138 251.5 127.5Q260 117 286 117H323Z" glyph-name="lslash" horiz-adv-x="327" unicode="&#322;" /><glyph d="M69 0V497H199L213 410Q240 460 285 485Q330 510 383 510Q449 510 485.5 477Q522 444 536 395Q561 452 609 481Q657 510 717 510Q762 510 794 496Q826 482 847 456.5Q868 431 878 394.5Q888 358 888 314V0H730V265Q730 323 712 347.5Q694 372 656 372Q613 372 585.5 342.5Q558 313 557 251V0H399V263Q399 322 380 347Q361 372 322 372Q280 372 254 342.5Q228 313 227 250V0Z" glyph-name="m" horiz-adv-x="952" unicode="m" /><glyph d="M440 677V590H151V677Z" glyph-name="macron" horiz-adv-x="600" unicode="&#175;" /><glyph d="M460 357V264H50V357Z" glyph-name="minus" horiz-adv-x="510" unicode="&#8722;" /><glyph d="M28 0ZM287 16V-54H28V16Z" glyph-name="minus.inf" horiz-adv-x="315" /><glyph d="M127 713Q162 713 186 689.5Q210 666 210 631Q210 596 186 572.5Q162 549 127 549Q92 549 68 572.5Q44 596 44 631Q44 666 68 689.5Q92 713 127 713ZM127 670Q110 670 99.5 659Q89 648 89 631Q89 614 99.5 603Q110 592 127 592Q144 592 154.5 603Q165 614 165 631Q165 648 154.5 659Q144 670 127 670Z" glyph-name="mu" horiz-adv-x="254" unicode="&#956;" /><glyph d="M127 126 63 191 183 311 61 434 130 503 253 380 375 502 439 438 317 316 441 192 372 123 248 247Z" glyph-name="multiply" horiz-adv-x="503" unicode="&#215;" /><glyph d="M69 497H200L213 407Q242 458 289.5 484Q337 510 397 510Q445 510 480 496Q515 482 537.5 456Q560 430 571 393.5Q582 357 582 312V0H424V259Q424 324 402 348.5Q380 373 336 373Q288 373 258 341Q228 309 227 244V0H69Z" glyph-name="n" horiz-adv-x="646" unicode="n" /><glyph d="M69 0ZM523 698 394 571H272V576L353 704H523ZM69 497H200L213 407Q242 458 289.5 484Q337 510 397 510Q445 510 480 496Q515 482 537.5 456Q560 430 571 393.5Q582 357 582 312V0H424V259Q424 324 402 348.5Q380 373 336 373Q288 373 258 341Q228 309 227 244V0H69Z" glyph-name="nacute" horiz-adv-x="646" unicode="&#324;" /><glyph d="M69 0ZM348 647 410 704H534V702L410 571H279L155 702V704H286ZM69 497H200L213 407Q242 458 289.5 484Q337 510 397 510Q445 510 480 496Q515 482 537.5 456Q560 430 571 393.5Q582 357 582 312V0H424V259Q424 324 402 348.5Q380 373 336 373Q288 373 258 341Q228 309 227 244V0H69Z" glyph-name="ncaron" horiz-adv-x="646" unicode="&#328;" /><glyph d="M69 0ZM279 -333 251 -275Q283 -267 304 -247.5Q325 -228 332 -201H330Q292 -201 269.5 -183Q247 -165 247 -130Q247 -92 269 -73.5Q291 -55 331 -55Q372 -55 395 -79Q418 -103 418 -154Q418 -188 408 -218Q398 -248 380 -271.5Q362 -295 336.5 -311Q311 -327 279 -333ZM69 497H200L213 407Q242 458 289.5 484Q337 510 397 510Q445 510 480 496Q515 482 537.5 456Q560 430 571 393.5Q582 357 582 312V0H424V259Q424 324 402 348.5Q380 373 336 373Q288 373 258 341Q228 309 227 244V0H69Z" glyph-name="ncommaaccent" horiz-adv-x="646" unicode="&#326;" /><glyph d="M417 482Q417 531 386.5 561.5Q356 592 302 592Q249 592 217.5 563.5Q186 535 186 478Q186 427 213 397Q240 367 300 367Q351 367 384 397.5Q417 428 417 482ZM289 -14Q201 -14 136 12.5Q71 39 39 96L135 180Q178 108 281 108Q319 108 349 120.5Q379 133 399.5 161.5Q420 190 430.5 235.5Q441 281 441 347V368Q421 317 374 286Q327 255 261 255Q159 255 98 312Q37 369 37 478Q37 530 52.5 573.5Q68 617 99.5 648Q131 679 179 696.5Q227 714 291 714Q362 714 418 692.5Q474 671 513 627Q552 583 572.5 514.5Q593 446 593 353Q593 171 517 78.5Q441 -14 289 -14Z" glyph-name="nine" horiz-adv-x="625" unicode="9" /><glyph d="M440 482Q440 531 409 561.5Q378 592 322 592Q268 592 236.5 563.5Q205 535 205 478Q205 427 233 397.5Q261 368 320 368Q371 368 405.5 398Q440 428 440 482ZM310 -14Q221 -14 154 12.5Q87 39 55 96L152 180Q196 108 301 108Q340 108 370.5 120.5Q401 133 422 161.5Q443 190 453.5 235.5Q464 281 464 347V368Q444 316 396 284.5Q348 253 279 253Q227 253 184.5 267.5Q142 282 112 310.5Q82 339 66 381Q50 423 50 478Q50 530 66 573.5Q82 617 115 648Q148 679 197 696.5Q246 714 312 714Q385 714 443 692.5Q501 671 541 627Q581 583 602 514.5Q623 446 623 353Q623 171 545.5 78.5Q468 -14 310 -14Z" glyph-name="nine.LP" horiz-adv-x="684" /><glyph d="M427 382Q427 431 397 461.5Q367 492 314 492Q263 492 233 463.5Q203 435 203 378Q203 327 229 297.5Q255 268 311 268Q361 268 394 298Q427 328 427 382ZM301 -114Q214 -114 149 -87.5Q84 -61 52 -4L149 80Q192 8 293 8Q331 8 360.5 20.5Q390 33 410.5 61.5Q431 90 441.5 135.5Q452 181 452 247V268Q432 216 385 184.5Q338 153 271 153Q170 153 110 210.5Q50 268 50 378Q50 430 65.5 473.5Q81 517 112.5 548Q144 579 192 596.5Q240 614 304 614Q374 614 430 592.5Q486 571 525 527Q564 483 584.5 414.5Q605 346 605 253Q605 71 530 -21.5Q455 -114 301 -114Z" glyph-name="nine.OP" horiz-adv-x="661" /><glyph d="M413 382Q413 431 382 461.5Q351 492 297 492Q244 492 212.5 463.5Q181 435 181 378Q181 327 208.5 297Q236 267 295 267Q346 267 379.5 297.5Q413 328 413 382ZM285 -114Q197 -114 132 -87.5Q67 -61 35 -4L131 80Q174 8 276 8Q314 8 344 20.5Q374 33 394.5 61.5Q415 90 425.5 135.5Q436 181 436 247V268Q416 217 369.5 186Q323 155 257 155Q155 155 93.5 212Q32 269 32 378Q32 430 47.5 473.5Q63 517 95 548Q127 579 174.5 596.5Q222 614 287 614Q357 614 413 592.5Q469 571 508 527Q547 483 567.5 414.5Q588 346 588 253Q588 71 512.5 -21.5Q437 -114 285 -114Z" glyph-name="nine.OT" horiz-adv-x="625" /><glyph d="M27 0ZM254 78Q254 104 238 118Q222 132 194 132Q168 132 152.5 118.5Q137 105 137 79Q137 55 150.5 40Q164 25 194 25Q219 25 236.5 38.5Q254 52 254 78ZM184 -212Q134 -212 90.5 -196.5Q47 -181 27 -148L95 -86Q106 -105 127.5 -115Q149 -125 178 -125Q230 -125 249.5 -91Q269 -57 267 1Q255 -24 228 -39.5Q201 -55 163 -55Q102 -55 64.5 -21Q27 13 27 77Q27 140 66 180Q105 220 190 220Q279 220 329 168.5Q379 117 379 6Q379 -100 332 -156Q285 -212 184 -212Z" glyph-name="nine.inf" horiz-adv-x="414" /><glyph d="M50 337V430H294L345 503H439L388 430H460V337H323L282 281H460V188H217L167 117H72L123 188H50V281H187L228 337Z" glyph-name="notequal" horiz-adv-x="510" unicode="&#8800;" /><glyph d="M69 0ZM69 497H200L213 407Q242 458 289.5 484Q337 510 397 510Q445 510 480 496Q515 482 537.5 456Q560 430 571 393.5Q582 357 582 312V0H424V259Q424 324 402 348.5Q380 373 336 373Q288 373 258 341Q228 309 227 244V0H69ZM430 700H525Q528 665 519 641.5Q510 618 495 604Q480 590 461 584Q442 578 423 578Q400 578 381 583.5Q362 589 345 595Q328 601 313 606.5Q298 612 284 612Q267 612 261.5 601.5Q256 591 256 578H161Q159 613 167.5 636.5Q176 660 191 674.5Q206 689 225 695Q244 701 263 701Q286 701 305 695.5Q324 690 341 683.5Q358 677 373 671.5Q388 666 402 666Q420 666 425 676Q430 686 430 700Z" glyph-name="ntilde" horiz-adv-x="646" unicode="&#241;" /><glyph d="M342 415 305 296H435L471 415ZM80 415 110 522H219L271 700H424L371 522H502L554 700H707L655 522H763L733 415H624L588 296H702L671 189H558L503 0H349L404 189H276L221 0H67L123 189H18L49 296H153L188 415Z" glyph-name="numbersign" horiz-adv-x="769" unicode="#" /><glyph d="M42 249Q42 383 111 446.5Q180 510 303 510Q435 510 499.5 447.5Q564 385 564 249Q564 117 498 51.5Q432 -14 303 -14Q173 -14 107.5 50.5Q42 115 42 249ZM414 248Q414 326 388 359Q362 392 303 392Q243 392 217 359Q191 326 191 248Q191 170 218 136Q245 102 303 102Q360 102 387 136Q414 170 414 248Z" glyph-name="o" horiz-adv-x="606" unicode="o" /><glyph d="M42 0ZM482 698 353 571H231V576L312 704H482ZM42 249Q42 383 111 446.5Q180 510 303 510Q435 510 499.5 447.5Q564 385 564 249Q564 117 498 51.5Q432 -14 303 -14Q173 -14 107.5 50.5Q42 115 42 249ZM414 248Q414 326 388 359Q362 392 303 392Q243 392 217 359Q191 326 191 248Q191 170 218 136Q245 102 303 102Q360 102 387 136Q414 170 414 248Z" glyph-name="oacute" horiz-adv-x="606" unicode="&#243;" /><glyph d="M42 0ZM42 249Q42 383 111 446.5Q180 510 303 510Q435 510 499.5 447.5Q564 385 564 249Q564 117 498 51.5Q432 -14 303 -14Q173 -14 107.5 50.5Q42 115 42 249ZM414 248Q414 326 388 359Q362 392 303 392Q243 392 217 359Q191 326 191 248Q191 170 218 136Q245 102 303 102Q360 102 387 136Q414 170 414 248ZM377 704H474Q474 664 462.5 637Q451 610 429 594Q407 578 375 571Q343 564 303 564Q262 564 230.5 571Q199 578 177 594Q155 610 143.5 637Q132 664 132 704H229Q229 668 247 655Q265 642 303 642Q341 642 359 655Q377 668 377 704Z" glyph-name="obreve" horiz-adv-x="606" unicode="&#335;" /><glyph d="M42 0ZM300 629 239 571H114V575L237 704H368L493 575V571H361ZM42 249Q42 383 111 446.5Q180 510 303 510Q435 510 499.5 447.5Q564 385 564 249Q564 117 498 51.5Q432 -14 303 -14Q173 -14 107.5 50.5Q42 115 42 249ZM414 248Q414 326 388 359Q362 392 303 392Q243 392 217 359Q191 326 191 248Q191 170 218 136Q245 102 303 102Q360 102 387 136Q414 170 414 248Z" glyph-name="ocircumflex" horiz-adv-x="606" unicode="&#244;" /><glyph d="M42 0ZM324 645Q324 683 346 701Q368 719 408 719Q448 719 469.5 701Q491 683 491 645Q491 607 469.5 588.5Q448 570 408 570Q368 570 346 588.5Q324 607 324 645ZM114 645Q114 683 136 701Q158 719 197 719Q237 719 258.5 701Q280 683 280 645Q280 607 258.5 588.5Q237 570 197 570Q158 570 136 588.5Q114 607 114 645ZM42 249Q42 383 111 446.5Q180 510 303 510Q435 510 499.5 447.5Q564 385 564 249Q564 117 498 51.5Q432 -14 303 -14Q173 -14 107.5 50.5Q42 115 42 249ZM414 248Q414 326 388 359Q362 392 303 392Q243 392 217 359Q191 326 191 248Q191 170 218 136Q245 102 303 102Q360 102 387 136Q414 170 414 248Z" glyph-name="odieresis" horiz-adv-x="606" unicode="&#246;" /><glyph d="M41 249Q41 383 110.5 446.5Q180 510 303 510Q428 510 489 446Q521 477 567 493.5Q613 510 671 510Q733 510 777 490.5Q821 471 849.5 437.5Q878 404 891.5 358Q905 312 905 259Q905 246 904 233Q903 220 901 205H566Q571 145 602 119.5Q633 94 687 94Q729 94 756 108Q783 122 801 157L897 99Q866 41 809 13.5Q752 -14 675 -14Q615 -14 567 2Q519 18 486 50Q423 -14 303 -14Q172 -14 106.5 50.5Q41 115 41 249ZM566 296H760Q754 400 668 400Q624 400 597.5 375Q571 350 566 296ZM302 102Q359 102 386.5 136Q414 170 414 248Q414 326 388 359Q362 392 302 392Q243 392 217 359Q191 326 191 248Q191 170 218 136Q245 102 302 102Z" glyph-name="oe" horiz-adv-x="945" unicode="&#339;" /><glyph d="M322 -229Q295 -229 269 -223Q243 -217 223 -202.5Q203 -188 190.5 -164.5Q178 -141 178 -105Q178 -67 194 -37Q210 -7 236 13Q262 33 294 42.5Q326 52 359 50L361 0Q313 -4 291.5 -31Q270 -58 270 -90Q270 -119 288.5 -130Q307 -141 334 -141Q371 -141 401 -124L423 -202Q379 -229 322 -229Z" glyph-name="ogonek" horiz-adv-x="600" unicode="&#731;" /><glyph d="M42 0ZM42 249Q42 383 111 446.5Q180 510 303 510Q435 510 499.5 447.5Q564 385 564 249Q564 117 498 51.5Q432 -14 303 -14Q173 -14 107.5 50.5Q42 115 42 249ZM414 248Q414 326 388 359Q362 392 303 392Q243 392 217 359Q191 326 191 248Q191 170 218 136Q245 102 303 102Q360 102 387 136Q414 170 414 248ZM253 571 124 698V704H298L377 576V571Z" glyph-name="ograve" horiz-adv-x="606" unicode="&#242;" /><glyph d="M42 0ZM568 699 438 571H323V576L402 704H568ZM364 698 252 571H145V576L213 704H364ZM42 249Q42 383 111 446.5Q180 510 303 510Q435 510 499.5 447.5Q564 385 564 249Q564 117 498 51.5Q432 -14 303 -14Q173 -14 107.5 50.5Q42 115 42 249ZM414 248Q414 326 388 359Q362 392 303 392Q243 392 217 359Q191 326 191 248Q191 170 218 136Q245 102 303 102Q360 102 387 136Q414 170 414 248Z" glyph-name="ohungarumlaut" horiz-adv-x="606" unicode="&#337;" /><glyph d="M42 0ZM448 677V590H159V677ZM42 249Q42 383 111 446.5Q180 510 303 510Q435 510 499.5 447.5Q564 385 564 249Q564 117 498 51.5Q432 -14 303 -14Q173 -14 107.5 50.5Q42 115 42 249ZM414 248Q414 326 388 359Q362 392 303 392Q243 392 217 359Q191 326 191 248Q191 170 218 136Q245 102 303 102Q360 102 387 136Q414 170 414 248Z" glyph-name="omacron" horiz-adv-x="606" unicode="&#333;" /><glyph d="M75 0V134H235V517L155 464L95 590L289 706H390V134H552V0Z" glyph-name="one" horiz-adv-x="625" unicode="1" /><glyph d="M313 0H151V517L69 464L7 590L206 706H313Z" glyph-name="one.LP" horiz-adv-x="404" /><glyph d="M298 0H140V417L62 364L3 490L194 606H298Z" glyph-name="one.OP" horiz-adv-x="372" /><glyph d="M77 0V134H235V417L157 364L97 490L290 606H394V134H548V0Z" glyph-name="one.OT" horiz-adv-x="625" /><glyph d="M7 0ZM210 -200H94V82L50 56L7 143L134 213H210Z" glyph-name="one.inf" horiz-adv-x="264" /><glyph d="M7 0ZM556 0V79L694 197Q723 222 738.5 242Q754 262 754 285Q754 309 739 318Q724 327 701 327Q669 327 651.5 314Q634 301 618 274L541 328Q570 379 612.5 399.5Q655 420 715 420Q747 420 775.5 414Q804 408 825.5 393.5Q847 379 859.5 356Q872 333 872 300Q872 256 848.5 220Q825 184 781 145L721 91L887 95V0ZM210 293H94V575L50 549L7 636L134 706H210ZM635 700 289 0H152L500 700Z" glyph-name="onehalf" horiz-adv-x="914" unicode="&#189;" /><glyph d="M7 0ZM210 293H94V575L50 549L7 636L134 706H210ZM635 700 289 0H152L500 700ZM511 81V157L633 409H746L628 174H739V310H847V174H894V81H847V0H739V81Z" glyph-name="onequarter" horiz-adv-x="913" unicode="&#188;" /><glyph d="M7 294ZM210 294H94V576L50 550L7 637L134 707H210Z" glyph-name="onesuperior" horiz-adv-x="264" unicode="&#185;" /><glyph d="M332 328V205H50V328Z" glyph-name="onethirdemdash" horiz-adv-x="381" /><glyph d="M187 416Q221 416 240.5 436.5Q260 457 260 495V502H203Q136 502 136 455Q136 416 187 416ZM269 401Q252 372 222 356.5Q192 341 150 341Q97 341 64 368Q31 395 31 447Q31 504 74 534.5Q117 565 193 565H260Q258 603 238.5 615.5Q219 628 187 628Q152 628 127 617Q102 606 85 586L41 652Q92 714 205 714Q241 714 272 706.5Q303 699 325.5 681Q348 663 361 634Q374 605 374 562V351H276Z" glyph-name="ordfeminine" horiz-adv-x="416" unicode="&#170;" /><glyph d="M291 527Q291 581 269.5 604.5Q248 628 216 628Q181 628 162.5 604.5Q144 581 144 527Q144 476 162 452Q180 428 216 428Q249 428 270 452Q291 476 291 527ZM306 351 299 405Q281 373 251 356.5Q221 340 182 340Q113 340 72.5 386.5Q32 433 32 524Q32 621 74 667.5Q116 714 188 714Q270 714 302 652L311 703H404V351Z" glyph-name="ordfeminine.school" horiz-adv-x="452" /><glyph d="M32 528Q32 624 81.5 669Q131 714 219 714Q313 714 360 669.5Q407 625 407 528Q407 434 359 387Q311 340 219 340Q127 340 79.5 386Q32 432 32 528ZM295 528Q295 580 277 603.5Q259 627 218 627Q179 627 161.5 603.5Q144 580 144 528Q144 474 162 450.5Q180 427 218 427Q257 427 276 450.5Q295 474 295 528Z" glyph-name="ordmasculine" horiz-adv-x="430" unicode="&#186;" /><glyph d="M602 497 526 418Q569 357 569 249Q569 117 503 51.5Q437 -14 308 -14Q206 -14 143 28L115 0H16L92 77Q69 109 58 152Q47 195 47 249Q47 383 116 446.5Q185 510 308 510Q412 510 476 469L504 497ZM201 188 383 374Q357 397 308 397Q247 397 220.5 362Q194 327 194 248Q194 231 196 215Q198 199 201 188ZM421 248Q421 263 419.5 279Q418 295 415 306L233 119Q261 97 308 97Q367 97 394 132.5Q421 168 421 248Z" glyph-name="oslash" horiz-adv-x="616" unicode="&#248;" /><glyph d="M42 0ZM42 249Q42 383 111 446.5Q180 510 303 510Q435 510 499.5 447.5Q564 385 564 249Q564 117 498 51.5Q432 -14 303 -14Q173 -14 107.5 50.5Q42 115 42 249ZM414 248Q414 326 388 359Q362 392 303 392Q243 392 217 359Q191 326 191 248Q191 170 218 136Q245 102 303 102Q360 102 387 136Q414 170 414 248ZM389 700H484Q487 665 478 641.5Q469 618 454 604Q439 590 420 584Q401 578 382 578Q359 578 340 583.5Q321 589 304 595Q287 601 272 606.5Q257 612 243 612Q226 612 220.5 601.5Q215 591 215 578H120Q118 613 126.5 636.5Q135 660 150 674.5Q165 689 184 695Q203 701 222 701Q245 701 264 695.5Q283 690 300 683.5Q317 677 332 671.5Q347 666 361 666Q379 666 384 676Q389 686 389 700Z" glyph-name="otilde" horiz-adv-x="606" unicode="&#245;" /><glyph d="M224 246Q224 171 254 136.5Q284 102 331 102Q439 102 439 247Q439 325 411.5 358.5Q384 392 333 392Q285 392 254.5 358Q224 324 224 246ZM69 497H200L213 408Q240 458 286 484Q332 510 388 510Q487 510 539 445Q591 380 591 255Q591 193 577 143.5Q563 94 535 59Q507 24 464.5 5Q422 -14 366 -14Q274 -14 227 44V-186H69Z" glyph-name="p" horiz-adv-x="633" unicode="p" /><glyph d="M488 570H428V330H488ZM188 455Q188 397 217.5 365Q247 333 295 332H304V568H294Q242 567 215 535Q188 503 188 455ZM428 206V0H304V207Q246 209 199 226Q152 243 118.5 274.5Q85 306 67 351Q49 396 49 453Q49 508 66 554Q83 600 115 632Q147 664 193 682Q239 700 298 700H613V0H488V206Z" glyph-name="paragraph" horiz-adv-x="681" unicode="&#182;" /><glyph d="M338 -12 326 -138Q176 -127 105 -18.5Q34 90 34 294Q34 498 104.5 606Q175 714 322 726L338 600Q296 595 264 577Q232 559 210.5 523Q189 487 178 431Q167 375 167 294Q167 213 178 157Q189 101 210.5 65Q232 29 264 11Q296 -7 338 -12Z" glyph-name="parenleft" horiz-adv-x="365" unicode="(" /><glyph d="M24 0ZM213 -206 204 -293Q111 -285 67.5 -220Q24 -155 24 -34Q24 85 67 149.5Q110 214 201 222L213 136Q163 130 137.5 93Q112 56 112 -34Q112 -80 118.5 -111.5Q125 -143 137.5 -163Q150 -183 169 -193Q188 -203 213 -206Z" glyph-name="parenleft.inf" horiz-adv-x="232" /><glyph d="M27 -12Q69 -7 101 11Q133 29 154.5 65Q176 101 187 157Q198 213 198 294Q198 375 187 431Q176 487 154.5 523Q133 559 101 577Q69 595 27 600L43 726Q190 714 260.5 606Q331 498 331 294Q331 90 260 -18.5Q189 -127 39 -138Z" glyph-name="parenright" horiz-adv-x="365" unicode=")" /><glyph d="M18 0ZM28 -293 18 -206Q43 -203 62 -193Q81 -183 94 -163Q107 -143 113.5 -111.5Q120 -80 120 -34Q120 56 94 93Q68 130 18 136L31 222Q122 214 165 149.5Q208 85 208 -34Q208 -155 164.5 -220Q121 -285 28 -293Z" glyph-name="parenright.inf" horiz-adv-x="232" /><glyph d="M32 0ZM660 203Q660 313 705 367Q750 421 849 421Q949 421 994 367Q1039 313 1039 203Q1039 94 994 40.5Q949 -13 849 -13Q750 -13 705 40.5Q660 94 660 203ZM924 203Q924 276 904.5 303.5Q885 331 849 331Q813 331 793.5 303.5Q774 276 774 204Q774 131 793.5 103.5Q813 76 849 76Q885 76 904.5 103.5Q924 131 924 203ZM32 496Q32 606 77 660Q122 714 221 714Q321 714 366 660Q411 606 411 496Q411 387 366 333.5Q321 280 221 280Q122 280 77 333.5Q32 387 32 496ZM296 496Q296 569 276.5 596.5Q257 624 221 624Q185 624 165.5 596.5Q146 569 146 497Q146 424 165.5 396.5Q185 369 221 369Q257 369 276.5 396.5Q296 424 296 496ZM775 700 429 0H292L640 700Z" glyph-name="percent" horiz-adv-x="1073" unicode="%" /><glyph d="M41 74Q41 116 64 136.5Q87 157 129 157Q171 157 193.5 136.5Q216 116 216 74Q216 35 193.5 14Q171 -7 129 -7Q87 -7 64 13.5Q41 34 41 74Z" glyph-name="period" horiz-adv-x="257" unicode="." /><glyph d="M41 257ZM41 338Q41 380 64 400.5Q87 421 129 421Q171 421 193.5 400.5Q216 380 216 338Q216 299 193.5 278Q171 257 129 257Q87 257 64 277.5Q41 298 41 338Z" glyph-name="periodcentered" horiz-adv-x="257" unicode="&#183;" /><glyph d="M32 0ZM660 203Q660 313 705 367Q750 421 849 421Q949 421 994 367Q1039 313 1039 203Q1039 94 994 40.5Q949 -13 849 -13Q750 -13 705 40.5Q660 94 660 203ZM924 203Q924 276 904.5 303.5Q885 331 849 331Q813 331 793.5 303.5Q774 276 774 204Q774 131 793.5 103.5Q813 76 849 76Q885 76 904.5 103.5Q924 131 924 203ZM32 496Q32 606 77 660Q122 714 221 714Q321 714 366 660Q411 606 411 496Q411 387 366 333.5Q321 280 221 280Q122 280 77 333.5Q32 387 32 496ZM296 496Q296 569 276.5 596.5Q257 624 221 624Q185 624 165.5 596.5Q146 569 146 497Q146 424 165.5 396.5Q185 369 221 369Q257 369 276.5 396.5Q296 424 296 496ZM1095 203Q1095 313 1140 367Q1185 421 1284 421Q1384 421 1429 367Q1474 313 1474 203Q1474 94 1429 40.5Q1384 -13 1284 -13Q1185 -13 1140 40.5Q1095 94 1095 203ZM1359 203Q1359 276 1339.5 303.5Q1320 331 1284 331Q1248 331 1228.5 303.5Q1209 276 1209 204Q1209 131 1228.5 103.5Q1248 76 1284 76Q1320 76 1339.5 103.5Q1359 131 1359 203ZM775 700 429 0H292L640 700Z" glyph-name="perthousand" horiz-adv-x="1508" unicode="&#8240;" /><glyph d="M308 110H202V264H50V357H202V513H308V357H460V264H308Z" glyph-name="plus" horiz-adv-x="510" unicode="+" /><glyph d="M28 0ZM200 -142H115V-54H28V16H115V105H200V16H287V-54H200Z" glyph-name="plus.inf" horiz-adv-x="315" /><glyph d="M308 147H202V282H50V375H202V513H308V375H460V282H308ZM460 93V0H50V93Z" glyph-name="plusminus" horiz-adv-x="510" unicode="&#177;" /><glyph glyph-name="punctuationspace" horiz-adv-x="257" unicode="&#8200;" /><glyph d="M564 -186H406V60Q354 -14 252 -14Q156 -14 99 50.5Q42 115 42 242Q42 377 102 443.5Q162 510 262 510Q317 510 358 489Q399 468 423 424L435 497H564ZM408 248Q408 326 377 359.5Q346 393 298 393Q247 393 220.5 359.5Q194 326 194 248Q194 174 220 139Q246 104 298 104Q347 104 377.5 138.5Q408 173 408 248Z" glyph-name="q" horiz-adv-x="633" unicode="q" /><glyph d="M183 217 177 392H235Q357 392 357 501Q357 547 327 573.5Q297 600 235 600Q188 600 155 579.5Q122 559 96 505L-1 570Q72 720 255 720Q373 720 437 666.5Q501 613 501 510Q501 413 449.5 361.5Q398 310 311 301L307 217ZM154 74Q154 116 177 136.5Q200 157 242 157Q284 157 306.5 136.5Q329 116 329 74Q329 35 306.5 14Q284 -7 242 -7Q200 -7 177 13.5Q154 34 154 74Z" glyph-name="question" horiz-adv-x="518" unicode="?" /><glyph d="M333 290 339 115H281Q159 115 159 6Q159 -40 189 -66.5Q219 -93 281 -93Q328 -93 361 -72.5Q394 -52 420 2L517 -63Q443 -213 261 -213Q143 -213 79 -159.5Q15 -106 15 -3Q15 94 66.5 145.5Q118 197 205 206L209 290ZM362 433Q362 391 339 370.5Q316 350 274 350Q232 350 209.5 370.5Q187 391 187 433Q187 472 209.5 493Q232 514 274 514Q316 514 339 493.5Q362 473 362 433Z" glyph-name="questiondown" horiz-adv-x="518" unicode="&#191;" /><glyph d="M328 488 334 313H276Q154 313 154 204Q154 158 184 131.5Q214 105 276 105Q323 105 356 125.5Q389 146 415 200L512 135Q438 -15 256 -15Q138 -15 74 38.5Q10 92 10 195Q10 292 61.5 343.5Q113 395 200 404L204 488ZM357 631Q357 589 334 568.5Q311 548 269 548Q227 548 204.5 568.5Q182 589 182 631Q182 670 204.5 691Q227 712 269 712Q311 712 334 691.5Q357 671 357 631Z" glyph-name="questiondown.cap" horiz-adv-x="516" /><glyph d="M227 442 216 714H349L329 442ZM170 442H67L48 714H179Z" glyph-name="quotedbl" horiz-adv-x="394" unicode="&quot;" /><glyph d="M71 -142 41 -81Q70 -72 89.5 -53.5Q109 -35 117 -6Q79 -4 59.5 16Q40 36 40 71Q40 109 62 129Q84 149 123 149Q164 149 186.5 125.5Q209 102 209 50Q209 -25 173.5 -75Q138 -125 71 -142ZM271 -142 241 -81Q270 -72 289.5 -53.5Q309 -35 317 -6Q279 -4 259.5 16Q240 36 240 71Q240 109 262 129Q284 149 323 149Q364 149 386.5 125.5Q409 102 409 50Q409 -25 373.5 -75Q338 -125 271 -142Z" glyph-name="quotedblbase" horiz-adv-x="446" unicode="&#8222;" /><glyph d="M177 750 208 688Q179 679 159 660Q139 641 131 612Q169 610 189 589.5Q209 569 209 534Q209 495 186.5 475Q164 455 125 455Q83 455 60.5 479Q38 503 38 555Q38 631 73.5 682Q109 733 177 750ZM378 750 409 688Q380 679 360 660Q340 641 332 612Q370 610 390 589.5Q410 569 410 534Q410 495 387.5 475Q365 455 326 455Q284 455 261.5 479Q239 503 239 555Q239 631 274.5 682Q310 733 378 750Z" glyph-name="quotedblleft" horiz-adv-x="447" unicode="&#8220;" /><glyph d="M70 447 39 509Q68 518 88 537Q108 556 116 585Q78 587 58 607.5Q38 628 38 663Q38 702 60.5 722Q83 742 122 742Q164 742 186.5 718Q209 694 209 642Q209 566 173.5 515Q138 464 70 447ZM271 447 240 509Q269 518 289 537Q309 556 317 585Q279 587 259 607.5Q239 628 239 663Q239 702 261.5 722Q284 742 323 742Q365 742 387.5 718Q410 694 410 642Q410 566 374.5 515Q339 464 271 447Z" glyph-name="quotedblright" horiz-adv-x="447" unicode="&#8221;" /><glyph d="M177 750 208 688Q179 679 159 660Q139 641 131 612Q169 610 189 589.5Q209 569 209 534Q209 495 186.5 475Q164 455 125 455Q83 455 60.5 479Q38 503 38 555Q38 631 73.5 682Q109 733 177 750Z" glyph-name="quoteleft" horiz-adv-x="247" unicode="&#8216;" /><glyph d="M72 448 41 510Q70 519 90 538Q110 557 118 586Q80 588 60 608.5Q40 629 40 664Q40 703 62.5 723Q85 743 124 743Q166 743 188.5 719Q211 695 211 643Q211 567 175.5 516Q140 465 72 448Z" glyph-name="quoteright" horiz-adv-x="247" unicode="&#8217;" /><glyph d="M71 -142 41 -81Q70 -72 89.5 -53.5Q109 -35 117 -6Q79 -4 59.5 16Q40 36 40 71Q40 110 62 129.5Q84 149 122 149Q164 149 186.5 125.5Q209 102 209 50Q209 -25 173.5 -75Q138 -125 71 -142Z" glyph-name="quotesinglbase" horiz-adv-x="246" unicode="&#8218;" /><glyph d="M62 442 48 714H179L165 442Z" glyph-name="quotesingle" horiz-adv-x="225" unicode="'" /><glyph d="M69 0V497H200L213 398Q239 453 285 482.5Q331 512 391 510L392 360Q309 367 268.5 322Q228 277 227 197V0Z" glyph-name="r" horiz-adv-x="411" unicode="r" /><glyph d="M69 0ZM405 698 276 571H154V576L235 704H405ZM69 0V497H200L213 398Q239 453 285 482.5Q331 512 391 510L392 360Q309 367 268.5 322Q228 277 227 197V0Z" glyph-name="racute" horiz-adv-x="411" unicode="&#341;" /><glyph d="M47 0ZM240 647 302 704H426V702L302 571H171L47 702V704H178ZM69 0V497H200L213 398Q239 453 285 482.5Q331 512 391 510L392 360Q309 367 268.5 322Q228 277 227 197V0Z" glyph-name="rcaron" horiz-adv-x="411" unicode="&#345;" /><glyph d="M66 0ZM98 -333 70 -275Q102 -267 123 -247.5Q144 -228 151 -201H149Q111 -201 88.5 -183Q66 -165 66 -130Q66 -92 88 -73.5Q110 -55 150 -55Q191 -55 214 -79Q237 -103 237 -154Q237 -188 227 -218Q217 -248 199 -271.5Q181 -295 155.5 -311Q130 -327 98 -333ZM69 0V497H200L213 398Q239 453 285 482.5Q331 512 391 510L392 360Q309 367 268.5 322Q228 277 227 197V0Z" glyph-name="rcommaaccent" horiz-adv-x="411" unicode="&#343;" /><glyph d="M42 523Q42 611 92.5 662.5Q143 714 237 714Q330 714 380.5 662.5Q431 611 431 523Q431 436 380.5 383.5Q330 331 237 331Q190 331 154 345Q118 359 93 384Q68 409 55 444.5Q42 480 42 523ZM78 523Q78 442 122.5 401.5Q167 361 237 361Q306 361 350.5 401.5Q395 442 395 523Q395 603 350.5 643.5Q306 684 237 684Q167 684 122.5 643.5Q78 603 78 523ZM240 579H207V528H236Q253 528 261 534Q269 540 269 555Q269 579 240 579ZM156 432V621H249Q284 621 301.5 603Q319 585 319 554Q319 532 310.5 518Q302 504 288 495L321 432H266L239 485H207V432Z" glyph-name="registered" horiz-adv-x="473" unicode="&#174;" /><glyph d="M175 447Q107 464 71.5 515Q36 566 36 642Q36 694 59 718Q82 742 123 742Q162 742 184.5 722Q207 702 207 663Q207 628 187 607.5Q167 587 129 585Q146 528 206 509ZM377 447Q309 464 273.5 515Q238 566 238 642Q238 694 261 718Q284 742 325 742Q364 742 386.5 722Q409 702 409 663Q409 628 389 607.5Q369 587 331 585Q348 528 408 509Z" glyph-name="reversequotedblleft" horiz-adv-x="447" /><glyph d="M177 448Q109 465 73.5 516Q38 567 38 643Q38 695 61 719Q84 743 125 743Q164 743 186.5 723Q209 703 209 664Q209 629 189 608.5Q169 588 131 586Q148 529 208 510Z" glyph-name="reversequoteleft" horiz-adv-x="247" /><glyph d="M187 653Q187 703 219.5 729.5Q252 756 302 756Q352 756 384 729.5Q416 703 416 653Q416 602 384 575.5Q352 549 301 549Q252 549 219.5 575.5Q187 602 187 653ZM257 653Q257 632 269 619.5Q281 607 301 607Q321 607 334 619.5Q347 632 347 653Q347 674 334.5 686Q322 698 302 698Q282 698 269.5 686Q257 674 257 653Z" glyph-name="ring" horiz-adv-x="600" unicode="&#730;" /><glyph d="M248 89Q289 89 308 100.5Q327 112 327 131Q327 151 312 160Q297 169 260 177L218 186Q47 222 47 348Q47 381 59.5 410.5Q72 440 98 462Q124 484 163.5 497Q203 510 257 510Q329 510 379.5 489.5Q430 469 465 424L384 342Q361 370 329.5 385Q298 400 257 400Q222 400 203 390Q184 380 184 360Q184 343 198.5 332Q213 321 248 314L306 302Q391 285 429 245.5Q467 206 467 149Q467 116 455.5 86.5Q444 57 417.5 34.5Q391 12 349 -1Q307 -14 247 -14Q169 -14 111.5 9Q54 32 22 83L101 161Q125 126 163 107.5Q201 89 248 89Z" glyph-name="s" horiz-adv-x="510" unicode="s" /><glyph d="M22 0ZM429 698 300 571H178V576L259 704H429ZM248 89Q289 89 308 100.5Q327 112 327 131Q327 151 312 160Q297 169 260 177L218 186Q47 222 47 348Q47 381 59.5 410.5Q72 440 98 462Q124 484 163.5 497Q203 510 257 510Q329 510 379.5 489.5Q430 469 465 424L384 342Q361 370 329.5 385Q298 400 257 400Q222 400 203 390Q184 380 184 360Q184 343 198.5 332Q213 321 248 314L306 302Q391 285 429 245.5Q467 206 467 149Q467 116 455.5 86.5Q444 57 417.5 34.5Q391 12 349 -1Q307 -14 247 -14Q169 -14 111.5 9Q54 32 22 83L101 161Q125 126 163 107.5Q201 89 248 89Z" glyph-name="sacute" horiz-adv-x="510" unicode="&#347;" /><glyph d="M22 0ZM252 647 314 704H438V702L314 571H183L59 702V704H190ZM248 89Q289 89 308 100.5Q327 112 327 131Q327 151 312 160Q297 169 260 177L218 186Q47 222 47 348Q47 381 59.5 410.5Q72 440 98 462Q124 484 163.5 497Q203 510 257 510Q329 510 379.5 489.5Q430 469 465 424L384 342Q361 370 329.5 385Q298 400 257 400Q222 400 203 390Q184 380 184 360Q184 343 198.5 332Q213 321 248 314L306 302Q391 285 429 245.5Q467 206 467 149Q467 116 455.5 86.5Q444 57 417.5 34.5Q391 12 349 -1Q307 -14 247 -14Q169 -14 111.5 9Q54 32 22 83L101 161Q125 126 163 107.5Q201 89 248 89Z" glyph-name="scaron" horiz-adv-x="510" unicode="&#353;" /><glyph d="M234 -251Q189 -251 152 -234Q115 -217 93 -182L147 -127Q162 -150 180.5 -162.5Q199 -175 228 -175Q249 -175 263.5 -166.5Q278 -158 278 -139Q278 -122 264 -112Q250 -102 225 -102Q219 -102 213.5 -102.5Q208 -103 202 -104L179 -89L204 -12Q142 -7 96 16.5Q50 40 22 83L101 161Q125 126 163 107.5Q201 89 248 89Q289 89 308 100.5Q327 112 327 131Q327 151 312 160Q297 169 260 177L218 186Q47 222 47 348Q47 381 59.5 410.5Q72 440 98 462Q124 484 163.5 497Q203 510 257 510Q329 510 379.5 489.5Q430 469 465 424L384 342Q361 370 329.5 385Q298 400 257 400Q222 400 203 390Q184 380 184 360Q184 343 198.5 332Q213 321 248 314L306 302Q391 285 429 245.5Q467 206 467 149Q467 119 457 91Q447 63 425 41.5Q403 20 368 5.5Q333 -9 283 -13L270 -50H271Q291 -52 309.5 -58Q328 -64 342 -75.5Q356 -87 364.5 -103.5Q373 -120 373 -142Q373 -170 361.5 -190.5Q350 -211 331 -224.5Q312 -238 287 -244.5Q262 -251 234 -251Z" glyph-name="scedilla" horiz-adv-x="510" unicode="&#351;" /><glyph d="M22 0ZM246 629 185 571H60V575L183 704H314L439 575V571H307ZM248 89Q289 89 308 100.5Q327 112 327 131Q327 151 312 160Q297 169 260 177L218 186Q47 222 47 348Q47 381 59.5 410.5Q72 440 98 462Q124 484 163.5 497Q203 510 257 510Q329 510 379.5 489.5Q430 469 465 424L384 342Q361 370 329.5 385Q298 400 257 400Q222 400 203 390Q184 380 184 360Q184 343 198.5 332Q213 321 248 314L306 302Q391 285 429 245.5Q467 206 467 149Q467 116 455.5 86.5Q444 57 417.5 34.5Q391 12 349 -1Q307 -14 247 -14Q169 -14 111.5 9Q54 32 22 83L101 161Q125 126 163 107.5Q201 89 248 89Z" glyph-name="scircumflex" horiz-adv-x="510" unicode="&#349;" /><glyph d="M22 0ZM190 -333 162 -275Q194 -267 215 -247.5Q236 -228 243 -201H241Q203 -201 180.5 -183Q158 -165 158 -130Q158 -92 180 -73.5Q202 -55 242 -55Q283 -55 306 -79Q329 -103 329 -154Q329 -188 319 -218Q309 -248 291 -271.5Q273 -295 247.5 -311Q222 -327 190 -333ZM248 89Q289 89 308 100.5Q327 112 327 131Q327 151 312 160Q297 169 260 177L218 186Q47 222 47 348Q47 381 59.5 410.5Q72 440 98 462Q124 484 163.5 497Q203 510 257 510Q329 510 379.5 489.5Q430 469 465 424L384 342Q361 370 329.5 385Q298 400 257 400Q222 400 203 390Q184 380 184 360Q184 343 198.5 332Q213 321 248 314L306 302Q391 285 429 245.5Q467 206 467 149Q467 116 455.5 86.5Q444 57 417.5 34.5Q391 12 349 -1Q307 -14 247 -14Q169 -14 111.5 9Q54 32 22 83L101 161Q125 126 163 107.5Q201 89 248 89Z" glyph-name="scommaaccent" horiz-adv-x="510" unicode="&#537;" /><glyph d="M347 329Q347 352 330.5 368.5Q314 385 270 393L250 397Q231 401 217 398Q203 395 193.5 388Q184 381 179.5 370.5Q175 360 175 349Q175 329 190.5 311.5Q206 294 245 286L265 282Q304 274 325 288.5Q346 303 347 329ZM251 -32Q180 -32 127.5 -12Q75 8 43 55L123 127Q145 98 174 83Q203 68 249 68Q291 68 310.5 81Q330 94 330 118Q330 140 312 151.5Q294 163 254 173L217 182Q128 203 91 245Q54 287 54 343Q54 375 68.5 404.5Q83 434 120 451Q91 472 78 499Q65 526 65 558Q65 591 76.5 619.5Q88 648 112 669Q136 690 173 702Q210 714 262 714Q328 714 371.5 695.5Q415 677 446 639L370 563Q347 586 322.5 598.5Q298 611 263 611Q192 611 192 561Q192 545 206 530Q220 515 258 506L311 494Q396 474 434 437Q472 400 472 339Q472 307 457.5 277.5Q443 248 405 231Q464 194 464 123Q464 93 453.5 65.5Q443 38 418 16Q393 -6 352.5 -19Q312 -32 251 -32Z" glyph-name="section" horiz-adv-x="519" unicode="&#167;" /><glyph d="M40 0ZM73 -150 41 -85Q71 -76 92 -56Q113 -36 121 -6Q81 -4 60.5 17Q40 38 40 75Q40 116 63 136.5Q86 157 127 157Q170 157 194 132Q218 107 218 53Q218 -26 181 -79Q144 -132 73 -150ZM41 414Q41 456 64 476.5Q87 497 129 497Q171 497 193.5 476.5Q216 456 216 414Q216 375 193.5 354Q171 333 129 333Q87 333 64 353.5Q41 374 41 414Z" glyph-name="semicolon" horiz-adv-x="257" unicode=";" /><glyph d="M176 0Q176 85 192 165.5Q208 246 237 318.5Q266 391 307.5 453.5Q349 516 399 565L56 561V700H569V588Q465 484 407 341Q349 198 349 0Z" glyph-name="seven" horiz-adv-x="625" unicode="7" /><glyph d="M145 0Q145 85 161 165.5Q177 246 207 318.5Q237 391 278.5 453.5Q320 516 371 565L24 561V700H543V588Q490 536 449 475Q408 414 379.5 341.5Q351 269 335.5 184Q320 99 320 0Z" glyph-name="seven.LP" horiz-adv-x="543" /><glyph d="M140 -100Q140 -15 155.5 65.5Q171 146 199.5 218.5Q228 291 268 353.5Q308 416 357 465L24 461V600H524V488Q423 384 367 241Q311 98 310 -100Z" glyph-name="seven.OP" horiz-adv-x="524" /><glyph d="M169 -100Q169 -15 185 65.5Q201 146 230.5 218.5Q260 291 301.5 353.5Q343 416 393 465L50 461V600H563V488Q459 384 401 241Q343 98 343 -100Z" glyph-name="seven.OT" horiz-adv-x="625" /><glyph d="M16 0ZM212 -200H85Q85 -102 121 -21Q157 60 214 114L16 111V208H336V132Q304 97 280.5 61.5Q257 26 242 -14.5Q227 -55 219.5 -100.5Q212 -146 212 -200Z" glyph-name="seven.inf" horiz-adv-x="342" /><glyph d="M336 -14Q265 -14 209 7.5Q153 29 114 73Q75 117 54.5 185.5Q34 254 34 347Q34 530 110 622Q186 714 338 714Q425 714 489 685.5Q553 657 583 597L485 514Q467 548 435 570Q403 592 347 592Q308 592 278 579Q248 566 227.5 537.5Q207 509 196.5 463Q186 417 186 351V329Q206 380 254 410Q302 440 368 440Q419 440 460 426Q501 412 530 384.5Q559 357 575 316.5Q591 276 591 222Q591 170 575 127Q559 84 527.5 52.5Q496 21 448 3.5Q400 -14 336 -14ZM208 215Q208 167 239 136.5Q270 106 324 106Q377 106 408.5 134Q440 162 440 217Q440 268 412.5 298Q385 328 326 328Q275 328 241.5 298.5Q208 269 208 215Z" glyph-name="six" horiz-adv-x="625" unicode="6" /><glyph d="M374 -14Q301 -14 243 7.5Q185 29 145 73Q105 117 83.5 185.5Q62 254 62 347Q62 530 139.5 622Q217 714 375 714Q463 714 528 685.5Q593 657 624 597L524 514Q505 548 473.5 570Q442 592 385 592Q345 592 314.5 579Q284 566 263 537.5Q242 509 231 463Q220 417 220 351V329Q241 380 289 410Q337 440 406 440Q512 440 575 385Q638 330 638 222Q638 170 621.5 127Q605 84 572 52.5Q539 21 489.5 3.5Q440 -14 374 -14ZM243 215Q243 167 274 136.5Q305 106 361 106Q415 106 447.5 134Q480 162 480 217Q480 268 451.5 298Q423 328 363 328Q312 328 277.5 298.5Q243 269 243 215Z" glyph-name="six.LP" horiz-adv-x="689" /><glyph d="M361 -14Q290 -14 234 7.5Q178 29 139.5 73Q101 117 80.5 185.5Q60 254 60 347Q60 530 135 622Q210 714 363 714Q449 714 512.5 685.5Q576 657 605 597L506 514Q488 548 457.5 570Q427 592 372 592Q333 592 303.5 579Q274 566 254 537.5Q234 509 223.5 463Q213 417 213 351V329Q233 380 280 410Q327 440 394 440Q495 440 554.5 385Q614 330 614 222Q614 170 598.5 127Q583 84 551.5 52.5Q520 21 472.5 3.5Q425 -14 361 -14ZM236 215Q236 167 265.5 136.5Q295 106 348 106Q400 106 431 134Q462 162 462 217Q462 268 435 298Q408 328 350 328Q301 328 268.5 298.5Q236 269 236 215Z" glyph-name="six.OP" horiz-adv-x="662" /><glyph d="M336 -14Q265 -14 209.5 7.5Q154 29 115 73Q76 117 55.5 185.5Q35 254 35 347Q35 530 111 622Q187 714 339 714Q426 714 490 685.5Q554 657 585 597L486 514Q468 548 436 570Q404 592 348 592Q309 592 279 579Q249 566 228.5 537.5Q208 509 197.5 463Q187 417 187 351V329Q208 380 255 410Q302 440 369 440Q420 440 461 426Q502 412 531 384.5Q560 357 575.5 316.5Q591 276 591 222Q591 170 575.5 127Q560 84 528 52.5Q496 21 448 3.5Q400 -14 336 -14ZM209 215Q209 167 240 136.5Q271 106 325 106Q378 106 409.5 134Q441 162 441 217Q441 268 413.5 298Q386 328 327 328Q276 328 242.5 298.5Q209 269 209 215Z" glyph-name="six.OT" horiz-adv-x="625" /><glyph d="M31 0ZM223 -212Q130 -212 80.5 -160.5Q31 -109 31 2Q31 108 77.5 164Q124 220 224 220Q278 220 318.5 202Q359 184 378 148L309 89Q300 106 282.5 119.5Q265 133 232 133Q187 133 164.5 104.5Q142 76 143 7V2Q156 26 182.5 42Q209 58 247 58Q309 58 345.5 25Q382 -8 382 -72Q382 -133 343 -172.5Q304 -212 223 -212ZM155 -73Q155 -96 170 -111Q185 -126 214 -126Q240 -126 256.5 -112.5Q273 -99 273 -73Q273 -50 259 -36Q245 -22 215 -22Q189 -22 172 -35Q155 -48 155 -73Z" glyph-name="six.inf" horiz-adv-x="416" /><glyph glyph-name="sixperemspace" horiz-adv-x="167" unicode="&#8198;" /><glyph d="M555 700 175 0H3L382 700Z" glyph-name="slash" horiz-adv-x="558" unicode="/" /><glyph glyph-name="space" horiz-adv-x="235" unicode=" " /><glyph d="M31 0V125H63Q90 125 99 148Q108 171 106 219L103 288H31V389H100L97 481Q95 547 115 592Q135 637 170 664Q205 691 251.5 702.5Q298 714 349 714Q435 714 489 682.5Q543 651 581 578L472 502Q452 541 425.5 563Q399 585 355 585Q300 585 276 555.5Q252 526 254 466L257 389H417V288H263L264 216Q265 193 262.5 167Q260 141 249 124H396Q438 124 470.5 138Q503 152 532 183L603 87Q562 36 512.5 18Q463 0 395 0Z" glyph-name="sterling" horiz-adv-x="622" unicode="&#163;" /><glyph d="M18 497H94V638H248V497H381V382H248V181Q248 137 266.5 119.5Q285 102 318 102Q352 102 379 115L400 15Q346 -14 277 -14Q238 -14 205 -5Q172 4 147 25.5Q122 47 108 81.5Q94 116 94 167V382H18Z" glyph-name="t" horiz-adv-x="411" unicode="t" /><glyph d="M381 497V382H248V317H381V233H248V177Q248 135 267 118.5Q286 102 318 102Q352 102 379 115L400 15Q346 -14 277 -14Q238 -14 205 -5Q172 4 147 25.5Q122 47 108 81.5Q94 116 94 167V233H18V317H94V382H18V497H94V638H248V497Z" glyph-name="tbar" horiz-adv-x="407" unicode="&#359;" /><glyph d="M400 555H303L310 750H433ZM18 497H94V638H248V497H381V382H248V181Q248 137 266.5 119.5Q285 102 318 102Q352 102 379 115L400 15Q346 -14 277 -14Q238 -14 205 -5Q172 4 147 25.5Q122 47 108 81.5Q94 116 94 167V382H18Z" glyph-name="tcaron" horiz-adv-x="411" unicode="&#357;" /><glyph d="M405 -142Q405 -170 393.5 -190.5Q382 -211 363 -224.5Q344 -238 319 -244.5Q294 -251 266 -251Q221 -251 184 -234Q147 -217 125 -182L179 -127Q194 -150 212.5 -162.5Q231 -175 260 -175Q281 -175 295.5 -166.5Q310 -158 310 -139Q310 -122 296 -112Q282 -102 257 -102Q251 -102 245.5 -102.5Q240 -103 234 -104L211 -89L236 -11Q205 -7 179 5Q153 17 134 38.5Q115 60 104.5 91.5Q94 123 94 167V382H18V497H94V638H248V497H381V382H248V181Q248 137 266.5 119.5Q285 102 318 102Q352 102 379 115L400 15Q361 -6 316 -12L302 -50H303Q323 -52 341.5 -58Q360 -64 374 -75.5Q388 -87 396.5 -103.5Q405 -120 405 -142Z" glyph-name="tcedilla" horiz-adv-x="411" unicode="&#355;" /><glyph glyph-name="thinspace" horiz-adv-x="200" unicode="&#8201;" /><glyph d="M224 246Q224 171 254 136.5Q284 102 331 102Q439 102 439 247Q439 325 411.5 358.5Q384 392 333 392Q285 392 254.5 358Q224 324 224 246ZM227 700V429Q252 471 294.5 490.5Q337 510 388 510Q487 510 539 445Q591 380 591 255Q591 193 577 143.5Q563 94 535 59Q507 24 464.5 5Q422 -14 366 -14Q272 -14 227 48V-186H69V700Z" glyph-name="thorn" horiz-adv-x="634" unicode="&#254;" /><glyph d="M312 -14Q219 -14 153 17.5Q87 49 45 122L154 197Q181 149 216 129Q251 109 302 109Q360 109 393.5 133Q427 157 427 208Q427 251 399.5 273.5Q372 296 312 296H232V414H312Q359 414 385 436Q411 458 411 499Q411 545 382 566.5Q353 588 299 588Q250 588 221 568Q192 548 167 504L59 569Q99 647 161.5 680.5Q224 714 317 714Q437 714 501 663Q565 612 565 518Q565 464 541 425.5Q517 387 474 362Q524 341 552 303Q580 265 580 203Q580 155 562.5 115Q545 75 511.5 46.5Q478 18 428 2Q378 -14 312 -14Z" glyph-name="three" horiz-adv-x="625" unicode="3" /><glyph d="M298 -14Q204 -14 136.5 17.5Q69 49 26 122L140 199Q168 151 203.5 131Q239 111 291 111Q349 111 381.5 134.5Q414 158 414 208Q414 251 386.5 273.5Q359 296 298 296H216V414H297Q345 414 371.5 436Q398 458 398 499Q398 544 369 565Q340 586 286 586Q236 586 206.5 566Q177 546 152 501L40 569Q82 647 145.5 680.5Q209 714 303 714Q426 714 491.5 663Q557 612 557 518Q557 464 532.5 425.5Q508 387 464 362Q515 341 543 303Q571 265 571 203Q571 155 553.5 115Q536 75 501.5 46.5Q467 18 416 2Q365 -14 298 -14Z" glyph-name="three.LP" horiz-adv-x="626" /><glyph d="M285 -115Q194 -115 130 -83.5Q66 -52 24 22L134 96Q160 48 193 27.5Q226 7 275 7Q333 7 366 31.5Q399 56 399 107Q399 151 372 173.5Q345 196 286 196H207V314H285Q331 314 356.5 335.5Q382 357 382 399Q382 444 353.5 466.5Q325 489 273 489Q226 489 198.5 468.5Q171 448 148 404L38 469Q78 547 138.5 580.5Q199 614 290 614Q411 614 474.5 563Q538 512 538 418Q538 364 514 325.5Q490 287 447 262Q497 241 525 203Q553 165 553 103Q553 54 536 14Q519 -26 485 -54.5Q451 -83 401 -99Q351 -115 285 -115Z" glyph-name="three.OP" horiz-adv-x="603" /><glyph d="M306 -114Q214 -114 148 -82.5Q82 -51 40 22L149 97Q175 49 210 29Q245 9 296 9Q355 9 388 33Q421 57 421 108Q421 151 394 173.5Q367 196 307 196H226V314H306Q354 314 379.5 336Q405 358 405 399Q405 445 376 466.5Q347 488 294 488Q245 488 216 468Q187 448 162 404L53 469Q94 547 156.5 580.5Q219 614 311 614Q432 614 496 563Q560 512 560 418Q560 364 536 325.5Q512 287 468 262Q519 241 546.5 203Q574 165 574 103Q574 55 557 15Q540 -25 506 -53.5Q472 -82 422 -98Q372 -114 306 -114Z" glyph-name="three.OT" horiz-adv-x="625" /><glyph d="M16 0ZM184 -213Q127 -213 84.5 -194Q42 -175 16 -130L96 -77Q112 -104 131 -114Q150 -124 177 -124Q206 -124 223 -113Q240 -102 240 -79Q240 -37 178 -37H135V44H178Q230 44 230 87Q230 128 174 128Q148 128 132.5 117.5Q117 107 103 83L23 129Q49 179 89 199.5Q129 220 186 220Q264 220 304.5 188.5Q345 157 345 100Q345 69 330.5 46Q316 23 290 8Q319 -5 335.5 -26.5Q352 -48 352 -84Q352 -143 308.5 -178Q265 -213 184 -213Z" glyph-name="three.inf" horiz-adv-x="384" /><glyph glyph-name="threeperemspace" horiz-adv-x="333" unicode="&#8196;" /><glyph d="M645 328V205H50V328Z" glyph-name="threequarteremdash" horiz-adv-x="694" /><glyph d="M16 0ZM184 280Q127 280 84.5 299Q42 318 16 363L96 416Q112 389 131 379Q150 369 177 369Q206 369 223 380Q240 391 240 414Q240 456 178 456H135V537H178Q230 537 230 580Q230 621 174 621Q148 621 132.5 610.5Q117 600 103 576L23 622Q49 672 89 692.5Q129 713 186 713Q264 713 304.5 681.5Q345 650 345 593Q345 562 330.5 539Q316 516 290 501Q319 488 335.5 466.5Q352 445 352 409Q352 350 308.5 315Q265 280 184 280ZM736 700 390 0H253L601 700ZM598 81V157L720 409H833L715 174H826V310H934V174H981V81H934V0H826V81Z" glyph-name="threequarters" horiz-adv-x="1000" unicode="&#190;" /><glyph d="M16 281ZM184 281Q127 281 84.5 300Q42 319 16 364L96 417Q112 390 131 380Q150 370 177 370Q206 370 223 381Q240 392 240 415Q240 457 178 457H135V538H178Q230 538 230 581Q230 622 174 622Q148 622 132.5 611.5Q117 601 103 577L23 623Q49 673 89 693.5Q129 714 186 714Q264 714 304.5 682.5Q345 651 345 594Q345 563 330.5 540Q316 517 290 502Q319 489 335.5 467.5Q352 446 352 410Q352 351 308.5 316Q265 281 184 281Z" glyph-name="threesuperior" horiz-adv-x="384" unicode="&#179;" /><glyph d="M393 700H488Q491 665 482 641.5Q473 618 458 604Q443 590 424 584Q405 578 386 578Q363 578 344 583.5Q325 589 308 595Q291 601 276 606.5Q261 612 247 612Q230 612 224.5 601.5Q219 591 219 578H124Q122 613 130.5 636.5Q139 660 154 674.5Q169 689 188 695Q207 701 226 701Q249 701 268 695.5Q287 690 304 683.5Q321 677 336 671.5Q351 666 365 666Q383 666 388 676Q393 686 393 700Z" glyph-name="tilde" horiz-adv-x="600" unicode="&#732;" /><glyph d="M16 700H294V624H199V406H113V624H16ZM325 406V700H422L510 494L602 700H694V406H613L614 561L545 406H472L403 561L405 406Z" glyph-name="trademark" horiz-adv-x="719" unicode="&#8482;" /><glyph d="M51 0V119L279 326Q333 375 363.5 413Q394 451 394 496Q394 543 366 563Q338 583 290 583Q232 583 198.5 558.5Q165 534 139 483L33 560Q77 644 144.5 679Q212 714 307 714Q360 714 405 703Q450 692 482.5 668Q515 644 533.5 606.5Q552 569 552 516Q552 480 542.5 447Q533 414 514 382Q495 350 465.5 316.5Q436 283 396 246L270 129L580 133V0Z" glyph-name="two" horiz-adv-x="625" unicode="2" /><glyph d="M42 0V119L274 326Q328 375 359 413Q390 451 390 496Q390 543 361.5 563Q333 583 285 583Q256 583 233.5 577Q211 571 193 558.5Q175 546 160 527Q145 508 132 483L24 560Q68 644 136.5 679Q205 714 303 714Q357 714 403 703Q449 692 482 668Q515 644 534 606.5Q553 569 553 516Q553 480 543.5 447Q534 414 514 382Q494 350 464 316.5Q434 283 393 246L267 129L582 133V0Z" glyph-name="two.LP" horiz-adv-x="617" /><glyph d="M43 0 42 102 239 278Q287 321 313 353.5Q339 386 339 424Q339 459 316.5 474Q294 489 259 489Q216 489 189.5 468.5Q163 448 140 404L32 472Q70 548 129 581Q188 614 274 614Q322 614 363 604.5Q404 595 434 575Q464 555 481 523Q498 491 498 446Q498 414 488.5 385.5Q479 357 460.5 328.5Q442 300 415 270.5Q388 241 352 208L251 113L511 118V0Z" glyph-name="two.OP" horiz-adv-x="549" /><glyph d="M71 0 70 109 277 276Q331 319 361.5 350.5Q392 382 392 422Q392 457 366.5 472.5Q341 488 300 488Q252 488 223 467.5Q194 447 172 401L63 470Q104 548 167 581Q230 614 319 614Q371 614 414 605Q457 596 488 575Q519 554 536.5 521.5Q554 489 554 443Q554 410 545 381Q536 352 516 322.5Q496 293 463.5 262Q431 231 384 195L281 116L573 120V0Z" glyph-name="two.OT" horiz-adv-x="625" /><glyph d="M12 0ZM27 -200V-121L165 -3Q194 22 209.5 42Q225 62 225 85Q225 109 210 118Q195 127 172 127Q140 127 122.5 114Q105 101 89 74L12 128Q41 179 83.5 199.5Q126 220 186 220Q218 220 246.5 214Q275 208 296.5 193.5Q318 179 330.5 156Q343 133 343 100Q343 56 319.5 20Q296 -16 252 -55L192 -109L358 -105V-200Z" glyph-name="two.inf" horiz-adv-x="384" /><glyph d="M12 294ZM27 294V373L165 491Q194 516 209.5 536Q225 556 225 579Q225 603 210 612Q195 621 172 621Q140 621 122.5 608Q105 595 89 568L12 622Q41 673 83.5 693.5Q126 714 186 714Q218 714 246.5 708Q275 702 296.5 687.5Q318 673 330.5 650Q343 627 343 594Q343 550 319.5 514Q296 478 252 439L192 385L358 389V294Z" glyph-name="twosuperior" horiz-adv-x="384" unicode="&#178;" /><glyph d="M443 0 431 84Q403 34 356.5 10Q310 -14 255 -14Q205 -14 168.5 0.5Q132 15 109 41Q86 67 75 102.5Q64 138 64 181V497H222V224Q222 115 310 115Q355 115 384.5 147.5Q414 180 415 243V497H572V0Z" glyph-name="u" horiz-adv-x="642" unicode="u" /><glyph d="M64 0ZM497 698 368 571H246V576L327 704H497ZM443 0 431 84Q403 34 356.5 10Q310 -14 255 -14Q205 -14 168.5 0.5Q132 15 109 41Q86 67 75 102.5Q64 138 64 181V497H222V224Q222 115 310 115Q355 115 384.5 147.5Q414 180 415 243V497H572V0Z" glyph-name="uacute" horiz-adv-x="643" unicode="&#250;" /><glyph d="M64 0ZM443 0 431 84Q403 34 356.5 10Q310 -14 255 -14Q205 -14 168.5 0.5Q132 15 109 41Q86 67 75 102.5Q64 138 64 181V497H222V224Q222 115 310 115Q355 115 384.5 147.5Q414 180 415 243V497H572V0ZM392 704H489Q489 664 477.5 637Q466 610 444 594Q422 578 390 571Q358 564 318 564Q277 564 245.5 571Q214 578 192 594Q170 610 158.5 637Q147 664 147 704H244Q244 668 262 655Q280 642 318 642Q356 642 374 655Q392 668 392 704Z" glyph-name="ubreve" horiz-adv-x="643" unicode="&#365;" /><glyph d="M64 0ZM315 629 254 571H129V575L252 704H383L508 575V571H376ZM443 0 431 84Q403 34 356.5 10Q310 -14 255 -14Q205 -14 168.5 0.5Q132 15 109 41Q86 67 75 102.5Q64 138 64 181V497H222V224Q222 115 310 115Q355 115 384.5 147.5Q414 180 415 243V497H572V0Z" glyph-name="ucircumflex" horiz-adv-x="643" unicode="&#251;" /><glyph d="M64 0ZM340 645Q340 683 362 701Q384 719 424 719Q464 719 485.5 701Q507 683 507 645Q507 607 485.5 588.5Q464 570 424 570Q384 570 362 588.5Q340 607 340 645ZM130 645Q130 683 152 701Q174 719 213 719Q253 719 274.5 701Q296 683 296 645Q296 607 274.5 588.5Q253 570 213 570Q174 570 152 588.5Q130 607 130 645ZM443 0 431 84Q403 34 356.5 10Q310 -14 255 -14Q205 -14 168.5 0.5Q132 15 109 41Q86 67 75 102.5Q64 138 64 181V497H222V224Q222 115 310 115Q355 115 384.5 147.5Q414 180 415 243V497H572V0Z" glyph-name="udieresis" horiz-adv-x="643" unicode="&#252;" /><glyph d="M64 0ZM443 0 431 84Q403 34 356.5 10Q310 -14 255 -14Q205 -14 168.5 0.5Q132 15 109 41Q86 67 75 102.5Q64 138 64 181V497H222V224Q222 115 310 115Q355 115 384.5 147.5Q414 180 415 243V497H572V0ZM267 571 138 698V704H312L391 576V571Z" glyph-name="ugrave" horiz-adv-x="643" unicode="&#249;" /><glyph d="M64 0ZM443 0 431 84Q403 34 356.5 10Q310 -14 255 -14Q205 -14 168.5 0.5Q132 15 109 41Q86 67 75 102.5Q64 138 64 181V497H222V224Q222 115 310 115Q355 115 384.5 147.5Q414 180 415 243V497H572V0ZM580 699 450 571H335V576L414 704H580ZM376 698 264 571H157V576L225 704H376Z" glyph-name="uhungarumlaut" horiz-adv-x="643" unicode="&#369;" /><glyph d="M64 0ZM443 0 431 84Q403 34 356.5 10Q310 -14 255 -14Q205 -14 168.5 0.5Q132 15 109 41Q86 67 75 102.5Q64 138 64 181V497H222V224Q222 115 310 115Q355 115 384.5 147.5Q414 180 415 243V497H572V0ZM462 677V590H173V677Z" glyph-name="umacron" horiz-adv-x="643" unicode="&#363;" /><glyph d="M485 0V-119H-5V0Z" glyph-name="underscore" horiz-adv-x="480" unicode="_" /><glyph glyph-name="uni00A0" horiz-adv-x="176" unicode="&#160;" /><glyph d="M364 328V205H51V328Z" glyph-name="uni00AD" horiz-adv-x="411" unicode="&#173;" /><glyph d="M14 0ZM257 -333 229 -275Q261 -267 282 -247.5Q303 -228 310 -201H308Q270 -201 247.5 -183Q225 -165 225 -130Q225 -92 247 -73.5Q269 -55 309 -55Q350 -55 373 -79Q396 -103 396 -154Q396 -188 386 -218Q376 -248 358 -271.5Q340 -295 314.5 -311Q289 -327 257 -333ZM14 700H606V562H392V0H228V562H14Z" glyph-name="uni021A" horiz-adv-x="620" unicode="&#538;" /><glyph d="M18 0ZM221 -333 193 -275Q225 -267 246 -247.5Q267 -228 274 -201H272Q234 -201 211.5 -183Q189 -165 189 -130Q189 -92 211 -73.5Q233 -55 273 -55Q314 -55 337 -79Q360 -103 360 -154Q360 -188 350 -218Q340 -248 322 -271.5Q304 -295 278.5 -311Q253 -327 221 -333ZM18 497H94V638H248V497H381V382H248V181Q248 137 266.5 119.5Q285 102 318 102Q352 102 379 115L400 15Q346 -14 277 -14Q238 -14 205 -5Q172 4 147 25.5Q122 47 108 81.5Q94 116 94 167V382H18Z" glyph-name="uni021B" horiz-adv-x="407" unicode="&#539;" /><glyph d="M1037 328V205H50V328Z" glyph-name="uni2015" horiz-adv-x="1086" unicode="&#8213;" /><glyph d="M32 281ZM32 497Q32 607 77 661Q122 715 221 715Q321 715 366 661Q411 607 411 497Q411 388 366 334.5Q321 281 221 281Q122 281 77 334.5Q32 388 32 497ZM296 497Q296 570 276.5 597.5Q257 625 221 625Q185 625 165.5 597.5Q146 570 146 498Q146 425 165.5 397.5Q185 370 221 370Q257 370 276.5 397.5Q296 425 296 497Z" glyph-name="uni2070" horiz-adv-x="445" unicode="&#8304;" /><glyph d="M22 294ZM22 375V451L144 703H257L139 468H250V604H358V468H405V375H358V294H250V375Z" glyph-name="uni2074" horiz-adv-x="424" unicode="&#8308;" /><glyph d="M11 282ZM143 615 135 548Q168 559 206 559Q278 559 317 526Q356 493 356 427Q356 358 311.5 320Q267 282 181 282Q127 282 82.5 299Q38 316 11 356Q11 357 23.5 365.5Q36 374 50 384.5Q64 395 76 404L89 413Q119 370 174 370Q206 370 223.5 385Q241 400 241 426Q241 455 222.5 468Q204 481 175 481Q133 481 107 456L33 490L51 702H339V614Z" glyph-name="uni2075" horiz-adv-x="376" unicode="&#8309;" /><glyph d="M31 282ZM223 282Q130 282 80.5 333.5Q31 385 31 496Q31 602 77.5 658Q124 714 224 714Q278 714 318.5 696Q359 678 378 642L309 583Q300 600 282.5 613.5Q265 627 232 627Q187 627 164.5 598.5Q142 570 143 501V496Q156 520 182.5 536Q209 552 247 552Q309 552 345.5 519Q382 486 382 422Q382 361 343 321.5Q304 282 223 282ZM155 421Q155 398 170 383Q185 368 214 368Q240 368 256.5 381.5Q273 395 273 421Q273 444 259 458Q245 472 215 472Q189 472 172 459Q155 446 155 421Z" glyph-name="uni2076" horiz-adv-x="416" unicode="&#8310;" /><glyph d="M16 294ZM212 294H85Q85 392 121 473Q157 554 214 608L16 605V702H336V626Q304 591 280.5 555.5Q257 520 242 479.5Q227 439 219.5 393.5Q212 348 212 294Z" glyph-name="uni2077" horiz-adv-x="342" unicode="&#8311;" /><glyph d="M31 282ZM203 282Q119 282 75 313Q31 344 31 407Q31 446 48.5 470.5Q66 495 98 507Q75 521 60.5 543Q46 565 46 595Q46 656 86 685Q126 714 203 714Q281 714 321 685Q361 656 361 595Q361 565 346.5 543Q332 521 308 507Q375 483 375 407Q375 282 203 282ZM258 590Q258 610 243.5 621Q229 632 204 632Q178 632 163.5 621Q149 610 149 590Q149 568 163 556.5Q177 545 203 545Q229 545 243.5 556.5Q258 568 258 590ZM263 409Q263 432 247.5 444.5Q232 457 205 457Q176 457 159.5 444.5Q143 432 143 409Q143 386 159 373.5Q175 361 203 361Q232 361 247.5 373.5Q263 386 263 409Z" glyph-name="uni2078" horiz-adv-x="410" unicode="&#8312;" /><glyph d="M27 282ZM254 572Q254 598 238 612Q222 626 194 626Q168 626 152.5 612.5Q137 599 137 573Q137 549 150.5 534Q164 519 194 519Q219 519 236.5 532.5Q254 546 254 572ZM184 282Q134 282 90.5 297.5Q47 313 27 346L95 408Q106 389 127.5 379Q149 369 178 369Q230 369 249.5 403Q269 437 267 495Q255 470 228 454.5Q201 439 163 439Q102 439 64.5 473Q27 507 27 571Q27 634 66 674Q105 714 190 714Q279 714 329 662.5Q379 611 379 500Q379 394 332 338Q285 282 184 282Z" glyph-name="uni2079" horiz-adv-x="414" unicode="&#8313;" /><glyph d="M28 356ZM200 356H115V444H28V514H115V603H200V514H287V444H200Z" glyph-name="uni207A" horiz-adv-x="315" unicode="&#8314;" /><glyph d="M28 444ZM287 514V444H28V514Z" glyph-name="uni207B" horiz-adv-x="315" unicode="&#8315;" /><glyph d="M28 393ZM287 562V490H28V562ZM287 465V393H28V465Z" glyph-name="uni207C" horiz-adv-x="315" unicode="&#8316;" /><glyph d="M24 205ZM213 292 204 205Q111 213 67.5 278Q24 343 24 464Q24 583 67 647.5Q110 712 201 720L213 634Q163 628 137.5 591Q112 554 112 464Q112 418 118.5 386.5Q125 355 137.5 335Q150 315 169 305Q188 295 213 292Z" glyph-name="uni207D" horiz-adv-x="233" unicode="&#8317;" /><glyph d="M18 205ZM28 205 18 292Q43 295 62 305Q81 315 94 335Q107 355 113.5 386.5Q120 418 120 464Q120 554 94 591Q68 628 18 634L31 720Q122 712 165 647.5Q208 583 208 464Q208 343 164.5 278Q121 213 28 205Z" glyph-name="uni207E" horiz-adv-x="233" unicode="&#8318;" /><glyph d="M32 203Q32 313 77 367Q122 421 221 421Q321 421 366 367Q411 313 411 203Q411 94 366 40.5Q321 -13 221 -13Q122 -13 77 40.5Q32 94 32 203ZM296 203Q296 276 276.5 303.5Q257 331 221 331Q185 331 165.5 303.5Q146 276 146 204Q146 131 165.5 103.5Q185 76 221 76Q257 76 276.5 103.5Q296 131 296 203Z" glyph-name="uni2080" horiz-adv-x="445" unicode="&#8320;" /><glyph d="M210 0H94V282L50 256L7 343L134 413H210Z" glyph-name="uni2081" horiz-adv-x="264" unicode="&#8321;" /><glyph d="M27 0V79L165 197Q194 222 209.5 242Q225 262 225 285Q225 309 210 318Q195 327 172 327Q140 327 122.5 314Q105 301 89 274L12 328Q41 379 83.5 399.5Q126 420 186 420Q218 420 246.5 414Q275 408 296.5 393.5Q318 379 330.5 356Q343 333 343 300Q343 256 319.5 220Q296 184 252 145L192 91L358 95V0Z" glyph-name="uni2082" horiz-adv-x="384" unicode="&#8322;" /><glyph d="M184 -13Q127 -13 84.5 6Q42 25 16 70L96 123Q112 96 131 86Q150 76 177 76Q206 76 223 87Q240 98 240 121Q240 163 178 163H135V244H178Q230 244 230 287Q230 328 174 328Q148 328 132.5 317.5Q117 307 103 283L23 329Q49 379 89 399.5Q129 420 186 420Q264 420 304.5 388.5Q345 357 345 300Q345 269 330.5 246Q316 223 290 208Q319 195 335.5 173.5Q352 152 352 116Q352 57 308.5 22Q265 -13 184 -13Z" glyph-name="uni2083" horiz-adv-x="384" unicode="&#8323;" /><glyph d="M22 81V157L144 409H257L139 174H250V310H358V174H405V81H358V0H250V81Z" glyph-name="uni2084" horiz-adv-x="424" unicode="&#8324;" /><glyph d="M143 321 135 254Q168 265 206 265Q278 265 317 232Q356 199 356 133Q356 64 311.5 26Q267 -12 181 -12Q127 -12 82.5 5Q38 22 11 62Q11 63 23.5 71.5Q36 80 50 90.5Q64 101 76 110L89 119Q119 76 174 76Q206 76 223.5 91Q241 106 241 132Q241 161 222.5 174Q204 187 175 187Q133 187 107 162L33 196L51 408H339V320Z" glyph-name="uni2085" horiz-adv-x="376" unicode="&#8325;" /><glyph d="M223 -12Q130 -12 80.5 39.5Q31 91 31 202Q31 308 77.5 364Q124 420 224 420Q278 420 318.5 402Q359 384 378 348L309 289Q300 306 282.5 319.5Q265 333 232 333Q187 333 164.5 304.5Q142 276 143 207V202Q156 226 182.5 242Q209 258 247 258Q309 258 345.5 225Q382 192 382 128Q382 67 343 27.5Q304 -12 223 -12ZM155 127Q155 104 170 89Q185 74 214 74Q240 74 256.5 87.5Q273 101 273 127Q273 150 259 164Q245 178 215 178Q189 178 172 165Q155 152 155 127Z" glyph-name="uni2086" horiz-adv-x="416" unicode="&#8326;" /><glyph d="M212 0H85Q85 98 121 179Q157 260 214 314L16 311V408H336V332Q304 297 280.5 261.5Q257 226 242 185.5Q227 145 219.5 99.5Q212 54 212 0Z" glyph-name="uni2087" horiz-adv-x="342" unicode="&#8327;" /><glyph d="M203 -12Q119 -12 75 19Q31 50 31 113Q31 152 48.5 176.5Q66 201 98 213Q75 227 60.5 249Q46 271 46 301Q46 362 86 391Q126 420 203 420Q281 420 321 391Q361 362 361 301Q361 271 346.5 249Q332 227 308 213Q375 189 375 113Q375 -12 203 -12ZM258 296Q258 316 243.5 327Q229 338 204 338Q178 338 163.5 327Q149 316 149 296Q149 274 163 262.5Q177 251 203 251Q229 251 243.5 262.5Q258 274 258 296ZM263 115Q263 138 247.5 150.5Q232 163 205 163Q176 163 159.5 150.5Q143 138 143 115Q143 92 159 79.5Q175 67 203 67Q232 67 247.5 79.5Q263 92 263 115Z" glyph-name="uni2088" horiz-adv-x="410" unicode="&#8328;" /><glyph d="M254 278Q254 304 238 318Q222 332 194 332Q168 332 152.5 318.5Q137 305 137 279Q137 255 150.5 240Q164 225 194 225Q219 225 236.5 238.5Q254 252 254 278ZM184 -12Q134 -12 90.5 3.5Q47 19 27 52L95 114Q106 95 127.5 85Q149 75 178 75Q230 75 249.5 109Q269 143 267 201Q255 176 228 160.5Q201 145 163 145Q102 145 64.5 179Q27 213 27 277Q27 340 66 380Q105 420 190 420Q279 420 329 368.5Q379 317 379 206Q379 100 332 44Q285 -12 184 -12Z" glyph-name="uni2089" horiz-adv-x="414" unicode="&#8329;" /><glyph d="M200 58H115V146H28V216H115V305H200V216H287V146H200Z" glyph-name="uni208A" horiz-adv-x="315" unicode="&#8330;" /><glyph d="M287 216V146H28V216Z" glyph-name="uni208B" horiz-adv-x="315" unicode="&#8331;" /><glyph d="M287 264V192H28V264ZM287 167V95H28V167Z" glyph-name="uni208C" horiz-adv-x="315" unicode="&#8332;" /><glyph d="M213 -6 204 -93Q111 -85 67.5 -20Q24 45 24 166Q24 285 67 349.5Q110 414 201 422L213 336Q163 330 137.5 293Q112 256 112 166Q112 120 118.5 88.5Q125 57 137.5 37Q150 17 169 7Q188 -3 213 -6Z" glyph-name="uni208D" horiz-adv-x="232" unicode="&#8333;" /><glyph d="M28 -93 18 -6Q43 -3 62 7Q81 17 94 37Q107 57 113.5 88.5Q120 120 120 166Q120 256 94 293Q68 330 18 336L31 422Q122 414 165 349.5Q208 285 208 166Q208 45 164.5 -20Q121 -85 28 -93Z" glyph-name="uni208E" horiz-adv-x="232" unicode="&#8334;" /><glyph d="M7 0ZM700 -13Q643 -13 600.5 6Q558 25 532 70L612 123Q628 96 647 86Q666 76 693 76Q722 76 739 87Q756 98 756 121Q756 163 694 163H651V244H694Q746 244 746 287Q746 328 690 328Q664 328 648.5 317.5Q633 307 619 283L539 329Q565 379 605 399.5Q645 420 702 420Q780 420 820.5 388.5Q861 357 861 300Q861 269 846.5 246Q832 223 806 208Q835 195 851.5 173.5Q868 152 868 116Q868 57 824.5 22Q781 -13 700 -13ZM210 293H94V575L50 549L7 636L134 706H210ZM635 700 289 0H152L500 700Z" glyph-name="uni2153" horiz-adv-x="900" unicode="&#8531;" /><glyph d="M12 0ZM822 -13Q765 -13 722.5 6Q680 25 654 70L734 123Q750 96 769 86Q788 76 815 76Q844 76 861 87Q878 98 878 121Q878 163 816 163H773V244H816Q868 244 868 287Q868 328 812 328Q786 328 770.5 317.5Q755 307 741 283L661 329Q687 379 727 399.5Q767 420 824 420Q902 420 942.5 388.5Q983 357 983 300Q983 269 968.5 246Q954 223 928 208Q957 195 973.5 173.5Q990 152 990 116Q990 57 946.5 22Q903 -13 822 -13ZM27 293V372L165 490Q194 515 209.5 535Q225 555 225 578Q225 602 210 611Q195 620 172 620Q140 620 122.5 607Q105 594 89 567L12 621Q41 672 83.5 692.5Q126 713 186 713Q218 713 246.5 707Q275 701 296.5 686.5Q318 672 330.5 649Q343 626 343 593Q343 549 319.5 513Q296 477 252 438L192 384L358 388V293ZM757 700 411 0H274L622 700Z" glyph-name="uni2154" horiz-adv-x="1022" unicode="&#8532;" /><glyph d="M7 0ZM210 293H94V575L50 549L7 636L134 706H210ZM669 321 661 254Q694 265 732 265Q804 265 843 232Q882 199 882 133Q882 64 837.5 26Q793 -12 707 -12Q653 -12 608.5 5Q564 22 537 62Q537 63 549.5 71.5Q562 80 576 90.5Q590 101 602 110L615 119Q645 76 700 76Q732 76 749.5 91Q767 106 767 132Q767 161 748.5 174Q730 187 701 187Q659 187 633 162L559 196L577 408H865V320ZM635 700 289 0H152L500 700Z" glyph-name="uni2155" horiz-adv-x="902" unicode="&#8533;" /><glyph d="M12 0ZM27 293V372L165 490Q194 515 209.5 535Q225 555 225 578Q225 602 210 611Q195 620 172 620Q140 620 122.5 607Q105 594 89 567L12 621Q41 672 83.5 692.5Q126 713 186 713Q218 713 246.5 707Q275 701 296.5 686.5Q318 672 330.5 649Q343 626 343 593Q343 549 319.5 513Q296 477 252 438L192 384L358 388V293ZM789 321 781 254Q814 265 852 265Q924 265 963 232Q1002 199 1002 133Q1002 64 957.5 26Q913 -12 827 -12Q773 -12 728.5 5Q684 22 657 62Q657 63 669.5 71.5Q682 80 696 90.5Q710 101 722 110L735 119Q765 76 820 76Q852 76 869.5 91Q887 106 887 132Q887 161 868.5 174Q850 187 821 187Q779 187 753 162L679 196L697 408H985V320ZM756 700 410 0H273L621 700Z" glyph-name="uni2156" horiz-adv-x="1022" unicode="&#8534;" /><glyph d="M16 0ZM184 280Q127 280 84.5 299Q42 318 16 363L96 416Q112 389 131 379Q150 369 177 369Q206 369 223 380Q240 391 240 414Q240 456 178 456H135V537H178Q230 537 230 580Q230 621 174 621Q148 621 132.5 610.5Q117 600 103 576L23 622Q49 672 89 692.5Q129 713 186 713Q264 713 304.5 681.5Q345 650 345 593Q345 562 330.5 539Q316 516 290 501Q319 488 335.5 466.5Q352 445 352 409Q352 350 308.5 315Q265 280 184 280ZM770 321 762 254Q795 265 833 265Q905 265 944 232Q983 199 983 133Q983 64 938.5 26Q894 -12 808 -12Q754 -12 709.5 5Q665 22 638 62Q638 63 650.5 71.5Q663 80 677 90.5Q691 101 703 110L716 119Q746 76 801 76Q833 76 850.5 91Q868 106 868 132Q868 161 849.5 174Q831 187 802 187Q760 187 734 162L660 196L678 408H966V320ZM736 700 390 0H253L601 700Z" glyph-name="uni2157" horiz-adv-x="1003" unicode="&#8535;" /><glyph d="M22 0ZM813 321 805 254Q838 265 876 265Q948 265 987 232Q1026 199 1026 133Q1026 64 981.5 26Q937 -12 851 -12Q797 -12 752.5 5Q708 22 681 62Q681 63 693.5 71.5Q706 80 720 90.5Q734 101 746 110L759 119Q789 76 844 76Q876 76 893.5 91Q911 106 911 132Q911 161 892.5 174Q874 187 845 187Q803 187 777 162L703 196L721 408H1009V320ZM780 700 434 0H297L645 700ZM22 374V450L144 702H257L139 467H250V603H358V467H405V374H358V293H250V374Z" glyph-name="uni2158" horiz-adv-x="1047" unicode="&#8536;" /><glyph d="M7 0ZM210 293H94V575L50 549L7 636L134 706H210ZM726 -12Q633 -12 583.5 39.5Q534 91 534 202Q534 308 580.5 364Q627 420 727 420Q781 420 821.5 402Q862 384 881 348L812 289Q803 306 785.5 319.5Q768 333 735 333Q690 333 667.5 304.5Q645 276 646 207V202Q659 226 685.5 242Q712 258 750 258Q812 258 848.5 225Q885 192 885 128Q885 67 846 27.5Q807 -12 726 -12ZM658 127Q658 104 673 89Q688 74 717 74Q743 74 759.5 87.5Q776 101 776 127Q776 150 762 164Q748 178 718 178Q692 178 675 165Q658 152 658 127ZM635 700 289 0H152L500 700Z" glyph-name="uni2159" horiz-adv-x="919" unicode="&#8537;" /><glyph d="M11 0ZM143 614 135 547Q168 558 206 558Q278 558 317 525Q356 492 356 426Q356 357 311.5 319Q267 281 181 281Q127 281 82.5 298Q38 315 11 355Q11 356 23.5 364.5Q36 373 50 383.5Q64 394 76 403L89 412Q119 369 174 369Q206 369 223.5 384Q241 399 241 425Q241 454 222.5 467Q204 480 175 480Q133 480 107 455L33 489L51 701H339V613ZM828 -12Q735 -12 685.5 39.5Q636 91 636 202Q636 308 682.5 364Q729 420 829 420Q883 420 923.5 402Q964 384 983 348L914 289Q905 306 887.5 319.5Q870 333 837 333Q792 333 769.5 304.5Q747 276 748 207V202Q761 226 787.5 242Q814 258 852 258Q914 258 950.5 225Q987 192 987 128Q987 67 948 27.5Q909 -12 828 -12ZM760 127Q760 104 775 89Q790 74 819 74Q845 74 861.5 87.5Q878 101 878 127Q878 150 864 164Q850 178 820 178Q794 178 777 165Q760 152 760 127ZM736 700 390 0H253L601 700Z" glyph-name="uni215A" horiz-adv-x="1020" unicode="&#8538;" /><glyph d="M7 0ZM210 293H94V575L50 549L7 636L134 706H210ZM713 -12Q629 -12 585 19Q541 50 541 113Q541 152 558.5 176.5Q576 201 608 213Q585 227 570.5 249Q556 271 556 301Q556 362 596 391Q636 420 713 420Q791 420 831 391Q871 362 871 301Q871 271 856.5 249Q842 227 818 213Q885 189 885 113Q885 -12 713 -12ZM768 296Q768 316 753.5 327Q739 338 714 338Q688 338 673.5 327Q659 316 659 296Q659 274 673 262.5Q687 251 713 251Q739 251 753.5 262.5Q768 274 768 296ZM773 115Q773 138 757.5 150.5Q742 163 715 163Q686 163 669.5 150.5Q653 138 653 115Q653 92 669 79.5Q685 67 713 67Q742 67 757.5 79.5Q773 92 773 115ZM635 700 289 0H152L500 700Z" glyph-name="uni215B" horiz-adv-x="918" unicode="&#8539;" /><glyph d="M16 0ZM184 280Q127 280 84.5 299Q42 318 16 363L96 416Q112 389 131 379Q150 369 177 369Q206 369 223 380Q240 391 240 414Q240 456 178 456H135V537H178Q230 537 230 580Q230 621 174 621Q148 621 132.5 610.5Q117 600 103 576L23 622Q49 672 89 692.5Q129 713 186 713Q264 713 304.5 681.5Q345 650 345 593Q345 562 330.5 539Q316 516 290 501Q319 488 335.5 466.5Q352 445 352 409Q352 350 308.5 315Q265 280 184 280ZM814 -12Q730 -12 686 19Q642 50 642 113Q642 152 659.5 176.5Q677 201 709 213Q686 227 671.5 249Q657 271 657 301Q657 362 697 391Q737 420 814 420Q892 420 932 391Q972 362 972 301Q972 271 957.5 249Q943 227 919 213Q986 189 986 113Q986 -12 814 -12ZM869 296Q869 316 854.5 327Q840 338 815 338Q789 338 774.5 327Q760 316 760 296Q760 274 774 262.5Q788 251 814 251Q840 251 854.5 262.5Q869 274 869 296ZM874 115Q874 138 858.5 150.5Q843 163 816 163Q787 163 770.5 150.5Q754 138 754 115Q754 92 770 79.5Q786 67 814 67Q843 67 858.5 79.5Q874 92 874 115ZM736 700 390 0H253L601 700Z" glyph-name="uni215C" horiz-adv-x="1020" unicode="&#8540;" /><glyph d="M11 0ZM814 -12Q730 -12 686 19Q642 50 642 113Q642 152 659.5 176.5Q677 201 709 213Q686 227 671.5 249Q657 271 657 301Q657 362 697 391Q737 420 814 420Q892 420 932 391Q972 362 972 301Q972 271 957.5 249Q943 227 919 213Q986 189 986 113Q986 -12 814 -12ZM869 296Q869 316 854.5 327Q840 338 815 338Q789 338 774.5 327Q760 316 760 296Q760 274 774 262.5Q788 251 814 251Q840 251 854.5 262.5Q869 274 869 296ZM874 115Q874 138 858.5 150.5Q843 163 816 163Q787 163 770.5 150.5Q754 138 754 115Q754 92 770 79.5Q786 67 814 67Q843 67 858.5 79.5Q874 92 874 115ZM143 614 135 547Q168 558 206 558Q278 558 317 525Q356 492 356 426Q356 357 311.5 319Q267 281 181 281Q127 281 82.5 298Q38 315 11 355Q11 356 23.5 364.5Q36 373 50 383.5Q64 394 76 403L89 412Q119 369 174 369Q206 369 223.5 384Q241 399 241 425Q241 454 222.5 467Q204 480 175 480Q133 480 107 455L33 489L51 701H339V613ZM736 700 390 0H253L601 700Z" glyph-name="uni215D" horiz-adv-x="1020" unicode="&#8541;" /><glyph d="M16 0ZM737 -12Q653 -12 609 19Q565 50 565 113Q565 152 582.5 176.5Q600 201 632 213Q609 227 594.5 249Q580 271 580 301Q580 362 620 391Q660 420 737 420Q815 420 855 391Q895 362 895 301Q895 271 880.5 249Q866 227 842 213Q909 189 909 113Q909 -12 737 -12ZM792 296Q792 316 777.5 327Q763 338 738 338Q712 338 697.5 327Q683 316 683 296Q683 274 697 262.5Q711 251 737 251Q763 251 777.5 262.5Q792 274 792 296ZM797 115Q797 138 781.5 150.5Q766 163 739 163Q710 163 693.5 150.5Q677 138 677 115Q677 92 693 79.5Q709 67 737 67Q766 67 781.5 79.5Q797 92 797 115ZM212 293H85Q85 391 121 472Q157 553 214 607L16 604V701H336V625Q304 590 280.5 554.5Q257 519 242 478.5Q227 438 219.5 392.5Q212 347 212 293ZM660 700 314 0H177L525 700Z" glyph-name="uni215E" horiz-adv-x="944" unicode="&#8542;" /><glyph d="M7 0ZM210 293H94V575L50 549L7 636L134 706H210ZM635 700 289 0H152L500 700Z" glyph-name="uni215F" horiz-adv-x="831" unicode="&#8543;" /><glyph d="M516 -229Q489 -229 463 -223Q437 -217 416.5 -202.5Q396 -188 383.5 -164.5Q371 -141 371 -105Q371 -62 391 -31.5Q411 -1 440 18L430 84Q403 34 356.5 10Q310 -14 255 -14Q205 -14 168.5 0.5Q132 15 109 41Q86 67 75 102.5Q64 138 64 181V497H222V224Q222 115 310 115Q355 115 384.5 147.5Q414 180 415 243V497H572V0Q541 0 520.5 -8.5Q500 -17 487.5 -29.5Q475 -42 469.5 -58Q464 -74 464 -90Q464 -119 483 -130Q502 -141 528 -141Q565 -141 595 -124L617 -202Q573 -229 516 -229Z" glyph-name="uogonek" horiz-adv-x="642" unicode="&#371;" /><glyph d="M64 0ZM203 653Q203 703 235.5 729.5Q268 756 318 756Q368 756 400 729.5Q432 703 432 653Q432 602 400 575.5Q368 549 317 549Q268 549 235.5 575.5Q203 602 203 653ZM273 653Q273 632 285 619.5Q297 607 317 607Q337 607 350 619.5Q363 632 363 653Q363 674 350.5 686Q338 698 318 698Q298 698 285.5 686Q273 674 273 653ZM443 0 431 84Q403 34 356.5 10Q310 -14 255 -14Q205 -14 168.5 0.5Q132 15 109 41Q86 67 75 102.5Q64 138 64 181V497H222V224Q222 115 310 115Q355 115 384.5 147.5Q414 180 415 243V497H572V0Z" glyph-name="uring" horiz-adv-x="643" unicode="&#367;" /><glyph d="M64 0ZM443 0 431 84Q403 34 356.5 10Q310 -14 255 -14Q205 -14 168.5 0.5Q132 15 109 41Q86 67 75 102.5Q64 138 64 181V497H222V224Q222 115 310 115Q355 115 384.5 147.5Q414 180 415 243V497H572V0ZM404 700H499Q502 665 493 641.5Q484 618 469 604Q454 590 435 584Q416 578 397 578Q374 578 355 583.5Q336 589 319 595Q302 601 287 606.5Q272 612 258 612Q241 612 235.5 601.5Q230 591 230 578H135Q133 613 141.5 636.5Q150 660 165 674.5Q180 689 199 695Q218 701 237 701Q260 701 279 695.5Q298 690 315 683.5Q332 677 347 671.5Q362 666 376 666Q394 666 399 676Q404 686 404 700Z" glyph-name="utilde" horiz-adv-x="643" unicode="&#361;" /><glyph d="M7 497H170L286 161L396 497H557L363 0H200Z" glyph-name="v" horiz-adv-x="564" unicode="v" /><glyph d="M333 495H459L553 182L638 497H780L625 0H484L393 319L303 0H163L6 497H153L240 184Z" glyph-name="w" horiz-adv-x="786" unicode="w" /><glyph d="M6 0ZM570 698 441 571H319V576L400 704H570ZM333 495H459L553 182L638 497H780L625 0H484L393 319L303 0H163L6 497H153L240 184Z" glyph-name="wacute" horiz-adv-x="786" unicode="&#7811;" /><glyph d="M6 0ZM391 629 330 571H205V575L328 704H459L584 575V571H452ZM333 495H459L553 182L638 497H780L625 0H484L393 319L303 0H163L6 497H153L240 184Z" glyph-name="wcircumflex" horiz-adv-x="786" unicode="&#373;" /><glyph d="M6 0ZM415 645Q415 683 437 701Q459 719 499 719Q539 719 560.5 701Q582 683 582 645Q582 607 560.5 588.5Q539 570 499 570Q459 570 437 588.5Q415 607 415 645ZM205 645Q205 683 227 701Q249 719 288 719Q328 719 349.5 701Q371 683 371 645Q371 607 349.5 588.5Q328 570 288 570Q249 570 227 588.5Q205 607 205 645ZM333 495H459L553 182L638 497H780L625 0H484L393 319L303 0H163L6 497H153L240 184Z" glyph-name="wdieresis" horiz-adv-x="786" unicode="&#7813;" /><glyph d="M6 0ZM333 495H459L553 182L638 497H780L625 0H484L393 319L303 0H163L6 497H153L240 184ZM340 572 211 699V705H385L464 577V572Z" glyph-name="wgrave" horiz-adv-x="786" unicode="&#7809;" /><glyph d="M17 497H190L287 345L382 497H544L370 250L556 0H382L275 155L167 0H5L192 253Z" glyph-name="x" horiz-adv-x="560" unicode="x" /><glyph d="M188 -41 201 -2 5 497H168L284 166L396 497H558L327 -92Q312 -129 291.5 -153.5Q271 -178 245 -193Q219 -208 188 -214Q157 -220 122 -220Q90 -220 65.5 -215.5Q41 -211 15 -201L31 -88Q69 -104 103 -104Q129 -104 152 -91Q175 -78 188 -41Z" glyph-name="y" horiz-adv-x="564" unicode="y" /><glyph d="M280 -221Q206 -221 144.5 -196.5Q83 -172 52 -112L141 -35Q164 -75 197.5 -91.5Q231 -108 274 -108Q334 -108 368 -78Q402 -48 402 18V74Q376 38 337.5 21Q299 4 254 4Q204 4 168.5 18.5Q133 33 110 59.5Q87 86 76 122Q65 158 65 201V497H220V239Q220 133 301 133Q346 133 374 165Q402 197 403 263V497H560V20Q560 -45 539 -90.5Q518 -136 481 -165Q444 -194 392.5 -207.5Q341 -221 280 -221Z" glyph-name="y.school" horiz-adv-x="630" /><glyph d="M5 0ZM188 -41 201 -2 5 497H168L284 166L396 497H558L327 -92Q312 -129 291.5 -153.5Q271 -178 245 -193Q219 -208 188 -214Q157 -220 122 -220Q90 -220 65.5 -215.5Q41 -211 15 -201L31 -88Q69 -104 103 -104Q129 -104 152 -91Q175 -78 188 -41ZM460 698 331 571H209V576L290 704H460Z" glyph-name="yacute" horiz-adv-x="564" unicode="&#253;" /><glyph d="M52 0ZM280 -221Q206 -221 144.5 -196.5Q83 -172 52 -112L141 -35Q164 -75 197.5 -91.5Q231 -108 274 -108Q334 -108 368 -78Q402 -48 402 18V74Q376 38 337.5 21Q299 4 254 4Q204 4 168.5 18.5Q133 33 110 59.5Q87 86 76 122Q65 158 65 201V497H220V239Q220 133 301 133Q346 133 374 165Q402 197 403 263V497H560V20Q560 -45 539 -90.5Q518 -136 481 -165Q444 -194 392.5 -207.5Q341 -221 280 -221ZM472 698 343 571H221V576L302 704H472Z" glyph-name="yacute.school" horiz-adv-x="630" /><glyph d="M5 0ZM188 -41 201 -2 5 497H168L284 166L396 497H558L327 -92Q312 -129 291.5 -153.5Q271 -178 245 -193Q219 -208 188 -214Q157 -220 122 -220Q90 -220 65.5 -215.5Q41 -211 15 -201L31 -88Q69 -104 103 -104Q129 -104 152 -91Q175 -78 188 -41ZM279 629 218 571H93V575L216 704H347L472 575V571H340Z" glyph-name="ycircumflex" horiz-adv-x="564" unicode="&#375;" /><glyph d="M52 0ZM312 629 251 571H126V575L249 704H380L505 575V571H373ZM280 -221Q206 -221 144.5 -196.5Q83 -172 52 -112L141 -35Q164 -75 197.5 -91.5Q231 -108 274 -108Q334 -108 368 -78Q402 -48 402 18V74Q376 38 337.5 21Q299 4 254 4Q204 4 168.5 18.5Q133 33 110 59.5Q87 86 76 122Q65 158 65 201V497H220V239Q220 133 301 133Q346 133 374 165Q402 197 403 263V497H560V20Q560 -45 539 -90.5Q518 -136 481 -165Q444 -194 392.5 -207.5Q341 -221 280 -221Z" glyph-name="ycircumflex.school" horiz-adv-x="630" /><glyph d="M5 0ZM188 -41 201 -2 5 497H168L284 166L396 497H558L327 -92Q312 -129 291.5 -153.5Q271 -178 245 -193Q219 -208 188 -214Q157 -220 122 -220Q90 -220 65.5 -215.5Q41 -211 15 -201L31 -88Q69 -104 103 -104Q129 -104 152 -91Q175 -78 188 -41ZM303 645Q303 683 325 701Q347 719 387 719Q427 719 448.5 701Q470 683 470 645Q470 607 448.5 588.5Q427 570 387 570Q347 570 325 588.5Q303 607 303 645ZM93 645Q93 683 115 701Q137 719 176 719Q216 719 237.5 701Q259 683 259 645Q259 607 237.5 588.5Q216 570 176 570Q137 570 115 588.5Q93 607 93 645Z" glyph-name="ydieresis" horiz-adv-x="564" unicode="&#255;" /><glyph d="M52 0ZM336 645Q336 683 358 701Q380 719 420 719Q460 719 481.5 701Q503 683 503 645Q503 607 481.5 588.5Q460 570 420 570Q380 570 358 588.5Q336 607 336 645ZM126 645Q126 683 148 701Q170 719 209 719Q249 719 270.5 701Q292 683 292 645Q292 607 270.5 588.5Q249 570 209 570Q170 570 148 588.5Q126 607 126 645ZM280 -221Q206 -221 144.5 -196.5Q83 -172 52 -112L141 -35Q164 -75 197.5 -91.5Q231 -108 274 -108Q334 -108 368 -78Q402 -48 402 18V74Q376 38 337.5 21Q299 4 254 4Q204 4 168.5 18.5Q133 33 110 59.5Q87 86 76 122Q65 158 65 201V497H220V239Q220 133 301 133Q346 133 374 165Q402 197 403 263V497H560V20Q560 -45 539 -90.5Q518 -136 481 -165Q444 -194 392.5 -207.5Q341 -221 280 -221Z" glyph-name="ydieresis.school" horiz-adv-x="630" /><glyph d="M603 290V209H424V0H259V209H81V290H243L216 336H81V417H170L8 700H189L346 401L502 700H674L513 417H603V336H467L441 290Z" glyph-name="yen" horiz-adv-x="682" unicode="&#165;" /><glyph d="M31 0V92L284 381H36V497H468V401L217 115H476V0Z" glyph-name="z" horiz-adv-x="509" unicode="z" /><glyph d="M31 0ZM433 698 304 571H182V576L263 704H433ZM31 0V92L284 381H36V497H468V401L217 115H476V0Z" glyph-name="zacute" horiz-adv-x="509" unicode="&#378;" /><glyph d="M31 0ZM258 647 320 704H444V702L320 571H189L65 702V704H196ZM31 0V92L284 381H36V497H468V401L217 115H476V0Z" glyph-name="zcaron" horiz-adv-x="509" unicode="&#382;" /><glyph d="M31 0ZM31 0V92L284 381H36V497H468V401L217 115H476V0ZM167 645Q167 683 190 701.5Q213 720 255 720Q297 720 319 701.5Q341 683 341 645Q341 607 319 588.5Q297 570 255 570Q213 570 190 588.5Q167 607 167 645Z" glyph-name="zdotaccent" horiz-adv-x="509" unicode="&#380;" /><glyph d="M25 350Q25 539 97 626.5Q169 714 312 714Q455 714 527 626.5Q599 539 599 350Q599 163 525 74.5Q451 -14 312 -14Q169 -14 97 74Q25 162 25 350ZM449 350Q449 417 440 463Q431 509 413.5 536.5Q396 564 370.5 576Q345 588 312 588Q279 588 253.5 576Q228 564 210.5 536Q193 508 184 462.5Q175 417 175 350Q175 282 184 236.5Q193 191 210.5 163Q228 135 253 123Q278 111 311 111Q344 111 370 123Q396 135 413.5 163Q431 191 440 236.5Q449 282 449 350Z" glyph-name="zero" horiz-adv-x="625" unicode="0" /><glyph d="M62 350Q62 537 134.5 625.5Q207 714 366 714Q524 714 597 625.5Q670 537 670 350Q670 163 597.5 74.5Q525 -14 366 -14Q207 -14 134.5 74Q62 162 62 350ZM510 350Q510 417 500.5 462.5Q491 508 473 536Q455 564 428 576Q401 588 366 588Q331 588 304 576.5Q277 565 259 537Q241 509 231.5 463.5Q222 418 222 350Q222 282 231.5 236Q241 190 259 162Q277 134 303.5 122.5Q330 111 365 111Q400 111 427 122.5Q454 134 472.5 162Q491 190 500.5 236Q510 282 510 350Z" glyph-name="zero.LP" horiz-adv-x="732" /><glyph d="M47 300Q47 462 118.5 538Q190 614 324 614Q460 614 532 538Q604 462 604 300Q604 139 530.5 62.5Q457 -14 324 -14Q190 -14 118.5 62Q47 138 47 300ZM450 300Q450 354 442 390Q434 426 418 448Q402 470 378.5 479.5Q355 489 324 489Q294 489 271 480Q248 471 232 449Q216 427 208 391Q200 355 200 301Q200 247 208 210.5Q216 174 232 152Q248 130 271 120.5Q294 111 324 111Q355 111 378.5 120.5Q402 130 418 151.5Q434 173 442 209.5Q450 246 450 300Z" glyph-name="zero.OP" horiz-adv-x="650" /><glyph d="M31 300Q31 462 104 538Q177 614 313 614Q448 614 521 537.5Q594 461 594 300Q594 139 520.5 62.5Q447 -14 313 -14Q177 -14 104 62.5Q31 139 31 300ZM445 300Q445 354 436.5 390Q428 426 411 448Q394 470 369.5 479.5Q345 489 313 489Q281 489 256.5 480Q232 471 215 449Q198 427 189 391Q180 355 180 301Q180 247 189 210.5Q198 174 215 152Q232 130 256.5 120.5Q281 111 313 111Q345 111 369.5 120.5Q394 130 411 151.5Q428 173 436.5 209.5Q445 246 445 300Z" glyph-name="zero.OT" horiz-adv-x="625" /><glyph d="M32 0ZM32 3Q32 113 77 167Q122 221 221 221Q321 221 366 167Q411 113 411 3Q411 -106 366 -159.5Q321 -213 221 -213Q122 -213 77 -159.5Q32 -106 32 3ZM296 3Q296 76 276.5 103.5Q257 131 221 131Q185 131 165.5 103.5Q146 76 146 4Q146 -69 165.5 -96.5Q185 -124 221 -124Q257 -124 276.5 -96.5Q296 -69 296 3Z" glyph-name="zero.inf" horiz-adv-x="445" /><glyph glyph-name="zerowidthspace" horiz-adv-x="0" unicode="&#8203;" /></font>
</defs>
</svg>
