<?xml version="1.0" standalone="no"?><!DOCTYPE svg PUBLIC "-//W3C//DTD SVG 1.1//EN" "http://www.w3.org/Graphics/SVG/1.1/DTD/svg11.dtd" ><svg version="1.1" xmlns="http://www.w3.org/2000/svg"><defs><font horiz-adv-x="0" id="font"><font-face ascent="957" bbox="-72 -255 1047 939" cap-height="700" descent="-220" font-family="Honeywell Cond Web" font-stretch="condensed" font-style="normal" font-weight="400" units-per-em="1000" x-height="482" /><missing-glyph d="M84 0V700H602V0ZM321 349 122 649V48ZM364 349 564 49V649ZM153 663 343 377 533 663ZM342 321 154 36H531Z" horiz-adv-x="686" /><glyph d="M0 0Z" glyph-name=".ttfautohint" horiz-adv-x="273" /><glyph d="M231 638 118 207H345ZM398 0 356 159H108L66 0H11L199 700H266L454 0Z" glyph-name="A" horiz-adv-x="464" unicode="A" /><glyph d="M233 648 118 207H341ZM390 0 351 159H107L65 0H10L201 700H652V653H284L352 377H612V327H363L433 48H660V0Z" glyph-name="AE" horiz-adv-x="691" unicode="&#198;" /><glyph d="M11 0ZM231 638 118 207H345ZM398 0 356 159H108L66 0H11L199 700H266L454 0ZM332 892 251 786H208V789L268 897H332Z" glyph-name="Aacute" horiz-adv-x="464" unicode="&#193;" /><glyph d="M11 0ZM231 638 118 207H345ZM398 0 356 159H108L66 0H11L199 700H266L454 0ZM296 896H333Q333 832 306.5 808Q280 784 232 784Q184 784 157.5 808Q131 832 131 896H168Q168 853 184 836.5Q200 820 231 820Q263 820 279.5 836.5Q296 853 296 896Z" glyph-name="Abreve" horiz-adv-x="464" unicode="&#258;" /><glyph d="M11 0ZM231 638 118 207H345ZM398 0 356 159H108L66 0H11L199 700H266L454 0ZM232 865 172 786H120V788L210 897H256L346 788V786H293Z" glyph-name="Acircumflex" horiz-adv-x="464" unicode="&#194;" /><glyph d="M11 0ZM231 638 118 207H345ZM398 0 356 159H108L66 0H11L199 700H266L454 0ZM258 840Q258 882 295 882Q333 882 333 840Q333 799 295 799Q258 799 258 840ZM136 840Q136 860 146 871Q156 882 173 882Q211 882 211 840Q211 799 173 799Q156 799 146 809.5Q136 820 136 840Z" glyph-name="Adieresis" horiz-adv-x="464" unicode="&#196;" /><glyph d="M11 0ZM231 638 118 207H345ZM398 0 356 159H108L66 0H11L199 700H266L454 0ZM216 787 134 893V898H199L259 790V787Z" glyph-name="Agrave" horiz-adv-x="464" unicode="&#192;" /><glyph d="M11 0ZM231 638 118 207H345ZM398 0 356 159H108L66 0H11L199 700H266L454 0ZM324 859V820H141V859Z" glyph-name="Amacron" horiz-adv-x="464" unicode="&#256;" /><glyph d="M465 -180Q434 -204 397 -204Q381 -204 365.5 -199.5Q350 -195 338 -184Q326 -173 318.5 -154.5Q311 -136 311 -108Q311 -57 336.5 -24Q362 9 393 20L356 159H108L66 0H11L199 700H266L454 0H425Q392 -5 370.5 -34Q349 -63 349 -103Q349 -138 364.5 -151Q380 -164 400 -164Q427 -164 447 -147ZM231 638 118 207H345Z" glyph-name="Aogonek" horiz-adv-x="464" unicode="&#260;" /><glyph d="M11 0ZM231 638 118 207H345ZM398 0 356 159H108L66 0H11L199 700H266L454 0ZM157 853Q157 892 179 915.5Q201 939 234 939Q266 939 287.5 915.5Q309 892 309 853Q309 815 287.5 791.5Q266 768 233 768Q201 768 179 791.5Q157 815 157 853ZM188 853Q188 828 200.5 812Q213 796 233 796Q253 796 266 812Q279 828 279 853Q279 879 266 894.5Q253 910 234 910Q214 910 201 894.5Q188 879 188 853Z" glyph-name="Aring" horiz-adv-x="464" unicode="&#197;" /><glyph d="M11 0ZM231 638 118 207H345ZM398 0 356 159H108L66 0H11L199 700H266L454 0ZM303 886H339Q340 860 335 843.5Q330 827 321 817.5Q312 808 301 804Q290 800 280 800Q264 800 252 807.5Q240 815 229 824.5Q218 834 207.5 841.5Q197 849 185 849Q160 849 160 804H123Q123 829 128 845.5Q133 862 141 872Q149 882 159.5 885.5Q170 889 181 889Q197 889 210 881.5Q223 874 234 865.5Q245 857 255.5 849.5Q266 842 278 842Q302 842 303 886Z" glyph-name="Atilde" horiz-adv-x="464" unicode="&#195;" /><glyph d="M86 0V700H277Q368 700 409 650.5Q450 601 450 522Q450 462 425 420.5Q400 379 357 362Q385 356 405.5 339.5Q426 323 439.5 300.5Q453 278 459 251Q465 224 465 197Q465 99 418 49.5Q371 0 269 0ZM276 653H139V383H282Q310 383 332 394Q354 405 368 423Q382 441 389.5 465.5Q397 490 397 517Q397 584 364.5 618.5Q332 653 276 653ZM283 333H139V47H271Q343 47 377.5 82.5Q412 118 412 197Q412 259 380 296Q348 333 283 333Z" glyph-name="B" horiz-adv-x="510" unicode="B" /><glyph d="M291 -11Q235 -11 191.5 8.5Q148 28 118.5 71.5Q89 115 74 183.5Q59 252 59 350Q59 449 74 517.5Q89 586 118.5 629Q148 672 191.5 691.5Q235 711 291 711Q326 711 357 703.5Q388 696 413.5 677Q439 658 458 627Q477 596 489 550L441 529Q431 568 416.5 593.5Q402 619 382.5 634.5Q363 650 340 656.5Q317 663 291 663Q250 663 217 648Q184 633 161 597Q138 561 125.5 501Q113 441 113 351Q113 261 125.5 200.5Q138 140 161 103.5Q184 67 217 51.5Q250 36 292 36Q346 36 387 67Q428 98 451 175L496 154Q472 68 417 28.5Q362 -11 291 -11Z" glyph-name="C" horiz-adv-x="525" unicode="C" /><glyph glyph-name="CR" horiz-adv-x="131" unicode="" /><glyph d="M59 0ZM291 -11Q235 -11 191.5 8.5Q148 28 118.5 71.5Q89 115 74 183.5Q59 252 59 350Q59 449 74 517.5Q89 586 118.5 629Q148 672 191.5 691.5Q235 711 291 711Q326 711 357 703.5Q388 696 413.5 677Q439 658 458 627Q477 596 489 550L441 529Q431 568 416.5 593.5Q402 619 382.5 634.5Q363 650 340 656.5Q317 663 291 663Q250 663 217 648Q184 633 161 597Q138 561 125.5 501Q113 441 113 351Q113 261 125.5 200.5Q138 140 161 103.5Q184 67 217 51.5Q250 36 292 36Q346 36 387 67Q428 98 451 175L496 154Q472 68 417 28.5Q362 -11 291 -11ZM388 892 307 786H264V789L324 897H388Z" glyph-name="Cacute" horiz-adv-x="525" unicode="&#262;" /><glyph d="M59 0ZM291 -11Q235 -11 191.5 8.5Q148 28 118.5 71.5Q89 115 74 183.5Q59 252 59 350Q59 449 74 517.5Q89 586 118.5 629Q148 672 191.5 691.5Q235 711 291 711Q326 711 357 703.5Q388 696 413.5 677Q439 658 458 627Q477 596 489 550L441 529Q431 568 416.5 593.5Q402 619 382.5 634.5Q363 650 340 656.5Q317 663 291 663Q250 663 217 648Q184 633 161 597Q138 561 125.5 501Q113 441 113 351Q113 261 125.5 200.5Q138 140 161 103.5Q184 67 217 51.5Q250 36 292 36Q346 36 387 67Q428 98 451 175L496 154Q472 68 417 28.5Q362 -11 291 -11ZM288 820 350 897H401V895L310 786H265L175 895V897H229Z" glyph-name="Ccaron" horiz-adv-x="525" unicode="&#268;" /><glyph d="M283 -228Q255 -228 232.5 -215Q210 -202 194 -172L225 -152Q245 -193 282 -193Q332 -193 332 -146Q332 -123 319.5 -112Q307 -101 290 -101Q285 -101 280.5 -101.5Q276 -102 271 -103L260 -92L274 -10Q222 -7 182 14Q142 35 114.5 78Q87 121 73 188Q59 255 59 350Q59 449 74 517.5Q89 586 118.5 629Q148 672 191.5 691.5Q235 711 291 711Q326 711 357 703.5Q388 696 413.5 677Q439 658 458 627Q477 596 489 550L441 529Q431 568 416.5 593.5Q402 619 382.5 634.5Q363 650 340 656.5Q317 663 291 663Q250 663 217 648Q184 633 161 597Q138 561 125.5 501Q113 441 113 351Q113 261 125.5 200.5Q138 140 161 103.5Q184 67 217 51.5Q250 36 292 36Q346 36 387 67Q428 98 451 175L496 154Q473 73 423.5 34Q374 -5 308 -10L297 -73Q299 -72 301 -72H306Q331 -72 351 -89.5Q371 -107 371 -145Q371 -187 346 -207.5Q321 -228 283 -228Z" glyph-name="Ccedilla" horiz-adv-x="525" unicode="&#199;" /><glyph d="M59 0ZM291 -11Q235 -11 191.5 8.5Q148 28 118.5 71.5Q89 115 74 183.5Q59 252 59 350Q59 449 74 517.5Q89 586 118.5 629Q148 672 191.5 691.5Q235 711 291 711Q326 711 357 703.5Q388 696 413.5 677Q439 658 458 627Q477 596 489 550L441 529Q431 568 416.5 593.5Q402 619 382.5 634.5Q363 650 340 656.5Q317 663 291 663Q250 663 217 648Q184 633 161 597Q138 561 125.5 501Q113 441 113 351Q113 261 125.5 200.5Q138 140 161 103.5Q184 67 217 51.5Q250 36 292 36Q346 36 387 67Q428 98 451 175L496 154Q472 68 417 28.5Q362 -11 291 -11ZM288 865 228 786H176V788L266 897H312L402 788V786H349Z" glyph-name="Ccircumflex" horiz-adv-x="525" unicode="&#264;" /><glyph d="M59 0ZM291 -11Q235 -11 191.5 8.5Q148 28 118.5 71.5Q89 115 74 183.5Q59 252 59 350Q59 449 74 517.5Q89 586 118.5 629Q148 672 191.5 691.5Q235 711 291 711Q326 711 357 703.5Q388 696 413.5 677Q439 658 458 627Q477 596 489 550L441 529Q431 568 416.5 593.5Q402 619 382.5 634.5Q363 650 340 656.5Q317 663 291 663Q250 663 217 648Q184 633 161 597Q138 561 125.5 501Q113 441 113 351Q113 261 125.5 200.5Q138 140 161 103.5Q184 67 217 51.5Q250 36 292 36Q346 36 387 67Q428 98 451 175L496 154Q472 68 417 28.5Q362 -11 291 -11ZM250 840Q250 860 260.5 870.5Q271 881 288 881Q326 881 326 840Q326 820 316 809Q306 798 288 798Q271 798 260.5 809Q250 820 250 840Z" glyph-name="Cdotaccent" horiz-adv-x="525" unicode="&#266;" /><glyph d="M258 0H86V700H259Q318 700 363.5 681Q409 662 439.5 620.5Q470 579 486 513.5Q502 448 502 356Q502 170 439 85Q376 0 258 0ZM256 48Q299 48 334.5 63.5Q370 79 395.5 115Q421 151 434.5 209.5Q448 268 448 355Q448 439 435 496Q422 553 398 588Q374 623 339 638Q304 653 260 653H140V48Z" glyph-name="D" horiz-adv-x="561" unicode="D" /><glyph d="M86 0ZM258 0H86V700H259Q318 700 363.5 681Q409 662 439.5 620.5Q470 579 486 513.5Q502 448 502 356Q502 170 439 85Q376 0 258 0ZM256 48Q299 48 334.5 63.5Q370 79 395.5 115Q421 151 434.5 209.5Q448 268 448 355Q448 439 435 496Q422 553 398 588Q374 623 339 638Q304 653 260 653H140V48ZM288 820 350 897H401V895L310 786H265L175 895V897H229Z" glyph-name="Dcaron" horiz-adv-x="561" unicode="&#270;" /><glyph d="M270 0H97V340H37V386H97V700H271Q330 700 375.5 681Q421 662 451.5 620.5Q482 579 498 513.5Q514 448 514 356Q514 170 451 85Q388 0 270 0ZM151 48H267Q311 48 346.5 63.5Q382 79 407.5 115Q433 151 446.5 209.5Q460 268 460 355Q460 439 447 496Q434 553 409.5 588Q385 623 350 638Q315 653 271 653H151V386H275V340H151Z" glyph-name="Dcroat" horiz-adv-x="573" unicode="&#272;" /><glyph d="M86 0V700H460V652H139V374H416V325H139V47H459V0Z" glyph-name="E" horiz-adv-x="495" unicode="E" /><glyph d="M86 0ZM86 0V700H460V652H139V374H416V325H139V47H459V0ZM375 892 294 786H251V789L311 897H375Z" glyph-name="Eacute" horiz-adv-x="495" unicode="&#201;" /><glyph d="M86 0ZM86 0V700H460V652H139V374H416V325H139V47H459V0ZM339 896H376Q376 832 349.5 808Q323 784 275 784Q227 784 200.5 808Q174 832 174 896H211Q211 853 227 836.5Q243 820 274 820Q306 820 322.5 836.5Q339 853 339 896Z" glyph-name="Ebreve" horiz-adv-x="495" unicode="&#276;" /><glyph d="M86 0ZM86 0V700H460V652H139V374H416V325H139V47H459V0ZM276 820 338 897H389V895L298 786H253L163 895V897H217Z" glyph-name="Ecaron" horiz-adv-x="495" unicode="&#282;" /><glyph d="M86 0ZM86 0V700H460V652H139V374H416V325H139V47H459V0ZM275 865 215 786H163V788L253 897H299L389 788V786H336Z" glyph-name="Ecircumflex" horiz-adv-x="495" unicode="&#202;" /><glyph d="M86 0ZM86 0V700H460V652H139V374H416V325H139V47H459V0ZM301 840Q301 882 338 882Q376 882 376 840Q376 799 338 799Q301 799 301 840ZM179 840Q179 860 189 871Q199 882 216 882Q254 882 254 840Q254 799 216 799Q199 799 189 809.5Q179 820 179 840Z" glyph-name="Edieresis" horiz-adv-x="495" unicode="&#203;" /><glyph d="M86 0ZM86 0V700H460V652H139V374H416V325H139V47H459V0ZM237 840Q237 860 247.5 870.5Q258 881 275 881Q313 881 313 840Q313 820 303 809Q293 798 275 798Q258 798 247.5 809Q237 820 237 840Z" glyph-name="Edotaccent" horiz-adv-x="495" unicode="&#278;" /><glyph d="M86 0ZM86 0V700H460V652H139V374H416V325H139V47H459V0ZM259 787 177 893V898H242L302 790V787Z" glyph-name="Egrave" horiz-adv-x="495" unicode="&#200;" /><glyph d="M86 0ZM86 0V700H460V652H139V374H416V325H139V47H459V0ZM367 859V820H184V859Z" glyph-name="Emacron" horiz-adv-x="495" unicode="&#274;" /><glyph d="M447 -51V1L134 602L135 0H86V700H139L452 100L450 700H499V-60Q499 -139 472 -174Q445 -209 397 -209Q381 -209 365.5 -206.5Q350 -204 333 -196L346 -149Q357 -154 366.5 -157Q376 -160 390 -160Q418 -160 432.5 -136.5Q447 -113 447 -51Z" glyph-name="Eng" horiz-adv-x="585" unicode="&#330;" /><glyph d="M459 -180Q429 -204 392 -204Q375 -204 359.5 -199.5Q344 -195 332 -184Q320 -173 313 -154.5Q306 -136 306 -108Q306 -71 320.5 -44Q335 -17 355 0H86V700H460V652H139V374H416V325H139V47H459V0H419Q386 -5 364.5 -34Q343 -63 343 -103Q343 -138 359 -151Q375 -164 395 -164Q422 -164 442 -147Z" glyph-name="Eogonek" horiz-adv-x="495" unicode="&#280;" /><glyph d="M270 0H97V340H37V386H97V700H271Q330 700 375.5 681Q421 662 451.5 620.5Q482 579 498 513.5Q514 448 514 356Q514 170 451 85Q388 0 270 0ZM151 48H267Q311 48 346.5 63.5Q382 79 407.5 115Q433 151 446.5 209.5Q460 268 460 355Q460 439 447 496Q434 553 409.5 588Q385 623 350 638Q315 653 271 653H151V386H275V340H151Z" glyph-name="Eth" horiz-adv-x="573" unicode="&#208;" /><glyph d="M493 149Q467 63 415.5 26Q364 -11 290 -11Q196 -11 141 55Q86 121 75 271H9V315H73Q71 355 73 374H9V418H74Q84 574 141 642.5Q198 711 295 711Q365 711 414 675.5Q463 640 487 548L439 529Q419 605 381.5 634.5Q344 664 292 664Q257 664 228.5 651.5Q200 639 179 610Q158 581 145 534Q132 487 128 418H368L359 374H126V350Q126 335 127 315H346L336 271H129Q134 206 147 161Q160 116 181 88Q202 60 230 47.5Q258 35 292 35Q345 35 385 66Q425 97 445 171Z" glyph-name="Euro" horiz-adv-x="517" unicode="&#8364;" /><glyph d="M86 0V700H444V652H140V371H412V322H140V0Z" glyph-name="F" horiz-adv-x="460" unicode="F" /><glyph d="M282 -11Q229 -11 187.5 9.5Q146 30 117.5 74Q89 118 74 186Q59 254 59 350Q59 449 74 517.5Q89 586 118.5 629Q148 672 191.5 691.5Q235 711 291 711Q326 711 357 703Q388 695 413 676.5Q438 658 457.5 627.5Q477 597 489 551L441 530Q430 569 415 594.5Q400 620 381 635.5Q362 651 339.5 657Q317 663 291 663Q249 663 216 648Q183 633 160 597Q137 561 125 501Q113 441 113 350Q113 261 125 200.5Q137 140 160 103.5Q183 67 216 51Q249 35 290 35Q320 35 347.5 46.5Q375 58 395.5 84Q416 110 429 153.5Q442 197 444 260V285H297V329H495V0H456L449 125Q432 58 387 23.5Q342 -11 282 -11Z" glyph-name="G" horiz-adv-x="551" unicode="G" /><glyph d="M297 285V329H497V289Q497 206 482 149Q467 92 439.5 56.5Q412 21 374 5Q336 -11 290 -11Q234 -11 191 9.5Q148 30 118.5 74Q89 118 74 186Q59 254 59 350Q59 449 74 517.5Q89 586 118.5 629Q148 672 191.5 691.5Q235 711 291 711Q326 711 356.5 703Q387 695 412 676.5Q437 658 456.5 627.5Q476 597 488 551L441 530Q430 569 414.5 594.5Q399 620 380 635.5Q361 651 338.5 657Q316 663 290 663Q249 663 216 648Q183 633 160 597Q137 561 125 501Q113 441 113 350Q113 261 125 200.5Q137 140 160 103Q183 66 216 50Q249 34 290 34Q325 34 354 47Q383 60 403.5 90Q424 120 434.5 168Q445 216 444 285Z" glyph-name="G.alt" horiz-adv-x="549" /><glyph d="M59 0ZM282 -11Q229 -11 187.5 9.5Q146 30 117.5 74Q89 118 74 186Q59 254 59 350Q59 449 74 517.5Q89 586 118.5 629Q148 672 191.5 691.5Q235 711 291 711Q326 711 357 703Q388 695 413 676.5Q438 658 457.5 627.5Q477 597 489 551L441 530Q430 569 415 594.5Q400 620 381 635.5Q362 651 339.5 657Q317 663 291 663Q249 663 216 648Q183 633 160 597Q137 561 125 501Q113 441 113 350Q113 261 125 200.5Q137 140 160 103.5Q183 67 216 51Q249 35 290 35Q320 35 347.5 46.5Q375 58 395.5 84Q416 110 429 153.5Q442 197 444 260V285H297V329H495V0H456L449 125Q432 58 387 23.5Q342 -11 282 -11ZM353 896H390Q390 832 363.5 808Q337 784 289 784Q241 784 214.5 808Q188 832 188 896H225Q225 853 241 836.5Q257 820 288 820Q320 820 336.5 836.5Q353 853 353 896Z" glyph-name="Gbreve" horiz-adv-x="551" unicode="&#286;" /><glyph d="M59 0ZM297 285V329H497V289Q497 206 482 149Q467 92 439.5 56.5Q412 21 374 5Q336 -11 290 -11Q234 -11 191 9.5Q148 30 118.5 74Q89 118 74 186Q59 254 59 350Q59 449 74 517.5Q89 586 118.5 629Q148 672 191.5 691.5Q235 711 291 711Q326 711 356.5 703Q387 695 412 676.5Q437 658 456.5 627.5Q476 597 488 551L441 530Q430 569 414.5 594.5Q399 620 380 635.5Q361 651 338.5 657Q316 663 290 663Q249 663 216 648Q183 633 160 597Q137 561 125 501Q113 441 113 350Q113 261 125 200.5Q137 140 160 103Q183 66 216 50Q249 34 290 34Q325 34 354 47Q383 60 403.5 90Q424 120 434.5 168Q445 216 444 285ZM353 896H390Q390 832 363.5 808Q337 784 289 784Q241 784 214.5 808Q188 832 188 896H225Q225 853 241 836.5Q257 820 288 820Q320 820 336.5 836.5Q353 853 353 896Z" glyph-name="Gbreve.alt" horiz-adv-x="550" /><glyph d="M59 0ZM282 -11Q229 -11 187.5 9.5Q146 30 117.5 74Q89 118 74 186Q59 254 59 350Q59 449 74 517.5Q89 586 118.5 629Q148 672 191.5 691.5Q235 711 291 711Q326 711 357 703Q388 695 413 676.5Q438 658 457.5 627.5Q477 597 489 551L441 530Q430 569 415 594.5Q400 620 381 635.5Q362 651 339.5 657Q317 663 291 663Q249 663 216 648Q183 633 160 597Q137 561 125 501Q113 441 113 350Q113 261 125 200.5Q137 140 160 103.5Q183 67 216 51Q249 35 290 35Q320 35 347.5 46.5Q375 58 395.5 84Q416 110 429 153.5Q442 197 444 260V285H297V329H495V0H456L449 125Q432 58 387 23.5Q342 -11 282 -11ZM288 865 228 786H176V788L266 897H312L402 788V786H349Z" glyph-name="Gcircumflex" horiz-adv-x="551" unicode="&#284;" /><glyph d="M59 0ZM297 285V329H497V289Q497 206 482 149Q467 92 439.5 56.5Q412 21 374 5Q336 -11 290 -11Q234 -11 191 9.5Q148 30 118.5 74Q89 118 74 186Q59 254 59 350Q59 449 74 517.5Q89 586 118.5 629Q148 672 191.5 691.5Q235 711 291 711Q326 711 356.5 703Q387 695 412 676.5Q437 658 456.5 627.5Q476 597 488 551L441 530Q430 569 414.5 594.5Q399 620 380 635.5Q361 651 338.5 657Q316 663 290 663Q249 663 216 648Q183 633 160 597Q137 561 125 501Q113 441 113 350Q113 261 125 200.5Q137 140 160 103Q183 66 216 50Q249 34 290 34Q325 34 354 47Q383 60 403.5 90Q424 120 434.5 168Q445 216 444 285ZM288 865 228 786H176V788L266 897H312L402 788V786H349Z" glyph-name="Gcircumflex.alt" horiz-adv-x="550" /><glyph d="M59 0ZM282 -11Q229 -11 187.5 9.5Q146 30 117.5 74Q89 118 74 186Q59 254 59 350Q59 449 74 517.5Q89 586 118.5 629Q148 672 191.5 691.5Q235 711 291 711Q326 711 357 703Q388 695 413 676.5Q438 658 457.5 627.5Q477 597 489 551L441 530Q430 569 415 594.5Q400 620 381 635.5Q362 651 339.5 657Q317 663 291 663Q249 663 216 648Q183 633 160 597Q137 561 125 501Q113 441 113 350Q113 261 125 200.5Q137 140 160 103.5Q183 67 216 51Q249 35 290 35Q320 35 347.5 46.5Q375 58 395.5 84Q416 110 429 153.5Q442 197 444 260V285H297V329H495V0H456L449 125Q432 58 387 23.5Q342 -11 282 -11ZM322 -122Q322 -167 305 -201.5Q288 -236 257 -252L240 -230Q261 -217 275 -194Q289 -171 290 -143Q273 -148 260 -138Q247 -128 247 -107Q247 -88 257 -78.5Q267 -69 284 -69Q322 -69 322 -122Z" glyph-name="Gcommaaccent" horiz-adv-x="551" unicode="&#290;" /><glyph d="M59 0ZM297 285V329H497V289Q497 206 482 149Q467 92 439.5 56.5Q412 21 374 5Q336 -11 290 -11Q234 -11 191 9.5Q148 30 118.5 74Q89 118 74 186Q59 254 59 350Q59 449 74 517.5Q89 586 118.5 629Q148 672 191.5 691.5Q235 711 291 711Q326 711 356.5 703Q387 695 412 676.5Q437 658 456.5 627.5Q476 597 488 551L441 530Q430 569 414.5 594.5Q399 620 380 635.5Q361 651 338.5 657Q316 663 290 663Q249 663 216 648Q183 633 160 597Q137 561 125 501Q113 441 113 350Q113 261 125 200.5Q137 140 160 103Q183 66 216 50Q249 34 290 34Q325 34 354 47Q383 60 403.5 90Q424 120 434.5 168Q445 216 444 285ZM328 -122Q328 -167 311 -201.5Q294 -236 263 -252L246 -230Q267 -217 281 -194Q295 -171 296 -143Q279 -148 266 -138Q253 -128 253 -107Q253 -88 263 -78.5Q273 -69 290 -69Q328 -69 328 -122Z" glyph-name="Gcommaaccent.alt" horiz-adv-x="549" /><glyph d="M59 0ZM282 -11Q229 -11 187.5 9.5Q146 30 117.5 74Q89 118 74 186Q59 254 59 350Q59 449 74 517.5Q89 586 118.5 629Q148 672 191.5 691.5Q235 711 291 711Q326 711 357 703Q388 695 413 676.5Q438 658 457.5 627.5Q477 597 489 551L441 530Q430 569 415 594.5Q400 620 381 635.5Q362 651 339.5 657Q317 663 291 663Q249 663 216 648Q183 633 160 597Q137 561 125 501Q113 441 113 350Q113 261 125 200.5Q137 140 160 103.5Q183 67 216 51Q249 35 290 35Q320 35 347.5 46.5Q375 58 395.5 84Q416 110 429 153.5Q442 197 444 260V285H297V329H495V0H456L449 125Q432 58 387 23.5Q342 -11 282 -11ZM250 840Q250 860 260.5 870.5Q271 881 288 881Q326 881 326 840Q326 820 316 809Q306 798 288 798Q271 798 260.5 809Q250 820 250 840Z" glyph-name="Gdotaccent" horiz-adv-x="551" unicode="&#288;" /><glyph d="M59 0ZM297 285V329H497V289Q497 206 482 149Q467 92 439.5 56.5Q412 21 374 5Q336 -11 290 -11Q234 -11 191 9.5Q148 30 118.5 74Q89 118 74 186Q59 254 59 350Q59 449 74 517.5Q89 586 118.5 629Q148 672 191.5 691.5Q235 711 291 711Q326 711 356.5 703Q387 695 412 676.5Q437 658 456.5 627.5Q476 597 488 551L441 530Q430 569 414.5 594.5Q399 620 380 635.5Q361 651 338.5 657Q316 663 290 663Q249 663 216 648Q183 633 160 597Q137 561 125 501Q113 441 113 350Q113 261 125 200.5Q137 140 160 103Q183 66 216 50Q249 34 290 34Q325 34 354 47Q383 60 403.5 90Q424 120 434.5 168Q445 216 444 285ZM250 840Q250 860 260.5 870.5Q271 881 288 881Q326 881 326 840Q326 820 316 809Q306 798 288 798Q271 798 260.5 809Q250 820 250 840Z" glyph-name="Gdotaccent.alt" horiz-adv-x="550" /><glyph d="M452 0V327H140V0H86V700H140V376H452V700H506V0Z" glyph-name="H" horiz-adv-x="592" unicode="H" /><glyph d="M145 376H457V501H145ZM457 0V327H145V0H91V501H34V540H91V700H145V540H457V700H511V540H568V501H511V0Z" glyph-name="Hbar" horiz-adv-x="601" unicode="&#294;" /><glyph d="M86 0ZM452 0V327H140V0H86V700H140V376H452V700H506V0ZM295 865 235 786H183V788L273 897H319L409 788V786H356Z" glyph-name="Hcircumflex" horiz-adv-x="592" unicode="&#292;" /><glyph d="M86 0V700H140V0Z" glyph-name="I" horiz-adv-x="226" unicode="I" /><glyph d="M86 0ZM86 0V700H140V0ZM535 249Q535 177 521.5 127.5Q508 78 484 47Q460 16 426.5 2.5Q393 -11 353 -11Q320 -11 289 0Q258 11 233 34L263 76Q281 56 305 47Q329 38 354 38Q411 38 446 85Q481 132 481 242V700H535Z" glyph-name="IJ" horiz-adv-x="606" unicode="&#306;" /><glyph d="M86 0ZM86 0V700H140V0ZM213 892 132 786H89V789L149 897H213Z" glyph-name="Iacute" horiz-adv-x="226" unicode="&#205;" /><glyph d="M12 0ZM86 0V700H140V0ZM177 896H214Q214 832 187.5 808Q161 784 113 784Q65 784 38.5 808Q12 832 12 896H49Q49 853 65 836.5Q81 820 112 820Q144 820 160.5 836.5Q177 853 177 896Z" glyph-name="Ibreve" horiz-adv-x="226" unicode="&#300;" /><glyph d="M1 0ZM86 0V700H140V0ZM113 865 53 786H1V788L91 897H137L227 788V786H174Z" glyph-name="Icircumflex" horiz-adv-x="226" unicode="&#206;" /><glyph d="M17 0ZM86 0V700H140V0ZM139 840Q139 882 176 882Q214 882 214 840Q214 799 176 799Q139 799 139 840ZM17 840Q17 860 27 871Q37 882 54 882Q92 882 92 840Q92 799 54 799Q37 799 27 809.5Q17 820 17 840Z" glyph-name="Idieresis" horiz-adv-x="226" unicode="&#207;" /><glyph d="M75 0ZM86 0V700H140V0ZM75 840Q75 860 85.5 870.5Q96 881 113 881Q151 881 151 840Q151 820 141 809Q131 798 113 798Q96 798 85.5 809Q75 820 75 840Z" glyph-name="Idotaccent" horiz-adv-x="226" unicode="&#304;" /><glyph d="M15 0ZM86 0V700H140V0ZM97 787 15 893V898H80L140 790V787Z" glyph-name="Igrave" horiz-adv-x="226" unicode="&#204;" /><glyph d="M22 0ZM86 0V700H140V0ZM205 859V820H22V859Z" glyph-name="Imacron" horiz-adv-x="226" unicode="&#298;" /><glyph d="M159 -180Q129 -204 91 -204Q75 -204 59.5 -199.5Q44 -195 32 -184Q20 -173 13 -154.5Q6 -136 6 -108Q6 -57 31 -24.5Q56 8 86 19V700H140V0H119Q86 -5 64.5 -34Q43 -63 43 -103Q43 -138 58.5 -151Q74 -164 95 -164Q123 -164 141 -147Z" glyph-name="Iogonek" horiz-adv-x="226" unicode="&#302;" /><glyph d="M4 0ZM86 0V700H140V0ZM184 886H220Q221 860 216 843.5Q211 827 202 817.5Q193 808 182 804Q171 800 161 800Q145 800 133 807.5Q121 815 110 824.5Q99 834 88.5 841.5Q78 849 66 849Q41 849 41 804H4Q4 829 9 845.5Q14 862 22 872Q30 882 40.5 885.5Q51 889 62 889Q78 889 91 881.5Q104 874 115 865.5Q126 857 136.5 849.5Q147 842 159 842Q183 842 184 886Z" glyph-name="Itilde" horiz-adv-x="226" unicode="&#296;" /><glyph d="M313 249Q313 177 299.5 127.5Q286 78 262 47Q238 16 204.5 2.5Q171 -11 131 -11Q98 -11 67 0Q36 11 11 34L41 76Q59 56 83 47Q107 38 132 38Q189 38 224 85Q259 132 259 242V700H313Z" glyph-name="J" horiz-adv-x="384" unicode="J" /><glyph d="M11 0ZM313 249Q313 177 299.5 127.5Q286 78 262 47Q238 16 204.5 2.5Q171 -11 131 -11Q98 -11 67 0Q36 11 11 34L41 76Q59 56 83 47Q107 38 132 38Q189 38 224 85Q259 132 259 242V700H313ZM286 865 226 786H174V788L264 897H310L400 788V786H347Z" glyph-name="Jcircumflex" horiz-adv-x="384" unicode="&#308;" /><glyph d="M140 209V0H86V700H140L139 287L403 700H462L259 392L477 0H416L227 339Z" glyph-name="K" horiz-adv-x="483" unicode="K" /><glyph d="M86 0V700H141V0ZM407 0 157 342V346L397 700H457L215 350L473 0Z" glyph-name="K.alt" horiz-adv-x="481" /><glyph d="M86 0ZM140 209V0H86V700H140L139 287L403 700H462L259 392L477 0H416L227 339ZM305 -122Q305 -167 288 -201.5Q271 -236 240 -252L223 -230Q244 -217 258 -194Q272 -171 273 -143Q256 -148 243 -138Q230 -128 230 -107Q230 -88 240 -78.5Q250 -69 267 -69Q305 -69 305 -122Z" glyph-name="Kcommaaccent" horiz-adv-x="483" unicode="&#310;" /><glyph d="M86 0ZM86 0V700H141V0ZM407 0 157 342V346L397 700H457L215 350L473 0ZM304 -122Q304 -167 287 -201.5Q270 -236 239 -252L222 -230Q243 -217 257 -194Q271 -171 272 -143Q255 -148 242 -138Q229 -128 229 -107Q229 -88 239 -78.5Q249 -69 266 -69Q304 -69 304 -122Z" glyph-name="Kcommaaccent.alt" horiz-adv-x="481" /><glyph d="M140 48H448V0H86V700H140Z" glyph-name="L" horiz-adv-x="469" unicode="L" /><glyph d="M86 0ZM140 48H448V0H86V700H140ZM212 892 131 786H88V789L148 897H212Z" glyph-name="Lacute" horiz-adv-x="469" unicode="&#313;" /><glyph d="M86 0ZM333 501H296L301 700H351ZM140 48H448V0H86V700H140Z" glyph-name="Lcaron" horiz-adv-x="469" unicode="&#317;" /><glyph d="M86 0ZM140 48H448V0H86V700H140ZM304 -122Q304 -167 287 -201.5Q270 -236 239 -252L222 -230Q243 -217 257 -194Q271 -171 272 -143Q255 -148 242 -138Q229 -128 229 -107Q229 -88 239 -78.5Q249 -69 266 -69Q304 -69 304 -122Z" glyph-name="Lcommaaccent" horiz-adv-x="469" unicode="&#315;" /><glyph d="M86 0ZM140 48H448V0H86V700H140ZM294 356Q294 376 304.5 386.5Q315 397 332 397Q370 397 370 356Q370 336 360 325Q350 314 332 314Q315 314 304.5 325Q294 336 294 356Z" glyph-name="Ldot" horiz-adv-x="469" unicode="&#319;" /><glyph d="M463 0H101V283L21 207V260L101 335V700H155V372L284 492V438L155 319V48H463Z" glyph-name="Lslash" horiz-adv-x="483" unicode="&#321;" /><glyph d="M332 0 133 598 136 0H86V700H149L355 77L559 700H623V0H572L575 598L377 0Z" glyph-name="M" horiz-adv-x="709" unicode="M" /><glyph d="M448 0 134 600 136 0H86V700H139L452 102L449 700H499V0Z" glyph-name="N" horiz-adv-x="585" unicode="N" /><glyph glyph-name="NULL" horiz-adv-x="131" /><glyph d="M86 0ZM448 0 134 600 136 0H86V700H139L452 102L449 700H499V0ZM392 892 311 786H268V789L328 897H392Z" glyph-name="Nacute" horiz-adv-x="585" unicode="&#323;" /><glyph d="M86 0ZM448 0 134 600 136 0H86V700H139L452 102L449 700H499V0ZM293 820 355 897H406V895L315 786H270L180 895V897H234Z" glyph-name="Ncaron" horiz-adv-x="585" unicode="&#327;" /><glyph d="M86 0ZM448 0 134 600 136 0H86V700H139L452 102L449 700H499V0ZM330 -122Q330 -167 313 -201.5Q296 -236 265 -252L248 -230Q269 -217 283 -194Q297 -171 298 -143Q281 -148 268 -138Q255 -128 255 -107Q255 -88 265 -78.5Q275 -69 292 -69Q330 -69 330 -122Z" glyph-name="Ncommaaccent" horiz-adv-x="585" unicode="&#325;" /><glyph d="M86 0ZM448 0 134 600 136 0H86V700H139L452 102L449 700H499V0ZM364 886H400Q401 860 396 843.5Q391 827 382 817.5Q373 808 362 804Q351 800 341 800Q325 800 313 807.5Q301 815 290 824.5Q279 834 268.5 841.5Q258 849 246 849Q221 849 221 804H184Q184 829 189 845.5Q194 862 202 872Q210 882 220.5 885.5Q231 889 242 889Q258 889 271 881.5Q284 874 295 865.5Q306 857 316.5 849.5Q327 842 339 842Q363 842 364 886Z" glyph-name="Ntilde" horiz-adv-x="585" unicode="&#209;" /><glyph d="M290 -11Q233 -11 189.5 9Q146 29 117 72.5Q88 116 73.5 184.5Q59 253 59 350Q59 447 74 515.5Q89 584 118 627.5Q147 671 190 691Q233 711 290 711Q349 711 392.5 691Q436 671 465 627.5Q494 584 508 515.5Q522 447 522 350Q522 253 507 184.5Q492 116 463 72.5Q434 29 390.5 9Q347 -11 290 -11ZM290 664Q248 664 215 648.5Q182 633 159.5 597Q137 561 125 500.5Q113 440 113 350Q113 261 125 200.5Q137 140 159.5 103.5Q182 67 215 51Q248 35 290 35Q332 35 365 50.5Q398 66 420.5 103Q443 140 455 200.5Q467 261 467 351Q467 440 455 500Q443 560 420.5 596.5Q398 633 365 648.5Q332 664 290 664Z" glyph-name="O" horiz-adv-x="581" unicode="O" /><glyph d="M304 0Q184 0 121.5 85Q59 170 59 356Q59 448 74.5 513.5Q90 579 121 620.5Q152 662 198 681Q244 700 305 700H786V653H475V377H747V327H475V48H794V0ZM304 652Q259 652 224 637Q189 622 164 587Q139 552 126 495.5Q113 439 113 355Q113 269 126.5 210Q140 151 165 115Q190 79 225.5 63Q261 47 305 47H422V652Z" glyph-name="OE" horiz-adv-x="826" unicode="&#338;" /><glyph d="M59 0ZM290 -11Q233 -11 189.5 9Q146 29 117 72.5Q88 116 73.5 184.5Q59 253 59 350Q59 447 74 515.5Q89 584 118 627.5Q147 671 190 691Q233 711 290 711Q349 711 392.5 691Q436 671 465 627.5Q494 584 508 515.5Q522 447 522 350Q522 253 507 184.5Q492 116 463 72.5Q434 29 390.5 9Q347 -11 290 -11ZM290 664Q248 664 215 648.5Q182 633 159.5 597Q137 561 125 500.5Q113 440 113 350Q113 261 125 200.5Q137 140 159.5 103.5Q182 67 215 51Q248 35 290 35Q332 35 365 50.5Q398 66 420.5 103Q443 140 455 200.5Q467 261 467 351Q467 440 455 500Q443 560 420.5 596.5Q398 633 365 648.5Q332 664 290 664ZM389 892 308 786H265V789L325 897H389Z" glyph-name="Oacute" horiz-adv-x="581" unicode="&#211;" /><glyph d="M59 0ZM290 -11Q233 -11 189.5 9Q146 29 117 72.5Q88 116 73.5 184.5Q59 253 59 350Q59 447 74 515.5Q89 584 118 627.5Q147 671 190 691Q233 711 290 711Q349 711 392.5 691Q436 671 465 627.5Q494 584 508 515.5Q522 447 522 350Q522 253 507 184.5Q492 116 463 72.5Q434 29 390.5 9Q347 -11 290 -11ZM290 664Q248 664 215 648.5Q182 633 159.5 597Q137 561 125 500.5Q113 440 113 350Q113 261 125 200.5Q137 140 159.5 103.5Q182 67 215 51Q248 35 290 35Q332 35 365 50.5Q398 66 420.5 103Q443 140 455 200.5Q467 261 467 351Q467 440 455 500Q443 560 420.5 596.5Q398 633 365 648.5Q332 664 290 664ZM353 896H390Q390 832 363.5 808Q337 784 289 784Q241 784 214.5 808Q188 832 188 896H225Q225 853 241 836.5Q257 820 288 820Q320 820 336.5 836.5Q353 853 353 896Z" glyph-name="Obreve" horiz-adv-x="581" unicode="&#334;" /><glyph d="M59 0ZM290 -11Q233 -11 189.5 9Q146 29 117 72.5Q88 116 73.5 184.5Q59 253 59 350Q59 447 74 515.5Q89 584 118 627.5Q147 671 190 691Q233 711 290 711Q349 711 392.5 691Q436 671 465 627.5Q494 584 508 515.5Q522 447 522 350Q522 253 507 184.5Q492 116 463 72.5Q434 29 390.5 9Q347 -11 290 -11ZM290 664Q248 664 215 648.5Q182 633 159.5 597Q137 561 125 500.5Q113 440 113 350Q113 261 125 200.5Q137 140 159.5 103.5Q182 67 215 51Q248 35 290 35Q332 35 365 50.5Q398 66 420.5 103Q443 140 455 200.5Q467 261 467 351Q467 440 455 500Q443 560 420.5 596.5Q398 633 365 648.5Q332 664 290 664ZM289 865 229 786H177V788L267 897H313L403 788V786H350Z" glyph-name="Ocircumflex" horiz-adv-x="581" unicode="&#212;" /><glyph d="M59 0ZM290 -11Q233 -11 189.5 9Q146 29 117 72.5Q88 116 73.5 184.5Q59 253 59 350Q59 447 74 515.5Q89 584 118 627.5Q147 671 190 691Q233 711 290 711Q349 711 392.5 691Q436 671 465 627.5Q494 584 508 515.5Q522 447 522 350Q522 253 507 184.5Q492 116 463 72.5Q434 29 390.5 9Q347 -11 290 -11ZM290 664Q248 664 215 648.5Q182 633 159.5 597Q137 561 125 500.5Q113 440 113 350Q113 261 125 200.5Q137 140 159.5 103.5Q182 67 215 51Q248 35 290 35Q332 35 365 50.5Q398 66 420.5 103Q443 140 455 200.5Q467 261 467 351Q467 440 455 500Q443 560 420.5 596.5Q398 633 365 648.5Q332 664 290 664ZM315 840Q315 882 352 882Q390 882 390 840Q390 799 352 799Q315 799 315 840ZM193 840Q193 860 203 871Q213 882 230 882Q268 882 268 840Q268 799 230 799Q213 799 203 809.5Q193 820 193 840Z" glyph-name="Odieresis" horiz-adv-x="581" unicode="&#214;" /><glyph d="M59 0ZM290 -11Q233 -11 189.5 9Q146 29 117 72.5Q88 116 73.5 184.5Q59 253 59 350Q59 447 74 515.5Q89 584 118 627.5Q147 671 190 691Q233 711 290 711Q349 711 392.5 691Q436 671 465 627.5Q494 584 508 515.5Q522 447 522 350Q522 253 507 184.5Q492 116 463 72.5Q434 29 390.5 9Q347 -11 290 -11ZM290 664Q248 664 215 648.5Q182 633 159.5 597Q137 561 125 500.5Q113 440 113 350Q113 261 125 200.5Q137 140 159.5 103.5Q182 67 215 51Q248 35 290 35Q332 35 365 50.5Q398 66 420.5 103Q443 140 455 200.5Q467 261 467 351Q467 440 455 500Q443 560 420.5 596.5Q398 633 365 648.5Q332 664 290 664ZM273 788 191 894V899H256L316 791V788Z" glyph-name="Ograve" horiz-adv-x="581" unicode="&#210;" /><glyph d="M59 0ZM290 -11Q233 -11 189.5 9Q146 29 117 72.5Q88 116 73.5 184.5Q59 253 59 350Q59 447 74 515.5Q89 584 118 627.5Q147 671 190 691Q233 711 290 711Q349 711 392.5 691Q436 671 465 627.5Q494 584 508 515.5Q522 447 522 350Q522 253 507 184.5Q492 116 463 72.5Q434 29 390.5 9Q347 -11 290 -11ZM290 664Q248 664 215 648.5Q182 633 159.5 597Q137 561 125 500.5Q113 440 113 350Q113 261 125 200.5Q137 140 159.5 103.5Q182 67 215 51Q248 35 290 35Q332 35 365 50.5Q398 66 420.5 103Q443 140 455 200.5Q467 261 467 351Q467 440 455 500Q443 560 420.5 596.5Q398 633 365 648.5Q332 664 290 664ZM444 892 357 786H318V789L379 897H444ZM330 897V892L243 786H203V789L264 897Z" glyph-name="Ohungarumlaut" horiz-adv-x="581" unicode="&#336;" /><glyph d="M59 0ZM290 -11Q233 -11 189.5 9Q146 29 117 72.5Q88 116 73.5 184.5Q59 253 59 350Q59 447 74 515.5Q89 584 118 627.5Q147 671 190 691Q233 711 290 711Q349 711 392.5 691Q436 671 465 627.5Q494 584 508 515.5Q522 447 522 350Q522 253 507 184.5Q492 116 463 72.5Q434 29 390.5 9Q347 -11 290 -11ZM290 664Q248 664 215 648.5Q182 633 159.5 597Q137 561 125 500.5Q113 440 113 350Q113 261 125 200.5Q137 140 159.5 103.5Q182 67 215 51Q248 35 290 35Q332 35 365 50.5Q398 66 420.5 103Q443 140 455 200.5Q467 261 467 351Q467 440 455 500Q443 560 420.5 596.5Q398 633 365 648.5Q332 664 290 664ZM381 859V820H198V859Z" glyph-name="Omacron" horiz-adv-x="581" unicode="&#332;" /><glyph d="M294 -11Q240 -11 199.5 7Q159 25 130 63L89 0H39L105 100Q84 144 73 205.5Q62 267 62 350Q62 447 77 515.5Q92 584 121 627.5Q150 671 193.5 691Q237 711 294 711Q347 711 388 693.5Q429 676 458 638L499 700H548L483 600Q525 514 525 350Q525 253 510 184.5Q495 116 466 72.5Q437 29 394 9Q351 -11 294 -11ZM116 350Q116 287 122.5 239.5Q129 192 141 157L428 590Q405 630 371.5 647Q338 664 294 664Q252 664 218.5 648.5Q185 633 162.5 597Q140 561 128 500.5Q116 440 116 350ZM294 35Q336 35 368.5 50.5Q401 66 423.5 102.5Q446 139 458 200Q470 261 470 351Q470 413 463.5 460Q457 507 445 542L159 108Q182 68 215.5 51.5Q249 35 294 35Z" glyph-name="Oslash" horiz-adv-x="581" unicode="&#216;" /><glyph d="M59 0ZM290 -11Q233 -11 189.5 9Q146 29 117 72.5Q88 116 73.5 184.5Q59 253 59 350Q59 447 74 515.5Q89 584 118 627.5Q147 671 190 691Q233 711 290 711Q349 711 392.5 691Q436 671 465 627.5Q494 584 508 515.5Q522 447 522 350Q522 253 507 184.5Q492 116 463 72.5Q434 29 390.5 9Q347 -11 290 -11ZM290 664Q248 664 215 648.5Q182 633 159.5 597Q137 561 125 500.5Q113 440 113 350Q113 261 125 200.5Q137 140 159.5 103.5Q182 67 215 51Q248 35 290 35Q332 35 365 50.5Q398 66 420.5 103Q443 140 455 200.5Q467 261 467 351Q467 440 455 500Q443 560 420.5 596.5Q398 633 365 648.5Q332 664 290 664ZM360 886H396Q397 860 392 843.5Q387 827 378 817.5Q369 808 358 804Q347 800 337 800Q321 800 309 807.5Q297 815 286 824.5Q275 834 264.5 841.5Q254 849 242 849Q217 849 217 804H180Q180 829 185 845.5Q190 862 198 872Q206 882 216.5 885.5Q227 889 238 889Q254 889 267 881.5Q280 874 291 865.5Q302 857 312.5 849.5Q323 842 335 842Q359 842 360 886Z" glyph-name="Otilde" horiz-adv-x="581" unicode="&#213;" /><glyph d="M86 0V700H270Q371 700 418.5 645Q466 590 466 484Q466 381 417.5 320Q369 259 268 259H140V0ZM268 653H140V307H270Q336 307 374 350.5Q412 394 412 483Q412 571 377 612Q342 653 268 653Z" glyph-name="P" horiz-adv-x="507" unicode="P" /><glyph d="M290 -11Q233 -11 189.5 9Q146 29 117 72.5Q88 116 73.5 184.5Q59 253 59 350Q59 447 74 515.5Q89 584 118 627.5Q147 671 190 691Q233 711 290 711Q349 711 392.5 691Q436 671 465 627.5Q494 584 508 515.5Q522 447 522 350Q522 219 495.5 140Q469 61 416 24L486 -92H429L371 3Q335 -11 290 -11ZM290 664Q248 664 215 649Q182 634 159.5 597.5Q137 561 125 500.5Q113 440 113 350Q113 261 125 200.5Q137 140 159.5 103.5Q182 67 215 51Q248 35 290 34Q321 34 346 45L274 169H331L392 69Q429 99 448 166Q467 233 467 350Q467 439 455 499.5Q443 560 420.5 596.5Q398 633 365 648.5Q332 664 290 664Z" glyph-name="Q" horiz-adv-x="581" unicode="Q" /><glyph d="M268 653H140V327H268Q338 327 375 368.5Q412 410 412 493Q412 576 377 614.5Q342 653 268 653ZM86 0V700H270Q371 700 418.5 648Q466 596 466 494Q466 419 437.5 366Q409 313 350 292L471 0H413L299 281Q292 280 284 279.5Q276 279 268 279H140V0Z" glyph-name="R" horiz-adv-x="505" unicode="R" /><glyph d="M86 0ZM268 653H140V327H268Q338 327 375 368.5Q412 410 412 493Q412 576 377 614.5Q342 653 268 653ZM86 0V700H270Q371 700 418.5 648Q466 596 466 494Q466 419 437.5 366Q409 313 350 292L471 0H413L299 281Q292 280 284 279.5Q276 279 268 279H140V0ZM378 892 297 786H254V789L314 897H378Z" glyph-name="Racute" horiz-adv-x="505" unicode="&#340;" /><glyph d="M86 0ZM268 653H140V327H268Q338 327 375 368.5Q412 410 412 493Q412 576 377 614.5Q342 653 268 653ZM86 0V700H270Q371 700 418.5 648Q466 596 466 494Q466 419 437.5 366Q409 313 350 292L471 0H413L299 281Q292 280 284 279.5Q276 279 268 279H140V0ZM279 820 341 897H392V895L301 786H256L166 895V897H220Z" glyph-name="Rcaron" horiz-adv-x="505" unicode="&#344;" /><glyph d="M86 0ZM268 653H140V327H268Q338 327 375 368.5Q412 410 412 493Q412 576 377 614.5Q342 653 268 653ZM86 0V700H270Q371 700 418.5 648Q466 596 466 494Q466 419 437.5 366Q409 313 350 292L471 0H413L299 281Q292 280 284 279.5Q276 279 268 279H140V0ZM301 -122Q301 -167 284 -201.5Q267 -236 236 -252L219 -230Q240 -217 254 -194Q268 -171 269 -143Q252 -148 239 -138Q226 -128 226 -107Q226 -88 236 -78.5Q246 -69 263 -69Q301 -69 301 -122Z" glyph-name="Rcommaaccent" horiz-adv-x="505" unicode="&#342;" /><glyph d="M408 557 363 537Q342 610 304 637.5Q266 665 218 665Q161 665 127.5 634Q94 603 94 543Q94 487 123.5 453Q153 419 210 395L253 377Q295 359 325.5 339Q356 319 376 295.5Q396 272 405.5 242.5Q415 213 415 175Q415 83 364 36Q313 -11 225 -11Q150 -11 98 26.5Q46 64 18 154L63 177Q86 99 127 66.5Q168 34 225 34Q294 34 328 70Q362 106 362 171Q362 223 334.5 258.5Q307 294 237 325L193 343Q124 372 83.5 419Q43 466 43 540Q43 576 54 607Q65 638 87.5 661.5Q110 685 143 698Q176 711 221 711Q290 711 338.5 675Q387 639 408 557Z" glyph-name="S" horiz-adv-x="459" unicode="S" /><glyph d="M18 0ZM408 557 363 537Q342 610 304 637.5Q266 665 218 665Q161 665 127.5 634Q94 603 94 543Q94 487 123.5 453Q153 419 210 395L253 377Q295 359 325.5 339Q356 319 376 295.5Q396 272 405.5 242.5Q415 213 415 175Q415 83 364 36Q313 -11 225 -11Q150 -11 98 26.5Q46 64 18 154L63 177Q86 99 127 66.5Q168 34 225 34Q294 34 328 70Q362 106 362 171Q362 223 334.5 258.5Q307 294 237 325L193 343Q124 372 83.5 419Q43 466 43 540Q43 576 54 607Q65 638 87.5 661.5Q110 685 143 698Q176 711 221 711Q290 711 338.5 675Q387 639 408 557ZM319 890 238 784H195V787L255 895H319Z" glyph-name="Sacute" horiz-adv-x="462" unicode="&#346;" /><glyph d="M18 0ZM408 557 363 537Q342 610 304 637.5Q266 665 218 665Q161 665 127.5 634Q94 603 94 543Q94 487 123.5 453Q153 419 210 395L253 377Q295 359 325.5 339Q356 319 376 295.5Q396 272 405.5 242.5Q415 213 415 175Q415 83 364 36Q313 -11 225 -11Q150 -11 98 26.5Q46 64 18 154L63 177Q86 99 127 66.5Q168 34 225 34Q294 34 328 70Q362 106 362 171Q362 223 334.5 258.5Q307 294 237 325L193 343Q124 372 83.5 419Q43 466 43 540Q43 576 54 607Q65 638 87.5 661.5Q110 685 143 698Q176 711 221 711Q290 711 338.5 675Q387 639 408 557ZM219 818 281 895H332V893L241 784H196L106 893V895H160Z" glyph-name="Scaron" horiz-adv-x="462" unicode="&#352;" /><glyph d="M214 -230Q187 -230 164.5 -217.5Q142 -205 126 -175L157 -154Q168 -177 182 -186.5Q196 -196 214 -196Q238 -196 251 -183.5Q264 -171 264 -149Q264 -126 251.5 -114.5Q239 -103 222 -103Q217 -103 212.5 -104Q208 -105 203 -106L192 -95L206 -10Q139 -6 91.5 32Q44 70 18 154L63 177Q86 99 127 66.5Q168 34 225 34Q294 34 328 70Q362 106 362 171Q362 223 335 259.5Q308 296 237 326L193 344Q124 373 83.5 419.5Q43 466 43 540Q43 576 54 607Q65 638 87.5 661.5Q110 685 143 698Q176 711 221 711Q290 711 338.5 675Q387 639 408 557L363 537Q342 610 304 637.5Q266 665 218 665Q161 665 127.5 634Q94 603 94 543Q94 487 124 453.5Q154 420 210 395L253 377Q295 359 325.5 339Q356 319 376 295.5Q396 272 405.5 242.5Q415 213 415 175Q415 87 368.5 40.5Q322 -6 241 -10L229 -76Q233 -74 238 -74Q263 -74 283 -92Q303 -110 303 -147Q303 -189 278 -209.5Q253 -230 214 -230Z" glyph-name="Scedilla" horiz-adv-x="462" unicode="&#350;" /><glyph d="M18 0ZM408 557 363 537Q342 610 304 637.5Q266 665 218 665Q161 665 127.5 634Q94 603 94 543Q94 487 123.5 453Q153 419 210 395L253 377Q295 359 325.5 339Q356 319 376 295.5Q396 272 405.5 242.5Q415 213 415 175Q415 83 364 36Q313 -11 225 -11Q150 -11 98 26.5Q46 64 18 154L63 177Q86 99 127 66.5Q168 34 225 34Q294 34 328 70Q362 106 362 171Q362 223 334.5 258.5Q307 294 237 325L193 343Q124 372 83.5 419Q43 466 43 540Q43 576 54 607Q65 638 87.5 661.5Q110 685 143 698Q176 711 221 711Q290 711 338.5 675Q387 639 408 557ZM219 863 159 784H107V786L197 895H243L333 786V784H280Z" glyph-name="Scircumflex" horiz-adv-x="462" unicode="&#348;" /><glyph d="M18 0ZM408 557 363 537Q342 610 304 637.5Q266 665 218 665Q161 665 127.5 634Q94 603 94 543Q94 487 123.5 453Q153 419 210 395L253 377Q295 359 325.5 339Q356 319 376 295.5Q396 272 405.5 242.5Q415 213 415 175Q415 83 364 36Q313 -11 225 -11Q150 -11 98 26.5Q46 64 18 154L63 177Q86 99 127 66.5Q168 34 225 34Q294 34 328 70Q362 106 362 171Q362 223 334.5 258.5Q307 294 237 325L193 343Q124 372 83.5 419Q43 466 43 540Q43 576 54 607Q65 638 87.5 661.5Q110 685 143 698Q176 711 221 711Q290 711 338.5 675Q387 639 408 557ZM259 -125Q259 -170 242 -204.5Q225 -239 194 -255L177 -233Q198 -220 212 -197Q226 -174 227 -146Q210 -151 197 -141Q184 -131 184 -110Q184 -91 194 -81.5Q204 -72 221 -72Q259 -72 259 -125Z" glyph-name="Scommaaccent" horiz-adv-x="462" unicode="&#536;" /><glyph d="M13 700H421V652H244V0H190V652H13Z" glyph-name="T" horiz-adv-x="433" unicode="T" /><glyph d="M13 700H421V652H244V370H386V332H244V0H190V332H48V370H190V652H13Z" glyph-name="Tbar" horiz-adv-x="434" unicode="&#358;" /><glyph d="M13 0ZM13 700H421V652H244V0H190V652H13ZM217 820 279 897H330V895L239 786H194L104 895V897H158Z" glyph-name="Tcaron" horiz-adv-x="433" unicode="&#356;" /><glyph d="M183 -92 198 0H190V652H13V700H421V652H244V0H233L220 -73Q222 -72 229 -72Q254 -72 274 -89.5Q294 -107 294 -145Q294 -187 269 -207.5Q244 -228 206 -228Q178 -228 155.5 -215Q133 -202 117 -172L148 -152Q168 -193 205 -193Q255 -193 255 -146Q255 -123 242.5 -112Q230 -101 213 -101Q208 -101 203.5 -101.5Q199 -102 194 -103Z" glyph-name="Tcedilla" horiz-adv-x="433" unicode="&#354;" /><glyph d="M140 0H86V700H140V559H286Q373 559 413 509.5Q453 460 453 363Q453 268 410.5 213Q368 158 283 158H140ZM282 510H140V206H285Q339 206 369 244Q399 282 399 360Q399 437 370.5 473.5Q342 510 282 510Z" glyph-name="Thorn" horiz-adv-x="493" unicode="&#222;" /><glyph d="M437 231V700H491V233Q491 108 435 48.5Q379 -11 280 -11Q180 -11 125.5 48.5Q71 108 71 233V700H125V231Q125 179 136 142.5Q147 106 167 82.5Q187 59 216 48Q245 37 280 37Q316 37 345 48Q374 59 394.5 82.5Q415 106 426 142.5Q437 179 437 231Z" glyph-name="U" horiz-adv-x="561" unicode="U" /><glyph d="M71 0ZM437 231V700H491V233Q491 108 435 48.5Q379 -11 280 -11Q180 -11 125.5 48.5Q71 108 71 233V700H125V231Q125 179 136 142.5Q147 106 167 82.5Q187 59 216 48Q245 37 280 37Q316 37 345 48Q374 59 394.5 82.5Q415 106 426 142.5Q437 179 437 231ZM381 892 300 786H257V789L317 897H381Z" glyph-name="Uacute" horiz-adv-x="561" unicode="&#218;" /><glyph d="M71 0ZM437 231V700H491V233Q491 108 435 48.5Q379 -11 280 -11Q180 -11 125.5 48.5Q71 108 71 233V700H125V231Q125 179 136 142.5Q147 106 167 82.5Q187 59 216 48Q245 37 280 37Q316 37 345 48Q374 59 394.5 82.5Q415 106 426 142.5Q437 179 437 231ZM345 896H382Q382 832 355.5 808Q329 784 281 784Q233 784 206.5 808Q180 832 180 896H217Q217 853 233 836.5Q249 820 280 820Q312 820 328.5 836.5Q345 853 345 896Z" glyph-name="Ubreve" horiz-adv-x="561" unicode="&#364;" /><glyph d="M71 0ZM437 231V700H491V233Q491 108 435 48.5Q379 -11 280 -11Q180 -11 125.5 48.5Q71 108 71 233V700H125V231Q125 179 136 142.5Q147 106 167 82.5Q187 59 216 48Q245 37 280 37Q316 37 345 48Q374 59 394.5 82.5Q415 106 426 142.5Q437 179 437 231ZM281 865 221 786H169V788L259 897H305L395 788V786H342Z" glyph-name="Ucircumflex" horiz-adv-x="561" unicode="&#219;" /><glyph d="M71 0ZM437 231V700H491V233Q491 108 435 48.5Q379 -11 280 -11Q180 -11 125.5 48.5Q71 108 71 233V700H125V231Q125 179 136 142.5Q147 106 167 82.5Q187 59 216 48Q245 37 280 37Q316 37 345 48Q374 59 394.5 82.5Q415 106 426 142.5Q437 179 437 231ZM307 840Q307 882 344 882Q382 882 382 840Q382 799 344 799Q307 799 307 840ZM185 840Q185 860 195 871Q205 882 222 882Q260 882 260 840Q260 799 222 799Q205 799 195 809.5Q185 820 185 840Z" glyph-name="Udieresis" horiz-adv-x="561" unicode="&#220;" /><glyph d="M71 0ZM437 231V700H491V233Q491 108 435 48.5Q379 -11 280 -11Q180 -11 125.5 48.5Q71 108 71 233V700H125V231Q125 179 136 142.5Q147 106 167 82.5Q187 59 216 48Q245 37 280 37Q316 37 345 48Q374 59 394.5 82.5Q415 106 426 142.5Q437 179 437 231ZM265 787 183 893V898H248L308 790V787Z" glyph-name="Ugrave" horiz-adv-x="561" unicode="&#217;" /><glyph d="M71 0ZM437 231V700H491V233Q491 108 435 48.5Q379 -11 280 -11Q180 -11 125.5 48.5Q71 108 71 233V700H125V231Q125 179 136 142.5Q147 106 167 82.5Q187 59 216 48Q245 37 280 37Q316 37 345 48Q374 59 394.5 82.5Q415 106 426 142.5Q437 179 437 231ZM436 892 349 786H310V789L371 897H436ZM322 897V892L235 786H195V789L256 897Z" glyph-name="Uhungarumlaut" horiz-adv-x="561" unicode="&#368;" /><glyph d="M71 0ZM437 231V700H491V233Q491 108 435 48.5Q379 -11 280 -11Q180 -11 125.5 48.5Q71 108 71 233V700H125V231Q125 179 136 142.5Q147 106 167 82.5Q187 59 216 48Q245 37 280 37Q316 37 345 48Q374 59 394.5 82.5Q415 106 426 142.5Q437 179 437 231ZM373 859V820H190V859Z" glyph-name="Umacron" horiz-adv-x="561" unicode="&#362;" /><glyph d="M333 -204Q317 -204 301.5 -199.5Q286 -195 274 -184Q262 -173 255 -154.5Q248 -136 248 -108Q248 -76 258.5 -51.5Q269 -27 286 -10Q185 -12 128 47Q71 106 71 233V700H125V231Q125 179 136 142.5Q147 106 167 82.5Q187 59 216 48Q245 37 280 37Q316 37 345 48Q374 59 394.5 82.5Q415 106 426 142.5Q437 179 437 231V700H491V233Q491 128 451.5 69.5Q412 11 340 -4Q315 -17 300 -43Q285 -69 285 -103Q285 -138 301 -151Q317 -164 337 -164Q365 -164 383 -147L401 -180Q371 -204 333 -204Z" glyph-name="Uogonek" horiz-adv-x="561" unicode="&#370;" /><glyph d="M71 0ZM437 231V700H491V233Q491 108 435 48.5Q379 -11 280 -11Q180 -11 125.5 48.5Q71 108 71 233V700H125V231Q125 179 136 142.5Q147 106 167 82.5Q187 59 216 48Q245 37 280 37Q316 37 345 48Q374 59 394.5 82.5Q415 106 426 142.5Q437 179 437 231ZM206 853Q206 892 228 915.5Q250 939 283 939Q315 939 336.5 915.5Q358 892 358 853Q358 815 336.5 791.5Q315 768 282 768Q250 768 228 791.5Q206 815 206 853ZM237 853Q237 828 249.5 812Q262 796 282 796Q302 796 315 812Q328 828 328 853Q328 879 315 894.5Q302 910 283 910Q263 910 250 894.5Q237 879 237 853Z" glyph-name="Uring" horiz-adv-x="561" unicode="&#366;" /><glyph d="M71 0ZM437 231V700H491V233Q491 108 435 48.5Q379 -11 280 -11Q180 -11 125.5 48.5Q71 108 71 233V700H125V231Q125 179 136 142.5Q147 106 167 82.5Q187 59 216 48Q245 37 280 37Q316 37 345 48Q374 59 394.5 82.5Q415 106 426 142.5Q437 179 437 231ZM352 886H388Q389 860 384 843.5Q379 827 370 817.5Q361 808 350 804Q339 800 329 800Q313 800 301 807.5Q289 815 278 824.5Q267 834 256.5 841.5Q246 849 234 849Q209 849 209 804H172Q172 829 177 845.5Q182 862 190 872Q198 882 208.5 885.5Q219 889 230 889Q246 889 259 881.5Q272 874 283 865.5Q294 857 304.5 849.5Q315 842 327 842Q351 842 352 886Z" glyph-name="Utilde" horiz-adv-x="561" unicode="&#360;" /><glyph d="M232 63 398 700H453L264 0H198L10 700H65Z" glyph-name="V" horiz-adv-x="463" unicode="V" /><glyph d="M314 695H375L494 87L626 700H677L523 0H464L344 607L224 0H166L11 700H65L195 85Z" glyph-name="W" horiz-adv-x="688" unicode="W" /><glyph d="M11 0ZM314 695H375L494 87L626 700H677L523 0H464L344 607L224 0H166L11 700H65L195 85ZM444 892 363 786H320V789L380 897H444Z" glyph-name="Wacute" horiz-adv-x="688" unicode="&#7810;" /><glyph d="M11 0ZM314 695H375L494 87L626 700H677L523 0H464L344 607L224 0H166L11 700H65L195 85ZM344 865 284 786H232V788L322 897H368L458 788V786H405Z" glyph-name="Wcircumflex" horiz-adv-x="688" unicode="&#372;" /><glyph d="M11 0ZM314 695H375L494 87L626 700H677L523 0H464L344 607L224 0H166L11 700H65L195 85ZM371 840Q371 882 408 882Q446 882 446 840Q446 799 408 799Q371 799 371 840ZM249 840Q249 860 259 871Q269 882 286 882Q324 882 324 840Q324 799 286 799Q269 799 259 809.5Q249 820 249 840Z" glyph-name="Wdieresis" horiz-adv-x="688" unicode="&#7812;" /><glyph d="M11 0ZM314 695H375L494 87L626 700H677L523 0H464L344 607L224 0H166L11 700H65L195 85ZM328 787 246 893V898H311L371 790V787Z" glyph-name="Wgrave" horiz-adv-x="688" unicode="&#7808;" /><glyph d="M405 0 239 316 74 0H16L210 362L31 700H91L243 407L393 700H450L272 362L465 0Z" glyph-name="X" horiz-adv-x="481" unicode="X" /><glyph d="M204 283 13 700H74L232 337L390 700H448L258 284V0H204Z" glyph-name="Y" horiz-adv-x="462" unicode="Y" /><glyph d="M13 0ZM204 283 13 700H74L232 337L390 700H448L258 284V0H204ZM330 892 249 786H206V789L266 897H330Z" glyph-name="Yacute" horiz-adv-x="462" unicode="&#221;" /><glyph d="M13 0ZM204 283 13 700H74L232 337L390 700H448L258 284V0H204ZM230 865 170 786H118V788L208 897H254L344 788V786H291Z" glyph-name="Ycircumflex" horiz-adv-x="462" unicode="&#374;" /><glyph d="M13 0ZM204 283 13 700H74L232 337L390 700H448L258 284V0H204ZM257 840Q257 882 294 882Q332 882 332 840Q332 799 294 799Q257 799 257 840ZM135 840Q135 860 145 871Q155 882 172 882Q210 882 210 840Q210 799 172 799Q155 799 145 809.5Q135 820 135 840Z" glyph-name="Ydieresis" horiz-adv-x="462" unicode="&#376;" /><glyph d="M22 0V43L353 653L38 652V700H412V657L80 47L417 48V0Z" glyph-name="Z" horiz-adv-x="437" unicode="Z" /><glyph d="M22 0ZM22 0V43L353 653L38 652V700H412V657L80 47L417 48V0ZM319 892 238 786H195V789L255 897H319Z" glyph-name="Zacute" horiz-adv-x="437" unicode="&#377;" /><glyph d="M22 0ZM22 0V43L353 653L38 652V700H412V657L80 47L417 48V0ZM220 820 282 897H333V895L242 786H197L107 895V897H161Z" glyph-name="Zcaron" horiz-adv-x="437" unicode="&#381;" /><glyph d="M22 0ZM22 0V43L353 653L38 652V700H412V657L80 47L417 48V0ZM182 840Q182 860 192.5 870.5Q203 881 220 881Q258 881 258 840Q258 820 248 809Q238 798 220 798Q203 798 192.5 809Q182 820 182 840Z" glyph-name="Zdotaccent" horiz-adv-x="437" unicode="&#379;" /><glyph d="M178 33Q235 33 268.5 82Q302 131 305 219V247H234Q169 247 131.5 215.5Q94 184 94 126Q94 82 116.5 57.5Q139 33 178 33ZM313 0 308 112Q291 52 255 20.5Q219 -11 167 -11Q112 -11 78 24.5Q44 60 44 123Q44 201 94 245Q144 289 228 289H305V302Q305 344 297 372Q289 400 275.5 417Q262 434 243 441Q224 448 201 448Q165 448 137.5 429.5Q110 411 96 367L52 389Q69 437 105.5 465Q142 493 204 493Q281 493 318.5 449Q356 405 356 302V0Z" glyph-name="a" horiz-adv-x="423" unicode="a" /><glyph d="M334 243Q334 349 300.5 398.5Q267 448 215 448Q156 448 127.5 396Q99 344 99 241Q99 33 214 33Q267 33 300.5 83.5Q334 134 334 243ZM200 -11Q125 -11 86 54Q47 119 47 241Q47 363 88 428Q129 493 206 493Q252 493 286.5 466Q321 439 338 384L342 482H386V0H342L337 103Q320 45 284.5 17Q249 -11 200 -11Z" glyph-name="a.school" horiz-adv-x="458" /><glyph d="M44 0ZM178 33Q235 33 268.5 82Q302 131 305 219V247H234Q169 247 131.5 215.5Q94 184 94 126Q94 82 116.5 57.5Q139 33 178 33ZM313 0 308 112Q291 52 255 20.5Q219 -11 167 -11Q112 -11 78 24.5Q44 60 44 123Q44 201 94 245Q144 289 228 289H305V302Q305 344 297 372Q289 400 275.5 417Q262 434 243 441Q224 448 201 448Q165 448 137.5 429.5Q110 411 96 367L52 389Q69 437 105.5 465Q142 493 204 493Q281 493 318.5 449Q356 405 356 302V0ZM302 674 221 568H178V571L238 679H302Z" glyph-name="aacute" horiz-adv-x="423" unicode="&#225;" /><glyph d="M47 0ZM334 243Q334 349 300.5 398.5Q267 448 215 448Q156 448 127.5 396Q99 344 99 241Q99 33 214 33Q267 33 300.5 83.5Q334 134 334 243ZM200 -11Q125 -11 86 54Q47 119 47 241Q47 363 88 428Q129 493 206 493Q252 493 286.5 466Q321 439 338 384L342 482H386V0H342L337 103Q320 45 284.5 17Q249 -11 200 -11ZM308 674 227 568H184V571L244 679H308Z" glyph-name="aacute.school" horiz-adv-x="458" /><glyph d="M44 0ZM178 33Q235 33 268.5 82Q302 131 305 219V247H234Q169 247 131.5 215.5Q94 184 94 126Q94 82 116.5 57.5Q139 33 178 33ZM313 0 308 112Q291 52 255 20.5Q219 -11 167 -11Q112 -11 78 24.5Q44 60 44 123Q44 201 94 245Q144 289 228 289H305V302Q305 344 297 372Q289 400 275.5 417Q262 434 243 441Q224 448 201 448Q165 448 137.5 429.5Q110 411 96 367L52 389Q69 437 105.5 465Q142 493 204 493Q281 493 318.5 449Q356 405 356 302V0ZM267 678H304Q304 614 277.5 590Q251 566 203 566Q155 566 128.5 590Q102 614 102 678H139Q139 635 155 618.5Q171 602 202 602Q234 602 250.5 618.5Q267 635 267 678Z" glyph-name="abreve" horiz-adv-x="423" unicode="&#259;" /><glyph d="M47 0ZM334 243Q334 349 300.5 398.5Q267 448 215 448Q156 448 127.5 396Q99 344 99 241Q99 33 214 33Q267 33 300.5 83.5Q334 134 334 243ZM200 -11Q125 -11 86 54Q47 119 47 241Q47 363 88 428Q129 493 206 493Q252 493 286.5 466Q321 439 338 384L342 482H386V0H342L337 103Q320 45 284.5 17Q249 -11 200 -11ZM276 678H313Q313 614 286.5 590Q260 566 212 566Q164 566 137.5 590Q111 614 111 678H148Q148 635 164 618.5Q180 602 211 602Q243 602 259.5 618.5Q276 635 276 678Z" glyph-name="abreve.school" horiz-adv-x="458" /><glyph d="M44 0ZM178 33Q235 33 268.5 82Q302 131 305 219V247H234Q169 247 131.5 215.5Q94 184 94 126Q94 82 116.5 57.5Q139 33 178 33ZM313 0 308 112Q291 52 255 20.5Q219 -11 167 -11Q112 -11 78 24.5Q44 60 44 123Q44 201 94 245Q144 289 228 289H305V302Q305 344 297 372Q289 400 275.5 417Q262 434 243 441Q224 448 201 448Q165 448 137.5 429.5Q110 411 96 367L52 389Q69 437 105.5 465Q142 493 204 493Q281 493 318.5 449Q356 405 356 302V0ZM202 647 142 568H90V570L180 679H226L316 570V568H263Z" glyph-name="acircumflex" horiz-adv-x="423" unicode="&#226;" /><glyph d="M47 0ZM212 647 152 568H100V570L190 679H236L326 570V568H273ZM334 243Q334 349 300.5 398.5Q267 448 215 448Q156 448 127.5 396Q99 344 99 241Q99 33 214 33Q267 33 300.5 83.5Q334 134 334 243ZM200 -11Q125 -11 86 54Q47 119 47 241Q47 363 88 428Q129 493 206 493Q252 493 286.5 466Q321 439 338 384L342 482H386V0H342L337 103Q320 45 284.5 17Q249 -11 200 -11Z" glyph-name="acircumflex.school" horiz-adv-x="458" /><glyph d="M317 674 236 568H193V571L253 679H317Z" glyph-name="acute" horiz-adv-x="452" unicode="&#180;" /><glyph d="M44 0ZM178 33Q235 33 268.5 82Q302 131 305 219V247H234Q169 247 131.5 215.5Q94 184 94 126Q94 82 116.5 57.5Q139 33 178 33ZM313 0 308 112Q291 52 255 20.5Q219 -11 167 -11Q112 -11 78 24.5Q44 60 44 123Q44 201 94 245Q144 289 228 289H305V302Q305 344 297 372Q289 400 275.5 417Q262 434 243 441Q224 448 201 448Q165 448 137.5 429.5Q110 411 96 367L52 389Q69 437 105.5 465Q142 493 204 493Q281 493 318.5 449Q356 405 356 302V0ZM229 622Q229 664 266 664Q304 664 304 622Q304 581 266 581Q229 581 229 622ZM107 622Q107 642 117 653Q127 664 144 664Q182 664 182 622Q182 581 144 581Q127 581 117 591.5Q107 602 107 622Z" glyph-name="adieresis" horiz-adv-x="423" unicode="&#228;" /><glyph d="M47 0ZM234 622Q234 664 271 664Q309 664 309 622Q309 581 271 581Q234 581 234 622ZM112 622Q112 642 122 653Q132 664 149 664Q187 664 187 622Q187 581 149 581Q132 581 122 591.5Q112 602 112 622ZM334 243Q334 349 300.5 398.5Q267 448 215 448Q156 448 127.5 396Q99 344 99 241Q99 33 214 33Q267 33 300.5 83.5Q334 134 334 243ZM200 -11Q125 -11 86 54Q47 119 47 241Q47 363 88 428Q129 493 206 493Q252 493 286.5 466Q321 439 338 384L342 482H386V0H342L337 103Q320 45 284.5 17Q249 -11 200 -11Z" glyph-name="adieresis.school" horiz-adv-x="458" /><glyph d="M473 -11Q415 -11 375.5 23.5Q336 58 322 131Q305 63 266 26Q227 -11 172 -11Q113 -11 78.5 23.5Q44 58 44 122Q44 196 92 237.5Q140 279 225 279H302V296Q302 381 275.5 415Q249 449 198 449Q162 449 136 430Q110 411 96 367L52 389Q69 437 104.5 465Q140 493 200 493Q254 493 286.5 466.5Q319 440 333 378Q369 493 472 493Q512 493 541.5 476.5Q571 460 590 430Q609 400 618 358.5Q627 317 627 266V251Q627 244 626 238H352V227Q354 124 385 78Q416 32 475 32Q557 32 587 135L631 115Q612 60 575 24.5Q538 -11 473 -11ZM178 33Q235 33 268.5 83Q302 133 302 227V238H231Q164 238 129 208Q94 178 94 124Q94 81 116.5 57Q139 33 178 33ZM471 449Q418 449 388.5 408.5Q359 368 354 279H577Q574 449 471 449Z" glyph-name="ae" horiz-adv-x="669" unicode="&#230;" /><glyph d="M44 0ZM178 33Q235 33 268.5 82Q302 131 305 219V247H234Q169 247 131.5 215.5Q94 184 94 126Q94 82 116.5 57.5Q139 33 178 33ZM313 0 308 112Q291 52 255 20.5Q219 -11 167 -11Q112 -11 78 24.5Q44 60 44 123Q44 201 94 245Q144 289 228 289H305V302Q305 344 297 372Q289 400 275.5 417Q262 434 243 441Q224 448 201 448Q165 448 137.5 429.5Q110 411 96 367L52 389Q69 437 105.5 465Q142 493 204 493Q281 493 318.5 449Q356 405 356 302V0ZM186 570 104 676V681H169L229 573V570Z" glyph-name="agrave" horiz-adv-x="423" unicode="&#224;" /><glyph d="M47 0ZM334 243Q334 349 300.5 398.5Q267 448 215 448Q156 448 127.5 396Q99 344 99 241Q99 33 214 33Q267 33 300.5 83.5Q334 134 334 243ZM200 -11Q125 -11 86 54Q47 119 47 241Q47 363 88 428Q129 493 206 493Q252 493 286.5 466Q321 439 338 384L342 482H386V0H342L337 103Q320 45 284.5 17Q249 -11 200 -11ZM197 569 115 675V680H180L240 572V569Z" glyph-name="agrave.school" horiz-adv-x="458" /><glyph d="M44 0ZM178 33Q235 33 268.5 82Q302 131 305 219V247H234Q169 247 131.5 215.5Q94 184 94 126Q94 82 116.5 57.5Q139 33 178 33ZM313 0 308 112Q291 52 255 20.5Q219 -11 167 -11Q112 -11 78 24.5Q44 60 44 123Q44 201 94 245Q144 289 228 289H305V302Q305 344 297 372Q289 400 275.5 417Q262 434 243 441Q224 448 201 448Q165 448 137.5 429.5Q110 411 96 367L52 389Q69 437 105.5 465Q142 493 204 493Q281 493 318.5 449Q356 405 356 302V0ZM294 641V602H111V641Z" glyph-name="amacron" horiz-adv-x="423" unicode="&#257;" /><glyph d="M47 0ZM334 243Q334 349 300.5 398.5Q267 448 215 448Q156 448 127.5 396Q99 344 99 241Q99 33 214 33Q267 33 300.5 83.5Q334 134 334 243ZM200 -11Q125 -11 86 54Q47 119 47 241Q47 363 88 428Q129 493 206 493Q252 493 286.5 466Q321 439 338 384L342 482H386V0H342L337 103Q320 45 284.5 17Q249 -11 200 -11ZM305 641V602H122V641Z" glyph-name="amacron.school" horiz-adv-x="458" /><glyph d="M497 -14Q468 7 439.5 30Q411 53 383 78Q315 -11 208 -11Q171 -11 139 0.5Q107 12 83 35Q59 58 45.5 92Q32 126 32 171Q32 234 59 282Q86 330 142 374Q116 422 102 469Q88 516 88 559Q88 625 121.5 668Q155 711 221 711Q281 711 311 676.5Q341 642 341 584Q341 551 333.5 524Q326 497 309 471.5Q292 446 265 420Q238 394 200 364Q232 310 276.5 255.5Q321 201 374 150Q403 207 419 288.5Q435 370 435 473H482Q481 356 462.5 267.5Q444 179 409 117Q436 93 464.5 70Q493 47 522 26ZM134 559Q134 524 146 484Q158 444 179 402Q236 445 265 485Q294 525 294 579Q294 624 273 646Q252 668 220 668Q178 668 156 639Q134 610 134 559ZM212 32Q294 32 349 109Q294 163 246.5 220Q199 277 164 335Q124 302 102.5 264.5Q81 227 81 175Q81 106 117.5 69Q154 32 212 32Z" glyph-name="ampersand" horiz-adv-x="531" unicode="&amp;" /><glyph d="M390 -180Q360 -204 322 -204Q306 -204 290.5 -199.5Q275 -195 263 -184Q251 -173 244 -154.5Q237 -136 237 -108Q237 -59 260 -27.5Q283 4 312 16L308 112Q291 52 254.5 20.5Q218 -11 167 -11Q112 -11 78 24.5Q44 60 44 123Q44 201 94 245Q144 289 228 289H305V302Q305 344 297 372Q289 400 275.5 417Q262 434 243 441Q224 448 201 448Q165 448 137.5 429.5Q110 411 96 367L52 389Q69 437 105.5 465Q142 493 204 493Q281 493 318.5 449Q356 405 356 302V0H350Q317 -5 295.5 -34Q274 -63 274 -103Q274 -138 290 -151Q306 -164 326 -164Q354 -164 372 -147ZM178 33Q235 33 268.5 82Q302 131 305 219V247H234Q169 247 131.5 215.5Q94 184 94 126Q94 82 116.5 57.5Q139 33 178 33Z" glyph-name="aogonek" horiz-adv-x="424" unicode="&#261;" /><glyph d="M47 0ZM334 243Q334 349 300.5 398.5Q267 448 215 448Q156 448 127.5 396Q99 344 99 241Q99 33 214 33Q267 33 300.5 83.5Q334 134 334 243ZM200 -11Q125 -11 86 54Q47 119 47 241Q47 363 88 428Q129 493 206 493Q252 493 286.5 466Q321 439 338 384L342 482H386V0H342L337 103Q320 45 284.5 17Q249 -11 200 -11ZM356 -204Q339 -204 323.5 -199.5Q308 -195 296 -184Q284 -173 277 -154.5Q270 -136 270 -108Q270 -77 280.5 -52Q291 -27 307 -10Q323 7 342.5 16Q362 25 381 25L383 0Q350 -5 328.5 -34Q307 -63 307 -103Q307 -138 323 -151Q339 -164 359 -164Q386 -164 406 -147L423 -180Q393 -204 356 -204Z" glyph-name="aogonek.school" horiz-adv-x="459" /><glyph d="M255 373Q273 373 296 380Q319 387 337 404V357Q321 343 296.5 335.5Q272 328 252 328Q232 328 216.5 334Q201 340 186 347.5Q171 355 156 361Q141 367 122 367Q103 367 80.5 360.5Q58 354 40 337V384Q56 398 79 405Q102 412 122 412Q143 412 159.5 406Q176 400 191 392.5Q206 385 221.5 379Q237 373 255 373ZM255 245Q273 245 296 251.5Q319 258 337 275V228Q321 214 296.5 207Q272 200 252 200Q232 200 216.5 206Q201 212 186 219.5Q171 227 156 233Q141 239 122 239Q103 239 80.5 232Q58 225 40 208V255Q56 269 79 276Q102 283 122 283Q143 283 159.5 277Q176 271 191 264Q206 257 221.5 251Q237 245 255 245Z" glyph-name="approxequal" horiz-adv-x="376" unicode="&#8776;" /><glyph d="M44 0ZM178 33Q235 33 268.5 82Q302 131 305 219V247H234Q169 247 131.5 215.5Q94 184 94 126Q94 82 116.5 57.5Q139 33 178 33ZM313 0 308 112Q291 52 255 20.5Q219 -11 167 -11Q112 -11 78 24.5Q44 60 44 123Q44 201 94 245Q144 289 228 289H305V302Q305 344 297 372Q289 400 275.5 417Q262 434 243 441Q224 448 201 448Q165 448 137.5 429.5Q110 411 96 367L52 389Q69 437 105.5 465Q142 493 204 493Q281 493 318.5 449Q356 405 356 302V0ZM127 635Q127 674 149 697.5Q171 721 204 721Q236 721 257.5 697.5Q279 674 279 635Q279 597 257.5 573.5Q236 550 203 550Q171 550 149 573.5Q127 597 127 635ZM158 635Q158 610 170.5 594Q183 578 203 578Q223 578 236 594Q249 610 249 635Q249 661 236 676.5Q223 692 204 692Q184 692 171 676.5Q158 661 158 635Z" glyph-name="aring" horiz-adv-x="423" unicode="&#229;" /><glyph d="M47 0ZM334 243Q334 349 300.5 398.5Q267 448 215 448Q156 448 127.5 396Q99 344 99 241Q99 33 214 33Q267 33 300.5 83.5Q334 134 334 243ZM200 -11Q125 -11 86 54Q47 119 47 241Q47 363 88 428Q129 493 206 493Q252 493 286.5 466Q321 439 338 384L342 482H386V0H342L337 103Q320 45 284.5 17Q249 -11 200 -11ZM136 635Q136 674 158 697.5Q180 721 213 721Q245 721 266.5 697.5Q288 674 288 635Q288 597 266.5 573.5Q245 550 212 550Q180 550 158 573.5Q136 597 136 635ZM167 635Q167 610 179.5 594Q192 578 212 578Q232 578 245 594Q258 610 258 635Q258 661 245 676.5Q232 692 213 692Q193 692 180 676.5Q167 661 167 635Z" glyph-name="aring.school" horiz-adv-x="458" /><glyph d="M133 701H182L292 395V394H243L157 645L69 394H22V395Z" glyph-name="asciicircum" horiz-adv-x="313" unicode="^" /><glyph d="M327 406 368 399Q364 334 337.5 307.5Q311 281 276 281Q250 281 229 294Q208 307 188 322Q170 336 153.5 346.5Q137 357 117 357Q98 357 82.5 341Q67 325 63 282L22 289Q27 355 53 381Q79 407 115 407Q141 407 162 394.5Q183 382 203 367Q220 353 237.5 342.5Q255 332 273 332Q292 332 307.5 347.5Q323 363 327 406Z" glyph-name="asciitilde" horiz-adv-x="389" unicode="~" /><glyph d="M81 376 47 400 121 521 20 563 34 604 132 559 128 711H175L171 559L270 604L284 563L183 521L257 400L223 376L151 494Z" glyph-name="asterisk" horiz-adv-x="304" unicode="*" /><glyph d="M314 -96Q253 -96 204 -72.5Q155 -49 121 -5Q87 39 69 101.5Q51 164 51 242Q51 320 69 382.5Q87 445 121 489Q155 533 204 556.5Q253 580 314 580Q374 580 420.5 558.5Q467 537 499 497Q531 457 547.5 400.5Q564 344 564 274Q564 188 534 137.5Q504 87 448 87Q419 87 401 104.5Q383 122 379 160Q366 118 340.5 97.5Q315 77 280 77Q242 77 218 101.5Q194 126 194 169Q194 220 227.5 250Q261 280 320 280H373Q373 311 368 331.5Q363 352 353.5 364.5Q344 377 331 382Q318 387 302 387Q274 387 256.5 373.5Q239 360 228 333L198 351Q209 381 234.5 400Q260 419 304 419Q358 419 383.5 386.5Q409 354 409 284V190Q409 114 456 114Q493 114 514 156Q535 198 535 273Q535 408 475 481Q415 554 314 554Q261 554 218 533Q175 512 144.5 472Q114 432 97 374Q80 316 80 242Q80 167 97.5 109Q115 51 146 11Q177 -29 220 -50Q263 -71 315 -71Q432 -71 494 17L514 1Q446 -96 314 -96ZM287 109Q327 109 349 144Q371 179 373 239V250H324Q279 250 254 229Q229 208 229 171Q229 142 245 125.5Q261 109 287 109Z" glyph-name="at" horiz-adv-x="615" unicode="@" /><glyph d="M51 11ZM314 11Q253 11 204 34.5Q155 58 121 102Q87 146 69 208.5Q51 271 51 349Q51 427 69 489.5Q87 552 121 596Q155 640 204 663.5Q253 687 314 687Q374 687 420.5 665.5Q467 644 499 604Q531 564 547.5 507.5Q564 451 564 381Q564 295 534 244.5Q504 194 448 194Q419 194 401 211.5Q383 229 379 267Q366 225 340.5 204.5Q315 184 280 184Q242 184 218 208.5Q194 233 194 276Q194 327 227.5 357Q261 387 320 387H373Q373 418 368 438.5Q363 459 353.5 471.5Q344 484 331 489Q318 494 302 494Q274 494 256.5 480.5Q239 467 228 440L198 458Q209 488 234.5 507Q260 526 304 526Q358 526 383.5 493.5Q409 461 409 391V297Q409 221 456 221Q493 221 514 263Q535 305 535 380Q535 515 475 588Q415 661 314 661Q261 661 218 640Q175 619 144.5 579Q114 539 97 481Q80 423 80 349Q80 274 97.5 216Q115 158 146 118Q177 78 220 57Q263 36 315 36Q432 36 494 124L514 108Q446 11 314 11ZM287 216Q327 216 349 251Q371 286 373 346V357H324Q279 357 254 336Q229 315 229 278Q229 249 245 232.5Q261 216 287 216Z" glyph-name="at.cap" horiz-adv-x="615" /><glyph d="M44 0ZM178 33Q235 33 268.5 82Q302 131 305 219V247H234Q169 247 131.5 215.5Q94 184 94 126Q94 82 116.5 57.5Q139 33 178 33ZM313 0 308 112Q291 52 255 20.5Q219 -11 167 -11Q112 -11 78 24.5Q44 60 44 123Q44 201 94 245Q144 289 228 289H305V302Q305 344 297 372Q289 400 275.5 417Q262 434 243 441Q224 448 201 448Q165 448 137.5 429.5Q110 411 96 367L52 389Q69 437 105.5 465Q142 493 204 493Q281 493 318.5 449Q356 405 356 302V0ZM274 668H310Q311 642 306 625.5Q301 609 292 599.5Q283 590 272 586Q261 582 251 582Q235 582 223 589.5Q211 597 200 606.5Q189 616 178.5 623.5Q168 631 156 631Q131 631 131 586H94Q94 611 99 627.5Q104 644 112 654Q120 664 130.5 667.5Q141 671 152 671Q168 671 181 663.5Q194 656 205 647.5Q216 639 226.5 631.5Q237 624 249 624Q273 624 274 668Z" glyph-name="atilde" horiz-adv-x="423" unicode="&#227;" /><glyph d="M47 0ZM334 243Q334 349 300.5 398.5Q267 448 215 448Q156 448 127.5 396Q99 344 99 241Q99 33 214 33Q267 33 300.5 83.5Q334 134 334 243ZM200 -11Q125 -11 86 54Q47 119 47 241Q47 363 88 428Q129 493 206 493Q252 493 286.5 466Q321 439 338 384L342 482H386V0H342L337 103Q320 45 284.5 17Q249 -11 200 -11ZM284 668H320Q321 642 316 625.5Q311 609 302 599.5Q293 590 282 586Q271 582 261 582Q245 582 233 589.5Q221 597 210 606.5Q199 616 188.5 623.5Q178 631 166 631Q141 631 141 586H104Q104 611 109 627.5Q114 644 122 654Q130 664 140.5 667.5Q151 671 162 671Q178 671 191 663.5Q204 656 215 647.5Q226 639 236.5 631.5Q247 624 259 624Q283 624 284 668Z" glyph-name="atilde.school" horiz-adv-x="458" /><glyph d="M252 -11Q207 -11 172 14Q137 39 120 93L117 0H73V700H125V384Q142 440 178 466.5Q214 493 262 493Q334 493 373.5 430Q413 367 413 242Q413 120 371.5 54.5Q330 -11 252 -11ZM125 238Q125 131 158.5 82Q192 33 243 33Q361 33 361 241Q361 448 246 448Q193 448 159 397Q125 346 125 238Z" glyph-name="b" horiz-adv-x="460" unicode="b" /><glyph d="M303 0 9 700H63L357 0Z" glyph-name="backslash" horiz-adv-x="373" unicode="\" /><glyph d="M85 -65V766H132V-65Z" glyph-name="bar" horiz-adv-x="218" unicode="|" /><glyph d="M208 -76Q163 -71 139 -41.5Q115 -12 115 48Q115 82 119 114Q123 146 123 175Q123 241 103.5 270.5Q84 300 37 300H18V342H37Q84 342 103.5 371.5Q123 401 123 466Q123 498 119 529Q115 560 115 595Q115 654 139 683Q163 712 208 719L224 677Q194 672 177.5 652.5Q161 633 161 591Q161 562 165 529Q169 496 169 462Q169 403 153 369Q137 335 100 321Q137 307 153 273.5Q169 240 169 181Q169 147 165 114Q161 81 161 52Q161 10 177.5 -9.5Q194 -29 224 -34Z" glyph-name="braceleft" horiz-adv-x="268" unicode="{" /><glyph d="M41 -34Q71 -29 87.5 -9.5Q104 10 104 52Q104 81 100 114Q96 147 96 181Q96 240 112 273.5Q128 307 165 321Q128 335 112 369Q96 403 96 462Q96 496 100 529Q104 562 104 591Q104 633 87.5 652.5Q71 672 41 677L57 719Q102 712 126 683Q150 654 150 595Q150 560 146 529Q142 498 142 466Q142 401 161.5 371.5Q181 342 228 342H247V300H228Q181 300 161.5 270.5Q142 241 142 175Q142 146 146 114Q150 82 150 48Q150 -12 126 -41.5Q102 -71 57 -76Z" glyph-name="braceright" horiz-adv-x="268" unicode="}" /><glyph d="M70 -69V707H215V665H117V-27H220V-69Z" glyph-name="bracketleft" horiz-adv-x="260" unicode="[" /><glyph d="M36 -69V-27H139V665H41V707H186V-69Z" glyph-name="bracketright" horiz-adv-x="261" unicode="]" /><glyph d="M290 678H327Q327 614 300.5 590Q274 566 226 566Q178 566 151.5 590Q125 614 125 678H162Q162 635 178 618.5Q194 602 225 602Q257 602 273.5 618.5Q290 635 290 678Z" glyph-name="breve" horiz-adv-x="452" unicode="&#728;" /><glyph d="M85 382V766H132V382ZM85 -65V320H132V-65Z" glyph-name="brokenbar" horiz-adv-x="218" unicode="&#166;" /><glyph d="M50 327Q50 381 80 414.5Q110 448 163 448Q216 448 246 414.5Q276 381 276 327Q276 273 246 239.5Q216 206 163 206Q110 206 80 239.5Q50 273 50 327Z" glyph-name="bullet" horiz-adv-x="326" unicode="&#8226;" /><glyph d="M219 -11Q136 -11 91.5 49.5Q47 110 47 240Q47 371 92 432Q137 493 223 493Q281 493 316 463.5Q351 434 371 373L326 351Q310 402 285 425Q260 448 222 448Q160 448 129.5 400Q99 352 99 240Q99 129 128.5 81Q158 33 220 33Q263 33 290 58Q317 83 333 136L377 117Q359 60 322 24.5Q285 -11 219 -11Z" glyph-name="c" horiz-adv-x="403" unicode="c" /><glyph d="M47 0ZM219 -11Q136 -11 91.5 49.5Q47 110 47 240Q47 371 92 432Q137 493 223 493Q281 493 316 463.5Q351 434 371 373L326 351Q310 402 285 425Q260 448 222 448Q160 448 129.5 400Q99 352 99 240Q99 129 128.5 81Q158 33 220 33Q263 33 290 58Q317 83 333 136L377 117Q359 60 322 24.5Q285 -11 219 -11ZM318 674 237 568H194V571L254 679H318Z" glyph-name="cacute" horiz-adv-x="403" unicode="&#263;" /><glyph d="M224 602 286 679H337V677L246 568H201L111 677V679H165Z" glyph-name="caron" horiz-adv-x="452" unicode="&#711;" /><glyph d="M232 501H195L200 700H250Z" glyph-name="caronSlovak" horiz-adv-x="452" /><glyph d="M47 0ZM219 -11Q136 -11 91.5 49.5Q47 110 47 240Q47 371 92 432Q137 493 223 493Q281 493 316 463.5Q351 434 371 373L326 351Q310 402 285 425Q260 448 222 448Q160 448 129.5 400Q99 352 99 240Q99 129 128.5 81Q158 33 220 33Q263 33 290 58Q317 83 333 136L377 117Q359 60 322 24.5Q285 -11 219 -11ZM220 602 282 679H333V677L242 568H197L107 677V679H161Z" glyph-name="ccaron" horiz-adv-x="403" unicode="&#269;" /><glyph d="M211 -228Q184 -228 161.5 -215Q139 -202 123 -172L154 -152Q174 -193 211 -193Q261 -193 261 -146Q261 -123 248.5 -112Q236 -101 219 -101Q214 -101 209.5 -101.5Q205 -102 200 -103L189 -92L203 -10Q126 -5 86.5 55.5Q47 116 47 240Q47 371 92 432Q137 493 223 493Q281 493 316 463.5Q351 434 371 373L326 351Q310 402 285 425Q260 448 222 448Q160 448 129.5 400Q99 352 99 240Q99 129 128.5 81Q158 33 220 33Q263 33 290 58Q317 83 333 136L377 117Q360 64 327 29.5Q294 -5 237 -10L226 -73Q228 -72 235 -72Q260 -72 280 -89.5Q300 -107 300 -145Q300 -187 275 -207.5Q250 -228 211 -228Z" glyph-name="ccedilla" horiz-adv-x="403" unicode="&#231;" /><glyph d="M47 0ZM219 -11Q136 -11 91.5 49.5Q47 110 47 240Q47 371 92 432Q137 493 223 493Q281 493 316 463.5Q351 434 371 373L326 351Q310 402 285 425Q260 448 222 448Q160 448 129.5 400Q99 352 99 240Q99 129 128.5 81Q158 33 220 33Q263 33 290 58Q317 83 333 136L377 117Q359 60 322 24.5Q285 -11 219 -11ZM219 647 159 568H107V570L197 679H243L333 570V568H280Z" glyph-name="ccircumflex" horiz-adv-x="403" unicode="&#265;" /><glyph d="M47 0ZM219 -11Q136 -11 91.5 49.5Q47 110 47 240Q47 371 92 432Q137 493 223 493Q281 493 316 463.5Q351 434 371 373L326 351Q310 402 285 425Q260 448 222 448Q160 448 129.5 400Q99 352 99 240Q99 129 128.5 81Q158 33 220 33Q263 33 290 58Q317 83 333 136L377 117Q359 60 322 24.5Q285 -11 219 -11ZM181 622Q181 642 191.5 652.5Q202 663 219 663Q257 663 257 622Q257 602 247 591Q237 580 219 580Q202 580 191.5 591Q181 602 181 622Z" glyph-name="cdotaccent" horiz-adv-x="403" unicode="&#267;" /><glyph d="M238 -228Q210 -228 187.5 -215Q165 -202 149 -172L180 -152Q200 -193 237 -193Q287 -193 287 -146Q287 -123 274.5 -112Q262 -101 245 -101Q240 -101 235.5 -101.5Q231 -102 226 -103L215 -92L230 0H265L252 -73Q254 -72 261 -72Q286 -72 306 -89.5Q326 -107 326 -145Q326 -187 301 -207.5Q276 -228 238 -228Z" glyph-name="cedilla" horiz-adv-x="452" unicode="&#184;" /><glyph d="M366 138Q349 86 316.5 53Q284 20 227 16V-62H189V16Q117 22 78.5 79.5Q40 137 40 254Q40 369 78.5 427.5Q117 486 189 493V574H227V494Q278 492 310.5 463.5Q343 435 361 379L319 358Q304 403 281.5 424.5Q259 446 227 450V58Q298 65 325 157ZM89 254Q89 158 113.5 112Q138 66 189 59V449Q138 442 113.5 396.5Q89 351 89 254Z" glyph-name="cent" horiz-adv-x="402" unicode="&#162;" /><glyph d="M223 647 163 568H111V570L201 679H247L337 570V568H284Z" glyph-name="circumflex" horiz-adv-x="452" unicode="&#710;" /><glyph d="M46 0ZM84 -6Q66 -6 56 5Q46 16 46 36Q46 78 84 78Q121 78 121 36Q121 16 111.5 5Q102 -6 84 -6ZM84 382Q66 382 56 393Q46 404 46 424Q46 466 84 466Q121 466 121 424Q121 404 111.5 393Q102 382 84 382Z" glyph-name="colon" horiz-adv-x="167" unicode=":" /><glyph d="M56 -114 39 -90Q63 -76 76 -52Q89 -28 90 -2Q73 -7 59.5 3Q46 13 46 36Q46 56 56.5 67Q67 78 84 78Q104 78 114 65Q124 52 124 21Q124 -24 107 -60.5Q90 -97 56 -114Z" glyph-name="comma" horiz-adv-x="168" unicode="," /><glyph d="M261 -122Q261 -167 244 -201.5Q227 -236 196 -252L179 -230Q200 -217 214 -194Q228 -171 229 -143Q212 -148 199 -138Q186 -128 186 -107Q186 -88 196 -78.5Q206 -69 223 -69Q261 -69 261 -122Z" glyph-name="commaaccent" horiz-adv-x="452" unicode="&#63171;" /><glyph d="M52 349Q52 428 70 491Q88 554 122 597.5Q156 641 204 664.5Q252 688 311 688Q370 688 418 664.5Q466 641 499.5 597.5Q533 554 551 491Q569 428 569 349Q569 270 551 207Q533 144 499.5 100.5Q466 57 418 33.5Q370 10 311 10Q252 10 204 33.5Q156 57 122 100.5Q88 144 70 207Q52 270 52 349ZM81 349Q81 274 97.5 216Q114 158 144.5 118Q175 78 217.5 57Q260 36 311 36Q363 36 405 57Q447 78 477 118Q507 158 523.5 216Q540 274 540 349Q540 424 523.5 482Q507 540 477 580Q447 620 405 641Q363 662 311 662Q260 662 217.5 641Q175 620 144.5 580Q114 540 97.5 482Q81 424 81 349ZM432 272Q400 175 314 175Q253 175 218.5 216Q184 257 184 352Q184 446 218.5 488Q253 530 316 530Q399 530 428 444L393 426Q371 497 315 497Q270 497 247 464Q224 431 224 351Q224 274 247.5 242Q271 210 315 210Q347 210 366 228Q385 246 397 285Z" glyph-name="copyright" horiz-adv-x="621" unicode="&#169;" /><glyph d="M156 355Q98 355 66.5 397Q35 439 35 533Q35 625 67 668Q99 711 159 711Q238 711 265 637L233 617Q211 676 159 676Q116 676 95.5 643Q75 610 75 532Q75 456 95.5 423Q116 390 158 390Q187 390 205.5 404.5Q224 419 235 454L267 438Q239 355 156 355Z" glyph-name="cordinal" horiz-adv-x="297" /><glyph d="M334 243Q334 349 301 398.5Q268 448 216 448Q156 448 127.5 396Q99 344 99 241Q99 33 215 33Q268 33 301 83.5Q334 134 334 243ZM342 0 338 103Q321 46 285.5 17.5Q250 -11 201 -11Q126 -11 86.5 54Q47 119 47 241Q47 363 88 428Q129 493 207 493Q252 493 284.5 467Q317 441 334 390V700H386V0Z" glyph-name="d" horiz-adv-x="459" unicode="d" /><glyph d="M191 553H139L137 318H94V553H41V591H93V709H141L139 591H191Z" glyph-name="dagger" horiz-adv-x="233" unicode="&#8224;" /><glyph d="M41 470H94V557H41V596H94L93 709H141L138 596H191V557H138V470H191V430H138L141 314H93V430H41Z" glyph-name="daggerdbl" horiz-adv-x="233" unicode="&#8225;" /><glyph d="M47 0ZM494 501H457L462 700H512ZM334 243Q334 349 301 398.5Q268 448 216 448Q156 448 127.5 396Q99 344 99 241Q99 33 215 33Q268 33 301 83.5Q334 134 334 243ZM342 0 338 103Q321 46 285.5 17.5Q250 -11 201 -11Q126 -11 86.5 54Q47 119 47 241Q47 363 88 428Q129 493 207 493Q252 493 284.5 467Q317 441 334 390V700H386V0Z" glyph-name="dcaron" horiz-adv-x="501" unicode="&#271;" /><glyph d="M334 243Q334 349 301.5 398.5Q269 448 216 448Q156 448 127.5 396Q99 344 99 241Q99 33 215 33Q268 33 301 83.5Q334 134 334 243ZM338 104Q321 45 285.5 17Q250 -11 201 -11Q126 -11 86.5 54Q47 119 47 241Q47 362 88 427.5Q129 493 207 493Q252 493 284.5 467Q317 441 334 388V564H213V601H334V700H386V601H446V564H386V0H342Z" glyph-name="dcroat" horiz-adv-x="469" unicode="&#273;" /><glyph d="M175 358Q109 358 73.5 406Q38 454 38 533Q38 613 73.5 661Q109 709 175 709Q239 709 275 661Q311 613 311 533Q311 454 275 406Q239 358 175 358ZM175 672Q129 672 103 635.5Q77 599 77 533Q77 467 103 431Q129 395 175 395Q220 395 246 431Q272 467 272 533Q272 599 246 635.5Q220 672 175 672Z" glyph-name="degree" horiz-adv-x="348" unicode="&#176;" /><glyph d="M252 622Q252 664 289 664Q327 664 327 622Q327 581 289 581Q252 581 252 622ZM130 622Q130 642 140 653Q150 664 167 664Q205 664 205 622Q205 581 167 581Q150 581 140 591.5Q130 602 130 622Z" glyph-name="dieresis" horiz-adv-x="452" unicode="&#168;" /><glyph d="M152 460Q152 480 161.5 491Q171 502 188 502Q205 502 214.5 491Q224 480 224 460Q224 440 214.5 429Q205 418 188 418Q171 418 161.5 429Q152 440 152 460ZM336 330V284H40V330ZM152 159Q152 179 161.5 190Q171 201 188 201Q205 201 214.5 190Q224 179 224 159Q224 139 214.5 128Q205 117 188 117Q171 117 161.5 128Q152 139 152 159Z" glyph-name="divide" horiz-adv-x="375" unicode="&#247;" /><glyph d="M97 520Q97 471 121.5 439.5Q146 408 191 391L200 388V636Q146 633 121.5 601.5Q97 570 97 520ZM344 182Q344 233 321.5 263.5Q299 294 242 316L237 318V57Q292 61 318 94Q344 127 344 182ZM200 -62V13Q140 17 94 50Q48 83 23 163L66 183Q85 119 119.5 90.5Q154 62 200 57V331L191 335Q121 361 85 405Q49 449 49 516Q49 586 87 630.5Q125 675 200 679V766H237V679Q294 675 333 642.5Q372 610 390 540L347 522Q331 579 302 604Q273 629 237 634V375L242 373Q320 345 356.5 301.5Q393 258 393 185Q393 105 352.5 62.5Q312 20 237 15V-62Z" glyph-name="dollar" horiz-adv-x="433" unicode="$" /><glyph d="M189 622Q189 642 199.5 652.5Q210 663 227 663Q265 663 265 622Q265 602 255 591Q245 580 227 580Q210 580 199.5 591Q189 602 189 622Z" glyph-name="dotaccent" horiz-adv-x="452" unicode="&#729;" /><glyph d="M73 482H125V0H73Z" glyph-name="dotlessi" horiz-adv-x="198" unicode="&#305;" /><glyph d="M73 -51V482H125V-62Q125 -140 97 -174.5Q69 -209 20 -209Q3 -209 -12 -206.5Q-27 -204 -43 -196L-27 -149Q-16 -154 -7 -157.5Q2 -161 16 -161Q44 -161 58.5 -137Q73 -113 73 -51Z" glyph-name="dotlessj" horiz-adv-x="198" unicode="&#567;" /><glyph d="M187 -65V766H234V-65ZM85 -65V766H132V-65Z" glyph-name="doublebar" horiz-adv-x="319" /><glyph d="M218 -11Q137 -11 92 50Q47 111 47 241Q47 366 90 429.5Q133 493 216 493Q295 493 334 429.5Q373 366 373 258Q373 250 372.5 241.5Q372 233 372 226H97Q100 123 131 77.5Q162 32 220 32Q303 32 333 135L376 115Q357 60 320.5 24.5Q284 -11 218 -11ZM215 449Q161 449 131.5 405Q102 361 98 268H322Q320 361 293.5 405Q267 449 215 449Z" glyph-name="e" horiz-adv-x="413" unicode="e" /><glyph d="M47 0ZM218 -11Q137 -11 92 50Q47 111 47 241Q47 366 90 429.5Q133 493 216 493Q295 493 334 429.5Q373 366 373 258Q373 250 372.5 241.5Q372 233 372 226H97Q100 123 131 77.5Q162 32 220 32Q303 32 333 135L376 115Q357 60 320.5 24.5Q284 -11 218 -11ZM215 449Q161 449 131.5 405Q102 361 98 268H322Q320 361 293.5 405Q267 449 215 449ZM314 674 233 568H190V571L250 679H314Z" glyph-name="eacute" horiz-adv-x="413" unicode="&#233;" /><glyph d="M47 0ZM218 -11Q137 -11 92 50Q47 111 47 241Q47 366 90 429.5Q133 493 216 493Q295 493 334 429.5Q373 366 373 258Q373 250 372.5 241.5Q372 233 372 226H97Q100 123 131 77.5Q162 32 220 32Q303 32 333 135L376 115Q357 60 320.5 24.5Q284 -11 218 -11ZM215 449Q161 449 131.5 405Q102 361 98 268H322Q320 361 293.5 405Q267 449 215 449ZM278 678H315Q315 614 288.5 590Q262 566 214 566Q166 566 139.5 590Q113 614 113 678H150Q150 635 166 618.5Q182 602 213 602Q245 602 261.5 618.5Q278 635 278 678Z" glyph-name="ebreve" horiz-adv-x="413" unicode="&#277;" /><glyph d="M47 0ZM218 -11Q137 -11 92 50Q47 111 47 241Q47 366 90 429.5Q133 493 216 493Q295 493 334 429.5Q373 366 373 258Q373 250 372.5 241.5Q372 233 372 226H97Q100 123 131 77.5Q162 32 220 32Q303 32 333 135L376 115Q357 60 320.5 24.5Q284 -11 218 -11ZM215 449Q161 449 131.5 405Q102 361 98 268H322Q320 361 293.5 405Q267 449 215 449ZM214 602 276 679H327V677L236 568H191L101 677V679H155Z" glyph-name="ecaron" horiz-adv-x="413" unicode="&#283;" /><glyph d="M47 0ZM218 -11Q137 -11 92 50Q47 111 47 241Q47 366 90 429.5Q133 493 216 493Q295 493 334 429.5Q373 366 373 258Q373 250 372.5 241.5Q372 233 372 226H97Q100 123 131 77.5Q162 32 220 32Q303 32 333 135L376 115Q357 60 320.5 24.5Q284 -11 218 -11ZM215 449Q161 449 131.5 405Q102 361 98 268H322Q320 361 293.5 405Q267 449 215 449ZM214 647 154 568H102V570L192 679H238L328 570V568H275Z" glyph-name="ecircumflex" horiz-adv-x="413" unicode="&#234;" /><glyph d="M47 0ZM218 -11Q137 -11 92 50Q47 111 47 241Q47 366 90 429.5Q133 493 216 493Q295 493 334 429.5Q373 366 373 258Q373 250 372.5 241.5Q372 233 372 226H97Q100 123 131 77.5Q162 32 220 32Q303 32 333 135L376 115Q357 60 320.5 24.5Q284 -11 218 -11ZM215 449Q161 449 131.5 405Q102 361 98 268H322Q320 361 293.5 405Q267 449 215 449ZM240 622Q240 664 277 664Q315 664 315 622Q315 581 277 581Q240 581 240 622ZM118 622Q118 642 128 653Q138 664 155 664Q193 664 193 622Q193 581 155 581Q138 581 128 591.5Q118 602 118 622Z" glyph-name="edieresis" horiz-adv-x="413" unicode="&#235;" /><glyph d="M47 0ZM218 -11Q137 -11 92 50Q47 111 47 241Q47 366 90 429.5Q133 493 216 493Q295 493 334 429.5Q373 366 373 258Q373 250 372.5 241.5Q372 233 372 226H97Q100 123 131 77.5Q162 32 220 32Q303 32 333 135L376 115Q357 60 320.5 24.5Q284 -11 218 -11ZM215 449Q161 449 131.5 405Q102 361 98 268H322Q320 361 293.5 405Q267 449 215 449ZM176 622Q176 642 186.5 652.5Q197 663 214 663Q252 663 252 622Q252 602 242 591Q232 580 214 580Q197 580 186.5 591Q176 602 176 622Z" glyph-name="edotaccent" horiz-adv-x="413" unicode="&#279;" /><glyph d="M47 0ZM218 -11Q137 -11 92 50Q47 111 47 241Q47 366 90 429.5Q133 493 216 493Q295 493 334 429.5Q373 366 373 258Q373 250 372.5 241.5Q372 233 372 226H97Q100 123 131 77.5Q162 32 220 32Q303 32 333 135L376 115Q357 60 320.5 24.5Q284 -11 218 -11ZM215 449Q161 449 131.5 405Q102 361 98 268H322Q320 361 293.5 405Q267 449 215 449ZM197 569 115 675V680H180L240 572V569Z" glyph-name="egrave" horiz-adv-x="413" unicode="&#232;" /><glyph d="M80 0ZM267 -11Q179 -11 129.5 43.5Q80 98 80 190Q80 262 112 309.5Q144 357 192 373Q150 391 124.5 432Q99 473 99 533Q99 617 144 664Q189 711 267 711Q345 711 390.5 664Q436 617 436 533Q436 473 409.5 432.5Q383 392 341 373Q390 357 422.5 309.5Q455 262 455 190Q455 98 405 43.5Q355 -11 267 -11ZM385 531Q385 590 355 627.5Q325 665 268 665Q211 665 180.5 627.5Q150 590 150 531Q150 471 180.5 433Q211 395 267 395Q323 395 354 433Q385 471 385 531ZM267 34Q333 34 367.5 77.5Q402 121 402 193Q402 261 366.5 304.5Q331 348 267 348Q235 348 210 336.5Q185 325 168 304Q151 283 141.5 254.5Q132 226 132 193Q132 121 167 77.5Q202 34 267 34Z" glyph-name="eight" horiz-adv-x="535" unicode="8" /><glyph d="M244 -11Q156 -11 106.5 43.5Q57 98 57 190Q57 262 89 309.5Q121 357 169 373Q127 391 101.5 432Q76 473 76 533Q76 617 121 664Q166 711 244 711Q322 711 367.5 664Q413 617 413 533Q413 473 386.5 432.5Q360 392 318 373Q367 357 399.5 309.5Q432 262 432 190Q432 98 382 43.5Q332 -11 244 -11ZM362 531Q362 590 332 627.5Q302 665 245 665Q188 665 157.5 627.5Q127 590 127 531Q127 471 157.5 433Q188 395 244 395Q300 395 331 433Q362 471 362 531ZM244 34Q310 34 344.5 77.5Q379 121 379 193Q379 261 343.5 304.5Q308 348 244 348Q212 348 187 336.5Q162 325 145 304Q128 283 118.5 254.5Q109 226 109 193Q109 121 144 77.5Q179 34 244 34Z" glyph-name="eight.LP" horiz-adv-x="488" /><glyph d="M225 -11Q183 -11 149.5 3.5Q116 18 93 44Q70 70 57.5 107.5Q45 145 45 190Q45 262 76 309.5Q107 357 154 373Q115 392 90 433Q65 474 65 534Q65 616 107.5 663.5Q150 711 225 711Q300 711 343 663.5Q386 616 386 534Q386 474 360 433Q334 392 296 373Q344 357 374.5 309.5Q405 262 405 190Q405 99 357.5 44Q310 -11 225 -11ZM336 532Q336 593 307.5 629.5Q279 666 225 666Q171 666 143 629.5Q115 593 115 532Q115 471 143.5 433Q172 395 225 395Q278 395 307 433Q336 471 336 532ZM225 34Q287 34 320 77.5Q353 121 353 192Q353 226 344 254.5Q335 283 318.5 304Q302 325 278.5 336.5Q255 348 225 348Q195 348 171 336.5Q147 325 130.5 304Q114 283 105.5 254.5Q97 226 97 192Q97 121 130 77.5Q163 34 225 34Z" glyph-name="eight.OP" horiz-adv-x="450" /><glyph d="M267 -11Q179 -11 129.5 43.5Q80 98 80 190Q80 262 112 309.5Q144 357 192 373Q150 391 124.5 432Q99 473 99 533Q99 617 144 664Q189 711 267 711Q345 711 390.5 664Q436 617 436 533Q436 473 409.5 432.5Q383 392 341 373Q390 357 422.5 309.5Q455 262 455 190Q455 98 405 43.5Q355 -11 267 -11ZM385 531Q385 590 355 627.5Q325 665 268 665Q211 665 180.5 627.5Q150 590 150 531Q150 471 180.5 433Q211 395 267 395Q323 395 354 433Q385 471 385 531ZM267 34Q333 34 367.5 77.5Q402 121 402 193Q402 261 366.5 304.5Q331 348 267 348Q235 348 210 336.5Q185 325 168 304Q151 283 141.5 254.5Q132 226 132 193Q132 121 167 77.5Q202 34 267 34Z" glyph-name="eight.OT" horiz-adv-x="535" /><glyph d="M34 0ZM148 -207Q93 -207 63.5 -175.5Q34 -144 34 -89Q34 -47 51.5 -20Q69 7 98 17Q75 28 60.5 52Q46 76 46 110Q46 161 72.5 188.5Q99 216 148 216Q197 216 223.5 188.5Q250 161 250 110Q250 76 235.5 52Q221 28 197 17Q226 7 243.5 -20Q261 -47 261 -89Q261 -144 232 -175.5Q203 -207 148 -207ZM211 108Q211 140 195 160Q179 180 148 180Q116 180 100.5 160Q85 140 85 108Q85 76 100.5 55Q116 34 148 34Q179 34 195 55Q211 76 211 108ZM220 -87Q220 -50 201.5 -26.5Q183 -3 148 -3Q113 -3 94 -26.5Q75 -50 75 -87Q75 -125 93.5 -149Q112 -173 148 -173Q184 -173 202 -149Q220 -125 220 -87Z" glyph-name="eight.inf" horiz-adv-x="296" /><glyph d="M410 -6Q392 -6 382 5Q372 16 372 36Q372 78 410 78Q448 78 448 36Q448 16 438 5Q428 -6 410 -6ZM247 -6Q230 -6 219.5 5Q209 16 209 36Q209 56 219.5 67Q230 78 247 78Q285 78 285 36Q285 16 275 5Q265 -6 247 -6ZM84 -6Q66 -6 56 5Q46 16 46 36Q46 78 84 78Q121 78 121 36Q121 16 111.5 5Q102 -6 84 -6Z" glyph-name="ellipsis" horiz-adv-x="493" unicode="&#8230;" /><glyph d="M47 0ZM218 -11Q137 -11 92 50Q47 111 47 241Q47 366 90 429.5Q133 493 216 493Q295 493 334 429.5Q373 366 373 258Q373 250 372.5 241.5Q372 233 372 226H97Q100 123 131 77.5Q162 32 220 32Q303 32 333 135L376 115Q357 60 320.5 24.5Q284 -11 218 -11ZM215 449Q161 449 131.5 405Q102 361 98 268H322Q320 361 293.5 405Q267 449 215 449ZM306 641V602H123V641Z" glyph-name="emacron" horiz-adv-x="413" unicode="&#275;" /><glyph d="M553 273V227H39V273Z" glyph-name="emdash" horiz-adv-x="592" unicode="&#8212;" /><glyph d="M39 332ZM553 378V332H39V378Z" glyph-name="emdash.cap" horiz-adv-x="592" /><glyph glyph-name="emspace" horiz-adv-x="746" unicode="&#8195;" /><glyph d="M404 273V227H39V273Z" glyph-name="endash" horiz-adv-x="443" unicode="&#8211;" /><glyph d="M39 332ZM404 378V332H39V378Z" glyph-name="endash.cap" horiz-adv-x="443" /><glyph d="M347 -52V301Q347 381 321.5 414Q296 447 250 447Q193 447 160.5 393.5Q128 340 125 250V0H73V482H118L123 371Q140 434 177.5 463.5Q215 493 266 493Q400 493 400 313V-63Q400 -140 372.5 -174.5Q345 -209 297 -209Q280 -209 264.5 -207Q249 -205 232 -197L247 -149Q258 -154 267.5 -157Q277 -160 291 -160Q320 -160 333.5 -137Q347 -114 347 -52Z" glyph-name="eng" horiz-adv-x="467" unicode="&#331;" /><glyph glyph-name="enspace" horiz-adv-x="373" unicode="&#8194;" /><glyph d="M256 -204Q240 -204 224.5 -199.5Q209 -195 197 -184Q185 -173 178 -154.5Q171 -136 171 -108Q171 -76 182 -51.5Q193 -27 209 -10Q132 -8 89.5 53Q47 114 47 241Q47 366 90 429.5Q133 493 216 493Q295 493 334 429.5Q373 366 373 258Q373 250 372.5 241.5Q372 233 372 226H97Q100 123 131 77.5Q162 32 220 32Q303 32 333 135L376 115Q361 70 335 38.5Q309 7 266 -5Q240 -16 224 -42.5Q208 -69 208 -103Q208 -138 223.5 -151Q239 -164 260 -164Q288 -164 306 -147L324 -180Q294 -204 256 -204ZM215 449Q161 449 131.5 405Q102 361 98 268H322Q320 361 293.5 405Q267 449 215 449Z" glyph-name="eogonek" horiz-adv-x="414" unicode="&#281;" /><glyph d="M336 394V349H40V394ZM336 270V225H40V270Z" glyph-name="equal" horiz-adv-x="375" unicode="=" /><glyph d="M30 0ZM207 36V0H30V36ZM207 -40V-76H30V-40Z" glyph-name="equal.inf" horiz-adv-x="236" /><glyph d="M221 -11Q135 -11 91 49Q47 109 47 239Q47 369 91.5 430Q136 491 219 491Q302 491 335 414Q320 522 277 590L213 539L196 570L256 618Q212 670 147 697L167 735Q240 709 291 647L361 705L379 674L312 620Q394 492 394 248V239Q394 111 350 50Q306 -11 221 -11ZM342 239Q342 348 313 397.5Q284 447 221 447Q158 447 128 397.5Q98 348 98 239Q98 131 128.5 82.5Q159 34 221 34Q282 34 312 82.5Q342 131 342 239Z" glyph-name="eth" horiz-adv-x="440" unicode="&#240;" /><glyph d="M112 700 103 180H63L55 700ZM83 -6Q66 -6 55.5 5Q45 16 45 36Q45 56 55.5 67Q66 78 83 78Q121 78 121 36Q121 16 111 5Q101 -6 83 -6Z" glyph-name="exclam" horiz-adv-x="166" unicode="!" /><glyph d="M54 -198 63 322H103L111 -198ZM83 508Q100 508 110.5 497Q121 486 121 466Q121 446 110.5 435Q100 424 83 424Q45 424 45 466Q45 486 55 497Q65 508 83 508Z" glyph-name="exclamdown" horiz-adv-x="171" unicode="&#161;" /><glyph d="M54 0 63 520H103L111 0ZM83 706Q100 706 110.5 695Q121 684 121 664Q121 644 110.5 633Q100 622 83 622Q45 622 45 664Q45 684 55 695Q65 706 83 706Z" glyph-name="exclamdown.cap" horiz-adv-x="171" /><glyph d="M259 439H146V0H93V439H25V482H93V567Q93 606 102 634Q111 662 127 679.5Q143 697 163.5 705Q184 713 208 713Q225 713 241.5 708.5Q258 704 273 694L257 650Q232 664 209 664Q180 664 163 642Q146 620 146 564V482H259Z" glyph-name="f" horiz-adv-x="270" unicode="f" /><glyph d="M259 439H146V0H93V439H25V482H93V567Q93 606 102 634Q111 662 127 679.5Q143 697 163.5 705Q184 713 208 713Q225 713 241.5 708.5Q258 704 273 694L257 650Q235 664 209 664Q180 664 163 642Q146 620 146 564V482H259ZM365 580Q348 580 337.5 591Q327 602 327 622Q327 642 337.5 653Q348 664 365 664Q383 664 393.5 653Q404 642 404 622Q404 602 393.5 591Q383 580 365 580ZM340 482H392V0H340Z" glyph-name="fi" horiz-adv-x="464" unicode="&#64257;" /><glyph d="M404 273V227H39V273Z" glyph-name="figuredash" horiz-adv-x="443" unicode="&#8210;" /><glyph d="M39 332ZM404 378V332H39V378Z" glyph-name="figuredash.cap" horiz-adv-x="443" /><glyph glyph-name="figurespace" horiz-adv-x="467" unicode="&#8199;" /><glyph d="M76 0ZM265 -11Q198 -11 148.5 20.5Q99 52 76 127L121 147Q138 85 175.5 59Q213 33 264 33Q301 33 328 47.5Q355 62 372.5 87Q390 112 398.5 146.5Q407 181 407 222Q407 392 268 392Q227 392 195 374.5Q163 357 135 325L100 340L126 700H429V653H171L153 386Q179 414 213 426Q247 438 282 438Q321 438 353.5 426Q386 414 409.5 388Q433 362 446 321.5Q459 281 459 224Q459 173 447 129.5Q435 86 411 55Q387 24 350.5 6.5Q314 -11 265 -11Z" glyph-name="five" horiz-adv-x="535" unicode="5" /><glyph d="M213 -11Q146 -11 96.5 20.5Q47 52 24 127L69 147Q86 85 123.5 59Q161 33 212 33Q249 33 276 47.5Q303 62 320.5 87Q338 112 346.5 146.5Q355 181 355 222Q355 392 216 392Q175 392 143 374.5Q111 357 83 325L48 340L74 700H377V653H119L101 386Q127 414 161 426Q195 438 230 438Q269 438 301.5 426Q334 414 357.5 388Q381 362 394 321.5Q407 281 407 224Q407 173 395 129.5Q383 86 359 55Q335 24 298.5 6.5Q262 -11 213 -11Z" glyph-name="five.LP" horiz-adv-x="454" /><glyph d="M205 -111Q137 -111 90 -78.5Q43 -46 21 26L66 47Q83 -15 119.5 -41.5Q156 -68 205 -68Q240 -68 266 -53.5Q292 -39 309 -13.5Q326 12 334 46.5Q342 81 342 122Q342 208 309 250Q276 292 213 292Q170 292 140 273.5Q110 255 86 225L50 240L76 600H368V553H121L102 287Q125 312 156 325Q187 338 229 338Q264 338 294 326Q324 314 346.5 288Q369 262 381.5 221.5Q394 181 394 124Q394 73 382 29.5Q370 -14 346.5 -45Q323 -76 287.5 -93.5Q252 -111 205 -111Z" glyph-name="five.OP" horiz-adv-x="435" /><glyph d="M265 -111Q198 -111 148.5 -79.5Q99 -48 76 27L121 47Q138 -15 175.5 -41Q213 -67 264 -67Q301 -67 328 -52.5Q355 -38 372.5 -13Q390 12 398.5 46.5Q407 81 407 122Q407 292 268 292Q227 292 195 274.5Q163 257 135 225L100 240L126 600H429V553H171L153 286Q179 314 213 326Q247 338 282 338Q321 338 353.5 326Q386 314 409.5 288Q433 262 446 221.5Q459 181 459 124Q459 73 447 29.5Q435 -14 411 -45Q387 -76 350.5 -93.5Q314 -111 265 -111Z" glyph-name="five.OT" horiz-adv-x="535" /><glyph d="M19 0ZM84 172 73 29Q89 44 108 50.5Q127 57 147 57Q192 57 221.5 27.5Q251 -2 251 -69Q251 -130 221.5 -168.5Q192 -207 133 -207Q95 -207 64.5 -189Q34 -171 19 -129L53 -112Q75 -171 132 -171Q172 -171 190.5 -142.5Q209 -114 209 -69Q209 23 134 23Q93 23 62 -14L34 -2L49 209H235V172Z" glyph-name="five.inf" horiz-adv-x="276" /><glyph d="M259 439H146V0H93V439H25V482H93V567Q93 606 102 634Q111 662 127 679.5Q143 697 163.5 705Q184 713 208 713Q225 713 241.5 708.5Q258 704 273 694L257 650Q235 664 209 664Q180 664 163 642Q146 620 146 564V482H259ZM432 0Q390 0 364.5 23Q339 46 339 102V700H391V103Q391 71 403 58.5Q415 46 436 46H460V0Z" glyph-name="fl" horiz-adv-x="471" unicode="&#64258;" /><glyph d="M259 439H146V0H93V439H25V482H93V567Q93 606 102 634Q111 662 127 679.5Q143 697 163.5 705Q184 713 208 713Q225 713 241.5 708.5Q258 704 273 694L257 650Q235 664 209 664Q180 664 163 642Q146 620 146 564V482H259ZM391 700V0H339V700Z" glyph-name="fl.alt" horiz-adv-x="459" /><glyph d="M-14 -209Q-29 -209 -44 -206.5Q-59 -204 -72 -197L-58 -151Q-48 -156 -38.5 -159Q-29 -162 -15 -162Q-2 -162 9 -156.5Q20 -151 28 -138Q36 -125 42 -103Q48 -81 52 -49L94 320H28L34 362H100L112 462Q120 540 150 578.5Q180 617 234 617Q252 617 270 612.5Q288 608 302 600L287 554Q276 561 265 565Q254 569 239 569Q211 569 190 545Q169 521 162 457L151 362H264L257 320H145L103 -55Q94 -136 63.5 -172.5Q33 -209 -14 -209Z" glyph-name="florin" horiz-adv-x="292" unicode="&#402;" /><glyph d="M53 0ZM53 191V230L233 700H285L107 238H347V580H399V238H482V191H399V0H347V191Z" glyph-name="four" horiz-adv-x="535" unicode="4" /><glyph d="M31 191V230L211 700H263L85 238H325V580H377V238H460V191H377V0H325V191Z" glyph-name="four.LP" horiz-adv-x="480" /><glyph d="M34 91V128L204 600H255L86 136H312V480H364V136H441V91H364V-100H312V91Z" glyph-name="four.OP" horiz-adv-x="462" /><glyph d="M53 91V130L233 600H285L107 138H347V480H399V138H482V91H399V-100H347V91Z" glyph-name="four.OT" horiz-adv-x="535" /><glyph d="M21 0ZM21 -94V-62L123 209H165L64 -56H193V128H234V-56H280V-94H234V-200H193V-94Z" glyph-name="four.inf" horiz-adv-x="295" /><glyph glyph-name="fourperemspace" horiz-adv-x="187" unicode="&#8197;" /><glyph d="M339 701 89 0H40L291 701Z" glyph-name="fraction" horiz-adv-x="379" unicode="&#8260;" /><glyph d="M333 249Q333 351 300 399.5Q267 448 215 448Q99 448 99 245Q99 143 128 91.5Q157 40 213 40Q267 40 300 90.5Q333 141 333 249ZM208 -209Q146 -209 105.5 -181Q65 -153 42 -93L87 -71Q104 -122 134 -143.5Q164 -165 205 -165Q265 -165 299 -125.5Q333 -86 333 4V104Q317 49 281.5 22.5Q246 -4 201 -4Q128 -4 87.5 58.5Q47 121 47 244Q47 365 88.5 429Q130 493 208 493Q251 493 285.5 467Q320 441 337 388L341 482H385V2Q385 -54 372 -93.5Q359 -133 336 -159Q313 -185 280 -197Q247 -209 208 -209Z" glyph-name="g" horiz-adv-x="458" unicode="g" /><glyph d="M42 0ZM333 249Q333 351 300 399.5Q267 448 215 448Q99 448 99 245Q99 143 128 91.5Q157 40 213 40Q267 40 300 90.5Q333 141 333 249ZM208 -209Q146 -209 105.5 -181Q65 -153 42 -93L87 -71Q104 -122 134 -143.5Q164 -165 205 -165Q265 -165 299 -125.5Q333 -86 333 4V104Q317 49 281.5 22.5Q246 -4 201 -4Q128 -4 87.5 58.5Q47 121 47 244Q47 365 88.5 429Q130 493 208 493Q251 493 285.5 467Q320 441 337 388L341 482H385V2Q385 -54 372 -93.5Q359 -133 336 -159Q313 -185 280 -197Q247 -209 208 -209ZM275 678H312Q312 614 285.5 590Q259 566 211 566Q163 566 136.5 590Q110 614 110 678H147Q147 635 163 618.5Q179 602 210 602Q242 602 258.5 618.5Q275 635 275 678Z" glyph-name="gbreve" horiz-adv-x="457" unicode="&#287;" /><glyph d="M42 0ZM333 249Q333 351 300 399.5Q267 448 215 448Q99 448 99 245Q99 143 128 91.5Q157 40 213 40Q267 40 300 90.5Q333 141 333 249ZM208 -209Q146 -209 105.5 -181Q65 -153 42 -93L87 -71Q104 -122 134 -143.5Q164 -165 205 -165Q265 -165 299 -125.5Q333 -86 333 4V104Q317 49 281.5 22.5Q246 -4 201 -4Q128 -4 87.5 58.5Q47 121 47 244Q47 365 88.5 429Q130 493 208 493Q251 493 285.5 467Q320 441 337 388L341 482H385V2Q385 -54 372 -93.5Q359 -133 336 -159Q313 -185 280 -197Q247 -209 208 -209ZM211 647 151 568H99V570L189 679H235L325 570V568H272Z" glyph-name="gcircumflex" horiz-adv-x="457" unicode="&#285;" /><glyph d="M170 624Q170 669 187 703.5Q204 738 235 754L252 732Q231 719 217 696Q203 673 202 645Q219 650 232 640Q245 630 245 609Q245 590 235 580.5Q225 571 208 571Q170 571 170 624ZM333 249Q333 351 300 399.5Q267 448 215 448Q99 448 99 245Q99 143 128 91.5Q157 40 213 40Q267 40 300 90.5Q333 141 333 249ZM208 -209Q146 -209 105.5 -181Q65 -153 42 -93L87 -71Q104 -122 134 -143.5Q164 -165 205 -165Q265 -165 299 -125.5Q333 -86 333 4V104Q317 49 281.5 22.5Q246 -4 201 -4Q128 -4 87.5 58.5Q47 121 47 244Q47 365 88.5 429Q130 493 208 493Q251 493 285.5 467Q320 441 337 388L341 482H385V2Q385 -54 372 -93.5Q359 -133 336 -159Q313 -185 280 -197Q247 -209 208 -209Z" glyph-name="gcommaaccent" horiz-adv-x="457" unicode="&#291;" /><glyph d="M42 0ZM333 249Q333 351 300 399.5Q267 448 215 448Q99 448 99 245Q99 143 128 91.5Q157 40 213 40Q267 40 300 90.5Q333 141 333 249ZM208 -209Q146 -209 105.5 -181Q65 -153 42 -93L87 -71Q104 -122 134 -143.5Q164 -165 205 -165Q265 -165 299 -125.5Q333 -86 333 4V104Q317 49 281.5 22.5Q246 -4 201 -4Q128 -4 87.5 58.5Q47 121 47 244Q47 365 88.5 429Q130 493 208 493Q251 493 285.5 467Q320 441 337 388L341 482H385V2Q385 -54 372 -93.5Q359 -133 336 -159Q313 -185 280 -197Q247 -209 208 -209ZM174 622Q174 642 184.5 652.5Q195 663 212 663Q250 663 250 622Q250 602 240 591Q230 580 212 580Q195 580 184.5 591Q174 602 174 622Z" glyph-name="gdotaccent" horiz-adv-x="457" unicode="&#289;" /><glyph d="M246 353H218V398H245Q290 398 315.5 435Q341 472 341 533Q341 595 313 629.5Q285 664 235 664Q183 664 154 626Q125 588 125 509V1H73V510Q73 564 85.5 602Q98 640 120 663.5Q142 687 172 698Q202 709 237 709Q275 709 304 696Q333 683 353 660Q373 637 383.5 605.5Q394 574 394 536Q394 479 373.5 439.5Q353 400 317 381Q370 367 399 317.5Q428 268 428 193Q428 101 386.5 47Q345 -7 265 -7Q248 -7 226.5 -3.5Q205 0 183 13L198 55Q215 44 231.5 41Q248 38 262 38Q316 38 346 76Q376 114 376 193Q376 265 344 309Q312 353 246 353Z" glyph-name="germandbls" horiz-adv-x="471" unicode="&#223;" /><glyph d="M212 568 130 674V679H195L255 571V568Z" glyph-name="grave" horiz-adv-x="452" unicode="`" /><glyph d="M88 112 65 147 235 309 65 470 89 508 285 322V297Z" glyph-name="greater" horiz-adv-x="350" unicode="&gt;" /><glyph d="M111 140 86 177 272 324 86 469 112 508 333 338V312ZM339 45V0H78V45Z" glyph-name="greaterequal" horiz-adv-x="417" unicode="&#8805;" /><glyph d="M189 0 46 239V242L188 482H245L101 242L247 0ZM342 0 196 240V243L340 482H397L252 243L401 0Z" glyph-name="guillemotleft" horiz-adv-x="465" unicode="&#171;" /><glyph d="M271 483 414 244V241L272 1H215L359 241L213 483ZM118 483 264 243V240L120 1H63L208 240L59 483Z" glyph-name="guillemotright" horiz-adv-x="465" unicode="&#187;" /><glyph d="M188 0 46 239V242L188 482H245L101 242L247 0Z" glyph-name="guilsinglleft" horiz-adv-x="311" unicode="&#8249;" /><glyph d="M118 482 260 243V240L118 0H61L205 240L59 482Z" glyph-name="guilsinglright" horiz-adv-x="311" unicode="&#8250;" /><glyph d="M348 299Q348 381 322 414Q296 447 250 447Q192 447 160 393.5Q128 340 125 250V0H73V700H125V370Q142 432 179.5 462.5Q217 493 268 493Q400 493 400 313V0H348Z" glyph-name="h" horiz-adv-x="467" unicode="h" /><glyph glyph-name="hairspace" horiz-adv-x="74" unicode="&#8202;" /><glyph d="M134 250V0H82V564H23V601H82V700H134V601H255V564H134V369Q151 433 189 463Q227 493 278 493Q409 493 409 305V0H356V292Q356 377 330 411.5Q304 446 259 446Q202 446 169.5 393.5Q137 341 134 250Z" glyph-name="hbar" horiz-adv-x="476" unicode="&#295;" /><glyph d="M0 0ZM348 299Q348 381 322 414Q296 447 250 447Q192 447 160 393.5Q128 340 125 250V0H73V700H125V370Q142 432 179.5 462.5Q217 493 268 493Q400 493 400 313V0H348ZM97 865 37 786H-15V788L75 897H121L211 788V786H158Z" glyph-name="hcircumflex" horiz-adv-x="467" unicode="&#293;" /><glyph d="M390 674 303 568H264V571L325 679H390ZM276 679V674L189 568H149V571L210 679Z" glyph-name="hungarumlaut" horiz-adv-x="452" unicode="&#733;" /><glyph d="M281 273V227H40V273Z" glyph-name="hyphen" horiz-adv-x="320" unicode="-" /><glyph d="M40 332ZM281 378V332H40V378Z" glyph-name="hyphen.cap" horiz-adv-x="320" /><glyph d="M60 622Q60 642 70.5 653Q81 664 99 664Q117 664 127.5 653Q138 642 138 622Q138 602 127.5 591Q117 580 99 580Q81 580 70.5 591Q60 602 60 622ZM73 482H125V0H73Z" glyph-name="i" horiz-adv-x="198" unicode="i" /><glyph d="M73 0ZM73 482H125V0H73ZM200 674 119 568H76V571L136 679H200Z" glyph-name="iacute" horiz-adv-x="200" unicode="&#237;" /><glyph d="M0 0ZM73 482H125V0H73ZM164 678H201Q201 614 174.5 590Q148 566 100 566Q52 566 25.5 590Q-1 614 -1 678H36Q36 635 52 618.5Q68 602 99 602Q131 602 147.5 618.5Q164 635 164 678Z" glyph-name="ibreve" horiz-adv-x="200" unicode="&#301;" /><glyph d="M0 0ZM73 482H125V0H73ZM100 647 40 568H-12V570L78 679H124L214 570V568H161Z" glyph-name="icircumflex" horiz-adv-x="200" unicode="&#238;" /><glyph d="M2 0ZM73 482H125V0H73ZM124 622Q124 664 161 664Q199 664 199 622Q199 581 161 581Q124 581 124 622ZM2 622Q2 642 12 653Q22 664 39 664Q77 664 77 622Q77 581 39 581Q22 581 12 591.5Q2 602 2 622Z" glyph-name="idieresis" horiz-adv-x="200" unicode="&#239;" /><glyph d="M60 622Q60 642 70.5 653Q81 664 99 664Q117 664 127.5 653Q138 642 138 622Q138 602 127.5 591Q117 580 99 580Q81 580 70.5 591Q60 602 60 622ZM73 482H125V0H73Z" glyph-name="idotaccent" horiz-adv-x="198" /><glyph d="M1 0ZM73 482H125V0H73ZM83 569 1 675V680H66L126 572V569Z" glyph-name="igrave" horiz-adv-x="200" unicode="&#236;" /><glyph d="M60 0ZM60 622Q60 642 70.5 653Q81 664 99 664Q117 664 127.5 653Q138 642 138 622Q138 602 127.5 591Q117 580 99 580Q81 580 70.5 591Q60 602 60 622ZM73 482H125V0H73ZM295 580Q277 580 266.5 591Q256 602 256 622Q256 642 266.5 653Q277 664 295 664Q313 664 323.5 653Q334 642 334 622Q334 602 323.5 591Q313 580 295 580ZM269 -51V482H321V-62Q321 -140 293 -174.5Q265 -209 216 -209Q199 -209 184 -206Q169 -203 154 -195L169 -149Q179 -155 188.5 -158Q198 -161 212 -161Q240 -161 254.5 -137Q269 -113 269 -51Z" glyph-name="ij" horiz-adv-x="396" unicode="&#307;" /><glyph d="M9 0ZM73 482H125V0H73ZM192 641V602H9V641Z" glyph-name="imacron" horiz-adv-x="200" unicode="&#299;" /><glyph d="M60 622Q60 642 70.5 653Q81 664 99 664Q117 664 127.5 653Q138 642 138 622Q138 602 127.5 591Q117 580 99 580Q81 580 70.5 591Q60 602 60 622ZM146 -180Q116 -204 79 -204Q63 -204 47.5 -199.5Q32 -195 20 -184Q8 -173 1 -154.5Q-6 -136 -6 -108Q-6 -57 18.5 -25Q43 7 73 18V482H125V0H107Q73 -5 51.5 -34Q30 -63 30 -103Q30 -138 46 -151Q62 -164 82 -164Q109 -164 129 -147Z" glyph-name="iogonek" horiz-adv-x="200" unicode="&#303;" /><glyph d="M0 0ZM73 482H125V0H73ZM172 668H208Q209 642 204 625.5Q199 609 190 599.5Q181 590 170 586Q159 582 149 582Q133 582 121 589.5Q109 597 98 606.5Q87 616 76.5 623.5Q66 631 54 631Q29 631 29 586H-8Q-8 611 -3 627.5Q2 644 10 654Q18 664 28.5 667.5Q39 671 50 671Q66 671 79 663.5Q92 656 103 647.5Q114 639 124.5 631.5Q135 624 147 624Q171 624 172 668Z" glyph-name="itilde" horiz-adv-x="200" unicode="&#297;" /><glyph d="M99 580Q81 580 70.5 591Q60 602 60 622Q60 642 70.5 653Q81 664 99 664Q117 664 127.5 653Q138 642 138 622Q138 602 127.5 591Q117 580 99 580ZM73 -51V482H125V-62Q125 -140 97 -174.5Q69 -209 20 -209Q3 -209 -12 -206Q-27 -203 -42 -195L-27 -149Q-17 -155 -7.5 -158Q2 -161 16 -161Q44 -161 58.5 -137Q73 -113 73 -51Z" glyph-name="j" horiz-adv-x="198" unicode="j" /><glyph d="M0 0ZM73 -51V482H125V-62Q125 -140 97 -174.5Q69 -209 20 -209Q3 -209 -12 -206.5Q-27 -204 -43 -196L-27 -149Q-16 -154 -7 -157.5Q2 -161 16 -161Q44 -161 58.5 -137Q73 -113 73 -51ZM100 647 40 568H-12V570L78 679H124L214 570V568H161Z" glyph-name="jcircumflex" horiz-adv-x="200" unicode="&#309;" /><glyph d="M125 132V0H73V700H125L123 198L313 482H373L223 272L380 0H320L193 227Z" glyph-name="k" horiz-adv-x="395" unicode="k" /><glyph d="M73 0V700H125V0ZM316 0 136 234V239L310 482H368L193 242L379 0Z" glyph-name="k.alt" horiz-adv-x="393" /><glyph d="M73 0ZM125 132V0H73V700H125L123 198L313 482H373L223 272L380 0H320L193 227ZM246 -122Q246 -167 229 -201.5Q212 -236 181 -252L164 -230Q185 -217 199 -194Q213 -171 214 -143Q197 -148 184 -138Q171 -128 171 -107Q171 -88 181 -78.5Q191 -69 208 -69Q246 -69 246 -122Z" glyph-name="kcommaaccent" horiz-adv-x="395" unicode="&#311;" /><glyph d="M73 0ZM249 -122Q249 -167 232 -201.5Q215 -236 184 -252L167 -230Q188 -217 202 -194Q216 -171 217 -143Q200 -148 187 -138Q174 -128 174 -107Q174 -88 184 -78.5Q194 -69 211 -69Q249 -69 249 -122ZM73 0V700H125V0ZM316 0 136 234V239L310 482H368L193 242L379 0Z" glyph-name="kcommaaccent.alt" horiz-adv-x="393" /><glyph d="M125 132V0H73V482H125L123 198L313 482H373L224 272L380 0H320L193 229Z" glyph-name="kgreenlandic" horiz-adv-x="395" unicode="&#312;" /><glyph d="M164 0Q122 0 96.5 23Q71 46 71 102V700H123V103Q123 71 135 58.5Q147 46 168 46H192V0Z" glyph-name="l" horiz-adv-x="203" unicode="l" /><glyph d="M125 700V0H73V700Z" glyph-name="l.alt" horiz-adv-x="198" /><glyph d="M71 0ZM164 0Q122 0 96.5 23Q71 46 71 102V700H123V103Q123 71 135 58.5Q147 46 168 46H192V0ZM199 892 118 786H75V789L135 897H199Z" glyph-name="lacute" horiz-adv-x="203" unicode="&#314;" /><glyph d="M71 0ZM233 501H196L201 700H251ZM164 0Q122 0 96.5 23Q71 46 71 102V700H123V103Q123 71 135 58.5Q147 46 168 46H192V0Z" glyph-name="lcaron" horiz-adv-x="239" unicode="&#318;" /><glyph d="M71 0ZM164 0Q122 0 96.5 23Q71 46 71 102V700H123V103Q123 71 135 58.5Q147 46 168 46H192V0ZM175 -122Q175 -167 158 -201.5Q141 -236 110 -252L93 -230Q114 -217 128 -194Q142 -171 143 -143Q126 -148 113 -138Q100 -128 100 -107Q100 -88 110 -78.5Q120 -69 137 -69Q175 -69 175 -122Z" glyph-name="lcommaaccent" horiz-adv-x="203" unicode="&#316;" /><glyph d="M71 0ZM164 0Q122 0 96.5 23Q71 46 71 102V700H123V103Q123 71 135 58.5Q147 46 168 46H192V0ZM185 302Q185 322 195.5 332.5Q206 343 223 343Q261 343 261 302Q261 282 251 271Q241 260 223 260Q206 260 195.5 271Q185 282 185 302Z" glyph-name="ldot" horiz-adv-x="261" unicode="&#320;" /><glyph d="M260 508 284 473 114 311 285 150 260 112 64 297V323Z" glyph-name="less" horiz-adv-x="350" unicode="&lt;" /><glyph d="M308 507 333 470 147 325 333 179 308 139 86 310V337ZM78 0V45H339V0Z" glyph-name="lessequal" horiz-adv-x="417" unicode="&#8804;" /><glyph d="M40 642Q40 671 60 691Q80 711 109 711Q138 711 158 691Q178 671 178 642Q178 613 158 593Q138 573 109 573Q80 573 60 593Q40 613 40 642ZM152 642Q152 661 139.5 674Q127 687 109 687Q91 687 78.5 674Q66 661 66 642Q66 624 78.5 610.5Q91 597 109 597Q127 597 139.5 610Q152 623 152 642Z" glyph-name="logicalnot" horiz-adv-x="218" unicode="&#172;" /><glyph d="M206 0H178Q136 0 110.5 23Q85 46 85 102V289L9 200V253L85 343V700H137V393L219 492V438L137 340V103Q137 71 149 58.5Q161 46 182 46H206Z" glyph-name="lslash" horiz-adv-x="221" unicode="&#322;" /><glyph d="M321 0V299Q321 380 298.5 413.5Q276 447 235 447Q186 447 157 397Q128 347 125 254V0H73V482H117L122 371Q138 434 173.5 463.5Q209 493 253 493Q302 493 329 458.5Q356 424 364 364Q380 430 417 461.5Q454 493 502 493Q624 493 624 315V0H572V301Q572 382 549.5 414.5Q527 447 487 447Q437 447 407.5 399.5Q378 352 373 266V0Z" glyph-name="m" horiz-adv-x="692" unicode="m" /><glyph d="M322 641V602H139V641Z" glyph-name="macron" horiz-adv-x="452" unicode="&#175;" /><glyph d="M336 330V286H40V330Z" glyph-name="minus" horiz-adv-x="375" unicode="&#8722;" /><glyph d="M30 -4ZM207 -4V-39H30V-4Z" glyph-name="minus.inf" horiz-adv-x="236" /><glyph d="M124 711Q159 711 181.5 688Q204 665 204 632Q204 599 181.5 576Q159 553 124 553Q89 553 66.5 576Q44 599 44 632Q44 665 66.5 688Q89 711 124 711ZM124 683Q102 683 88 668.5Q74 654 74 632Q74 610 88 595.5Q102 581 124 581Q146 581 160 595.5Q174 610 174 632Q174 654 160 668.5Q146 683 124 683Z" glyph-name="mu" horiz-adv-x="248" unicode="&#956;" /><glyph d="M83 154 52 181 152 314 50 448 83 475 179 348 274 474 306 447 206 314 306 182 272 154 178 280Z" glyph-name="multiply" horiz-adv-x="357" unicode="&#215;" /><glyph d="M73 482H118L122 369Q139 432 177 462.5Q215 493 266 493Q400 493 400 313V0H348V301Q348 381 322 414Q296 447 250 447Q193 447 160 393.5Q127 340 125 250V0H73Z" glyph-name="n" horiz-adv-x="467" unicode="n" /><glyph d="M73 0ZM73 482H118L122 369Q139 432 177 462.5Q215 493 266 493Q400 493 400 313V0H348V301Q348 381 322 414Q296 447 250 447Q193 447 160 393.5Q127 340 125 250V0H73ZM342 674 261 568H218V571L278 679H342Z" glyph-name="nacute" horiz-adv-x="467" unicode="&#324;" /><glyph d="M73 0ZM73 482H118L122 369Q139 432 177 462.5Q215 493 266 493Q400 493 400 313V0H348V301Q348 381 322 414Q296 447 250 447Q193 447 160 393.5Q127 340 125 250V0H73ZM243 602 305 679H356V677L265 568H220L130 677V679H184Z" glyph-name="ncaron" horiz-adv-x="467" unicode="&#328;" /><glyph d="M73 0ZM73 482H118L122 369Q139 432 177 462.5Q215 493 266 493Q400 493 400 313V0H348V301Q348 381 322 414Q296 447 250 447Q193 447 160 393.5Q127 340 125 250V0H73ZM274 -122Q274 -167 257 -201.5Q240 -236 209 -252L192 -230Q213 -217 227 -194Q241 -171 242 -143Q225 -148 212 -138Q199 -128 199 -107Q199 -88 209 -78.5Q219 -69 236 -69Q274 -69 274 -122Z" glyph-name="ncommaaccent" horiz-adv-x="467" unicode="&#326;" /><glyph d="M73 0ZM255 666Q196 666 160.5 621Q125 576 125 485Q125 400 159 353Q193 306 254 306Q316 306 353 356Q390 406 390 492Q390 526 381.5 557.5Q373 589 356 613Q339 637 313.5 651.5Q288 666 255 666ZM254 711Q301 711 339.5 691.5Q378 672 405 629.5Q432 587 447 519Q462 451 462 355Q462 259 447.5 189.5Q433 120 405.5 75.5Q378 31 339 10Q300 -11 251 -11Q188 -11 146.5 17Q105 45 82 112L124 136Q144 80 174 57Q204 34 248 34Q284 34 313.5 50.5Q343 67 364 105.5Q385 144 397 206Q409 268 409 360Q409 373 408.5 392Q408 411 406 429Q398 352 356 306Q314 260 246 260Q167 260 120 316Q73 372 73 481Q73 533 84.5 575.5Q96 618 119 648Q142 678 176 694.5Q210 711 254 711Z" glyph-name="nine" horiz-adv-x="535" unicode="9" /><glyph d="M228 666Q169 666 133.5 621Q98 576 98 485Q98 400 132 353Q166 306 227 306Q289 306 326 356Q363 406 363 492Q363 526 354.5 557.5Q346 589 329 613Q312 637 286.5 651.5Q261 666 228 666ZM227 711Q274 711 312.5 691.5Q351 672 378 629.5Q405 587 420 519Q435 451 435 355Q435 259 420.5 189.5Q406 120 378.5 75.5Q351 31 312 10Q273 -11 224 -11Q161 -11 119.5 17Q78 45 55 112L97 136Q117 80 147 57Q177 34 221 34Q257 34 286.5 50.5Q316 67 337 105.5Q358 144 370 206Q382 268 382 360Q382 373 381.5 392Q381 411 379 429Q371 352 329 306Q287 260 219 260Q140 260 93 316Q46 372 46 481Q46 533 57.5 575.5Q69 618 92 648Q115 678 149 694.5Q183 711 227 711Z" glyph-name="nine.LP" horiz-adv-x="492" /><glyph d="M213 566Q156 566 123.5 521Q91 476 91 385Q91 301 122.5 254.5Q154 208 213 208Q272 208 307 257.5Q342 307 342 392Q342 426 333.5 457.5Q325 489 308.5 513Q292 537 268 551.5Q244 566 213 566ZM213 610Q259 610 295.5 590Q332 570 357.5 527Q383 484 397 416.5Q411 349 411 255Q411 158 397 89Q383 20 357 -24.5Q331 -69 293 -90Q255 -111 207 -111Q87 -111 44 12L87 35Q107 -20 135.5 -43.5Q164 -67 208 -67Q241 -67 269 -50.5Q297 -34 317 4.5Q337 43 348 105.5Q359 168 359 260Q359 272 358.5 288Q358 304 356 321Q350 251 309.5 207Q269 163 205 163Q169 163 139 177Q109 191 86.5 218.5Q64 246 51.5 286.5Q39 327 39 381Q39 433 50.5 475.5Q62 518 84 548Q106 578 138.5 594Q171 610 213 610Z" glyph-name="nine.OP" horiz-adv-x="459" /><glyph d="M255 566Q196 566 160.5 521Q125 476 125 385Q125 300 159 253Q193 206 254 206Q316 206 353 256Q390 306 390 392Q390 426 381.5 457.5Q373 489 356 513Q339 537 313.5 551.5Q288 566 255 566ZM254 611Q301 611 339.5 591.5Q378 572 405 529.5Q432 487 447 419Q462 351 462 255Q462 159 447.5 89.5Q433 20 405.5 -24.5Q378 -69 339 -90Q300 -111 251 -111Q188 -111 146.5 -83Q105 -55 82 12L124 36Q144 -20 174 -43Q204 -66 248 -66Q284 -66 313.5 -49.5Q343 -33 364 5.5Q385 44 397 106Q409 168 409 260Q409 273 408.5 292Q408 311 406 329Q398 252 356 206Q314 160 246 160Q167 160 120 216Q73 272 73 381Q73 433 84.5 475.5Q96 518 119 548Q142 578 176 594.5Q210 611 254 611Z" glyph-name="nine.OT" horiz-adv-x="535" /><glyph d="M27 0ZM209 86Q209 122 190.5 151Q172 180 137 180Q105 180 86 155.5Q67 131 67 82Q67 37 85 11.5Q103 -14 137 -14Q169 -14 189 12.5Q209 39 209 86ZM135 216Q194 216 228 167Q262 118 262 7Q262 -105 229 -156Q196 -207 133 -207Q98 -207 72 -192Q46 -177 32 -142L62 -121Q73 -148 90.5 -160Q108 -172 131 -172Q151 -172 167.5 -162.5Q184 -153 195.5 -132Q207 -111 213.5 -76.5Q220 -42 220 8Q220 14 219.5 23.5Q219 33 218 41Q213 -1 189 -25Q165 -49 127 -49Q82 -49 54.5 -16Q27 17 27 80Q27 142 54 179Q81 216 135 216Z" glyph-name="nine.inf" horiz-adv-x="297" /><glyph d="M40 349V394H216L280 502H320L256 394H336V349H231L185 270H336V225H160L98 120H56L119 225H40V270H144L190 349Z" glyph-name="notequal" horiz-adv-x="375" unicode="&#8800;" /><glyph d="M73 0ZM73 482H118L122 369Q139 432 177 462.5Q215 493 266 493Q400 493 400 313V0H348V301Q348 381 322 414Q296 447 250 447Q193 447 160 393.5Q127 340 125 250V0H73ZM314 668H350Q351 642 346 625.5Q341 609 332 599.5Q323 590 312 586Q301 582 291 582Q275 582 263 589.5Q251 597 240 606.5Q229 616 218.5 623.5Q208 631 196 631Q171 631 171 586H134Q134 611 139 627.5Q144 644 152 654Q160 664 170.5 667.5Q181 671 192 671Q208 671 221 663.5Q234 656 245 647.5Q256 639 266.5 631.5Q277 624 289 624Q313 624 314 668Z" glyph-name="ntilde" horiz-adv-x="467" unicode="&#241;" /><glyph d="M327 264 371 449H225L180 264ZM265 0 317 221H170L118 0H66L118 221H34L46 264H127L172 449H81L93 491H182L230 700H282L234 491H381L430 700H482L433 491H519L507 449H423L379 264H472L460 221H370L317 0Z" glyph-name="numbersign" horiz-adv-x="546" unicode="#" /><glyph d="M47 241Q47 371 92 432Q137 493 221 493Q307 493 350.5 432.5Q394 372 394 241Q394 112 350 50.5Q306 -11 221 -11Q135 -11 91 49.5Q47 110 47 241ZM342 240Q342 350 313 399Q284 448 221 448Q157 448 128 399Q99 350 99 240Q99 131 128.5 82Q158 33 221 33Q284 33 313 82Q342 131 342 240Z" glyph-name="o" horiz-adv-x="441" unicode="o" /><glyph d="M47 0ZM47 241Q47 371 92 432Q137 493 221 493Q307 493 350.5 432.5Q394 372 394 241Q394 112 350 50.5Q306 -11 221 -11Q135 -11 91 49.5Q47 110 47 241ZM342 240Q342 350 313 399Q284 448 221 448Q157 448 128 399Q99 350 99 240Q99 131 128.5 82Q158 33 221 33Q284 33 313 82Q342 131 342 240ZM320 674 239 568H196V571L256 679H320Z" glyph-name="oacute" horiz-adv-x="441" unicode="&#243;" /><glyph d="M47 0ZM47 241Q47 371 92 432Q137 493 221 493Q307 493 350.5 432.5Q394 372 394 241Q394 112 350 50.5Q306 -11 221 -11Q135 -11 91 49.5Q47 110 47 241ZM342 240Q342 350 313 399Q284 448 221 448Q157 448 128 399Q99 350 99 240Q99 131 128.5 82Q158 33 221 33Q284 33 313 82Q342 131 342 240ZM285 678H322Q322 614 295.5 590Q269 566 221 566Q173 566 146.5 590Q120 614 120 678H157Q157 635 173 618.5Q189 602 220 602Q252 602 268.5 618.5Q285 635 285 678Z" glyph-name="obreve" horiz-adv-x="441" unicode="&#335;" /><glyph d="M47 0ZM47 241Q47 371 92 432Q137 493 221 493Q307 493 350.5 432.5Q394 372 394 241Q394 112 350 50.5Q306 -11 221 -11Q135 -11 91 49.5Q47 110 47 241ZM342 240Q342 350 313 399Q284 448 221 448Q157 448 128 399Q99 350 99 240Q99 131 128.5 82Q158 33 221 33Q284 33 313 82Q342 131 342 240ZM220 647 160 568H108V570L198 679H244L334 570V568H281Z" glyph-name="ocircumflex" horiz-adv-x="441" unicode="&#244;" /><glyph d="M47 0ZM47 241Q47 371 92 432Q137 493 221 493Q307 493 350.5 432.5Q394 372 394 241Q394 112 350 50.5Q306 -11 221 -11Q135 -11 91 49.5Q47 110 47 241ZM342 240Q342 350 313 399Q284 448 221 448Q157 448 128 399Q99 350 99 240Q99 131 128.5 82Q158 33 221 33Q284 33 313 82Q342 131 342 240ZM247 622Q247 664 284 664Q322 664 322 622Q322 581 284 581Q247 581 247 622ZM125 622Q125 642 135 653Q145 664 162 664Q200 664 200 622Q200 581 162 581Q145 581 135 591.5Q125 602 125 622Z" glyph-name="odieresis" horiz-adv-x="441" unicode="&#246;" /><glyph d="M515 -11Q461 -11 423.5 19Q386 49 369 117Q333 -11 221 -11Q135 -11 91 49.5Q47 110 47 241Q47 371 92 432Q137 493 221 493Q335 493 369 364Q386 430 422.5 461.5Q459 493 513 493Q592 493 630.5 429.5Q669 366 669 258Q669 250 668.5 241.5Q668 233 668 226H394Q396 124 428.5 78Q461 32 516 32Q599 32 629 135L672 115Q654 60 617 24.5Q580 -11 515 -11ZM511 449Q457 449 427 405.5Q397 362 394 268H619Q617 361 590 405Q563 449 511 449ZM341 240Q341 351 312.5 399.5Q284 448 221 448Q157 448 127.5 399.5Q98 351 98 240Q98 131 128 82Q158 33 221 33Q283 33 312 82Q341 131 341 240Z" glyph-name="oe" horiz-adv-x="709" unicode="&#339;" /><glyph d="M235 -204Q218 -204 202.5 -199.5Q187 -195 175 -184Q163 -173 156 -154.5Q149 -136 149 -108Q149 -77 159.5 -52Q170 -27 186 -10Q202 7 221.5 16Q241 25 260 25L262 0Q229 -5 207.5 -34Q186 -63 186 -103Q186 -138 202 -151Q218 -164 238 -164Q265 -164 285 -147L302 -180Q272 -204 235 -204Z" glyph-name="ogonek" horiz-adv-x="452" unicode="&#731;" /><glyph d="M47 0ZM47 241Q47 371 92 432Q137 493 221 493Q307 493 350.5 432.5Q394 372 394 241Q394 112 350 50.5Q306 -11 221 -11Q135 -11 91 49.5Q47 110 47 241ZM342 240Q342 350 313 399Q284 448 221 448Q157 448 128 399Q99 350 99 240Q99 131 128.5 82Q158 33 221 33Q284 33 313 82Q342 131 342 240ZM204 569 122 675V680H187L247 572V569Z" glyph-name="ograve" horiz-adv-x="441" unicode="&#242;" /><glyph d="M47 0ZM47 241Q47 371 92 432Q137 493 221 493Q307 493 350.5 432.5Q394 372 394 241Q394 112 350 50.5Q306 -11 221 -11Q135 -11 91 49.5Q47 110 47 241ZM342 240Q342 350 313 399Q284 448 221 448Q157 448 128 399Q99 350 99 240Q99 131 128.5 82Q158 33 221 33Q284 33 313 82Q342 131 342 240ZM375 674 288 568H249V571L310 679H375ZM261 679V674L174 568H134V571L195 679Z" glyph-name="ohungarumlaut" horiz-adv-x="441" unicode="&#337;" /><glyph d="M47 0ZM47 241Q47 371 92 432Q137 493 221 493Q307 493 350.5 432.5Q394 372 394 241Q394 112 350 50.5Q306 -11 221 -11Q135 -11 91 49.5Q47 110 47 241ZM342 240Q342 350 313 399Q284 448 221 448Q157 448 128 399Q99 350 99 240Q99 131 128.5 82Q158 33 221 33Q284 33 313 82Q342 131 342 240ZM312 641V602H129V641Z" glyph-name="omacron" horiz-adv-x="441" unicode="&#333;" /><glyph d="M463 0H71V47H240V623L169 553L144 594L258 700H294V47H463Z" glyph-name="one" horiz-adv-x="535" unicode="1" /><glyph d="M161 0H107V623L36 553L11 594L125 700H161Z" glyph-name="one.LP" horiz-adv-x="247" /><glyph d="M155 0H103V523L35 454L11 494L121 600H155Z" glyph-name="one.OP" horiz-adv-x="227" /><glyph d="M448 0H86V46H241V523L173 454L149 494L259 600H293V46H448Z" glyph-name="one.OT" horiz-adv-x="535" /><glyph d="M10 0ZM110 -200H68V149L27 111L10 146L82 210H110Z" glyph-name="one.inf" horiz-adv-x="162" /><glyph d="M10 0ZM358 0V33L478 202Q504 240 514 265.5Q524 291 524 311Q524 378 464 378Q435 378 416.5 362Q398 346 385 312L352 327Q384 416 467 416Q516 416 541.5 389.5Q567 363 567 317Q567 288 554 256.5Q541 225 509 180L408 37L581 38V0ZM110 293H68V642L27 604L10 639L82 703H110ZM406 701 156 0H107L358 701Z" glyph-name="onehalf" horiz-adv-x="612" unicode="&#189;" /><glyph d="M10 0ZM110 293H68V642L27 604L10 639L82 703H110ZM406 701 156 0H107L358 701ZM352 106V138L454 409H496L395 144H524V328H565V144H611V106H565V0H524V106Z" glyph-name="onequarter" horiz-adv-x="629" unicode="&#188;" /><glyph d="M10 295ZM110 295H68V644L27 606L10 641L82 705H110Z" glyph-name="onesuperior" horiz-adv-x="162" unicode="&#185;" /><glyph d="M246 273V227H40V273Z" glyph-name="onethirdemdash" horiz-adv-x="284" /><glyph d="M134 389Q174 389 197 425Q220 461 220 527V534H163Q121 534 97 513Q73 492 73 456Q73 389 134 389ZM225 363 221 438Q199 355 123 355Q85 355 59.5 380.5Q34 406 34 454Q34 505 68.5 535Q103 565 162 565H220V570Q219 631 200.5 652.5Q182 674 146 674Q115 674 96 661Q77 648 64 625L36 648Q71 710 151 710Q202 710 230.5 679.5Q259 649 259 573V363Z" glyph-name="ordfeminine" horiz-adv-x="305" unicode="&#170;" /><glyph d="M237 535Q237 608 214 642Q191 676 156 676Q115 676 95 639.5Q75 603 75 532Q75 390 156 390Q191 390 214 425Q237 460 237 535ZM241 363 238 435Q227 394 202 374.5Q177 355 144 355Q92 355 63.5 400Q35 445 35 532Q35 620 65 665.5Q95 711 149 711Q181 711 204.5 692Q228 673 239 634L243 702H276V363Z" glyph-name="ordfeminine.school" horiz-adv-x="330" /><glyph d="M35 533Q35 625 67 668Q99 711 159 711Q221 711 252 668.5Q283 626 283 533Q283 442 251.5 398.5Q220 355 159 355Q99 355 67 397.5Q35 440 35 533ZM244 533Q244 608 223.5 642Q203 676 159 676Q116 676 95.5 642Q75 608 75 533Q75 458 95.5 424Q116 390 159 390Q202 390 223 424Q244 458 244 533Z" glyph-name="ordmasculine" horiz-adv-x="319" unicode="&#186;" /><glyph d="M224 -11Q144 -11 102 41L72 0H27L79 73Q49 134 49 241Q49 371 94 432Q139 493 224 493Q263 493 294 480Q325 467 346 439L377 482H423L368 406Q397 345 397 241Q397 112 353 50.5Q309 -11 224 -11ZM224 449Q159 449 130 400Q101 351 101 240Q101 166 116 120L316 399Q287 449 224 449ZM224 33Q287 33 316 82Q345 131 345 240Q345 313 330 358L132 80Q160 33 224 33Z" glyph-name="oslash" horiz-adv-x="445" unicode="&#248;" /><glyph d="M47 0ZM47 241Q47 371 92 432Q137 493 221 493Q307 493 350.5 432.5Q394 372 394 241Q394 112 350 50.5Q306 -11 221 -11Q135 -11 91 49.5Q47 110 47 241ZM342 240Q342 350 313 399Q284 448 221 448Q157 448 128 399Q99 350 99 240Q99 131 128.5 82Q158 33 221 33Q284 33 313 82Q342 131 342 240ZM292 668H328Q329 642 324 625.5Q319 609 310 599.5Q301 590 290 586Q279 582 269 582Q253 582 241 589.5Q229 597 218 606.5Q207 616 196.5 623.5Q186 631 174 631Q149 631 149 586H112Q112 611 117 627.5Q122 644 130 654Q138 664 148.5 667.5Q159 671 170 671Q186 671 199 663.5Q212 656 223 647.5Q234 639 244.5 631.5Q255 624 267 624Q291 624 292 668Z" glyph-name="otilde" horiz-adv-x="441" unicode="&#245;" /><glyph d="M125 238Q125 131 158.5 82Q192 33 242 33Q302 33 331.5 86Q361 139 361 242Q361 448 248 448Q194 448 159.5 397Q125 346 125 238ZM117 482 122 377Q138 436 175.5 464.5Q213 493 262 493Q335 493 374 429Q413 365 413 242Q413 120 371.5 54.5Q330 -11 251 -11Q209 -11 175.5 12.5Q142 36 125 86V-186H73V482Z" glyph-name="p" horiz-adv-x="460" unicode="p" /><glyph d="M298 308H354V654H298ZM92 483Q92 395 129 351Q166 307 229 308H250V653H232Q92 655 92 483ZM250 0V259H236Q138 260 89.5 320.5Q41 381 41 484Q41 590 89.5 645Q138 700 239 700H403V0H354V259H298V0Z" glyph-name="paragraph" horiz-adv-x="488" unicode="&#182;" /><glyph d="M224 -35 208 -76Q128 -56 85 43Q42 142 42 322Q42 502 85 601.5Q128 701 208 721L224 679Q160 659 125 574.5Q90 490 90 322Q90 155 125 70Q160 -15 224 -35Z" glyph-name="parenleft" horiz-adv-x="265" unicode="(" /><glyph d="M26 0ZM139 -218 128 -253Q26 -232 26 -17Q26 200 128 221L139 186Q102 175 82 128Q62 81 62 -17Q62 -114 82 -160.5Q102 -207 139 -218Z" glyph-name="parenleft.inf" horiz-adv-x="163" /><glyph d="M36 -35Q100 -15 135 70Q170 155 170 322Q170 490 135 574.5Q100 659 36 679L52 721Q132 701 175 601.5Q218 502 218 322Q218 142 175 43Q132 -56 52 -76Z" glyph-name="parenright" horiz-adv-x="265" unicode=")" /><glyph d="M24 0ZM34 -253 24 -218Q61 -207 81 -160.5Q101 -114 101 -17Q101 81 81 128Q61 175 24 186L34 221Q138 200 138 -17Q138 -232 34 -253Z" glyph-name="parenright.inf" horiz-adv-x="163" /><glyph d="M34 0ZM484 204Q484 317 515 366.5Q546 416 610 416Q672 416 702.5 366.5Q733 317 733 204Q733 91 703 42Q673 -7 610 -7Q546 -7 515 42.5Q484 92 484 204ZM691 204Q691 253 685.5 286.5Q680 320 669.5 340.5Q659 361 644 370Q629 379 610 379Q590 379 574.5 370Q559 361 548.5 340.5Q538 320 532.5 287Q527 254 527 205Q527 155 532.5 121.5Q538 88 548.5 67.5Q559 47 574.5 38Q590 29 610 29Q629 29 644 38Q659 47 669.5 67Q680 87 685.5 120.5Q691 154 691 204ZM34 497Q34 610 65 659.5Q96 709 160 709Q222 709 252.5 659.5Q283 610 283 497Q283 384 253 335Q223 286 160 286Q96 286 65 335.5Q34 385 34 497ZM241 497Q241 546 235.5 579.5Q230 613 219.5 633.5Q209 654 194 663Q179 672 160 672Q140 672 124.5 663Q109 654 98.5 633.5Q88 613 82.5 580Q77 547 77 498Q77 448 82.5 414.5Q88 381 98.5 360.5Q109 340 124.5 331Q140 322 160 322Q179 322 194 331Q209 340 219.5 360Q230 380 235.5 413.5Q241 447 241 497ZM532 701 282 0H233L484 701Z" glyph-name="percent" horiz-adv-x="771" unicode="%" /><glyph d="M84 -6Q66 -6 56 5Q46 16 46 36Q46 78 84 78Q121 78 121 36Q121 16 111.5 5Q102 -6 84 -6Z" glyph-name="period" horiz-adv-x="167" unicode="." /><glyph d="M46 294ZM84 294Q66 294 56 305Q46 316 46 336Q46 378 84 378Q121 378 121 336Q121 316 111.5 305Q102 294 84 294Z" glyph-name="periodcentered" horiz-adv-x="167" unicode="&#183;" /><glyph d="M34 0ZM484 204Q484 317 515 366.5Q546 416 610 416Q672 416 702.5 366.5Q733 317 733 204Q733 91 703 42Q673 -7 610 -7Q546 -7 515 42.5Q484 92 484 204ZM691 204Q691 253 685.5 286.5Q680 320 669.5 340.5Q659 361 644 370Q629 379 610 379Q590 379 574.5 370Q559 361 548.5 340.5Q538 320 532.5 287Q527 254 527 205Q527 155 532.5 121.5Q538 88 548.5 67.5Q559 47 574.5 38Q590 29 610 29Q629 29 644 38Q659 47 669.5 67Q680 87 685.5 120.5Q691 154 691 204ZM34 497Q34 610 65 659.5Q96 709 160 709Q222 709 252.5 659.5Q283 610 283 497Q283 384 253 335Q223 286 160 286Q96 286 65 335.5Q34 385 34 497ZM241 497Q241 546 235.5 579.5Q230 613 219.5 633.5Q209 654 194 663Q179 672 160 672Q140 672 124.5 663Q109 654 98.5 633.5Q88 613 82.5 580Q77 547 77 498Q77 448 82.5 414.5Q88 381 98.5 360.5Q109 340 124.5 331Q140 322 160 322Q179 322 194 331Q209 340 219.5 360Q230 380 235.5 413.5Q241 447 241 497ZM798 204Q798 317 829 366.5Q860 416 924 416Q986 416 1016.5 366.5Q1047 317 1047 204Q1047 91 1017 42Q987 -7 924 -7Q860 -7 829 42.5Q798 92 798 204ZM1005 204Q1005 253 999.5 286.5Q994 320 983.5 340.5Q973 361 958 370Q943 379 924 379Q904 379 888.5 370Q873 361 862.5 340.5Q852 320 846.5 287Q841 254 841 205Q841 155 846.5 121.5Q852 88 862.5 67.5Q873 47 888.5 38Q904 29 924 29Q943 29 958 38Q973 47 983.5 67Q994 87 999.5 120.5Q1005 154 1005 204ZM532 701 282 0H233L484 701Z" glyph-name="perthousand" horiz-adv-x="1086" unicode="&#8240;" /><glyph d="M210 117H166V286H40V330H166V502H210V330H336V286H210Z" glyph-name="plus" horiz-adv-x="375" unicode="+" /><glyph d="M30 0ZM136 -136H102V-37H30V-5H102V98H136V-5H207V-37H136Z" glyph-name="plus.inf" horiz-adv-x="236" /><glyph d="M210 132H166V293H40V337H166V502H210V337H336V293H210ZM336 44V0H40V44Z" glyph-name="plusminus" horiz-adv-x="375" unicode="&#177;" /><glyph glyph-name="punctuationspace" horiz-adv-x="163" unicode="&#8200;" /><glyph d="M207 493Q251 493 286.5 468Q322 443 339 389L342 482H386V-186H334V97Q317 41 281.5 15Q246 -11 200 -11Q125 -11 86 52.5Q47 116 47 241Q47 363 88 428Q129 493 207 493ZM334 245Q334 350 301 399Q268 448 217 448Q99 448 99 241Q99 33 215 33Q268 33 301 84.5Q334 136 334 245Z" glyph-name="q" horiz-adv-x="459" unicode="q" /><glyph d="M156 180 154 322H176Q242 322 277.5 368Q313 414 313 497Q313 578 277 621Q241 664 177 664Q129 664 92.5 637Q56 610 37 543L-6 561Q5 603 24 631.5Q43 660 67 678Q91 696 119.5 703.5Q148 711 180 711Q268 711 316 654.5Q364 598 364 499Q364 403 322 347.5Q280 292 204 285L201 180ZM178 -6Q161 -6 150.5 5Q140 16 140 36Q140 56 150.5 67Q161 78 178 78Q216 78 216 36Q216 16 206 5Q196 -6 178 -6Z" glyph-name="question" horiz-adv-x="381" unicode="?" /><glyph d="M208 322 210 180H188Q122 180 86.5 134Q51 88 51 5Q51 -76 87 -119Q123 -162 187 -162Q235 -162 271.5 -135Q308 -108 327 -41L370 -59Q359 -101 340 -129.5Q321 -158 297 -176Q273 -194 244 -201.5Q215 -209 184 -209Q96 -209 48 -152.5Q0 -96 0 3Q0 99 42 154.5Q84 210 160 217L163 322ZM186 508Q203 508 213.5 497Q224 486 224 466Q224 446 213.5 435Q203 424 186 424Q148 424 148 466Q148 486 158 497Q168 508 186 508Z" glyph-name="questiondown" horiz-adv-x="378" unicode="&#191;" /><glyph d="M204 523 206 381H184Q118 381 82.5 335Q47 289 47 206Q47 125 83 82Q119 39 183 39Q231 39 267.5 66Q304 93 323 160L366 142Q355 100 336 71.5Q317 43 293 25Q269 7 240 -0.5Q211 -8 180 -8Q92 -8 44 48.5Q-4 105 -4 204Q-4 300 38 355.5Q80 411 156 418L159 523ZM182 709Q199 709 209.5 698Q220 687 220 667Q220 647 209.5 636Q199 625 182 625Q144 625 144 667Q144 687 154 698Q164 709 182 709Z" glyph-name="questiondown.cap" horiz-adv-x="376" /><glyph d="M145 528 141 711H189L184 528ZM90 528H51L46 711H94Z" glyph-name="quotedbl" horiz-adv-x="235" unicode="&quot;" /><glyph d="M55 -113 38 -89Q62 -75 74.5 -51.5Q87 -28 88 -2Q71 -7 58 3Q45 13 45 36Q45 56 55.5 66.5Q66 77 82 77Q102 77 112 64Q122 51 122 21Q122 -24 105 -60Q88 -96 55 -113ZM166 -113 149 -89Q173 -75 185.5 -51.5Q198 -28 199 -2Q182 -7 169 3Q156 13 156 36Q156 56 166.5 66.5Q177 77 193 77Q213 77 223 64Q233 51 233 21Q233 -24 216 -60Q199 -96 166 -113Z" glyph-name="quotedblbase" horiz-adv-x="274" unicode="&#8222;" /><glyph d="M104 726 121 702Q98 688 85 664Q72 640 71 614Q88 619 101 609Q114 599 114 576Q114 556 103.5 545Q93 534 77 534Q57 534 47 547Q37 560 37 591Q37 636 54 672.5Q71 709 104 726ZM215 726 232 702Q209 688 196 664Q183 640 182 614Q199 619 212 609Q225 599 225 576Q225 556 214.5 545Q204 534 188 534Q168 534 158 547Q148 560 148 591Q148 636 165 672.5Q182 709 215 726Z" glyph-name="quotedblleft" horiz-adv-x="276" unicode="&#8220;" /><glyph d="M56 527 39 551Q62 565 75 589Q88 613 89 639Q72 634 59 644Q46 654 46 677Q46 697 56.5 708Q67 719 83 719Q103 719 113 706Q123 693 123 662Q123 617 106 580.5Q89 544 56 527ZM167 527 150 551Q173 565 186 589Q199 613 200 639Q183 634 170 644Q157 654 157 677Q157 697 167.5 708Q178 719 194 719Q214 719 224 706Q234 693 234 662Q234 617 217 580.5Q200 544 167 527Z" glyph-name="quotedblright" horiz-adv-x="276" unicode="&#8221;" /><glyph d="M104 726 121 702Q98 688 85 664Q72 640 71 614Q88 619 101 609Q114 599 114 576Q114 556 103.5 545Q93 534 77 534Q57 534 47 547Q37 560 37 591Q37 636 54 672.5Q71 709 104 726Z" glyph-name="quoteleft" horiz-adv-x="165" unicode="&#8216;" /><glyph d="M56 527 39 551Q62 565 75 589Q88 613 89 639Q72 634 59 644Q46 654 46 677Q46 697 56.5 708Q67 719 83 719Q103 719 113 706Q123 693 123 662Q123 617 106 580.5Q89 544 56 527Z" glyph-name="quoteright" horiz-adv-x="165" unicode="&#8217;" /><glyph d="M56 -113 39 -89Q63 -75 75.5 -51.5Q88 -28 89 -2Q72 -7 59 3Q46 13 46 36Q46 56 56.5 66.5Q67 77 83 77Q103 77 113 64Q123 51 123 21Q123 -24 106 -60Q89 -96 56 -113Z" glyph-name="quotesinglbase" horiz-adv-x="164" unicode="&#8218;" /><glyph d="M50 528 46 711H94L89 528Z" glyph-name="quotesingle" horiz-adv-x="139" unicode="'" /><glyph d="M73 0V482H117L122 361Q138 427 175.5 460Q213 493 262 490V436Q199 441 163.5 391.5Q128 342 125 244V0Z" glyph-name="r" horiz-adv-x="274" unicode="r" /><glyph d="M73 0ZM73 0V482H117L122 361Q138 427 175.5 460Q213 493 262 490V436Q199 441 163.5 391.5Q128 342 125 244V0ZM282 674 201 568H158V571L218 679H282Z" glyph-name="racute" horiz-adv-x="274" unicode="&#341;" /><glyph d="M70 0ZM73 0V482H117L122 361Q138 427 175.5 460Q213 493 262 490V436Q199 441 163.5 391.5Q128 342 125 244V0ZM183 602 245 679H296V677L205 568H160L70 677V679H124Z" glyph-name="rcaron" horiz-adv-x="274" unicode="&#345;" /><glyph d="M53 0ZM73 0V482H117L122 361Q138 427 175.5 460Q213 493 262 490V436Q199 441 163.5 391.5Q128 342 125 244V0ZM135 -122Q135 -167 118 -201.5Q101 -236 70 -252L53 -230Q74 -217 88 -194Q102 -171 103 -143Q86 -148 73 -138Q60 -128 60 -107Q60 -88 70 -78.5Q80 -69 97 -69Q135 -69 135 -122Z" glyph-name="rcommaaccent" horiz-adv-x="274" unicode="&#343;" /><glyph d="M179 346Q113 346 75 396.5Q37 447 37 528Q37 611 75 661Q113 711 179 711Q245 711 283 661Q321 611 321 528Q321 447 283 396.5Q245 346 179 346ZM179 365Q233 365 267 407.5Q301 450 301 528Q301 606 267 649.5Q233 693 179 693Q125 693 91 649.5Q57 606 57 528Q57 450 91 407.5Q125 365 179 365ZM179 603H148V528H181Q212 528 212 565Q212 582 203.5 592.5Q195 603 179 603ZM127 441V623H179Q205 623 219 607.5Q233 592 233 565Q233 524 205 512L232 441H209L184 507H148V441Z" glyph-name="registered" horiz-adv-x="358" unicode="&#174;" /><glyph d="M104 527Q71 544 54 580.5Q37 617 37 662Q37 693 47 706Q57 719 77 719Q93 719 103.5 708Q114 697 114 677Q114 654 101 644Q88 634 71 639Q72 613 85 589Q98 565 121 551ZM216 527Q183 544 166 580.5Q149 617 149 662Q149 693 159 706Q169 719 189 719Q205 719 215.5 708Q226 697 226 677Q226 654 213 644Q200 634 183 639Q184 613 197 589Q210 565 233 551Z" glyph-name="reversequotedblleft" horiz-adv-x="276" /><glyph d="M104 527Q71 544 54 580.5Q37 617 37 662Q37 693 47 706Q57 719 77 719Q93 719 103.5 708Q114 697 114 677Q114 654 101 644Q88 634 71 639Q72 613 85 589Q98 565 121 551Z" glyph-name="reversequoteleft" horiz-adv-x="165" /><glyph d="M152 635Q152 674 174 697.5Q196 721 229 721Q261 721 282.5 697.5Q304 674 304 635Q304 597 282.5 573.5Q261 550 228 550Q196 550 174 573.5Q152 597 152 635ZM183 635Q183 610 195.5 594Q208 578 228 578Q248 578 261 594Q274 610 274 635Q274 661 261 676.5Q248 692 229 692Q209 692 196 676.5Q183 661 183 635Z" glyph-name="ring" horiz-adv-x="452" unicode="&#730;" /><glyph d="M182 31Q227 31 251.5 53.5Q276 76 276 118Q276 150 257.5 174Q239 198 193 216L160 229Q102 252 71 283.5Q40 315 40 369Q40 424 74.5 459Q109 494 177 494Q231 494 265.5 469Q300 444 321 389L277 367Q250 452 177 452Q136 452 112 432Q88 412 88 373Q88 341 107.5 319Q127 297 174 278L209 264Q269 240 297.5 206Q326 172 326 121Q326 94 317.5 70Q309 46 291 28Q273 10 245.5 -0.5Q218 -11 181 -11Q114 -11 77 21Q40 53 20 107L65 128Q81 77 111 54Q141 31 182 31Z" glyph-name="s" horiz-adv-x="361" unicode="s" /><glyph d="M20 0ZM182 31Q227 31 251.5 53.5Q276 76 276 118Q276 150 257.5 174Q239 198 193 216L160 229Q102 252 71 283.5Q40 315 40 369Q40 424 74.5 459Q109 494 177 494Q231 494 265.5 469Q300 444 321 389L277 367Q250 452 177 452Q136 452 112 432Q88 412 88 373Q88 341 107.5 319Q127 297 174 278L209 264Q269 240 297.5 206Q326 172 326 121Q326 94 317.5 70Q309 46 291 28Q273 10 245.5 -0.5Q218 -11 181 -11Q114 -11 77 21Q40 53 20 107L65 128Q81 77 111 54Q141 31 182 31ZM278 674 197 568H154V571L214 679H278Z" glyph-name="sacute" horiz-adv-x="361" unicode="&#347;" /><glyph d="M20 0ZM182 31Q227 31 251.5 53.5Q276 76 276 118Q276 150 257.5 174Q239 198 193 216L160 229Q102 252 71 283.5Q40 315 40 369Q40 424 74.5 459Q109 494 177 494Q231 494 265.5 469Q300 444 321 389L277 367Q250 452 177 452Q136 452 112 432Q88 412 88 373Q88 341 107.5 319Q127 297 174 278L209 264Q269 240 297.5 206Q326 172 326 121Q326 94 317.5 70Q309 46 291 28Q273 10 245.5 -0.5Q218 -11 181 -11Q114 -11 77 21Q40 53 20 107L65 128Q81 77 111 54Q141 31 182 31ZM179 602 241 679H292V677L201 568H156L66 677V679H120Z" glyph-name="scaron" horiz-adv-x="361" unicode="&#353;" /><glyph d="M173 -228Q146 -228 123.5 -215Q101 -202 85 -172L116 -152Q126 -174 140.5 -183.5Q155 -193 173 -193Q223 -193 223 -146Q223 -123 210.5 -112Q198 -101 181 -101Q176 -101 171.5 -101.5Q167 -102 162 -103L151 -92L164 -10Q105 -6 71.5 25Q38 56 20 107L65 128Q81 77 111 54Q141 31 182 31Q227 31 251.5 53.5Q276 76 276 118Q276 150 257.5 173.5Q239 197 193 216L160 229Q102 252 71.5 283.5Q41 315 41 369Q41 424 75.5 459Q110 494 177 494Q231 494 265.5 469Q300 444 321 389L277 367Q250 452 177 452Q136 452 112 432Q88 412 88 373Q88 341 107.5 318.5Q127 296 174 278L209 264Q269 240 297 206Q325 172 325 121Q325 70 294.5 33Q264 -4 199 -9L188 -73Q190 -72 197 -72Q222 -72 242 -89.5Q262 -107 262 -145Q262 -187 237 -207.5Q212 -228 173 -228Z" glyph-name="scedilla" horiz-adv-x="361" unicode="&#351;" /><glyph d="M20 0ZM182 31Q227 31 251.5 53.5Q276 76 276 118Q276 150 257.5 174Q239 198 193 216L160 229Q102 252 71 283.5Q40 315 40 369Q40 424 74.5 459Q109 494 177 494Q231 494 265.5 469Q300 444 321 389L277 367Q250 452 177 452Q136 452 112 432Q88 412 88 373Q88 341 107.5 319Q127 297 174 278L209 264Q269 240 297.5 206Q326 172 326 121Q326 94 317.5 70Q309 46 291 28Q273 10 245.5 -0.5Q218 -11 181 -11Q114 -11 77 21Q40 53 20 107L65 128Q81 77 111 54Q141 31 182 31ZM178 647 118 568H66V570L156 679H202L292 570V568H239Z" glyph-name="scircumflex" horiz-adv-x="361" unicode="&#349;" /><glyph d="M20 0ZM182 31Q227 31 251.5 53.5Q276 76 276 118Q276 150 257.5 174Q239 198 193 216L160 229Q102 252 71 283.5Q40 315 40 369Q40 424 74.5 459Q109 494 177 494Q231 494 265.5 469Q300 444 321 389L277 367Q250 452 177 452Q136 452 112 432Q88 412 88 373Q88 341 107.5 319Q127 297 174 278L209 264Q269 240 297.5 206Q326 172 326 121Q326 94 317.5 70Q309 46 291 28Q273 10 245.5 -0.5Q218 -11 181 -11Q114 -11 77 21Q40 53 20 107L65 128Q81 77 111 54Q141 31 182 31ZM219 -122Q219 -167 202 -201.5Q185 -236 154 -252L137 -230Q158 -217 172 -194Q186 -171 187 -143Q170 -148 157 -138Q144 -128 144 -107Q144 -88 154 -78.5Q164 -69 181 -69Q219 -69 219 -122Z" glyph-name="scommaaccent" horiz-adv-x="361" unicode="&#537;" /><glyph d="M104 354Q103 322 120.5 297.5Q138 273 179 259L200 253Q219 247 237 250Q255 253 268.5 264Q282 275 290.5 293.5Q299 312 299 337Q300 369 283 393Q266 417 224 431L203 438Q183 444 165 441Q147 438 133.5 426.5Q120 415 112 396.5Q104 378 104 354ZM195 -22Q132 -22 94.5 11Q57 44 37 98L79 119Q96 66 126.5 42.5Q157 19 195 19Q244 19 264.5 43.5Q285 68 285 107Q285 145 268.5 167Q252 189 207 203L174 213Q117 232 88 266Q59 300 59 353Q59 394 78.5 423.5Q98 453 132 464Q105 482 88.5 512Q72 542 72 581Q72 638 106.5 674.5Q141 711 202 711Q253 711 287 687.5Q321 664 341 611L298 590Q273 669 200 669Q162 669 139.5 646.5Q117 624 117 583Q117 552 133.5 526.5Q150 501 195 486L232 474Q267 462 289 447.5Q311 433 323 415.5Q335 398 339.5 379Q344 360 344 340Q344 298 325 267.5Q306 237 270 226Q306 205 319 176Q332 147 332 110Q332 83 324 59Q316 35 299.5 17Q283 -1 257 -11.5Q231 -22 195 -22Z" glyph-name="section" horiz-adv-x="390" unicode="&#167;" /><glyph d="M39 0ZM56 -114 39 -90Q63 -76 76 -52Q89 -28 90 -2Q73 -7 59.5 3Q46 13 46 36Q46 56 56.5 67Q67 78 84 78Q104 78 114 65Q124 52 124 21Q124 -24 107 -60.5Q90 -97 56 -114ZM84 382Q66 382 56 393Q46 404 46 424Q46 466 84 466Q121 466 121 424Q121 404 111.5 393Q102 382 84 382Z" glyph-name="semicolon" horiz-adv-x="169" unicode=";" /><glyph d="M93 0ZM186 0Q185 95 199 190.5Q213 286 238.5 372.5Q264 459 300 531.5Q336 604 381 654L93 653V700H443V652Q397 611 359.5 545Q322 479 296 394.5Q270 310 255.5 210Q241 110 241 0Z" glyph-name="seven" horiz-adv-x="535" unicode="7" /><glyph d="M117 0Q116 95 130 190.5Q144 286 169.5 372.5Q195 459 231 531.5Q267 604 312 654L24 653V700H374V652Q328 611 290.5 545Q253 479 227 394.5Q201 310 186.5 210Q172 110 172 0Z" glyph-name="seven.LP" horiz-adv-x="380" /><glyph d="M110 -100Q109 -14 120 77Q131 168 154.5 254.5Q178 341 213 418Q248 495 295 554L22 553V600H355V552Q313 514 277.5 449.5Q242 385 216.5 300Q191 215 176.5 113.5Q162 12 163 -100Z" glyph-name="seven.OP" horiz-adv-x="362" /><glyph d="M186 -100Q185 -5 199 90.5Q213 186 238.5 272.5Q264 359 300 431.5Q336 504 381 554L93 553V600H443V552Q397 511 359.5 445Q322 379 296 294.5Q270 210 255.5 110Q241 10 241 -100Z" glyph-name="seven.OT" horiz-adv-x="535" /><glyph d="M18 0ZM116 -200H71Q71 -145 79.5 -91Q88 -37 103 12Q118 61 139 102Q160 143 185 171L18 170V209H229V174Q177 122 147 24Q117 -74 116 -200Z" glyph-name="seven.inf" horiz-adv-x="236" /><glyph d="M73 0ZM282 -11Q235 -11 196.5 8.5Q158 28 130.5 70.5Q103 113 88 180.5Q73 248 73 345Q73 442 87.5 511Q102 580 129.5 624.5Q157 669 196 690Q235 711 284 711Q347 711 388.5 682.5Q430 654 453 588L411 564Q391 620 361.5 643Q332 666 287 666Q251 666 221.5 649.5Q192 633 171 595Q150 557 138 494.5Q126 432 126 340Q126 327 126.5 308Q127 289 129 271Q137 346 179 391.5Q221 437 290 437Q366 437 414 381.5Q462 326 462 218Q462 166 450.5 123.5Q439 81 416.5 51Q394 21 360 5Q326 -11 282 -11ZM279 34Q338 34 373.5 78.5Q409 123 409 214Q409 299 375.5 345.5Q342 392 280 392Q218 392 180.5 342Q143 292 143 207Q143 174 151.5 142.5Q160 111 177 87Q194 63 219.5 48.5Q245 34 279 34Z" glyph-name="six" horiz-adv-x="535" unicode="6" /><glyph d="M267 -11Q220 -11 181.5 8.5Q143 28 115.5 70.5Q88 113 73 180.5Q58 248 58 345Q58 442 72.5 511Q87 580 114.5 624.5Q142 669 181 690Q220 711 269 711Q332 711 373.5 682.5Q415 654 438 588L396 564Q376 620 346.5 643Q317 666 272 666Q236 666 206.5 649.5Q177 633 156 595Q135 557 123 494.5Q111 432 111 340Q111 327 111.5 308Q112 289 114 271Q122 346 164 391.5Q206 437 275 437Q351 437 399 381.5Q447 326 447 218Q447 166 435.5 123.5Q424 81 401.5 51Q379 21 345 5Q311 -11 267 -11ZM264 34Q323 34 358.5 78.5Q394 123 394 214Q394 299 360.5 345.5Q327 392 265 392Q203 392 165.5 342Q128 292 128 207Q128 174 136.5 142.5Q145 111 162 87Q179 63 204.5 48.5Q230 34 264 34Z" glyph-name="six.LP" horiz-adv-x="494" /><glyph d="M246 -11Q201 -11 164.5 9Q128 29 102 72.5Q76 116 62 183Q48 250 48 345Q48 442 62 511Q76 580 102 624.5Q128 669 166 690Q204 711 252 711Q312 711 351.5 681Q391 651 413 587L371 564Q351 619 322.5 642.5Q294 666 250 666Q217 666 189.5 649.5Q162 633 142 595Q122 557 111 494.5Q100 432 100 340Q100 328 100.5 311.5Q101 295 103 279Q109 349 149.5 393Q190 437 254 437Q330 437 375 381Q420 325 420 218Q420 166 409 124Q398 82 376 52Q354 22 321.5 5.5Q289 -11 246 -11ZM246 34Q301 34 334.5 78.5Q368 123 368 214Q368 298 337 345Q306 392 245 392Q187 392 151.5 342Q116 292 116 207Q116 174 124.5 142.5Q133 111 149.5 87Q166 63 190 48.5Q214 34 246 34Z" glyph-name="six.OP" horiz-adv-x="459" /><glyph d="M282 -11Q235 -11 196.5 8.5Q158 28 130.5 70.5Q103 113 88 180.5Q73 248 73 345Q73 442 87.5 511Q102 580 129.5 624.5Q157 669 196 690Q235 711 284 711Q347 711 388.5 682.5Q430 654 453 588L411 564Q391 620 361.5 643Q332 666 287 666Q251 666 221.5 649.5Q192 633 171 595Q150 557 138 494.5Q126 432 126 340Q126 327 126.5 308Q127 289 129 271Q137 346 179 391.5Q221 437 290 437Q366 437 414 381.5Q462 326 462 218Q462 166 450.5 123.5Q439 81 416.5 51Q394 21 360 5Q326 -11 282 -11ZM279 34Q338 34 373.5 78.5Q409 123 409 214Q409 299 375.5 345.5Q342 392 280 392Q218 392 180.5 342Q143 292 143 207Q143 174 151.5 142.5Q160 111 177 87Q194 63 219.5 48.5Q245 34 279 34Z" glyph-name="six.OT" horiz-adv-x="535" /><glyph d="M34 0ZM161 -207Q103 -207 68.5 -158.5Q34 -110 34 2Q34 113 67.5 164.5Q101 216 163 216Q200 216 225 199.5Q250 183 264 147L233 130Q222 157 205 168.5Q188 180 165 180Q145 180 128.5 171Q112 162 100.5 141Q89 120 82.5 85.5Q76 51 76 0Q76 -6 76.5 -15.5Q77 -25 78 -33Q83 9 107.5 32.5Q132 56 170 56Q215 56 242.5 23.5Q270 -9 270 -72Q270 -134 243 -170.5Q216 -207 161 -207ZM87 -78Q87 -114 105 -143Q123 -172 159 -172Q191 -172 210 -147.5Q229 -123 229 -74Q229 -29 211 -4Q193 21 160 21Q127 21 107 -5.5Q87 -32 87 -78Z" glyph-name="six.inf" horiz-adv-x="299" /><glyph glyph-name="sixperemspace" horiz-adv-x="124" unicode="&#8198;" /><glyph d="M359 701 63 0H9L304 701Z" glyph-name="slash" horiz-adv-x="368" unicode="/" /><glyph glyph-name="space" horiz-adv-x="172" unicode=" " /><glyph d="M418 74Q393 29 359 14.5Q325 0 282 0H34V43H55Q82 43 91.5 71.5Q101 100 99 158L95 315H34V358H95L91 510Q89 613 129.5 662Q170 711 246 711Q307 711 345.5 680.5Q384 650 408 579L365 556Q346 615 316.5 640.5Q287 666 246 666Q139 666 143 511L147 358H301V315H148L152 158Q155 69 129 43H282Q313 43 338 55Q363 67 384 105Z" glyph-name="sterling" horiz-adv-x="427" unicode="&#163;" /><glyph d="M258 7Q244 -2 227 -6.5Q210 -11 194 -11Q170 -11 149.5 -3.5Q129 4 114 21Q99 38 90.5 64.5Q82 91 82 130V439H17V482H82V628H135V482H249V439H135V135Q135 81 151.5 59.5Q168 38 197 38Q223 38 244 52Z" glyph-name="t" horiz-adv-x="273" unicode="t" /><glyph d="M261 7Q247 -3 230 -7Q213 -11 196 -11Q148 -11 115.5 21Q83 53 83 130V287H17V325H83V439H17V482H83V628H134V482H249V439H134V325H249V287H134V135Q134 81 151.5 59.5Q169 38 198 38Q225 38 246 52Z" glyph-name="tbar" horiz-adv-x="270" unicode="&#359;" /><glyph d="M225 554H189L195 733H244ZM258 7Q244 -2 227 -6.5Q210 -11 194 -11Q170 -11 149.5 -3.5Q129 4 114 21Q99 38 90.5 64.5Q82 91 82 130V439H17V482H82V628H135V482H249V439H135V135Q135 81 151.5 59.5Q168 38 197 38Q223 38 244 52Z" glyph-name="tcaron" horiz-adv-x="273" unicode="&#357;" /><glyph d="M237 -145Q237 -187 212 -207.5Q187 -228 149 -228Q121 -228 98.5 -215Q76 -202 60 -172L91 -152Q111 -193 148 -193Q198 -193 198 -146Q198 -123 185.5 -112Q173 -101 156 -101Q151 -101 146.5 -101.5Q142 -102 137 -103L126 -92L141 0H142Q115 14 98.5 45Q82 76 82 130V439H17V482H82V628H135V482H249V439H135V135Q135 81 151.5 59.5Q168 38 197 38Q223 38 244 52L258 7Q244 -2 227 -6.5Q210 -11 194 -11Q189 -11 184 -11Q179 -11 174 -10L163 -73Q165 -72 172 -72Q197 -72 217 -89.5Q237 -107 237 -145Z" glyph-name="tcedilla" horiz-adv-x="273" unicode="&#355;" /><glyph glyph-name="thinspace" horiz-adv-x="149" unicode="&#8201;" /><glyph d="M125 238Q125 131 158 82Q191 33 242 33Q302 33 331.5 86Q361 139 361 242Q361 448 247 448Q194 448 159.5 397Q125 346 125 238ZM73 -186V700H125V381Q140 438 177 465.5Q214 493 262 493Q335 493 373.5 429Q412 365 412 242Q412 120 371 54.5Q330 -11 251 -11Q209 -11 175.5 12.5Q142 36 125 86V-186Z" glyph-name="thorn" horiz-adv-x="459" unicode="&#254;" /><glyph d="M80 0ZM265 33Q333 33 367.5 76.5Q402 120 402 196Q402 261 371.5 302Q341 343 276 343H215V391H274Q321 391 353.5 428.5Q386 466 386 533Q386 596 355.5 630.5Q325 665 266 665Q161 665 130 549L86 569Q129 711 272 711Q357 711 398 664.5Q439 618 439 540Q439 480 415.5 436Q392 392 348 369Q399 355 427 310Q455 265 455 196Q455 150 443.5 112Q432 74 408.5 46.5Q385 19 349.5 4Q314 -11 266 -11Q197 -11 149.5 21.5Q102 54 80 126L125 147Q142 85 179 59Q216 33 265 33Z" glyph-name="three" horiz-adv-x="535" unicode="3" /><glyph d="M212 33Q280 33 314.5 76.5Q349 120 349 196Q349 261 318.5 302Q288 343 223 343H162V391H221Q268 391 300.5 428.5Q333 466 333 533Q333 596 302.5 630.5Q272 665 213 665Q108 665 77 549L33 569Q76 711 219 711Q304 711 345 664.5Q386 618 386 540Q386 480 362.5 436Q339 392 295 369Q346 355 374 310Q402 265 402 196Q402 150 390.5 112Q379 74 355.5 46.5Q332 19 296.5 4Q261 -11 213 -11Q144 -11 96.5 21.5Q49 54 27 126L72 147Q89 85 126 59Q163 33 212 33Z" glyph-name="three.LP" horiz-adv-x="449" /><glyph d="M200 -68Q267 -68 300.5 -24Q334 20 334 95Q334 160 304 201.5Q274 243 209 243H153V291H208Q255 291 287.5 328Q320 365 320 433Q320 497 290 531.5Q260 566 202 566Q104 566 71 450L27 469Q47 537 90 574Q133 611 206 611Q287 611 329 564.5Q371 518 371 437Q371 377 348 334.5Q325 292 281 269Q331 255 359 211Q387 167 387 96Q387 50 375.5 12Q364 -26 341 -53.5Q318 -81 283 -96Q248 -111 201 -111Q138 -111 91 -79.5Q44 -48 21 27L66 47Q83 -14 117 -41Q151 -68 200 -68Z" glyph-name="three.OP" horiz-adv-x="431" /><glyph d="M265 -67Q333 -67 367.5 -23.5Q402 20 402 96Q402 161 371.5 202Q341 243 276 243H215V291H274Q321 291 353.5 328.5Q386 366 386 433Q386 496 355.5 530.5Q325 565 266 565Q161 565 130 449L86 469Q129 611 272 611Q357 611 398 564.5Q439 518 439 440Q439 380 415.5 336Q392 292 348 269Q399 255 427 210Q455 165 455 96Q455 50 443.5 12Q432 -26 408.5 -53.5Q385 -81 349.5 -96Q314 -111 266 -111Q197 -111 149.5 -78.5Q102 -46 80 26L125 47Q142 -15 179 -41Q216 -67 265 -67Z" glyph-name="three.OT" horiz-adv-x="535" /><glyph d="M19 0ZM131 -207Q90 -207 62 -188.5Q34 -170 19 -128L53 -112Q64 -144 83.5 -157.5Q103 -171 129 -171Q167 -171 185.5 -148Q204 -125 204 -84Q204 -49 188 -27Q172 -5 137 -5H99V31H136Q162 31 178.5 51Q195 71 195 107Q195 142 178 160.5Q161 179 129 179Q101 179 84.5 164Q68 149 57 119L23 133Q51 216 134 216Q187 216 212 188Q237 160 237 114Q237 43 187 15Q218 4 231.5 -23.5Q245 -51 245 -86Q245 -140 216.5 -173.5Q188 -207 131 -207Z" glyph-name="three.inf" horiz-adv-x="277" /><glyph glyph-name="threeperemspace" horiz-adv-x="248" unicode="&#8196;" /><glyph d="M484 273V227H40V273Z" glyph-name="threequarteremdash" horiz-adv-x="522" /><glyph d="M19 0ZM131 286Q90 286 62 304.5Q34 323 19 365L53 381Q64 349 83.5 335.5Q103 322 129 322Q167 322 185.5 345Q204 368 204 409Q204 444 188 466Q172 488 137 488H99V524H136Q162 524 178.5 544Q195 564 195 600Q195 635 178 653.5Q161 672 129 672Q101 672 84.5 657Q68 642 57 612L23 626Q51 709 134 709Q187 709 212 681Q237 653 237 607Q237 536 187 508Q218 497 231.5 469.5Q245 442 245 407Q245 353 216.5 319.5Q188 286 131 286ZM503 701 253 0H204L455 701ZM439 106V138L541 409H583L482 144H611V328H652V144H698V106H652V0H611V106Z" glyph-name="threequarters" horiz-adv-x="716" unicode="&#190;" /><glyph d="M19 288ZM131 288Q90 288 62 306.5Q34 325 19 367L53 383Q64 351 83.5 337.5Q103 324 129 324Q167 324 185.5 347Q204 370 204 411Q204 446 188 468Q172 490 137 490H99V526H136Q162 526 178.5 546Q195 566 195 602Q195 637 178 655.5Q161 674 129 674Q101 674 84.5 659Q68 644 57 614L23 628Q51 711 134 711Q187 711 212 683Q237 655 237 609Q237 538 187 510Q218 499 231.5 471.5Q245 444 245 409Q245 355 216.5 321.5Q188 288 131 288Z" glyph-name="threesuperior" horiz-adv-x="277" unicode="&#179;" /><glyph d="M303 668H339Q340 642 335 625.5Q330 609 321 599.5Q312 590 301 586Q290 582 280 582Q264 582 252 589.5Q240 597 229 606.5Q218 616 207.5 623.5Q197 631 185 631Q160 631 160 586H123Q123 611 128 627.5Q133 644 141 654Q149 664 159.5 667.5Q170 671 181 671Q197 671 210 663.5Q223 656 234 647.5Q245 639 255.5 631.5Q266 624 278 624Q302 624 303 668Z" glyph-name="tilde" horiz-adv-x="452" unicode="&#732;" /><glyph d="M22 700H208V670H132V406H100V670H22ZM236 406V700H273L354 447L436 700H473V406H442L443 636L367 406H340L266 634L267 406Z" glyph-name="trademark" horiz-adv-x="523" unicode="&#8482;" /><glyph d="M77 0ZM90 0V44L293 341Q336 404 356.5 453Q377 502 377 544Q377 604 348 634.5Q319 665 267 665Q216 665 179 637Q142 609 119 540L77 559Q105 644 154.5 677.5Q204 711 270 711Q349 711 390 668Q431 625 431 552Q431 503 410 449.5Q389 396 338 320L149 45L458 47V0Z" glyph-name="two" horiz-adv-x="535" unicode="2" /><glyph d="M31 0V44L234 341Q277 404 297.5 453Q318 502 318 544Q318 604 289 634.5Q260 665 208 665Q157 665 120 637Q83 609 60 540L18 559Q46 644 95.5 677.5Q145 711 211 711Q290 711 331 668Q372 625 372 552Q372 503 351 449.5Q330 396 279 320L90 45L399 47V0Z" glyph-name="two.LP" horiz-adv-x="425" /><glyph d="M35 0V39L210 280Q234 314 252 340.5Q270 367 281.5 389Q293 411 298.5 430Q304 449 304 468Q304 518 278.5 541.5Q253 565 209 565Q168 565 137 540.5Q106 516 87 456L45 475Q68 549 111 580Q154 611 215 611Q284 611 320 573.5Q356 536 356 473Q356 450 350 427.5Q344 405 331.5 379.5Q319 354 299.5 324Q280 294 253 258L95 45L376 46V0Z" glyph-name="two.OP" horiz-adv-x="406" /><glyph d="M97 0V39L277 280Q302 314 321 341Q340 368 352 390Q364 412 370 431Q376 450 376 469Q376 518 349 541.5Q322 565 276 565Q234 565 201 540.5Q168 516 149 456L107 475Q130 549 174.5 580Q219 611 282 611Q354 611 391 573.5Q428 536 428 473Q428 450 421.5 427.5Q415 405 402 379.5Q389 354 368.5 324.5Q348 295 320 258L157 45L448 46V0Z" glyph-name="two.OT" horiz-adv-x="535" /><glyph d="M16 0ZM22 -200V-167L142 2Q168 40 178 65.5Q188 91 188 111Q188 178 128 178Q99 178 80.5 162Q62 146 49 112L16 127Q48 216 131 216Q180 216 205.5 189.5Q231 163 231 117Q231 88 218 56.5Q205 25 173 -20L72 -163L245 -162V-200Z" glyph-name="two.inf" horiz-adv-x="264" /><glyph d="M16 295ZM22 295V328L142 497Q168 535 178 560.5Q188 586 188 606Q188 673 128 673Q99 673 80.5 657Q62 641 49 607L16 622Q48 711 131 711Q180 711 205.5 684.5Q231 658 231 612Q231 583 218 551.5Q205 520 173 475L72 332L245 333V295Z" glyph-name="twosuperior" horiz-adv-x="264" unicode="&#178;" /><glyph d="M393 0H348L344 101Q327 44 289.5 16.5Q252 -11 204 -11Q135 -11 101.5 36.5Q68 84 68 178V482H120V186Q120 105 146 69.5Q172 34 219 34Q276 34 306.5 84Q337 134 341 222V482H393Z" glyph-name="u" horiz-adv-x="465" unicode="u" /><glyph d="M68 0ZM393 0H348L344 101Q327 44 289.5 16.5Q252 -11 204 -11Q135 -11 101.5 36.5Q68 84 68 178V482H120V186Q120 105 146 69.5Q172 34 219 34Q276 34 306.5 84Q337 134 341 222V482H393ZM329 674 248 568H205V571L265 679H329Z" glyph-name="uacute" horiz-adv-x="465" unicode="&#250;" /><glyph d="M68 0ZM393 0H348L344 101Q327 44 289.5 16.5Q252 -11 204 -11Q135 -11 101.5 36.5Q68 84 68 178V482H120V186Q120 105 146 69.5Q172 34 219 34Q276 34 306.5 84Q337 134 341 222V482H393ZM294 678H331Q331 614 304.5 590Q278 566 230 566Q182 566 155.5 590Q129 614 129 678H166Q166 635 182 618.5Q198 602 229 602Q261 602 277.5 618.5Q294 635 294 678Z" glyph-name="ubreve" horiz-adv-x="465" unicode="&#365;" /><glyph d="M68 0ZM393 0H348L344 101Q327 44 289.5 16.5Q252 -11 204 -11Q135 -11 101.5 36.5Q68 84 68 178V482H120V186Q120 105 146 69.5Q172 34 219 34Q276 34 306.5 84Q337 134 341 222V482H393ZM229 647 169 568H117V570L207 679H253L343 570V568H290Z" glyph-name="ucircumflex" horiz-adv-x="465" unicode="&#251;" /><glyph d="M68 0ZM393 0H348L344 101Q327 44 289.5 16.5Q252 -11 204 -11Q135 -11 101.5 36.5Q68 84 68 178V482H120V186Q120 105 146 69.5Q172 34 219 34Q276 34 306.5 84Q337 134 341 222V482H393ZM256 622Q256 664 293 664Q331 664 331 622Q331 581 293 581Q256 581 256 622ZM134 622Q134 642 144 653Q154 664 171 664Q209 664 209 622Q209 581 171 581Q154 581 144 591.5Q134 602 134 622Z" glyph-name="udieresis" horiz-adv-x="465" unicode="&#252;" /><glyph d="M68 0ZM393 0H348L344 101Q327 44 289.5 16.5Q252 -11 204 -11Q135 -11 101.5 36.5Q68 84 68 178V482H120V186Q120 105 146 69.5Q172 34 219 34Q276 34 306.5 84Q337 134 341 222V482H393ZM213 569 131 675V680H196L256 572V569Z" glyph-name="ugrave" horiz-adv-x="465" unicode="&#249;" /><glyph d="M68 0ZM393 0H348L344 101Q327 44 289.5 16.5Q252 -11 204 -11Q135 -11 101.5 36.5Q68 84 68 178V482H120V186Q120 105 146 69.5Q172 34 219 34Q276 34 306.5 84Q337 134 341 222V482H393ZM384 674 297 568H258V571L319 679H384ZM270 679V674L183 568H143V571L204 679Z" glyph-name="uhungarumlaut" horiz-adv-x="465" unicode="&#369;" /><glyph d="M68 0ZM393 0H348L344 101Q327 44 289.5 16.5Q252 -11 204 -11Q135 -11 101.5 36.5Q68 84 68 178V482H120V186Q120 105 146 69.5Q172 34 219 34Q276 34 306.5 84Q337 134 341 222V482H393ZM322 641V602H139V641Z" glyph-name="umacron" horiz-adv-x="465" unicode="&#363;" /><glyph d="M362 0V-42H-2V0Z" glyph-name="underscore" horiz-adv-x="360" unicode="_" /><glyph glyph-name="uni00A0" horiz-adv-x="131" unicode="&#160;" /><glyph d="M265 273V227H39V273Z" glyph-name="uni00AD" horiz-adv-x="304" unicode="&#173;" /><glyph d="M13 0ZM13 700H421V652H244V0H190V652H13ZM254 -122Q254 -167 237 -201.5Q220 -236 189 -252L172 -230Q193 -217 207 -194Q221 -171 222 -143Q205 -148 192 -138Q179 -128 179 -107Q179 -88 189 -78.5Q199 -69 216 -69Q254 -69 254 -122Z" glyph-name="uni021A" horiz-adv-x="433" unicode="&#538;" /><glyph d="M17 0ZM213 -122Q213 -167 196 -201.5Q179 -236 148 -252L131 -230Q152 -217 166 -194Q180 -171 181 -143Q164 -148 151 -138Q138 -128 138 -107Q138 -88 148 -78.5Q158 -69 175 -69Q213 -69 213 -122ZM258 7Q244 -2 227 -6.5Q210 -11 194 -11Q170 -11 149.5 -3.5Q129 4 114 21Q99 38 90.5 64.5Q82 91 82 130V439H17V482H82V628H135V482H249V439H135V135Q135 81 151.5 59.5Q168 38 197 38Q223 38 244 52Z" glyph-name="uni021B" horiz-adv-x="273" unicode="&#539;" /><glyph d="M776 273V227H39V273Z" glyph-name="uni2015" horiz-adv-x="815" unicode="&#8213;" /><glyph d="M34 288ZM34 499Q34 612 65 661.5Q96 711 160 711Q222 711 252.5 661.5Q283 612 283 499Q283 386 253 337Q223 288 160 288Q96 288 65 337.5Q34 387 34 499ZM241 499Q241 548 235.5 581.5Q230 615 219.5 635.5Q209 656 194 665Q179 674 160 674Q140 674 124.5 665Q109 656 98.5 635.5Q88 615 82.5 582Q77 549 77 500Q77 450 82.5 416.5Q88 383 98.5 362.5Q109 342 124.5 333Q140 324 160 324Q179 324 194 333Q209 342 219.5 362Q230 382 235.5 415.5Q241 449 241 499Z" glyph-name="uni2070" horiz-adv-x="319" unicode="&#8304;" /><glyph d="M21 295ZM21 401V433L123 704H165L64 439H193V623H234V439H280V401H234V295H193V401Z" glyph-name="uni2074" horiz-adv-x="295" unicode="&#8308;" /><glyph d="M19 288ZM84 667 73 524Q89 539 108 545.5Q127 552 147 552Q192 552 221.5 522.5Q251 493 251 426Q251 365 221.5 326.5Q192 288 133 288Q95 288 64.5 306Q34 324 19 366L53 383Q75 324 132 324Q172 324 190.5 352.5Q209 381 209 426Q209 518 134 518Q93 518 62 481L34 493L49 704H235V667Z" glyph-name="uni2075" horiz-adv-x="276" unicode="&#8309;" /><glyph d="M34 288ZM161 288Q103 288 68.5 336.5Q34 385 34 497Q34 608 67.5 659.5Q101 711 163 711Q200 711 225 694.5Q250 678 264 642L233 625Q222 652 205 663.5Q188 675 165 675Q145 675 128.5 666Q112 657 100.5 636Q89 615 82.5 580.5Q76 546 76 495Q76 489 76.5 479.5Q77 470 78 462Q83 504 107.5 527.5Q132 551 170 551Q215 551 242.5 518.5Q270 486 270 423Q270 361 243 324.5Q216 288 161 288ZM87 417Q87 381 105 352Q123 323 159 323Q191 323 210 347.5Q229 372 229 421Q229 466 211 491Q193 516 160 516Q127 516 107 489.5Q87 463 87 417Z" glyph-name="uni2076" horiz-adv-x="299" unicode="&#8310;" /><glyph d="M18 295ZM116 295H71Q71 350 79.5 404Q88 458 103 507Q118 556 139 597Q160 638 185 666L18 665V704H229V669Q177 617 147 519Q117 421 116 295Z" glyph-name="uni2077" horiz-adv-x="236" unicode="&#8311;" /><glyph d="M34 288ZM148 288Q93 288 63.5 319.5Q34 351 34 406Q34 448 51.5 475Q69 502 98 512Q75 523 60.5 547Q46 571 46 605Q46 656 72.5 683.5Q99 711 148 711Q197 711 223.5 683.5Q250 656 250 605Q250 571 235.5 547Q221 523 197 512Q226 502 243.5 475Q261 448 261 406Q261 351 232 319.5Q203 288 148 288ZM211 603Q211 635 195 655Q179 675 148 675Q116 675 100.5 655Q85 635 85 603Q85 571 100.5 550Q116 529 148 529Q179 529 195 550Q211 571 211 603ZM220 408Q220 445 201.5 468.5Q183 492 148 492Q113 492 94 468.5Q75 445 75 408Q75 370 93.5 346Q112 322 148 322Q184 322 202 346Q220 370 220 408Z" glyph-name="uni2078" horiz-adv-x="296" unicode="&#8312;" /><glyph d="M27 288ZM209 581Q209 617 190.5 646Q172 675 137 675Q105 675 86 650.5Q67 626 67 577Q67 532 85 506.5Q103 481 137 481Q169 481 189 507.5Q209 534 209 581ZM135 711Q194 711 228 662Q262 613 262 502Q262 390 229 339Q196 288 133 288Q98 288 72 303Q46 318 32 353L62 374Q73 347 90.5 335Q108 323 131 323Q151 323 167.5 332.5Q184 342 195.5 363Q207 384 213.5 418.5Q220 453 220 503Q220 509 219.5 518.5Q219 528 218 536Q213 494 189 470Q165 446 127 446Q82 446 54.5 479Q27 512 27 575Q27 637 54 674Q81 711 135 711Z" glyph-name="uni2079" horiz-adv-x="297" unicode="&#8313;" /><glyph d="M30 360ZM136 360H102V459H30V491H102V594H136V491H207V459H136Z" glyph-name="uni207A" horiz-adv-x="236" unicode="&#8314;" /><glyph d="M30 457ZM207 492V457H30V492Z" glyph-name="uni207B" horiz-adv-x="236" unicode="&#8315;" /><glyph d="M30 420ZM207 532V496H30V532ZM207 456V420H30V456Z" glyph-name="uni207C" horiz-adv-x="236" unicode="&#8316;" /><glyph d="M26 243ZM139 278 128 243Q26 264 26 479Q26 696 128 717L139 682Q102 671 82 624Q62 577 62 479Q62 382 82 335.5Q102 289 139 278Z" glyph-name="uni207D" horiz-adv-x="163" unicode="&#8317;" /><glyph d="M24 243ZM34 243 24 278Q61 289 81 335.5Q101 382 101 479Q101 577 81 624Q61 671 24 682L34 717Q138 696 138 479Q138 264 34 243Z" glyph-name="uni207E" horiz-adv-x="163" unicode="&#8318;" /><glyph d="M34 204Q34 317 65 366.5Q96 416 160 416Q222 416 252.5 366.5Q283 317 283 204Q283 91 253 42Q223 -7 160 -7Q96 -7 65 42.5Q34 92 34 204ZM241 204Q241 253 235.5 286.5Q230 320 219.5 340.5Q209 361 194 370Q179 379 160 379Q140 379 124.5 370Q109 361 98.5 340.5Q88 320 82.5 287Q77 254 77 205Q77 155 82.5 121.5Q88 88 98.5 67.5Q109 47 124.5 38Q140 29 160 29Q179 29 194 38Q209 47 219.5 67Q230 87 235.5 120.5Q241 154 241 204Z" glyph-name="uni2080" horiz-adv-x="319" unicode="&#8320;" /><glyph d="M110 0H68V349L27 311L10 346L82 410H110Z" glyph-name="uni2081" horiz-adv-x="162" unicode="&#8321;" /><glyph d="M22 0V33L142 202Q168 240 178 265.5Q188 291 188 311Q188 378 128 378Q99 378 80.5 362Q62 346 49 312L16 327Q48 416 131 416Q180 416 205.5 389.5Q231 363 231 317Q231 288 218 256.5Q205 225 173 180L72 37L245 38V0Z" glyph-name="uni2082" horiz-adv-x="264" unicode="&#8322;" /><glyph d="M131 -7Q90 -7 62 11.5Q34 30 19 72L53 88Q64 56 83.5 42.5Q103 29 129 29Q167 29 185.5 52Q204 75 204 116Q204 151 188 173Q172 195 137 195H99V231H136Q162 231 178.5 251Q195 271 195 307Q195 342 178 360.5Q161 379 129 379Q101 379 84.5 364Q68 349 57 319L23 333Q51 416 134 416Q187 416 212 388Q237 360 237 314Q237 243 187 215Q218 204 231.5 176.5Q245 149 245 114Q245 60 216.5 26.5Q188 -7 131 -7Z" glyph-name="uni2083" horiz-adv-x="276" unicode="&#8323;" /><glyph d="M21 106V138L123 409H165L64 144H193V328H234V144H280V106H234V0H193V106Z" glyph-name="uni2084" horiz-adv-x="294" unicode="&#8324;" /><glyph d="M84 372 73 229Q89 244 108 250.5Q127 257 147 257Q192 257 221.5 227.5Q251 198 251 131Q251 70 221.5 31.5Q192 -7 133 -7Q95 -7 64.5 11Q34 29 19 71L53 88Q75 29 132 29Q172 29 190.5 57.5Q209 86 209 131Q209 223 134 223Q93 223 62 186L34 198L49 409H235V372Z" glyph-name="uni2085" horiz-adv-x="277" unicode="&#8325;" /><glyph d="M161 -7Q103 -7 68.5 41.5Q34 90 34 202Q34 313 67.5 364.5Q101 416 163 416Q200 416 225 399.5Q250 383 264 347L233 330Q222 357 205 368.5Q188 380 165 380Q145 380 128.5 371Q112 362 100.5 341Q89 320 82.5 285.5Q76 251 76 200Q76 194 76.5 184.5Q77 175 78 167Q83 209 107.5 232.5Q132 256 170 256Q215 256 242.5 223.5Q270 191 270 128Q270 66 243 29.5Q216 -7 161 -7ZM87 122Q87 86 105 57Q123 28 159 28Q191 28 210 52.5Q229 77 229 126Q229 171 211 196Q193 221 160 221Q127 221 107 194.5Q87 168 87 122Z" glyph-name="uni2086" horiz-adv-x="298" unicode="&#8326;" /><glyph d="M116 0H71Q71 55 79.5 109Q88 163 103 212Q118 261 139 302Q160 343 185 371L18 370V409H229V374Q177 322 147 224Q117 126 116 0Z" glyph-name="uni2087" horiz-adv-x="236" unicode="&#8327;" /><glyph d="M148 -7Q93 -7 63.5 24.5Q34 56 34 111Q34 153 51.5 180Q69 207 98 217Q75 228 60.5 252Q46 276 46 310Q46 361 72.5 388.5Q99 416 148 416Q197 416 223.5 388.5Q250 361 250 310Q250 276 235.5 252Q221 228 197 217Q226 207 243.5 180Q261 153 261 111Q261 56 232 24.5Q203 -7 148 -7ZM211 308Q211 340 195 360Q179 380 148 380Q116 380 100.5 360Q85 340 85 308Q85 276 100.5 255Q116 234 148 234Q179 234 195 255Q211 276 211 308ZM220 113Q220 150 201.5 173.5Q183 197 148 197Q113 197 94 173.5Q75 150 75 113Q75 75 93.5 51Q112 27 148 27Q184 27 202 51Q220 75 220 113Z" glyph-name="uni2088" horiz-adv-x="296" unicode="&#8328;" /><glyph d="M209 286Q209 322 190.5 351Q172 380 137 380Q105 380 86 355.5Q67 331 67 282Q67 237 85 211.5Q103 186 137 186Q169 186 189 212.5Q209 239 209 286ZM135 416Q194 416 228 367Q262 318 262 207Q262 95 229 44Q196 -7 133 -7Q98 -7 72 8Q46 23 32 58L62 79Q73 52 90.5 40Q108 28 131 28Q151 28 167.5 37.5Q184 47 195.5 68Q207 89 213.5 123.5Q220 158 220 208Q220 214 219.5 223.5Q219 233 218 241Q213 199 189 175Q165 151 127 151Q82 151 54.5 184Q27 217 27 280Q27 342 54 379Q81 416 135 416Z" glyph-name="uni2089" horiz-adv-x="297" unicode="&#8329;" /><glyph d="M136 64H102V163H30V195H102V298H136V195H207V163H136Z" glyph-name="uni208A" horiz-adv-x="236" unicode="&#8330;" /><glyph d="M207 196V161H30V196Z" glyph-name="uni208B" horiz-adv-x="236" unicode="&#8331;" /><glyph d="M207 236V200H30V236ZM207 160V124H30V160Z" glyph-name="uni208C" horiz-adv-x="236" unicode="&#8332;" /><glyph d="M139 -18 128 -53Q26 -32 26 183Q26 400 128 421L139 386Q102 375 82 328Q62 281 62 183Q62 86 82 39.5Q102 -7 139 -18Z" glyph-name="uni208D" horiz-adv-x="163" unicode="&#8333;" /><glyph d="M34 -53 24 -18Q61 -7 81 39.5Q101 86 101 183Q101 281 81 328Q61 375 24 386L34 421Q138 400 138 183Q138 -32 34 -53Z" glyph-name="uni208E" horiz-adv-x="163" unicode="&#8334;" /><glyph d="M10 0ZM465 -7Q424 -7 396 11.5Q368 30 353 72L387 88Q398 56 417.5 42.5Q437 29 463 29Q501 29 519.5 52Q538 75 538 116Q538 151 522 173Q506 195 471 195H433V231H470Q496 231 512.5 251Q529 271 529 307Q529 342 512 360.5Q495 379 463 379Q435 379 418.5 364Q402 349 391 319L357 333Q385 416 468 416Q521 416 546 388Q571 360 571 314Q571 243 521 215Q552 204 565.5 176.5Q579 149 579 114Q579 60 550.5 26.5Q522 -7 465 -7ZM110 293H68V642L27 604L10 639L82 703H110ZM406 701 156 0H107L358 701Z" glyph-name="uni2153" horiz-adv-x="615" unicode="&#8531;" /><glyph d="M16 0ZM563 -7Q522 -7 494 11.5Q466 30 451 72L485 88Q496 56 515.5 42.5Q535 29 561 29Q599 29 617.5 52Q636 75 636 116Q636 151 620 173Q604 195 569 195H531V231H568Q594 231 610.5 251Q627 271 627 307Q627 342 610 360.5Q593 379 561 379Q533 379 516.5 364Q500 349 489 319L455 333Q483 416 566 416Q619 416 644 388Q669 360 669 314Q669 243 619 215Q650 204 663.5 176.5Q677 149 677 114Q677 60 648.5 26.5Q620 -7 563 -7ZM22 293V326L142 495Q168 533 178 558.5Q188 584 188 604Q188 671 128 671Q99 671 80.5 655Q62 639 49 605L16 620Q48 709 131 709Q180 709 205.5 682.5Q231 656 231 610Q231 581 218 549.5Q205 518 173 473L72 330L245 331V293ZM503 701 253 0H204L455 701Z" glyph-name="uni2154" horiz-adv-x="712" unicode="&#8532;" /><glyph d="M10 0ZM110 293H68V642L27 604L10 639L82 703H110ZM427 372 416 229Q432 244 451 250.5Q470 257 490 257Q535 257 564.5 227.5Q594 198 594 131Q594 70 564.5 31.5Q535 -7 476 -7Q438 -7 407.5 11Q377 29 362 71L396 88Q418 29 475 29Q515 29 533.5 57.5Q552 86 552 131Q552 223 477 223Q436 223 405 186L377 198L392 409H578V372ZM406 701 156 0H107L358 701Z" glyph-name="uni2155" horiz-adv-x="618" unicode="&#8533;" /><glyph d="M16 0ZM22 293V326L142 495Q168 533 178 558.5Q188 584 188 604Q188 671 128 671Q99 671 80.5 655Q62 639 49 605L16 620Q48 709 131 709Q180 709 205.5 682.5Q231 656 231 610Q231 581 218 549.5Q205 518 173 473L72 330L245 331V293ZM527 372 516 229Q532 244 551 250.5Q570 257 590 257Q635 257 664.5 227.5Q694 198 694 131Q694 70 664.5 31.5Q635 -7 576 -7Q538 -7 507.5 11Q477 29 462 71L496 88Q518 29 575 29Q615 29 633.5 57.5Q652 86 652 131Q652 223 577 223Q536 223 505 186L477 198L492 409H678V372ZM506 701 256 0H207L458 701Z" glyph-name="uni2156" horiz-adv-x="717" unicode="&#8534;" /><glyph d="M19 0ZM131 286Q90 286 62 304.5Q34 323 19 365L53 381Q64 349 83.5 335.5Q103 322 129 322Q167 322 185.5 345Q204 368 204 409Q204 444 188 466Q172 488 137 488H99V524H136Q162 524 178.5 544Q195 564 195 600Q195 635 178 653.5Q161 672 129 672Q101 672 84.5 657Q68 642 57 612L23 626Q51 709 134 709Q187 709 212 681Q237 653 237 607Q237 536 187 508Q218 497 231.5 469.5Q245 442 245 407Q245 353 216.5 319.5Q188 286 131 286ZM524 372 513 229Q529 244 548 250.5Q567 257 587 257Q632 257 661.5 227.5Q691 198 691 131Q691 70 661.5 31.5Q632 -7 573 -7Q535 -7 504.5 11Q474 29 459 71L493 88Q515 29 572 29Q612 29 630.5 57.5Q649 86 649 131Q649 223 574 223Q533 223 502 186L474 198L489 409H675V372ZM503 701 253 0H204L455 701Z" glyph-name="uni2157" horiz-adv-x="714" unicode="&#8535;" /><glyph d="M21 0ZM546 372 535 229Q551 244 570 250.5Q589 257 609 257Q654 257 683.5 227.5Q713 198 713 131Q713 70 683.5 31.5Q654 -7 595 -7Q557 -7 526.5 11Q496 29 481 71L515 88Q537 29 594 29Q634 29 652.5 57.5Q671 86 671 131Q671 223 596 223Q555 223 524 186L496 198L511 409H697V372ZM524 701 274 0H225L476 701ZM21 399V431L123 702H165L64 437H193V621H234V437H280V399H234V293H193V399Z" glyph-name="uni2158" horiz-adv-x="736" unicode="&#8536;" /><glyph d="M10 0ZM110 293H68V642L27 604L10 639L82 703H110ZM501 -7Q443 -7 408.5 41.5Q374 90 374 202Q374 313 407.5 364.5Q441 416 503 416Q540 416 565 399.5Q590 383 604 347L573 330Q562 357 545 368.5Q528 380 505 380Q485 380 468.5 371Q452 362 440.5 341Q429 320 422.5 285.5Q416 251 416 200Q416 194 416.5 184.5Q417 175 418 167Q423 209 447.5 232.5Q472 256 510 256Q555 256 582.5 223.5Q610 191 610 128Q610 66 583 29.5Q556 -7 501 -7ZM427 122Q427 86 445 57Q463 28 499 28Q531 28 550 52.5Q569 77 569 126Q569 171 551 196Q533 221 500 221Q467 221 447 194.5Q427 168 427 122ZM406 701 156 0H107L358 701Z" glyph-name="uni2159" horiz-adv-x="641" unicode="&#8537;" /><glyph d="M19 0ZM84 665 73 522Q89 537 108 543.5Q127 550 147 550Q192 550 221.5 520.5Q251 491 251 424Q251 363 221.5 324.5Q192 286 133 286Q95 286 64.5 304Q34 322 19 364L53 381Q75 322 132 322Q172 322 190.5 350.5Q209 379 209 424Q209 516 134 516Q93 516 62 479L34 491L49 702H235V665ZM591 -7Q533 -7 498.5 41.5Q464 90 464 202Q464 313 497.5 364.5Q531 416 593 416Q630 416 655 399.5Q680 383 694 347L663 330Q652 357 635 368.5Q618 380 595 380Q575 380 558.5 371Q542 362 530.5 341Q519 320 512.5 285.5Q506 251 506 200Q506 194 506.5 184.5Q507 175 508 167Q513 209 537.5 232.5Q562 256 600 256Q645 256 672.5 223.5Q700 191 700 128Q700 66 673 29.5Q646 -7 591 -7ZM517 122Q517 86 535 57Q553 28 589 28Q621 28 640 52.5Q659 77 659 126Q659 171 641 196Q623 221 590 221Q557 221 537 194.5Q517 168 517 122ZM503 701 253 0H204L455 701Z" glyph-name="uni215A" horiz-adv-x="731" unicode="&#8538;" /><glyph d="M10 0ZM110 293H68V642L27 604L10 639L82 703H110ZM489 -7Q434 -7 404.5 24.5Q375 56 375 111Q375 153 392.5 180Q410 207 439 217Q416 228 401.5 252Q387 276 387 310Q387 361 413.5 388.5Q440 416 489 416Q538 416 564.5 388.5Q591 361 591 310Q591 276 576.5 252Q562 228 538 217Q567 207 584.5 180Q602 153 602 111Q602 56 573 24.5Q544 -7 489 -7ZM552 308Q552 340 536 360Q520 380 489 380Q457 380 441.5 360Q426 340 426 308Q426 276 441.5 255Q457 234 489 234Q520 234 536 255Q552 276 552 308ZM561 113Q561 150 542.5 173.5Q524 197 489 197Q454 197 435 173.5Q416 150 416 113Q416 75 434.5 51Q453 27 489 27Q525 27 543 51Q561 75 561 113ZM406 701 156 0H107L358 701Z" glyph-name="uni215B" horiz-adv-x="637" unicode="&#8539;" /><glyph d="M19 0ZM131 286Q90 286 62 304.5Q34 323 19 365L53 381Q64 349 83.5 335.5Q103 322 129 322Q167 322 185.5 345Q204 368 204 409Q204 444 188 466Q172 488 137 488H99V524H136Q162 524 178.5 544Q195 564 195 600Q195 635 178 653.5Q161 672 129 672Q101 672 84.5 657Q68 642 57 612L23 626Q51 709 134 709Q187 709 212 681Q237 653 237 607Q237 536 187 508Q218 497 231.5 469.5Q245 442 245 407Q245 353 216.5 319.5Q188 286 131 286ZM586 -7Q531 -7 501.5 24.5Q472 56 472 111Q472 153 489.5 180Q507 207 536 217Q513 228 498.5 252Q484 276 484 310Q484 361 510.5 388.5Q537 416 586 416Q635 416 661.5 388.5Q688 361 688 310Q688 276 673.5 252Q659 228 635 217Q664 207 681.5 180Q699 153 699 111Q699 56 670 24.5Q641 -7 586 -7ZM649 308Q649 340 633 360Q617 380 586 380Q554 380 538.5 360Q523 340 523 308Q523 276 538.5 255Q554 234 586 234Q617 234 633 255Q649 276 649 308ZM658 113Q658 150 639.5 173.5Q621 197 586 197Q551 197 532 173.5Q513 150 513 113Q513 75 531.5 51Q550 27 586 27Q622 27 640 51Q658 75 658 113ZM503 701 253 0H204L455 701Z" glyph-name="uni215C" horiz-adv-x="734" unicode="&#8540;" /><glyph d="M19 0ZM586 -7Q531 -7 501.5 24.5Q472 56 472 111Q472 153 489.5 180Q507 207 536 217Q513 228 498.5 252Q484 276 484 310Q484 361 510.5 388.5Q537 416 586 416Q635 416 661.5 388.5Q688 361 688 310Q688 276 673.5 252Q659 228 635 217Q664 207 681.5 180Q699 153 699 111Q699 56 670 24.5Q641 -7 586 -7ZM649 308Q649 340 633 360Q617 380 586 380Q554 380 538.5 360Q523 340 523 308Q523 276 538.5 255Q554 234 586 234Q617 234 633 255Q649 276 649 308ZM658 113Q658 150 639.5 173.5Q621 197 586 197Q551 197 532 173.5Q513 150 513 113Q513 75 531.5 51Q550 27 586 27Q622 27 640 51Q658 75 658 113ZM84 665 73 522Q89 537 108 543.5Q127 550 147 550Q192 550 221.5 520.5Q251 491 251 424Q251 363 221.5 324.5Q192 286 133 286Q95 286 64.5 304Q34 322 19 364L53 381Q75 322 132 322Q172 322 190.5 350.5Q209 379 209 424Q209 516 134 516Q93 516 62 479L34 491L49 702H235V665ZM503 701 253 0H204L455 701Z" glyph-name="uni215D" horiz-adv-x="734" unicode="&#8541;" /><glyph d="M18 0ZM533 -7Q478 -7 448.5 24.5Q419 56 419 111Q419 153 436.5 180Q454 207 483 217Q460 228 445.5 252Q431 276 431 310Q431 361 457.5 388.5Q484 416 533 416Q582 416 608.5 388.5Q635 361 635 310Q635 276 620.5 252Q606 228 582 217Q611 207 628.5 180Q646 153 646 111Q646 56 617 24.5Q588 -7 533 -7ZM596 308Q596 340 580 360Q564 380 533 380Q501 380 485.5 360Q470 340 470 308Q470 276 485.5 255Q501 234 533 234Q564 234 580 255Q596 276 596 308ZM605 113Q605 150 586.5 173.5Q568 197 533 197Q498 197 479 173.5Q460 150 460 113Q460 75 478.5 51Q497 27 533 27Q569 27 587 51Q605 75 605 113ZM116 293H71Q71 348 79.5 402Q88 456 103 505Q118 554 139 595Q160 636 185 664L18 663V702H229V667Q177 615 147 517Q117 419 116 293ZM450 701 200 0H151L402 701Z" glyph-name="uni215E" horiz-adv-x="681" unicode="&#8542;" /><glyph d="M10 0ZM110 293H68V642L27 604L10 639L82 703H110ZM406 701 156 0H107L358 701Z" glyph-name="uni215F" horiz-adv-x="625" unicode="&#8543;" /><glyph d="M426 -180Q396 -204 358 -204Q342 -204 326.5 -199.5Q311 -195 299 -184Q287 -173 280 -154.5Q273 -136 273 -108Q273 -60 295.5 -28.5Q318 3 347 16L344 107Q327 47 289.5 18Q252 -11 204 -11Q135 -11 101.5 36.5Q68 84 68 178V482H120V186Q120 105 146 69.5Q172 34 219 34Q276 34 306.5 84Q337 134 341 222V482H393V0H387Q353 -5 331.5 -34Q310 -63 310 -103Q310 -138 326 -151Q342 -164 362 -164Q390 -164 408 -147Z" glyph-name="uogonek" horiz-adv-x="466" unicode="&#371;" /><glyph d="M68 0ZM393 0H348L344 101Q327 44 289.5 16.5Q252 -11 204 -11Q135 -11 101.5 36.5Q68 84 68 178V482H120V186Q120 105 146 69.5Q172 34 219 34Q276 34 306.5 84Q337 134 341 222V482H393ZM154 635Q154 674 176 697.5Q198 721 231 721Q263 721 284.5 697.5Q306 674 306 635Q306 597 284.5 573.5Q263 550 230 550Q198 550 176 573.5Q154 597 154 635ZM185 635Q185 610 197.5 594Q210 578 230 578Q250 578 263 594Q276 610 276 635Q276 661 263 676.5Q250 692 231 692Q211 692 198 676.5Q185 661 185 635Z" glyph-name="uring" horiz-adv-x="465" unicode="&#367;" /><glyph d="M68 0ZM393 0H348L344 101Q327 44 289.5 16.5Q252 -11 204 -11Q135 -11 101.5 36.5Q68 84 68 178V482H120V186Q120 105 146 69.5Q172 34 219 34Q276 34 306.5 84Q337 134 341 222V482H393ZM301 668H337Q338 642 333 625.5Q328 609 319 599.5Q310 590 299 586Q288 582 278 582Q262 582 250 589.5Q238 597 227 606.5Q216 616 205.5 623.5Q195 631 183 631Q158 631 158 586H121Q121 611 126 627.5Q131 644 139 654Q147 664 157.5 667.5Q168 671 179 671Q195 671 208 663.5Q221 656 232 647.5Q243 639 253.5 631.5Q264 624 276 624Q300 624 301 668Z" glyph-name="utilde" horiz-adv-x="465" unicode="&#361;" /><glyph d="M10 482H65L188 57L311 482H364L215 0H158Z" glyph-name="v" horiz-adv-x="373" unicode="v" /><glyph d="M247 474H304L393 65L486 482H537L421 0H362L274 403L186 0H128L11 482H65L157 65Z" glyph-name="w" horiz-adv-x="548" unicode="w" /><glyph d="M11 0ZM247 474H304L393 65L486 482H537L421 0H362L274 403L186 0H128L11 482H65L157 65ZM373 674 292 568H249V571L309 679H373Z" glyph-name="wacute" horiz-adv-x="548" unicode="&#7811;" /><glyph d="M11 0ZM247 474H304L393 65L486 482H537L421 0H362L274 403L186 0H128L11 482H65L157 65ZM273 647 213 568H161V570L251 679H297L387 570V568H334Z" glyph-name="wcircumflex" horiz-adv-x="548" unicode="&#373;" /><glyph d="M11 0ZM247 474H304L393 65L486 482H537L421 0H362L274 403L186 0H128L11 482H65L157 65ZM299 622Q299 664 336 664Q374 664 374 622Q374 581 336 581Q299 581 299 622ZM177 622Q177 642 187 653Q197 664 214 664Q252 664 252 622Q252 581 214 581Q197 581 187 591.5Q177 602 177 622Z" glyph-name="wdieresis" horiz-adv-x="548" unicode="&#7813;" /><glyph d="M11 0ZM247 474H304L393 65L486 482H537L421 0H362L274 403L186 0H128L11 482H65L157 65ZM257 569 175 675V680H240L300 572V569Z" glyph-name="wgrave" horiz-adv-x="548" unicode="&#7809;" /><glyph d="M307 0 188 205 70 0H15L160 248L24 482H83L191 290L300 482H355L219 248L366 0Z" glyph-name="x" horiz-adv-x="380" unicode="x" /><glyph d="M147 -56 161 -7 10 482H65L188 62L312 482H365L193 -74Q180 -116 165 -142.5Q150 -169 133 -184Q116 -199 97.5 -204.5Q79 -210 59 -210Q40 -210 25 -207Q10 -204 -8 -196L7 -151Q21 -156 32.5 -159Q44 -162 56 -162Q70 -162 82.5 -158Q95 -154 106.5 -142Q118 -130 128 -109.5Q138 -89 147 -56Z" glyph-name="y" horiz-adv-x="375" unicode="y" /><glyph d="M208 -209Q146 -209 106 -181Q66 -153 43 -93L88 -71Q105 -122 134.5 -143.5Q164 -165 205 -165Q265 -165 298.5 -125Q332 -85 332 4V102Q314 48 278.5 23Q243 -2 198 -2Q132 -2 100 45Q68 92 68 184V482H120V191Q120 111 144 76.5Q168 42 212 42Q268 42 298 91.5Q328 141 332 229V482H384V2Q384 -53 371.5 -92.5Q359 -132 335.5 -158Q312 -184 279.5 -196.5Q247 -209 208 -209Z" glyph-name="y.school" horiz-adv-x="457" /><glyph d="M0 0ZM147 -56 161 -7 10 482H65L188 62L312 482H365L193 -74Q180 -116 165 -142.5Q150 -169 133 -184Q116 -199 97.5 -204.5Q79 -210 59 -210Q40 -210 25 -207Q10 -204 -8 -196L7 -151Q21 -156 32.5 -159Q44 -162 56 -162Q70 -162 82.5 -158Q95 -154 106.5 -142Q118 -130 128 -109.5Q138 -89 147 -56ZM287 674 206 568H163V571L223 679H287Z" glyph-name="yacute" horiz-adv-x="375" unicode="&#253;" /><glyph d="M43 0ZM208 -209Q146 -209 106 -181Q66 -153 43 -93L88 -71Q105 -122 134.5 -143.5Q164 -165 205 -165Q265 -165 298.5 -125Q332 -85 332 4V102Q314 48 278.5 23Q243 -2 198 -2Q132 -2 100 45Q68 92 68 184V482H120V191Q120 111 144 76.5Q168 42 212 42Q268 42 298 91.5Q328 141 332 229V482H384V2Q384 -53 371.5 -92.5Q359 -132 335.5 -158Q312 -184 279.5 -196.5Q247 -209 208 -209ZM309 674 228 568H185V571L245 679H309Z" glyph-name="yacute.school" horiz-adv-x="458" /><glyph d="M0 0ZM147 -56 161 -7 10 482H65L188 62L312 482H365L193 -74Q180 -116 165 -142.5Q150 -169 133 -184Q116 -199 97.5 -204.5Q79 -210 59 -210Q40 -210 25 -207Q10 -204 -8 -196L7 -151Q21 -156 32.5 -159Q44 -162 56 -162Q70 -162 82.5 -158Q95 -154 106.5 -142Q118 -130 128 -109.5Q138 -89 147 -56ZM187 647 127 568H75V570L165 679H211L301 570V568H248Z" glyph-name="ycircumflex" horiz-adv-x="375" unicode="&#375;" /><glyph d="M43 0ZM230 647 170 568H118V570L208 679H254L344 570V568H291ZM208 -209Q146 -209 106 -181Q66 -153 43 -93L88 -71Q105 -122 134.5 -143.5Q164 -165 205 -165Q265 -165 298.5 -125Q332 -85 332 4V102Q314 48 278.5 23Q243 -2 198 -2Q132 -2 100 45Q68 92 68 184V482H120V191Q120 111 144 76.5Q168 42 212 42Q268 42 298 91.5Q328 141 332 229V482H384V2Q384 -53 371.5 -92.5Q359 -132 335.5 -158Q312 -184 279.5 -196.5Q247 -209 208 -209Z" glyph-name="ycircumflex.school" horiz-adv-x="458" /><glyph d="M0 0ZM147 -56 161 -7 10 482H65L188 62L312 482H365L193 -74Q180 -116 165 -142.5Q150 -169 133 -184Q116 -199 97.5 -204.5Q79 -210 59 -210Q40 -210 25 -207Q10 -204 -8 -196L7 -151Q21 -156 32.5 -159Q44 -162 56 -162Q70 -162 82.5 -158Q95 -154 106.5 -142Q118 -130 128 -109.5Q138 -89 147 -56ZM213 622Q213 664 250 664Q288 664 288 622Q288 581 250 581Q213 581 213 622ZM91 622Q91 642 101 653Q111 664 128 664Q166 664 166 622Q166 581 128 581Q111 581 101 591.5Q91 602 91 622Z" glyph-name="ydieresis" horiz-adv-x="375" unicode="&#255;" /><glyph d="M43 0ZM254 622Q254 664 291 664Q329 664 329 622Q329 581 291 581Q254 581 254 622ZM132 622Q132 642 142 653Q152 664 169 664Q207 664 207 622Q207 581 169 581Q152 581 142 591.5Q132 602 132 622ZM208 -209Q146 -209 106 -181Q66 -153 43 -93L88 -71Q105 -122 134.5 -143.5Q164 -165 205 -165Q265 -165 298.5 -125Q332 -85 332 4V102Q314 48 278.5 23Q243 -2 198 -2Q132 -2 100 45Q68 92 68 184V482H120V191Q120 111 144 76.5Q168 42 212 42Q268 42 298 91.5Q328 141 332 229V482H384V2Q384 -53 371.5 -92.5Q359 -132 335.5 -158Q312 -184 279.5 -196.5Q247 -209 208 -209Z" glyph-name="ydieresis.school" horiz-adv-x="458" /><glyph d="M408 243H258V0H204V243H54V288H201L175 345H54V389H155L13 700H73L233 334L391 700H448L306 389H408V345H286L260 288H408Z" glyph-name="yen" horiz-adv-x="462" unicode="&#165;" /><glyph d="M29 0V42L267 438H35V482H324V440L86 44H329V0Z" glyph-name="z" horiz-adv-x="361" unicode="z" /><glyph d="M29 0ZM29 0V42L267 438H35V482H324V440L86 44H329V0ZM279 674 198 568H155V571L215 679H279Z" glyph-name="zacute" horiz-adv-x="361" unicode="&#378;" /><glyph d="M29 0ZM29 0V42L267 438H35V482H324V440L86 44H329V0ZM179 602 241 679H292V677L201 568H156L66 677V679H120Z" glyph-name="zcaron" horiz-adv-x="361" unicode="&#382;" /><glyph d="M29 0ZM29 0V42L267 438H35V482H324V440L86 44H329V0ZM141 622Q141 642 151.5 652.5Q162 663 179 663Q217 663 217 622Q217 602 207 591Q197 580 179 580Q162 580 151.5 591Q141 602 141 622Z" glyph-name="zdotaccent" horiz-adv-x="361" unicode="&#380;" /><glyph d="M63 0ZM63 350Q63 447 76 515.5Q89 584 114.5 627.5Q140 671 178.5 691Q217 711 268 711Q319 711 357.5 691Q396 671 421.5 627.5Q447 584 460 515.5Q473 447 473 350Q473 253 460 184.5Q447 116 421.5 72.5Q396 29 357.5 9Q319 -11 268 -11Q217 -11 178.5 9.5Q140 30 114.5 73.5Q89 117 76 185.5Q63 254 63 350ZM420 350Q420 439 409.5 499.5Q399 560 379.5 596.5Q360 633 332 649Q304 665 268 665Q232 665 204 649Q176 633 156.5 596Q137 559 127 498.5Q117 438 117 350Q117 261 127 200.5Q137 140 156.5 103Q176 66 204 50Q232 34 268 34Q304 34 332 50Q360 66 379.5 103Q399 140 409.5 200.5Q420 261 420 350Z" glyph-name="zero" horiz-adv-x="535" unicode="0" /><glyph d="M58 350Q58 447 71 515.5Q84 584 109.5 627.5Q135 671 173.5 691Q212 711 263 711Q314 711 352.5 691Q391 671 416.5 627.5Q442 584 455 515.5Q468 447 468 350Q468 253 455 184.5Q442 116 416.5 72.5Q391 29 352.5 9Q314 -11 263 -11Q212 -11 173.5 9.5Q135 30 109.5 73.5Q84 117 71 185.5Q58 254 58 350ZM415 350Q415 439 404.5 499.5Q394 560 374.5 596.5Q355 633 327 649Q299 665 263 665Q227 665 199 649Q171 633 151.5 596Q132 559 122 498.5Q112 438 112 350Q112 261 122 200.5Q132 140 151.5 103Q171 66 199 50Q227 34 263 34Q299 34 327 50Q355 66 374.5 103Q394 140 404.5 200.5Q415 261 415 350Z" glyph-name="zero.LP" horiz-adv-x="527" /><glyph d="M235 611Q280 611 315.5 594Q351 577 375 539.5Q399 502 411.5 443Q424 384 424 300Q424 217 411.5 158Q399 99 374.5 61.5Q350 24 315 6.5Q280 -11 235 -11Q190 -11 155 6Q120 23 96.5 60.5Q73 98 60.5 157Q48 216 48 300Q48 384 60.5 443Q73 502 96.5 539.5Q120 577 155 594Q190 611 235 611ZM235 566Q203 566 177.5 552.5Q152 539 134.5 508Q117 477 108 426Q99 375 99 300Q99 225 108 174Q117 123 134.5 92Q152 61 177.5 47.5Q203 34 235 34Q268 34 293.5 47.5Q319 61 336.5 92Q354 123 363 174Q372 225 372 300Q372 375 363 426Q354 477 336.5 508Q319 539 293.5 552.5Q268 566 235 566Z" glyph-name="zero.OP" horiz-adv-x="472" /><glyph d="M267 611Q312 611 347.5 594Q383 577 407 539.5Q431 502 443.5 443Q456 384 456 300Q456 217 443.5 158Q431 99 406.5 61.5Q382 24 347 6.5Q312 -11 267 -11Q222 -11 187 6Q152 23 128.5 60.5Q105 98 92.5 157Q80 216 80 300Q80 384 92.5 443Q105 502 128.5 539.5Q152 577 187 594Q222 611 267 611ZM267 566Q235 566 209.5 552.5Q184 539 166.5 508Q149 477 140 426Q131 375 131 300Q131 225 140 174Q149 123 166.5 92Q184 61 209.5 47.5Q235 34 267 34Q300 34 325.5 47.5Q351 61 368.5 92Q386 123 395 174Q404 225 404 300Q404 375 395 426Q386 477 368.5 508Q351 539 325.5 552.5Q300 566 267 566Z" glyph-name="zero.OT" horiz-adv-x="535" /><glyph d="M34 0ZM34 4Q34 117 65 166.5Q96 216 160 216Q222 216 252.5 166.5Q283 117 283 4Q283 -109 253 -158Q223 -207 160 -207Q96 -207 65 -157.5Q34 -108 34 4ZM241 4Q241 53 235.5 86.5Q230 120 219.5 140.5Q209 161 194 170Q179 179 160 179Q140 179 124.5 170Q109 161 98.5 140.5Q88 120 82.5 87Q77 54 77 5Q77 -45 82.5 -78.5Q88 -112 98.5 -132.5Q109 -153 124.5 -162Q140 -171 160 -171Q179 -171 194 -162Q209 -153 219.5 -133Q230 -113 235.5 -79.5Q241 -46 241 4Z" glyph-name="zero.inf" horiz-adv-x="319" /><glyph glyph-name="zerowidthspace" horiz-adv-x="0" unicode="&#8203;" /></font>
</defs>
</svg>
