<?xml version="1.0" standalone="no"?><!DOCTYPE svg PUBLIC "-//W3C//DTD SVG 1.1//EN" "http://www.w3.org/Graphics/SVG/1.1/DTD/svg11.dtd" ><svg version="1.1" xmlns="http://www.w3.org/2000/svg"><defs><font horiz-adv-x="0" id="font"><font-face ascent="957" bbox="-67 -245 1023 932" cap-height="700" descent="-220" font-family="Honeywell Cond Web" font-stretch="condensed" font-style="normal" font-weight="300" units-per-em="1000" x-height="478" /><missing-glyph d="M84 0V700H599V0ZM328 349 106 668V31ZM354 349 577 31V669ZM124 678 341 366 559 678ZM340 333 124 21H558Z" horiz-adv-x="683" /><glyph d="M0 0Z" glyph-name=".ttfautohint" horiz-adv-x="261" /><glyph d="M223 664 96 198H351ZM404 0 357 171H90L43 0H12L205 700H242L435 0Z" glyph-name="A" horiz-adv-x="447" unicode="A" /><glyph d="M224 668 95 198H344ZM393 0 349 171H89L43 0H12L205 700H628V674H252L330 365H588V338H337L417 27H636V0Z" glyph-name="AE" horiz-adv-x="667" unicode="&#198;" /><glyph d="M12 0ZM223 664 96 198H351ZM404 0 357 171H90L43 0H12L205 700H242L435 0ZM309 888 234 785H209V788L271 892H309Z" glyph-name="Aacute" horiz-adv-x="447" unicode="&#193;" /><glyph d="M12 0ZM223 664 96 198H351ZM404 0 357 171H90L43 0H12L205 700H242L435 0ZM293 891H314Q314 832 290 809Q266 786 223 786Q180 786 156 809Q132 832 132 891H154Q154 843 171.5 825.5Q189 808 223 808Q256 808 274.5 825.5Q293 843 293 891Z" glyph-name="Abreve" horiz-adv-x="447" unicode="&#258;" /><glyph d="M12 0ZM223 664 96 198H351ZM404 0 357 171H90L43 0H12L205 700H242L435 0ZM224 871 155 785H124V787L212 892H237L324 787V785H293Z" glyph-name="Acircumflex" horiz-adv-x="447" unicode="&#194;" /><glyph d="M12 0ZM223 664 96 198H351ZM404 0 357 171H90L43 0H12L205 700H242L435 0ZM251 832Q251 846 258.5 854Q266 862 278 862Q305 862 305 832Q305 803 278 803Q266 803 258.5 810.5Q251 818 251 832ZM144 832Q144 846 151.5 854Q159 862 171 862Q198 862 198 832Q198 803 171 803Q159 803 151.5 810.5Q144 818 144 832Z" glyph-name="Adieresis" horiz-adv-x="447" unicode="&#196;" /><glyph d="M12 0ZM223 664 96 198H351ZM404 0 357 171H90L43 0H12L205 700H242L435 0ZM215 785 139 888V892H177L239 788V785Z" glyph-name="Agrave" horiz-adv-x="447" unicode="&#192;" /><glyph d="M12 0ZM223 664 96 198H351ZM404 0 357 171H90L43 0H12L205 700H242L435 0ZM310 848V825H139V848Z" glyph-name="Amacron" horiz-adv-x="447" unicode="&#256;" /><glyph d="M453 -177Q439 -189 424 -193.5Q409 -198 394 -198Q379 -198 365.5 -193.5Q352 -189 341.5 -179Q331 -169 325 -152Q319 -135 319 -110Q319 -85 326 -64Q333 -43 344.5 -27Q356 -11 370.5 -0.5Q385 10 400 15L357 171H90L43 0H12L205 700H242L435 0H418Q389 -5 365.5 -34Q342 -63 342 -108Q342 -146 358 -160.5Q374 -175 395 -175Q409 -175 420 -171.5Q431 -168 442 -158ZM223 664 96 198H351Z" glyph-name="Aogonek" horiz-adv-x="447" unicode="&#260;" /><glyph d="M12 0ZM223 664 96 198H351ZM404 0 357 171H90L43 0H12L205 700H242L435 0ZM154 851Q154 886 174 909Q194 932 226 932Q256 932 276 909Q296 886 296 851Q296 816 276 793.5Q256 771 225 771Q194 771 174 793.5Q154 816 154 851ZM176 851Q176 825 190 808Q204 791 225 791Q246 791 260 808Q274 825 274 851Q274 878 260 895Q246 912 226 912Q204 912 190 895Q176 878 176 851Z" glyph-name="Aring" horiz-adv-x="447" unicode="&#197;" /><glyph d="M12 0ZM223 664 96 198H351ZM404 0 357 171H90L43 0H12L205 700H242L435 0ZM297 878H319Q319 855 314.5 840.5Q310 826 302.5 817.5Q295 809 286 806Q277 803 268 803Q252 803 241 811.5Q230 820 220 830.5Q210 841 200 849.5Q190 858 177 858Q166 858 157.5 848Q149 838 149 807H127Q127 830 132 844.5Q137 859 144 867Q151 875 159.5 878Q168 881 177 881Q193 881 204.5 872.5Q216 864 226 854Q236 844 246 835.5Q256 827 270 827Q282 827 289 838Q296 849 297 878Z" glyph-name="Atilde" horiz-adv-x="447" unicode="&#195;" /><glyph d="M90 0V700H273Q316 700 346.5 687Q377 674 397 650.5Q417 627 426.5 595Q436 563 436 524Q436 463 409.5 419.5Q383 376 337 361Q368 355 389.5 338.5Q411 322 425 299.5Q439 277 445.5 249.5Q452 222 452 195Q452 97 408 48.5Q364 0 264 0ZM273 674H120V373H285Q314 373 336.5 385Q359 397 374.5 417.5Q390 438 398 464.5Q406 491 406 521Q406 596 371 635Q336 674 273 674ZM284 345H120V26H265Q346 26 384 65.5Q422 105 422 194Q422 261 387.5 303Q353 345 284 345Z" glyph-name="B" horiz-adv-x="497" unicode="B" /><glyph d="M287 -10Q234 -10 192 9.5Q150 29 121 72Q92 115 76.5 183.5Q61 252 61 350Q61 449 76.5 517.5Q92 586 121 628.5Q150 671 192 690.5Q234 710 287 710Q320 710 349 702.5Q378 695 402 677Q426 659 445 629.5Q464 600 477 556L450 544Q439 584 422.5 611Q406 638 385 654Q364 670 339.5 676.5Q315 683 287 683Q243 683 207 666Q171 649 145.5 610Q120 571 106 507.5Q92 444 92 351Q92 257 106 193Q120 129 145.5 90Q171 51 207 34Q243 17 287 17Q345 17 390 50Q435 83 459 163L484 151Q460 67 407 28.5Q354 -10 287 -10Z" glyph-name="C" horiz-adv-x="521" unicode="C" /><glyph glyph-name="CR" horiz-adv-x="131" unicode="" /><glyph d="M61 0ZM287 -10Q234 -10 192 9.5Q150 29 121 72Q92 115 76.5 183.5Q61 252 61 350Q61 449 76.5 517.5Q92 586 121 628.5Q150 671 192 690.5Q234 710 287 710Q320 710 349 702.5Q378 695 402 677Q426 659 445 629.5Q464 600 477 556L450 544Q439 584 422.5 611Q406 638 385 654Q364 670 339.5 676.5Q315 683 287 683Q243 683 207 666Q171 649 145.5 610Q120 571 106 507.5Q92 444 92 351Q92 257 106 193Q120 129 145.5 90Q171 51 207 34Q243 17 287 17Q345 17 390 50Q435 83 459 163L484 151Q460 67 407 28.5Q354 -10 287 -10ZM369 888 294 785H269V788L331 892H369Z" glyph-name="Cacute" horiz-adv-x="521" unicode="&#262;" /><glyph d="M61 0ZM287 -10Q234 -10 192 9.5Q150 29 121 72Q92 115 76.5 183.5Q61 252 61 350Q61 449 76.5 517.5Q92 586 121 628.5Q150 671 192 690.5Q234 710 287 710Q320 710 349 702.5Q378 695 402 677Q426 659 445 629.5Q464 600 477 556L450 544Q439 584 422.5 611Q406 638 385 654Q364 670 339.5 676.5Q315 683 287 683Q243 683 207 666Q171 649 145.5 610Q120 571 106 507.5Q92 444 92 351Q92 257 106 193Q120 129 145.5 90Q171 51 207 34Q243 17 287 17Q345 17 390 50Q435 83 459 163L484 151Q460 67 407 28.5Q354 -10 287 -10ZM283 807 353 892H383V891L295 785H271L183 891V892H215Z" glyph-name="Ccaron" horiz-adv-x="521" unicode="&#268;" /><glyph d="M282 -221Q256 -221 236.5 -209.5Q217 -198 203 -172L222 -160Q233 -182 247 -191Q261 -200 281 -200Q339 -200 339 -147Q339 -121 325 -110Q311 -99 294 -99Q283 -99 273 -102L264 -94L277 -10Q226 -8 186 12.5Q146 33 118.5 75.5Q91 118 76 186Q61 254 61 350Q61 449 76.5 517.5Q92 586 121 628.5Q150 671 192 690.5Q234 710 287 710Q320 710 349 702.5Q378 695 402 677Q426 659 445 629.5Q464 600 477 556L450 544Q439 584 422.5 611Q406 638 385 654Q364 670 339.5 676.5Q315 683 287 683Q243 683 207 666Q171 649 145.5 610Q120 571 106 507.5Q92 444 92 351Q92 257 106 193Q120 129 145.5 90Q171 51 207 34Q243 17 287 17Q345 17 390 50Q435 83 459 163L484 151Q461 70 412 32Q363 -6 298 -10L287 -83Q290 -81 294 -81H302Q324 -81 343 -96Q362 -111 362 -147Q362 -183 340.5 -202Q319 -221 282 -221Z" glyph-name="Ccedilla" horiz-adv-x="521" unicode="&#199;" /><glyph d="M61 0ZM287 -10Q234 -10 192 9.5Q150 29 121 72Q92 115 76.5 183.5Q61 252 61 350Q61 449 76.5 517.5Q92 586 121 628.5Q150 671 192 690.5Q234 710 287 710Q320 710 349 702.5Q378 695 402 677Q426 659 445 629.5Q464 600 477 556L450 544Q439 584 422.5 611Q406 638 385 654Q364 670 339.5 676.5Q315 683 287 683Q243 683 207 666Q171 649 145.5 610Q120 571 106 507.5Q92 444 92 351Q92 257 106 193Q120 129 145.5 90Q171 51 207 34Q243 17 287 17Q345 17 390 50Q435 83 459 163L484 151Q460 67 407 28.5Q354 -10 287 -10ZM285 871 216 785H185V787L273 892H298L385 787V785H354Z" glyph-name="Ccircumflex" horiz-adv-x="521" unicode="&#264;" /><glyph d="M61 0ZM287 -10Q234 -10 192 9.5Q150 29 121 72Q92 115 76.5 183.5Q61 252 61 350Q61 449 76.5 517.5Q92 586 121 628.5Q150 671 192 690.5Q234 710 287 710Q320 710 349 702.5Q378 695 402 677Q426 659 445 629.5Q464 600 477 556L450 544Q439 584 422.5 611Q406 638 385 654Q364 670 339.5 676.5Q315 683 287 683Q243 683 207 666Q171 649 145.5 610Q120 571 106 507.5Q92 444 92 351Q92 257 106 193Q120 129 145.5 90Q171 51 207 34Q243 17 287 17Q345 17 390 50Q435 83 459 163L484 151Q460 67 407 28.5Q354 -10 287 -10ZM257 832Q257 846 264.5 853.5Q272 861 284 861Q311 861 311 832Q311 818 304 810Q297 802 284 802Q272 802 264.5 810Q257 818 257 832Z" glyph-name="Cdotaccent" horiz-adv-x="521" unicode="&#266;" /><glyph d="M254 0H90V700H254Q310 700 354 681.5Q398 663 428 622.5Q458 582 474 516.5Q490 451 490 358Q490 263 474 195Q458 127 427.5 83.5Q397 40 353 20Q309 0 254 0ZM252 27Q299 27 337.5 44Q376 61 403 100Q430 139 445 202.5Q460 266 460 358Q460 446 445.5 506.5Q431 567 404 604.5Q377 642 339 658Q301 674 254 674H120V27Z" glyph-name="D" horiz-adv-x="551" unicode="D" /><glyph d="M90 0ZM254 0H90V700H254Q310 700 354 681.5Q398 663 428 622.5Q458 582 474 516.5Q490 451 490 358Q490 263 474 195Q458 127 427.5 83.5Q397 40 353 20Q309 0 254 0ZM252 27Q299 27 337.5 44Q376 61 403 100Q430 139 445 202.5Q460 266 460 358Q460 446 445.5 506.5Q431 567 404 604.5Q377 642 339 658Q301 674 254 674H120V27ZM283 807 353 892H383V891L295 785H271L183 891V892H215Z" glyph-name="Dcaron" horiz-adv-x="551" unicode="&#270;" /><glyph d="M263 0H99V353H37V379H99V700H264Q320 700 364 681.5Q408 663 438 622.5Q468 582 484 516.5Q500 451 500 358Q500 263 484 195Q468 127 437.5 83.5Q407 40 363 20Q319 0 263 0ZM129 27H262Q309 27 347 44Q385 61 412 100Q439 139 454 202.5Q469 266 469 358Q469 446 454.5 506.5Q440 567 413 604.5Q386 642 348 658Q310 674 263 674H129V379H263V353H129Z" glyph-name="Dcroat" horiz-adv-x="561" unicode="&#272;" /><glyph d="M90 0V700H448V673H120V364H406V337H120V26H452V0Z" glyph-name="E" horiz-adv-x="485" unicode="E" /><glyph d="M90 0ZM90 0V700H448V673H120V364H406V337H120V26H452V0ZM357 888 282 785H257V788L319 892H357Z" glyph-name="Eacute" horiz-adv-x="485" unicode="&#201;" /><glyph d="M90 0ZM90 0V700H448V673H120V364H406V337H120V26H452V0ZM341 891H362Q362 832 338 809Q314 786 271 786Q228 786 204 809Q180 832 180 891H202Q202 843 219.5 825.5Q237 808 271 808Q304 808 322.5 825.5Q341 843 341 891Z" glyph-name="Ebreve" horiz-adv-x="485" unicode="&#276;" /><glyph d="M90 0ZM90 0V700H448V673H120V364H406V337H120V26H452V0ZM271 807 341 892H371V891L283 785H259L171 891V892H203Z" glyph-name="Ecaron" horiz-adv-x="485" unicode="&#282;" /><glyph d="M90 0ZM90 0V700H448V673H120V364H406V337H120V26H452V0ZM272 871 203 785H172V787L260 892H285L372 787V785H341Z" glyph-name="Ecircumflex" horiz-adv-x="485" unicode="&#202;" /><glyph d="M90 0ZM90 0V700H448V673H120V364H406V337H120V26H452V0ZM299 832Q299 846 306.5 854Q314 862 326 862Q353 862 353 832Q353 803 326 803Q314 803 306.5 810.5Q299 818 299 832ZM192 832Q192 846 199.5 854Q207 862 219 862Q246 862 246 832Q246 803 219 803Q207 803 199.5 810.5Q192 818 192 832Z" glyph-name="Edieresis" horiz-adv-x="485" unicode="&#203;" /><glyph d="M90 0ZM90 0V700H448V673H120V364H406V337H120V26H452V0ZM245 832Q245 846 252.5 853.5Q260 861 272 861Q299 861 299 832Q299 818 292 810Q285 802 272 802Q260 802 252.5 810Q245 818 245 832Z" glyph-name="Edotaccent" horiz-adv-x="485" unicode="&#278;" /><glyph d="M90 0ZM90 0V700H448V673H120V364H406V337H120V26H452V0ZM263 785 187 888V892H225L287 788V785Z" glyph-name="Egrave" horiz-adv-x="485" unicode="&#200;" /><glyph d="M90 0ZM90 0V700H448V673H120V364H406V337H120V26H452V0ZM358 848V825H187V848Z" glyph-name="Emacron" horiz-adv-x="485" unicode="&#274;" /><glyph d="M457 -58V1L117 650L118 0H90V700H122L460 55L458 700H486V-65Q486 -140 464 -172.5Q442 -205 401 -205Q387 -205 373 -202.5Q359 -200 344 -192L351 -165Q362 -171 372.5 -174Q383 -177 397 -177Q427 -177 442 -150.5Q457 -124 457 -58Z" glyph-name="Eng" horiz-adv-x="576" unicode="&#330;" /><glyph d="M449 -177Q435 -189 420 -193.5Q405 -198 390 -198Q375 -198 361.5 -193.5Q348 -189 337.5 -179Q327 -169 321 -152Q315 -135 315 -110Q315 -71 331 -43Q347 -15 370 0H90V700H448V673H120V364H406V337H120V26H452V0H414Q385 -5 361.5 -34Q338 -63 338 -108Q338 -146 354 -160.5Q370 -175 391 -175Q405 -175 416 -171.5Q427 -168 438 -158Z" glyph-name="Eogonek" horiz-adv-x="485" unicode="&#280;" /><glyph d="M263 0H99V353H37V379H99V700H264Q320 700 364 681.5Q408 663 438 622.5Q468 582 484 516.5Q500 451 500 358Q500 263 484 195Q468 127 437.5 83.5Q407 40 363 20Q319 0 263 0ZM129 27H262Q309 27 347 44Q385 61 412 100Q439 139 454 202.5Q469 266 469 358Q469 446 454.5 506.5Q440 567 413 604.5Q386 642 348 658Q310 674 263 674H129V379H263V353H129Z" glyph-name="Eth" horiz-adv-x="561" unicode="&#208;" /><glyph d="M484 146Q458 62 408 26Q358 -10 289 -10Q242 -10 205 6.5Q168 23 141 60Q114 97 98 154.5Q82 212 78 295H12V320H77V358Q77 372 78 382H12V406H78Q82 488 98.5 546Q115 604 142 640.5Q169 677 206.5 693.5Q244 710 291 710Q357 710 404.5 675Q452 640 478 552L451 541Q428 620 386.5 651.5Q345 683 290 683Q251 683 219.5 668.5Q188 654 164.5 621.5Q141 589 127 536Q113 483 109 406H365L359 382H108Q107 373 107 359.5Q107 346 108 320H344L338 295H109Q112 218 126.5 164.5Q141 111 164.5 78Q188 45 219.5 30.5Q251 16 290 16Q347 16 390.5 48.5Q434 81 457 159Z" glyph-name="Euro" horiz-adv-x="513" unicode="&#8364;" /><glyph d="M90 0V700H436V673H120V357H404V330H120V0Z" glyph-name="F" horiz-adv-x="453" unicode="F" /><glyph d="M282 -10Q230 -10 189 10Q148 30 119.5 73Q91 116 76 184.5Q61 253 61 350Q61 449 76 517.5Q91 586 120 628.5Q149 671 191 690.5Q233 710 286 710Q319 710 348 702.5Q377 695 401 677Q425 659 444 629.5Q463 600 476 556L449 544Q437 584 420.5 611Q404 638 383 654Q362 670 337.5 676.5Q313 683 286 683Q242 683 206 666.5Q170 650 144.5 611Q119 572 105.5 508Q92 444 92 350Q92 257 105.5 193.5Q119 130 144.5 90.5Q170 51 205.5 34Q241 17 285 17Q321 17 351.5 30Q382 43 404.5 72.5Q427 102 440 148.5Q453 195 456 261V286H296V311H485V0H462L458 152Q443 71 397 30.5Q351 -10 282 -10Z" glyph-name="G" horiz-adv-x="541" unicode="G" /><glyph d="M296 286V311H487V289Q487 202 471.5 144.5Q456 87 429 52.5Q402 18 365 4Q328 -10 285 -10Q232 -10 190.5 10Q149 30 120 73Q91 116 76 184.5Q61 253 61 350Q61 449 76 517.5Q91 586 120 628.5Q149 671 191 690.5Q233 710 286 710Q319 710 347.5 702.5Q376 695 400.5 677Q425 659 444 629.5Q463 600 476 556L449 544Q437 584 420.5 611Q404 638 383 654Q362 670 337.5 676.5Q313 683 285 683Q241 683 205.5 666.5Q170 650 144.5 611Q119 572 105.5 508Q92 444 92 350Q92 257 105.5 193Q119 129 144.5 89.5Q170 50 205.5 33Q241 16 285 16Q324 16 356 30Q388 44 410.5 76Q433 108 445 159.5Q457 211 456 286Z" glyph-name="G.alt" horiz-adv-x="537" /><glyph d="M61 0ZM282 -10Q230 -10 189 10Q148 30 119.5 73Q91 116 76 184.5Q61 253 61 350Q61 449 76 517.5Q91 586 120 628.5Q149 671 191 690.5Q233 710 286 710Q319 710 348 702.5Q377 695 401 677Q425 659 444 629.5Q463 600 476 556L449 544Q437 584 420.5 611Q404 638 383 654Q362 670 337.5 676.5Q313 683 286 683Q242 683 206 666.5Q170 650 144.5 611Q119 572 105.5 508Q92 444 92 350Q92 257 105.5 193.5Q119 130 144.5 90.5Q170 51 205.5 34Q241 17 285 17Q321 17 351.5 30Q382 43 404.5 72.5Q427 102 440 148.5Q453 195 456 261V286H296V311H485V0H462L458 152Q443 71 397 30.5Q351 -10 282 -10ZM354 891H375Q375 832 351 809Q327 786 284 786Q241 786 217 809Q193 832 193 891H215Q215 843 232.5 825.5Q250 808 284 808Q317 808 335.5 825.5Q354 843 354 891Z" glyph-name="Gbreve" horiz-adv-x="541" unicode="&#286;" /><glyph d="M61 0ZM296 286V311H487V289Q487 202 471.5 144.5Q456 87 429 52.5Q402 18 365 4Q328 -10 285 -10Q232 -10 190.5 10Q149 30 120 73Q91 116 76 184.5Q61 253 61 350Q61 449 76 517.5Q91 586 120 628.5Q149 671 191 690.5Q233 710 286 710Q319 710 347.5 702.5Q376 695 400.5 677Q425 659 444 629.5Q463 600 476 556L449 544Q437 584 420.5 611Q404 638 383 654Q362 670 337.5 676.5Q313 683 285 683Q241 683 205.5 666.5Q170 650 144.5 611Q119 572 105.5 508Q92 444 92 350Q92 257 105.5 193Q119 129 144.5 89.5Q170 50 205.5 33Q241 16 285 16Q324 16 356 30Q388 44 410.5 76Q433 108 445 159.5Q457 211 456 286ZM354 891H375Q375 832 351 809Q327 786 284 786Q241 786 217 809Q193 832 193 891H215Q215 843 232.5 825.5Q250 808 284 808Q317 808 335.5 825.5Q354 843 354 891Z" glyph-name="Gbreve.alt" horiz-adv-x="538" /><glyph d="M61 0ZM282 -10Q230 -10 189 10Q148 30 119.5 73Q91 116 76 184.5Q61 253 61 350Q61 449 76 517.5Q91 586 120 628.5Q149 671 191 690.5Q233 710 286 710Q319 710 348 702.5Q377 695 401 677Q425 659 444 629.5Q463 600 476 556L449 544Q437 584 420.5 611Q404 638 383 654Q362 670 337.5 676.5Q313 683 286 683Q242 683 206 666.5Q170 650 144.5 611Q119 572 105.5 508Q92 444 92 350Q92 257 105.5 193.5Q119 130 144.5 90.5Q170 51 205.5 34Q241 17 285 17Q321 17 351.5 30Q382 43 404.5 72.5Q427 102 440 148.5Q453 195 456 261V286H296V311H485V0H462L458 152Q443 71 397 30.5Q351 -10 282 -10ZM285 871 216 785H185V787L273 892H298L385 787V785H354Z" glyph-name="Gcircumflex" horiz-adv-x="541" unicode="&#284;" /><glyph d="M61 0ZM296 286V311H487V289Q487 202 471.5 144.5Q456 87 429 52.5Q402 18 365 4Q328 -10 285 -10Q232 -10 190.5 10Q149 30 120 73Q91 116 76 184.5Q61 253 61 350Q61 449 76 517.5Q91 586 120 628.5Q149 671 191 690.5Q233 710 286 710Q319 710 347.5 702.5Q376 695 400.5 677Q425 659 444 629.5Q463 600 476 556L449 544Q437 584 420.5 611Q404 638 383 654Q362 670 337.5 676.5Q313 683 285 683Q241 683 205.5 666.5Q170 650 144.5 611Q119 572 105.5 508Q92 444 92 350Q92 257 105.5 193Q119 129 144.5 89.5Q170 50 205.5 33Q241 16 285 16Q324 16 356 30Q388 44 410.5 76Q433 108 445 159.5Q457 211 456 286ZM285 871 216 785H185V787L273 892H298L385 787V785H354Z" glyph-name="Gcircumflex.alt" horiz-adv-x="538" /><glyph d="M61 0ZM282 -10Q230 -10 189 10Q148 30 119.5 73Q91 116 76 184.5Q61 253 61 350Q61 449 76 517.5Q91 586 120 628.5Q149 671 191 690.5Q233 710 286 710Q319 710 348 702.5Q377 695 401 677Q425 659 444 629.5Q463 600 476 556L449 544Q437 584 420.5 611Q404 638 383 654Q362 670 337.5 676.5Q313 683 286 683Q242 683 206 666.5Q170 650 144.5 611Q119 572 105.5 508Q92 444 92 350Q92 257 105.5 193.5Q119 130 144.5 90.5Q170 51 205.5 34Q241 17 285 17Q321 17 351.5 30Q382 43 404.5 72.5Q427 102 440 148.5Q453 195 456 261V286H296V311H485V0H462L458 152Q443 71 397 30.5Q351 -10 282 -10ZM310 -113Q310 -149 297 -179Q284 -209 261 -223L251 -210Q269 -198 280 -174.5Q291 -151 292 -125Q278 -131 266.5 -124Q255 -117 255 -100Q255 -86 262.5 -79Q270 -72 282 -72Q296 -72 303 -81Q310 -90 310 -113Z" glyph-name="Gcommaaccent" horiz-adv-x="541" unicode="&#290;" /><glyph d="M61 0ZM296 286V311H487V289Q487 202 471.5 144.5Q456 87 429 52.5Q402 18 365 4Q328 -10 285 -10Q232 -10 190.5 10Q149 30 120 73Q91 116 76 184.5Q61 253 61 350Q61 449 76 517.5Q91 586 120 628.5Q149 671 191 690.5Q233 710 286 710Q319 710 347.5 702.5Q376 695 400.5 677Q425 659 444 629.5Q463 600 476 556L449 544Q437 584 420.5 611Q404 638 383 654Q362 670 337.5 676.5Q313 683 285 683Q241 683 205.5 666.5Q170 650 144.5 611Q119 572 105.5 508Q92 444 92 350Q92 257 105.5 193Q119 129 144.5 89.5Q170 50 205.5 33Q241 16 285 16Q324 16 356 30Q388 44 410.5 76Q433 108 445 159.5Q457 211 456 286ZM313 -113Q313 -149 300 -179Q287 -209 264 -223L254 -210Q272 -198 283 -174.5Q294 -151 295 -125Q281 -131 269.5 -124Q258 -117 258 -100Q258 -86 265.5 -79Q273 -72 285 -72Q299 -72 306 -81Q313 -90 313 -113Z" glyph-name="Gcommaaccent.alt" horiz-adv-x="537" /><glyph d="M61 0ZM282 -10Q230 -10 189 10Q148 30 119.5 73Q91 116 76 184.5Q61 253 61 350Q61 449 76 517.5Q91 586 120 628.5Q149 671 191 690.5Q233 710 286 710Q319 710 348 702.5Q377 695 401 677Q425 659 444 629.5Q463 600 476 556L449 544Q437 584 420.5 611Q404 638 383 654Q362 670 337.5 676.5Q313 683 286 683Q242 683 206 666.5Q170 650 144.5 611Q119 572 105.5 508Q92 444 92 350Q92 257 105.5 193.5Q119 130 144.5 90.5Q170 51 205.5 34Q241 17 285 17Q321 17 351.5 30Q382 43 404.5 72.5Q427 102 440 148.5Q453 195 456 261V286H296V311H485V0H462L458 152Q443 71 397 30.5Q351 -10 282 -10ZM257 832Q257 846 264.5 853.5Q272 861 284 861Q311 861 311 832Q311 818 304 810Q297 802 284 802Q272 802 264.5 810Q257 818 257 832Z" glyph-name="Gdotaccent" horiz-adv-x="541" unicode="&#288;" /><glyph d="M61 0ZM296 286V311H487V289Q487 202 471.5 144.5Q456 87 429 52.5Q402 18 365 4Q328 -10 285 -10Q232 -10 190.5 10Q149 30 120 73Q91 116 76 184.5Q61 253 61 350Q61 449 76 517.5Q91 586 120 628.5Q149 671 191 690.5Q233 710 286 710Q319 710 347.5 702.5Q376 695 400.5 677Q425 659 444 629.5Q463 600 476 556L449 544Q437 584 420.5 611Q404 638 383 654Q362 670 337.5 676.5Q313 683 285 683Q241 683 205.5 666.5Q170 650 144.5 611Q119 572 105.5 508Q92 444 92 350Q92 257 105.5 193Q119 129 144.5 89.5Q170 50 205.5 33Q241 16 285 16Q324 16 356 30Q388 44 410.5 76Q433 108 445 159.5Q457 211 456 286ZM257 832Q257 846 264.5 853.5Q272 861 284 861Q311 861 311 832Q311 818 304 810Q297 802 284 802Q272 802 264.5 810Q257 818 257 832Z" glyph-name="Gdotaccent.alt" horiz-adv-x="538" /><glyph d="M461 0V338H120V0H90V700H120V365H461V700H491V0Z" glyph-name="H" horiz-adv-x="581" unicode="H" /><glyph d="M123 365H464V509H123ZM464 0V338H123V0H93V509H32V532H93V700H123V532H464V700H494V532H555V509H494V0Z" glyph-name="Hbar" horiz-adv-x="586" unicode="&#294;" /><glyph d="M90 0ZM461 0V338H120V0H90V700H120V365H461V700H491V0ZM290 870 221 784H190V786L278 891H303L390 786V784H359Z" glyph-name="Hcircumflex" horiz-adv-x="581" unicode="&#292;" /><glyph d="M90 0V700H120V0Z" glyph-name="I" horiz-adv-x="210" unicode="I" /><glyph d="M90 0ZM90 0V700H120V0ZM507 253Q507 182 494.5 132Q482 82 459.5 50.5Q437 19 404.5 4.5Q372 -10 332 -10Q300 -10 273 0Q246 10 225 31L242 55Q259 36 282.5 27Q306 18 332 18Q365 18 391.5 31Q418 44 437 71.5Q456 99 466.5 143Q477 187 477 250V700H507Z" glyph-name="IJ" horiz-adv-x="581" unicode="&#306;" /><glyph d="M90 0ZM90 0V700H120V0ZM190 888 115 785H90V788L152 892H190Z" glyph-name="Iacute" horiz-adv-x="210" unicode="&#205;" /><glyph d="M13 0ZM90 0V700H120V0ZM174 891H195Q195 832 171 809Q147 786 104 786Q61 786 37 809Q13 832 13 891H35Q35 843 52.5 825.5Q70 808 104 808Q137 808 155.5 825.5Q174 843 174 891Z" glyph-name="Ibreve" horiz-adv-x="210" unicode="&#300;" /><glyph d="M5 0ZM90 0V700H120V0ZM105 871 36 785H5V787L93 892H118L205 787V785H174Z" glyph-name="Icircumflex" horiz-adv-x="210" unicode="&#206;" /><glyph d="M25 0ZM90 0V700H120V0ZM132 832Q132 846 139.5 854Q147 862 159 862Q186 862 186 832Q186 803 159 803Q147 803 139.5 810.5Q132 818 132 832ZM25 832Q25 846 32.5 854Q40 862 52 862Q79 862 79 832Q79 803 52 803Q40 803 32.5 810.5Q25 818 25 832Z" glyph-name="Idieresis" horiz-adv-x="210" unicode="&#207;" /><glyph d="M78 0ZM90 0V700H120V0ZM78 832Q78 846 85.5 853.5Q93 861 105 861Q132 861 132 832Q132 818 125 810Q118 802 105 802Q93 802 85.5 810Q78 818 78 832Z" glyph-name="Idotaccent" horiz-adv-x="210" unicode="&#304;" /><glyph d="M20 0ZM90 0V700H120V0ZM96 785 20 888V892H58L120 788V785Z" glyph-name="Igrave" horiz-adv-x="210" unicode="&#204;" /><glyph d="M20 0ZM90 0V700H120V0ZM191 848V825H20V848Z" glyph-name="Imacron" horiz-adv-x="210" unicode="&#298;" /><glyph d="M141 -177Q127 -189 112 -193.5Q97 -198 82 -198Q67 -198 53.5 -193.5Q40 -189 29.5 -179Q19 -169 13 -152Q7 -135 7 -110Q7 -85 14.5 -63.5Q22 -42 33.5 -26.5Q45 -11 60 -0.5Q75 10 90 15V700H120V0H106Q77 -5 53.5 -34Q30 -63 30 -108Q30 -146 46 -160.5Q62 -175 83 -175Q97 -175 108 -171.5Q119 -168 130 -158Z" glyph-name="Iogonek" horiz-adv-x="210" unicode="&#302;" /><glyph d="M8 0ZM90 0V700H120V0ZM178 878H200Q200 855 195.5 840.5Q191 826 183.5 817.5Q176 809 167 806Q158 803 149 803Q133 803 122 811.5Q111 820 101 830.5Q91 841 81 849.5Q71 858 58 858Q47 858 38.5 848Q30 838 30 807H8Q8 830 13 844.5Q18 859 25 867Q32 875 40.5 878Q49 881 58 881Q74 881 85.5 872.5Q97 864 107 854Q117 844 127 835.5Q137 827 151 827Q163 827 170 838Q177 849 178 878Z" glyph-name="Itilde" horiz-adv-x="210" unicode="&#296;" /><glyph d="M302 253Q302 182 289.5 132Q277 82 254.5 50.5Q232 19 199.5 4.5Q167 -10 127 -10Q95 -10 68 0Q41 10 20 31L37 55Q54 36 77.5 27Q101 18 127 18Q160 18 186.5 31Q213 44 232 71.5Q251 99 261.5 143Q272 187 272 250V700H302Z" glyph-name="J" horiz-adv-x="376" unicode="J" /><glyph d="M20 0ZM302 253Q302 182 289.5 132Q277 82 254.5 50.5Q232 19 199.5 4.5Q167 -10 127 -10Q95 -10 68 0Q41 10 20 31L37 55Q54 36 77.5 27Q101 18 127 18Q160 18 186.5 31Q213 44 232 71.5Q251 99 261.5 143Q272 187 272 250V700H302ZM288 871 219 785H188V787L276 892H301L388 787V785H357Z" glyph-name="Jcircumflex" horiz-adv-x="376" unicode="&#308;" /><glyph d="M120 217V0H90V700H120L119 261L406 700H439L233 389L456 0H422L215 360Z" glyph-name="K" horiz-adv-x="466" unicode="K" /><glyph d="M90 0V700H120V0ZM415 0 134 343V346L399 700H433L167 347L453 0Z" glyph-name="K.alt" horiz-adv-x="464" /><glyph d="M90 0ZM120 217V0H90V700H120L119 261L406 700H439L233 389L456 0H422L215 360ZM292 -113Q292 -149 279 -179Q266 -209 243 -223L233 -210Q251 -198 262 -174.5Q273 -151 274 -125Q260 -131 248.5 -124Q237 -117 237 -100Q237 -86 244.5 -79Q252 -72 264 -72Q278 -72 285 -81Q292 -90 292 -113Z" glyph-name="Kcommaaccent" horiz-adv-x="466" unicode="&#310;" /><glyph d="M90 0ZM90 0V700H120V0ZM415 0 134 343V346L399 700H433L167 347L453 0ZM292 -113Q292 -149 279 -179Q266 -209 243 -223L233 -210Q251 -198 262 -174.5Q273 -151 274 -125Q260 -131 248.5 -124Q237 -117 237 -100Q237 -86 244.5 -79Q252 -72 264 -72Q278 -72 285 -81Q292 -90 292 -113Z" glyph-name="Kcommaaccent.alt" horiz-adv-x="464" /><glyph d="M120 27H439V0H90V700H120Z" glyph-name="L" horiz-adv-x="458" unicode="L" /><glyph d="M89 0ZM120 27H439V0H90V700H120ZM189 888 114 785H89V788L151 892H189Z" glyph-name="Lacute" horiz-adv-x="458" unicode="&#313;" /><glyph d="M90 0ZM316 516H295L300 700H331ZM120 27H439V0H90V700H120Z" glyph-name="Lcaron" horiz-adv-x="459" unicode="&#317;" /><glyph d="M90 0ZM120 27H439V0H90V700H120ZM292 -113Q292 -149 279 -179Q266 -209 243 -223L233 -210Q251 -198 262 -174.5Q273 -151 274 -125Q260 -131 248.5 -124Q237 -117 237 -100Q237 -86 244.5 -79Q252 -72 264 -72Q278 -72 285 -81Q292 -90 292 -113Z" glyph-name="Lcommaaccent" horiz-adv-x="458" unicode="&#315;" /><glyph d="M90 0ZM120 27H439V0H90V700H120ZM290 353Q290 367 297.5 374.5Q305 382 317 382Q344 382 344 353Q344 339 337 331Q330 323 317 323Q305 323 297.5 331Q290 339 290 353Z" glyph-name="Ldot" horiz-adv-x="459" unicode="&#319;" /><glyph d="M454 0H105V308L21 224V256L105 339V700H135V360L263 486V454L135 329V27H454Z" glyph-name="Lslash" horiz-adv-x="473" unicode="&#321;" /><glyph d="M336 0 117 647 118 0H90V700H127L349 43L569 700H607V0H579L580 647L361 0Z" glyph-name="M" horiz-adv-x="697" unicode="M" /><glyph d="M456 0 118 648 119 0H90V700H123L459 56L457 700H486V0Z" glyph-name="N" horiz-adv-x="576" unicode="N" /><glyph glyph-name="NULL" horiz-adv-x="131" /><glyph d="M90 0ZM456 0 118 648 119 0H90V700H123L459 56L457 700H486V0ZM373 888 298 785H273V788L335 892H373Z" glyph-name="Nacute" horiz-adv-x="576" unicode="&#323;" /><glyph d="M90 0ZM456 0 118 648 119 0H90V700H123L459 56L457 700H486V0ZM288 807 358 892H388V891L300 785H276L188 891V892H220Z" glyph-name="Ncaron" horiz-adv-x="576" unicode="&#327;" /><glyph d="M90 0ZM456 0 118 648 119 0H90V700H123L459 56L457 700H486V0ZM316 -113Q316 -149 303 -179Q290 -209 267 -223L257 -210Q275 -198 286 -174.5Q297 -151 298 -125Q284 -131 272.5 -124Q261 -117 261 -100Q261 -86 268.5 -79Q276 -72 288 -72Q302 -72 309 -81Q316 -90 316 -113Z" glyph-name="Ncommaaccent" horiz-adv-x="576" unicode="&#325;" /><glyph d="M90 0ZM456 0 118 648 119 0H90V700H123L459 56L457 700H486V0ZM362 878H384Q384 855 379.5 840.5Q375 826 367.5 817.5Q360 809 351 806Q342 803 333 803Q317 803 306 811.5Q295 820 285 830.5Q275 841 265 849.5Q255 858 242 858Q231 858 222.5 848Q214 838 214 807H192Q192 830 197 844.5Q202 859 209 867Q216 875 224.5 878Q233 881 242 881Q258 881 269.5 872.5Q281 864 291 854Q301 844 311 835.5Q321 827 335 827Q347 827 354 838Q361 849 362 878Z" glyph-name="Ntilde" horiz-adv-x="576" unicode="&#209;" /><glyph d="M285 -10Q231 -10 189 9.5Q147 29 118.5 72Q90 115 75.5 183.5Q61 252 61 350Q61 448 76 516.5Q91 585 119.5 628Q148 671 189.5 690.5Q231 710 285 710Q340 710 381.5 690.5Q423 671 451.5 628Q480 585 494.5 516.5Q509 448 509 350Q509 252 494 183.5Q479 115 450.5 72Q422 29 380.5 9.5Q339 -10 285 -10ZM285 683Q240 683 204 666.5Q168 650 143.5 611Q119 572 105.5 508Q92 444 92 350Q92 257 105.5 193Q119 129 143.5 90Q168 51 204 34Q240 17 285 17Q330 17 366 34Q402 51 427 90Q452 129 465 193Q478 257 478 351Q478 444 465 507.5Q452 571 427 610Q402 649 366 666Q330 683 285 683Z" glyph-name="O" horiz-adv-x="570" unicode="O" /><glyph d="M299 0Q242 0 198 20Q154 40 123.5 83.5Q93 127 77 195Q61 263 61 358Q61 451 77 516.5Q93 582 123 622.5Q153 663 197.5 681.5Q242 700 299 700H783V674H462V365H743V338H462V27H791V0ZM299 673Q252 673 213.5 657Q175 641 148 604Q121 567 106.5 506.5Q92 446 92 358Q92 266 107 202.5Q122 139 149 100Q176 61 214 43.5Q252 26 299 26H432V673Z" glyph-name="OE" horiz-adv-x="822" unicode="&#338;" /><glyph d="M61 0ZM285 -10Q231 -10 189 9.5Q147 29 118.5 72Q90 115 75.5 183.5Q61 252 61 350Q61 448 76 516.5Q91 585 119.5 628Q148 671 189.5 690.5Q231 710 285 710Q340 710 381.5 690.5Q423 671 451.5 628Q480 585 494.5 516.5Q509 448 509 350Q509 252 494 183.5Q479 115 450.5 72Q422 29 380.5 9.5Q339 -10 285 -10ZM285 683Q240 683 204 666.5Q168 650 143.5 611Q119 572 105.5 508Q92 444 92 350Q92 257 105.5 193Q119 129 143.5 90Q168 51 204 34Q240 17 285 17Q330 17 366 34Q402 51 427 90Q452 129 465 193Q478 257 478 351Q478 444 465 507.5Q452 571 427 610Q402 649 366 666Q330 683 285 683ZM370 888 295 785H270V788L332 892H370Z" glyph-name="Oacute" horiz-adv-x="570" unicode="&#211;" /><glyph d="M61 0ZM285 -10Q231 -10 189 9.5Q147 29 118.5 72Q90 115 75.5 183.5Q61 252 61 350Q61 448 76 516.5Q91 585 119.5 628Q148 671 189.5 690.5Q231 710 285 710Q340 710 381.5 690.5Q423 671 451.5 628Q480 585 494.5 516.5Q509 448 509 350Q509 252 494 183.5Q479 115 450.5 72Q422 29 380.5 9.5Q339 -10 285 -10ZM285 683Q240 683 204 666.5Q168 650 143.5 611Q119 572 105.5 508Q92 444 92 350Q92 257 105.5 193Q119 129 143.5 90Q168 51 204 34Q240 17 285 17Q330 17 366 34Q402 51 427 90Q452 129 465 193Q478 257 478 351Q478 444 465 507.5Q452 571 427 610Q402 649 366 666Q330 683 285 683ZM354 891H375Q375 832 351 809Q327 786 284 786Q241 786 217 809Q193 832 193 891H215Q215 843 232.5 825.5Q250 808 284 808Q317 808 335.5 825.5Q354 843 354 891Z" glyph-name="Obreve" horiz-adv-x="570" unicode="&#334;" /><glyph d="M61 0ZM285 -10Q231 -10 189 9.5Q147 29 118.5 72Q90 115 75.5 183.5Q61 252 61 350Q61 448 76 516.5Q91 585 119.5 628Q148 671 189.5 690.5Q231 710 285 710Q340 710 381.5 690.5Q423 671 451.5 628Q480 585 494.5 516.5Q509 448 509 350Q509 252 494 183.5Q479 115 450.5 72Q422 29 380.5 9.5Q339 -10 285 -10ZM285 683Q240 683 204 666.5Q168 650 143.5 611Q119 572 105.5 508Q92 444 92 350Q92 257 105.5 193Q119 129 143.5 90Q168 51 204 34Q240 17 285 17Q330 17 366 34Q402 51 427 90Q452 129 465 193Q478 257 478 351Q478 444 465 507.5Q452 571 427 610Q402 649 366 666Q330 683 285 683ZM285 871 216 785H185V787L273 892H298L385 787V785H354Z" glyph-name="Ocircumflex" horiz-adv-x="570" unicode="&#212;" /><glyph d="M61 0ZM285 -10Q231 -10 189 9.5Q147 29 118.5 72Q90 115 75.5 183.5Q61 252 61 350Q61 448 76 516.5Q91 585 119.5 628Q148 671 189.5 690.5Q231 710 285 710Q340 710 381.5 690.5Q423 671 451.5 628Q480 585 494.5 516.5Q509 448 509 350Q509 252 494 183.5Q479 115 450.5 72Q422 29 380.5 9.5Q339 -10 285 -10ZM285 683Q240 683 204 666.5Q168 650 143.5 611Q119 572 105.5 508Q92 444 92 350Q92 257 105.5 193Q119 129 143.5 90Q168 51 204 34Q240 17 285 17Q330 17 366 34Q402 51 427 90Q452 129 465 193Q478 257 478 351Q478 444 465 507.5Q452 571 427 610Q402 649 366 666Q330 683 285 683ZM312 832Q312 846 319.5 854Q327 862 339 862Q366 862 366 832Q366 803 339 803Q327 803 319.5 810.5Q312 818 312 832ZM205 832Q205 846 212.5 854Q220 862 232 862Q259 862 259 832Q259 803 232 803Q220 803 212.5 810.5Q205 818 205 832Z" glyph-name="Odieresis" horiz-adv-x="570" unicode="&#214;" /><glyph d="M61 0ZM285 -10Q231 -10 189 9.5Q147 29 118.5 72Q90 115 75.5 183.5Q61 252 61 350Q61 448 76 516.5Q91 585 119.5 628Q148 671 189.5 690.5Q231 710 285 710Q340 710 381.5 690.5Q423 671 451.5 628Q480 585 494.5 516.5Q509 448 509 350Q509 252 494 183.5Q479 115 450.5 72Q422 29 380.5 9.5Q339 -10 285 -10ZM285 683Q240 683 204 666.5Q168 650 143.5 611Q119 572 105.5 508Q92 444 92 350Q92 257 105.5 193Q119 129 143.5 90Q168 51 204 34Q240 17 285 17Q330 17 366 34Q402 51 427 90Q452 129 465 193Q478 257 478 351Q478 444 465 507.5Q452 571 427 610Q402 649 366 666Q330 683 285 683ZM276 786 200 889V893H238L300 789V786Z" glyph-name="Ograve" horiz-adv-x="570" unicode="&#210;" /><glyph d="M61 0ZM285 -10Q231 -10 189 9.5Q147 29 118.5 72Q90 115 75.5 183.5Q61 252 61 350Q61 448 76 516.5Q91 585 119.5 628Q148 671 189.5 690.5Q231 710 285 710Q340 710 381.5 690.5Q423 671 451.5 628Q480 585 494.5 516.5Q509 448 509 350Q509 252 494 183.5Q479 115 450.5 72Q422 29 380.5 9.5Q339 -10 285 -10ZM285 683Q240 683 204 666.5Q168 650 143.5 611Q119 572 105.5 508Q92 444 92 350Q92 257 105.5 193Q119 129 143.5 90Q168 51 204 34Q240 17 285 17Q330 17 366 34Q402 51 427 90Q452 129 465 193Q478 257 478 351Q478 444 465 507.5Q452 571 427 610Q402 649 366 666Q330 683 285 683ZM412 888 333 785H310V788L372 892H412ZM322 892V888L244 785H221V788L283 892Z" glyph-name="Ohungarumlaut" horiz-adv-x="570" unicode="&#336;" /><glyph d="M61 0ZM285 -10Q231 -10 189 9.5Q147 29 118.5 72Q90 115 75.5 183.5Q61 252 61 350Q61 448 76 516.5Q91 585 119.5 628Q148 671 189.5 690.5Q231 710 285 710Q340 710 381.5 690.5Q423 671 451.5 628Q480 585 494.5 516.5Q509 448 509 350Q509 252 494 183.5Q479 115 450.5 72Q422 29 380.5 9.5Q339 -10 285 -10ZM285 683Q240 683 204 666.5Q168 650 143.5 611Q119 572 105.5 508Q92 444 92 350Q92 257 105.5 193Q119 129 143.5 90Q168 51 204 34Q240 17 285 17Q330 17 366 34Q402 51 427 90Q452 129 465 193Q478 257 478 351Q478 444 465 507.5Q452 571 427 610Q402 649 366 666Q330 683 285 683ZM370 848V825H199V848Z" glyph-name="Omacron" horiz-adv-x="570" unicode="&#332;" /><glyph d="M287 -10Q233 -10 191.5 10Q150 30 121 75L72 0H43L107 97Q85 141 73.5 203Q62 265 62 350Q62 448 77 516.5Q92 585 121 628Q150 671 191.5 690.5Q233 710 287 710Q341 710 382.5 690.5Q424 671 453 626L502 700H531L467 603Q510 518 510 350Q510 252 495.5 183.5Q481 115 452.5 72Q424 29 382.5 9.5Q341 -10 287 -10ZM93 350Q93 276 101.5 221.5Q110 167 127 129L436 598Q410 644 373 663.5Q336 683 287 683Q242 683 206 666.5Q170 650 145 611Q120 572 106.5 508Q93 444 93 350ZM287 16Q332 16 368 33Q404 50 428.5 89Q453 128 466 192Q479 256 479 351Q479 494 446 571L138 101Q163 55 200.5 35.5Q238 16 287 16Z" glyph-name="Oslash" horiz-adv-x="571" unicode="&#216;" /><glyph d="M61 0ZM285 -10Q231 -10 189 9.5Q147 29 118.5 72Q90 115 75.5 183.5Q61 252 61 350Q61 448 76 516.5Q91 585 119.5 628Q148 671 189.5 690.5Q231 710 285 710Q340 710 381.5 690.5Q423 671 451.5 628Q480 585 494.5 516.5Q509 448 509 350Q509 252 494 183.5Q479 115 450.5 72Q422 29 380.5 9.5Q339 -10 285 -10ZM285 683Q240 683 204 666.5Q168 650 143.5 611Q119 572 105.5 508Q92 444 92 350Q92 257 105.5 193Q119 129 143.5 90Q168 51 204 34Q240 17 285 17Q330 17 366 34Q402 51 427 90Q452 129 465 193Q478 257 478 351Q478 444 465 507.5Q452 571 427 610Q402 649 366 666Q330 683 285 683ZM358 878H380Q380 855 375.5 840.5Q371 826 363.5 817.5Q356 809 347 806Q338 803 329 803Q313 803 302 811.5Q291 820 281 830.5Q271 841 261 849.5Q251 858 238 858Q227 858 218.5 848Q210 838 210 807H188Q188 830 193 844.5Q198 859 205 867Q212 875 220.5 878Q229 881 238 881Q254 881 265.5 872.5Q277 864 287 854Q297 844 307 835.5Q317 827 331 827Q343 827 350 838Q357 849 358 878Z" glyph-name="Otilde" horiz-adv-x="570" unicode="&#213;" /><glyph d="M90 0V700H261Q362 700 407.5 647Q453 594 453 487Q453 440 442.5 400.5Q432 361 409 331.5Q386 302 350.5 285.5Q315 269 265 269H120V0ZM261 674H120V295H266Q338 295 380 343Q422 391 422 487Q422 586 382.5 630Q343 674 261 674Z" glyph-name="P" horiz-adv-x="500" unicode="P" /><glyph d="M285 -10Q231 -10 189 9.5Q147 29 118.5 72Q90 115 75.5 183.5Q61 252 61 350Q61 448 76 516.5Q91 585 119.5 628Q148 671 189.5 690.5Q231 710 285 710Q340 710 381.5 690.5Q423 671 451.5 628Q480 585 494.5 516.5Q509 448 509 350Q509 215 481.5 135.5Q454 56 401 21L474 -92H441L375 9Q338 -10 285 -10ZM285 683Q240 683 204 666.5Q168 650 143.5 611Q119 572 105.5 508Q92 444 92 350Q92 256 105.5 192.5Q119 129 143.5 90Q168 51 204 33.5Q240 16 285 16Q327 16 361 33L286 151H319L387 47Q430 78 454 150.5Q478 223 478 350Q478 444 465 507.5Q452 571 427 610Q402 649 366 666Q330 683 285 683Z" glyph-name="Q" horiz-adv-x="570" unicode="Q" /><glyph d="M261 674H120V315H262Q342 315 382 361Q422 407 422 497Q422 591 383 632.5Q344 674 261 674ZM90 0V700H261Q362 700 407.5 650Q453 600 453 497Q453 426 424.5 372Q396 318 334 298L457 0H425L305 292Q287 289 265 289H120V0Z" glyph-name="R" horiz-adv-x="493" unicode="R" /><glyph d="M90 0ZM261 674H120V315H262Q342 315 382 361Q422 407 422 497Q422 591 383 632.5Q344 674 261 674ZM90 0V700H261Q362 700 407.5 650Q453 600 453 497Q453 426 424.5 372Q396 318 334 298L457 0H425L305 292Q287 289 265 289H120V0ZM358 888 283 785H258V788L320 892H358Z" glyph-name="Racute" horiz-adv-x="493" unicode="&#340;" /><glyph d="M90 0ZM261 674H120V315H262Q342 315 382 361Q422 407 422 497Q422 591 383 632.5Q344 674 261 674ZM90 0V700H261Q362 700 407.5 650Q453 600 453 497Q453 426 424.5 372Q396 318 334 298L457 0H425L305 292Q287 289 265 289H120V0ZM273 807 343 892H373V891L285 785H261L173 891V892H205Z" glyph-name="Rcaron" horiz-adv-x="493" unicode="&#344;" /><glyph d="M90 0ZM261 674H120V315H262Q342 315 382 361Q422 407 422 497Q422 591 383 632.5Q344 674 261 674ZM90 0V700H261Q362 700 407.5 650Q453 600 453 497Q453 426 424.5 372Q396 318 334 298L457 0H425L305 292Q287 289 265 289H120V0ZM286 -113Q286 -149 273 -179Q260 -209 237 -223L227 -210Q245 -198 256 -174.5Q267 -151 268 -125Q254 -131 242.5 -124Q231 -117 231 -100Q231 -86 238.5 -79Q246 -72 258 -72Q272 -72 279 -81Q286 -90 286 -113Z" glyph-name="Rcommaaccent" horiz-adv-x="493" unicode="&#342;" /><glyph d="M399 563 373 551Q362 589 345.5 614.5Q329 640 309 655.5Q289 671 265.5 677.5Q242 684 216 684Q150 684 113.5 648Q77 612 77 547Q77 482 110 445Q143 408 205 383L249 365Q291 348 321 329Q351 310 370 287Q389 264 398 235.5Q407 207 407 171Q407 81 358.5 35.5Q310 -10 222 -10Q153 -10 102.5 26Q52 62 24 154L50 167Q76 82 119.5 49Q163 16 222 16Q300 16 338.5 56.5Q377 97 377 169Q377 197 370.5 220Q364 243 348.5 263Q333 283 306.5 300.5Q280 318 241 335L196 354Q162 367 134.5 384.5Q107 402 87.5 425Q68 448 57.5 478Q47 508 47 546Q47 581 57.5 611Q68 641 89.5 663.5Q111 686 143 698.5Q175 711 218 711Q281 711 328.5 678Q376 645 399 563Z" glyph-name="S" horiz-adv-x="454" unicode="S" /><glyph d="M24 0ZM399 563 373 551Q362 589 345.5 614.5Q329 640 309 655.5Q289 671 265.5 677.5Q242 684 216 684Q150 684 113.5 648Q77 612 77 547Q77 482 110 445Q143 408 205 383L249 365Q291 348 321 329Q351 310 370 287Q389 264 398 235.5Q407 207 407 171Q407 81 358.5 35.5Q310 -10 222 -10Q153 -10 102.5 26Q52 62 24 154L50 167Q76 82 119.5 49Q163 16 222 16Q300 16 338.5 56.5Q377 97 377 169Q377 197 370.5 220Q364 243 348.5 263Q333 283 306.5 300.5Q280 318 241 335L196 354Q162 367 134.5 384.5Q107 402 87.5 425Q68 448 57.5 478Q47 508 47 546Q47 581 57.5 611Q68 641 89.5 663.5Q111 686 143 698.5Q175 711 218 711Q281 711 328.5 678Q376 645 399 563ZM300 887 225 784H200V787L262 891H300Z" glyph-name="Sacute" horiz-adv-x="455" unicode="&#346;" /><glyph d="M24 0ZM399 563 373 551Q362 589 345.5 614.5Q329 640 309 655.5Q289 671 265.5 677.5Q242 684 216 684Q150 684 113.5 648Q77 612 77 547Q77 482 110 445Q143 408 205 383L249 365Q291 348 321 329Q351 310 370 287Q389 264 398 235.5Q407 207 407 171Q407 81 358.5 35.5Q310 -10 222 -10Q153 -10 102.5 26Q52 62 24 154L50 167Q76 82 119.5 49Q163 16 222 16Q300 16 338.5 56.5Q377 97 377 169Q377 197 370.5 220Q364 243 348.5 263Q333 283 306.5 300.5Q280 318 241 335L196 354Q162 367 134.5 384.5Q107 402 87.5 425Q68 448 57.5 478Q47 508 47 546Q47 581 57.5 611Q68 641 89.5 663.5Q111 686 143 698.5Q175 711 218 711Q281 711 328.5 678Q376 645 399 563ZM214 806 284 891H314V890L226 784H202L114 890V891H146Z" glyph-name="Scaron" horiz-adv-x="455" unicode="&#352;" /><glyph d="M216 -221Q190 -221 171 -210Q152 -199 138 -172L157 -160Q168 -183 182 -192Q196 -201 216 -201Q245 -201 259.5 -187Q274 -173 274 -148Q274 -122 260 -110.5Q246 -99 229 -99Q223 -99 218 -100Q213 -101 208 -103L199 -95L212 -10Q179 -9 151 0.5Q123 10 99.5 29.5Q76 49 57 79.5Q38 110 24 154L50 167Q76 82 119.5 49Q163 16 222 16Q300 16 338.5 56.5Q377 97 377 169Q377 197 370.5 220.5Q364 244 348.5 264.5Q333 285 307 303Q281 321 241 337L196 356Q162 369 135 386.5Q108 404 88.5 426.5Q69 449 58.5 478.5Q48 508 48 546Q48 581 58.5 611Q69 641 90 663.5Q111 686 143 698.5Q175 711 218 711Q281 711 328.5 678Q376 645 399 563L373 551Q362 589 345.5 614.5Q329 640 309 655.5Q289 671 265.5 677.5Q242 684 216 684Q150 684 113.5 648Q77 612 77 547Q77 515 85.5 490.5Q94 466 110.5 446.5Q127 427 151 412Q175 397 205 384L249 366Q291 348 321 329.5Q351 311 370 288Q389 265 398 236.5Q407 208 407 171Q407 84 361 38.5Q315 -7 233 -10L221 -84Q228 -81 236 -81Q259 -81 278 -96.5Q297 -112 297 -147Q297 -184 275.5 -202.5Q254 -221 216 -221Z" glyph-name="Scedilla" horiz-adv-x="455" unicode="&#350;" /><glyph d="M24 0ZM399 563 373 551Q362 589 345.5 614.5Q329 640 309 655.5Q289 671 265.5 677.5Q242 684 216 684Q150 684 113.5 648Q77 612 77 547Q77 482 110 445Q143 408 205 383L249 365Q291 348 321 329Q351 310 370 287Q389 264 398 235.5Q407 207 407 171Q407 81 358.5 35.5Q310 -10 222 -10Q153 -10 102.5 26Q52 62 24 154L50 167Q76 82 119.5 49Q163 16 222 16Q300 16 338.5 56.5Q377 97 377 169Q377 197 370.5 220Q364 243 348.5 263Q333 283 306.5 300.5Q280 318 241 335L196 354Q162 367 134.5 384.5Q107 402 87.5 425Q68 448 57.5 478Q47 508 47 546Q47 581 57.5 611Q68 641 89.5 663.5Q111 686 143 698.5Q175 711 218 711Q281 711 328.5 678Q376 645 399 563ZM216 870 147 784H116V786L204 891H229L316 786V784H285Z" glyph-name="Scircumflex" horiz-adv-x="455" unicode="&#348;" /><glyph d="M24 0ZM399 563 373 551Q362 589 345.5 614.5Q329 640 309 655.5Q289 671 265.5 677.5Q242 684 216 684Q150 684 113.5 648Q77 612 77 547Q77 482 110 445Q143 408 205 383L249 365Q291 348 321 329Q351 310 370 287Q389 264 398 235.5Q407 207 407 171Q407 81 358.5 35.5Q310 -10 222 -10Q153 -10 102.5 26Q52 62 24 154L50 167Q76 82 119.5 49Q163 16 222 16Q300 16 338.5 56.5Q377 97 377 169Q377 197 370.5 220Q364 243 348.5 263Q333 283 306.5 300.5Q280 318 241 335L196 354Q162 367 134.5 384.5Q107 402 87.5 425Q68 448 57.5 478Q47 508 47 546Q47 581 57.5 611Q68 641 89.5 663.5Q111 686 143 698.5Q175 711 218 711Q281 711 328.5 678Q376 645 399 563ZM248 -114Q248 -150 235 -180Q222 -210 199 -224L189 -211Q207 -199 218 -175.5Q229 -152 230 -126Q216 -132 204.5 -125Q193 -118 193 -101Q193 -87 200.5 -80Q208 -73 220 -73Q234 -73 241 -82Q248 -91 248 -114Z" glyph-name="Scommaaccent" horiz-adv-x="455" unicode="&#536;" /><glyph d="M13 700H412V673H228V0H198V673H13Z" glyph-name="T" horiz-adv-x="425" unicode="T" /><glyph d="M13 700H412V673H228V362H378V340H228V0H198V340H48V362H198V673H13Z" glyph-name="Tbar" horiz-adv-x="425" unicode="&#358;" /><glyph d="M13 0ZM13 700H412V673H228V0H198V673H13ZM212 807 282 892H312V891L224 785H200L112 891V892H144Z" glyph-name="Tcaron" horiz-adv-x="425" unicode="&#356;" /><glyph d="M187 -94 201 0H198V673H13V700H412V673H228V0H223L210 -83Q213 -81 217 -81Q221 -81 225 -81Q247 -81 266 -96Q285 -111 285 -147Q285 -183 263.5 -202Q242 -221 205 -221Q179 -221 159.5 -209.5Q140 -198 126 -172L145 -160Q156 -182 170 -191Q184 -200 204 -200Q262 -200 262 -147Q262 -121 248 -110Q234 -99 217 -99Q206 -99 196 -102Z" glyph-name="Tcedilla" horiz-adv-x="425" unicode="&#354;" /><glyph d="M120 0H90V700H120V551H276Q362 551 400.5 504Q439 457 439 361Q439 319 429.5 283.5Q420 248 400.5 221.5Q381 195 351 180.5Q321 166 279 166H120ZM274 524H120V192H280Q340 192 374 234Q408 276 408 360Q408 448 375.5 486Q343 524 274 524Z" glyph-name="Thorn" horiz-adv-x="485" unicode="&#222;" /><glyph d="M449 234V700H479V234Q479 106 424.5 48Q370 -10 276 -10Q180 -10 127 48Q74 106 74 234V700H104V234Q104 175 116 134Q128 93 150.5 67Q173 41 205 29Q237 17 276 17Q315 17 347 29Q379 41 401.5 67Q424 93 436.5 134Q449 175 449 234Z" glyph-name="U" horiz-adv-x="552" unicode="U" /><glyph d="M74 0ZM449 234V700H479V234Q479 106 424.5 48Q370 -10 276 -10Q180 -10 127 48Q74 106 74 234V700H104V234Q104 175 116 134Q128 93 150.5 67Q173 41 205 29Q237 17 276 17Q315 17 347 29Q379 41 401.5 67Q424 93 436.5 134Q449 175 449 234ZM362 888 287 785H262V788L324 892H362Z" glyph-name="Uacute" horiz-adv-x="552" unicode="&#218;" /><glyph d="M74 0ZM449 234V700H479V234Q479 106 424.5 48Q370 -10 276 -10Q180 -10 127 48Q74 106 74 234V700H104V234Q104 175 116 134Q128 93 150.5 67Q173 41 205 29Q237 17 276 17Q315 17 347 29Q379 41 401.5 67Q424 93 436.5 134Q449 175 449 234ZM346 891H367Q367 832 343 809Q319 786 276 786Q233 786 209 809Q185 832 185 891H207Q207 843 224.5 825.5Q242 808 276 808Q309 808 327.5 825.5Q346 843 346 891Z" glyph-name="Ubreve" horiz-adv-x="552" unicode="&#364;" /><glyph d="M74 0ZM449 234V700H479V234Q479 106 424.5 48Q370 -10 276 -10Q180 -10 127 48Q74 106 74 234V700H104V234Q104 175 116 134Q128 93 150.5 67Q173 41 205 29Q237 17 276 17Q315 17 347 29Q379 41 401.5 67Q424 93 436.5 134Q449 175 449 234ZM277 871 208 785H177V787L265 892H290L377 787V785H346Z" glyph-name="Ucircumflex" horiz-adv-x="552" unicode="&#219;" /><glyph d="M74 0ZM449 234V700H479V234Q479 106 424.5 48Q370 -10 276 -10Q180 -10 127 48Q74 106 74 234V700H104V234Q104 175 116 134Q128 93 150.5 67Q173 41 205 29Q237 17 276 17Q315 17 347 29Q379 41 401.5 67Q424 93 436.5 134Q449 175 449 234ZM304 832Q304 846 311.5 854Q319 862 331 862Q358 862 358 832Q358 803 331 803Q319 803 311.5 810.5Q304 818 304 832ZM197 832Q197 846 204.5 854Q212 862 224 862Q251 862 251 832Q251 803 224 803Q212 803 204.5 810.5Q197 818 197 832Z" glyph-name="Udieresis" horiz-adv-x="552" unicode="&#220;" /><glyph d="M74 0ZM449 234V700H479V234Q479 106 424.5 48Q370 -10 276 -10Q180 -10 127 48Q74 106 74 234V700H104V234Q104 175 116 134Q128 93 150.5 67Q173 41 205 29Q237 17 276 17Q315 17 347 29Q379 41 401.5 67Q424 93 436.5 134Q449 175 449 234ZM268 785 192 888V892H230L292 788V785Z" glyph-name="Ugrave" horiz-adv-x="552" unicode="&#217;" /><glyph d="M74 0ZM449 234V700H479V234Q479 106 424.5 48Q370 -10 276 -10Q180 -10 127 48Q74 106 74 234V700H104V234Q104 175 116 134Q128 93 150.5 67Q173 41 205 29Q237 17 276 17Q315 17 347 29Q379 41 401.5 67Q424 93 436.5 134Q449 175 449 234ZM404 888 325 785H302V788L364 892H404ZM314 892V888L236 785H213V788L275 892Z" glyph-name="Uhungarumlaut" horiz-adv-x="552" unicode="&#368;" /><glyph d="M74 0ZM449 234V700H479V234Q479 106 424.5 48Q370 -10 276 -10Q180 -10 127 48Q74 106 74 234V700H104V234Q104 175 116 134Q128 93 150.5 67Q173 41 205 29Q237 17 276 17Q315 17 347 29Q379 41 401.5 67Q424 93 436.5 134Q449 175 449 234ZM363 848V825H192V848Z" glyph-name="Umacron" horiz-adv-x="552" unicode="&#362;" /><glyph d="M325 -198Q296 -198 273.5 -179Q251 -160 251 -110Q251 -76 264 -50Q277 -24 295 -8Q244 -11 203.5 1Q163 13 134 42Q105 71 89.5 118.5Q74 166 74 234V700H104V234Q104 175 116 134Q128 93 150.5 67Q173 41 205 29Q237 17 276 17Q315 17 347 29Q379 41 401.5 67Q424 93 436.5 134Q449 175 449 234V700H479V234Q479 126 440.5 68.5Q402 11 332 -4Q308 -15 290.5 -42.5Q273 -70 273 -108Q273 -146 289.5 -160.5Q306 -175 327 -175Q341 -175 352 -171.5Q363 -168 374 -158L385 -177Q371 -189 356 -193.5Q341 -198 325 -198Z" glyph-name="Uogonek" horiz-adv-x="552" unicode="&#370;" /><glyph d="M74 0ZM449 234V700H479V234Q479 106 424.5 48Q370 -10 276 -10Q180 -10 127 48Q74 106 74 234V700H104V234Q104 175 116 134Q128 93 150.5 67Q173 41 205 29Q237 17 276 17Q315 17 347 29Q379 41 401.5 67Q424 93 436.5 134Q449 175 449 234ZM207 851Q207 886 227 909Q247 932 279 932Q309 932 329 909Q349 886 349 851Q349 816 329 793.5Q309 771 278 771Q247 771 227 793.5Q207 816 207 851ZM229 851Q229 825 243 808Q257 791 278 791Q299 791 313 808Q327 825 327 851Q327 878 313 895Q299 912 279 912Q257 912 243 895Q229 878 229 851Z" glyph-name="Uring" horiz-adv-x="552" unicode="&#366;" /><glyph d="M74 0ZM449 234V700H479V234Q479 106 424.5 48Q370 -10 276 -10Q180 -10 127 48Q74 106 74 234V700H104V234Q104 175 116 134Q128 93 150.5 67Q173 41 205 29Q237 17 276 17Q315 17 347 29Q379 41 401.5 67Q424 93 436.5 134Q449 175 449 234ZM350 878H372Q372 855 367.5 840.5Q363 826 355.5 817.5Q348 809 339 806Q330 803 321 803Q305 803 294 811.5Q283 820 273 830.5Q263 841 253 849.5Q243 858 230 858Q219 858 210.5 848Q202 838 202 807H180Q180 830 185 844.5Q190 859 197 867Q204 875 212.5 878Q221 881 230 881Q246 881 257.5 872.5Q269 864 279 854Q289 844 299 835.5Q309 827 323 827Q335 827 342 838Q349 849 350 878Z" glyph-name="Utilde" horiz-adv-x="552" unicode="&#360;" /><glyph d="M224 36 405 700H436L242 0H205L12 700H43Z" glyph-name="V" horiz-adv-x="448" unicode="V" /><glyph d="M322 692H358L489 47L635 700H665L505 0H472L340 642L207 0H174L14 700H45L191 46Z" glyph-name="W" horiz-adv-x="679" unicode="W" /><glyph d="M14 0ZM322 692H358L489 47L635 700H665L505 0H472L340 642L207 0H174L14 700H45L191 46ZM425 888 350 785H325V788L387 892H425Z" glyph-name="Wacute" horiz-adv-x="679" unicode="&#7810;" /><glyph d="M14 0ZM322 692H358L489 47L635 700H665L505 0H472L340 642L207 0H174L14 700H45L191 46ZM341 871 272 785H241V787L329 892H354L441 787V785H410Z" glyph-name="Wcircumflex" horiz-adv-x="679" unicode="&#372;" /><glyph d="M14 0ZM322 692H358L489 47L635 700H665L505 0H472L340 642L207 0H174L14 700H45L191 46ZM368 832Q368 846 375.5 854Q383 862 395 862Q422 862 422 832Q422 803 395 803Q383 803 375.5 810.5Q368 818 368 832ZM261 832Q261 846 268.5 854Q276 862 288 862Q315 862 315 832Q315 803 288 803Q276 803 268.5 810.5Q261 818 261 832Z" glyph-name="Wdieresis" horiz-adv-x="679" unicode="&#7812;" /><glyph d="M14 0ZM322 692H358L489 47L635 700H665L505 0H472L340 642L207 0H174L14 700H45L191 46ZM332 785 256 888V892H294L356 788V785Z" glyph-name="Wgrave" horiz-adv-x="679" unicode="&#7808;" /><glyph d="M417 0 235 339 52 0H20L218 365L38 700H70L236 390L403 700H433L253 365L450 0Z" glyph-name="X" horiz-adv-x="471" unicode="X" /><glyph d="M209 286 17 700H51L225 317L398 700H431L239 286V0H209Z" glyph-name="Y" horiz-adv-x="449" unicode="Y" /><glyph d="M17 0ZM209 286 17 700H51L225 317L398 700H431L239 286V0H209ZM309 888 234 785H209V788L271 892H309Z" glyph-name="Yacute" horiz-adv-x="449" unicode="&#221;" /><glyph d="M17 0ZM209 286 17 700H51L225 317L398 700H431L239 286V0H209ZM225 871 156 785H125V787L213 892H238L325 787V785H294Z" glyph-name="Ycircumflex" horiz-adv-x="449" unicode="&#374;" /><glyph d="M17 0ZM209 286 17 700H51L225 317L398 700H431L239 286V0H209ZM252 832Q252 846 259.5 854Q267 862 279 862Q306 862 306 832Q306 803 279 803Q267 803 259.5 810.5Q252 818 252 832ZM145 832Q145 846 152.5 854Q160 862 172 862Q199 862 199 832Q199 803 172 803Q160 803 152.5 810.5Q145 818 145 832Z" glyph-name="Ydieresis" horiz-adv-x="449" unicode="&#376;" /><glyph d="M26 0V24L371 674L41 673V700H404V676L58 26L412 27V0Z" glyph-name="Z" horiz-adv-x="433" unicode="Z" /><glyph d="M26 0ZM26 0V24L371 674L41 673V700H404V676L58 26L412 27V0ZM304 888 229 785H204V788L266 892H304Z" glyph-name="Zacute" horiz-adv-x="433" unicode="&#377;" /><glyph d="M26 0ZM26 0V24L371 674L41 673V700H404V676L58 26L412 27V0ZM218 807 288 892H318V891L230 785H206L118 891V892H150Z" glyph-name="Zcaron" horiz-adv-x="433" unicode="&#381;" /><glyph d="M26 0ZM26 0V24L371 674L41 673V700H404V676L58 26L412 27V0ZM192 832Q192 846 199.5 853.5Q207 861 219 861Q246 861 246 832Q246 818 239 810Q232 802 219 802Q207 802 199.5 810Q192 818 192 832Z" glyph-name="Zdotaccent" horiz-adv-x="433" unicode="&#379;" /><glyph d="M173 16Q237 16 272.5 70Q308 124 313 219V258H223Q158 258 116 224.5Q74 191 74 124Q74 72 100.5 44Q127 16 173 16ZM318 0 315 132Q301 61 262.5 25.5Q224 -10 168 -10Q114 -10 79.5 24.5Q45 59 45 122Q45 162 58.5 192Q72 222 95.5 242Q119 262 150.5 272Q182 282 219 282H313V299Q313 346 305 377.5Q297 409 282.5 427.5Q268 446 247 454Q226 462 199 462Q159 462 128.5 442.5Q98 423 82 375L56 387Q74 437 109 462.5Q144 488 201 488Q273 488 307.5 445.5Q342 403 342 302V0Z" glyph-name="a" horiz-adv-x="415" unicode="a" /><glyph d="M345 244Q345 355 307.5 408.5Q270 462 213 462Q147 462 114 404Q81 346 81 239Q81 130 113.5 73Q146 16 212 16Q270 16 307.5 71.5Q345 127 345 244ZM205 -10Q130 -10 90.5 54Q51 118 51 239Q51 359 91.5 423.5Q132 488 209 488Q258 488 295.5 458Q333 428 347 365L349 478H374V0H349L346 121Q332 53 294 21.5Q256 -10 205 -10Z" glyph-name="a.school" horiz-adv-x="451" /><glyph d="M45 0ZM173 16Q237 16 272.5 70Q308 124 313 219V258H223Q158 258 116 224.5Q74 191 74 124Q74 72 100.5 44Q127 16 173 16ZM318 0 315 132Q301 61 262.5 25.5Q224 -10 168 -10Q114 -10 79.5 24.5Q45 59 45 122Q45 162 58.5 192Q72 222 95.5 242Q119 262 150.5 272Q182 282 219 282H313V299Q313 346 305 377.5Q297 409 282.5 427.5Q268 446 247 454Q226 462 199 462Q159 462 128.5 442.5Q98 423 82 375L56 387Q74 437 109 462.5Q144 488 201 488Q273 488 307.5 445.5Q342 403 342 302V0ZM284 666 209 563H184V566L246 670H284Z" glyph-name="aacute" horiz-adv-x="415" unicode="&#225;" /><glyph d="M51 0ZM345 244Q345 355 307.5 408.5Q270 462 213 462Q147 462 114 404Q81 346 81 239Q81 130 113.5 73Q146 16 212 16Q270 16 307.5 71.5Q345 127 345 244ZM205 -10Q130 -10 90.5 54Q51 118 51 239Q51 359 91.5 423.5Q132 488 209 488Q258 488 295.5 458Q333 428 347 365L349 478H374V0H349L346 121Q332 53 294 21.5Q256 -10 205 -10ZM288 666 213 563H188V566L250 670H288Z" glyph-name="aacute.school" horiz-adv-x="451" /><glyph d="M45 0ZM173 16Q237 16 272.5 70Q308 124 313 219V258H223Q158 258 116 224.5Q74 191 74 124Q74 72 100.5 44Q127 16 173 16ZM318 0 315 132Q301 61 262.5 25.5Q224 -10 168 -10Q114 -10 79.5 24.5Q45 59 45 122Q45 162 58.5 192Q72 222 95.5 242Q119 262 150.5 272Q182 282 219 282H313V299Q313 346 305 377.5Q297 409 282.5 427.5Q268 446 247 454Q226 462 199 462Q159 462 128.5 442.5Q98 423 82 375L56 387Q74 437 109 462.5Q144 488 201 488Q273 488 307.5 445.5Q342 403 342 302V0ZM269 669H290Q290 610 266 587Q242 564 199 564Q156 564 132 587Q108 610 108 669H130Q130 621 147.5 603.5Q165 586 199 586Q232 586 250.5 603.5Q269 621 269 669Z" glyph-name="abreve" horiz-adv-x="415" unicode="&#259;" /><glyph d="M51 0ZM345 244Q345 355 307.5 408.5Q270 462 213 462Q147 462 114 404Q81 346 81 239Q81 130 113.5 73Q146 16 212 16Q270 16 307.5 71.5Q345 127 345 244ZM205 -10Q130 -10 90.5 54Q51 118 51 239Q51 359 91.5 423.5Q132 488 209 488Q258 488 295.5 458Q333 428 347 365L349 478H374V0H349L346 121Q332 53 294 21.5Q256 -10 205 -10ZM278 669H299Q299 610 275 587Q251 564 208 564Q165 564 141 587Q117 610 117 669H139Q139 621 156.5 603.5Q174 586 208 586Q241 586 259.5 603.5Q278 621 278 669Z" glyph-name="abreve.school" horiz-adv-x="451" /><glyph d="M45 0ZM173 16Q237 16 272.5 70Q308 124 313 219V258H223Q158 258 116 224.5Q74 191 74 124Q74 72 100.5 44Q127 16 173 16ZM318 0 315 132Q301 61 262.5 25.5Q224 -10 168 -10Q114 -10 79.5 24.5Q45 59 45 122Q45 162 58.5 192Q72 222 95.5 242Q119 262 150.5 272Q182 282 219 282H313V299Q313 346 305 377.5Q297 409 282.5 427.5Q268 446 247 454Q226 462 199 462Q159 462 128.5 442.5Q98 423 82 375L56 387Q74 437 109 462.5Q144 488 201 488Q273 488 307.5 445.5Q342 403 342 302V0ZM200 649 131 563H100V565L188 670H213L300 565V563H269Z" glyph-name="acircumflex" horiz-adv-x="415" unicode="&#226;" /><glyph d="M51 0ZM209 649 140 563H109V565L197 670H222L309 565V563H278ZM345 244Q345 355 307.5 408.5Q270 462 213 462Q147 462 114 404Q81 346 81 239Q81 130 113.5 73Q146 16 212 16Q270 16 307.5 71.5Q345 127 345 244ZM205 -10Q130 -10 90.5 54Q51 118 51 239Q51 359 91.5 423.5Q132 488 209 488Q258 488 295.5 458Q333 428 347 365L349 478H374V0H349L346 121Q332 53 294 21.5Q256 -10 205 -10Z" glyph-name="acircumflex.school" horiz-adv-x="451" /><glyph d="M302 666 227 563H202V566L264 670H302Z" glyph-name="acute" horiz-adv-x="451" unicode="&#180;" /><glyph d="M45 0ZM173 16Q237 16 272.5 70Q308 124 313 219V258H223Q158 258 116 224.5Q74 191 74 124Q74 72 100.5 44Q127 16 173 16ZM318 0 315 132Q301 61 262.5 25.5Q224 -10 168 -10Q114 -10 79.5 24.5Q45 59 45 122Q45 162 58.5 192Q72 222 95.5 242Q119 262 150.5 272Q182 282 219 282H313V299Q313 346 305 377.5Q297 409 282.5 427.5Q268 446 247 454Q226 462 199 462Q159 462 128.5 442.5Q98 423 82 375L56 387Q74 437 109 462.5Q144 488 201 488Q273 488 307.5 445.5Q342 403 342 302V0ZM227 610Q227 624 234.5 632Q242 640 254 640Q281 640 281 610Q281 581 254 581Q242 581 234.5 588.5Q227 596 227 610ZM120 610Q120 624 127.5 632Q135 640 147 640Q174 640 174 610Q174 581 147 581Q135 581 127.5 588.5Q120 596 120 610Z" glyph-name="adieresis" horiz-adv-x="415" unicode="&#228;" /><glyph d="M51 0ZM232 610Q232 624 239.5 632Q247 640 259 640Q286 640 286 610Q286 581 259 581Q247 581 239.5 588.5Q232 596 232 610ZM125 610Q125 624 132.5 632Q140 640 152 640Q179 640 179 610Q179 581 152 581Q140 581 132.5 588.5Q125 596 125 610ZM345 244Q345 355 307.5 408.5Q270 462 213 462Q147 462 114 404Q81 346 81 239Q81 130 113.5 73Q146 16 212 16Q270 16 307.5 71.5Q345 127 345 244ZM205 -10Q130 -10 90.5 54Q51 118 51 239Q51 359 91.5 423.5Q132 488 209 488Q258 488 295.5 458Q333 428 347 365L349 478H374V0H349L346 121Q332 53 294 21.5Q256 -10 205 -10Z" glyph-name="adieresis.school" horiz-adv-x="451" /><glyph d="M473 -10Q411 -10 371 30Q331 70 320 155Q308 74 267.5 32Q227 -10 170 -10Q113 -10 79 23Q45 56 45 119Q45 195 91 232.5Q137 270 213 270H308V296Q308 389 279.5 426Q251 463 194 463Q155 463 126.5 443Q98 423 82 375L56 387Q74 436 107.5 462Q141 488 195 488Q255 488 286.5 456Q318 424 327 350Q358 488 472 488Q547 488 584 428.5Q621 369 621 261V246H337V233Q338 121 372.5 68Q407 15 474 15Q567 15 599 126L624 115Q605 55 568.5 22.5Q532 -10 473 -10ZM471 463Q347 463 338 270H593Q590 463 471 463ZM174 16Q237 16 272.5 71Q308 126 308 233V246H218Q149 246 111.5 214.5Q74 183 74 120Q74 69 100.5 42.5Q127 16 174 16Z" glyph-name="ae" horiz-adv-x="665" unicode="&#230;" /><glyph d="M45 0ZM173 16Q237 16 272.5 70Q308 124 313 219V258H223Q158 258 116 224.5Q74 191 74 124Q74 72 100.5 44Q127 16 173 16ZM318 0 315 132Q301 61 262.5 25.5Q224 -10 168 -10Q114 -10 79.5 24.5Q45 59 45 122Q45 162 58.5 192Q72 222 95.5 242Q119 262 150.5 272Q182 282 219 282H313V299Q313 346 305 377.5Q297 409 282.5 427.5Q268 446 247 454Q226 462 199 462Q159 462 128.5 442.5Q98 423 82 375L56 387Q74 437 109 462.5Q144 488 201 488Q273 488 307.5 445.5Q342 403 342 302V0ZM191 564 115 667V671H153L215 567V564Z" glyph-name="agrave" horiz-adv-x="415" unicode="&#224;" /><glyph d="M51 0ZM345 244Q345 355 307.5 408.5Q270 462 213 462Q147 462 114 404Q81 346 81 239Q81 130 113.5 73Q146 16 212 16Q270 16 307.5 71.5Q345 127 345 244ZM205 -10Q130 -10 90.5 54Q51 118 51 239Q51 359 91.5 423.5Q132 488 209 488Q258 488 295.5 458Q333 428 347 365L349 478H374V0H349L346 121Q332 53 294 21.5Q256 -10 205 -10ZM201 564 125 667V671H163L225 567V564Z" glyph-name="agrave.school" horiz-adv-x="451" /><glyph d="M45 0ZM173 16Q237 16 272.5 70Q308 124 313 219V258H223Q158 258 116 224.5Q74 191 74 124Q74 72 100.5 44Q127 16 173 16ZM318 0 315 132Q301 61 262.5 25.5Q224 -10 168 -10Q114 -10 79.5 24.5Q45 59 45 122Q45 162 58.5 192Q72 222 95.5 242Q119 262 150.5 272Q182 282 219 282H313V299Q313 346 305 377.5Q297 409 282.5 427.5Q268 446 247 454Q226 462 199 462Q159 462 128.5 442.5Q98 423 82 375L56 387Q74 437 109 462.5Q144 488 201 488Q273 488 307.5 445.5Q342 403 342 302V0ZM285 626V603H114V626Z" glyph-name="amacron" horiz-adv-x="415" unicode="&#257;" /><glyph d="M51 0ZM345 244Q345 355 307.5 408.5Q270 462 213 462Q147 462 114 404Q81 346 81 239Q81 130 113.5 73Q146 16 212 16Q270 16 307.5 71.5Q345 127 345 244ZM205 -10Q130 -10 90.5 54Q51 118 51 239Q51 359 91.5 423.5Q132 488 209 488Q258 488 295.5 458Q333 428 347 365L349 478H374V0H349L346 121Q332 53 294 21.5Q256 -10 205 -10ZM295 626V603H124V626Z" glyph-name="amacron.school" horiz-adv-x="451" /><glyph d="M496 -11Q466 13 437 37.5Q408 62 382 87Q347 37 302.5 13.5Q258 -10 207 -10Q171 -10 140 1.5Q109 13 85.5 35.5Q62 58 49 91.5Q36 125 36 169Q36 234 63.5 281Q91 328 148 373Q122 423 107.5 470Q93 517 93 561Q93 627 124.5 668.5Q156 710 220 710Q276 710 303.5 676.5Q331 643 331 589Q331 556 323 528.5Q315 501 297 475.5Q279 450 250.5 424Q222 398 182 367Q216 309 265 249Q314 189 377 129Q408 186 425.5 270.5Q443 355 443 471H470Q470 348 450.5 259Q431 170 396 110Q423 84 452 59.5Q481 35 512 11ZM120 561Q120 522 133 479Q146 436 170 390Q203 415 228.5 437.5Q254 460 270.5 483Q287 506 295.5 531Q304 556 304 586Q304 635 281 660Q258 685 220 685Q169 685 144.5 651.5Q120 618 120 561ZM208 15Q253 15 292 37Q331 59 362 105Q298 167 247 228.5Q196 290 161 350Q109 309 86.5 267.5Q64 226 64 172Q64 134 75 104.5Q86 75 105.5 55Q125 35 151 25Q177 15 208 15Z" glyph-name="ampersand" horiz-adv-x="523" unicode="&amp;" /><glyph d="M369 -177Q355 -189 340 -193.5Q325 -198 310 -198Q295 -198 281.5 -193.5Q268 -189 257.5 -179Q247 -169 241 -152Q235 -135 235 -110Q235 -85 242.5 -64Q250 -43 261.5 -27Q273 -11 288 -1Q303 9 318 13L315 132Q301 61 262.5 25.5Q224 -10 168 -10Q114 -10 79.5 24.5Q45 59 45 122Q45 162 58.5 192Q72 222 95.5 242Q119 262 150.5 272Q182 282 219 282H313V299Q313 346 305 377.5Q297 409 282.5 427.5Q268 446 247 454Q226 462 199 462Q159 462 128.5 442.5Q98 423 82 375L56 387Q74 437 109 462.5Q144 488 201 488Q273 488 307.5 445.5Q342 403 342 302V0H334Q305 -5 281.5 -34Q258 -63 258 -108Q258 -146 274 -160.5Q290 -175 311 -175Q325 -175 336 -171.5Q347 -168 358 -158ZM173 16Q237 16 272.5 70Q308 124 313 219V258H223Q158 258 116 224.5Q74 191 74 124Q74 72 100.5 44Q127 16 173 16Z" glyph-name="aogonek" horiz-adv-x="415" unicode="&#261;" /><glyph d="M51 0ZM345 244Q345 355 307.5 408.5Q270 462 213 462Q147 462 114 404Q81 346 81 239Q81 130 113.5 73Q146 16 212 16Q270 16 307.5 71.5Q345 127 345 244ZM205 -10Q130 -10 90.5 54Q51 118 51 239Q51 359 91.5 423.5Q132 488 209 488Q258 488 295.5 458Q333 428 347 365L349 478H374V0H349L346 121Q332 53 294 21.5Q256 -10 205 -10ZM348 -198Q333 -198 319.5 -193.5Q306 -189 295.5 -179Q285 -169 279 -152Q273 -135 273 -110Q273 -82 282 -59Q291 -36 305.5 -20Q320 -4 337 5Q354 14 370 16L372 0Q343 -5 319.5 -34Q296 -63 296 -108Q296 -146 312 -160.5Q328 -175 349 -175Q363 -175 374 -171.5Q385 -168 396 -158L407 -177Q393 -189 378 -193.5Q363 -198 348 -198Z" glyph-name="aogonek.school" horiz-adv-x="452" /><glyph d="M248 353Q268 353 290.5 361Q313 369 330 385V359Q315 344 291.5 336Q268 328 248 328Q228 328 213 334.5Q198 341 183.5 349Q169 357 154 363.5Q139 370 120 370Q100 370 78.5 362.5Q57 355 40 339V365Q56 380 78 388Q100 396 120 396Q140 396 156 389.5Q172 383 186.5 374.5Q201 366 215.5 359.5Q230 353 248 353ZM248 242Q268 242 290.5 250Q313 258 330 274V247Q315 232 291.5 224.5Q268 217 248 217Q228 217 213 223.5Q198 230 183.5 238Q169 246 154 252.5Q139 259 120 259Q100 259 78.5 251.5Q57 244 40 227V254Q56 269 78 276.5Q100 284 120 284Q140 284 156 277.5Q172 271 186.5 263Q201 255 215.5 248.5Q230 242 248 242Z" glyph-name="approxequal" horiz-adv-x="370" unicode="&#8776;" /><glyph d="M45 0ZM173 16Q237 16 272.5 70Q308 124 313 219V258H223Q158 258 116 224.5Q74 191 74 124Q74 72 100.5 44Q127 16 173 16ZM318 0 315 132Q301 61 262.5 25.5Q224 -10 168 -10Q114 -10 79.5 24.5Q45 59 45 122Q45 162 58.5 192Q72 222 95.5 242Q119 262 150.5 272Q182 282 219 282H313V299Q313 346 305 377.5Q297 409 282.5 427.5Q268 446 247 454Q226 462 199 462Q159 462 128.5 442.5Q98 423 82 375L56 387Q74 437 109 462.5Q144 488 201 488Q273 488 307.5 445.5Q342 403 342 302V0ZM130 629Q130 664 150 687Q170 710 202 710Q232 710 252 687Q272 664 272 629Q272 594 252 571.5Q232 549 201 549Q170 549 150 571.5Q130 594 130 629ZM152 629Q152 603 166 586Q180 569 201 569Q222 569 236 586Q250 603 250 629Q250 656 236 673Q222 690 202 690Q180 690 166 673Q152 656 152 629Z" glyph-name="aring" horiz-adv-x="415" unicode="&#229;" /><glyph d="M51 0ZM345 244Q345 355 307.5 408.5Q270 462 213 462Q147 462 114 404Q81 346 81 239Q81 130 113.5 73Q146 16 212 16Q270 16 307.5 71.5Q345 127 345 244ZM205 -10Q130 -10 90.5 54Q51 118 51 239Q51 359 91.5 423.5Q132 488 209 488Q258 488 295.5 458Q333 428 347 365L349 478H374V0H349L346 121Q332 53 294 21.5Q256 -10 205 -10ZM138 629Q138 664 158 687Q178 710 210 710Q240 710 260 687Q280 664 280 629Q280 594 260 571.5Q240 549 209 549Q178 549 158 571.5Q138 594 138 629ZM160 629Q160 603 174 586Q188 569 209 569Q230 569 244 586Q258 603 258 629Q258 656 244 673Q230 690 210 690Q188 690 174 673Q160 656 160 629Z" glyph-name="aring.school" horiz-adv-x="451" /><glyph d="M133 701H159L268 403V402H241L146 669L48 402H22V403Z" glyph-name="asciicircum" horiz-adv-x="290" unicode="^" /><glyph d="M327 399 351 395Q348 363 340.5 342.5Q333 322 321.5 310Q310 298 296.5 293.5Q283 289 268 289Q242 289 221.5 302.5Q201 316 181 332Q163 347 145.5 359Q128 371 106 371Q96 371 86.5 367.5Q77 364 68.5 355Q60 346 54 330Q48 314 46 289L22 293Q25 324 33 344.5Q41 365 52 377Q63 389 77 394Q91 399 105 399Q131 399 151.5 386Q172 373 192 356Q210 341 228 329Q246 317 267 317Q277 317 287 320.5Q297 324 305 333Q313 342 319 358Q325 374 327 399Z" glyph-name="asciitilde" horiz-adv-x="373" unicode="~" /><glyph d="M69 384 49 398 128 528 22 573 30 597 134 550 131 710H159L156 550L261 597L269 573L163 528L242 398L222 384L145 513Z" glyph-name="asterisk" horiz-adv-x="290" unicode="*" /><glyph d="M314 -93Q254 -93 206 -69Q158 -45 124.5 -1.5Q91 42 73.5 104Q56 166 56 242Q56 318 73.5 380Q91 442 124.5 486Q158 530 206 553.5Q254 577 314 577Q372 577 417.5 555.5Q463 534 494 494.5Q525 455 541.5 399.5Q558 344 558 276Q558 191 531 141Q504 91 452 91Q420 91 403 112.5Q386 134 386 179Q375 127 348.5 103.5Q322 80 284 80Q244 80 220.5 104Q197 128 197 171Q197 222 230 250Q263 278 316 278H382Q382 348 361.5 373.5Q341 399 302 399Q270 399 251.5 385.5Q233 372 219 344L202 355Q230 419 304 419Q355 419 379.5 387Q404 355 404 282V192Q404 109 455 109Q497 109 517.5 153.5Q538 198 538 275Q538 341 522.5 394Q507 447 478 483.5Q449 520 407.5 540Q366 560 314 560Q259 560 215 538Q171 516 140 474.5Q109 433 92.5 374Q76 315 76 242Q76 168 93 109.5Q110 51 141 9.5Q172 -32 216 -54Q260 -76 314 -76Q434 -76 497 15L510 4Q477 -44 427.5 -68.5Q378 -93 314 -93ZM288 100Q333 100 356 140Q379 180 382 246V260H320Q274 260 246.5 237.5Q219 215 219 171Q219 138 237.5 119Q256 100 288 100Z" glyph-name="at" horiz-adv-x="613" unicode="@" /><glyph d="M56 14ZM314 14Q254 14 206 38Q158 62 124.5 105.5Q91 149 73.5 211Q56 273 56 349Q56 425 73.5 487Q91 549 124.5 593Q158 637 206 660.5Q254 684 314 684Q372 684 417.5 662.5Q463 641 494 601.5Q525 562 541.5 506.5Q558 451 558 383Q558 298 531 248Q504 198 452 198Q420 198 403 219.5Q386 241 386 286Q375 234 348.5 210.5Q322 187 284 187Q244 187 220.5 211Q197 235 197 278Q197 329 230 357Q263 385 316 385H382Q382 455 361.5 480.5Q341 506 302 506Q270 506 251.5 492.5Q233 479 219 451L202 462Q230 526 304 526Q355 526 379.5 494Q404 462 404 389V299Q404 216 455 216Q497 216 517.5 260.5Q538 305 538 382Q538 448 522.5 501Q507 554 478 590.5Q449 627 407.5 647Q366 667 314 667Q259 667 215 645Q171 623 140 581.5Q109 540 92.5 481Q76 422 76 349Q76 275 93 216.5Q110 158 141 116.5Q172 75 216 53Q260 31 314 31Q434 31 497 122L510 111Q477 63 427.5 38.5Q378 14 314 14ZM288 207Q333 207 356 247Q379 287 382 353V367H320Q274 367 246.5 344.5Q219 322 219 278Q219 245 237.5 226Q256 207 288 207Z" glyph-name="at.cap" horiz-adv-x="613" /><glyph d="M45 0ZM173 16Q237 16 272.5 70Q308 124 313 219V258H223Q158 258 116 224.5Q74 191 74 124Q74 72 100.5 44Q127 16 173 16ZM318 0 315 132Q301 61 262.5 25.5Q224 -10 168 -10Q114 -10 79.5 24.5Q45 59 45 122Q45 162 58.5 192Q72 222 95.5 242Q119 262 150.5 272Q182 282 219 282H313V299Q313 346 305 377.5Q297 409 282.5 427.5Q268 446 247 454Q226 462 199 462Q159 462 128.5 442.5Q98 423 82 375L56 387Q74 437 109 462.5Q144 488 201 488Q273 488 307.5 445.5Q342 403 342 302V0ZM273 656H295Q295 633 290.5 618.5Q286 604 278.5 595.5Q271 587 262 584Q253 581 244 581Q228 581 217 589.5Q206 598 196 608.5Q186 619 176 627.5Q166 636 153 636Q142 636 133.5 626Q125 616 125 585H103Q103 608 108 622.5Q113 637 120 645Q127 653 135.5 656Q144 659 153 659Q169 659 180.5 650.5Q192 642 202 632Q212 622 222 613.5Q232 605 246 605Q258 605 265 616Q272 627 273 656Z" glyph-name="atilde" horiz-adv-x="415" unicode="&#227;" /><glyph d="M51 0ZM345 244Q345 355 307.5 408.5Q270 462 213 462Q147 462 114 404Q81 346 81 239Q81 130 113.5 73Q146 16 212 16Q270 16 307.5 71.5Q345 127 345 244ZM205 -10Q130 -10 90.5 54Q51 118 51 239Q51 359 91.5 423.5Q132 488 209 488Q258 488 295.5 458Q333 428 347 365L349 478H374V0H349L346 121Q332 53 294 21.5Q256 -10 205 -10ZM283 656H305Q305 633 300.5 618.5Q296 604 288.5 595.5Q281 587 272 584Q263 581 254 581Q238 581 227 589.5Q216 598 206 608.5Q196 619 186 627.5Q176 636 163 636Q152 636 143.5 626Q135 616 135 585H113Q113 608 118 622.5Q123 637 130 645Q137 653 145.5 656Q154 659 163 659Q179 659 190.5 650.5Q202 642 212 632Q222 622 232 613.5Q242 605 256 605Q268 605 275 616Q282 627 283 656Z" glyph-name="atilde.school" horiz-adv-x="451" /><glyph d="M243 -10Q195 -10 157 18Q119 46 105 109L103 0H78V700H107V359Q121 425 160 456.5Q199 488 250 488Q322 488 361.5 424.5Q401 361 401 240Q401 120 360.5 55Q320 -10 243 -10ZM107 234Q107 121 144.5 68.5Q182 16 239 16Q305 16 338 74Q371 132 371 239Q371 348 339 405Q307 462 243 462Q183 462 145 406Q107 350 107 234Z" glyph-name="b" horiz-adv-x="452" unicode="b" /><glyph d="M303 0 13 700H42L333 0Z" glyph-name="backslash" horiz-adv-x="349" unicode="\" /><glyph d="M89 -65V766H116V-65Z" glyph-name="bar" horiz-adv-x="206" unicode="|" /><glyph d="M202 -72Q164 -67 143.5 -41.5Q123 -16 123 36Q123 71 127.5 105.5Q132 140 132 170Q132 242 112 275Q92 308 41 308H26V332H41Q92 332 112 365Q132 398 132 470Q132 502 127.5 536Q123 570 123 605Q123 656 143.5 681.5Q164 707 202 713L210 689Q181 684 165 664Q149 644 149 603Q149 574 154 538.5Q159 503 159 468Q159 402 143 367Q127 332 87 321Q127 309 143 274Q159 239 159 173Q159 138 154 102.5Q149 67 149 38Q149 -3 165 -23Q181 -43 210 -48Z" glyph-name="braceleft" horiz-adv-x="265" unicode="{" /><glyph d="M55 -48Q84 -43 100 -23Q116 -3 116 38Q116 67 111 102.5Q106 138 106 173Q106 239 122 274Q138 309 178 321Q138 332 122 367Q106 402 106 468Q106 503 111 538.5Q116 574 116 603Q116 644 100 664Q84 684 55 689L63 713Q101 707 121.5 681.5Q142 656 142 605Q142 570 137.5 536Q133 502 133 470Q133 398 153 365Q173 332 224 332H239V308H224Q173 308 153 275Q133 242 133 170Q133 140 137.5 105.5Q142 71 142 36Q142 -16 121.5 -41.5Q101 -67 63 -72Z" glyph-name="braceright" horiz-adv-x="265" unicode="}" /><glyph d="M82 -65V700H202V676H109V-41H209V-65Z" glyph-name="bracketleft" horiz-adv-x="258" unicode="[" /><glyph d="M44 -65V-41H144V676H51V700H171V-65Z" glyph-name="bracketright" horiz-adv-x="259" unicode="]" /><glyph d="M295 669H316Q316 610 292 587Q268 564 225 564Q182 564 158 587Q134 610 134 669H156Q156 621 173.5 603.5Q191 586 225 586Q258 586 276.5 603.5Q295 621 295 669Z" glyph-name="breve" horiz-adv-x="451" unicode="&#728;" /><glyph d="M89 377V766H116V377ZM89 -65V324H116V-65Z" glyph-name="brokenbar" horiz-adv-x="206" unicode="&#166;" /><glyph d="M58 327Q58 378 86 408Q114 438 163 438Q211 438 239 408Q267 378 267 327Q267 276 239 246Q211 216 163 216Q114 216 86 246Q58 276 58 327Z" glyph-name="bullet" horiz-adv-x="325" unicode="&#8226;" /><glyph d="M218 -10Q135 -10 93 50.5Q51 111 51 237Q51 366 93.5 427Q136 488 220 488Q275 488 309 460Q343 432 363 375L337 362Q319 416 290 439Q261 462 219 462Q150 462 115.5 409Q81 356 81 237Q81 122 115 69Q149 16 218 16Q266 16 296 43Q326 70 343 128L368 117Q351 56 314.5 23Q278 -10 218 -10Z" glyph-name="c" horiz-adv-x="401" unicode="c" /><glyph d="M51 0ZM218 -10Q135 -10 93 50.5Q51 111 51 237Q51 366 93.5 427Q136 488 220 488Q275 488 309 460Q343 432 363 375L337 362Q319 416 290 439Q261 462 219 462Q150 462 115.5 409Q81 356 81 237Q81 122 115 69Q149 16 218 16Q266 16 296 43Q326 70 343 128L368 117Q351 56 314.5 23Q278 -10 218 -10ZM303 666 228 563H203V566L265 670H303Z" glyph-name="cacute" horiz-adv-x="401" unicode="&#263;" /><glyph d="M222 585 292 670H322V669L234 563H210L122 669V670H154Z" glyph-name="caron" horiz-adv-x="451" unicode="&#711;" /><glyph d="M216 516H195L200 700H231Z" glyph-name="caronSlovak" horiz-adv-x="451" /><glyph d="M51 0ZM218 -10Q135 -10 93 50.5Q51 111 51 237Q51 366 93.5 427Q136 488 220 488Q275 488 309 460Q343 432 363 375L337 362Q319 416 290 439Q261 462 219 462Q150 462 115.5 409Q81 356 81 237Q81 122 115 69Q149 16 218 16Q266 16 296 43Q326 70 343 128L368 117Q351 56 314.5 23Q278 -10 218 -10ZM218 585 288 670H318V669L230 563H206L118 669V670H150Z" glyph-name="ccaron" horiz-adv-x="401" unicode="&#269;" /><glyph d="M213 -221Q187 -221 168 -209.5Q149 -198 135 -172L154 -160Q165 -182 179 -191Q193 -200 213 -200Q271 -200 271 -147Q271 -121 257 -110Q243 -99 226 -99Q215 -99 205 -102L196 -94L209 -10Q131 -6 91 54.5Q51 115 51 237Q51 366 93.5 427Q136 488 220 488Q275 488 309 460Q343 432 363 375L337 362Q319 416 290 439Q261 462 219 462Q150 462 115.5 409.5Q81 357 81 237Q81 121 115 68.5Q149 16 218 16Q266 16 296 43Q326 70 343 128L368 117Q351 59 317.5 26.5Q284 -6 230 -10L218 -83Q223 -81 233 -81Q256 -81 275 -96Q294 -111 294 -147Q294 -183 272.5 -202Q251 -221 213 -221Z" glyph-name="ccedilla" horiz-adv-x="401" unicode="&#231;" /><glyph d="M51 0ZM218 -10Q135 -10 93 50.5Q51 111 51 237Q51 366 93.5 427Q136 488 220 488Q275 488 309 460Q343 432 363 375L337 362Q319 416 290 439Q261 462 219 462Q150 462 115.5 409Q81 356 81 237Q81 122 115 69Q149 16 218 16Q266 16 296 43Q326 70 343 128L368 117Q351 56 314.5 23Q278 -10 218 -10ZM219 649 150 563H119V565L207 670H232L319 565V563H288Z" glyph-name="ccircumflex" horiz-adv-x="401" unicode="&#265;" /><glyph d="M51 0ZM218 -10Q135 -10 93 50.5Q51 111 51 237Q51 366 93.5 427Q136 488 220 488Q275 488 309 460Q343 432 363 375L337 362Q319 416 290 439Q261 462 219 462Q150 462 115.5 409Q81 356 81 237Q81 122 115 69Q149 16 218 16Q266 16 296 43Q326 70 343 128L368 117Q351 56 314.5 23Q278 -10 218 -10ZM191 610Q191 624 198.5 631.5Q206 639 218 639Q245 639 245 610Q245 596 238 588Q231 580 218 580Q206 580 198.5 588Q191 596 191 610Z" glyph-name="cdotaccent" horiz-adv-x="401" unicode="&#267;" /><glyph d="M238 -221Q212 -221 192.5 -209.5Q173 -198 159 -172L178 -160Q189 -182 203 -191Q217 -200 237 -200Q295 -200 295 -147Q295 -121 281 -110Q267 -99 250 -99Q239 -99 229 -102L220 -94L234 0H256L243 -83Q246 -81 250 -81H258Q280 -81 299 -96Q318 -111 318 -147Q318 -183 296.5 -202Q275 -221 238 -221Z" glyph-name="cedilla" horiz-adv-x="451" unicode="&#184;" /><glyph d="M363 140Q346 81 311.5 49.5Q277 18 223 16V-62H201V16Q126 20 87.5 77.5Q49 135 49 252Q49 370 87.5 428Q126 486 201 491V571H223V491Q274 490 306.5 462.5Q339 435 358 380L334 368Q316 419 288.5 441.5Q261 464 223 466V41Q309 44 340 150ZM77 252Q77 146 107.5 95.5Q138 45 201 41V465Q138 461 107.5 411Q77 361 77 252Z" glyph-name="cent" horiz-adv-x="404" unicode="&#162;" /><glyph d="M222 649 153 563H122V565L210 670H235L322 565V563H291Z" glyph-name="circumflex" horiz-adv-x="451" unicode="&#710;" /><glyph d="M50 0ZM77 -6Q65 -6 57.5 2Q50 10 50 24Q50 38 57.5 46Q65 54 77 54Q104 54 104 24Q104 10 97 2Q90 -6 77 -6ZM77 390Q65 390 57.5 398Q50 406 50 420Q50 434 57.5 442Q65 450 77 450Q104 450 104 420Q104 406 97 398Q90 390 77 390Z" glyph-name="colon" horiz-adv-x="155" unicode=":" /><glyph d="M56 -102 46 -88Q66 -75 76 -51.5Q86 -28 87 -2Q73 -8 61.5 -0.5Q50 7 50 24Q50 38 58 46Q66 54 77 54Q91 54 99 44.5Q107 35 107 11Q107 -25 94 -56Q81 -87 56 -102Z" glyph-name="comma" horiz-adv-x="155" unicode="," /><glyph d="M249 -113Q249 -149 236 -179Q223 -209 200 -223L190 -210Q208 -198 219 -174.5Q230 -151 231 -125Q217 -131 205.5 -124Q194 -117 194 -100Q194 -86 201.5 -79Q209 -72 221 -72Q235 -72 242 -81Q249 -90 249 -113Z" glyph-name="commaaccent" horiz-adv-x="451" unicode="&#63171;" /><glyph d="M56 349Q56 426 73.5 488Q91 550 123.5 593.5Q156 637 202.5 660.5Q249 684 308 684Q367 684 413.5 660.5Q460 637 492.5 593.5Q525 550 542.5 488Q560 426 560 349Q560 271 542.5 209Q525 147 492.5 103.5Q460 60 413.5 36.5Q367 13 308 13Q249 13 202.5 36.5Q156 60 123.5 103.5Q91 147 73.5 209Q56 271 56 349ZM76 349Q76 275 92 216Q108 157 138 115.5Q168 74 211 52Q254 30 308 30Q362 30 405 52Q448 74 478 115.5Q508 157 524 216Q540 275 540 349Q540 422 524 481Q508 540 478 581.5Q448 623 405 645Q362 667 308 667Q254 667 211 645Q168 623 138 581.5Q108 540 92 481Q76 422 76 349ZM425 270Q396 173 312 173Q250 173 217 215Q184 257 184 350Q184 444 217 487Q250 530 313 530Q392 530 420 445L400 434Q387 475 364.5 492.5Q342 510 313 510Q261 510 234 473Q207 436 207 350Q207 266 234 230Q261 194 312 194Q348 194 370 214.5Q392 235 405 278Z" glyph-name="copyright" horiz-adv-x="616" unicode="&#169;" /><glyph d="M156 360Q99 360 69 402Q39 444 39 534Q39 625 69.5 667.5Q100 710 158 710Q232 710 258 640L239 629Q228 659 206.5 674Q185 689 158 689Q110 689 86.5 653Q63 617 63 534Q63 453 86 417Q109 381 157 381Q189 381 209.5 396.5Q230 412 241 449L260 440Q248 398 221 379Q194 360 156 360Z" glyph-name="cordinal" horiz-adv-x="295" /><glyph d="M345 244Q345 355 308 408.5Q271 462 214 462Q147 462 114 404Q81 346 81 239Q81 130 114 73Q147 16 212 16Q270 16 307.5 71.5Q345 127 345 244ZM349 0 347 120Q333 54 294.5 22Q256 -10 205 -10Q130 -10 90.5 54Q51 118 51 239Q51 359 91.5 423.5Q132 488 209 488Q258 488 294.5 458.5Q331 429 345 369V700H374V0Z" glyph-name="d" horiz-adv-x="452" unicode="d" /><glyph d="M182 571H127L125 334H102V571H47V593H101V709H129L127 593H182Z" glyph-name="dagger" horiz-adv-x="229" unicode="&#8224;" /><glyph d="M47 465H102V573H47V596H102L101 709H129L127 596H182V573H127V465H182V442H127L129 327H101V442H47Z" glyph-name="daggerdbl" horiz-adv-x="229" unicode="&#8225;" /><glyph d="M51 0ZM475 516H454L459 700H490ZM345 244Q345 355 308 408.5Q271 462 214 462Q147 462 114 404Q81 346 81 239Q81 130 114 73Q147 16 212 16Q270 16 307.5 71.5Q345 127 345 244ZM349 0 347 120Q333 54 294.5 22Q256 -10 205 -10Q130 -10 90.5 54Q51 118 51 239Q51 359 91.5 423.5Q132 488 209 488Q258 488 294.5 458.5Q331 429 345 369V700H374V0Z" glyph-name="dcaron" horiz-adv-x="485" unicode="&#271;" /><glyph d="M345 244Q345 355 308 408.5Q271 462 214 462Q147 462 114 404Q81 346 81 239Q81 130 113.5 73Q146 16 212 16Q270 16 307.5 71.5Q345 127 345 244ZM347 122Q333 54 294.5 22Q256 -10 205 -10Q130 -10 90.5 54Q51 118 51 239Q51 358 91.5 423Q132 488 209 488Q258 488 294.5 458.5Q331 429 345 366V569H217V591H345V700H374V591H437V569H374V0H349Z" glyph-name="dcroat" horiz-adv-x="461" unicode="&#273;" /><glyph d="M172 362Q109 362 75 409.5Q41 457 41 535Q41 613 75 661Q109 709 172 709Q234 709 268.5 661Q303 613 303 535Q303 457 268.5 409.5Q234 362 172 362ZM172 686Q121 686 93 645Q65 604 65 535Q65 466 93 425.5Q121 385 172 385Q223 385 251 425.5Q279 466 279 535Q279 604 251 645Q223 686 172 686Z" glyph-name="degree" horiz-adv-x="343" unicode="&#176;" /><glyph d="M253 610Q253 624 260.5 632Q268 640 280 640Q307 640 307 610Q307 581 280 581Q268 581 260.5 588.5Q253 596 253 610ZM146 610Q146 624 153.5 632Q161 640 173 640Q200 640 200 610Q200 581 173 581Q161 581 153.5 588.5Q146 596 146 610Z" glyph-name="dieresis" horiz-adv-x="451" unicode="&#168;" /><glyph d="M158 448Q158 462 165.5 470Q173 478 184 478Q196 478 203 470Q210 462 210 448Q210 434 203 426Q196 418 184 418Q173 418 165.5 426Q158 434 158 448ZM328 318V292H40V318ZM158 168Q158 182 165.5 190Q173 198 184 198Q210 198 210 168Q210 138 184 138Q173 138 165.5 146Q158 154 158 168Z" glyph-name="divide" horiz-adv-x="368" unicode="&#247;" /><glyph d="M80 523Q80 464 108 430Q136 396 187 378L204 372V654Q140 652 110 617.5Q80 583 80 523ZM356 182Q356 237 329 272.5Q302 308 235 331L226 334V37Q294 39 325 77Q356 115 356 182ZM204 -62V12Q174 13 147 20.5Q120 28 97.5 45Q75 62 57 89.5Q39 117 26 158L51 170Q73 97 112.5 68Q152 39 204 37V341L187 347Q121 370 86.5 411.5Q52 453 52 520Q52 590 88.5 633.5Q125 677 204 679V766H226V679Q280 677 320 648.5Q360 620 380 550L355 539Q336 601 302 626Q268 651 226 653V366L235 363Q313 337 348.5 295Q384 253 384 183Q384 99 343.5 57Q303 15 226 13V-62Z" glyph-name="dollar" horiz-adv-x="425" unicode="$" /><glyph d="M199 610Q199 624 206.5 631.5Q214 639 226 639Q253 639 253 610Q253 596 246 588Q239 580 226 580Q214 580 206.5 588Q199 596 199 610Z" glyph-name="dotaccent" horiz-adv-x="451" unicode="&#729;" /><glyph d="M78 478H107V0H78Z" glyph-name="dotlessi" horiz-adv-x="185" unicode="&#305;" /><glyph d="M78 -58V478H107V-69Q107 -141 83.5 -173Q60 -205 17 -205Q-13 -205 -38 -191L-27 -165Q-16 -171 -6 -174.5Q4 -178 18 -178Q48 -178 63 -151.5Q78 -125 78 -58Z" glyph-name="dotlessj" horiz-adv-x="185" unicode="&#567;" /><glyph d="M172 -65V766H199V-65ZM89 -65V766H116V-65Z" glyph-name="doublebar" horiz-adv-x="288" /><glyph d="M217 -10Q138 -10 94.5 50.5Q51 111 51 239Q51 363 92.5 425.5Q134 488 213 488Q288 488 326.5 427.5Q365 367 365 252V232H80Q82 120 116.5 67.5Q151 15 218 15Q311 15 343 126L368 115Q349 55 312.5 22.5Q276 -10 217 -10ZM212 463Q149 463 116 410.5Q83 358 81 256H337Q334 463 212 463Z" glyph-name="e" horiz-adv-x="408" unicode="e" /><glyph d="M51 0ZM217 -10Q138 -10 94.5 50.5Q51 111 51 239Q51 363 92.5 425.5Q134 488 213 488Q288 488 326.5 427.5Q365 367 365 252V232H80Q82 120 116.5 67.5Q151 15 218 15Q311 15 343 126L368 115Q349 55 312.5 22.5Q276 -10 217 -10ZM212 463Q149 463 116 410.5Q83 358 81 256H337Q334 463 212 463ZM298 666 223 563H198V566L260 670H298Z" glyph-name="eacute" horiz-adv-x="408" unicode="&#233;" /><glyph d="M51 0ZM217 -10Q138 -10 94.5 50.5Q51 111 51 239Q51 363 92.5 425.5Q134 488 213 488Q288 488 326.5 427.5Q365 367 365 252V232H80Q82 120 116.5 67.5Q151 15 218 15Q311 15 343 126L368 115Q349 55 312.5 22.5Q276 -10 217 -10ZM212 463Q149 463 116 410.5Q83 358 81 256H337Q334 463 212 463ZM283 669H304Q304 610 280 587Q256 564 213 564Q170 564 146 587Q122 610 122 669H144Q144 621 161.5 603.5Q179 586 213 586Q246 586 264.5 603.5Q283 621 283 669Z" glyph-name="ebreve" horiz-adv-x="408" unicode="&#277;" /><glyph d="M51 0ZM217 -10Q138 -10 94.5 50.5Q51 111 51 239Q51 363 92.5 425.5Q134 488 213 488Q288 488 326.5 427.5Q365 367 365 252V232H80Q82 120 116.5 67.5Q151 15 218 15Q311 15 343 126L368 115Q349 55 312.5 22.5Q276 -10 217 -10ZM212 463Q149 463 116 410.5Q83 358 81 256H337Q334 463 212 463ZM212 585 282 670H312V669L224 563H200L112 669V670H144Z" glyph-name="ecaron" horiz-adv-x="408" unicode="&#283;" /><glyph d="M51 0ZM217 -10Q138 -10 94.5 50.5Q51 111 51 239Q51 363 92.5 425.5Q134 488 213 488Q288 488 326.5 427.5Q365 367 365 252V232H80Q82 120 116.5 67.5Q151 15 218 15Q311 15 343 126L368 115Q349 55 312.5 22.5Q276 -10 217 -10ZM212 463Q149 463 116 410.5Q83 358 81 256H337Q334 463 212 463ZM213 649 144 563H113V565L201 670H226L313 565V563H282Z" glyph-name="ecircumflex" horiz-adv-x="408" unicode="&#234;" /><glyph d="M51 0ZM217 -10Q138 -10 94.5 50.5Q51 111 51 239Q51 363 92.5 425.5Q134 488 213 488Q288 488 326.5 427.5Q365 367 365 252V232H80Q82 120 116.5 67.5Q151 15 218 15Q311 15 343 126L368 115Q349 55 312.5 22.5Q276 -10 217 -10ZM212 463Q149 463 116 410.5Q83 358 81 256H337Q334 463 212 463ZM241 610Q241 624 248.5 632Q256 640 268 640Q295 640 295 610Q295 581 268 581Q256 581 248.5 588.5Q241 596 241 610ZM134 610Q134 624 141.5 632Q149 640 161 640Q188 640 188 610Q188 581 161 581Q149 581 141.5 588.5Q134 596 134 610Z" glyph-name="edieresis" horiz-adv-x="408" unicode="&#235;" /><glyph d="M51 0ZM217 -10Q138 -10 94.5 50.5Q51 111 51 239Q51 363 92.5 425.5Q134 488 213 488Q288 488 326.5 427.5Q365 367 365 252V232H80Q82 120 116.5 67.5Q151 15 218 15Q311 15 343 126L368 115Q349 55 312.5 22.5Q276 -10 217 -10ZM212 463Q149 463 116 410.5Q83 358 81 256H337Q334 463 212 463ZM186 610Q186 624 193.5 631.5Q201 639 213 639Q240 639 240 610Q240 596 233 588Q226 580 213 580Q201 580 193.5 588Q186 596 186 610Z" glyph-name="edotaccent" horiz-adv-x="408" unicode="&#279;" /><glyph d="M51 0ZM217 -10Q138 -10 94.5 50.5Q51 111 51 239Q51 363 92.5 425.5Q134 488 213 488Q288 488 326.5 427.5Q365 367 365 252V232H80Q82 120 116.5 67.5Q151 15 218 15Q311 15 343 126L368 115Q349 55 312.5 22.5Q276 -10 217 -10ZM212 463Q149 463 116 410.5Q83 358 81 256H337Q334 463 212 463ZM204 564 128 667V671H166L228 567V564Z" glyph-name="egrave" horiz-adv-x="408" unicode="&#232;" /><glyph d="M87 0ZM268 -10Q183 -10 135 43.5Q87 97 87 190Q87 265 122 314Q157 363 210 377Q165 392 136.5 433Q108 474 108 540Q108 621 150.5 665.5Q193 710 268 710Q343 710 386 665.5Q429 621 429 540Q429 474 399.5 433.5Q370 393 324 377Q378 363 413.5 314.5Q449 266 449 190Q449 97 401 43.5Q353 -10 268 -10ZM400 539Q400 605 366.5 644.5Q333 684 268 684Q205 684 171 644.5Q137 605 137 539Q137 471 171.5 430.5Q206 390 268 390Q330 390 365 430.5Q400 471 400 539ZM268 16Q341 16 380 64Q419 112 419 191Q419 267 379.5 315Q340 363 268 363Q233 363 205 350Q177 337 157.5 314Q138 291 127.5 259.5Q117 228 117 191Q117 112 156.5 64Q196 16 268 16Z" glyph-name="eight" horiz-adv-x="535" unicode="8" /><glyph d="M238 -10Q153 -10 105 43.5Q57 97 57 190Q57 265 92 314Q127 363 180 377Q135 392 106.5 433Q78 474 78 540Q78 621 120.5 665.5Q163 710 238 710Q313 710 356 665.5Q399 621 399 540Q399 474 369.5 433.5Q340 393 294 377Q348 363 383.5 314.5Q419 266 419 190Q419 97 371 43.5Q323 -10 238 -10ZM370 539Q370 605 336.5 644.5Q303 684 238 684Q175 684 141 644.5Q107 605 107 539Q107 471 141.5 430.5Q176 390 238 390Q300 390 335 430.5Q370 471 370 539ZM238 16Q311 16 350 64Q389 112 389 191Q389 267 349.5 315Q310 363 238 363Q203 363 175 350Q147 337 127.5 314Q108 291 97.5 259.5Q87 228 87 191Q87 112 126.5 64Q166 16 238 16Z" glyph-name="eight.LP" horiz-adv-x="476" /><glyph d="M222 -10Q141 -10 95 43.5Q49 97 49 190Q49 265 82.5 314Q116 363 168 377Q124 392 97 433.5Q70 475 70 540Q70 620 110 665Q150 710 222 710Q294 710 334.5 665Q375 620 375 540Q375 475 347 433.5Q319 392 276 377Q329 363 362 314.5Q395 266 395 190Q395 97 349.5 43.5Q304 -10 222 -10ZM346 539Q346 606 314 645Q282 684 222 684Q162 684 130.5 645Q99 606 99 539Q99 470 131.5 430Q164 390 222 390Q280 390 313 430Q346 470 346 539ZM222 16Q291 16 328 64Q365 112 365 191Q365 267 327.5 315Q290 363 222 363Q189 363 162.5 350Q136 337 117.5 314Q99 291 89 259.5Q79 228 79 191Q79 112 116 64Q153 16 222 16Z" glyph-name="eight.OP" horiz-adv-x="444" /><glyph d="M268 -10Q183 -10 135 43.5Q87 97 87 190Q87 265 122 314Q157 363 210 377Q165 392 136.5 433Q108 474 108 540Q108 621 150.5 665.5Q193 710 268 710Q343 710 386 665.5Q429 621 429 540Q429 474 399.5 433.5Q370 393 324 377Q378 363 413.5 314.5Q449 266 449 190Q449 97 401 43.5Q353 -10 268 -10ZM400 539Q400 605 366.5 644.5Q333 684 268 684Q205 684 171 644.5Q137 605 137 539Q137 471 171.5 430.5Q206 390 268 390Q330 390 365 430.5Q400 471 400 539ZM268 16Q341 16 380 64Q419 112 419 191Q419 267 379.5 315Q340 363 268 363Q233 363 205 350Q177 337 157.5 314Q138 291 127.5 259.5Q117 228 117 191Q117 112 156.5 64Q196 16 268 16Z" glyph-name="eight.OT" horiz-adv-x="535" /><glyph d="M36 0ZM144 -207Q92 -207 64 -175.5Q36 -144 36 -89Q36 -46 55 -18Q74 10 106 19Q80 28 64.5 52Q49 76 49 113Q49 161 73.5 187.5Q98 214 144 214Q191 214 215.5 187.5Q240 161 240 113Q240 77 224 52.5Q208 28 182 19Q214 11 233 -17Q252 -45 252 -89Q252 -144 224.5 -175.5Q197 -207 144 -207ZM217 112Q217 149 199 171Q181 193 144 193Q107 193 89.5 171Q72 149 72 112Q72 74 90 51.5Q108 29 144 29Q180 29 198.5 51.5Q217 74 217 112ZM228 -88Q228 -45 206.5 -19Q185 7 144 7Q103 7 81.5 -19Q60 -45 60 -88Q60 -133 81 -159.5Q102 -186 144 -186Q186 -186 207 -159.5Q228 -133 228 -88Z" glyph-name="eight.inf" horiz-adv-x="289" /><glyph d="M378 -6Q366 -6 358.5 2Q351 10 351 24Q351 38 358.5 46Q366 54 378 54Q405 54 405 24Q405 10 398 2Q391 -6 378 -6ZM228 -6Q216 -6 208.5 2Q201 10 201 24Q201 38 208.5 46Q216 54 228 54Q255 54 255 24Q255 10 248 2Q241 -6 228 -6ZM77 -6Q65 -6 57.5 2Q50 10 50 24Q50 38 57.5 46Q65 54 77 54Q104 54 104 24Q104 10 97 2Q90 -6 77 -6Z" glyph-name="ellipsis" horiz-adv-x="455" unicode="&#8230;" /><glyph d="M51 0ZM217 -10Q138 -10 94.5 50.5Q51 111 51 239Q51 363 92.5 425.5Q134 488 213 488Q288 488 326.5 427.5Q365 367 365 252V232H80Q82 120 116.5 67.5Q151 15 218 15Q311 15 343 126L368 115Q349 55 312.5 22.5Q276 -10 217 -10ZM212 463Q149 463 116 410.5Q83 358 81 256H337Q334 463 212 463ZM299 626V603H128V626Z" glyph-name="emacron" horiz-adv-x="408" unicode="&#275;" /><glyph d="M551 256V230H39V256Z" glyph-name="emdash" horiz-adv-x="590" unicode="&#8212;" /><glyph d="M39 337ZM551 363V337H39V363Z" glyph-name="emdash.cap" horiz-adv-x="590" /><glyph glyph-name="emspace" horiz-adv-x="743" unicode="&#8195;" /><glyph d="M402 256V230H39V256Z" glyph-name="endash" horiz-adv-x="442" unicode="&#8211;" /><glyph d="M39 337ZM402 363V337H39V363Z" glyph-name="endash.cap" horiz-adv-x="442" /><glyph d="M355 -59V301Q355 346 347 377Q339 408 325 426.5Q311 445 291 453.5Q271 462 246 462Q214 462 189 446.5Q164 431 146.5 403.5Q129 376 119 338Q109 300 107 255V0H78V478H103L106 351Q120 419 159 453.5Q198 488 254 488Q318 488 351 444.5Q384 401 384 309V-66Q384 -140 362 -172.5Q340 -205 299 -205Q284 -205 270 -203Q256 -201 241 -193L250 -165Q261 -171 271 -174Q281 -177 296 -177Q326 -177 340.5 -151Q355 -125 355 -59Z" glyph-name="eng" horiz-adv-x="457" unicode="&#331;" /><glyph glyph-name="enspace" horiz-adv-x="371" unicode="&#8194;" /><glyph d="M251 -198Q236 -198 222.5 -193.5Q209 -189 198.5 -179Q188 -169 182 -152Q176 -135 176 -110Q176 -76 189 -50.5Q202 -25 220 -9Q141 -11 96 49Q51 109 51 239Q51 363 92.5 425.5Q134 488 213 488Q288 488 326.5 427.5Q365 367 365 252V232H80Q82 120 116.5 67.5Q151 15 218 15Q311 15 343 126L368 115Q353 67 326 36.5Q299 6 258 -5Q234 -16 216.5 -43Q199 -70 199 -108Q199 -146 215 -160.5Q231 -175 252 -175Q266 -175 277 -171.5Q288 -168 299 -158L310 -177Q296 -189 281 -193.5Q266 -198 251 -198ZM212 463Q149 463 116 410.5Q83 358 81 256H337Q334 463 212 463Z" glyph-name="eogonek" horiz-adv-x="409" unicode="&#281;" /><glyph d="M328 377V351H40V377ZM328 267V242H40V267Z" glyph-name="equal" horiz-adv-x="368" unicode="=" /><glyph d="M33 0ZM203 24V3H33V24ZM203 -43V-64H33V-43Z" glyph-name="equal.inf" horiz-adv-x="236" /><glyph d="M218 -10Q135 -10 93 49.5Q51 109 51 237Q51 365 93.5 426Q136 487 217 487Q266 487 300 462.5Q334 438 349 386Q332 523 281 602L216 549L205 567L268 619Q246 648 217.5 670.5Q189 693 156 709L167 731Q239 700 289 635L361 695L372 677L302 619Q343 555 363 463Q383 371 383 244V237Q383 110 341 50Q299 -10 218 -10ZM354 237Q354 350 321.5 406Q289 462 218 462Q147 462 113.5 407Q80 352 80 237Q80 124 113.5 70Q147 16 218 16Q287 16 320.5 70Q354 124 354 237Z" glyph-name="eth" horiz-adv-x="434" unicode="&#240;" /><glyph d="M94 700 89 170H66L61 700ZM77 -6Q65 -6 57.5 2Q50 10 50 24Q50 38 57.5 46Q65 54 77 54Q104 54 104 24Q104 10 97 2Q90 -6 77 -6Z" glyph-name="exclam" horiz-adv-x="154" unicode="!" /><glyph d="M63 -194 68 336H91L96 -194ZM80 512Q92 512 99.5 504Q107 496 107 482Q107 468 99.5 460Q92 452 80 452Q53 452 53 482Q53 496 60 504Q67 512 80 512Z" glyph-name="exclamdown" horiz-adv-x="163" unicode="&#161;" /><glyph d="M63 0 68 530H91L96 0ZM80 706Q92 706 99.5 698Q107 690 107 676Q107 662 99.5 654Q92 646 80 646Q53 646 53 676Q53 690 60 698Q67 706 80 706Z" glyph-name="exclamdown.cap" horiz-adv-x="163" /><glyph d="M252 454H130V0H101V454H29V478H101V575Q101 612 109 637.5Q117 663 130.5 678.5Q144 694 162 701Q180 708 201 708Q215 708 231.5 704Q248 700 263 690L251 666Q238 674 226 677.5Q214 681 201 681Q166 681 148 656Q130 631 130 571V478H252Z" glyph-name="f" horiz-adv-x="263" unicode="f" /><glyph d="M252 454H130V0H101V454H29V478H101V575Q101 612 109 637.5Q117 663 130.5 678.5Q144 694 162 701Q180 708 201 708Q215 708 231.5 704Q248 700 263 690L251 666Q238 674 226 677.5Q214 681 201 681Q166 681 148 656Q130 631 130 571V478H252ZM352 580Q340 580 332.5 588Q325 596 325 610Q325 624 332.5 632Q340 640 352 640Q380 640 380 610Q380 596 372.5 588Q365 580 352 580ZM338 478H367V0H338Z" glyph-name="fi" horiz-adv-x="444" unicode="&#64257;" /><glyph d="M402 256V230H39V256Z" glyph-name="figuredash" horiz-adv-x="442" unicode="&#8210;" /><glyph d="M39 337ZM402 363V337H39V363Z" glyph-name="figuredash.cap" horiz-adv-x="442" /><glyph glyph-name="figurespace" horiz-adv-x="465" unicode="&#8199;" /><glyph d="M83 0ZM264 -10Q198 -10 151.5 21Q105 52 83 124L109 136Q128 70 167.5 43Q207 16 263 16Q305 16 335.5 32Q366 48 385 76Q404 104 413 141.5Q422 179 422 222Q422 406 271 406Q224 406 190.5 387Q157 368 125 332L105 340L133 700H424V674H158L136 372Q163 405 201.5 419Q240 433 278 433Q356 433 404 382.5Q452 332 452 223Q452 172 440.5 129Q429 86 405.5 55.5Q382 25 346.5 7.5Q311 -10 264 -10Z" glyph-name="five" horiz-adv-x="535" unicode="5" /><glyph d="M213 -10Q147 -10 100.5 21Q54 52 32 124L58 136Q77 70 116.5 43Q156 16 212 16Q254 16 284.5 32Q315 48 334 76Q353 104 362 141.5Q371 179 371 222Q371 406 220 406Q173 406 139.5 387Q106 368 74 332L54 340L82 700H373V674H107L85 372Q112 405 150.5 419Q189 433 227 433Q305 433 353 382.5Q401 332 401 223Q401 172 389.5 129Q378 86 354.5 55.5Q331 25 295.5 7.5Q260 -10 213 -10Z" glyph-name="five.LP" horiz-adv-x="449" /><glyph d="M205 -110Q139 -110 94.5 -79Q50 -48 28 24L54 36Q73 -30 111.5 -57.5Q150 -85 205 -85Q245 -85 274 -68.5Q303 -52 321.5 -24Q340 4 348.5 41.5Q357 79 357 122Q357 214 320.5 260Q284 306 214 306Q164 306 132.5 284.5Q101 263 75 232L55 240L81 600H360V574H107L85 273Q134 333 223 333Q259 333 288.5 320.5Q318 308 340 282.5Q362 257 374 217.5Q386 178 386 123Q386 72 374.5 29Q363 -14 340.5 -44.5Q318 -75 284 -92.5Q250 -110 205 -110Z" glyph-name="five.OP" horiz-adv-x="431" /><glyph d="M264 -110Q198 -110 151.5 -79Q105 -48 83 24L109 36Q128 -30 167.5 -57Q207 -84 263 -84Q305 -84 335.5 -68Q366 -52 385 -24Q404 4 413 41.5Q422 79 422 122Q422 306 271 306Q224 306 190.5 287Q157 268 125 232L105 240L133 600H424V574H158L136 272Q163 305 201.5 319Q240 333 278 333Q356 333 404 282.5Q452 232 452 123Q452 72 440.5 29Q429 -14 405.5 -44.5Q382 -75 346.5 -92.5Q311 -110 264 -110Z" glyph-name="five.OT" horiz-adv-x="535" /><glyph d="M27 0ZM77 186 63 18Q81 38 102.5 45.5Q124 53 145 53Q190 53 218.5 24Q247 -5 247 -70Q247 -130 219 -168.5Q191 -207 135 -207Q100 -207 71.5 -190Q43 -173 27 -135L48 -123Q72 -185 134 -185Q181 -185 202 -152Q223 -119 223 -70Q223 33 138 33Q112 33 93 22Q74 11 56 -9L40 -2L57 208H232V186Z" glyph-name="five.inf" horiz-adv-x="272" /><glyph d="M252 454H130V0H101V454H29V478H101V575Q101 612 109 637.5Q117 663 130.5 678.5Q144 694 162 701Q180 708 201 708Q215 708 231.5 704Q248 700 263 690L251 666Q238 674 226 677.5Q214 681 201 681Q166 681 148 656Q130 631 130 571V478H252ZM360 91Q360 55 374 40Q388 25 413 25H440V0H410Q372 0 351.5 21.5Q331 43 331 92V700H360Z" glyph-name="fl" horiz-adv-x="443" unicode="&#64258;" /><glyph d="M252 454H130V0H101V454H29V478H101V575Q101 612 109 637.5Q117 663 130.5 678.5Q144 694 162 701Q180 708 201 708Q215 708 231.5 704Q248 700 263 690L251 666Q238 674 226 677.5Q214 681 201 681Q166 681 148 656Q130 631 130 571V478H252ZM365 700V0H336V700Z" glyph-name="fl.alt" horiz-adv-x="438" /><glyph d="M-14 -205Q-28 -205 -41.5 -202.5Q-55 -200 -67 -192L-59 -166Q-48 -172 -38 -175Q-28 -178 -14 -178Q15 -178 32 -151.5Q49 -125 57 -57L102 329H32L36 353H105L120 473Q128 547 154.5 581Q181 615 229 615Q245 615 260.5 611.5Q276 608 290 598L282 572Q270 580 259 584Q248 588 231 588Q198 588 176.5 562Q155 536 147 468L134 353H255L251 329H130L86 -63Q77 -138 51.5 -171.5Q26 -205 -14 -205Z" glyph-name="florin" horiz-adv-x="289" unicode="&#402;" /><glyph d="M61 0ZM61 196V220L247 700H277L91 222H358V584H387V222H475V196H387V0H358V196Z" glyph-name="four" horiz-adv-x="535" unicode="4" /><glyph d="M38 196V220L224 700H254L68 222H335V584H364V222H452V196H364V0H335V196Z" glyph-name="four.LP" horiz-adv-x="475" /><glyph d="M38 96V119L215 600H244L67 121H320V484H349V121H432V96H349V-100H320V96Z" glyph-name="four.OP" horiz-adv-x="455" /><glyph d="M61 96V120L247 600H277L91 122H358V484H387V122H475V96H387V-100H358V96Z" glyph-name="four.OT" horiz-adv-x="535" /><glyph d="M25 0ZM25 -89V-69L132 208H157L50 -67H198V135H222V-67H272V-89H222V-200H198V-89Z" glyph-name="four.inf" horiz-adv-x="289" /><glyph glyph-name="fourperemspace" horiz-adv-x="186" unicode="&#8197;" /><glyph d="M323 701 76 0H48L295 701Z" glyph-name="fraction" horiz-adv-x="367" unicode="&#8260;" /><glyph d="M343 247Q343 356 305.5 409Q268 462 211 462Q145 462 113 404.5Q81 347 81 241Q81 133 113.5 76Q146 19 209 19Q268 19 305.5 75Q343 131 343 247ZM204 -205Q151 -205 112 -180.5Q73 -156 49 -96L75 -83Q95 -137 127.5 -158Q160 -179 203 -179Q235 -179 261 -169.5Q287 -160 305 -138Q323 -116 333 -81Q343 -46 343 4V120Q329 54 290.5 23.5Q252 -7 203 -7Q130 -7 90.5 56Q51 119 51 240Q51 359 91.5 423.5Q132 488 208 488Q256 488 293.5 458Q331 428 345 368L347 478H372V-1Q372 -55 359.5 -94Q347 -133 325 -157.5Q303 -182 272 -193.5Q241 -205 204 -205Z" glyph-name="g" horiz-adv-x="450" unicode="g" /><glyph d="M49 0ZM343 247Q343 356 305.5 409Q268 462 211 462Q145 462 113 404.5Q81 347 81 241Q81 133 113.5 76Q146 19 209 19Q268 19 305.5 75Q343 131 343 247ZM204 -205Q151 -205 112 -180.5Q73 -156 49 -96L75 -83Q95 -137 127.5 -158Q160 -179 203 -179Q235 -179 261 -169.5Q287 -160 305 -138Q323 -116 333 -81Q343 -46 343 4V120Q329 54 290.5 23.5Q252 -7 203 -7Q130 -7 90.5 56Q51 119 51 240Q51 359 91.5 423.5Q132 488 208 488Q256 488 293.5 458Q331 428 345 368L347 478H372V-1Q372 -55 359.5 -94Q347 -133 325 -157.5Q303 -182 272 -193.5Q241 -205 204 -205ZM279 669H300Q300 610 276 587Q252 564 209 564Q166 564 142 587Q118 610 118 669H140Q140 621 157.5 603.5Q175 586 209 586Q242 586 260.5 603.5Q279 621 279 669Z" glyph-name="gbreve" horiz-adv-x="449" unicode="&#287;" /><glyph d="M49 0ZM343 247Q343 356 305.5 409Q268 462 211 462Q145 462 113 404.5Q81 347 81 241Q81 133 113.5 76Q146 19 209 19Q268 19 305.5 75Q343 131 343 247ZM204 -205Q151 -205 112 -180.5Q73 -156 49 -96L75 -83Q95 -137 127.5 -158Q160 -179 203 -179Q235 -179 261 -169.5Q287 -160 305 -138Q323 -116 333 -81Q343 -46 343 4V120Q329 54 290.5 23.5Q252 -7 203 -7Q130 -7 90.5 56Q51 119 51 240Q51 359 91.5 423.5Q132 488 208 488Q256 488 293.5 458Q331 428 345 368L347 478H372V-1Q372 -55 359.5 -94Q347 -133 325 -157.5Q303 -182 272 -193.5Q241 -205 204 -205ZM210 649 141 563H110V565L198 670H223L310 565V563H279Z" glyph-name="gcircumflex" horiz-adv-x="449" unicode="&#285;" /><glyph d="M178 617Q178 653 191 683Q204 713 227 727L237 714Q219 702 208 678.5Q197 655 196 629Q210 635 221.5 628Q233 621 233 604Q233 590 225.5 583Q218 576 206 576Q192 576 185 585Q178 594 178 617ZM343 247Q343 356 305.5 409Q268 462 211 462Q145 462 113 404.5Q81 347 81 241Q81 133 113.5 76Q146 19 209 19Q268 19 305.5 75Q343 131 343 247ZM204 -205Q151 -205 112 -180.5Q73 -156 49 -96L75 -83Q95 -137 127.5 -158Q160 -179 203 -179Q235 -179 261 -169.5Q287 -160 305 -138Q323 -116 333 -81Q343 -46 343 4V120Q329 54 290.5 23.5Q252 -7 203 -7Q130 -7 90.5 56Q51 119 51 240Q51 359 91.5 423.5Q132 488 208 488Q256 488 293.5 458Q331 428 345 368L347 478H372V-1Q372 -55 359.5 -94Q347 -133 325 -157.5Q303 -182 272 -193.5Q241 -205 204 -205Z" glyph-name="gcommaaccent" horiz-adv-x="449" unicode="&#291;" /><glyph d="M49 0ZM343 247Q343 356 305.5 409Q268 462 211 462Q145 462 113 404.5Q81 347 81 241Q81 133 113.5 76Q146 19 209 19Q268 19 305.5 75Q343 131 343 247ZM204 -205Q151 -205 112 -180.5Q73 -156 49 -96L75 -83Q95 -137 127.5 -158Q160 -179 203 -179Q235 -179 261 -169.5Q287 -160 305 -138Q323 -116 333 -81Q343 -46 343 4V120Q329 54 290.5 23.5Q252 -7 203 -7Q130 -7 90.5 56Q51 119 51 240Q51 359 91.5 423.5Q132 488 208 488Q256 488 293.5 458Q331 428 345 368L347 478H372V-1Q372 -55 359.5 -94Q347 -133 325 -157.5Q303 -182 272 -193.5Q241 -205 204 -205ZM183 610Q183 624 190.5 631.5Q198 639 210 639Q237 639 237 610Q237 596 230 588Q223 580 210 580Q198 580 190.5 588Q183 596 183 610Z" glyph-name="gdotaccent" horiz-adv-x="449" unicode="&#289;" /><glyph d="M239 362H211V388H238Q289 388 317 429Q345 470 345 538Q345 605 314 643Q283 681 228 681Q173 681 140 641Q107 601 107 509V1H78V510Q78 569 91 607.5Q104 646 125.5 668Q147 690 174 698.5Q201 707 229 707Q265 707 292.5 694Q320 681 338.5 658.5Q357 636 366 605.5Q375 575 375 539Q375 479 353.5 437Q332 395 292 378Q351 364 380.5 314.5Q410 265 410 190Q410 146 400.5 109.5Q391 73 372 47Q353 21 323.5 7Q294 -7 255 -7Q241 -7 218 -3.5Q195 0 169 16L180 40Q200 26 219 22.5Q238 19 252 19Q314 19 347 60.5Q380 102 380 190Q380 269 344.5 315.5Q309 362 239 362Z" glyph-name="germandbls" horiz-adv-x="455" unicode="&#223;" /><glyph d="M219 563 143 666V670H181L243 566V563Z" glyph-name="grave" horiz-adv-x="451" unicode="`" /><glyph d="M80 127 66 146 237 310 66 474 80 495 266 318V303Z" glyph-name="greater" horiz-adv-x="331" unicode="&gt;" /><glyph d="M96 140 82 160 275 317 82 473 97 495 309 325V311ZM315 25V0H78V25Z" glyph-name="greaterequal" horiz-adv-x="393" unicode="&#8805;" /><glyph d="M192 0 50 237V240L192 478H225L81 239L226 0ZM332 0 188 238V241L331 478H363L220 240L365 0Z" glyph-name="guillemotleft" horiz-adv-x="446" unicode="&#171;" /><glyph d="M248 480 390 243V240L248 2H215L359 241L214 480ZM108 480 252 242V239L109 2H77L220 240L75 480Z" glyph-name="guillemotright" horiz-adv-x="446" unicode="&#187;" /><glyph d="M192 0 50 237V240L192 478H225L81 239L226 0Z" glyph-name="guilsinglleft" horiz-adv-x="306" unicode="&#8249;" /><glyph d="M108 478 250 241V238L108 0H75L219 239L74 478Z" glyph-name="guilsinglright" horiz-adv-x="306" unicode="&#8250;" /><glyph d="M355 300Q355 345 347 376Q339 407 325 426Q311 445 290.5 453.5Q270 462 246 462Q214 462 189 446.5Q164 431 146.5 403.5Q129 376 119 338Q109 300 107 255V0H78V700H107V352Q121 418 160 453Q199 488 255 488Q318 488 351 444.5Q384 401 384 309V0H355Z" glyph-name="h" horiz-adv-x="457" unicode="h" /><glyph glyph-name="hairspace" horiz-adv-x="74" unicode="&#8202;" /><glyph d="M115 255V0H86V569H23V591H86V700H115V591H243V569H115V350Q129 419 168.5 453.5Q208 488 264 488Q327 488 360 443.5Q393 399 393 305V0H363V297Q363 343 355 374.5Q347 406 333 425Q319 444 298.5 452.5Q278 461 254 461Q222 461 197 446Q172 431 154.5 404Q137 377 127 339Q117 301 115 255Z" glyph-name="hbar" horiz-adv-x="465" unicode="&#295;" /><glyph d="M0 0ZM355 300Q355 345 347 376Q339 407 325 426Q311 445 290.5 453.5Q270 462 246 462Q214 462 189 446.5Q164 431 146.5 403.5Q129 376 119 338Q109 300 107 255V0H78V700H107V352Q121 418 160 453Q199 488 255 488Q318 488 351 444.5Q384 401 384 309V0H355ZM92 871 23 785H-8V787L80 892H105L192 787V785H161Z" glyph-name="hcircumflex" horiz-adv-x="457" unicode="&#293;" /><glyph d="M366 666 287 563H264V566L326 670H366ZM276 670V666L198 563H175V566L237 670Z" glyph-name="hungarumlaut" horiz-adv-x="451" unicode="&#733;" /><glyph d="M266 256V230H40V256Z" glyph-name="hyphen" horiz-adv-x="306" unicode="-" /><glyph d="M40 337ZM266 363V337H40V363Z" glyph-name="hyphen.cap" horiz-adv-x="306" /><glyph d="M65 610Q65 624 72.5 632Q80 640 92 640Q120 640 120 610Q120 596 112.5 588Q105 580 92 580Q80 580 72.5 588Q65 596 65 610ZM78 478H107V0H78Z" glyph-name="i" horiz-adv-x="185" unicode="i" /><glyph d="M78 0ZM78 478H107V0H78ZM179 666 104 563H79V566L141 670H179Z" glyph-name="iacute" horiz-adv-x="188" unicode="&#237;" /><glyph d="M3 0ZM78 478H107V0H78ZM164 669H185Q185 610 161 587Q137 564 94 564Q51 564 27 587Q3 610 3 669H25Q25 621 42.5 603.5Q60 586 94 586Q127 586 145.5 603.5Q164 621 164 669Z" glyph-name="ibreve" horiz-adv-x="188" unicode="&#301;" /><glyph d="M0 0ZM78 478H107V0H78ZM95 649 26 563H-5V565L83 670H108L195 565V563H164Z" glyph-name="icircumflex" horiz-adv-x="188" unicode="&#238;" /><glyph d="M12 0ZM78 478H107V0H78ZM119 610Q119 624 126.5 632Q134 640 146 640Q173 640 173 610Q173 581 146 581Q134 581 126.5 588.5Q119 596 119 610ZM12 610Q12 624 19.5 632Q27 640 39 640Q66 640 66 610Q66 581 39 581Q27 581 19.5 588.5Q12 596 12 610Z" glyph-name="idieresis" horiz-adv-x="188" unicode="&#239;" /><glyph d="M65 610Q65 624 72.5 632Q80 640 92 640Q120 640 120 610Q120 596 112.5 588Q105 580 92 580Q80 580 72.5 588Q65 596 65 610ZM78 478H107V0H78Z" glyph-name="idotaccent" horiz-adv-x="185" /><glyph d="M9 0ZM78 478H107V0H78ZM85 564 9 667V671H47L109 567V564Z" glyph-name="igrave" horiz-adv-x="188" unicode="&#236;" /><glyph d="M65 0ZM65 610Q65 624 72.5 632Q80 640 92 640Q120 640 120 610Q120 596 112.5 588Q105 580 92 580Q80 580 72.5 588Q65 596 65 610ZM78 478H107V0H78ZM275 580Q263 580 255.5 588Q248 596 248 610Q248 624 255.5 632Q263 640 275 640Q303 640 303 610Q303 596 295.5 588Q288 580 275 580ZM261 -58V478H290V-69Q290 -141 266.5 -173Q243 -205 200 -205Q170 -205 145 -191L156 -165Q167 -171 177 -174.5Q187 -178 201 -178Q231 -178 246 -151.5Q261 -125 261 -58Z" glyph-name="ij" horiz-adv-x="370" unicode="&#307;" /><glyph d="M8 0ZM78 478H107V0H78ZM179 626V603H8V626Z" glyph-name="imacron" horiz-adv-x="188" unicode="&#299;" /><glyph d="M65 610Q65 624 72.5 632Q80 640 92 640Q120 640 120 610Q120 596 112.5 588Q105 580 92 580Q80 580 72.5 588Q65 596 65 610ZM131 -177Q117 -189 102.5 -193.5Q88 -198 72 -198Q43 -198 20.5 -179Q-2 -160 -2 -110Q-2 -85 5 -64.5Q12 -44 23.5 -28.5Q35 -13 49.5 -3Q64 7 78 12V478H107V0H97Q67 -5 43.5 -34Q20 -63 20 -108Q20 -146 36.5 -160.5Q53 -175 74 -175Q88 -175 99 -171.5Q110 -168 121 -158Z" glyph-name="iogonek" horiz-adv-x="188" unicode="&#303;" /><glyph d="M0 0ZM78 478H107V0H78ZM168 656H190Q190 633 185.5 618.5Q181 604 173.5 595.5Q166 587 157 584Q148 581 139 581Q123 581 112 589.5Q101 598 91 608.5Q81 619 71 627.5Q61 636 48 636Q37 636 28.5 626Q20 616 20 585H-2Q-2 608 3 622.5Q8 637 15 645Q22 653 30.5 656Q39 659 48 659Q64 659 75.5 650.5Q87 642 97 632Q107 622 117 613.5Q127 605 141 605Q153 605 160 616Q167 627 168 656Z" glyph-name="itilde" horiz-adv-x="188" unicode="&#297;" /><glyph d="M92 580Q80 580 72.5 588Q65 596 65 610Q65 624 72.5 632Q80 640 92 640Q120 640 120 610Q120 596 112.5 588Q105 580 92 580ZM78 -58V478H107V-69Q107 -141 83.5 -173Q60 -205 17 -205Q-13 -205 -38 -191L-27 -165Q-16 -171 -6 -174.5Q4 -178 18 -178Q48 -178 63 -151.5Q78 -125 78 -58Z" glyph-name="j" horiz-adv-x="185" unicode="j" /><glyph d="M0 0ZM78 -58V478H107V-69Q107 -141 83.5 -173Q60 -205 17 -205Q-13 -205 -38 -191L-27 -165Q-16 -171 -6 -174.5Q4 -178 18 -178Q48 -178 63 -151.5Q78 -125 78 -58ZM95 649 26 563H-5V565L83 670H108L195 565V563H164Z" glyph-name="jcircumflex" horiz-adv-x="188" unicode="&#309;" /><glyph d="M107 136V0H78V700H107L106 174L316 478H350L202 270L361 0H327L185 245Z" glyph-name="k" horiz-adv-x="382" unicode="k" /><glyph d="M78 0V700H107V0ZM323 0 119 233V236L312 478H345L151 237L359 0Z" glyph-name="k.alt" horiz-adv-x="379" /><glyph d="M78 0ZM107 136V0H78V700H107L106 174L316 478H350L202 270L361 0H327L185 245ZM228 -113Q228 -149 215 -179Q202 -209 179 -223L169 -210Q187 -198 198 -174.5Q209 -151 210 -125Q196 -131 184.5 -124Q173 -117 173 -100Q173 -86 180.5 -79Q188 -72 200 -72Q214 -72 221 -81Q228 -90 228 -113Z" glyph-name="kcommaaccent" horiz-adv-x="382" unicode="&#311;" /><glyph d="M78 0ZM230 -113Q230 -149 217 -179Q204 -209 181 -223L171 -210Q189 -198 200 -174.5Q211 -151 212 -125Q198 -131 186.5 -124Q175 -117 175 -100Q175 -86 182.5 -79Q190 -72 202 -72Q216 -72 223 -81Q230 -90 230 -113ZM78 0V700H107V0ZM323 0 119 233V236L312 478H345L151 237L359 0Z" glyph-name="kcommaaccent.alt" horiz-adv-x="379" /><glyph d="M107 136V0H78V478H107L106 174L316 478H350L202 270L361 0H327L185 246Z" glyph-name="kgreenlandic" horiz-adv-x="382" unicode="&#312;" /><glyph d="M102 91Q102 55 116 40Q130 25 155 25H182V0H152Q114 0 93.5 21.5Q73 43 73 92V700H102Z" glyph-name="l" horiz-adv-x="185" unicode="l" /><glyph d="M107 700V0H78V700Z" glyph-name="l.alt" horiz-adv-x="185" /><glyph d="M73 0ZM102 91Q102 55 116 40Q130 25 155 25H182V0H152Q114 0 93.5 21.5Q73 43 73 92V700H102ZM177 888 102 785H77V788L139 892H177Z" glyph-name="lacute" horiz-adv-x="185" unicode="&#314;" /><glyph d="M74 0ZM204 516H183L188 700H219ZM103 91Q103 55 117 40Q131 25 156 25H183V0H153Q115 0 94.5 21.5Q74 43 74 92V700H103Z" glyph-name="lcaron" horiz-adv-x="219" unicode="&#318;" /><glyph d="M73 0ZM102 91Q102 55 116 40Q130 25 155 25H182V0H152Q114 0 93.5 21.5Q73 43 73 92V700H102ZM154 -113Q154 -149 141 -179Q128 -209 105 -223L95 -210Q113 -198 124 -174.5Q135 -151 136 -125Q122 -131 110.5 -124Q99 -117 99 -100Q99 -86 106.5 -79Q114 -72 126 -72Q140 -72 147 -81Q154 -90 154 -113Z" glyph-name="lcommaaccent" horiz-adv-x="185" unicode="&#316;" /><glyph d="M74 0ZM103 91Q103 55 117 40Q131 25 156 25H183V0H153Q115 0 94.5 21.5Q74 43 74 92V700H103ZM177 298Q177 312 184.5 319.5Q192 327 204 327Q231 327 231 298Q231 284 224 276Q217 268 204 268Q192 268 184.5 276Q177 284 177 298Z" glyph-name="ldot" horiz-adv-x="237" unicode="&#320;" /><glyph d="M250 495 264 476 93 311 265 148 250 127 64 304V319Z" glyph-name="less" horiz-adv-x="331" unicode="&lt;" /><glyph d="M295 494 309 474 115 317 309 160 295 139 82 309V324ZM78 0V25H315V0Z" glyph-name="lessequal" horiz-adv-x="393" unicode="&#8804;" /><glyph d="M40 643Q40 671 59.5 691Q79 711 108 711Q137 711 157 691Q177 671 177 643Q177 614 157 594Q137 574 108 574Q79 574 59.5 594Q40 614 40 643ZM154 643Q154 663 141 677Q128 691 108 691Q89 691 75.5 677Q62 663 62 643Q62 623 75.5 609Q89 595 108 595Q128 595 141 609Q154 623 154 643Z" glyph-name="logicalnot" horiz-adv-x="217" unicode="&#172;" /><glyph d="M198 0H168Q130 0 109.5 21.5Q89 43 89 92V313L8 210V241L89 346V700H118V375L207 489V457L118 343V91Q118 55 132 40Q146 25 171 25H198Z" glyph-name="lslash" horiz-adv-x="207" unicode="&#322;" /><glyph d="M327 0V300Q327 345 320 376Q313 407 300.5 426Q288 445 270.5 453.5Q253 462 231 462Q176 462 144 408Q112 354 107 257V0H78V478H103L105 350Q117 418 154 453Q191 488 240 488Q291 488 318.5 451.5Q346 415 351 344Q364 415 401.5 451.5Q439 488 490 488Q548 488 577.5 444.5Q607 401 607 310V0H578V301Q578 346 571 377Q564 408 551.5 426.5Q539 445 521.5 453.5Q504 462 482 462Q427 462 394 409.5Q361 357 356 266V0Z" glyph-name="m" horiz-adv-x="680" unicode="m" /><glyph d="M318 626V603H147V626Z" glyph-name="macron" horiz-adv-x="451" unicode="&#175;" /><glyph d="M328 318V293H40V318Z" glyph-name="minus" horiz-adv-x="368" unicode="&#8722;" /><glyph d="M33 -12ZM203 -12V-33H33V-12Z" glyph-name="minus.inf" horiz-adv-x="236" /><glyph d="M123 711Q158 711 180.5 688Q203 665 203 632Q203 600 180.5 577Q158 554 123 554Q89 554 66.5 577Q44 600 44 632Q44 665 66.5 688Q89 711 123 711ZM123 686Q100 686 85 670.5Q70 655 70 632Q70 609 85 593.5Q100 578 123 578Q146 578 161 593.5Q176 609 176 632Q176 655 161 670.5Q146 686 123 686Z" glyph-name="mu" horiz-adv-x="247" unicode="&#956;" /><glyph d="M71 161 53 177 156 314 53 451 71 467 171 333 270 466 289 451 187 314 289 177 269 161 170 295Z" glyph-name="multiply" horiz-adv-x="342" unicode="&#215;" /><glyph d="M78 478H103L106 350Q119 417 158.5 452.5Q198 488 254 488Q318 488 351 444.5Q384 401 384 309V0H355V301Q355 346 347 377Q339 408 325 426.5Q311 445 291 453.5Q271 462 246 462Q214 462 189 446.5Q164 431 146.5 403.5Q129 376 119 338Q109 300 107 255V0H78Z" glyph-name="n" horiz-adv-x="457" unicode="n" /><glyph d="M78 0ZM78 478H103L106 350Q119 417 158.5 452.5Q198 488 254 488Q318 488 351 444.5Q384 401 384 309V0H355V301Q355 346 347 377Q339 408 325 426.5Q311 445 291 453.5Q271 462 246 462Q214 462 189 446.5Q164 431 146.5 403.5Q129 376 119 338Q109 300 107 255V0H78ZM319 666 244 563H219V566L281 670H319Z" glyph-name="nacute" horiz-adv-x="457" unicode="&#324;" /><glyph d="M78 0ZM78 478H103L106 350Q119 417 158.5 452.5Q198 488 254 488Q318 488 351 444.5Q384 401 384 309V0H355V301Q355 346 347 377Q339 408 325 426.5Q311 445 291 453.5Q271 462 246 462Q214 462 189 446.5Q164 431 146.5 403.5Q129 376 119 338Q109 300 107 255V0H78ZM233 585 303 670H333V669L245 563H221L133 669V670H165Z" glyph-name="ncaron" horiz-adv-x="457" unicode="&#328;" /><glyph d="M78 0ZM78 478H103L106 350Q119 417 158.5 452.5Q198 488 254 488Q318 488 351 444.5Q384 401 384 309V0H355V301Q355 346 347 377Q339 408 325 426.5Q311 445 291 453.5Q271 462 246 462Q214 462 189 446.5Q164 431 146.5 403.5Q129 376 119 338Q109 300 107 255V0H78ZM259 -113Q259 -149 246 -179Q233 -209 210 -223L200 -210Q218 -198 229 -174.5Q240 -151 241 -125Q227 -131 215.5 -124Q204 -117 204 -100Q204 -86 211.5 -79Q219 -72 231 -72Q245 -72 252 -81Q259 -90 259 -113Z" glyph-name="ncommaaccent" horiz-adv-x="457" unicode="&#326;" /><glyph d="M80 0ZM254 684Q188 684 149 633.5Q110 583 110 485Q110 393 148 341.5Q186 290 255 290Q324 290 365.5 344Q407 398 407 495Q407 528 398 561.5Q389 595 370 622Q351 649 322.5 666.5Q294 684 254 684ZM253 710Q297 710 334 691.5Q371 673 398 631Q425 589 440.5 522Q456 455 456 358Q456 261 441.5 191.5Q427 122 400.5 77Q374 32 336 11Q298 -10 251 -10Q192 -10 153 18.5Q114 47 91 115L116 127Q136 66 168.5 41Q201 16 250 16Q289 16 321 34.5Q353 53 376.5 94Q400 135 413 200.5Q426 266 426 360Q426 383 425 409Q424 435 420 467Q420 422 408.5 384.5Q397 347 375 320.5Q353 294 322 279Q291 264 251 264Q175 264 127.5 318.5Q80 373 80 484Q80 589 124 649.5Q168 710 253 710Z" glyph-name="nine" horiz-adv-x="535" unicode="9" /><glyph d="M221 684Q155 684 116 633.5Q77 583 77 485Q77 393 115 341.5Q153 290 222 290Q291 290 332.5 344Q374 398 374 495Q374 528 365 561.5Q356 595 337 622Q318 649 289.5 666.5Q261 684 221 684ZM220 710Q264 710 301 691.5Q338 673 365 631Q392 589 407.5 522Q423 455 423 358Q423 261 408.5 191.5Q394 122 367.5 77Q341 32 303 11Q265 -10 218 -10Q159 -10 120 18.5Q81 47 58 115L83 127Q103 66 135.5 41Q168 16 217 16Q256 16 288 34.5Q320 53 343.5 94Q367 135 380 200.5Q393 266 393 360Q393 383 392 409Q391 435 387 467Q387 422 375.5 384.5Q364 347 342 320.5Q320 294 289 279Q258 264 218 264Q142 264 94.5 318.5Q47 373 47 484Q47 589 91 649.5Q135 710 220 710Z" glyph-name="nine.LP" horiz-adv-x="482" /><glyph d="M207 584Q144 584 107.5 533.5Q71 483 71 385Q71 294 107 242.5Q143 191 209 191Q274 191 313.5 244.5Q353 298 353 394Q353 427 343.5 461Q334 495 316 522Q298 549 270.5 566.5Q243 584 207 584ZM207 610Q249 610 284.5 590Q320 570 345.5 527Q371 484 385 417.5Q399 351 399 258Q399 161 385.5 91.5Q372 22 346.5 -23Q321 -68 285 -89Q249 -110 204 -110Q146 -110 108 -80.5Q70 -51 48 15L74 27Q94 -33 125 -58.5Q156 -84 204 -84Q240 -84 270.5 -65.5Q301 -47 323 -6Q345 35 357.5 100.5Q370 166 370 260Q370 282 369 305Q368 328 365 357Q365 316 354 281Q343 246 322.5 220Q302 194 272 179.5Q242 165 205 165Q169 165 139 178.5Q109 192 87.5 219.5Q66 247 53.5 288Q41 329 41 384Q41 488 84 549Q127 610 207 610Z" glyph-name="nine.OP" horiz-adv-x="453" /><glyph d="M254 584Q188 584 149 533.5Q110 483 110 385Q110 293 148 241.5Q186 190 255 190Q324 190 365.5 244Q407 298 407 395Q407 428 398 461.5Q389 495 370 522Q351 549 322.5 566.5Q294 584 254 584ZM253 610Q297 610 334 591.5Q371 573 398 531Q425 489 440.5 422Q456 355 456 258Q456 161 441.5 91.5Q427 22 400.5 -23Q374 -68 336 -89Q298 -110 251 -110Q192 -110 153 -81.5Q114 -53 91 15L116 27Q136 -34 168.5 -59Q201 -84 250 -84Q289 -84 321 -65.5Q353 -47 376.5 -6Q400 35 413 100.5Q426 166 426 260Q426 283 425 309Q424 335 420 367Q420 322 408.5 284.5Q397 247 375 220.5Q353 194 322 179Q291 164 251 164Q175 164 127.5 218.5Q80 273 80 384Q80 489 124 549.5Q168 610 253 610Z" glyph-name="nine.OT" horiz-adv-x="535" /><glyph d="M27 0ZM216 87Q216 105 211 124Q206 143 195.5 158.5Q185 174 169 183.5Q153 193 132 193Q94 193 72.5 165Q51 137 51 82Q51 31 72 2.5Q93 -26 132 -26Q170 -26 193 3.5Q216 33 216 87ZM130 214Q184 214 218 166.5Q252 119 252 8Q252 -104 219 -155.5Q186 -207 129 -207Q97 -207 73 -192Q49 -177 35 -144L55 -132Q66 -161 85.5 -173.5Q105 -186 128 -186Q150 -186 168 -175.5Q186 -165 199 -142Q212 -119 219.5 -82Q227 -45 227 8Q227 32 224 59Q221 9 195 -19Q169 -47 127 -47Q82 -47 54.5 -15Q27 17 27 81Q27 142 53 178Q79 214 130 214Z" glyph-name="nine.inf" horiz-adv-x="290" /><glyph d="M40 351V377H212L291 502H315L236 377H328V351H222L170 267H328V242H156L79 120H54L131 242H40V267H146L197 351Z" glyph-name="notequal" horiz-adv-x="368" unicode="&#8800;" /><glyph d="M78 0ZM78 478H103L106 350Q119 417 158.5 452.5Q198 488 254 488Q318 488 351 444.5Q384 401 384 309V0H355V301Q355 346 347 377Q339 408 325 426.5Q311 445 291 453.5Q271 462 246 462Q214 462 189 446.5Q164 431 146.5 403.5Q129 376 119 338Q109 300 107 255V0H78ZM307 656H329Q329 633 324.5 618.5Q320 604 312.5 595.5Q305 587 296 584Q287 581 278 581Q262 581 251 589.5Q240 598 230 608.5Q220 619 210 627.5Q200 636 187 636Q176 636 167.5 626Q159 616 159 585H137Q137 608 142 622.5Q147 637 154 645Q161 653 169.5 656Q178 659 187 659Q203 659 214.5 650.5Q226 642 236 632Q246 622 256 613.5Q266 605 280 605Q292 605 299 616Q306 627 307 656Z" glyph-name="ntilde" horiz-adv-x="457" unicode="&#241;" /><glyph d="M327 252 375 455H213L164 252ZM266 0 321 228H158L104 0H75L129 228H42L49 252H135L184 455H89L96 479H190L241 700H270L219 479H381L433 700H462L410 479H499L491 455H404L356 252H451L444 228H350L295 0Z" glyph-name="numbersign" horiz-adv-x="537" unicode="#" /><glyph d="M51 238Q51 366 93.5 427Q136 488 218 488Q300 488 342 427Q384 366 384 238Q384 111 341.5 50.5Q299 -10 218 -10Q135 -10 93 50Q51 110 51 238ZM354 237Q354 352 321.5 407Q289 462 218 462Q147 462 114 407Q81 352 81 237Q81 125 114 70.5Q147 16 218 16Q288 16 321 70.5Q354 125 354 237Z" glyph-name="o" horiz-adv-x="435" unicode="o" /><glyph d="M51 0ZM51 238Q51 366 93.5 427Q136 488 218 488Q300 488 342 427Q384 366 384 238Q384 111 341.5 50.5Q299 -10 218 -10Q135 -10 93 50Q51 110 51 238ZM354 237Q354 352 321.5 407Q289 462 218 462Q147 462 114 407Q81 352 81 237Q81 125 114 70.5Q147 16 218 16Q288 16 321 70.5Q354 125 354 237ZM303 666 228 563H203V566L265 670H303Z" glyph-name="oacute" horiz-adv-x="435" unicode="&#243;" /><glyph d="M51 0ZM51 238Q51 366 93.5 427Q136 488 218 488Q300 488 342 427Q384 366 384 238Q384 111 341.5 50.5Q299 -10 218 -10Q135 -10 93 50Q51 110 51 238ZM354 237Q354 352 321.5 407Q289 462 218 462Q147 462 114 407Q81 352 81 237Q81 125 114 70.5Q147 16 218 16Q288 16 321 70.5Q354 125 354 237ZM288 669H309Q309 610 285 587Q261 564 218 564Q175 564 151 587Q127 610 127 669H149Q149 621 166.5 603.5Q184 586 218 586Q251 586 269.5 603.5Q288 621 288 669Z" glyph-name="obreve" horiz-adv-x="435" unicode="&#335;" /><glyph d="M51 0ZM51 238Q51 366 93.5 427Q136 488 218 488Q300 488 342 427Q384 366 384 238Q384 111 341.5 50.5Q299 -10 218 -10Q135 -10 93 50Q51 110 51 238ZM354 237Q354 352 321.5 407Q289 462 218 462Q147 462 114 407Q81 352 81 237Q81 125 114 70.5Q147 16 218 16Q288 16 321 70.5Q354 125 354 237ZM219 649 150 563H119V565L207 670H232L319 565V563H288Z" glyph-name="ocircumflex" horiz-adv-x="435" unicode="&#244;" /><glyph d="M51 0ZM51 238Q51 366 93.5 427Q136 488 218 488Q300 488 342 427Q384 366 384 238Q384 111 341.5 50.5Q299 -10 218 -10Q135 -10 93 50Q51 110 51 238ZM354 237Q354 352 321.5 407Q289 462 218 462Q147 462 114 407Q81 352 81 237Q81 125 114 70.5Q147 16 218 16Q288 16 321 70.5Q354 125 354 237ZM246 610Q246 624 253.5 632Q261 640 273 640Q300 640 300 610Q300 581 273 581Q261 581 253.5 588.5Q246 596 246 610ZM139 610Q139 624 146.5 632Q154 640 166 640Q193 640 193 610Q193 581 166 581Q154 581 146.5 588.5Q139 596 139 610Z" glyph-name="odieresis" horiz-adv-x="435" unicode="&#246;" /><glyph d="M519 -10Q460 -10 421.5 27Q383 64 369 143Q341 -10 218 -10Q135 -10 93 50Q51 110 51 238Q51 366 93.5 427Q136 488 218 488Q341 488 369 333Q383 411 420.5 449.5Q458 488 516 488Q591 488 629 427.5Q667 367 667 252V232H383Q385 120 420 67.5Q455 15 520 15Q613 15 645 126L670 115Q652 55 615 22.5Q578 -10 519 -10ZM515 463Q452 463 418.5 411Q385 359 383 256H639Q637 463 515 463ZM353 237Q353 352 320 407Q287 462 218 462Q147 462 114 407Q81 352 81 237Q81 124 114 70Q147 16 218 16Q287 16 320 70Q353 124 353 237Z" glyph-name="oe" horiz-adv-x="710" unicode="&#339;" /><glyph d="M233 -198Q218 -198 204.5 -193.5Q191 -189 180.5 -179Q170 -169 164 -152Q158 -135 158 -110Q158 -82 167 -59Q176 -36 190.5 -20Q205 -4 222 5Q239 14 255 16L257 0Q228 -5 204.5 -34Q181 -63 181 -108Q181 -146 197 -160.5Q213 -175 234 -175Q248 -175 259 -171.5Q270 -168 281 -158L292 -177Q278 -189 263 -193.5Q248 -198 233 -198Z" glyph-name="ogonek" horiz-adv-x="451" unicode="&#731;" /><glyph d="M51 0ZM51 238Q51 366 93.5 427Q136 488 218 488Q300 488 342 427Q384 366 384 238Q384 111 341.5 50.5Q299 -10 218 -10Q135 -10 93 50Q51 110 51 238ZM354 237Q354 352 321.5 407Q289 462 218 462Q147 462 114 407Q81 352 81 237Q81 125 114 70.5Q147 16 218 16Q288 16 321 70.5Q354 125 354 237ZM209 564 133 667V671H171L233 567V564Z" glyph-name="ograve" horiz-adv-x="435" unicode="&#242;" /><glyph d="M51 0ZM51 238Q51 366 93.5 427Q136 488 218 488Q300 488 342 427Q384 366 384 238Q384 111 341.5 50.5Q299 -10 218 -10Q135 -10 93 50Q51 110 51 238ZM354 237Q354 352 321.5 407Q289 462 218 462Q147 462 114 407Q81 352 81 237Q81 125 114 70.5Q147 16 218 16Q288 16 321 70.5Q354 125 354 237ZM345 666 266 563H243V566L305 670H345ZM255 670V666L177 563H154V566L216 670Z" glyph-name="ohungarumlaut" horiz-adv-x="435" unicode="&#337;" /><glyph d="M51 0ZM51 238Q51 366 93.5 427Q136 488 218 488Q300 488 342 427Q384 366 384 238Q384 111 341.5 50.5Q299 -10 218 -10Q135 -10 93 50Q51 110 51 238ZM354 237Q354 352 321.5 407Q289 462 218 462Q147 462 114 407Q81 352 81 237Q81 125 114 70.5Q147 16 218 16Q288 16 321 70.5Q354 125 354 237ZM304 626V603H133V626Z" glyph-name="omacron" horiz-adv-x="435" unicode="&#333;" /><glyph d="M455 0H81V26H253V652L180 573L163 594L263 700H283V26H455Z" glyph-name="one" horiz-adv-x="535" unicode="1" /><glyph d="M134 0H104V652L31 573L14 594L114 700H134Z" glyph-name="one.LP" horiz-adv-x="224" /><glyph d="M131 0H102V552L31 475L14 494L112 600H131Z" glyph-name="one.OP" horiz-adv-x="208" /><glyph d="M440 0H96V26H254V552L183 475L166 494L264 600H283V26H440Z" glyph-name="one.OT" horiz-adv-x="535" /><glyph d="M12 0ZM90 -200H66V169L23 125L12 146L74 208H90Z" glyph-name="one.inf" horiz-adv-x="146" /><glyph d="M12 0ZM342 0V20L465 193Q497 238 507 265.5Q517 293 517 314Q517 392 447 392Q414 392 394 374Q374 356 360 321L341 331Q357 372 382 393Q407 414 449 414Q496 414 519 387.5Q542 361 542 318Q542 289 529 258Q516 227 483 180L370 22H558V0ZM90 293H66V662L23 618L12 639L74 701H90ZM382 701 135 0H107L354 701Z" glyph-name="onehalf" horiz-adv-x="585" unicode="&#189;" /><glyph d="M12 0ZM90 293H66V662L23 618L12 639L74 701H90ZM382 701 135 0H107L354 701ZM341 111V131L448 408H473L366 133H514V335H538V133H588V111H538V0H514V111Z" glyph-name="onequarter" horiz-adv-x="606" unicode="&#188;" /><glyph d="M12 295ZM90 295H66V664L23 620L12 641L74 703H90Z" glyph-name="onesuperior" horiz-adv-x="146" unicode="&#185;" /><glyph d="M242 256V230H40V256Z" glyph-name="onethirdemdash" horiz-adv-x="281" /><glyph d="M131 380Q176 380 202 420Q228 460 228 535V546H164Q116 546 88 522.5Q60 499 60 457Q60 419 78.5 399.5Q97 380 131 380ZM231 367 229 454Q219 407 191.5 383.5Q164 360 125 360Q85 360 61 384.5Q37 409 37 456Q37 508 71.5 536.5Q106 565 164 565H228V574Q228 641 208 664.5Q188 688 147 688Q113 688 93 674.5Q73 661 59 636L42 649Q59 681 86 695.5Q113 710 150 710Q201 710 226 680Q251 650 251 577V367Z" glyph-name="ordfeminine" horiz-adv-x="300" unicode="&#170;" /><glyph d="M245 539Q245 616 219 652.5Q193 689 154 689Q108 689 85.5 649Q63 609 63 534Q63 459 86 420Q109 381 154 381Q194 381 219.5 419.5Q245 458 245 539ZM247 367 245 451Q235 403 208.5 381.5Q182 360 148 360Q95 360 67 404.5Q39 449 39 534Q39 619 68 664.5Q97 710 151 710Q184 710 209.5 689.5Q235 669 246 624L248 702H268V367Z" glyph-name="ordfeminine.school" horiz-adv-x="324" /><glyph d="M39 534Q39 625 69.5 667.5Q100 710 157 710Q217 710 246 667.5Q275 625 275 534Q275 445 245.5 402.5Q216 360 157 360Q100 360 69.5 402Q39 444 39 534ZM252 534Q252 689 157 689Q63 689 63 534Q63 456 85.5 418.5Q108 381 157 381Q205 381 228.5 418.5Q252 456 252 534Z" glyph-name="ordmasculine" horiz-adv-x="315" unicode="&#186;" /><glyph d="M220 -10Q138 -10 97 49L62 0H35L83 69Q52 131 52 238Q52 366 94.5 427Q137 488 220 488Q302 488 342 427L379 478H407L355 406Q385 346 385 238Q385 111 343 50.5Q301 -10 220 -10ZM220 463Q148 463 115 407.5Q82 352 82 237Q82 146 104 95L325 403Q292 463 220 463ZM220 16Q289 16 322 70Q355 124 355 237Q355 326 334 379L114 72Q146 16 220 16Z" glyph-name="oslash" horiz-adv-x="437" unicode="&#248;" /><glyph d="M51 0ZM51 238Q51 366 93.5 427Q136 488 218 488Q300 488 342 427Q384 366 384 238Q384 111 341.5 50.5Q299 -10 218 -10Q135 -10 93 50Q51 110 51 238ZM354 237Q354 352 321.5 407Q289 462 218 462Q147 462 114 407Q81 352 81 237Q81 125 114 70.5Q147 16 218 16Q288 16 321 70.5Q354 125 354 237ZM291 656H313Q313 633 308.5 618.5Q304 604 296.5 595.5Q289 587 280 584Q271 581 262 581Q246 581 235 589.5Q224 598 214 608.5Q204 619 194 627.5Q184 636 171 636Q160 636 151.5 626Q143 616 143 585H121Q121 608 126 622.5Q131 637 138 645Q145 653 153.5 656Q162 659 171 659Q187 659 198.5 650.5Q210 642 220 632Q230 622 240 613.5Q250 605 264 605Q276 605 283 616Q290 627 291 656Z" glyph-name="otilde" horiz-adv-x="435" unicode="&#245;" /><glyph d="M107 234Q107 121 144.5 68.5Q182 16 238 16Q305 16 338 74.5Q371 133 371 240Q371 348 340 405Q309 462 246 462Q184 462 145.5 406Q107 350 107 234ZM103 478 106 355Q118 423 158.5 455.5Q199 488 252 488Q324 488 362.5 424.5Q401 361 401 240Q401 120 360.5 55Q320 -10 242 -10Q195 -10 158 18Q121 46 107 106V-186H78V478Z" glyph-name="p" horiz-adv-x="452" unicode="p" /><glyph d="M297 296H356V674H297ZM78 487Q78 392 119.5 343.5Q161 295 231 296H270V674H237Q157 674 117.5 630Q78 586 78 487ZM270 0V269H235Q187 269 151.5 285.5Q116 302 93.5 331.5Q71 361 60 400.5Q49 440 49 487Q49 594 95 647Q141 700 241 700H384V0H356V269H297V0Z" glyph-name="paragraph" horiz-adv-x="473" unicode="&#182;" /><glyph d="M210 -47 201 -71Q130 -51 89.5 49.5Q49 150 49 322Q49 494 89.5 595Q130 696 201 715L210 691Q148 671 113 579Q78 487 78 322Q78 157 113 65Q148 -27 210 -47Z" glyph-name="parenleft" horiz-adv-x="263" unicode="(" /><glyph d="M32 0ZM130 -225 123 -245Q79 -234 55.5 -175.5Q32 -117 32 -15Q32 88 55.5 147Q79 206 123 217L130 197Q94 186 74 134Q54 82 54 -15Q54 -110 74 -162Q94 -214 130 -225Z" glyph-name="parenleft.inf" horiz-adv-x="163" /><glyph d="M47 -47Q109 -27 144 65Q179 157 179 322Q179 487 144 579Q109 671 47 691L56 715Q127 696 167.5 595Q208 494 208 322Q208 150 167.5 49.5Q127 -51 56 -71Z" glyph-name="parenright" horiz-adv-x="263" unicode=")" /><glyph d="M33 0ZM38 -245 33 -225Q68 -214 88.5 -162Q109 -110 109 -15Q109 82 88.5 134Q68 186 33 197L38 217Q83 206 107 147Q131 88 131 -15Q131 -117 107 -175.5Q83 -234 38 -245Z" glyph-name="parenright.inf" horiz-adv-x="163" /><glyph d="M37 0ZM477 204Q477 318 507 366Q537 414 596 414Q654 414 684 366Q714 318 714 204Q714 90 684 41.5Q654 -7 596 -7Q537 -7 507 41.5Q477 90 477 204ZM689 204Q689 256 682.5 292.5Q676 329 664 351Q652 373 635 383Q618 393 596 393Q574 393 556.5 383.5Q539 374 527 351.5Q515 329 508.5 293Q502 257 502 205Q502 151 508.5 114.5Q515 78 527 55.5Q539 33 556.5 23.5Q574 14 596 14Q618 14 635 23.5Q652 33 664 55.5Q676 78 682.5 114Q689 150 689 204ZM37 497Q37 611 67 659Q97 707 156 707Q214 707 244 659Q274 611 274 497Q274 383 244 334.5Q214 286 156 286Q97 286 67 334.5Q37 383 37 497ZM249 497Q249 549 242.5 585.5Q236 622 224 644Q212 666 195 676Q178 686 156 686Q134 686 116.5 676.5Q99 667 87 644.5Q75 622 68.5 586Q62 550 62 498Q62 444 68.5 407.5Q75 371 87 348.5Q99 326 116.5 316.5Q134 307 156 307Q178 307 195 316.5Q212 326 224 348.5Q236 371 242.5 407Q249 443 249 497ZM512 701 265 0H237L484 701Z" glyph-name="percent" horiz-adv-x="754" unicode="%" /><glyph d="M77 -6Q65 -6 57.5 2Q50 10 50 24Q50 38 57.5 46Q65 54 77 54Q104 54 104 24Q104 10 97 2Q90 -6 77 -6Z" glyph-name="period" horiz-adv-x="155" unicode="." /><glyph d="M50 306ZM77 306Q65 306 57.5 314Q50 322 50 336Q50 350 57.5 358Q65 366 77 366Q104 366 104 336Q104 322 97 314Q90 306 77 306Z" glyph-name="periodcentered" horiz-adv-x="155" unicode="&#183;" /><glyph d="M37 0ZM477 204Q477 318 507 366Q537 414 596 414Q654 414 684 366Q714 318 714 204Q714 90 684 41.5Q654 -7 596 -7Q537 -7 507 41.5Q477 90 477 204ZM689 204Q689 256 682.5 292.5Q676 329 664 351Q652 373 635 383Q618 393 596 393Q574 393 556.5 383.5Q539 374 527 351.5Q515 329 508.5 293Q502 257 502 205Q502 151 508.5 114.5Q515 78 527 55.5Q539 33 556.5 23.5Q574 14 596 14Q618 14 635 23.5Q652 33 664 55.5Q676 78 682.5 114Q689 150 689 204ZM37 497Q37 611 67 659Q97 707 156 707Q214 707 244 659Q274 611 274 497Q274 383 244 334.5Q214 286 156 286Q97 286 67 334.5Q37 383 37 497ZM249 497Q249 549 242.5 585.5Q236 622 224 644Q212 666 195 676Q178 686 156 686Q134 686 116.5 676.5Q99 667 87 644.5Q75 622 68.5 586Q62 550 62 498Q62 444 68.5 407.5Q75 371 87 348.5Q99 326 116.5 316.5Q134 307 156 307Q178 307 195 316.5Q212 326 224 348.5Q236 371 242.5 407Q249 443 249 497ZM786 204Q786 318 816 366Q846 414 905 414Q963 414 993 366Q1023 318 1023 204Q1023 90 993 41.5Q963 -7 905 -7Q846 -7 816 41.5Q786 90 786 204ZM998 204Q998 256 991.5 292.5Q985 329 973 351Q961 373 944 383Q927 393 905 393Q883 393 865.5 383.5Q848 374 836 351.5Q824 329 817.5 293Q811 257 811 205Q811 151 817.5 114.5Q824 78 836 55.5Q848 33 865.5 23.5Q883 14 905 14Q927 14 944 23.5Q961 33 973 55.5Q985 78 991.5 114Q998 150 998 204ZM512 701 265 0H237L484 701Z" glyph-name="perthousand" horiz-adv-x="1062" unicode="&#8240;" /><glyph d="M197 122H171V293H40V318H171V496H197V318H328V293H197Z" glyph-name="plus" horiz-adv-x="368" unicode="+" /><glyph d="M33 0ZM129 -135H108V-32H33V-13H108V96H129V-13H203V-32H129Z" glyph-name="plus.inf" horiz-adv-x="236" /><glyph d="M197 129H171V296H40V321H171V496H197V321H328V296H197ZM328 25V0H40V25Z" glyph-name="plusminus" horiz-adv-x="368" unicode="&#177;" /><glyph glyph-name="punctuationspace" horiz-adv-x="150" unicode="&#8200;" /><glyph d="M209 488Q256 488 294.5 459Q333 430 347 369L349 478H374V-186H345V117Q331 51 292.5 20.5Q254 -10 205 -10Q130 -10 90.5 53.5Q51 117 51 239Q51 359 91.5 423.5Q132 488 209 488ZM345 245Q345 356 308 409Q271 462 214 462Q148 462 114.5 404Q81 346 81 239Q81 130 114 73Q147 16 212 16Q270 16 307.5 72Q345 128 345 245Z" glyph-name="q" horiz-adv-x="452" unicode="q" /><glyph d="M163 170 162 301H176Q251 301 290 353.5Q329 406 329 496Q329 585 288 634Q247 683 176 683Q152 683 129 676.5Q106 670 86 654.5Q66 639 50 614Q34 589 23 552L-3 562Q9 604 28 632.5Q47 661 70.5 678Q94 695 121 702.5Q148 710 177 710Q262 710 310 653.5Q358 597 358 497Q358 448 346.5 408.5Q335 369 313.5 340.5Q292 312 261 296Q230 280 190 279L189 170ZM175 -6Q163 -6 155.5 2Q148 10 148 24Q148 38 155.5 46Q163 54 175 54Q202 54 202 24Q202 10 195 2Q188 -6 175 -6Z" glyph-name="question" horiz-adv-x="377" unicode="?" /><glyph d="M189 336 190 205H176Q101 205 62 152.5Q23 100 23 10Q23 -79 64 -128Q105 -177 176 -177Q200 -177 223 -170.5Q246 -164 266 -148.5Q286 -133 302 -108Q318 -83 329 -46L355 -56Q343 -98 324 -126.5Q305 -155 281.5 -172Q258 -189 231 -196.5Q204 -204 175 -204Q90 -204 42 -147.5Q-6 -91 -6 9Q-6 58 5.5 97.5Q17 137 38.5 165.5Q60 194 91 210Q122 226 162 227L163 336ZM177 512Q189 512 196.5 504Q204 496 204 482Q204 468 196.5 460Q189 452 177 452Q150 452 150 482Q150 496 157 504Q164 512 177 512Z" glyph-name="questiondown" horiz-adv-x="371" unicode="&#191;" /><glyph d="M188 533 189 402H175Q100 402 61 349.5Q22 297 22 207Q22 118 63 69Q104 20 175 20Q199 20 222 26.5Q245 33 265 48.5Q285 64 301 89Q317 114 328 151L354 141Q342 99 323 70.5Q304 42 280.5 25Q257 8 230 0.5Q203 -7 174 -7Q89 -7 41 49.5Q-7 106 -7 206Q-7 255 4.5 294.5Q16 334 37.5 362.5Q59 391 90 407Q121 423 161 424L162 533ZM176 709Q188 709 195.5 701Q203 693 203 679Q203 665 195.5 657Q188 649 176 649Q149 649 149 679Q149 693 156 701Q163 709 176 709Z" glyph-name="questiondown.cap" horiz-adv-x="370" /><glyph d="M129 548 126 710H156L153 548ZM75 548H51L49 710H78Z" glyph-name="quotedbl" horiz-adv-x="204" unicode="&quot;" /><glyph d="M56 -101 46 -88Q65 -75 75 -51.5Q85 -28 86 -2Q72 -8 61 -0.5Q50 7 50 24Q50 38 57.5 46Q65 54 76 54Q90 54 98 44.5Q106 35 106 11Q106 -25 93 -56Q80 -87 56 -101ZM145 -101 135 -88Q154 -75 164 -51.5Q174 -28 175 -2Q161 -8 150 -0.5Q139 7 139 24Q139 38 146.5 46Q154 54 165 54Q179 54 187 44.5Q195 35 195 11Q195 -25 182 -56Q169 -87 145 -101Z" glyph-name="quotedblbase" horiz-adv-x="242" unicode="&#8222;" /><glyph d="M92 720 102 706Q82 693 72 669.5Q62 646 61 620Q75 626 86.5 618.5Q98 611 98 594Q98 580 90 572Q82 564 71 564Q57 564 49 573.5Q41 583 41 607Q41 643 54 674Q67 705 92 720ZM181 720 191 706Q171 693 161 669.5Q151 646 150 620Q164 626 175.5 618.5Q187 611 187 594Q187 580 179 572Q171 564 160 564Q146 564 138 573.5Q130 583 130 607Q130 643 143 674Q156 705 181 720Z" glyph-name="quotedblleft" horiz-adv-x="243" unicode="&#8220;" /><glyph d="M56 560 46 574Q66 587 76 610.5Q86 634 87 660Q73 654 61.5 661.5Q50 669 50 686Q50 700 58 708Q66 716 77 716Q91 716 99 706.5Q107 697 107 673Q107 637 94 606Q81 575 56 560ZM145 560 135 574Q155 587 165 610.5Q175 634 176 660Q162 654 150.5 661.5Q139 669 139 686Q139 700 147 708Q155 716 166 716Q180 716 188 706.5Q196 697 196 673Q196 637 183 606Q170 575 145 560Z" glyph-name="quotedblright" horiz-adv-x="243" unicode="&#8221;" /><glyph d="M92 720 102 706Q82 693 72 669.5Q62 646 61 620Q75 626 86.5 618.5Q98 611 98 594Q98 580 90 572Q82 564 71 564Q57 564 49 573.5Q41 583 41 607Q41 643 54 674Q67 705 92 720Z" glyph-name="quoteleft" horiz-adv-x="153" unicode="&#8216;" /><glyph d="M56 560 46 574Q66 587 76 610.5Q86 634 87 660Q73 654 61.5 661.5Q50 669 50 686Q50 700 58 708Q66 716 77 716Q91 716 99 706.5Q107 697 107 673Q107 637 94 606Q81 575 56 560Z" glyph-name="quoteright" horiz-adv-x="153" unicode="&#8217;" /><glyph d="M57 -101 47 -88Q66 -75 76 -51.5Q86 -28 87 -2Q73 -8 62 -0.5Q51 7 51 24Q51 38 58.5 46Q66 54 77 54Q91 54 99 44.5Q107 35 107 11Q107 -25 94 -56Q81 -87 57 -101Z" glyph-name="quotesinglbase" horiz-adv-x="153" unicode="&#8218;" /><glyph d="M51 548 49 710H78L75 548Z" glyph-name="quotesingle" horiz-adv-x="125" unicode="'" /><glyph d="M78 0V478H103L106 343Q118 412 155.5 448Q193 484 243 482V452Q183 454 147.5 402.5Q112 351 107 252V0Z" glyph-name="r" horiz-adv-x="255" unicode="r" /><glyph d="M78 0ZM78 0V478H103L106 343Q118 412 155.5 448Q193 484 243 482V452Q183 454 147.5 402.5Q112 351 107 252V0ZM255 666 180 563H155V566L217 670H255Z" glyph-name="racute" horiz-adv-x="255" unicode="&#341;" /><glyph d="M69 0ZM78 0V478H103L106 343Q118 412 155.5 448Q193 484 243 482V452Q183 454 147.5 402.5Q112 351 107 252V0ZM169 585 239 670H269V669L181 563H157L69 669V670H101Z" glyph-name="rcaron" horiz-adv-x="255" unicode="&#345;" /><glyph d="M61 0ZM78 0V478H103L106 343Q118 412 155.5 448Q193 484 243 482V452Q183 454 147.5 402.5Q112 351 107 252V0ZM120 -113Q120 -149 107 -179Q94 -209 71 -223L61 -210Q79 -198 90 -174.5Q101 -151 102 -125Q88 -131 76.5 -124Q65 -117 65 -100Q65 -86 72.5 -79Q80 -72 92 -72Q106 -72 113 -81Q120 -90 120 -113Z" glyph-name="rcommaaccent" horiz-adv-x="255" unicode="&#343;" /><glyph d="M179 352Q114 352 78 401.5Q42 451 42 531Q42 612 78 661Q114 710 179 710Q243 710 279 661Q315 612 315 531Q315 491 305.5 458Q296 425 278.5 401.5Q261 378 236 365Q211 352 179 352ZM179 365Q234 365 267 409.5Q300 454 300 531Q300 609 267 653Q234 697 179 697Q122 697 89.5 653Q57 609 57 531Q57 454 89.5 409.5Q122 365 179 365ZM179 611H144V528H183Q215 528 215 569Q215 589 205.5 600Q196 611 179 611ZM129 445V625H179Q203 625 216 610Q229 595 229 569Q229 528 200 517L228 445H212L186 514H144V445Z" glyph-name="registered" horiz-adv-x="357" unicode="&#174;" /><glyph d="M92 560Q67 575 54 606Q41 637 41 673Q41 697 49 706.5Q57 716 71 716Q82 716 90 708Q98 700 98 686Q98 669 86.5 661.5Q75 654 61 660Q62 634 72 610.5Q82 587 102 574ZM182 560Q157 575 144 606Q131 637 131 673Q131 697 139 706.5Q147 716 161 716Q172 716 180 708Q188 700 188 686Q188 669 176.5 661.5Q165 654 151 660Q152 634 162 610.5Q172 587 192 574Z" glyph-name="reversequotedblleft" horiz-adv-x="244" /><glyph d="M92 560Q67 575 54 606Q41 637 41 673Q41 697 49 706.5Q57 716 71 716Q82 716 90 708Q98 700 98 686Q98 669 86.5 661.5Q75 654 61 660Q62 634 72 610.5Q82 587 102 574Z" glyph-name="reversequoteleft" horiz-adv-x="153" /><glyph d="M157 629Q157 664 177 687Q197 710 229 710Q259 710 279 687Q299 664 299 629Q299 594 279 571.5Q259 549 228 549Q197 549 177 571.5Q157 594 157 629ZM179 629Q179 603 193 586Q207 569 228 569Q249 569 263 586Q277 603 277 629Q277 656 263 673Q249 690 229 690Q207 690 193 673Q179 656 179 629Z" glyph-name="ring" horiz-adv-x="451" unicode="&#730;" /><glyph d="M185 15Q234 15 262.5 40.5Q291 66 291 114Q291 149 271 176Q251 203 197 225L165 238Q111 260 79.5 289.5Q48 319 48 373Q48 425 81 457Q114 489 177 489Q228 489 261 464.5Q294 440 314 388L289 375Q272 423 244 443.5Q216 464 177 464Q129 464 102.5 441Q76 418 76 374Q76 336 98.5 312Q121 288 173 266L206 252Q270 225 294.5 193Q319 161 319 116Q319 62 285.5 26Q252 -10 183 -10Q123 -10 85.5 19Q48 48 27 105L53 117Q72 61 106 38Q140 15 185 15Z" glyph-name="s" horiz-adv-x="363" unicode="s" /><glyph d="M27 0ZM185 15Q234 15 262.5 40.5Q291 66 291 114Q291 149 271 176Q251 203 197 225L165 238Q111 260 79.5 289.5Q48 319 48 373Q48 425 81 457Q114 489 177 489Q228 489 261 464.5Q294 440 314 388L289 375Q272 423 244 443.5Q216 464 177 464Q129 464 102.5 441Q76 418 76 374Q76 336 98.5 312Q121 288 173 266L206 252Q270 225 294.5 193Q319 161 319 116Q319 62 285.5 26Q252 -10 183 -10Q123 -10 85.5 19Q48 48 27 105L53 117Q72 61 106 38Q140 15 185 15ZM265 666 190 563H165V566L227 670H265Z" glyph-name="sacute" horiz-adv-x="363" unicode="&#347;" /><glyph d="M27 0ZM185 15Q234 15 262.5 40.5Q291 66 291 114Q291 149 271 176Q251 203 197 225L165 238Q111 260 79.5 289.5Q48 319 48 373Q48 425 81 457Q114 489 177 489Q228 489 261 464.5Q294 440 314 388L289 375Q272 423 244 443.5Q216 464 177 464Q129 464 102.5 441Q76 418 76 374Q76 336 98.5 312Q121 288 173 266L206 252Q270 225 294.5 193Q319 161 319 116Q319 62 285.5 26Q252 -10 183 -10Q123 -10 85.5 19Q48 48 27 105L53 117Q72 61 106 38Q140 15 185 15ZM180 585 250 670H280V669L192 563H168L80 669V670H112Z" glyph-name="scaron" horiz-adv-x="363" unicode="&#353;" /><glyph d="M175 -221Q149 -221 130 -209.5Q111 -198 97 -172L116 -160Q127 -182 141 -191Q155 -200 175 -200Q233 -200 233 -147Q233 -121 219 -110Q205 -99 188 -99Q177 -99 167 -102L158 -94L171 -10Q116 -6 81.5 22.5Q47 51 27 105L53 117Q72 61 106 38Q140 15 185 15Q234 15 262.5 40.5Q291 66 291 114Q291 149 271 175.5Q251 202 197 225L165 238Q111 260 79.5 289.5Q48 319 48 373Q48 425 81 457Q114 489 177 489Q228 489 261 464.5Q294 440 314 388L289 375Q272 423 244 443.5Q216 464 177 464Q129 464 102.5 441Q76 418 76 374Q76 336 98.5 311.5Q121 287 173 266L206 252Q270 226 294.5 193.5Q319 161 319 116Q319 63 287 28Q255 -7 192 -9L180 -83Q185 -81 195 -81Q218 -81 237 -96Q256 -111 256 -147Q256 -183 234.5 -202Q213 -221 175 -221Z" glyph-name="scedilla" horiz-adv-x="363" unicode="&#351;" /><glyph d="M27 0ZM185 15Q234 15 262.5 40.5Q291 66 291 114Q291 149 271 176Q251 203 197 225L165 238Q111 260 79.5 289.5Q48 319 48 373Q48 425 81 457Q114 489 177 489Q228 489 261 464.5Q294 440 314 388L289 375Q272 423 244 443.5Q216 464 177 464Q129 464 102.5 441Q76 418 76 374Q76 336 98.5 312Q121 288 173 266L206 252Q270 225 294.5 193Q319 161 319 116Q319 62 285.5 26Q252 -10 183 -10Q123 -10 85.5 19Q48 48 27 105L53 117Q72 61 106 38Q140 15 185 15ZM181 649 112 563H81V565L169 670H194L281 565V563H250Z" glyph-name="scircumflex" horiz-adv-x="363" unicode="&#349;" /><glyph d="M27 0ZM185 15Q234 15 262.5 40.5Q291 66 291 114Q291 149 271 176Q251 203 197 225L165 238Q111 260 79.5 289.5Q48 319 48 373Q48 425 81 457Q114 489 177 489Q228 489 261 464.5Q294 440 314 388L289 375Q272 423 244 443.5Q216 464 177 464Q129 464 102.5 441Q76 418 76 374Q76 336 98.5 312Q121 288 173 266L206 252Q270 225 294.5 193Q319 161 319 116Q319 62 285.5 26Q252 -10 183 -10Q123 -10 85.5 19Q48 48 27 105L53 117Q72 61 106 38Q140 15 185 15ZM210 -113Q210 -149 197 -179Q184 -209 161 -223L151 -210Q169 -198 180 -174.5Q191 -151 192 -125Q178 -131 166.5 -124Q155 -117 155 -100Q155 -86 162.5 -79Q170 -72 182 -72Q196 -72 203 -81Q210 -90 210 -113Z" glyph-name="scommaaccent" horiz-adv-x="363" unicode="&#537;" /><glyph d="M93 354Q93 321 112.5 292.5Q132 264 181 249L207 241Q227 235 246.5 238.5Q266 242 282 255Q298 268 307.5 288.5Q317 309 317 338Q317 370 298 397Q279 424 228 441L203 449Q182 456 162 452Q142 448 126.5 435Q111 422 102 401.5Q93 381 93 354ZM199 -22Q142 -22 103 9.5Q64 41 42 99L66 111Q86 52 121 27.5Q156 3 197 3Q255 3 278 31.5Q301 60 301 105Q301 145 282.5 169.5Q264 194 211 212L178 223Q124 241 95 272.5Q66 304 66 356Q66 400 88.5 430.5Q111 461 148 468Q119 482 99.5 513Q80 544 80 586Q80 641 113.5 675.5Q147 710 203 710Q254 710 285 686Q316 662 336 611L312 599Q296 645 268.5 665Q241 685 202 685Q160 685 133.5 659Q107 633 107 587Q107 553 126.5 524Q146 495 195 478L231 466Q268 454 290.5 438.5Q313 423 324.5 406Q336 389 339.5 372Q343 355 343 340Q343 292 322 261Q301 230 263 221Q302 201 315.5 171.5Q329 142 329 105Q329 49 297.5 13.5Q266 -22 199 -22Z" glyph-name="section" horiz-adv-x="390" unicode="&#167;" /><glyph d="M46 0ZM56 -102 46 -88Q66 -75 76 -51.5Q86 -28 87 -2Q73 -8 61.5 -0.5Q50 7 50 24Q50 38 58 46Q66 54 77 54Q91 54 99 44.5Q107 35 107 11Q107 -25 94 -56Q81 -87 56 -102ZM77 390Q65 390 57.5 398Q50 406 50 420Q50 434 57.5 442Q65 450 77 450Q104 450 104 420Q104 406 97 398Q90 390 77 390Z" glyph-name="semicolon" horiz-adv-x="156" unicode=";" /><glyph d="M98 0ZM189 0Q188 96 202.5 194Q217 292 244.5 382Q272 472 311.5 547.5Q351 623 399 674H98V700H437V675Q389 632 348.5 561.5Q308 491 279.5 402Q251 313 235.5 210Q220 107 220 0Z" glyph-name="seven" horiz-adv-x="535" unicode="7" /><glyph d="M122 0Q121 96 135.5 194Q150 292 177.5 382Q205 472 244.5 547.5Q284 623 332 674H31V700H370V675Q322 632 281.5 561.5Q241 491 212.5 402Q184 313 168.5 210Q153 107 153 0Z" glyph-name="seven.LP" horiz-adv-x="373" /><glyph d="M110 -100Q108 -7 120.5 89Q133 185 159 274.5Q185 364 223 441.5Q261 519 309 574H24V600H345V575Q300 534 262 464Q224 394 196 305Q168 216 152.5 112.5Q137 9 139 -100Z" glyph-name="seven.OP" horiz-adv-x="355" /><glyph d="M189 -100Q188 -4 202.5 94Q217 192 244.5 282Q272 372 311.5 447.5Q351 523 399 574H98V600H437V575Q389 532 348.5 461.5Q308 391 279.5 302Q251 213 235.5 110Q220 7 220 -100Z" glyph-name="seven.OT" horiz-adv-x="535" /><glyph d="M22 0ZM100 -200H75Q75 -146 83.5 -90.5Q92 -35 108 17Q124 69 146 112.5Q168 156 195 186L22 185V208H223V188Q196 162 173.5 121Q151 80 135 29Q119 -22 110 -80.5Q101 -139 100 -200Z" glyph-name="seven.inf" horiz-adv-x="229" /><glyph d="M80 0ZM283 -10Q239 -10 202 8.5Q165 27 138 69Q111 111 95.5 178Q80 245 80 342Q80 439 94.5 508.5Q109 578 135.5 623Q162 668 200 689Q238 710 285 710Q344 710 383 681.5Q422 653 445 585L420 573Q400 634 367.5 659Q335 684 286 684Q247 684 215 665.5Q183 647 159.5 606Q136 565 123 499.5Q110 434 110 340Q110 317 111 291Q112 265 116 233Q116 278 127.5 315Q139 352 161 378.5Q183 405 214 420Q245 435 285 435Q360 435 407.5 380.5Q455 326 455 216Q455 111 411.5 50.5Q368 -10 283 -10ZM281 16Q347 16 386 66.5Q425 117 425 215Q425 306 387 357.5Q349 409 280 409Q211 409 169.5 355Q128 301 128 205Q128 172 137 138.5Q146 105 164.5 78Q183 51 212 33.5Q241 16 281 16Z" glyph-name="six" horiz-adv-x="535" unicode="6" /><glyph d="M263 -10Q219 -10 182 8.5Q145 27 118 69Q91 111 75.5 178Q60 245 60 342Q60 439 74.5 508.5Q89 578 115.5 623Q142 668 180 689Q218 710 265 710Q324 710 363 681.5Q402 653 425 585L400 573Q380 634 347.5 659Q315 684 266 684Q227 684 195 665.5Q163 647 139.5 606Q116 565 103 499.5Q90 434 90 340Q90 317 91 291Q92 265 96 233Q96 278 107.5 315Q119 352 141 378.5Q163 405 194 420Q225 435 265 435Q340 435 387.5 380.5Q435 326 435 216Q435 111 391.5 50.5Q348 -10 263 -10ZM261 16Q327 16 366 66.5Q405 117 405 215Q405 306 367 357.5Q329 409 260 409Q191 409 149.5 355Q108 301 108 205Q108 172 117 138.5Q126 105 144.5 78Q163 51 192 33.5Q221 16 261 16Z" glyph-name="six.LP" horiz-adv-x="483" /><glyph d="M246 -10Q204 -10 168.5 10Q133 30 107.5 72.5Q82 115 67.5 182Q53 249 53 342Q53 439 67 508.5Q81 578 106.5 623Q132 668 168 689Q204 710 249 710Q306 710 343.5 680.5Q381 651 403 585L378 572Q358 632 327.5 658Q297 684 249 684Q213 684 182.5 665.5Q152 647 130 606Q108 565 95.5 499.5Q83 434 83 340Q83 318 84 295Q85 272 88 243Q88 284 99 319Q110 354 130.5 380Q151 406 180.5 420.5Q210 435 248 435Q322 435 367 380Q412 325 412 216Q412 112 369.5 51Q327 -10 246 -10ZM246 16Q308 16 345 66.5Q382 117 382 215Q382 306 346.5 357.5Q311 409 244 409Q179 409 139.5 355Q100 301 100 205Q100 172 109.5 138.5Q119 105 137 78Q155 51 182.5 33.5Q210 16 246 16Z" glyph-name="six.OP" horiz-adv-x="453" /><glyph d="M283 -10Q239 -10 202 8.5Q165 27 138 69Q111 111 95.5 178Q80 245 80 342Q80 439 94.5 508.5Q109 578 135.5 623Q162 668 200 689Q238 710 285 710Q344 710 383 681.5Q422 653 445 585L420 573Q400 634 367.5 659Q335 684 286 684Q247 684 215 665.5Q183 647 159.5 606Q136 565 123 499.5Q110 434 110 340Q110 317 111 291Q112 265 116 233Q116 278 127.5 315Q139 352 161 378.5Q183 405 214 420Q245 435 285 435Q360 435 407.5 380.5Q455 326 455 216Q455 111 411.5 50.5Q368 -10 283 -10ZM281 16Q347 16 386 66.5Q425 117 425 215Q425 306 387 357.5Q349 409 280 409Q211 409 169.5 355Q128 301 128 205Q128 172 137 138.5Q146 105 164.5 78Q183 51 212 33.5Q241 16 281 16Z" glyph-name="six.OT" horiz-adv-x="535" /><glyph d="M37 0ZM158 -207Q131 -207 109 -195.5Q87 -184 71 -159.5Q55 -135 46 -95.5Q37 -56 37 0Q37 112 70 163Q103 214 160 214Q192 214 216 199Q240 184 253 150L234 140Q222 169 203 181Q184 193 160 193Q139 193 120.5 182.5Q102 172 89 149Q76 126 68.5 89Q61 52 61 -1Q61 -25 64 -52Q67 -2 93.5 26Q120 54 162 54Q207 54 234.5 22Q262 -10 262 -74Q262 -135 235.5 -171Q209 -207 158 -207ZM73 -80Q73 -98 78 -117Q83 -136 93.5 -151.5Q104 -167 119.5 -176.5Q135 -186 157 -186Q194 -186 216 -157.5Q238 -129 238 -74Q238 -23 216.5 5Q195 33 157 33Q119 33 96 3.5Q73 -26 73 -80Z" glyph-name="six.inf" horiz-adv-x="291" /><glyph glyph-name="sixperemspace" horiz-adv-x="124" unicode="&#8198;" /><glyph d="M334 701 43 0H13L303 701Z" glyph-name="slash" horiz-adv-x="346" unicode="/" /><glyph glyph-name="space" horiz-adv-x="169" unicode=" " /><glyph d="M408 68Q395 46 380.5 33Q366 20 350.5 12.5Q335 5 317.5 2.5Q300 0 282 0H40V24H55Q85 24 97 51.5Q109 79 107 140L102 324H40V349H102L97 522Q95 613 130.5 661.5Q166 710 241 710Q296 710 335 680Q374 650 398 576L373 563Q352 631 318.5 657.5Q285 684 240 684Q122 684 126 523L131 349H301V324H132L136 142Q138 90 130 62Q122 34 107 24H282Q312 24 338.5 35Q365 46 388 86Z" glyph-name="sterling" horiz-adv-x="427" unicode="&#163;" /><glyph d="M250 8Q235 -2 218.5 -6Q202 -10 188 -10Q167 -10 148.5 -3Q130 4 116 19.5Q102 35 94 60.5Q86 86 86 123V454H16V478H86V626H115V478H238V454H115V127Q115 67 134 42Q153 17 188 17Q201 17 213 20.5Q225 24 238 32Z" glyph-name="t" horiz-adv-x="261" unicode="t" /><glyph d="M250 8Q235 -2 218.5 -6Q202 -10 188 -10Q167 -10 148.5 -3Q130 4 116 19.5Q102 35 94 60.5Q86 86 86 123V300H16V322H86V454H16V478H86V626H115V478H238V454H115V322H238V300H115V127Q115 67 134 42Q153 17 188 17Q201 17 213 20.5Q225 24 238 32Z" glyph-name="tbar" horiz-adv-x="260" unicode="&#359;" /><glyph d="M198 554H178L183 720H214ZM250 8Q235 -2 218.5 -6Q202 -10 188 -10Q167 -10 148.5 -3Q130 4 116 19.5Q102 35 94 60.5Q86 86 86 123V454H16V478H86V626H115V478H238V454H115V127Q115 67 134 42Q153 17 188 17Q201 17 213 20.5Q225 24 238 32Z" glyph-name="tcaron" horiz-adv-x="261" unicode="&#357;" /><glyph d="M228 -147Q228 -183 206.5 -202Q185 -221 148 -221Q122 -221 102.5 -209.5Q83 -198 69 -172L88 -160Q99 -182 113 -191Q127 -200 147 -200Q205 -200 205 -147Q205 -121 191 -110Q177 -99 160 -99Q149 -99 139 -102L130 -94L144 -1Q118 10 102 39.5Q86 69 86 123V454H16V478H86V626H115V478H238V454H115V127Q115 67 134 42Q153 17 188 17Q201 17 213 20.5Q225 24 238 32L250 8Q235 -2 218.5 -6Q202 -10 188 -10Q182 -10 176 -9.5Q170 -9 165 -8L153 -83Q156 -81 160 -81Q164 -81 168 -81Q190 -81 209 -96Q228 -111 228 -147Z" glyph-name="tcedilla" horiz-adv-x="261" unicode="&#355;" /><glyph glyph-name="thinspace" horiz-adv-x="149" unicode="&#8201;" /><glyph d="M107 234Q107 121 144 68.5Q181 16 238 16Q305 16 338 74.5Q371 133 371 240Q371 348 340 405Q309 462 245 462Q184 462 145.5 406Q107 350 107 234ZM78 -186V700H107V356Q120 425 160 456.5Q200 488 252 488Q324 488 362 424.5Q400 361 400 240Q400 120 360 55Q320 -10 242 -10Q195 -10 158 17.5Q121 45 107 106V-186Z" glyph-name="thorn" horiz-adv-x="451" unicode="&#254;" /><glyph d="M87 0ZM265 16Q344 16 381.5 65Q419 114 419 194Q419 226 411.5 255.5Q404 285 387.5 307Q371 329 344.5 342Q318 355 281 355H213V382H280Q305 382 327.5 392.5Q350 403 366.5 423Q383 443 392.5 471.5Q402 500 402 537Q402 606 368.5 645Q335 684 269 684Q154 684 119 559L94 571Q115 642 157.5 676Q200 710 272 710Q354 710 393 663Q432 616 432 540Q432 478 407.5 434Q383 390 335 370Q390 357 419.5 311.5Q449 266 449 195Q449 99 403.5 44.5Q358 -10 266 -10Q200 -10 154.5 22Q109 54 87 124L113 136Q131 70 170.5 43Q210 16 265 16Z" glyph-name="three" horiz-adv-x="535" unicode="3" /><glyph d="M212 16Q291 16 328.5 65Q366 114 366 194Q366 226 358.5 255.5Q351 285 334.5 307Q318 329 291.5 342Q265 355 228 355H160V382H227Q252 382 274.5 392.5Q297 403 313.5 423Q330 443 339.5 471.5Q349 500 349 537Q349 606 315.5 645Q282 684 216 684Q101 684 66 559L41 571Q62 642 104.5 676Q147 710 219 710Q301 710 340 663Q379 616 379 540Q379 478 354.5 434Q330 390 282 370Q337 357 366.5 311.5Q396 266 396 195Q396 99 350.5 44.5Q305 -10 213 -10Q147 -10 101.5 22Q56 54 34 124L60 136Q78 70 117.5 43Q157 16 212 16Z" glyph-name="three.LP" horiz-adv-x="444" /><glyph d="M199 -85Q276 -85 312 -36Q348 13 348 93Q348 126 341 155Q334 184 317.5 206.5Q301 229 275 242Q249 255 211 255H151V282H211Q236 282 258 292.5Q280 303 296.5 323Q313 343 322.5 371.5Q332 400 332 437Q332 507 300 545.5Q268 584 203 584Q96 584 61 460L35 471Q55 540 95.5 575Q136 610 205 610Q285 610 323 563Q361 516 361 439Q361 377 336.5 333.5Q312 290 264 270Q319 257 348.5 212Q378 167 378 95Q378 -1 334 -55.5Q290 -110 199 -110Q137 -110 94 -79.5Q51 -49 28 24L54 36Q73 -29 109 -57Q145 -85 199 -85Z" glyph-name="three.OP" horiz-adv-x="424" /><glyph d="M265 -84Q344 -84 381.5 -35Q419 14 419 94Q419 126 411.5 155.5Q404 185 387.5 207Q371 229 344.5 242Q318 255 281 255H213V282H280Q305 282 327.5 292.5Q350 303 366.5 323Q383 343 392.5 371.5Q402 400 402 437Q402 506 368.5 545Q335 584 269 584Q154 584 119 459L94 471Q115 542 157.5 576Q200 610 272 610Q354 610 393 563Q432 516 432 440Q432 378 407.5 334Q383 290 335 270Q390 257 419.5 211.5Q449 166 449 95Q449 -1 403.5 -55.5Q358 -110 266 -110Q200 -110 154.5 -78Q109 -46 87 24L113 36Q131 -30 170.5 -57Q210 -84 265 -84Z" glyph-name="three.OT" horiz-adv-x="535" /><glyph d="M24 0ZM131 -207Q55 -207 24 -133L45 -124Q59 -156 79.5 -170.5Q100 -185 129 -185Q174 -185 195 -158Q216 -131 216 -86Q216 -50 200 -23.5Q184 3 142 3H99V24H142Q170 24 188.5 46.5Q207 69 207 110Q207 150 187.5 171.5Q168 193 131 193Q101 193 82.5 177Q64 161 51 128L30 137Q44 176 68.5 195Q93 214 134 214Q185 214 208 186.5Q231 159 231 114Q231 77 217.5 51.5Q204 26 179 15Q214 4 227 -25Q240 -54 240 -86Q240 -142 212.5 -174.5Q185 -207 131 -207Z" glyph-name="three.inf" horiz-adv-x="275" /><glyph glyph-name="threeperemspace" horiz-adv-x="247" unicode="&#8196;" /><glyph d="M482 256V230H40V256Z" glyph-name="threequarteremdash" horiz-adv-x="521" /><glyph d="M24 0ZM131 286Q55 286 24 360L45 369Q59 337 79.5 322.5Q100 308 129 308Q174 308 195 335Q216 362 216 407Q216 443 200 469.5Q184 496 142 496H99V517H142Q170 517 188.5 539.5Q207 562 207 603Q207 643 187.5 664.5Q168 686 131 686Q101 686 82.5 670Q64 654 51 621L30 630Q44 669 68.5 688Q93 707 134 707Q185 707 208 679.5Q231 652 231 607Q231 570 217.5 544.5Q204 519 179 508Q214 497 227 468Q240 439 240 407Q240 351 212.5 318.5Q185 286 131 286ZM487 701 240 0H212L459 701ZM440 111V131L547 408H572L465 133H613V335H637V133H687V111H637V0H613V111Z" glyph-name="threequarters" horiz-adv-x="705" unicode="&#190;" /><glyph d="M24 288ZM131 288Q55 288 24 362L45 371Q59 339 79.5 324.5Q100 310 129 310Q174 310 195 337Q216 364 216 409Q216 445 200 471.5Q184 498 142 498H99V519H142Q170 519 188.5 541.5Q207 564 207 605Q207 645 187.5 666.5Q168 688 131 688Q101 688 82.5 672Q64 656 51 623L30 632Q44 671 68.5 690Q93 709 134 709Q185 709 208 681.5Q231 654 231 609Q231 572 217.5 546.5Q204 521 179 510Q214 499 227 470Q240 441 240 409Q240 353 212.5 320.5Q185 288 131 288Z" glyph-name="threesuperior" horiz-adv-x="275" unicode="&#179;" /><glyph d="M305 656H327Q327 633 322.5 618.5Q318 604 310.5 595.5Q303 587 294 584Q285 581 276 581Q260 581 249 589.5Q238 598 228 608.5Q218 619 208 627.5Q198 636 185 636Q174 636 165.5 626Q157 616 157 585H135Q135 608 140 622.5Q145 637 152 645Q159 653 167.5 656Q176 659 185 659Q201 659 212.5 650.5Q224 642 234 632Q244 622 254 613.5Q264 605 278 605Q290 605 297 616Q304 627 305 656Z" glyph-name="tilde" horiz-adv-x="451" unicode="&#732;" /><glyph d="M26 700H206V682H125V406H107V682H26ZM233 406V700H257L344 431L432 700H456V406H437L438 665L352 406H336L251 664L252 406Z" glyph-name="trademark" horiz-adv-x="521" unicode="&#8482;" /><glyph d="M84 0ZM93 0V25L302 332Q349 401 370.5 453Q392 505 392 552Q392 616 360 650Q328 684 268 684Q215 684 173.5 655Q132 626 109 550L84 561Q98 603 117 632Q136 661 159.5 678Q183 695 210.5 702.5Q238 710 269 710Q347 710 385 667.5Q423 625 423 556Q423 532 418 506.5Q413 481 402 452.5Q391 424 372.5 391Q354 358 327 318L126 25L452 26V0Z" glyph-name="two" horiz-adv-x="535" unicode="2" /><glyph d="M32 0V25L241 332Q288 401 309.5 453Q331 505 331 552Q331 616 299 650Q267 684 207 684Q154 684 112.5 655Q71 626 48 550L23 561Q37 603 56 632Q75 661 98.5 678Q122 695 149.5 702.5Q177 710 208 710Q286 710 324 667.5Q362 625 362 556Q362 532 357 506.5Q352 481 341 452.5Q330 424 311.5 391Q293 358 266 318L65 25L391 26V0Z" glyph-name="two.LP" horiz-adv-x="420" /><glyph d="M39 0V22L230 276Q280 343 302 388Q324 433 324 473Q324 528 295 556Q266 584 213 584Q169 584 134.5 558Q100 532 79 464L54 474Q77 550 118 580Q159 610 216 610Q286 610 320 572.5Q354 535 354 475Q354 453 348.5 431Q343 409 331 383.5Q319 358 300 328.5Q281 299 254 263L74 25L372 26V0Z" glyph-name="two.OP" horiz-adv-x="402" /><glyph d="M99 0V22L295 276Q321 310 339.5 337.5Q358 365 370 388.5Q382 412 388 432.5Q394 453 394 473Q394 528 363.5 556Q333 584 278 584Q232 584 196 558Q160 532 139 464L114 474Q137 550 180 580Q223 610 281 610Q353 610 388.5 572.5Q424 535 424 475Q424 453 418 431Q412 409 399.5 383.5Q387 358 367 328.5Q347 299 319 263L134 25L442 26V0Z" glyph-name="two.OT" horiz-adv-x="535" /><glyph d="M23 0ZM24 -200V-180L147 -7Q179 38 189 65.5Q199 93 199 114Q199 192 129 192Q96 192 76 174Q56 156 42 121L23 131Q39 172 64 193Q89 214 131 214Q178 214 201 187.5Q224 161 224 118Q224 89 211 58Q198 27 165 -20L52 -178H240V-200Z" glyph-name="two.inf" horiz-adv-x="262" /><glyph d="M23 295ZM24 295V315L147 488Q179 533 189 560.5Q199 588 199 609Q199 687 129 687Q96 687 76 669Q56 651 42 616L23 626Q39 667 64 688Q89 709 131 709Q178 709 201 682.5Q224 656 224 613Q224 584 211 553Q198 522 165 475L52 317H240V295Z" glyph-name="twosuperior" horiz-adv-x="262" unicode="&#178;" /><glyph d="M378 0H353L351 113Q337 52 297.5 21Q258 -10 204 -10Q73 -10 73 178V478H102V185Q102 138 110 106Q118 74 132 54Q146 34 166.5 25Q187 16 212 16Q245 16 269.5 30.5Q294 45 311 70.5Q328 96 337.5 131.5Q347 167 349 210V478H378Z" glyph-name="u" horiz-adv-x="456" unicode="u" /><glyph d="M73 0ZM378 0H353L351 113Q337 52 297.5 21Q258 -10 204 -10Q73 -10 73 178V478H102V185Q102 138 110 106Q118 74 132 54Q146 34 166.5 25Q187 16 212 16Q245 16 269.5 30.5Q294 45 311 70.5Q328 96 337.5 131.5Q347 167 349 210V478H378ZM310 666 235 563H210V566L272 670H310Z" glyph-name="uacute" horiz-adv-x="456" unicode="&#250;" /><glyph d="M73 0ZM378 0H353L351 113Q337 52 297.5 21Q258 -10 204 -10Q73 -10 73 178V478H102V185Q102 138 110 106Q118 74 132 54Q146 34 166.5 25Q187 16 212 16Q245 16 269.5 30.5Q294 45 311 70.5Q328 96 337.5 131.5Q347 167 349 210V478H378ZM295 669H316Q316 610 292 587Q268 564 225 564Q182 564 158 587Q134 610 134 669H156Q156 621 173.5 603.5Q191 586 225 586Q258 586 276.5 603.5Q295 621 295 669Z" glyph-name="ubreve" horiz-adv-x="456" unicode="&#365;" /><glyph d="M73 0ZM378 0H353L351 113Q337 52 297.5 21Q258 -10 204 -10Q73 -10 73 178V478H102V185Q102 138 110 106Q118 74 132 54Q146 34 166.5 25Q187 16 212 16Q245 16 269.5 30.5Q294 45 311 70.5Q328 96 337.5 131.5Q347 167 349 210V478H378ZM225 649 156 563H125V565L213 670H238L325 565V563H294Z" glyph-name="ucircumflex" horiz-adv-x="456" unicode="&#251;" /><glyph d="M73 0ZM378 0H353L351 113Q337 52 297.5 21Q258 -10 204 -10Q73 -10 73 178V478H102V185Q102 138 110 106Q118 74 132 54Q146 34 166.5 25Q187 16 212 16Q245 16 269.5 30.5Q294 45 311 70.5Q328 96 337.5 131.5Q347 167 349 210V478H378ZM253 610Q253 624 260.5 632Q268 640 280 640Q307 640 307 610Q307 581 280 581Q268 581 260.5 588.5Q253 596 253 610ZM146 610Q146 624 153.5 632Q161 640 173 640Q200 640 200 610Q200 581 173 581Q161 581 153.5 588.5Q146 596 146 610Z" glyph-name="udieresis" horiz-adv-x="456" unicode="&#252;" /><glyph d="M73 0ZM378 0H353L351 113Q337 52 297.5 21Q258 -10 204 -10Q73 -10 73 178V478H102V185Q102 138 110 106Q118 74 132 54Q146 34 166.5 25Q187 16 212 16Q245 16 269.5 30.5Q294 45 311 70.5Q328 96 337.5 131.5Q347 167 349 210V478H378ZM216 564 140 667V671H178L240 567V564Z" glyph-name="ugrave" horiz-adv-x="456" unicode="&#249;" /><glyph d="M73 0ZM378 0H353L351 113Q337 52 297.5 21Q258 -10 204 -10Q73 -10 73 178V478H102V185Q102 138 110 106Q118 74 132 54Q146 34 166.5 25Q187 16 212 16Q245 16 269.5 30.5Q294 45 311 70.5Q328 96 337.5 131.5Q347 167 349 210V478H378ZM352 666 273 563H250V566L312 670H352ZM262 670V666L184 563H161V566L223 670Z" glyph-name="uhungarumlaut" horiz-adv-x="456" unicode="&#369;" /><glyph d="M73 0ZM378 0H353L351 113Q337 52 297.5 21Q258 -10 204 -10Q73 -10 73 178V478H102V185Q102 138 110 106Q118 74 132 54Q146 34 166.5 25Q187 16 212 16Q245 16 269.5 30.5Q294 45 311 70.5Q328 96 337.5 131.5Q347 167 349 210V478H378ZM311 626V603H140V626Z" glyph-name="umacron" horiz-adv-x="456" unicode="&#363;" /><glyph d="M361 0V-24H-1V0Z" glyph-name="underscore" horiz-adv-x="360" unicode="_" /><glyph glyph-name="uni00A0" horiz-adv-x="131" unicode="&#160;" /><glyph d="M259 256V230H39V256Z" glyph-name="uni00AD" horiz-adv-x="299" unicode="&#173;" /><glyph d="M13 0ZM13 700H412V673H228V0H198V673H13ZM240 -113Q240 -149 227 -179Q214 -209 191 -223L181 -210Q199 -198 210 -174.5Q221 -151 222 -125Q208 -131 196.5 -124Q185 -117 185 -100Q185 -86 192.5 -79Q200 -72 212 -72Q226 -72 233 -81Q240 -90 240 -113Z" glyph-name="uni021A" horiz-adv-x="425" unicode="&#538;" /><glyph d="M16 0ZM205 -113Q205 -149 192 -179Q179 -209 156 -223L146 -210Q164 -198 175 -174.5Q186 -151 187 -125Q173 -131 161.5 -124Q150 -117 150 -100Q150 -86 157.5 -79Q165 -72 177 -72Q191 -72 198 -81Q205 -90 205 -113ZM250 8Q235 -2 218.5 -6Q202 -10 188 -10Q167 -10 148.5 -3Q130 4 116 19.5Q102 35 94 60.5Q86 86 86 123V454H16V478H86V626H115V478H238V454H115V127Q115 67 134 42Q153 17 188 17Q201 17 213 20.5Q225 24 238 32Z" glyph-name="uni021B" horiz-adv-x="261" unicode="&#539;" /><glyph d="M773 256V230H39V256Z" glyph-name="uni2015" horiz-adv-x="813" unicode="&#8213;" /><glyph d="M37 288ZM37 499Q37 613 67 661Q97 709 156 709Q214 709 244 661Q274 613 274 499Q274 385 244 336.5Q214 288 156 288Q97 288 67 336.5Q37 385 37 499ZM249 499Q249 551 242.5 587.5Q236 624 224 646Q212 668 195 678Q178 688 156 688Q134 688 116.5 678.5Q99 669 87 646.5Q75 624 68.5 588Q62 552 62 500Q62 446 68.5 409.5Q75 373 87 350.5Q99 328 116.5 318.5Q134 309 156 309Q178 309 195 318.5Q212 328 224 350.5Q236 373 242.5 409Q249 445 249 499Z" glyph-name="uni2070" horiz-adv-x="312" unicode="&#8304;" /><glyph d="M25 295ZM25 406V426L132 703H157L50 428H198V630H222V428H272V406H222V295H198V406Z" glyph-name="uni2074" horiz-adv-x="289" unicode="&#8308;" /><glyph d="M27 288ZM77 681 63 513Q81 533 102.5 540.5Q124 548 145 548Q190 548 218.5 519Q247 490 247 425Q247 365 219 326.5Q191 288 135 288Q100 288 71.5 305Q43 322 27 360L48 372Q72 310 134 310Q181 310 202 343Q223 376 223 425Q223 528 138 528Q112 528 93 517Q74 506 56 486L40 493L57 703H232V681Z" glyph-name="uni2075" horiz-adv-x="272" unicode="&#8309;" /><glyph d="M37 288ZM158 288Q131 288 109 299.5Q87 311 71 335.5Q55 360 46 399.5Q37 439 37 495Q37 607 70 658Q103 709 160 709Q192 709 216 694Q240 679 253 645L234 635Q222 664 203 676Q184 688 160 688Q139 688 120.5 677.5Q102 667 89 644Q76 621 68.5 584Q61 547 61 494Q61 470 64 443Q67 493 93.5 521Q120 549 162 549Q207 549 234.5 517Q262 485 262 421Q262 360 235.5 324Q209 288 158 288ZM73 415Q73 397 78 378Q83 359 93.5 343.5Q104 328 119.5 318.5Q135 309 157 309Q194 309 216 337.5Q238 366 238 421Q238 472 216.5 500Q195 528 157 528Q119 528 96 498.5Q73 469 73 415Z" glyph-name="uni2076" horiz-adv-x="291" unicode="&#8310;" /><glyph d="M22 295ZM100 295H75Q75 349 83.5 404.5Q92 460 108 512Q124 564 146 607.5Q168 651 195 681L22 680V703H223V683Q196 657 173.5 616Q151 575 135 524Q119 473 110 414.5Q101 356 100 295Z" glyph-name="uni2077" horiz-adv-x="229" unicode="&#8311;" /><glyph d="M36 288ZM144 288Q92 288 64 319.5Q36 351 36 406Q36 449 55 477Q74 505 106 514Q80 523 64.5 547Q49 571 49 608Q49 656 73.5 682.5Q98 709 144 709Q191 709 215.5 682.5Q240 656 240 608Q240 572 224 547.5Q208 523 182 514Q214 506 233 478Q252 450 252 406Q252 351 224.5 319.5Q197 288 144 288ZM217 607Q217 644 199 666Q181 688 144 688Q107 688 89.5 666Q72 644 72 607Q72 569 90 546.5Q108 524 144 524Q180 524 198.5 546.5Q217 569 217 607ZM228 407Q228 450 206.5 476Q185 502 144 502Q103 502 81.5 476Q60 450 60 407Q60 362 81 335.5Q102 309 144 309Q186 309 207 335.5Q228 362 228 407Z" glyph-name="uni2078" horiz-adv-x="289" unicode="&#8312;" /><glyph d="M27 288ZM216 582Q216 600 211 619Q206 638 195.5 653.5Q185 669 169 678.5Q153 688 132 688Q94 688 72.5 660Q51 632 51 577Q51 526 72 497.5Q93 469 132 469Q170 469 193 498.5Q216 528 216 582ZM130 709Q184 709 218 661.5Q252 614 252 503Q252 391 219 339.5Q186 288 129 288Q97 288 73 303Q49 318 35 351L55 363Q66 334 85.5 321.5Q105 309 128 309Q150 309 168 319.5Q186 330 199 353Q212 376 219.5 413Q227 450 227 503Q227 527 224 554Q221 504 195 476Q169 448 127 448Q82 448 54.5 480Q27 512 27 576Q27 637 53 673Q79 709 130 709Z" glyph-name="uni2079" horiz-adv-x="290" unicode="&#8313;" /><glyph d="M33 363ZM129 363H108V466H33V485H108V594H129V485H203V466H129Z" glyph-name="uni207A" horiz-adv-x="236" unicode="&#8314;" /><glyph d="M33 465ZM203 486V465H33V486Z" glyph-name="uni207B" horiz-adv-x="236" unicode="&#8315;" /><glyph d="M33 434ZM203 522V501H33V522ZM203 455V434H33V455Z" glyph-name="uni207C" horiz-adv-x="236" unicode="&#8316;" /><glyph d="M32 253ZM130 273 123 253Q79 264 55.5 322.5Q32 381 32 483Q32 586 55.5 645Q79 704 123 715L130 695Q94 684 74 632Q54 580 54 483Q54 388 74 336Q94 284 130 273Z" glyph-name="uni207D" horiz-adv-x="163" unicode="&#8317;" /><glyph d="M33 253ZM38 253 33 273Q68 284 88.5 336Q109 388 109 483Q109 580 88.5 632Q68 684 33 695L38 715Q83 704 107 645Q131 586 131 483Q131 381 107 322.5Q83 264 38 253Z" glyph-name="uni207E" horiz-adv-x="163" unicode="&#8318;" /><glyph d="M37 204Q37 318 67 366Q97 414 156 414Q214 414 244 366Q274 318 274 204Q274 90 244 41.5Q214 -7 156 -7Q97 -7 67 41.5Q37 90 37 204ZM249 204Q249 256 242.5 292.5Q236 329 224 351Q212 373 195 383Q178 393 156 393Q134 393 116.5 383.5Q99 374 87 351.5Q75 329 68.5 293Q62 257 62 205Q62 151 68.5 114.5Q75 78 87 55.5Q99 33 116.5 23.5Q134 14 156 14Q178 14 195 23.5Q212 33 224 55.5Q236 78 242.5 114Q249 150 249 204Z" glyph-name="uni2080" horiz-adv-x="312" unicode="&#8320;" /><glyph d="M90 0H66V369L23 325L12 346L74 408H90Z" glyph-name="uni2081" horiz-adv-x="146" unicode="&#8321;" /><glyph d="M24 0V20L147 193Q179 238 189 265.5Q199 293 199 314Q199 392 129 392Q96 392 76 374Q56 356 42 321L23 331Q39 372 64 393Q89 414 131 414Q178 414 201 387.5Q224 361 224 318Q224 289 211 258Q198 227 165 180L52 22H240V0Z" glyph-name="uni2082" horiz-adv-x="262" unicode="&#8322;" /><glyph d="M131 -7Q55 -7 24 67L45 76Q59 44 79.5 29.5Q100 15 129 15Q174 15 195 42Q216 69 216 114Q216 150 200 176.5Q184 203 142 203H99V224H142Q170 224 188.5 246.5Q207 269 207 310Q207 350 187.5 371.5Q168 393 131 393Q101 393 82.5 377Q64 361 51 328L30 337Q44 376 68.5 395Q93 414 134 414Q185 414 208 386.5Q231 359 231 314Q231 277 217.5 251.5Q204 226 179 215Q214 204 227 175Q240 146 240 114Q240 58 212.5 25.5Q185 -7 131 -7Z" glyph-name="uni2083" horiz-adv-x="274" unicode="&#8323;" /><glyph d="M25 111V131L132 408H157L50 133H198V335H222V133H272V111H222V0H198V111Z" glyph-name="uni2084" horiz-adv-x="288" unicode="&#8324;" /><glyph d="M77 386 63 218Q81 238 102.5 245.5Q124 253 145 253Q190 253 218.5 224Q247 195 247 130Q247 70 219 31.5Q191 -7 135 -7Q100 -7 71.5 10Q43 27 27 65L48 77Q72 15 134 15Q181 15 202 48Q223 81 223 130Q223 233 138 233Q112 233 93 222Q74 211 56 191L40 198L57 408H232V386Z" glyph-name="uni2085" horiz-adv-x="273" unicode="&#8325;" /><glyph d="M158 -7Q131 -7 109 4.5Q87 16 71 40.5Q55 65 46 104.5Q37 144 37 200Q37 312 70 363Q103 414 160 414Q192 414 216 399Q240 384 253 350L234 340Q222 369 203 381Q184 393 160 393Q139 393 120.5 382.5Q102 372 89 349Q76 326 68.5 289Q61 252 61 199Q61 175 64 148Q67 198 93.5 226Q120 254 162 254Q207 254 234.5 222Q262 190 262 126Q262 65 235.5 29Q209 -7 158 -7ZM73 120Q73 102 78 83Q83 64 93.5 48.5Q104 33 119.5 23.5Q135 14 157 14Q194 14 216 42.5Q238 71 238 126Q238 177 216.5 205Q195 233 157 233Q119 233 96 203.5Q73 174 73 120Z" glyph-name="uni2086" horiz-adv-x="290" unicode="&#8326;" /><glyph d="M100 0H75Q75 54 83.5 109.5Q92 165 108 217Q124 269 146 312.5Q168 356 195 386L22 385V408H223V388Q196 362 173.5 321Q151 280 135 229Q119 178 110 119.5Q101 61 100 0Z" glyph-name="uni2087" horiz-adv-x="229" unicode="&#8327;" /><glyph d="M144 -7Q92 -7 64 24.5Q36 56 36 111Q36 154 55 182Q74 210 106 219Q80 228 64.5 252Q49 276 49 313Q49 361 73.5 387.5Q98 414 144 414Q191 414 215.5 387.5Q240 361 240 313Q240 277 224 252.5Q208 228 182 219Q214 211 233 183Q252 155 252 111Q252 56 224.5 24.5Q197 -7 144 -7ZM217 312Q217 349 199 371Q181 393 144 393Q107 393 89.5 371Q72 349 72 312Q72 274 90 251.5Q108 229 144 229Q180 229 198.5 251.5Q217 274 217 312ZM228 112Q228 155 206.5 181Q185 207 144 207Q103 207 81.5 181Q60 155 60 112Q60 67 81 40.5Q102 14 144 14Q186 14 207 40.5Q228 67 228 112Z" glyph-name="uni2088" horiz-adv-x="289" unicode="&#8328;" /><glyph d="M216 287Q216 305 211 324Q206 343 195.5 358.5Q185 374 169 383.5Q153 393 132 393Q94 393 72.5 365Q51 337 51 282Q51 231 72 202.5Q93 174 132 174Q170 174 193 203.5Q216 233 216 287ZM130 414Q184 414 218 366.5Q252 319 252 208Q252 96 219 44.5Q186 -7 129 -7Q97 -7 73 8Q49 23 35 56L55 68Q66 39 85.5 26.5Q105 14 128 14Q150 14 168 24.5Q186 35 199 58Q212 81 219.5 118Q227 155 227 208Q227 232 224 259Q221 209 195 181Q169 153 127 153Q82 153 54.5 185Q27 217 27 281Q27 342 53 378Q79 414 130 414Z" glyph-name="uni2089" horiz-adv-x="290" unicode="&#8329;" /><glyph d="M129 65H108V168H33V187H108V296H129V187H203V168H129Z" glyph-name="uni208A" horiz-adv-x="236" unicode="&#8330;" /><glyph d="M203 188V167H33V188Z" glyph-name="uni208B" horiz-adv-x="236" unicode="&#8331;" /><glyph d="M203 224V203H33V224ZM203 157V136H33V157Z" glyph-name="uni208C" horiz-adv-x="236" unicode="&#8332;" /><glyph d="M130 -25 123 -45Q79 -34 55.5 24.5Q32 83 32 185Q32 288 55.5 347Q79 406 123 417L130 397Q94 386 74 334Q54 282 54 185Q54 90 74 38Q94 -14 130 -25Z" glyph-name="uni208D" horiz-adv-x="163" unicode="&#8333;" /><glyph d="M38 -45 33 -25Q68 -14 88.5 38Q109 90 109 185Q109 282 88.5 334Q68 386 33 397L38 417Q83 406 107 347Q131 288 131 185Q131 83 107 24.5Q83 -34 38 -45Z" glyph-name="uni208E" horiz-adv-x="163" unicode="&#8334;" /><glyph d="M12 0ZM448 -7Q372 -7 341 67L362 76Q376 44 396.5 29.5Q417 15 446 15Q491 15 512 42Q533 69 533 114Q533 150 517 176.5Q501 203 459 203H416V224H459Q487 224 505.5 246.5Q524 269 524 310Q524 350 504.5 371.5Q485 393 448 393Q418 393 399.5 377Q381 361 368 328L347 337Q361 376 385.5 395Q410 414 451 414Q502 414 525 386.5Q548 359 548 314Q548 277 534.5 251.5Q521 226 496 215Q531 204 544 175Q557 146 557 114Q557 58 529.5 25.5Q502 -7 448 -7ZM90 293H66V662L23 618L12 639L74 701H90ZM382 701 135 0H107L354 701Z" glyph-name="uni2153" horiz-adv-x="593" unicode="&#8531;" /><glyph d="M23 0ZM549 -7Q473 -7 442 67L463 76Q477 44 497.5 29.5Q518 15 547 15Q592 15 613 42Q634 69 634 114Q634 150 618 176.5Q602 203 560 203H517V224H560Q588 224 606.5 246.5Q625 269 625 310Q625 350 605.5 371.5Q586 393 549 393Q519 393 500.5 377Q482 361 469 328L448 337Q462 376 486.5 395Q511 414 552 414Q603 414 626 386.5Q649 359 649 314Q649 277 635.5 251.5Q622 226 597 215Q632 204 645 175Q658 146 658 114Q658 58 630.5 25.5Q603 -7 549 -7ZM24 293V313L147 486Q179 531 189 558.5Q199 586 199 607Q199 685 129 685Q96 685 76 667Q56 649 42 614L23 624Q39 665 64 686Q89 707 131 707Q178 707 201 680.5Q224 654 224 611Q224 582 211 551Q198 520 165 473L52 315H240V293ZM482 701 235 0H207L454 701Z" glyph-name="uni2154" horiz-adv-x="693" unicode="&#8532;" /><glyph d="M12 0ZM90 293H66V662L23 618L12 639L74 701H90ZM408 386 394 218Q412 238 433.5 245.5Q455 253 476 253Q521 253 549.5 224Q578 195 578 130Q578 70 550 31.5Q522 -7 466 -7Q431 -7 402.5 10Q374 27 358 65L379 77Q403 15 465 15Q512 15 533 48Q554 81 554 130Q554 233 469 233Q443 233 424 222Q405 211 387 191L371 198L388 408H563V386ZM382 701 135 0H107L354 701Z" glyph-name="uni2155" horiz-adv-x="602" unicode="&#8533;" /><glyph d="M23 0ZM24 293V313L147 486Q179 531 189 558.5Q199 586 199 607Q199 685 129 685Q96 685 76 667Q56 649 42 614L23 624Q39 665 64 686Q89 707 131 707Q178 707 201 680.5Q224 654 224 611Q224 582 211 551Q198 520 165 473L52 315H240V293ZM513 386 499 218Q517 238 538.5 245.5Q560 253 581 253Q626 253 654.5 224Q683 195 683 130Q683 70 655 31.5Q627 -7 571 -7Q536 -7 507.5 10Q479 27 463 65L484 77Q508 15 570 15Q617 15 638 48Q659 81 659 130Q659 233 574 233Q548 233 529 222Q510 211 492 191L476 198L493 408H668V386ZM487 701 240 0H212L459 701Z" glyph-name="uni2156" horiz-adv-x="707" unicode="&#8534;" /><glyph d="M24 0ZM131 286Q55 286 24 360L45 369Q59 337 79.5 322.5Q100 308 129 308Q174 308 195 335Q216 362 216 407Q216 443 200 469.5Q184 496 142 496H99V517H142Q170 517 188.5 539.5Q207 562 207 603Q207 643 187.5 664.5Q168 686 131 686Q101 686 82.5 670Q64 654 51 621L30 630Q44 669 68.5 688Q93 707 134 707Q185 707 208 679.5Q231 652 231 607Q231 570 217.5 544.5Q204 519 179 508Q214 497 227 468Q240 439 240 407Q240 351 212.5 318.5Q185 286 131 286ZM512 386 498 218Q516 238 537.5 245.5Q559 253 580 253Q625 253 653.5 224Q682 195 682 130Q682 70 654 31.5Q626 -7 570 -7Q535 -7 506.5 10Q478 27 462 65L483 77Q507 15 569 15Q616 15 637 48Q658 81 658 130Q658 233 573 233Q547 233 528 222Q509 211 491 191L475 198L492 408H667V386ZM486 701 239 0H211L458 701Z" glyph-name="uni2157" horiz-adv-x="706" unicode="&#8535;" /><glyph d="M25 0ZM532 386 518 218Q536 238 557.5 245.5Q579 253 600 253Q645 253 673.5 224Q702 195 702 130Q702 70 674 31.5Q646 -7 590 -7Q555 -7 526.5 10Q498 27 482 65L503 77Q527 15 589 15Q636 15 657 48Q678 81 678 130Q678 233 593 233Q567 233 548 222Q529 211 511 191L495 198L512 408H687V386ZM506 701 259 0H231L478 701ZM25 404V424L132 701H157L50 426H198V628H222V426H272V404H222V293H198V404Z" glyph-name="uni2158" horiz-adv-x="726" unicode="&#8536;" /><glyph d="M12 0ZM90 293H66V662L23 618L12 639L74 701H90ZM488 -7Q461 -7 439 4.5Q417 16 401 40.5Q385 65 376 104.5Q367 144 367 200Q367 312 400 363Q433 414 490 414Q522 414 546 399Q570 384 583 350L564 340Q552 369 533 381Q514 393 490 393Q469 393 450.5 382.5Q432 372 419 349Q406 326 398.5 289Q391 252 391 199Q391 175 394 148Q397 198 423.5 226Q450 254 492 254Q537 254 564.5 222Q592 190 592 126Q592 65 565.5 29Q539 -7 488 -7ZM403 120Q403 102 408 83Q413 64 423.5 48.5Q434 33 449.5 23.5Q465 14 487 14Q524 14 546 42.5Q568 71 568 126Q568 177 546.5 205Q525 233 487 233Q449 233 426 203.5Q403 174 403 120ZM382 701 135 0H107L354 701Z" glyph-name="uni2159" horiz-adv-x="621" unicode="&#8537;" /><glyph d="M27 0ZM77 679 63 511Q81 531 102.5 538.5Q124 546 145 546Q190 546 218.5 517Q247 488 247 423Q247 363 219 324.5Q191 286 135 286Q100 286 71.5 303Q43 320 27 358L48 370Q72 308 134 308Q181 308 202 341Q223 374 223 423Q223 526 138 526Q112 526 93 515Q74 504 56 484L40 491L57 701H232V679ZM579 -7Q552 -7 530 4.5Q508 16 492 40.5Q476 65 467 104.5Q458 144 458 200Q458 312 491 363Q524 414 581 414Q613 414 637 399Q661 384 674 350L655 340Q643 369 624 381Q605 393 581 393Q560 393 541.5 382.5Q523 372 510 349Q497 326 489.5 289Q482 252 482 199Q482 175 485 148Q488 198 514.5 226Q541 254 583 254Q628 254 655.5 222Q683 190 683 126Q683 65 656.5 29Q630 -7 579 -7ZM494 120Q494 102 499 83Q504 64 514.5 48.5Q525 33 540.5 23.5Q556 14 578 14Q615 14 637 42.5Q659 71 659 126Q659 177 637.5 205Q616 233 578 233Q540 233 517 203.5Q494 174 494 120ZM486 701 239 0H211L458 701Z" glyph-name="uni215A" horiz-adv-x="713" unicode="&#8538;" /><glyph d="M12 0ZM90 293H66V662L23 618L12 639L74 701H90ZM474 -7Q422 -7 394 24.5Q366 56 366 111Q366 154 385 182Q404 210 436 219Q410 228 394.5 252Q379 276 379 313Q379 361 403.5 387.5Q428 414 474 414Q521 414 545.5 387.5Q570 361 570 313Q570 277 554 252.5Q538 228 512 219Q544 211 563 183Q582 155 582 111Q582 56 554.5 24.5Q527 -7 474 -7ZM547 312Q547 349 529 371Q511 393 474 393Q437 393 419.5 371Q402 349 402 312Q402 274 420 251.5Q438 229 474 229Q510 229 528.5 251.5Q547 274 547 312ZM558 112Q558 155 536.5 181Q515 207 474 207Q433 207 411.5 181Q390 155 390 112Q390 67 411 40.5Q432 14 474 14Q516 14 537 40.5Q558 67 558 112ZM382 701 135 0H107L354 701Z" glyph-name="uni215B" horiz-adv-x="619" unicode="&#8539;" /><glyph d="M24 0ZM131 286Q55 286 24 360L45 369Q59 337 79.5 322.5Q100 308 129 308Q174 308 195 335Q216 362 216 407Q216 443 200 469.5Q184 496 142 496H99V517H142Q170 517 188.5 539.5Q207 562 207 603Q207 643 187.5 664.5Q168 686 131 686Q101 686 82.5 670Q64 654 51 621L30 630Q44 669 68.5 688Q93 707 134 707Q185 707 208 679.5Q231 652 231 607Q231 570 217.5 544.5Q204 519 179 508Q214 497 227 468Q240 439 240 407Q240 351 212.5 318.5Q185 286 131 286ZM578 -7Q526 -7 498 24.5Q470 56 470 111Q470 154 489 182Q508 210 540 219Q514 228 498.5 252Q483 276 483 313Q483 361 507.5 387.5Q532 414 578 414Q625 414 649.5 387.5Q674 361 674 313Q674 277 658 252.5Q642 228 616 219Q648 211 667 183Q686 155 686 111Q686 56 658.5 24.5Q631 -7 578 -7ZM651 312Q651 349 633 371Q615 393 578 393Q541 393 523.5 371Q506 349 506 312Q506 274 524 251.5Q542 229 578 229Q614 229 632.5 251.5Q651 274 651 312ZM662 112Q662 155 640.5 181Q619 207 578 207Q537 207 515.5 181Q494 155 494 112Q494 67 515 40.5Q536 14 578 14Q620 14 641 40.5Q662 67 662 112ZM486 701 239 0H211L458 701Z" glyph-name="uni215C" horiz-adv-x="723" unicode="&#8540;" /><glyph d="M27 0ZM578 -7Q526 -7 498 24.5Q470 56 470 111Q470 154 489 182Q508 210 540 219Q514 228 498.5 252Q483 276 483 313Q483 361 507.5 387.5Q532 414 578 414Q625 414 649.5 387.5Q674 361 674 313Q674 277 658 252.5Q642 228 616 219Q648 211 667 183Q686 155 686 111Q686 56 658.5 24.5Q631 -7 578 -7ZM651 312Q651 349 633 371Q615 393 578 393Q541 393 523.5 371Q506 349 506 312Q506 274 524 251.5Q542 229 578 229Q614 229 632.5 251.5Q651 274 651 312ZM662 112Q662 155 640.5 181Q619 207 578 207Q537 207 515.5 181Q494 155 494 112Q494 67 515 40.5Q536 14 578 14Q620 14 641 40.5Q662 67 662 112ZM77 679 63 511Q81 531 102.5 538.5Q124 546 145 546Q190 546 218.5 517Q247 488 247 423Q247 363 219 324.5Q191 286 135 286Q100 286 71.5 303Q43 320 27 358L48 370Q72 308 134 308Q181 308 202 341Q223 374 223 423Q223 526 138 526Q112 526 93 515Q74 504 56 484L40 491L57 701H232V679ZM486 701 239 0H211L458 701Z" glyph-name="uni215D" horiz-adv-x="723" unicode="&#8541;" /><glyph d="M22 0ZM526 -7Q474 -7 446 24.5Q418 56 418 111Q418 154 437 182Q456 210 488 219Q462 228 446.5 252Q431 276 431 313Q431 361 455.5 387.5Q480 414 526 414Q573 414 597.5 387.5Q622 361 622 313Q622 277 606 252.5Q590 228 564 219Q596 211 615 183Q634 155 634 111Q634 56 606.5 24.5Q579 -7 526 -7ZM599 312Q599 349 581 371Q563 393 526 393Q489 393 471.5 371Q454 349 454 312Q454 274 472 251.5Q490 229 526 229Q562 229 580.5 251.5Q599 274 599 312ZM610 112Q610 155 588.5 181Q567 207 526 207Q485 207 463.5 181Q442 155 442 112Q442 67 463 40.5Q484 14 526 14Q568 14 589 40.5Q610 67 610 112ZM100 293H75Q75 347 83.5 402.5Q92 458 108 510Q124 562 146 605.5Q168 649 195 679L22 678V701H223V681Q196 655 173.5 614Q151 573 135 522Q119 471 110 412.5Q101 354 100 293ZM434 701 187 0H159L406 701Z" glyph-name="uni215E" horiz-adv-x="671" unicode="&#8542;" /><glyph d="M12 0ZM90 293H66V662L23 618L12 639L74 701H90ZM382 701 135 0H107L354 701Z" glyph-name="uni215F" horiz-adv-x="623" unicode="&#8543;" /><glyph d="M409 -177Q395 -189 380.5 -193.5Q366 -198 350 -198Q335 -198 322 -193.5Q309 -189 298.5 -179Q288 -169 282 -152Q276 -135 276 -110Q276 -61 300 -30Q324 1 352 11L351 123Q336 57 297 23.5Q258 -10 204 -10Q73 -10 73 178V478H102V185Q102 138 110 106Q118 74 132 54Q146 34 166.5 25Q187 16 212 16Q245 16 269.5 30.5Q294 45 311 70.5Q328 96 337.5 131.5Q347 167 349 210V478H378V0H375Q345 -5 321.5 -34Q298 -63 298 -108Q298 -146 314 -160.5Q330 -175 352 -175Q365 -175 376.5 -171.5Q388 -168 398 -158Z" glyph-name="uogonek" horiz-adv-x="456" unicode="&#371;" /><glyph d="M73 0ZM378 0H353L351 113Q337 52 297.5 21Q258 -10 204 -10Q73 -10 73 178V478H102V185Q102 138 110 106Q118 74 132 54Q146 34 166.5 25Q187 16 212 16Q245 16 269.5 30.5Q294 45 311 70.5Q328 96 337.5 131.5Q347 167 349 210V478H378ZM155 629Q155 664 175 687Q195 710 227 710Q257 710 277 687Q297 664 297 629Q297 594 277 571.5Q257 549 226 549Q195 549 175 571.5Q155 594 155 629ZM177 629Q177 603 191 586Q205 569 226 569Q247 569 261 586Q275 603 275 629Q275 656 261 673Q247 690 227 690Q205 690 191 673Q177 656 177 629Z" glyph-name="uring" horiz-adv-x="456" unicode="&#367;" /><glyph d="M73 0ZM378 0H353L351 113Q337 52 297.5 21Q258 -10 204 -10Q73 -10 73 178V478H102V185Q102 138 110 106Q118 74 132 54Q146 34 166.5 25Q187 16 212 16Q245 16 269.5 30.5Q294 45 311 70.5Q328 96 337.5 131.5Q347 167 349 210V478H378ZM298 656H320Q320 633 315.5 618.5Q311 604 303.5 595.5Q296 587 287 584Q278 581 269 581Q253 581 242 589.5Q231 598 221 608.5Q211 619 201 627.5Q191 636 178 636Q167 636 158.5 626Q150 616 150 585H128Q128 608 133 622.5Q138 637 145 645Q152 653 160.5 656Q169 659 178 659Q194 659 205.5 650.5Q217 642 227 632Q237 622 247 613.5Q257 605 271 605Q283 605 290 616Q297 627 298 656Z" glyph-name="utilde" horiz-adv-x="456" unicode="&#361;" /><glyph d="M12 478H43L179 32L314 478H344L194 0H162Z" glyph-name="v" horiz-adv-x="356" unicode="v" /><glyph d="M251 466H283L383 36L489 478H518L400 0H365L266 424L167 0H133L14 478H45L150 36Z" glyph-name="w" horiz-adv-x="533" unicode="w" /><glyph d="M14 0ZM251 466H283L383 36L489 478H518L400 0H365L266 424L167 0H133L14 478H45L150 36ZM350 666 275 563H250V566L312 670H350Z" glyph-name="wacute" horiz-adv-x="533" unicode="&#7811;" /><glyph d="M14 0ZM251 466H283L383 36L489 478H518L400 0H365L266 424L167 0H133L14 478H45L150 36ZM266 649 197 563H166V565L254 670H279L366 565V563H335Z" glyph-name="wcircumflex" horiz-adv-x="533" unicode="&#373;" /><glyph d="M14 0ZM251 466H283L383 36L489 478H518L400 0H365L266 424L167 0H133L14 478H45L150 36ZM293 610Q293 624 300.5 632Q308 640 320 640Q347 640 347 610Q347 581 320 581Q308 581 300.5 588.5Q293 596 293 610ZM186 610Q186 624 193.5 632Q201 640 213 640Q240 640 240 610Q240 581 213 581Q201 581 193.5 588.5Q186 596 186 610Z" glyph-name="wdieresis" horiz-adv-x="533" unicode="&#7813;" /><glyph d="M14 0ZM251 466H283L383 36L489 478H518L400 0H365L266 424L167 0H133L14 478H45L150 36ZM257 564 181 667V671H219L281 567V564Z" glyph-name="wgrave" horiz-adv-x="533" unicode="&#7809;" /><glyph d="M315 0 183 224 52 0H20L167 248L31 478H64L185 271L306 478H337L201 248L349 0Z" glyph-name="x" horiz-adv-x="368" unicode="x" /><glyph d="M150 -48 163 -3 12 478H43L179 34L315 478H345L176 -59Q161 -106 146 -134.5Q131 -163 114.5 -178.5Q98 -194 80.5 -199.5Q63 -205 45 -205Q28 -205 14.5 -202.5Q1 -200 -15 -192L-6 -166Q19 -178 42 -178Q57 -178 71 -173.5Q85 -169 98 -155Q111 -141 124 -115.5Q137 -90 150 -48Z" glyph-name="y" horiz-adv-x="358" unicode="y" /><glyph d="M207 -205Q153 -205 114.5 -180.5Q76 -156 52 -96L78 -83Q98 -137 130.5 -158Q163 -179 205 -179Q267 -179 305 -137Q343 -95 343 4V115Q329 56 290.5 26.5Q252 -3 201 -3Q73 -3 73 184V478H102V190Q102 97 130.5 59.5Q159 22 208 22Q240 22 264 36Q288 50 304.5 75Q321 100 330.5 135Q340 170 343 213V478H372V-1Q372 -54 360 -92.5Q348 -131 326 -156Q304 -181 274 -193Q244 -205 207 -205Z" glyph-name="y.school" horiz-adv-x="450" /><glyph d="M0 0ZM150 -48 163 -3 12 478H43L179 34L315 478H345L176 -59Q161 -106 146 -134.5Q131 -163 114.5 -178.5Q98 -194 80.5 -199.5Q63 -205 45 -205Q28 -205 14.5 -202.5Q1 -200 -15 -192L-6 -166Q19 -178 42 -178Q57 -178 71 -173.5Q85 -169 98 -155Q111 -141 124 -115.5Q137 -90 150 -48ZM263 666 188 563H163V566L225 670H263Z" glyph-name="yacute" horiz-adv-x="358" unicode="&#253;" /><glyph d="M52 0ZM207 -205Q153 -205 114.5 -180.5Q76 -156 52 -96L78 -83Q98 -137 130.5 -158Q163 -179 205 -179Q267 -179 305 -137Q343 -95 343 4V115Q329 56 290.5 26.5Q252 -3 201 -3Q73 -3 73 184V478H102V190Q102 97 130.5 59.5Q159 22 208 22Q240 22 264 36Q288 50 304.5 75Q321 100 330.5 135Q340 170 343 213V478H372V-1Q372 -54 360 -92.5Q348 -131 326 -156Q304 -181 274 -193Q244 -205 207 -205ZM294 666 219 563H194V566L256 670H294Z" glyph-name="yacute.school" horiz-adv-x="450" /><glyph d="M0 0ZM150 -48 163 -3 12 478H43L179 34L315 478H345L176 -59Q161 -106 146 -134.5Q131 -163 114.5 -178.5Q98 -194 80.5 -199.5Q63 -205 45 -205Q28 -205 14.5 -202.5Q1 -200 -15 -192L-6 -166Q19 -178 42 -178Q57 -178 71 -173.5Q85 -169 98 -155Q111 -141 124 -115.5Q137 -90 150 -48ZM178 649 109 563H78V565L166 670H191L278 565V563H247Z" glyph-name="ycircumflex" horiz-adv-x="358" unicode="&#375;" /><glyph d="M52 0ZM228 649 159 563H128V565L216 670H241L328 565V563H297ZM207 -205Q153 -205 114.5 -180.5Q76 -156 52 -96L78 -83Q98 -137 130.5 -158Q163 -179 205 -179Q267 -179 305 -137Q343 -95 343 4V115Q329 56 290.5 26.5Q252 -3 201 -3Q73 -3 73 184V478H102V190Q102 97 130.5 59.5Q159 22 208 22Q240 22 264 36Q288 50 304.5 75Q321 100 330.5 135Q340 170 343 213V478H372V-1Q372 -54 360 -92.5Q348 -131 326 -156Q304 -181 274 -193Q244 -205 207 -205Z" glyph-name="ycircumflex.school" horiz-adv-x="450" /><glyph d="M0 0ZM150 -48 163 -3 12 478H43L179 34L315 478H345L176 -59Q161 -106 146 -134.5Q131 -163 114.5 -178.5Q98 -194 80.5 -199.5Q63 -205 45 -205Q28 -205 14.5 -202.5Q1 -200 -15 -192L-6 -166Q19 -178 42 -178Q57 -178 71 -173.5Q85 -169 98 -155Q111 -141 124 -115.5Q137 -90 150 -48ZM205 610Q205 624 212.5 632Q220 640 232 640Q259 640 259 610Q259 581 232 581Q220 581 212.5 588.5Q205 596 205 610ZM98 610Q98 624 105.5 632Q113 640 125 640Q152 640 152 610Q152 581 125 581Q113 581 105.5 588.5Q98 596 98 610Z" glyph-name="ydieresis" horiz-adv-x="358" unicode="&#255;" /><glyph d="M52 0ZM253 610Q253 624 260.5 632Q268 640 280 640Q307 640 307 610Q307 581 280 581Q268 581 260.5 588.5Q253 596 253 610ZM146 610Q146 624 153.5 632Q161 640 173 640Q200 640 200 610Q200 581 173 581Q161 581 153.5 588.5Q146 596 146 610ZM207 -205Q153 -205 114.5 -180.5Q76 -156 52 -96L78 -83Q98 -137 130.5 -158Q163 -179 205 -179Q267 -179 305 -137Q343 -95 343 4V115Q329 56 290.5 26.5Q252 -3 201 -3Q73 -3 73 184V478H102V190Q102 97 130.5 59.5Q159 22 208 22Q240 22 264 36Q288 50 304.5 75Q321 100 330.5 135Q340 170 343 213V478H372V-1Q372 -54 360 -92.5Q348 -131 326 -156Q304 -181 274 -193Q244 -205 207 -205Z" glyph-name="ydieresis.school" horiz-adv-x="450" /><glyph d="M394 263H239V0H209V263H54V288H208L180 347H54V372H169L17 700H51L225 315L399 700H431L279 372H394V347H267L240 288H394Z" glyph-name="yen" horiz-adv-x="449" unicode="&#165;" /><glyph d="M31 0V24L284 453H38V478H316V454L63 25H320V0Z" glyph-name="z" horiz-adv-x="354" unicode="z" /><glyph d="M31 0ZM31 0V24L284 453H38V478H316V454L63 25H320V0ZM260 666 185 563H160V566L222 670H260Z" glyph-name="zacute" horiz-adv-x="354" unicode="&#378;" /><glyph d="M31 0ZM31 0V24L284 453H38V478H316V454L63 25H320V0ZM174 585 244 670H274V669L186 563H162L74 669V670H106Z" glyph-name="zcaron" horiz-adv-x="354" unicode="&#382;" /><glyph d="M31 0ZM31 0V24L284 453H38V478H316V454L63 25H320V0ZM148 610Q148 624 155.5 631.5Q163 639 175 639Q202 639 202 610Q202 596 195 588Q188 580 175 580Q163 580 155.5 588Q148 596 148 610Z" glyph-name="zdotaccent" horiz-adv-x="354" unicode="&#380;" /><glyph d="M70 0ZM70 350Q70 448 83 516.5Q96 585 120.5 628Q145 671 182 690.5Q219 710 267 710Q315 710 352 690.5Q389 671 414 628Q439 585 452 516.5Q465 448 465 350Q465 252 452 183.5Q439 115 414 72Q389 29 352 9.5Q315 -10 267 -10Q219 -10 182 9.5Q145 29 120.5 72.5Q96 116 83 184Q70 252 70 350ZM435 350Q435 443 423.5 507Q412 571 390.5 610.5Q369 650 337.5 667Q306 684 267 684Q228 684 197 667Q166 650 144.5 610.5Q123 571 111.5 507Q100 443 100 350Q100 256 111.5 192Q123 128 144.5 89Q166 50 197 33Q228 16 267 16Q306 16 337.5 33Q369 50 390.5 89Q412 128 423.5 192Q435 256 435 350Z" glyph-name="zero" horiz-adv-x="535" unicode="0" /><glyph d="M60 350Q60 448 73 516.5Q86 585 110.5 628Q135 671 172 690.5Q209 710 257 710Q305 710 342 690.5Q379 671 404 628Q429 585 442 516.5Q455 448 455 350Q455 252 442 183.5Q429 115 404 72Q379 29 342 9.5Q305 -10 257 -10Q209 -10 172 9.5Q135 29 110.5 72.5Q86 116 73 184Q60 252 60 350ZM425 350Q425 443 413.5 507Q402 571 380.5 610.5Q359 650 327.5 667Q296 684 257 684Q218 684 187 667Q156 650 134.5 610.5Q113 571 101.5 507Q90 443 90 350Q90 256 101.5 192Q113 128 134.5 89Q156 50 187 33Q218 16 257 16Q296 16 327.5 33Q359 50 380.5 89Q402 128 413.5 192Q425 256 425 350Z" glyph-name="zero.LP" horiz-adv-x="515" /><glyph d="M237 610Q280 610 314 593Q348 576 372 539Q396 502 408.5 443Q421 384 421 300Q421 216 408.5 157Q396 98 372 61Q348 24 314 7Q280 -10 237 -10Q193 -10 159 7Q125 24 101.5 61Q78 98 65.5 157Q53 216 53 300Q53 384 65.5 443Q78 502 101.5 539Q125 576 159 593Q193 610 237 610ZM237 584Q200 584 171.5 569.5Q143 555 123 522Q103 489 92.5 434.5Q82 380 82 300Q82 220 92.5 165.5Q103 111 123 78Q143 45 171.5 30.5Q200 16 237 16Q273 16 301.5 30.5Q330 45 350 78Q370 111 380.5 165.5Q391 220 391 300Q391 380 380.5 434.5Q370 489 350 522Q330 555 301.5 569.5Q273 584 237 584Z" glyph-name="zero.OP" horiz-adv-x="475" /><glyph d="M268 610Q311 610 345 593Q379 576 403 539Q427 502 439.5 443Q452 384 452 300Q452 216 439.5 157Q427 98 403 61Q379 24 345 7Q311 -10 268 -10Q224 -10 190 7Q156 24 132.5 61Q109 98 96.5 157Q84 216 84 300Q84 384 96.5 443Q109 502 132.5 539Q156 576 190 593Q224 610 268 610ZM268 584Q231 584 202.5 569.5Q174 555 154 522Q134 489 123.5 434.5Q113 380 113 300Q113 220 123.5 165.5Q134 111 154 78Q174 45 202.5 30.5Q231 16 268 16Q304 16 332.5 30.5Q361 45 381 78Q401 111 411.5 165.5Q422 220 422 300Q422 380 411.5 434.5Q401 489 381 522Q361 555 332.5 569.5Q304 584 268 584Z" glyph-name="zero.OT" horiz-adv-x="535" /><glyph d="M37 0ZM37 4Q37 118 67 166Q97 214 156 214Q214 214 244 166Q274 118 274 4Q274 -110 244 -158.5Q214 -207 156 -207Q97 -207 67 -158.5Q37 -110 37 4ZM249 4Q249 56 242.5 92.5Q236 129 224 151Q212 173 195 183Q178 193 156 193Q134 193 116.5 183.5Q99 174 87 151.5Q75 129 68.5 93Q62 57 62 5Q62 -49 68.5 -85.5Q75 -122 87 -144.5Q99 -167 116.5 -176.5Q134 -186 156 -186Q178 -186 195 -176.5Q212 -167 224 -144.5Q236 -122 242.5 -86Q249 -50 249 4Z" glyph-name="zero.inf" horiz-adv-x="312" /><glyph glyph-name="zerowidthspace" horiz-adv-x="0" unicode="&#8203;" /></font>
</defs>
</svg>
