<?xml version="1.0" standalone="no"?><!DOCTYPE svg PUBLIC "-//W3C//DTD SVG 1.1//EN" "http://www.w3.org/Graphics/SVG/1.1/DTD/svg11.dtd" ><svg version="1.1" xmlns="http://www.w3.org/2000/svg"><defs><font horiz-adv-x="0" id="font"><font-face ascent="972" bbox="-92 -246 1366 937" cap-height="700" descent="-226" font-family="Honeywell Sans Web" font-stretch="normal" font-style="normal" font-weight="300" units-per-em="1000" x-height="478" /><missing-glyph d="M110 0V700H804V0ZM441 349 136 667V32ZM472 349 778 32V668ZM157 678 457 366 757 678ZM456 333 158 22H756Z" horiz-adv-x="914" /><glyph d="M0 0Z" glyph-name=".ttfautohint" horiz-adv-x="342" /><glyph d="M294 667 119 198H468ZM541 0 478 171H110L47 0H14L275 700H314L575 0Z" glyph-name="A" horiz-adv-x="589" unicode="A" /><glyph d="M291 668 116 198H456ZM525 0 464 171H106L43 0H10L272 700H820V673H322L431 366H764V338H440L550 27H830V0Z" glyph-name="AE" horiz-adv-x="867" unicode="&#198;" /><glyph d="M14 0ZM294 667 119 198H468ZM541 0 478 171H110L47 0H14L275 700H314L575 0ZM405 889 305 785H278V788L362 893H405Z" glyph-name="Aacute" horiz-adv-x="589" unicode="&#193;" /><glyph d="M14 0ZM294 667 119 198H468ZM541 0 478 171H110L47 0H14L275 700H314L575 0ZM388 891H414Q414 832 382 809Q350 786 294 786Q238 786 206.5 809Q175 832 175 891H200Q200 843 224.5 825.5Q249 808 294 808Q339 808 363.5 825.5Q388 843 388 891Z" glyph-name="Abreve" horiz-adv-x="589" unicode="&#258;" /><glyph d="M14 0ZM294 667 119 198H468ZM541 0 478 171H110L47 0H14L275 700H314L575 0ZM296 871 201 785H165V787L283 893H310L428 787V785H390Z" glyph-name="Acircumflex" horiz-adv-x="589" unicode="&#194;" /><glyph d="M14 0ZM294 667 119 198H468ZM541 0 478 171H110L47 0H14L275 700H314L575 0ZM332 832Q332 846 340.5 854Q349 862 363 862Q394 862 394 832Q394 802 363 802Q349 802 340.5 810Q332 818 332 832ZM197 832Q197 846 205 854Q213 862 227 862Q258 862 258 832Q258 802 227 802Q213 802 205 810Q197 818 197 832Z" glyph-name="Adieresis" horiz-adv-x="589" unicode="&#196;" /><glyph d="M14 0ZM294 667 119 198H468ZM541 0 478 171H110L47 0H14L275 700H314L575 0ZM286 785 186 889V893H229L313 788V785Z" glyph-name="Agrave" horiz-adv-x="589" unicode="&#192;" /><glyph d="M14 0ZM294 667 119 198H468ZM541 0 478 171H110L47 0H14L275 700H314L575 0ZM409 848V825H182V848Z" glyph-name="Amacron" horiz-adv-x="589" unicode="&#256;" /><glyph d="M537 12 478 171H110L46 0H14L275 700H314L575 0H561Q542 -2 523.5 -11Q505 -20 491 -34.5Q477 -49 468 -68Q459 -87 459 -109Q459 -147 480 -161Q501 -175 530 -175Q548 -175 563.5 -171Q579 -167 594 -156L602 -177Q568 -198 528 -198Q510 -198 493 -193.5Q476 -189 463 -179Q450 -169 442 -152.5Q434 -136 434 -112Q434 -87 443 -66Q452 -45 466.5 -29Q481 -13 499.5 -3Q518 7 537 12ZM294 668 119 198H468Z" glyph-name="Aogonek" horiz-adv-x="589" unicode="&#260;" /><glyph d="M14 0ZM294 667 119 198H468ZM541 0 478 171H110L47 0H14L275 700H314L575 0ZM211 851Q211 889 235.5 913Q260 937 297 937Q332 937 356 913Q380 889 380 851Q380 813 356 789Q332 765 295 765Q260 765 235.5 789Q211 813 211 851ZM231 851Q231 822 250 802.5Q269 783 295 783Q323 783 341.5 802.5Q360 822 360 851Q360 880 341.5 899.5Q323 919 297 919Q269 919 250 899.5Q231 880 231 851Z" glyph-name="Aring" horiz-adv-x="589" unicode="&#197;" /><glyph d="M14 0ZM294 667 119 198H468ZM541 0 478 171H110L47 0H14L275 700H314L575 0ZM395 878H420Q420 855 414 840.5Q408 826 398 817.5Q388 809 376.5 806Q365 803 355 803Q334 803 319 811.5Q304 820 291 830.5Q278 841 265 849.5Q252 858 235 858Q221 858 208 848Q195 838 194 807H169Q169 830 175 844.5Q181 859 190.5 867.5Q200 876 211 879Q222 882 233 882Q254 882 269 873.5Q284 865 297 854.5Q310 844 323.5 835.5Q337 827 355 827Q372 827 383 838Q394 849 395 878Z" glyph-name="Atilde" horiz-adv-x="589" unicode="&#195;" /><glyph d="M119 0V700H386Q437 700 473.5 687Q510 674 534 650.5Q558 627 569 594.5Q580 562 580 523Q580 463 548 419Q516 375 461 361Q499 356 525.5 339.5Q552 323 569 300Q586 277 594 249.5Q602 222 602 195Q602 97 548.5 48.5Q495 0 374 0ZM388 673H150V373H404Q439 373 466 385Q493 397 511 417.5Q529 438 538.5 465Q548 492 548 521Q548 597 505 635Q462 673 388 673ZM403 345H150V27H376Q475 27 522.5 66Q570 105 570 194Q570 261 529 303Q488 345 403 345Z" glyph-name="B" horiz-adv-x="660" unicode="B" /><glyph d="M380 -10Q309 -10 253.5 9.5Q198 29 160 72Q122 115 101.5 183.5Q81 252 81 350Q81 449 101.5 517.5Q122 586 160 628.5Q198 671 253.5 690.5Q309 710 380 710Q466 710 528.5 680Q591 650 627 581L601 564Q567 629 511 656Q455 683 380 683Q319 683 269.5 666.5Q220 650 185.5 611Q151 572 132 508.5Q113 445 113 351Q113 257 132 193Q151 129 185.5 90Q220 51 269.5 34Q319 17 380 17Q458 17 517 46Q576 75 613 146L637 130Q598 54 533 22Q468 -10 380 -10Z" glyph-name="C" horiz-adv-x="693" unicode="C" /><glyph glyph-name="CR" horiz-adv-x="225" unicode="" /><glyph d="M81 0ZM490 889 390 785H363V788L447 893H490ZM380 -10Q309 -10 253.5 9.5Q198 29 160 72Q122 115 101.5 183.5Q81 252 81 350Q81 449 101.5 517.5Q122 586 160 628.5Q198 671 253.5 690.5Q309 710 380 710Q466 710 528.5 680Q591 650 627 581L601 564Q567 629 511 656Q455 683 380 683Q319 683 269.5 666.5Q220 650 185.5 611Q151 572 132 508.5Q113 445 113 351Q113 257 132 193Q151 129 185.5 90Q220 51 269.5 34Q319 17 380 17Q458 17 517 46Q576 75 613 146L637 130Q598 54 533 22Q468 -10 380 -10Z" glyph-name="Cacute" horiz-adv-x="693" unicode="&#262;" /><glyph d="M81 0ZM378 807 473 893H510V891L392 785H365L247 891V893H284ZM380 -10Q309 -10 253.5 9.5Q198 29 160 72Q122 115 101.5 183.5Q81 252 81 350Q81 449 101.5 517.5Q122 586 160 628.5Q198 671 253.5 690.5Q309 710 380 710Q466 710 528.5 680Q591 650 627 581L601 564Q567 629 511 656Q455 683 380 683Q319 683 269.5 666.5Q220 650 185.5 611Q151 572 132 508.5Q113 445 113 351Q113 257 132 193Q151 129 185.5 90Q220 51 269.5 34Q319 17 380 17Q458 17 517 46Q576 75 613 146L637 130Q598 54 533 22Q468 -10 380 -10Z" glyph-name="Ccaron" horiz-adv-x="693" unicode="&#268;" /><glyph d="M364 -221Q331 -221 308 -210Q285 -199 268 -173L285 -158Q300 -181 317 -190.5Q334 -200 363 -200Q438 -200 438 -146Q438 -119 420 -109Q402 -99 379 -99Q373 -99 367 -99.5Q361 -100 353 -102L342 -94L360 -10Q294 -7 242 14Q190 35 154.5 78Q119 121 100 188Q81 255 81 350Q81 449 101.5 517.5Q122 586 160 628.5Q198 671 253.5 690.5Q309 710 380 710Q466 710 528.5 680Q591 650 627 581L601 564Q567 629 511 656Q455 683 380 683Q319 683 269.5 666.5Q220 650 185.5 611Q151 572 132 508.5Q113 445 113 351Q113 257 132 193Q151 129 185.5 90Q220 51 269.5 34Q319 17 380 17Q458 17 517 46Q576 75 613 146L637 130Q598 54 533.5 22Q469 -10 384 -10L369 -82Q371 -81 376 -81H387Q401 -81 414.5 -84.5Q428 -88 439 -95.5Q450 -103 456.5 -115.5Q463 -128 463 -146Q463 -183 436.5 -202Q410 -221 364 -221Z" glyph-name="Ccedilla" horiz-adv-x="693" unicode="&#199;" /><glyph d="M81 0ZM381 871 286 785H250V787L368 893H395L513 787V785H475ZM380 -10Q309 -10 253.5 9.5Q198 29 160 72Q122 115 101.5 183.5Q81 252 81 350Q81 449 101.5 517.5Q122 586 160 628.5Q198 671 253.5 690.5Q309 710 380 710Q466 710 528.5 680Q591 650 627 581L601 564Q567 629 511 656Q455 683 380 683Q319 683 269.5 666.5Q220 650 185.5 611Q151 572 132 508.5Q113 445 113 351Q113 257 132 193Q151 129 185.5 90Q220 51 269.5 34Q319 17 380 17Q458 17 517 46Q576 75 613 146L637 130Q598 54 533 22Q468 -10 380 -10Z" glyph-name="Ccircumflex" horiz-adv-x="693" unicode="&#264;" /><glyph d="M81 0ZM380 -10Q309 -10 253.5 9.5Q198 29 160 72Q122 115 101.5 183.5Q81 252 81 350Q81 449 101.5 517.5Q122 586 160 628.5Q198 671 253.5 690.5Q309 710 380 710Q466 710 528.5 680Q591 650 627 581L601 564Q567 629 511 656Q455 683 380 683Q319 683 269.5 666.5Q220 650 185.5 611Q151 572 132 508.5Q113 445 113 351Q113 257 132 193Q151 129 185.5 90Q220 51 269.5 34Q319 17 380 17Q458 17 517 46Q576 75 613 146L637 130Q598 54 533 22Q468 -10 380 -10ZM352 832Q352 862 383 862Q413 862 413 832Q413 802 383 802Q352 802 352 832Z" glyph-name="Cdotaccent" horiz-adv-x="693" unicode="&#266;" /><glyph d="M364 0H119V700H365Q433 700 486.5 681.5Q540 663 576.5 622.5Q613 582 632.5 516.5Q652 451 652 358Q652 263 632.5 195Q613 127 576 83.5Q539 40 485.5 20Q432 0 364 0ZM151 27H363Q421 27 468.5 44.5Q516 62 549.5 101Q583 140 601.5 203Q620 266 620 358Q620 446 602 506.5Q584 567 550.5 604Q517 641 470 657Q423 673 365 673H151Z" glyph-name="D" horiz-adv-x="732" unicode="D" /><glyph d="M119 0ZM376 807 471 893H508V891L390 785H363L245 891V893H282ZM364 0H119V700H365Q433 700 486.5 681.5Q540 663 576.5 622.5Q613 582 632.5 516.5Q652 451 652 358Q652 263 632.5 195Q613 127 576 83.5Q539 40 485.5 20Q432 0 364 0ZM151 27H363Q421 27 468.5 44.5Q516 62 549.5 101Q583 140 601.5 203Q620 266 620 358Q620 446 602 506.5Q584 567 550.5 604Q517 641 470 657Q423 673 365 673H151Z" glyph-name="Dcaron" horiz-adv-x="732" unicode="&#270;" /><glyph d="M377 0H132V354H48V379H132V700H377Q445 700 498.5 681.5Q552 663 589 622.5Q626 582 645.5 516.5Q665 451 665 358Q665 263 645.5 195Q626 127 589 83.5Q552 40 498.5 20Q445 0 377 0ZM164 27H375Q433 27 480.5 44.5Q528 62 562 101Q596 140 614.5 203Q633 266 633 358Q633 446 615 506.5Q597 567 563.5 604Q530 641 482.5 657Q435 673 377 673H164V379H348V354H164Z" glyph-name="Dcroat" horiz-adv-x="745" unicode="&#272;" /><glyph d="M119 0V700H596V673H150V366H541V338H150V27H606V0Z" glyph-name="E" horiz-adv-x="643" unicode="E" /><glyph d="M119 0ZM474 889 374 785H347V788L431 893H474ZM119 0V700H596V673H150V366H541V338H150V27H606V0Z" glyph-name="Eacute" horiz-adv-x="643" unicode="&#201;" /><glyph d="M119 0ZM119 0V700H596V673H150V366H541V338H150V27H606V0ZM457 891H483Q483 832 451 809Q419 786 363 786Q307 786 275.5 809Q244 832 244 891H269Q269 843 293.5 825.5Q318 808 363 808Q408 808 432.5 825.5Q457 843 457 891Z" glyph-name="Ebreve" horiz-adv-x="643" unicode="&#276;" /><glyph d="M119 0ZM362 807 457 893H494V891L376 785H349L231 891V893H268ZM119 0V700H596V673H150V366H541V338H150V27H606V0Z" glyph-name="Ecaron" horiz-adv-x="643" unicode="&#282;" /><glyph d="M119 0ZM365 871 270 785H234V787L352 893H379L497 787V785H459ZM119 0V700H596V673H150V366H541V338H150V27H606V0Z" glyph-name="Ecircumflex" horiz-adv-x="643" unicode="&#202;" /><glyph d="M119 0ZM400 832Q400 846 408.5 854Q417 862 431 862Q462 862 462 832Q462 802 431 802Q417 802 408.5 810Q400 818 400 832ZM265 832Q265 846 273 854Q281 862 295 862Q326 862 326 832Q326 802 295 802Q281 802 273 810Q265 818 265 832ZM119 0V700H596V673H150V366H541V338H150V27H606V0Z" glyph-name="Edieresis" horiz-adv-x="643" unicode="&#203;" /><glyph d="M119 0ZM119 0V700H596V673H150V366H541V338H150V27H606V0ZM336 832Q336 862 367 862Q397 862 397 832Q397 802 367 802Q336 802 336 832Z" glyph-name="Edotaccent" horiz-adv-x="643" unicode="&#278;" /><glyph d="M119 0ZM119 0V700H596V673H150V366H541V338H150V27H606V0ZM354 785 254 889V893H297L381 788V785Z" glyph-name="Egrave" horiz-adv-x="643" unicode="&#200;" /><glyph d="M119 0ZM119 0V700H596V673H150V366H541V338H150V27H606V0ZM477 848V825H250V848Z" glyph-name="Emacron" horiz-adv-x="643" unicode="&#274;" /><glyph d="M616 -56V-2L149 656L150 0H119V700H154L617 48L616 700H647V-62Q647 -138 618.5 -171.5Q590 -205 538 -205Q520 -205 502.5 -202.5Q485 -200 466 -192L471 -166Q487 -172 501 -175Q515 -178 535 -178Q575 -178 595.5 -151Q616 -124 616 -56Z" glyph-name="Eng" horiz-adv-x="766" unicode="&#330;" /><glyph d="M119 0V700H596V673H151V366H541V338H151V27H606V0Q586 -2 567 -11Q548 -20 533.5 -34.5Q519 -49 510 -68Q501 -87 501 -109Q501 -147 521.5 -161Q542 -175 571 -175Q589 -175 604.5 -171Q620 -167 636 -156L643 -177Q626 -188 607.5 -193Q589 -198 569 -198Q551 -198 534 -193.5Q517 -189 504.5 -179Q492 -169 484 -152.5Q476 -136 476 -112Q476 -71 498 -42.5Q520 -14 549 0Z" glyph-name="Eogonek" horiz-adv-x="643" unicode="&#280;" /><glyph d="M377 0H132V354H48V379H132V700H377Q445 700 498.5 681.5Q552 663 589 622.5Q626 582 645.5 516.5Q665 451 665 358Q665 263 645.5 195Q626 127 589 83.5Q552 40 498.5 20Q445 0 377 0ZM164 27H375Q433 27 480.5 44.5Q528 62 562 101Q596 140 614.5 203Q633 266 633 358Q633 446 615 506.5Q597 567 563.5 604Q530 641 482.5 657Q435 673 377 673H164V379H348V354H164Z" glyph-name="Eth" horiz-adv-x="745" unicode="&#208;" /><glyph d="M375 -10Q313 -10 263.5 6.5Q214 23 178 59.5Q142 96 120.5 154Q99 212 94 295H12V320H92V382H12V407H93Q99 489 120.5 546.5Q142 604 178 640.5Q214 677 263.5 693.5Q313 710 375 710Q460 710 521 680Q582 650 617 579L591 562Q558 628 504 655.5Q450 683 375 683Q322 683 278.5 669Q235 655 202.5 622.5Q170 590 150 537Q130 484 125 407H479L471 382H124V320H450L442 295H126Q131 218 150.5 165Q170 112 202.5 79Q235 46 278.5 31.5Q322 17 375 17Q451 17 508.5 46Q566 75 601 144L626 128Q588 53 524.5 21.5Q461 -10 375 -10Z" glyph-name="Euro" horiz-adv-x="681" unicode="&#8364;" /><glyph d="M119 0V700H583V673H151V357H539V330H151V0Z" glyph-name="F" horiz-adv-x="602" unicode="F" /><glyph d="M376 -10Q307 -10 252.5 10Q198 30 159.5 73Q121 116 101 184.5Q81 253 81 350Q81 449 101.5 517.5Q122 586 160 628.5Q198 671 253.5 690.5Q309 710 380 710Q466 710 528 680Q590 650 626 582L600 564Q567 628 511 655.5Q455 683 380 683Q319 683 269.5 666.5Q220 650 185.5 611Q151 572 132 508Q113 444 113 350Q113 257 132 193Q151 129 185.5 90Q220 51 269 34Q318 17 379 17Q430 17 472 30Q514 43 544.5 72.5Q575 102 593.5 148.5Q612 195 616 261V286H394V312H646V0H619L617 150Q592 69 530.5 29.5Q469 -10 376 -10Z" glyph-name="G" horiz-adv-x="715" unicode="G" /><glyph d="M375 -10Q306 -10 251.5 10Q197 30 159 73Q121 116 101 184.5Q81 253 81 350Q81 449 101 517.5Q121 586 159.5 628.5Q198 671 253 690.5Q308 710 379 710Q466 710 528 680Q590 650 626 582L600 564Q566 628 510.5 655.5Q455 683 379 683Q318 683 269 666.5Q220 650 185.5 611Q151 572 132 508Q113 444 113 350Q113 257 131.5 193Q150 129 184.5 90Q219 51 268 34Q317 17 378 17Q433 17 477 31Q521 45 552 77Q583 109 599 160Q615 211 614 286H394V312H646V289Q647 201 626.5 143.5Q606 86 569.5 52Q533 18 483 4Q433 -10 375 -10Z" glyph-name="G.alt" horiz-adv-x="715" /><glyph d="M81 0ZM376 -10Q307 -10 252.5 10Q198 30 159.5 73Q121 116 101 184.5Q81 253 81 350Q81 449 101.5 517.5Q122 586 160 628.5Q198 671 253.5 690.5Q309 710 380 710Q466 710 528 680Q590 650 626 582L600 564Q567 628 511 655.5Q455 683 380 683Q319 683 269.5 666.5Q220 650 185.5 611Q151 572 132 508Q113 444 113 350Q113 257 132 193Q151 129 185.5 90Q220 51 269 34Q318 17 379 17Q430 17 472 30Q514 43 544.5 72.5Q575 102 593.5 148.5Q612 195 616 261V286H394V312H646V0H619L617 150Q592 69 530.5 29.5Q469 -10 376 -10ZM472 891H498Q498 832 466 809Q434 786 378 786Q322 786 290.5 809Q259 832 259 891H284Q284 843 308.5 825.5Q333 808 378 808Q423 808 447.5 825.5Q472 843 472 891Z" glyph-name="Gbreve" horiz-adv-x="715" unicode="&#286;" /><glyph d="M472 891H498Q498 832 466 809Q434 786 378 786Q322 786 290.5 809Q259 832 259 891H284Q284 843 308.5 825.5Q333 808 378 808Q423 808 447.5 825.5Q472 843 472 891ZM375 -10Q306 -10 251.5 10Q197 30 159 73Q121 116 101 184.5Q81 253 81 350Q81 449 101 517.5Q121 586 159.5 628.5Q198 671 253 690.5Q308 710 379 710Q466 710 528 680Q590 650 626 582L600 564Q566 628 510.5 655.5Q455 683 379 683Q318 683 269 666.5Q220 650 185.5 611Q151 572 132 508Q113 444 113 350Q113 257 131.5 193Q150 129 184.5 90Q219 51 268 34Q317 17 378 17Q433 17 477 31Q521 45 552 77Q583 109 599 160Q615 211 614 286H394V312H646V289Q647 201 626.5 143.5Q606 86 569.5 52Q533 18 483 4Q433 -10 375 -10Z" glyph-name="Gbreve.alt" horiz-adv-x="715" /><glyph d="M81 0ZM380 871 285 785H249V787L367 893H394L512 787V785H474ZM376 -10Q307 -10 252.5 10Q198 30 159.5 73Q121 116 101 184.5Q81 253 81 350Q81 449 101.5 517.5Q122 586 160 628.5Q198 671 253.5 690.5Q309 710 380 710Q466 710 528 680Q590 650 626 582L600 564Q567 628 511 655.5Q455 683 380 683Q319 683 269.5 666.5Q220 650 185.5 611Q151 572 132 508Q113 444 113 350Q113 257 132 193Q151 129 185.5 90Q220 51 269 34Q318 17 379 17Q430 17 472 30Q514 43 544.5 72.5Q575 102 593.5 148.5Q612 195 616 261V286H394V312H646V0H619L617 150Q592 69 530.5 29.5Q469 -10 376 -10Z" glyph-name="Gcircumflex" horiz-adv-x="715" unicode="&#284;" /><glyph d="M380 871 285 785H249V787L367 893H394L512 787V785H474ZM375 -10Q306 -10 251.5 10Q197 30 159 73Q121 116 101 184.5Q81 253 81 350Q81 449 101 517.5Q121 586 159.5 628.5Q198 671 253 690.5Q308 710 379 710Q466 710 528 680Q590 650 626 582L600 564Q566 628 510.5 655.5Q455 683 379 683Q318 683 269 666.5Q220 650 185.5 611Q151 572 132 508Q113 444 113 350Q113 257 131.5 193Q150 129 184.5 90Q219 51 268 34Q317 17 378 17Q433 17 477 31Q521 45 552 77Q583 109 599 160Q615 211 614 286H394V312H646V289Q647 201 626.5 143.5Q606 86 569.5 52Q533 18 483 4Q433 -10 375 -10Z" glyph-name="Gcircumflex.alt" horiz-adv-x="715" /><glyph d="M81 0ZM353 -224 345 -209Q365 -199 376 -176.5Q387 -154 388 -128Q369 -133 358 -124.5Q347 -116 347 -100Q347 -86 355 -78.5Q363 -71 377 -71Q391 -71 400 -81Q409 -91 409 -116Q409 -151 395.5 -182Q382 -213 353 -224ZM376 -10Q307 -10 252.5 10Q198 30 159.5 73Q121 116 101 184.5Q81 253 81 350Q81 449 101.5 517.5Q122 586 160 628.5Q198 671 253.5 690.5Q309 710 380 710Q466 710 528 680Q590 650 626 582L600 564Q567 628 511 655.5Q455 683 380 683Q319 683 269.5 666.5Q220 650 185.5 611Q151 572 132 508Q113 444 113 350Q113 257 132 193Q151 129 185.5 90Q220 51 269 34Q318 17 379 17Q430 17 472 30Q514 43 544.5 72.5Q575 102 593.5 148.5Q612 195 616 261V286H394V312H646V0H619L617 150Q592 69 530.5 29.5Q469 -10 376 -10Z" glyph-name="Gcommaaccent" horiz-adv-x="715" unicode="&#290;" /><glyph d="M375 -10Q306 -10 251.5 10Q197 30 159 73Q121 116 101 184.5Q81 253 81 350Q81 449 101 517.5Q121 586 159.5 628.5Q198 671 253 690.5Q308 710 379 710Q466 710 528 680Q590 650 626 582L600 564Q566 628 510.5 655.5Q455 683 379 683Q318 683 269 666.5Q220 650 185.5 611Q151 572 132 508Q113 444 113 350Q113 257 131.5 193Q150 129 184.5 90Q219 51 268 34Q317 17 378 17Q433 17 477 31Q521 45 552 77Q583 109 599 160Q615 211 614 286H394V312H646V289Q647 201 626.5 143.5Q606 86 569.5 52Q533 18 483 4Q433 -10 375 -10ZM353 -224 345 -209Q365 -199 376 -176Q387 -153 388 -127Q383 -130 378 -130Q347 -130 347 -100Q347 -86 355 -78.5Q363 -71 377 -71Q391 -71 400 -81Q409 -91 409 -116Q409 -151 395.5 -182Q382 -213 353 -224Z" glyph-name="Gcommaaccent.alt" horiz-adv-x="715" /><glyph d="M81 0ZM376 -10Q307 -10 252.5 10Q198 30 159.5 73Q121 116 101 184.5Q81 253 81 350Q81 449 101.5 517.5Q122 586 160 628.5Q198 671 253.5 690.5Q309 710 380 710Q466 710 528 680Q590 650 626 582L600 564Q567 628 511 655.5Q455 683 380 683Q319 683 269.5 666.5Q220 650 185.5 611Q151 572 132 508Q113 444 113 350Q113 257 132 193Q151 129 185.5 90Q220 51 269 34Q318 17 379 17Q430 17 472 30Q514 43 544.5 72.5Q575 102 593.5 148.5Q612 195 616 261V286H394V312H646V0H619L617 150Q592 69 530.5 29.5Q469 -10 376 -10ZM351 832Q351 862 382 862Q412 862 412 832Q412 802 382 802Q351 802 351 832Z" glyph-name="Gdotaccent" horiz-adv-x="715" unicode="&#288;" /><glyph d="M351 832Q351 862 382 862Q412 862 412 832Q412 802 382 802Q351 802 351 832ZM375 -10Q306 -10 251.5 10Q197 30 159 73Q121 116 101 184.5Q81 253 81 350Q81 449 101 517.5Q121 586 159.5 628.5Q198 671 253 690.5Q308 710 379 710Q466 710 528 680Q590 650 626 582L600 564Q566 628 510.5 655.5Q455 683 379 683Q318 683 269 666.5Q220 650 185.5 611Q151 572 132 508Q113 444 113 350Q113 257 131.5 193Q150 129 184.5 90Q219 51 268 34Q317 17 378 17Q433 17 477 31Q521 45 552 77Q583 109 599 160Q615 211 614 286H394V312H646V289Q647 201 626.5 143.5Q606 86 569.5 52Q533 18 483 4Q433 -10 375 -10Z" glyph-name="Gdotaccent.alt" horiz-adv-x="715" /><glyph d="M622 0V338H151V0H119V700H151V366H622V700H654V0Z" glyph-name="H" horiz-adv-x="773" unicode="H" /><glyph d="M154 366H625V509H154ZM625 0V338H154V0H122V509H43V532H122V700H154V532H625V700H656V532H744V509H656V0Z" glyph-name="Hbar" horiz-adv-x="779" unicode="&#294;" /><glyph d="M119 0ZM387 871 292 785H256V787L374 893H401L519 787V785H481ZM622 0V338H151V0H119V700H151V366H622V700H654V0Z" glyph-name="Hcircumflex" horiz-adv-x="773" unicode="&#292;" /><glyph d="M119 0V700H151V0Z" glyph-name="I" horiz-adv-x="270" unicode="I" /><glyph d="M119 0ZM119 0V700H151V0ZM437 -10Q356 -10 301 30L316 56Q340 36 371.5 27Q403 18 438 18Q483 18 520 31Q557 44 583.5 72.5Q610 101 624 146Q638 191 638 255V700H669V257Q669 185 653 134Q637 83 607 51Q577 19 534 4.5Q491 -10 437 -10Z" glyph-name="IJ" horiz-adv-x="766" unicode="&#306;" /><glyph d="M118 0ZM119 0V700H151V0ZM245 889 145 785H118V788L202 893H245Z" glyph-name="Iacute" horiz-adv-x="270" unicode="&#205;" /><glyph d="M15 0ZM119 0V700H151V0ZM228 891H254Q254 832 222 809Q190 786 134 786Q78 786 46.5 809Q15 832 15 891H40Q40 843 64.5 825.5Q89 808 134 808Q179 808 203.5 825.5Q228 843 228 891Z" glyph-name="Ibreve" horiz-adv-x="270" unicode="&#300;" /><glyph d="M5 0ZM119 0V700H151V0ZM136 871 41 785H5V787L123 893H150L268 787V785H230Z" glyph-name="Icircumflex" horiz-adv-x="270" unicode="&#206;" /><glyph d="M37 0ZM119 0V700H151V0ZM172 832Q172 846 180.5 854Q189 862 203 862Q234 862 234 832Q234 802 203 802Q189 802 180.5 810Q172 818 172 832ZM37 832Q37 846 45 854Q53 862 67 862Q98 862 98 832Q98 802 67 802Q53 802 45 810Q37 818 37 832Z" glyph-name="Idieresis" horiz-adv-x="270" unicode="&#207;" /><glyph d="M107 0ZM119 0V700H151V0ZM107 832Q107 862 138 862Q168 862 168 832Q168 802 138 802Q107 802 107 832Z" glyph-name="Idotaccent" horiz-adv-x="270" unicode="&#304;" /><glyph d="M26 0ZM119 0V700H151V0ZM126 785 26 889V893H69L153 788V785Z" glyph-name="Igrave" horiz-adv-x="270" unicode="&#204;" /><glyph d="M22 0ZM119 0V700H151V0ZM249 848V825H22V848Z" glyph-name="Imacron" horiz-adv-x="270" unicode="&#298;" /><glyph d="M105 -198Q87 -198 70 -193.5Q53 -189 40 -179Q27 -169 19.5 -152.5Q12 -136 12 -112Q12 -86 21.5 -64.5Q31 -43 46 -27Q61 -11 80 -1Q99 9 119 13V700H151V0H138Q119 -2 101 -11Q83 -20 68.5 -34.5Q54 -49 45.5 -68Q37 -87 37 -109Q37 -147 57.5 -161Q78 -175 107 -175Q125 -175 140.5 -171Q156 -167 171 -156L179 -177Q145 -198 105 -198Z" glyph-name="Iogonek" horiz-adv-x="270" unicode="&#302;" /><glyph d="M9 0ZM119 0V700H151V0ZM235 878H260Q260 855 254 840.5Q248 826 238 817.5Q228 809 216.5 806Q205 803 195 803Q174 803 159 811.5Q144 820 131 830.5Q118 841 105 849.5Q92 858 75 858Q61 858 48 848Q35 838 34 807H9Q9 830 15 844.5Q21 859 30.5 867.5Q40 876 51 879Q62 882 73 882Q94 882 109 873.5Q124 865 137 854.5Q150 844 163.5 835.5Q177 827 195 827Q212 827 223 838Q234 849 235 878Z" glyph-name="Itilde" horiz-adv-x="270" unicode="&#296;" /><glyph d="M165 -10Q84 -10 29 30L44 56Q68 36 99.5 27Q131 18 166 18Q211 18 248 31Q285 44 311.5 72.5Q338 101 352 146Q366 191 366 255V700H397V257Q397 185 381 134Q365 83 335 51Q305 19 262 4.5Q219 -10 165 -10Z" glyph-name="J" horiz-adv-x="494" unicode="J" /><glyph d="M29 0ZM383 871 288 785H252V787L370 893H397L515 787V785H477ZM165 -10Q84 -10 29 30L44 56Q68 36 99.5 27Q131 18 166 18Q211 18 248 31Q285 44 311.5 72.5Q338 101 352 146Q366 191 366 255V700H397V257Q397 185 381 134Q365 83 335 51Q305 19 262 4.5Q219 -10 165 -10Z" glyph-name="Jcircumflex" horiz-adv-x="494" unicode="&#308;" /><glyph d="M119 0V700H151V257L541 700H580L302 386L603 0H564L281 363L151 216V0Z" glyph-name="K" horiz-adv-x="613" unicode="K" /><glyph d="M556 0 169 343V345L534 700H572L210 347L599 0ZM119 0V700H151V0Z" glyph-name="K.alt" horiz-adv-x="609" /><glyph d="M119 0ZM325 -224 317 -209Q337 -199 348 -176.5Q359 -154 360 -128Q341 -133 330 -124.5Q319 -116 319 -100Q319 -86 327 -78.5Q335 -71 349 -71Q363 -71 372 -81Q381 -91 381 -116Q381 -151 367.5 -182Q354 -213 325 -224ZM119 0V700H151V257L541 700H580L302 386L603 0H564L281 363L151 216V0Z" glyph-name="Kcommaaccent" horiz-adv-x="613" unicode="&#310;" /><glyph d="M119 0ZM325 -224 317 -209Q337 -199 348 -176.5Q359 -154 360 -128Q341 -133 330 -124.5Q319 -116 319 -100Q319 -86 327 -78.5Q335 -71 349 -71Q363 -71 372 -81Q381 -91 381 -116Q381 -151 367.5 -182Q354 -213 325 -224ZM556 0 169 343V345L534 700H572L210 347L599 0ZM119 0V700H151V0Z" glyph-name="Kcommaaccent.alt" horiz-adv-x="609" /><glyph d="M151 27H586V0H119V700H151Z" glyph-name="L" horiz-adv-x="608" unicode="L" /><glyph d="M118 0ZM245 889 145 785H118V788L202 893H245ZM151 27H586V0H119V700H151Z" glyph-name="Lacute" horiz-adv-x="608" unicode="&#313;" /><glyph d="M119 0ZM415 515H393L400 700H435ZM151 27H586V0H119V700H151Z" glyph-name="Lcaron" horiz-adv-x="608" unicode="&#317;" /><glyph d="M119 0ZM329 -224 321 -209Q341 -199 352 -176.5Q363 -154 364 -128Q345 -133 334 -124.5Q323 -116 323 -100Q323 -86 331 -78.5Q339 -71 353 -71Q367 -71 376 -81Q385 -91 385 -116Q385 -151 371.5 -182Q358 -213 329 -224ZM151 27H586V0H119V700H151Z" glyph-name="Lcommaaccent" horiz-adv-x="608" unicode="&#315;" /><glyph d="M119 0ZM151 27H586V0H119V700H151ZM389 353Q389 383 420 383Q450 383 450 353Q450 323 420 323Q389 323 389 353Z" glyph-name="Ldot" horiz-adv-x="608" unicode="&#319;" /><glyph d="M171 27H606V0H139V308L25 225V256L139 339V700H171V360L344 485V454L171 329Z" glyph-name="Lslash" horiz-adv-x="628" unicode="&#321;" /><glyph d="M451 0 149 650 150 0H119V700H157L464 38L772 700H808V0H778L779 650L477 0Z" glyph-name="M" horiz-adv-x="928" unicode="M" /><glyph d="M614 0 149 656 150 0H119V700H154L617 48L616 700H647V0Z" glyph-name="N" horiz-adv-x="766" unicode="N" /><glyph glyph-name="NULL" horiz-adv-x="225" /><glyph d="M119 0ZM493 889 393 785H366V788L450 893H493ZM614 0 149 656 150 0H119V700H154L617 48L616 700H647V0Z" glyph-name="Nacute" horiz-adv-x="766" unicode="&#323;" /><glyph d="M119 0ZM381 807 476 893H513V891L395 785H368L250 891V893H287ZM614 0 149 656 150 0H119V700H154L617 48L616 700H647V0Z" glyph-name="Ncaron" horiz-adv-x="766" unicode="&#327;" /><glyph d="M119 0ZM359 -224 351 -209Q371 -199 382 -176.5Q393 -154 394 -128Q375 -133 364 -124.5Q353 -116 353 -100Q353 -86 361 -78.5Q369 -71 383 -71Q397 -71 406 -81Q415 -91 415 -116Q415 -151 401.5 -182Q388 -213 359 -224ZM614 0 149 656 150 0H119V700H154L617 48L616 700H647V0Z" glyph-name="Ncommaaccent" horiz-adv-x="766" unicode="&#325;" /><glyph d="M119 0ZM614 0 149 656 150 0H119V700H154L617 48L616 700H647V0ZM482 878H507Q507 855 501 840.5Q495 826 485 817.5Q475 809 463.5 806Q452 803 442 803Q421 803 406 811.5Q391 820 378 830.5Q365 841 352 849.5Q339 858 322 858Q308 858 295 848Q282 838 281 807H256Q256 830 262 844.5Q268 859 277.5 867.5Q287 876 298 879Q309 882 320 882Q341 882 356 873.5Q371 865 384 854.5Q397 844 410.5 835.5Q424 827 442 827Q459 827 470 838Q481 849 482 878Z" glyph-name="Ntilde" horiz-adv-x="766" unicode="&#209;" /><glyph d="M379 -10Q307 -10 251.5 9.5Q196 29 158 72Q120 115 100.5 183.5Q81 252 81 350Q81 448 101 516.5Q121 585 159 628Q197 671 252.5 690.5Q308 710 379 710Q451 710 507 690.5Q563 671 601 628Q639 585 658.5 516.5Q678 448 678 350Q678 252 658 183.5Q638 115 600 72Q562 29 506.5 9.5Q451 -10 379 -10ZM379 683Q317 683 267.5 666.5Q218 650 183.5 611Q149 572 131 508Q113 444 113 350Q113 257 131 193Q149 129 183.5 90Q218 51 267.5 34Q317 17 379 17Q442 17 491.5 34Q541 51 575.5 90Q610 129 628 193Q646 257 646 351Q646 444 628 507.5Q610 571 575.5 610Q541 649 491.5 666Q442 683 379 683Z" glyph-name="O" horiz-adv-x="759" unicode="O" /><glyph d="M1066 0H368Q299 0 245.5 20Q192 40 155.5 83.5Q119 127 99.5 195Q80 263 80 358Q80 451 99.5 516.5Q119 582 155.5 622.5Q192 663 246 681.5Q300 700 369 700H1055V673H612V366H1001V338H612V27H1066ZM370 27H581V673H369Q310 673 262.5 657Q215 641 181.5 604Q148 567 130 506.5Q112 446 112 358Q112 266 130.5 203Q149 140 182.5 101Q216 62 263.5 44.5Q311 27 370 27Z" glyph-name="OE" horiz-adv-x="1103" unicode="&#338;" /><glyph d="M81 0ZM489 889 389 785H362V788L446 893H489ZM379 -10Q307 -10 251.5 9.5Q196 29 158 72Q120 115 100.5 183.5Q81 252 81 350Q81 448 101 516.5Q121 585 159 628Q197 671 252.5 690.5Q308 710 379 710Q451 710 507 690.5Q563 671 601 628Q639 585 658.5 516.5Q678 448 678 350Q678 252 658 183.5Q638 115 600 72Q562 29 506.5 9.5Q451 -10 379 -10ZM379 683Q317 683 267.5 666.5Q218 650 183.5 611Q149 572 131 508Q113 444 113 350Q113 257 131 193Q149 129 183.5 90Q218 51 267.5 34Q317 17 379 17Q442 17 491.5 34Q541 51 575.5 90Q610 129 628 193Q646 257 646 351Q646 444 628 507.5Q610 571 575.5 610Q541 649 491.5 666Q442 683 379 683Z" glyph-name="Oacute" horiz-adv-x="759" unicode="&#211;" /><glyph d="M81 0ZM379 -10Q307 -10 251.5 9.5Q196 29 158 72Q120 115 100.5 183.5Q81 252 81 350Q81 448 101 516.5Q121 585 159 628Q197 671 252.5 690.5Q308 710 379 710Q451 710 507 690.5Q563 671 601 628Q639 585 658.5 516.5Q678 448 678 350Q678 252 658 183.5Q638 115 600 72Q562 29 506.5 9.5Q451 -10 379 -10ZM379 683Q317 683 267.5 666.5Q218 650 183.5 611Q149 572 131 508Q113 444 113 350Q113 257 131 193Q149 129 183.5 90Q218 51 267.5 34Q317 17 379 17Q442 17 491.5 34Q541 51 575.5 90Q610 129 628 193Q646 257 646 351Q646 444 628 507.5Q610 571 575.5 610Q541 649 491.5 666Q442 683 379 683ZM472 891H498Q498 832 466 809Q434 786 378 786Q322 786 290.5 809Q259 832 259 891H284Q284 843 308.5 825.5Q333 808 378 808Q423 808 447.5 825.5Q472 843 472 891Z" glyph-name="Obreve" horiz-adv-x="759" unicode="&#334;" /><glyph d="M81 0ZM380 871 285 785H249V787L367 893H394L512 787V785H474ZM379 -10Q307 -10 251.5 9.5Q196 29 158 72Q120 115 100.5 183.5Q81 252 81 350Q81 448 101 516.5Q121 585 159 628Q197 671 252.5 690.5Q308 710 379 710Q451 710 507 690.5Q563 671 601 628Q639 585 658.5 516.5Q678 448 678 350Q678 252 658 183.5Q638 115 600 72Q562 29 506.5 9.5Q451 -10 379 -10ZM379 683Q317 683 267.5 666.5Q218 650 183.5 611Q149 572 131 508Q113 444 113 350Q113 257 131 193Q149 129 183.5 90Q218 51 267.5 34Q317 17 379 17Q442 17 491.5 34Q541 51 575.5 90Q610 129 628 193Q646 257 646 351Q646 444 628 507.5Q610 571 575.5 610Q541 649 491.5 666Q442 683 379 683Z" glyph-name="Ocircumflex" horiz-adv-x="759" unicode="&#212;" /><glyph d="M81 0ZM416 832Q416 846 424.5 854Q433 862 447 862Q478 862 478 832Q478 802 447 802Q433 802 424.5 810Q416 818 416 832ZM281 832Q281 846 289 854Q297 862 311 862Q342 862 342 832Q342 802 311 802Q297 802 289 810Q281 818 281 832ZM379 -10Q307 -10 251.5 9.5Q196 29 158 72Q120 115 100.5 183.5Q81 252 81 350Q81 448 101 516.5Q121 585 159 628Q197 671 252.5 690.5Q308 710 379 710Q451 710 507 690.5Q563 671 601 628Q639 585 658.5 516.5Q678 448 678 350Q678 252 658 183.5Q638 115 600 72Q562 29 506.5 9.5Q451 -10 379 -10ZM379 683Q317 683 267.5 666.5Q218 650 183.5 611Q149 572 131 508Q113 444 113 350Q113 257 131 193Q149 129 183.5 90Q218 51 267.5 34Q317 17 379 17Q442 17 491.5 34Q541 51 575.5 90Q610 129 628 193Q646 257 646 351Q646 444 628 507.5Q610 571 575.5 610Q541 649 491.5 666Q442 683 379 683Z" glyph-name="Odieresis" horiz-adv-x="759" unicode="&#214;" /><glyph d="M81 0ZM379 -10Q307 -10 251.5 9.5Q196 29 158 72Q120 115 100.5 183.5Q81 252 81 350Q81 448 101 516.5Q121 585 159 628Q197 671 252.5 690.5Q308 710 379 710Q451 710 507 690.5Q563 671 601 628Q639 585 658.5 516.5Q678 448 678 350Q678 252 658 183.5Q638 115 600 72Q562 29 506.5 9.5Q451 -10 379 -10ZM379 683Q317 683 267.5 666.5Q218 650 183.5 611Q149 572 131 508Q113 444 113 350Q113 257 131 193Q149 129 183.5 90Q218 51 267.5 34Q317 17 379 17Q442 17 491.5 34Q541 51 575.5 90Q610 129 628 193Q646 257 646 351Q646 444 628 507.5Q610 571 575.5 610Q541 649 491.5 666Q442 683 379 683ZM370 786 270 890V894H313L397 789V786Z" glyph-name="Ograve" horiz-adv-x="759" unicode="&#210;" /><glyph d="M81 0ZM535 889 433 785H408V788L491 893H535ZM427 889 333 785H307V788L386 893H427ZM379 -10Q307 -10 251.5 9.5Q196 29 158 72Q120 115 100.5 183.5Q81 252 81 350Q81 448 101 516.5Q121 585 159 628Q197 671 252.5 690.5Q308 710 379 710Q451 710 507 690.5Q563 671 601 628Q639 585 658.5 516.5Q678 448 678 350Q678 252 658 183.5Q638 115 600 72Q562 29 506.5 9.5Q451 -10 379 -10ZM379 683Q317 683 267.5 666.5Q218 650 183.5 611Q149 572 131 508Q113 444 113 350Q113 257 131 193Q149 129 183.5 90Q218 51 267.5 34Q317 17 379 17Q442 17 491.5 34Q541 51 575.5 90Q610 129 628 193Q646 257 646 351Q646 444 628 507.5Q610 571 575.5 610Q541 649 491.5 666Q442 683 379 683Z" glyph-name="Ohungarumlaut" horiz-adv-x="759" unicode="&#336;" /><glyph d="M81 0ZM493 848V825H266V848ZM379 -10Q307 -10 251.5 9.5Q196 29 158 72Q120 115 100.5 183.5Q81 252 81 350Q81 448 101 516.5Q121 585 159 628Q197 671 252.5 690.5Q308 710 379 710Q451 710 507 690.5Q563 671 601 628Q639 585 658.5 516.5Q678 448 678 350Q678 252 658 183.5Q638 115 600 72Q562 29 506.5 9.5Q451 -10 379 -10ZM379 683Q317 683 267.5 666.5Q218 650 183.5 611Q149 572 131 508Q113 444 113 350Q113 257 131 193Q149 129 183.5 90Q218 51 267.5 34Q317 17 379 17Q442 17 491.5 34Q541 51 575.5 90Q610 129 628 193Q646 257 646 351Q646 444 628 507.5Q610 571 575.5 610Q541 649 491.5 666Q442 683 379 683Z" glyph-name="Omacron" horiz-adv-x="759" unicode="&#332;" /><glyph d="M91 0H55L140 97Q111 140 96.5 202Q82 264 82 350Q82 448 102 516.5Q122 585 160 628Q198 671 253.5 690.5Q309 710 381 710Q454 710 510.5 689.5Q567 669 605 623L672 700H707L621 602Q650 559 664.5 497Q679 435 679 350Q679 252 659 183.5Q639 115 601 72Q563 29 507.5 9.5Q452 -10 381 -10Q308 -10 252 10.5Q196 31 158 76ZM584 600Q549 645 498 664Q447 683 381 683Q318 683 268.5 666.5Q219 650 184.5 611Q150 572 132 508Q114 444 114 350Q114 273 126.5 217Q139 161 163 122ZM178 99Q212 55 263 36Q314 17 381 17Q443 17 492.5 34Q542 51 576.5 90Q611 129 629 193Q647 257 647 351Q647 427 634.5 482.5Q622 538 598 576Z" glyph-name="Oslash" horiz-adv-x="761" unicode="&#216;" /><glyph d="M81 0ZM379 -10Q307 -10 251.5 9.5Q196 29 158 72Q120 115 100.5 183.5Q81 252 81 350Q81 448 101 516.5Q121 585 159 628Q197 671 252.5 690.5Q308 710 379 710Q451 710 507 690.5Q563 671 601 628Q639 585 658.5 516.5Q678 448 678 350Q678 252 658 183.5Q638 115 600 72Q562 29 506.5 9.5Q451 -10 379 -10ZM379 683Q317 683 267.5 666.5Q218 650 183.5 611Q149 572 131 508Q113 444 113 350Q113 257 131 193Q149 129 183.5 90Q218 51 267.5 34Q317 17 379 17Q442 17 491.5 34Q541 51 575.5 90Q610 129 628 193Q646 257 646 351Q646 444 628 507.5Q610 571 575.5 610Q541 649 491.5 666Q442 683 379 683ZM479 878H504Q504 855 498 840.5Q492 826 482 817.5Q472 809 460.5 806Q449 803 439 803Q418 803 403 811.5Q388 820 375 830.5Q362 841 349 849.5Q336 858 319 858Q305 858 292 848Q279 838 278 807H253Q253 830 259 844.5Q265 859 274.5 867.5Q284 876 295 879Q306 882 317 882Q338 882 353 873.5Q368 865 381 854.5Q394 844 407.5 835.5Q421 827 439 827Q456 827 467 838Q478 849 479 878Z" glyph-name="Otilde" horiz-adv-x="759" unicode="&#213;" /><glyph d="M119 0V700H372Q494 700 548 646.5Q602 593 602 487Q602 440 589.5 400Q577 360 550 330.5Q523 301 480.5 284.5Q438 268 378 268H151V0ZM374 673H151V296H382Q470 296 520 344Q570 392 570 486Q570 585 522 629Q474 673 374 673Z" glyph-name="P" horiz-adv-x="664" unicode="P" /><glyph d="M533 21 630 -92H593L506 9Q478 0 446 -5Q414 -10 379 -10Q307 -10 251.5 9.5Q196 29 158 72Q120 115 100.5 183.5Q81 252 81 350Q81 448 101 516.5Q121 585 159 628Q197 671 252.5 690.5Q308 710 379 710Q451 710 507 690.5Q563 671 601 628Q639 585 658.5 516.5Q678 448 678 350Q678 215 640.5 135.5Q603 56 533 21ZM379 683Q317 683 267.5 666.5Q218 650 183.5 611Q149 572 131 508Q113 444 113 350Q113 257 131 193Q149 129 183.5 90Q218 51 267.5 34Q317 17 379 17Q438 17 486 32L384 151H422L514 43Q577 74 611.5 147.5Q646 221 646 351Q646 444 628 507.5Q610 571 575.5 610Q541 649 491.5 666Q442 683 379 683Z" glyph-name="Q" horiz-adv-x="758" unicode="Q" /><glyph d="M373 673H151V316H381Q469 316 518.5 361Q568 406 568 496Q568 590 520.5 631.5Q473 673 373 673ZM119 0V700H372Q494 700 547 650Q600 600 600 497Q600 459 591 426Q582 393 563.5 366.5Q545 340 515.5 321.5Q486 303 444 295L607 0H573L412 290Q405 289 398 288.5Q391 288 383 288H151V0Z" glyph-name="R" horiz-adv-x="654" unicode="R" /><glyph d="M119 0ZM471 889 371 785H344V788L428 893H471ZM373 673H151V316H381Q469 316 518.5 361Q568 406 568 496Q568 590 520.5 631.5Q473 673 373 673ZM119 0V700H372Q494 700 547 650Q600 600 600 497Q600 459 591 426Q582 393 563.5 366.5Q545 340 515.5 321.5Q486 303 444 295L607 0H573L412 290Q405 289 398 288.5Q391 288 383 288H151V0Z" glyph-name="Racute" horiz-adv-x="654" unicode="&#340;" /><glyph d="M119 0ZM360 807 455 893H492V891L374 785H347L229 891V893H266ZM373 673H151V316H381Q469 316 518.5 361Q568 406 568 496Q568 590 520.5 631.5Q473 673 373 673ZM119 0V700H372Q494 700 547 650Q600 600 600 497Q600 459 591 426Q582 393 563.5 366.5Q545 340 515.5 321.5Q486 303 444 295L607 0H573L412 290Q405 289 398 288.5Q391 288 383 288H151V0Z" glyph-name="Rcaron" horiz-adv-x="654" unicode="&#344;" /><glyph d="M119 0ZM317 -224 309 -209Q329 -199 340 -176.5Q351 -154 352 -128Q333 -133 322 -124.5Q311 -116 311 -100Q311 -86 319 -78.5Q327 -71 341 -71Q355 -71 364 -81Q373 -91 373 -116Q373 -151 359.5 -182Q346 -213 317 -224ZM373 673H151V316H381Q469 316 518.5 361Q568 406 568 496Q568 590 520.5 631.5Q473 673 373 673ZM119 0V700H372Q494 700 547 650Q600 600 600 497Q600 459 591 426Q582 393 563.5 366.5Q545 340 515.5 321.5Q486 303 444 295L607 0H573L412 290Q405 289 398 288.5Q391 288 383 288H151V0Z" glyph-name="Rcommaaccent" horiz-adv-x="654" unicode="&#342;" /><glyph d="M526 587 500 571Q467 628 419.5 656Q372 684 291 684Q195 684 145.5 643Q96 602 96 533Q96 477 136.5 437.5Q177 398 272 378L333 365Q391 353 431.5 335Q472 317 497 293Q522 269 533 239Q544 209 544 172Q544 135 530 102Q516 69 486.5 44Q457 19 410.5 4.5Q364 -10 298 -10Q207 -10 144.5 20Q82 50 40 119L66 136Q86 104 108.5 81.5Q131 59 158.5 44.5Q186 30 220.5 23.5Q255 17 298 17Q401 17 457 56Q513 95 513 173Q513 200 505.5 224Q498 248 477.5 268.5Q457 289 421.5 305.5Q386 322 330 334L260 349Q169 369 117 412.5Q65 456 65 533Q65 569 78 601.5Q91 634 119 658Q147 682 190 696Q233 710 292 710Q382 710 436.5 678.5Q491 647 526 587Z" glyph-name="S" horiz-adv-x="606" unicode="S" /><glyph d="M40 0ZM399 889 299 785H272V788L356 893H399ZM526 587 500 571Q467 628 419.5 656Q372 684 291 684Q195 684 145.5 643Q96 602 96 533Q96 477 136.5 437.5Q177 398 272 378L333 365Q391 353 431.5 335Q472 317 497 293Q522 269 533 239Q544 209 544 172Q544 135 530 102Q516 69 486.5 44Q457 19 410.5 4.5Q364 -10 298 -10Q207 -10 144.5 20Q82 50 40 119L66 136Q86 104 108.5 81.5Q131 59 158.5 44.5Q186 30 220.5 23.5Q255 17 298 17Q401 17 457 56Q513 95 513 173Q513 200 505.5 224Q498 248 477.5 268.5Q457 289 421.5 305.5Q386 322 330 334L260 349Q169 369 117 412.5Q65 456 65 533Q65 569 78 601.5Q91 634 119 658Q147 682 190 696Q233 710 292 710Q382 710 436.5 678.5Q491 647 526 587Z" glyph-name="Sacute" horiz-adv-x="606" unicode="&#346;" /><glyph d="M40 0ZM287 807 382 893H419V891L301 785H274L156 891V893H193ZM526 587 500 571Q467 628 419.5 656Q372 684 291 684Q195 684 145.5 643Q96 602 96 533Q96 477 136.5 437.5Q177 398 272 378L333 365Q391 353 431.5 335Q472 317 497 293Q522 269 533 239Q544 209 544 172Q544 135 530 102Q516 69 486.5 44Q457 19 410.5 4.5Q364 -10 298 -10Q207 -10 144.5 20Q82 50 40 119L66 136Q86 104 108.5 81.5Q131 59 158.5 44.5Q186 30 220.5 23.5Q255 17 298 17Q401 17 457 56Q513 95 513 173Q513 200 505.5 224Q498 248 477.5 268.5Q457 289 421.5 305.5Q386 322 330 334L260 349Q169 369 117 412.5Q65 456 65 533Q65 569 78 601.5Q91 634 119 658Q147 682 190 696Q233 710 292 710Q382 710 436.5 678.5Q491 647 526 587Z" glyph-name="Scaron" horiz-adv-x="606" unicode="&#352;" /><glyph d="M280 -221Q247 -221 224 -210Q201 -199 184 -173L201 -158Q216 -181 233 -190.5Q250 -200 279 -200Q354 -200 354 -146Q354 -119 336 -109Q318 -99 295 -99Q289 -99 283 -99.5Q277 -100 269 -102L258 -94L276 -10Q194 -6 136.5 24.5Q79 55 40 119L66 136Q86 104 108.5 81.5Q131 59 158.5 44.5Q186 30 220.5 23.5Q255 17 298 17Q401 17 457 56Q513 95 513 173Q513 200 505.5 224Q498 248 477.5 268.5Q457 289 421.5 305.5Q386 322 330 334L260 349Q169 369 117 412.5Q65 456 65 533Q65 569 78 601.5Q91 634 119 658Q147 682 190 696Q233 710 292 710Q382 710 436.5 678.5Q491 647 526 587L500 571Q467 628 419.5 656Q372 684 291 684Q195 684 145.5 643Q96 602 96 533Q96 477 136.5 437.5Q177 398 272 378L333 365Q391 353 431.5 335Q472 317 497 293Q522 269 533 239Q544 209 544 172Q544 135 530 102Q516 69 486.5 44Q457 19 411 4.5Q365 -10 300 -10L285 -82Q287 -81 292 -81H303Q317 -81 330.5 -84.5Q344 -88 355 -95.5Q366 -103 372.5 -115.5Q379 -128 379 -146Q379 -183 352.5 -202Q326 -221 280 -221Z" glyph-name="Scedilla" horiz-adv-x="606" unicode="&#350;" /><glyph d="M40 0ZM290 871 195 785H159V787L277 893H304L422 787V785H384ZM526 587 500 571Q467 628 419.5 656Q372 684 291 684Q195 684 145.5 643Q96 602 96 533Q96 477 136.5 437.5Q177 398 272 378L333 365Q391 353 431.5 335Q472 317 497 293Q522 269 533 239Q544 209 544 172Q544 135 530 102Q516 69 486.5 44Q457 19 410.5 4.5Q364 -10 298 -10Q207 -10 144.5 20Q82 50 40 119L66 136Q86 104 108.5 81.5Q131 59 158.5 44.5Q186 30 220.5 23.5Q255 17 298 17Q401 17 457 56Q513 95 513 173Q513 200 505.5 224Q498 248 477.5 268.5Q457 289 421.5 305.5Q386 322 330 334L260 349Q169 369 117 412.5Q65 456 65 533Q65 569 78 601.5Q91 634 119 658Q147 682 190 696Q233 710 292 710Q382 710 436.5 678.5Q491 647 526 587Z" glyph-name="Scircumflex" horiz-adv-x="606" unicode="&#348;" /><glyph d="M40 0ZM275 -224 267 -209Q287 -199 298 -176.5Q309 -154 310 -128Q291 -133 280 -124.5Q269 -116 269 -100Q269 -86 277 -78.5Q285 -71 299 -71Q313 -71 322 -81Q331 -91 331 -116Q331 -151 317.5 -182Q304 -213 275 -224ZM526 587 500 571Q467 628 419.5 656Q372 684 291 684Q195 684 145.5 643Q96 602 96 533Q96 477 136.5 437.5Q177 398 272 378L333 365Q391 353 431.5 335Q472 317 497 293Q522 269 533 239Q544 209 544 172Q544 135 530 102Q516 69 486.5 44Q457 19 410.5 4.5Q364 -10 298 -10Q207 -10 144.5 20Q82 50 40 119L66 136Q86 104 108.5 81.5Q131 59 158.5 44.5Q186 30 220.5 23.5Q255 17 298 17Q401 17 457 56Q513 95 513 173Q513 200 505.5 224Q498 248 477.5 268.5Q457 289 421.5 305.5Q386 322 330 334L260 349Q169 369 117 412.5Q65 456 65 533Q65 569 78 601.5Q91 634 119 658Q147 682 190 696Q233 710 292 710Q382 710 436.5 678.5Q491 647 526 587Z" glyph-name="Scommaaccent" horiz-adv-x="606" unicode="&#536;" /><glyph d="M14 700H546V673H296V0H264V673H14Z" glyph-name="T" horiz-adv-x="560" unicode="T" /><glyph d="M14 700H546V673H296V363H500V340H296V0H264V340H60V363H264V673H14Z" glyph-name="Tbar" horiz-adv-x="560" unicode="&#358;" /><glyph d="M14 0ZM278 807 373 893H410V891L292 785H265L147 891V893H184ZM14 700H546V673H296V0H264V673H14Z" glyph-name="Tcaron" horiz-adv-x="560" unicode="&#356;" /><glyph d="M247 -94 267 0H264V673H14V700H546V673H296V0H291L274 -82Q276 -81 281.5 -81Q287 -81 292 -81Q306 -81 319.5 -84.5Q333 -88 344 -95.5Q355 -103 361.5 -115.5Q368 -128 368 -146Q368 -183 341.5 -202Q315 -221 269 -221Q236 -221 213 -210Q190 -199 173 -173L190 -158Q205 -181 222 -190.5Q239 -200 268 -200Q343 -200 343 -146Q343 -119 325 -109Q307 -99 284 -99Q278 -99 272 -99.5Q266 -100 258 -102Z" glyph-name="Tcedilla" horiz-adv-x="560" unicode="&#354;" /><glyph d="M119 0V700H151V552H364Q480 552 531 504.5Q582 457 582 361Q582 319 570 283Q558 247 532.5 221Q507 195 466.5 180Q426 165 370 165H151V0ZM365 524H151V192H373Q456 192 503 234.5Q550 277 550 360Q550 447 505.5 485.5Q461 524 365 524Z" glyph-name="Thorn" horiz-adv-x="644" unicode="&#222;" /><glyph d="M605 260V700H637V260Q637 190 618.5 139Q600 88 565 55Q530 22 480 6Q430 -10 367 -10Q240 -10 168.5 55Q97 120 97 260V700H129V260Q129 194 146 148Q163 102 194 73Q225 44 269 30.5Q313 17 367 17Q421 17 465 30.5Q509 44 540 73Q571 102 588 148Q605 194 605 260Z" glyph-name="U" horiz-adv-x="734" unicode="U" /><glyph d="M97 0ZM478 888 378 784H351V787L435 892H478ZM605 260V700H637V260Q637 190 618.5 139Q600 88 565 55Q530 22 480 6Q430 -10 367 -10Q240 -10 168.5 55Q97 120 97 260V700H129V260Q129 194 146 148Q163 102 194 73Q225 44 269 30.5Q313 17 367 17Q421 17 465 30.5Q509 44 540 73Q571 102 588 148Q605 194 605 260Z" glyph-name="Uacute" horiz-adv-x="734" unicode="&#218;" /><glyph d="M97 0ZM605 260V700H637V260Q637 190 618.5 139Q600 88 565 55Q530 22 480 6Q430 -10 367 -10Q240 -10 168.5 55Q97 120 97 260V700H129V260Q129 194 146 148Q163 102 194 73Q225 44 269 30.5Q313 17 367 17Q421 17 465 30.5Q509 44 540 73Q571 102 588 148Q605 194 605 260ZM461 890H487Q487 831 455 808Q423 785 367 785Q311 785 279.5 808Q248 831 248 890H273Q273 842 297.5 824.5Q322 807 367 807Q412 807 436.5 824.5Q461 842 461 890Z" glyph-name="Ubreve" horiz-adv-x="734" unicode="&#364;" /><glyph d="M97 0ZM368 870 273 784H237V786L355 892H382L500 786V784H462ZM605 260V700H637V260Q637 190 618.5 139Q600 88 565 55Q530 22 480 6Q430 -10 367 -10Q240 -10 168.5 55Q97 120 97 260V700H129V260Q129 194 146 148Q163 102 194 73Q225 44 269 30.5Q313 17 367 17Q421 17 465 30.5Q509 44 540 73Q571 102 588 148Q605 194 605 260Z" glyph-name="Ucircumflex" horiz-adv-x="734" unicode="&#219;" /><glyph d="M97 0ZM404 831Q404 845 412.5 853Q421 861 435 861Q466 861 466 831Q466 801 435 801Q421 801 412.5 809Q404 817 404 831ZM269 831Q269 845 277 853Q285 861 299 861Q330 861 330 831Q330 801 299 801Q285 801 277 809Q269 817 269 831ZM605 260V700H637V260Q637 190 618.5 139Q600 88 565 55Q530 22 480 6Q430 -10 367 -10Q240 -10 168.5 55Q97 120 97 260V700H129V260Q129 194 146 148Q163 102 194 73Q225 44 269 30.5Q313 17 367 17Q421 17 465 30.5Q509 44 540 73Q571 102 588 148Q605 194 605 260Z" glyph-name="Udieresis" horiz-adv-x="734" unicode="&#220;" /><glyph d="M97 0ZM605 260V700H637V260Q637 190 618.5 139Q600 88 565 55Q530 22 480 6Q430 -10 367 -10Q240 -10 168.5 55Q97 120 97 260V700H129V260Q129 194 146 148Q163 102 194 73Q225 44 269 30.5Q313 17 367 17Q421 17 465 30.5Q509 44 540 73Q571 102 588 148Q605 194 605 260ZM358 785 258 889V893H301L385 788V785Z" glyph-name="Ugrave" horiz-adv-x="734" unicode="&#217;" /><glyph d="M97 0ZM605 260V700H637V260Q637 190 618.5 139Q600 88 565 55Q530 22 480 6Q430 -10 367 -10Q240 -10 168.5 55Q97 120 97 260V700H129V260Q129 194 146 148Q163 102 194 73Q225 44 269 30.5Q313 17 367 17Q421 17 465 30.5Q509 44 540 73Q571 102 588 148Q605 194 605 260ZM523 888 421 784H396V787L479 892H523ZM415 888 321 784H295V787L374 892H415Z" glyph-name="Uhungarumlaut" horiz-adv-x="734" unicode="&#368;" /><glyph d="M97 0ZM605 260V700H637V260Q637 190 618.5 139Q600 88 565 55Q530 22 480 6Q430 -10 367 -10Q240 -10 168.5 55Q97 120 97 260V700H129V260Q129 194 146 148Q163 102 194 73Q225 44 269 30.5Q313 17 367 17Q421 17 465 30.5Q509 44 540 73Q571 102 588 148Q605 194 605 260ZM481 847V824H254V847Z" glyph-name="Umacron" horiz-adv-x="734" unicode="&#362;" /><glyph d="M364 -101Q364 -67 377 -44Q390 -21 411 -6Q400 -8 387.5 -9Q375 -10 364 -10Q302 -9 252.5 7Q203 23 168.5 56Q134 89 115.5 139.5Q97 190 97 260V700H129V260Q129 194 146 148Q163 102 194 73Q225 44 269 30.5Q313 17 367 17Q421 17 465 30.5Q509 44 540 73Q571 102 588 148Q605 194 605 260V700H637V260Q637 151 592.5 88.5Q548 26 469 3Q437 -6 413 -31Q389 -56 389 -98Q389 -141 409.5 -158Q430 -175 459 -175Q477 -175 492.5 -171Q508 -167 524 -156L531 -177Q497 -198 457 -198Q439 -198 422 -193Q405 -188 392 -176.5Q379 -165 371.5 -146.5Q364 -128 364 -101Z" glyph-name="Uogonek" horiz-adv-x="734" unicode="&#370;" /><glyph d="M97 0ZM284 850Q284 888 308.5 912Q333 936 370 936Q405 936 429 912Q453 888 453 850Q453 812 429 788Q405 764 368 764Q333 764 308.5 788Q284 812 284 850ZM304 850Q304 821 323 801.5Q342 782 368 782Q396 782 414.5 801.5Q433 821 433 850Q433 879 414.5 898.5Q396 918 370 918Q342 918 323 898.5Q304 879 304 850ZM605 260V700H637V260Q637 190 618.5 139Q600 88 565 55Q530 22 480 6Q430 -10 367 -10Q240 -10 168.5 55Q97 120 97 260V700H129V260Q129 194 146 148Q163 102 194 73Q225 44 269 30.5Q313 17 367 17Q421 17 465 30.5Q509 44 540 73Q571 102 588 148Q605 194 605 260Z" glyph-name="Uring" horiz-adv-x="734" unicode="&#366;" /><glyph d="M97 0ZM605 260V700H637V260Q637 190 618.5 139Q600 88 565 55Q530 22 480 6Q430 -10 367 -10Q240 -10 168.5 55Q97 120 97 260V700H129V260Q129 194 146 148Q163 102 194 73Q225 44 269 30.5Q313 17 367 17Q421 17 465 30.5Q509 44 540 73Q571 102 588 148Q605 194 605 260ZM467 877H492Q492 854 486 839.5Q480 825 470 816.5Q460 808 448.5 805Q437 802 427 802Q406 802 391 810.5Q376 819 363 829.5Q350 840 337 848.5Q324 857 307 857Q293 857 280 847Q267 837 266 806H241Q241 829 247 843.5Q253 858 262.5 866.5Q272 875 283 878Q294 881 305 881Q326 881 341 872.5Q356 864 369 853.5Q382 843 395.5 834.5Q409 826 427 826Q444 826 455 837Q466 848 467 877Z" glyph-name="Utilde" horiz-adv-x="734" unicode="&#360;" /><glyph d="M13 700H46L294 32L543 700H576L314 0H275Z" glyph-name="V" horiz-adv-x="588" unicode="V" /><glyph d="M433 692H465L650 44L854 700H885L666 0H633L448 645L265 0H231L16 700H49L248 43Z" glyph-name="W" horiz-adv-x="902" unicode="W" /><glyph d="M16 0ZM559 889 459 785H432V788L516 893H559ZM433 692H465L650 44L854 700H885L666 0H633L448 645L265 0H231L16 700H49L248 43Z" glyph-name="Wacute" horiz-adv-x="902" unicode="&#7810;" /><glyph d="M16 0ZM450 871 355 785H319V787L437 893H464L582 787V785H544ZM433 692H465L650 44L854 700H885L666 0H633L448 645L265 0H231L16 700H49L248 43Z" glyph-name="Wcircumflex" horiz-adv-x="902" unicode="&#372;" /><glyph d="M16 0ZM487 832Q487 846 495.5 854Q504 862 518 862Q549 862 549 832Q549 802 518 802Q504 802 495.5 810Q487 818 487 832ZM352 832Q352 846 360 854Q368 862 382 862Q413 862 413 832Q413 802 382 802Q368 802 360 810Q352 818 352 832ZM433 692H465L650 44L854 700H885L666 0H633L448 645L265 0H231L16 700H49L248 43Z" glyph-name="Wdieresis" horiz-adv-x="902" unicode="&#7812;" /><glyph d="M16 0ZM433 692H465L650 44L854 700H885L666 0H633L448 645L265 0H231L16 700H49L248 43ZM440 785 340 889V893H383L467 788V785Z" glyph-name="Wgrave" horiz-adv-x="902" unicode="&#7808;" /><glyph d="M557 0 309 340 63 0H25L291 365L49 700H85L311 389L536 700H572L329 365L596 0Z" glyph-name="X" horiz-adv-x="621" unicode="X" /><glyph d="M279 286 21 700H56L295 315L535 700H569L311 286V0H279Z" glyph-name="Y" horiz-adv-x="590" unicode="Y" /><glyph d="M21 0ZM279 286 21 700H56L295 315L535 700H569L311 286V0H279ZM405 889 305 785H278V788L362 893H405Z" glyph-name="Yacute" horiz-adv-x="590" unicode="&#221;" /><glyph d="M21 0ZM279 286 21 700H56L295 315L535 700H569L311 286V0H279ZM296 871 201 785H165V787L283 893H310L428 787V785H390Z" glyph-name="Ycircumflex" horiz-adv-x="590" unicode="&#374;" /><glyph d="M21 0ZM279 286 21 700H56L295 315L535 700H569L311 286V0H279ZM332 832Q332 846 340.5 854Q349 862 363 862Q394 862 394 832Q394 802 363 802Q349 802 340.5 810Q332 818 332 832ZM197 832Q197 846 205 854Q213 862 227 862Q258 862 258 832Q258 802 227 802Q213 802 205 810Q197 818 197 832Z" glyph-name="Ydieresis" horiz-adv-x="590" unicode="&#376;" /><glyph d="M31 0V25L499 673H52V700H537V675L68 27H548V0Z" glyph-name="Z" horiz-adv-x="571" unicode="Z" /><glyph d="M31 0ZM400 889 300 785H273V788L357 893H400ZM31 0V25L499 673H52V700H537V675L68 27H548V0Z" glyph-name="Zacute" horiz-adv-x="571" unicode="&#377;" /><glyph d="M31 0ZM288 807 383 893H420V891L302 785H275L157 891V893H194ZM31 0V25L499 673H52V700H537V675L68 27H548V0Z" glyph-name="Zcaron" horiz-adv-x="571" unicode="&#381;" /><glyph d="M31 0ZM31 0V25L499 673H52V700H537V675L68 27H548V0ZM262 832Q262 862 293 862Q323 862 323 832Q323 802 293 802Q262 802 262 832Z" glyph-name="Zdotaccent" horiz-adv-x="571" unicode="&#379;" /><glyph d="M237 16Q325 16 372.5 69.5Q420 123 428 217V257H274Q187 257 141 227.5Q95 198 95 133Q95 76 131.5 46Q168 16 237 16ZM229 -10Q154 -10 109 26.5Q64 63 64 132Q64 208 118 245Q172 282 271 282H428V294Q428 342 418.5 374.5Q409 407 389.5 426.5Q370 446 340 454Q310 462 270 462Q207 462 169 443.5Q131 425 108 392L89 411Q116 451 162.5 469.5Q209 488 272 488Q366 488 412 445.5Q458 403 458 300V0H428V117Q405 56 353.5 23Q302 -10 229 -10Z" glyph-name="a" horiz-adv-x="555" unicode="a" /><glyph d="M465 245Q465 300 451 341Q437 382 412.5 409Q388 436 355 449Q322 462 283 462Q190 462 144.5 403.5Q99 345 99 239Q99 130 144.5 73Q190 16 281 16Q321 16 354.5 30Q388 44 412.5 72Q437 100 451 143Q465 186 465 245ZM467 0 464 121Q441 53 390.5 21.5Q340 -10 274 -10Q174 -10 121 54Q68 118 68 239Q68 359 122.5 423.5Q177 488 280 488Q343 488 393 457Q443 426 466 362L469 478H495V0Z" glyph-name="a.school" horiz-adv-x="599" /><glyph d="M64 0ZM237 16Q325 16 372.5 69.5Q420 123 428 217V257H274Q187 257 141 227.5Q95 198 95 133Q95 76 131.5 46Q168 16 237 16ZM229 -10Q154 -10 109 26.5Q64 63 64 132Q64 208 118 245Q172 282 271 282H428V294Q428 342 418.5 374.5Q409 407 389.5 426.5Q370 446 340 454Q310 462 270 462Q207 462 169 443.5Q131 425 108 392L89 411Q116 451 162.5 469.5Q209 488 272 488Q366 488 412 445.5Q458 403 458 300V0H428V117Q405 56 353.5 23Q302 -10 229 -10ZM380 667 280 563H253V566L337 671H380Z" glyph-name="aacute" horiz-adv-x="555" unicode="&#225;" /><glyph d="M68 0ZM465 245Q465 300 451 341Q437 382 412.5 409Q388 436 355 449Q322 462 283 462Q190 462 144.5 403.5Q99 345 99 239Q99 130 144.5 73Q190 16 281 16Q321 16 354.5 30Q388 44 412.5 72Q437 100 451 143Q465 186 465 245ZM467 0 464 121Q441 53 390.5 21.5Q340 -10 274 -10Q174 -10 121 54Q68 118 68 239Q68 359 122.5 423.5Q177 488 280 488Q343 488 393 457Q443 426 466 362L469 478H495V0ZM378 667 278 563H251V566L335 671H378Z" glyph-name="aacute.school" horiz-adv-x="599" /><glyph d="M60 0ZM233 16Q321 16 368.5 69.5Q416 123 424 217V257H270Q183 257 137 227.5Q91 198 91 133Q91 76 127.5 46Q164 16 233 16ZM225 -10Q150 -10 105 26.5Q60 63 60 132Q60 208 114 245Q168 282 267 282H424V294Q424 342 414.5 374.5Q405 407 385.5 426.5Q366 446 336 454Q306 462 266 462Q203 462 165 443.5Q127 425 104 392L85 411Q112 451 158.5 469.5Q205 488 268 488Q362 488 408 445.5Q454 403 454 300V0H424V117Q401 56 349.5 23Q298 -10 225 -10ZM363 669H389Q389 610 357 587Q325 564 269 564Q213 564 181.5 587Q150 610 150 669H175Q175 621 199.5 603.5Q224 586 269 586Q314 586 338.5 603.5Q363 621 363 669Z" glyph-name="abreve" horiz-adv-x="555" unicode="&#259;" /><glyph d="M68 0ZM465 245Q465 300 451 341Q437 382 412.5 409Q388 436 355 449Q322 462 283 462Q190 462 144.5 403.5Q99 345 99 239Q99 130 144.5 73Q190 16 281 16Q321 16 354.5 30Q388 44 412.5 72Q437 100 451 143Q465 186 465 245ZM467 0 464 121Q441 53 390.5 21.5Q340 -10 274 -10Q174 -10 121 54Q68 118 68 239Q68 359 122.5 423.5Q177 488 280 488Q343 488 393 457Q443 426 466 362L469 478H495V0ZM369 669H395Q395 610 363 587Q331 564 275 564Q219 564 187.5 587Q156 610 156 669H181Q181 621 205.5 603.5Q230 586 275 586Q320 586 344.5 603.5Q369 621 369 669Z" glyph-name="abreve.school" horiz-adv-x="599" /><glyph d="M60 0ZM233 16Q321 16 368.5 69.5Q416 123 424 217V257H270Q183 257 137 227.5Q91 198 91 133Q91 76 127.5 46Q164 16 233 16ZM225 -10Q150 -10 105 26.5Q60 63 60 132Q60 208 114 245Q168 282 267 282H424V294Q424 342 414.5 374.5Q405 407 385.5 426.5Q366 446 336 454Q306 462 266 462Q203 462 165 443.5Q127 425 104 392L85 411Q112 451 158.5 469.5Q205 488 268 488Q362 488 408 445.5Q454 403 454 300V0H424V117Q401 56 349.5 23Q298 -10 225 -10ZM271 649 176 563H140V565L258 671H285L403 565V563H365Z" glyph-name="acircumflex" horiz-adv-x="555" unicode="&#226;" /><glyph d="M68 0ZM278 649 183 563H147V565L265 671H292L410 565V563H372ZM465 245Q465 300 451 341Q437 382 412.5 409Q388 436 355 449Q322 462 283 462Q190 462 144.5 403.5Q99 345 99 239Q99 130 144.5 73Q190 16 281 16Q321 16 354.5 30Q388 44 412.5 72Q437 100 451 143Q465 186 465 245ZM467 0 464 121Q441 53 390.5 21.5Q340 -10 274 -10Q174 -10 121 54Q68 118 68 239Q68 359 122.5 423.5Q177 488 280 488Q343 488 393 457Q443 426 466 362L469 478H495V0Z" glyph-name="acircumflex.school" horiz-adv-x="599" /><glyph d="M399 667 299 563H272V566L356 671H399Z" glyph-name="acute" horiz-adv-x="600" unicode="&#180;" /><glyph d="M60 0ZM233 16Q321 16 368.5 69.5Q416 123 424 217V257H270Q183 257 137 227.5Q91 198 91 133Q91 76 127.5 46Q164 16 233 16ZM225 -10Q150 -10 105 26.5Q60 63 60 132Q60 208 114 245Q168 282 267 282H424V294Q424 342 414.5 374.5Q405 407 385.5 426.5Q366 446 336 454Q306 462 266 462Q203 462 165 443.5Q127 425 104 392L85 411Q112 451 158.5 469.5Q205 488 268 488Q362 488 408 445.5Q454 403 454 300V0H424V117Q401 56 349.5 23Q298 -10 225 -10ZM307 610Q307 624 315.5 632Q324 640 338 640Q369 640 369 610Q369 580 338 580Q324 580 315.5 588Q307 596 307 610ZM172 610Q172 624 180 632Q188 640 202 640Q233 640 233 610Q233 580 202 580Q188 580 180 588Q172 596 172 610Z" glyph-name="adieresis" horiz-adv-x="555" unicode="&#228;" /><glyph d="M68 0ZM312 610Q312 624 320.5 632Q329 640 343 640Q374 640 374 610Q374 580 343 580Q329 580 320.5 588Q312 596 312 610ZM177 610Q177 624 185 632Q193 640 207 640Q238 640 238 610Q238 580 207 580Q193 580 185 588Q177 596 177 610ZM465 245Q465 300 451 341Q437 382 412.5 409Q388 436 355 449Q322 462 283 462Q190 462 144.5 403.5Q99 345 99 239Q99 130 144.5 73Q190 16 281 16Q321 16 354.5 30Q388 44 412.5 72Q437 100 451 143Q465 186 465 245ZM467 0 464 121Q441 53 390.5 21.5Q340 -10 274 -10Q174 -10 121 54Q68 118 68 239Q68 359 122.5 423.5Q177 488 280 488Q343 488 393 457Q443 426 466 362L469 478H495V0Z" glyph-name="adieresis.school" horiz-adv-x="599" /><glyph d="M220 -10Q147 -10 104 25.5Q61 61 61 128Q61 199 113 234.5Q165 270 262 270H420V294Q420 342 410.5 374.5Q401 407 381.5 426.5Q362 446 332 454Q302 462 262 462Q199 462 161.5 443.5Q124 425 100 392L82 411Q108 451 154.5 469.5Q201 488 265 488Q341 488 385 460Q429 432 442 364Q489 488 638 488Q737 488 786.5 430Q836 372 836 261Q836 257 835.5 254.5Q835 252 835 250V245H450V239Q450 124 498 70Q546 16 639 16Q703 16 745.5 40Q788 64 809 117L833 104Q808 44 758.5 17Q709 -10 638 -10Q555 -10 502.5 28Q450 66 432 147Q414 72 359 31Q304 -10 220 -10ZM636 462Q551 462 504 413.5Q457 365 451 270H806Q803 369 759.5 415.5Q716 462 636 462ZM227 16Q318 16 369 73.5Q420 131 420 241V245H267Q182 245 137 217Q92 189 92 128Q92 73 127 44.5Q162 16 227 16Z" glyph-name="ae" horiz-adv-x="892" unicode="&#230;" /><glyph d="M64 0ZM237 16Q325 16 372.5 69.5Q420 123 428 217V257H274Q187 257 141 227.5Q95 198 95 133Q95 76 131.5 46Q168 16 237 16ZM229 -10Q154 -10 109 26.5Q64 63 64 132Q64 208 118 245Q172 282 271 282H428V294Q428 342 418.5 374.5Q409 407 389.5 426.5Q370 446 340 454Q310 462 270 462Q207 462 169 443.5Q131 425 108 392L89 411Q116 451 162.5 469.5Q209 488 272 488Q366 488 412 445.5Q458 403 458 300V0H428V117Q405 56 353.5 23Q302 -10 229 -10ZM260 563 160 667V671H203L287 566V563Z" glyph-name="agrave" horiz-adv-x="555" unicode="&#224;" /><glyph d="M68 0ZM465 245Q465 300 451 341Q437 382 412.5 409Q388 436 355 449Q322 462 283 462Q190 462 144.5 403.5Q99 345 99 239Q99 130 144.5 73Q190 16 281 16Q321 16 354.5 30Q388 44 412.5 72Q437 100 451 143Q465 186 465 245ZM467 0 464 121Q441 53 390.5 21.5Q340 -10 274 -10Q174 -10 121 54Q68 118 68 239Q68 359 122.5 423.5Q177 488 280 488Q343 488 393 457Q443 426 466 362L469 478H495V0ZM268 563 168 667V671H211L295 566V563Z" glyph-name="agrave.school" horiz-adv-x="599" /><glyph d="M60 0ZM233 16Q321 16 368.5 69.5Q416 123 424 217V257H270Q183 257 137 227.5Q91 198 91 133Q91 76 127.5 46Q164 16 233 16ZM225 -10Q150 -10 105 26.5Q60 63 60 132Q60 208 114 245Q168 282 267 282H424V294Q424 342 414.5 374.5Q405 407 385.5 426.5Q366 446 336 454Q306 462 266 462Q203 462 165 443.5Q127 425 104 392L85 411Q112 451 158.5 469.5Q205 488 268 488Q362 488 408 445.5Q454 403 454 300V0H424V117Q401 56 349.5 23Q298 -10 225 -10ZM384 626V603H157V626Z" glyph-name="amacron" horiz-adv-x="555" unicode="&#257;" /><glyph d="M68 0ZM465 245Q465 300 451 341Q437 382 412.5 409Q388 436 355 449Q322 462 283 462Q190 462 144.5 403.5Q99 345 99 239Q99 130 144.5 73Q190 16 281 16Q321 16 354.5 30Q388 44 412.5 72Q437 100 451 143Q465 186 465 245ZM467 0 464 121Q441 53 390.5 21.5Q340 -10 274 -10Q174 -10 121 54Q68 118 68 239Q68 359 122.5 423.5Q177 488 280 488Q343 488 393 457Q443 426 466 362L469 478H495V0ZM390 626V603H163V626Z" glyph-name="amacron.school" horiz-adv-x="599" /><glyph d="M595 472H625Q625 351 599.5 262.5Q574 174 528 114Q563 89 601 64Q639 39 682 12L667 -11Q623 16 584.5 41.5Q546 67 511 92Q465 41 405 15.5Q345 -10 274 -10Q226 -10 184.5 1.5Q143 13 112 36Q81 59 63 93Q45 127 45 173Q45 207 55.5 235Q66 263 86 286.5Q106 310 134 331.5Q162 353 197 374Q152 435 137 481Q122 527 122 561Q122 630 164.5 670Q207 710 294 710Q368 710 403 677Q438 644 438 589Q438 554 426 526.5Q414 499 389 474Q364 449 327 424Q290 399 239 368Q278 319 342 260Q406 201 505 130Q547 186 571.5 271Q596 356 595 472ZM153 560Q153 530 166.5 487.5Q180 445 222 388Q271 418 306 441Q341 464 363.5 486Q386 508 397 531.5Q408 555 408 585Q408 634 377.5 659Q347 684 293 684Q221 684 187 650.5Q153 617 153 560ZM275 16Q337 16 391 38.5Q445 61 488 108Q387 180 321.5 240.5Q256 301 214 352Q177 329 151 309Q125 289 108.5 268Q92 247 84.5 224.5Q77 202 77 175Q77 136 92 106.5Q107 77 133.5 57Q160 37 196 26.5Q232 16 275 16Z" glyph-name="ampersand" horiz-adv-x="694" unicode="&amp;" /><glyph d="M492 -177Q458 -198 418 -198Q400 -198 383 -193.5Q366 -189 353 -179Q340 -169 332.5 -152.5Q325 -136 325 -112Q325 -87 333.5 -66.5Q342 -46 356 -30Q370 -14 388 -3.5Q406 7 424 12V117Q401 56 349.5 23Q298 -10 225 -10Q150 -10 105 26.5Q60 63 60 132Q60 208 114 245Q168 282 267 282H424V294Q424 342 414.5 374.5Q405 407 385.5 426.5Q366 446 336 454Q306 462 266 462Q203 462 165 443.5Q127 425 104 392L85 411Q112 451 158.5 469.5Q205 488 268 488Q362 488 408 445.5Q454 403 454 300V0H451Q432 -2 414 -11Q396 -20 381.5 -34.5Q367 -49 358.5 -68Q350 -87 350 -109Q350 -147 370.5 -161Q391 -175 420 -175Q438 -175 453.5 -171Q469 -167 484 -156ZM233 16Q321 16 368.5 69.5Q416 123 424 217V257H270Q183 257 137 227.5Q91 198 91 133Q91 76 127.5 46Q164 16 233 16Z" glyph-name="aogonek" horiz-adv-x="555" unicode="&#261;" /><glyph d="M467 9 464 121Q441 53 390.5 21.5Q340 -10 274 -10Q174 -10 121 54Q68 118 68 239Q68 359 122.5 423.5Q177 488 280 488Q343 488 393 457Q443 426 466 362L469 478H495V0Q476 -2 458 -11Q440 -20 425.5 -34.5Q411 -49 402.5 -68Q394 -87 394 -109Q394 -147 414.5 -161Q435 -175 464 -175Q482 -175 497.5 -171Q513 -167 529 -156L536 -177Q502 -198 462 -198Q444 -198 427 -193.5Q410 -189 397 -179Q384 -169 376.5 -152.5Q369 -136 369 -112Q369 -87 377.5 -67Q386 -47 399.5 -31.5Q413 -16 431 -6Q449 4 467 9ZM465 245Q465 300 451 341Q437 382 412.5 409Q388 436 355 449Q322 462 283 462Q190 462 144.5 403.5Q99 345 99 239Q99 130 144.5 73Q190 16 281 16Q321 16 354.5 30Q388 44 412.5 72Q437 100 451 143Q465 186 465 245Z" glyph-name="aogonek.school" horiz-adv-x="599" /><glyph d="M330 354Q358 354 388 361.5Q418 369 440 386V359Q419 344 387.5 336Q356 328 329 328Q303 328 282.5 334.5Q262 341 242.5 349Q223 357 202.5 363.5Q182 370 156 370Q130 370 101 362.5Q72 355 50 339V366Q71 380 101 388Q131 396 157 396Q185 396 206.5 389.5Q228 383 247.5 375Q267 367 286.5 360.5Q306 354 330 354ZM330 242Q358 242 388 250Q418 258 440 274V247Q419 232 387.5 224.5Q356 217 329 217Q303 217 282.5 223.5Q262 230 242.5 238Q223 246 202.5 252.5Q182 259 156 259Q130 259 101 251.5Q72 244 50 227V254Q71 269 101 276.5Q131 284 157 284Q185 284 206.5 277.5Q228 271 247.5 263Q267 255 286.5 248.5Q306 242 330 242Z" glyph-name="approxequal" horiz-adv-x="490" unicode="&#8776;" /><glyph d="M60 0ZM233 16Q321 16 368.5 69.5Q416 123 424 217V257H270Q183 257 137 227.5Q91 198 91 133Q91 76 127.5 46Q164 16 233 16ZM225 -10Q150 -10 105 26.5Q60 63 60 132Q60 208 114 245Q168 282 267 282H424V294Q424 342 414.5 374.5Q405 407 385.5 426.5Q366 446 336 454Q306 462 266 462Q203 462 165 443.5Q127 425 104 392L85 411Q112 451 158.5 469.5Q205 488 268 488Q362 488 408 445.5Q454 403 454 300V0H424V117Q401 56 349.5 23Q298 -10 225 -10ZM186 629Q186 667 210.5 691Q235 715 272 715Q307 715 331 691Q355 667 355 629Q355 591 331 567Q307 543 270 543Q235 543 210.5 567Q186 591 186 629ZM206 629Q206 600 225 580.5Q244 561 270 561Q298 561 316.5 580.5Q335 600 335 629Q335 658 316.5 677.5Q298 697 272 697Q244 697 225 677.5Q206 658 206 629Z" glyph-name="aring" horiz-adv-x="555" unicode="&#229;" /><glyph d="M68 0ZM465 245Q465 300 451 341Q437 382 412.5 409Q388 436 355 449Q322 462 283 462Q190 462 144.5 403.5Q99 345 99 239Q99 130 144.5 73Q190 16 281 16Q321 16 354.5 30Q388 44 412.5 72Q437 100 451 143Q465 186 465 245ZM467 0 464 121Q441 53 390.5 21.5Q340 -10 274 -10Q174 -10 121 54Q68 118 68 239Q68 359 122.5 423.5Q177 488 280 488Q343 488 393 457Q443 426 466 362L469 478H495V0ZM192 629Q192 667 216.5 691Q241 715 278 715Q313 715 337 691Q361 667 361 629Q361 591 337 567Q313 543 276 543Q241 543 216.5 567Q192 591 192 629ZM212 629Q212 600 231 580.5Q250 561 276 561Q304 561 322.5 580.5Q341 600 341 629Q341 658 322.5 677.5Q304 697 278 697Q250 697 231 677.5Q212 658 212 629Z" glyph-name="aring.school" horiz-adv-x="599" /><glyph d="M176 701H203L351 402H320L189 669Q177 644 159 608Q141 572 122 534.5Q103 497 85 461.5Q67 426 55 402H25Z" glyph-name="asciicircum" horiz-adv-x="376" unicode="^" /><glyph d="M436 399 465 395Q461 363 450.5 342.5Q440 322 425 310Q410 298 392 293Q374 288 355 288Q321 288 294 301Q267 314 241.5 329.5Q216 345 191 358Q166 371 136 371Q122 371 109 367.5Q96 364 84.5 354.5Q73 345 65 329Q57 313 54 288L25 293Q29 324 39.5 345Q50 366 65 378Q80 390 98 395Q116 400 136 400Q169 400 195.5 387Q222 374 247.5 358.5Q273 343 298.5 330Q324 317 354 317Q367 317 380.5 320.5Q394 324 405.5 333Q417 342 425 358Q433 374 436 399Z" glyph-name="asciitilde" horiz-adv-x="490" unicode="~" /><glyph d="M96 373 74 390 174 520 29 564 37 590 180 542 176 710H207L203 542L347 590L355 564L210 520L310 390L288 373L192 506Z" glyph-name="asterisk" horiz-adv-x="380" unicode="*" /><glyph d="M676 4Q632 -43 567.5 -68.5Q503 -94 419 -94Q338 -94 275 -70Q212 -46 168 -2Q124 42 101 104Q78 166 78 242Q78 317 101 379Q124 441 168 485Q212 529 275 553Q338 577 419 577Q496 577 555.5 555.5Q615 534 656 494.5Q697 455 718.5 399Q740 343 740 275Q740 191 706 140.5Q672 90 604 90Q570 90 545 108Q520 126 516 175Q499 126 463 103Q427 80 375 80Q324 80 294 105Q264 130 264 178Q264 229 302.5 253.5Q341 278 410 278H515Q515 348 488 373.5Q461 399 407 399Q362 399 337 386.5Q312 374 295 350L281 364Q318 420 409 420Q472 420 505.5 388Q539 356 539 281V192Q539 109 608 109Q665 109 692.5 153Q720 197 720 275Q720 341 699.5 393.5Q679 446 640 483Q601 520 545 539.5Q489 559 419 559Q344 559 284.5 537Q225 515 183.5 473.5Q142 432 120 373.5Q98 315 98 242Q98 168 120 109.5Q142 51 183.5 9.5Q225 -32 284.5 -54Q344 -76 419 -76Q498 -76 560 -52Q622 -28 664 17ZM380 100Q444 100 477 140.5Q510 181 515 247V260H416Q354 260 321.5 241Q289 222 289 178Q289 100 380 100Z" glyph-name="at" horiz-adv-x="818" unicode="@" /><glyph d="M78 13ZM676 111Q632 64 567.5 38.5Q503 13 419 13Q338 13 275 37Q212 61 168 105Q124 149 101 211Q78 273 78 349Q78 424 101 486Q124 548 168 592Q212 636 275 660Q338 684 419 684Q496 684 555.5 662.5Q615 641 656 601.5Q697 562 718.5 506Q740 450 740 382Q740 298 706 247.5Q672 197 604 197Q570 197 545 215Q520 233 516 282Q499 233 463 210Q427 187 375 187Q324 187 294 212Q264 237 264 285Q264 336 302.5 360.5Q341 385 410 385H515Q515 455 488 480.5Q461 506 407 506Q362 506 337 493.5Q312 481 295 457L281 471Q318 527 409 527Q472 527 505.5 495Q539 463 539 388V299Q539 216 608 216Q665 216 692.5 260Q720 304 720 382Q720 448 699.5 500.5Q679 553 640 590Q601 627 545 646.5Q489 666 419 666Q344 666 284.5 644Q225 622 183.5 580.5Q142 539 120 480.5Q98 422 98 349Q98 275 120 216.5Q142 158 183.5 116.5Q225 75 284.5 53Q344 31 419 31Q498 31 560 55Q622 79 664 124ZM380 207Q444 207 477 247.5Q510 288 515 354V367H416Q354 367 321.5 348Q289 329 289 285Q289 207 380 207Z" glyph-name="at.cap" horiz-adv-x="818" /><glyph d="M60 0ZM233 16Q321 16 368.5 69.5Q416 123 424 217V257H270Q183 257 137 227.5Q91 198 91 133Q91 76 127.5 46Q164 16 233 16ZM225 -10Q150 -10 105 26.5Q60 63 60 132Q60 208 114 245Q168 282 267 282H424V294Q424 342 414.5 374.5Q405 407 385.5 426.5Q366 446 336 454Q306 462 266 462Q203 462 165 443.5Q127 425 104 392L85 411Q112 451 158.5 469.5Q205 488 268 488Q362 488 408 445.5Q454 403 454 300V0H424V117Q401 56 349.5 23Q298 -10 225 -10ZM370 656H395Q395 633 389 618.5Q383 604 373 595.5Q363 587 351.5 584Q340 581 330 581Q309 581 294 589.5Q279 598 266 608.5Q253 619 240 627.5Q227 636 210 636Q196 636 183 626Q170 616 169 585H144Q144 608 150 622.5Q156 637 165.5 645.5Q175 654 186 657Q197 660 208 660Q229 660 244 651.5Q259 643 272 632.5Q285 622 298.5 613.5Q312 605 330 605Q347 605 358 616Q369 627 370 656Z" glyph-name="atilde" horiz-adv-x="555" unicode="&#227;" /><glyph d="M68 0ZM465 245Q465 300 451 341Q437 382 412.5 409Q388 436 355 449Q322 462 283 462Q190 462 144.5 403.5Q99 345 99 239Q99 130 144.5 73Q190 16 281 16Q321 16 354.5 30Q388 44 412.5 72Q437 100 451 143Q465 186 465 245ZM467 0 464 121Q441 53 390.5 21.5Q340 -10 274 -10Q174 -10 121 54Q68 118 68 239Q68 359 122.5 423.5Q177 488 280 488Q343 488 393 457Q443 426 466 362L469 478H495V0ZM378 656H403Q403 633 397 618.5Q391 604 381 595.5Q371 587 359.5 584Q348 581 338 581Q317 581 302 589.5Q287 598 274 608.5Q261 619 248 627.5Q235 636 218 636Q204 636 191 626Q178 616 177 585H152Q152 608 158 622.5Q164 637 173.5 645.5Q183 654 194 657Q205 660 216 660Q237 660 252 651.5Q267 643 280 632.5Q293 622 306.5 613.5Q320 605 338 605Q355 605 366 616Q377 627 378 656Z" glyph-name="atilde.school" horiz-adv-x="599" /><glyph d="M134 700V358Q158 424 209 456Q260 488 329 488Q428 488 480 424.5Q532 361 532 240Q532 120 477.5 55Q423 -10 320 -10Q257 -10 207 19Q157 48 133 112L131 0H103V700ZM134 234Q134 178 148 137Q162 96 186 69Q210 42 243.5 29Q277 16 316 16Q409 16 454.5 74Q500 132 500 239Q500 348 455.5 405Q411 462 323 462Q282 462 247 448Q212 434 187 405.5Q162 377 148 334.5Q134 292 134 234Z" glyph-name="b" horiz-adv-x="599" unicode="b" /><glyph d="M404 0 14 700H47L437 0Z" glyph-name="backslash" horiz-adv-x="472" unicode="\" /><glyph d="M119 -65V766H148V-65Z" glyph-name="bar" horiz-adv-x="267" unicode="|" /><glyph d="M270 -73Q218 -67 191 -41.5Q164 -16 164 36Q164 71 170.5 104.5Q177 138 177 170Q177 242 150 275Q123 308 53 308H32V332H53Q123 332 150 365Q177 398 177 470Q177 500 170.5 535Q164 570 164 605Q164 656 191 681.5Q218 707 270 713L273 688Q235 683 214 663Q193 643 193 603Q193 573 199 537.5Q205 502 205 468Q205 402 184 366.5Q163 331 109 320Q163 309 184 273.5Q205 238 205 173Q205 138 199 102.5Q193 67 193 38Q193 -3 214 -23Q235 -43 273 -48Z" glyph-name="braceleft" horiz-adv-x="347" unicode="{" /><glyph d="M81 -48Q119 -43 140 -23Q161 -3 161 38Q161 67 155 102.5Q149 138 149 173Q149 238 170 273.5Q191 309 245 320Q191 331 170 366.5Q149 402 149 468Q149 502 155 537.5Q161 573 161 603Q161 643 140 663Q119 683 81 688L84 713Q136 707 163 681.5Q190 656 190 605Q190 570 183.5 535Q177 500 177 470Q177 398 204 365Q231 332 301 332H322V308H301Q231 308 204 275Q177 242 177 170Q177 138 183.5 104.5Q190 71 190 36Q190 -16 163 -41.5Q136 -67 84 -73Z" glyph-name="braceright" horiz-adv-x="347" unicode="}" /><glyph d="M109 -101V704H265V680H138V-77H274V-101Z" glyph-name="bracketleft" horiz-adv-x="339" unicode="[" /><glyph d="M65 -101V-77H201V680H74V704H230V-101Z" glyph-name="bracketright" horiz-adv-x="339" unicode="]" /><glyph d="M393 669H419Q419 610 387 587Q355 564 299 564Q243 564 211.5 587Q180 610 180 669H205Q205 621 229.5 603.5Q254 586 299 586Q344 586 368.5 603.5Q393 621 393 669Z" glyph-name="breve" horiz-adv-x="600" unicode="&#728;" /><glyph d="M119 376V766H148V376ZM119 -65V324H148V-65Z" glyph-name="brokenbar" horiz-adv-x="267" unicode="&#166;" /><glyph d="M83 327Q83 387 118.5 422.5Q154 458 215 458Q276 458 311.5 422.5Q347 387 347 327Q347 267 311.5 231.5Q276 196 215 196Q154 196 118.5 231.5Q83 267 83 327Z" glyph-name="bullet" horiz-adv-x="430" unicode="&#8226;" /><glyph d="M289 -10Q180 -10 124 50.5Q68 111 68 237Q68 366 124.5 427Q181 488 290 488Q359 488 404 463Q449 438 475 391L451 375Q429 420 387.5 441Q346 462 290 462Q195 462 147 409Q99 356 99 237Q99 121 146.5 68.5Q194 16 289 16Q353 16 394 40Q435 64 457 117L481 104Q457 44 408.5 17Q360 -10 289 -10Z" glyph-name="c" horiz-adv-x="536" unicode="c" /><glyph d="M68 0ZM400 667 300 563H273V566L357 671H400ZM289 -10Q180 -10 124 50.5Q68 111 68 237Q68 366 124.5 427Q181 488 290 488Q359 488 404 463Q449 438 475 391L451 375Q429 420 387.5 441Q346 462 290 462Q195 462 147 409Q99 356 99 237Q99 121 146.5 68.5Q194 16 289 16Q353 16 394 40Q435 64 457 117L481 104Q457 44 408.5 17Q360 -10 289 -10Z" glyph-name="cacute" horiz-adv-x="536" unicode="&#263;" /><glyph d="M295 585 390 671H427V669L309 563H282L164 669V671H201Z" glyph-name="caron" horiz-adv-x="600" unicode="&#711;" /><glyph d="M281 515H259L266 700H301Z" glyph-name="caronSlovak" horiz-adv-x="600" /><glyph d="M68 0ZM288 585 383 671H420V669L302 563H275L157 669V671H194ZM289 -10Q180 -10 124 50.5Q68 111 68 237Q68 366 124.5 427Q181 488 290 488Q359 488 404 463Q449 438 475 391L451 375Q429 420 387.5 441Q346 462 290 462Q195 462 147 409Q99 356 99 237Q99 121 146.5 68.5Q194 16 289 16Q353 16 394 40Q435 64 457 117L481 104Q457 44 408.5 17Q360 -10 289 -10Z" glyph-name="ccaron" horiz-adv-x="536" unicode="&#269;" /><glyph d="M275 -221Q242 -221 219 -210Q196 -199 179 -173L196 -158Q211 -181 228 -190.5Q245 -200 274 -200Q349 -200 349 -146Q349 -119 331 -109Q313 -99 290 -99Q284 -99 278 -99.5Q272 -100 264 -102L253 -94L271 -10Q171 -5 119.5 55.5Q68 116 68 237Q68 366 124.5 427Q181 488 290 488Q359 488 404 463Q449 438 475 391L451 375Q429 420 387.5 441Q346 462 290 462Q195 462 147 409Q99 356 99 237Q99 121 146.5 68.5Q194 16 289 16Q353 16 394 40Q435 64 457 117L481 104Q457 44 409 17Q361 -10 295 -10L280 -82Q282 -81 287 -81H298Q312 -81 325.5 -84.5Q339 -88 350 -95.5Q361 -103 367.5 -115.5Q374 -128 374 -146Q374 -183 347.5 -202Q321 -221 275 -221Z" glyph-name="ccedilla" horiz-adv-x="536" unicode="&#231;" /><glyph d="M68 0ZM291 649 196 563H160V565L278 671H305L423 565V563H385ZM289 -10Q180 -10 124 50.5Q68 111 68 237Q68 366 124.5 427Q181 488 290 488Q359 488 404 463Q449 438 475 391L451 375Q429 420 387.5 441Q346 462 290 462Q195 462 147 409Q99 356 99 237Q99 121 146.5 68.5Q194 16 289 16Q353 16 394 40Q435 64 457 117L481 104Q457 44 408.5 17Q360 -10 289 -10Z" glyph-name="ccircumflex" horiz-adv-x="536" unicode="&#265;" /><glyph d="M68 0ZM289 -10Q180 -10 124 50.5Q68 111 68 237Q68 366 124.5 427Q181 488 290 488Q359 488 404 463Q449 438 475 391L451 375Q429 420 387.5 441Q346 462 290 462Q195 462 147 409Q99 356 99 237Q99 121 146.5 68.5Q194 16 289 16Q353 16 394 40Q435 64 457 117L481 104Q457 44 408.5 17Q360 -10 289 -10ZM262 610Q262 640 293 640Q323 640 323 610Q323 580 293 580Q262 580 262 610Z" glyph-name="cdotaccent" horiz-adv-x="536" unicode="&#267;" /><glyph d="M314 0H338L321 -82Q323 -81 328 -81H339Q353 -81 366.5 -84.5Q380 -88 391 -95.5Q402 -103 408.5 -115.5Q415 -128 415 -146Q415 -183 388.5 -202Q362 -221 316 -221Q283 -221 260 -210Q237 -199 220 -173L237 -158Q252 -181 269 -190.5Q286 -200 315 -200Q390 -200 390 -146Q390 -119 372 -109Q354 -99 331 -99Q325 -99 319 -99.5Q313 -100 305 -102L294 -94Z" glyph-name="cedilla" horiz-adv-x="600" unicode="&#184;" /><glyph d="M102 252Q102 146 144.5 96Q187 46 275 42V465Q187 461 144.5 411Q102 361 102 252ZM275 -62V16Q174 20 122 77.5Q70 135 70 252Q70 370 122 428.5Q174 487 275 491V571H302V492Q366 490 408 465.5Q450 441 474 396L451 381Q430 422 391.5 442.5Q353 463 302 465V42Q361 43 399 67Q437 91 458 140L483 128Q460 71 414 44Q368 17 302 15V-62Z" glyph-name="cent" horiz-adv-x="541" unicode="&#162;" /><glyph d="M295 649 200 563H164V565L282 671H309L427 565V563H389Z" glyph-name="circumflex" horiz-adv-x="600" unicode="&#710;" /><glyph d="M68 0ZM68 24Q68 54 99 54Q130 54 130 24Q130 10 121.5 2Q113 -6 99 -6Q85 -6 76.5 2Q68 10 68 24ZM68 419Q68 449 99 449Q130 449 130 419Q130 405 121.5 397Q113 389 99 389Q85 389 76.5 397Q68 405 68 419Z" glyph-name="colon" horiz-adv-x="198" unicode=":" /><glyph d="M73 -102 66 -87Q86 -76 97 -53Q108 -30 109 -3Q90 -8 79 0.5Q68 9 68 25Q68 39 76 46.5Q84 54 98 54Q113 54 121.5 44.5Q130 35 130 9Q130 -27 116.5 -58.5Q103 -90 73 -102Z" glyph-name="comma" horiz-adv-x="198" unicode="," /><glyph d="M269 -224 261 -209Q281 -199 292 -176.5Q303 -154 304 -128Q285 -133 274 -124.5Q263 -116 263 -100Q263 -86 271 -78.5Q279 -71 293 -71Q307 -71 316 -81Q325 -91 325 -116Q325 -151 311.5 -182Q298 -213 269 -224Z" glyph-name="commaaccent" horiz-adv-x="600" unicode="&#63171;" /><glyph d="M78 349Q78 424 100.5 486Q123 548 165.5 592Q208 636 270 660Q332 684 411 684Q490 684 552 660Q614 636 656.5 592Q699 548 721.5 486Q744 424 744 349Q744 273 721.5 211Q699 149 656.5 105Q614 61 552 37Q490 13 411 13Q332 13 270 37Q208 61 165.5 105Q123 149 100.5 211Q78 273 78 349ZM98 349Q98 275 119.5 216.5Q141 158 181 116.5Q221 75 279 53Q337 31 411 31Q484 31 542.5 53Q601 75 641.5 116.5Q682 158 703.5 216.5Q725 275 725 349Q725 422 703.5 480.5Q682 539 641.5 580.5Q601 622 542.5 644Q484 666 411 666Q337 666 279 644Q221 622 181 580.5Q141 539 119.5 480.5Q98 422 98 349ZM417 172Q333 172 290 215.5Q247 259 247 350Q247 443 290 487Q333 531 417 531Q469 531 503 512.5Q537 494 556 460L538 447Q521 479 490 494.5Q459 510 417 510Q345 510 308.5 472.5Q272 435 272 350Q272 268 308.5 231Q345 194 417 194Q510 194 542 265L561 254Q542 211 505.5 191.5Q469 172 417 172Z" glyph-name="copyright" horiz-adv-x="822" unicode="&#169;" /><glyph d="M208 360Q131 360 91.5 402Q52 444 52 534Q52 625 91.5 667.5Q131 710 209 710Q258 710 289.5 692Q321 674 339 642L320 628Q305 659 276 674Q247 689 209 689Q143 689 110 652.5Q77 616 77 534Q77 453 109.5 417Q142 381 208 381Q253 381 280.5 397.5Q308 414 324 450L344 440Q327 398 293 379Q259 360 208 360Z" glyph-name="cordinal" horiz-adv-x="389" /><glyph d="M466 245Q466 300 452 341Q438 382 413.5 409Q389 436 355.5 449Q322 462 283 462Q190 462 144.5 403.5Q99 345 99 239Q99 130 144.5 73Q190 16 281 16Q321 16 355 30Q389 44 413.5 72Q438 100 452 143Q466 186 466 245ZM468 0 466 119Q443 53 392 21.5Q341 -10 274 -10Q174 -10 121 54Q68 118 68 239Q68 359 122.5 423.5Q177 488 280 488Q343 488 391.5 458.5Q440 429 466 369V700H496V0Z" glyph-name="d" horiz-adv-x="599" unicode="d" /><glyph d="M237 570H163L162 334H137V570H63V593H136L135 709H165L164 593H237Z" glyph-name="dagger" horiz-adv-x="301" unicode="&#8224;" /><glyph d="M63 465H137V573H63V596H136L135 709H165L163 596H237V573H163V465H237V442H163L165 327H135L136 442H63Z" glyph-name="daggerdbl" horiz-adv-x="301" unicode="&#8225;" /><glyph d="M68 0ZM628 515H606L613 700H648ZM466 245Q466 300 452 341Q438 382 413.5 409Q389 436 355.5 449Q322 462 283 462Q190 462 144.5 403.5Q99 345 99 239Q99 130 144.5 73Q190 16 281 16Q321 16 355 30Q389 44 413.5 72Q438 100 452 143Q466 186 466 245ZM468 0 466 119Q443 53 392 21.5Q341 -10 274 -10Q174 -10 121 54Q68 118 68 239Q68 359 122.5 423.5Q177 488 280 488Q343 488 391.5 458.5Q440 429 466 369V700H496V0Z" glyph-name="dcaron" horiz-adv-x="639" unicode="&#271;" /><glyph d="M466 245Q466 300 452 341Q438 382 413.5 409Q389 436 355.5 449Q322 462 283 462Q190 462 144.5 403.5Q99 345 99 239Q99 130 144.5 73Q190 16 281 16Q321 16 355 30Q389 44 413.5 72Q438 100 452 143Q466 186 466 245ZM582 592V569H496V0H468L466 119Q443 53 392 21.5Q341 -10 274 -10Q174 -10 121 54Q68 118 68 239Q68 359 122.5 423.5Q177 488 280 488Q343 488 391.5 458.5Q440 429 466 369V569H290V592H466V700H496V592Z" glyph-name="dcroat" horiz-adv-x="611" unicode="&#273;" /><glyph d="M228 362Q145 362 99.5 409.5Q54 457 54 535Q54 613 99.5 661Q145 709 228 709Q309 709 354.5 661Q400 613 400 535Q400 457 354.5 409.5Q309 362 228 362ZM228 686Q158 686 119 645Q80 604 80 535Q80 466 119 425.5Q158 385 228 385Q297 385 335.5 425.5Q374 466 374 535Q374 604 335.5 645Q297 686 228 686Z" glyph-name="degree" horiz-adv-x="454" unicode="&#176;" /><glyph d="M341 610Q341 624 349.5 632Q358 640 372 640Q403 640 403 610Q403 580 372 580Q358 580 349.5 588Q341 596 341 610ZM206 610Q206 624 214 632Q222 640 236 640Q267 640 267 610Q267 580 236 580Q222 580 214 588Q206 596 206 610Z" glyph-name="dieresis" horiz-adv-x="600" unicode="&#168;" /><glyph d="M212 448Q212 478 243 478Q257 478 265 470Q273 462 273 448Q273 434 265 426Q257 418 243 418Q229 418 220.5 426Q212 434 212 448ZM437 318V292H50V318ZM212 168Q212 198 243 198Q257 198 265 190Q273 182 273 168Q273 154 265 146Q257 138 243 138Q212 138 212 168Z" glyph-name="divide" horiz-adv-x="487" unicode="&#247;" /><glyph d="M100 522Q100 462 140 427.5Q180 393 253 376L273 371V653Q185 651 142.5 617.5Q100 584 100 522ZM310 334 300 336V40Q395 42 438 80Q481 118 481 187Q481 215 473 236.5Q465 258 445.5 275.5Q426 293 393 307.5Q360 322 310 334ZM273 -62V13Q194 15 138.5 44Q83 73 42 136L66 152Q105 95 153 68.5Q201 42 273 40V342L247 348Q161 368 116 410.5Q71 453 71 520Q71 555 82.5 584Q94 613 118.5 634Q143 655 181.5 667Q220 679 273 680V766H300V679Q374 676 418 651.5Q462 627 494 579L470 563Q441 607 402 628.5Q363 650 300 652V365L312 362Q367 348 405.5 332Q444 316 467.5 295.5Q491 275 501.5 248.5Q512 222 512 188Q512 100 458 57.5Q404 15 300 13V-62Z" glyph-name="dollar" horiz-adv-x="566" unicode="$" /><glyph d="M272 610Q272 640 303 640Q333 640 333 610Q333 580 303 580Q272 580 272 610Z" glyph-name="dotaccent" horiz-adv-x="600" unicode="&#729;" /><glyph d="M106 478H137V0H106Z" glyph-name="dotlessi" horiz-adv-x="243" unicode="&#305;" /><glyph d="M106 -56V478H137V-62Q137 -138 109 -171.5Q81 -205 28 -205Q9 -205 -8 -202.5Q-25 -200 -45 -192L-39 -167Q-23 -173 -9 -176Q5 -179 25 -179Q66 -179 86 -152Q106 -125 106 -56Z" glyph-name="dotlessj" horiz-adv-x="243" unicode="&#567;" /><glyph d="M223 -65V766H252V-65ZM119 -65V766H148V-65Z" glyph-name="doublebar" horiz-adv-x="371" /><glyph d="M287 -10Q182 -10 125 50.5Q68 111 68 239Q68 363 123.5 425.5Q179 488 282 488Q381 488 433 427.5Q485 367 485 252Q485 247 484.5 243.5Q484 240 484 237V231H99Q101 119 148.5 67.5Q196 16 288 16Q352 16 394.5 40Q437 64 457 117L481 104Q457 44 407.5 17Q358 -10 287 -10ZM281 462Q194 462 148 410Q102 358 99 256H454Q449 462 281 462Z" glyph-name="e" horiz-adv-x="540" unicode="e" /><glyph d="M68 0ZM392 667 292 563H265V566L349 671H392ZM287 -10Q182 -10 125 50.5Q68 111 68 239Q68 363 123.5 425.5Q179 488 282 488Q381 488 433 427.5Q485 367 485 252Q485 247 484.5 243.5Q484 240 484 237V231H99Q101 119 148.5 67.5Q196 16 288 16Q352 16 394.5 40Q437 64 457 117L481 104Q457 44 407.5 17Q358 -10 287 -10ZM281 462Q194 462 148 410Q102 358 99 256H454Q449 462 281 462Z" glyph-name="eacute" horiz-adv-x="540" unicode="&#233;" /><glyph d="M68 0ZM287 -10Q182 -10 125 50.5Q68 111 68 239Q68 363 123.5 425.5Q179 488 282 488Q381 488 433 427.5Q485 367 485 252Q485 247 484.5 243.5Q484 240 484 237V231H99Q101 119 148.5 67.5Q196 16 288 16Q352 16 394.5 40Q437 64 457 117L481 104Q457 44 407.5 17Q358 -10 287 -10ZM281 462Q194 462 148 410Q102 358 99 256H454Q449 462 281 462ZM375 669H401Q401 610 369 587Q337 564 281 564Q225 564 193.5 587Q162 610 162 669H187Q187 621 211.5 603.5Q236 586 281 586Q326 586 350.5 603.5Q375 621 375 669Z" glyph-name="ebreve" horiz-adv-x="540" unicode="&#277;" /><glyph d="M68 0ZM281 585 376 671H413V669L295 563H268L150 669V671H187ZM287 -10Q182 -10 125 50.5Q68 111 68 239Q68 363 123.5 425.5Q179 488 282 488Q381 488 433 427.5Q485 367 485 252Q485 247 484.5 243.5Q484 240 484 237V231H99Q101 119 148.5 67.5Q196 16 288 16Q352 16 394.5 40Q437 64 457 117L481 104Q457 44 407.5 17Q358 -10 287 -10ZM281 462Q194 462 148 410Q102 358 99 256H454Q449 462 281 462Z" glyph-name="ecaron" horiz-adv-x="540" unicode="&#283;" /><glyph d="M68 0ZM283 649 188 563H152V565L270 671H297L415 565V563H377ZM287 -10Q182 -10 125 50.5Q68 111 68 239Q68 363 123.5 425.5Q179 488 282 488Q381 488 433 427.5Q485 367 485 252Q485 247 484.5 243.5Q484 240 484 237V231H99Q101 119 148.5 67.5Q196 16 288 16Q352 16 394.5 40Q437 64 457 117L481 104Q457 44 407.5 17Q358 -10 287 -10ZM281 462Q194 462 148 410Q102 358 99 256H454Q449 462 281 462Z" glyph-name="ecircumflex" horiz-adv-x="540" unicode="&#234;" /><glyph d="M68 0ZM319 610Q319 624 327.5 632Q336 640 350 640Q381 640 381 610Q381 580 350 580Q336 580 327.5 588Q319 596 319 610ZM184 610Q184 624 192 632Q200 640 214 640Q245 640 245 610Q245 580 214 580Q200 580 192 588Q184 596 184 610ZM287 -10Q182 -10 125 50.5Q68 111 68 239Q68 363 123.5 425.5Q179 488 282 488Q381 488 433 427.5Q485 367 485 252Q485 247 484.5 243.5Q484 240 484 237V231H99Q101 119 148.5 67.5Q196 16 288 16Q352 16 394.5 40Q437 64 457 117L481 104Q457 44 407.5 17Q358 -10 287 -10ZM281 462Q194 462 148 410Q102 358 99 256H454Q449 462 281 462Z" glyph-name="edieresis" horiz-adv-x="540" unicode="&#235;" /><glyph d="M68 0ZM287 -10Q182 -10 125 50.5Q68 111 68 239Q68 363 123.5 425.5Q179 488 282 488Q381 488 433 427.5Q485 367 485 252Q485 247 484.5 243.5Q484 240 484 237V231H99Q101 119 148.5 67.5Q196 16 288 16Q352 16 394.5 40Q437 64 457 117L481 104Q457 44 407.5 17Q358 -10 287 -10ZM281 462Q194 462 148 410Q102 358 99 256H454Q449 462 281 462ZM254 610Q254 640 285 640Q315 640 315 610Q315 580 285 580Q254 580 254 610Z" glyph-name="edotaccent" horiz-adv-x="540" unicode="&#279;" /><glyph d="M68 0ZM287 -10Q182 -10 125 50.5Q68 111 68 239Q68 363 123.5 425.5Q179 488 282 488Q381 488 433 427.5Q485 367 485 252Q485 247 484.5 243.5Q484 240 484 237V231H99Q101 119 148.5 67.5Q196 16 288 16Q352 16 394.5 40Q437 64 457 117L481 104Q457 44 407.5 17Q358 -10 287 -10ZM281 462Q194 462 148 410Q102 358 99 256H454Q449 462 281 462ZM273 563 173 667V671H216L300 566V563Z" glyph-name="egrave" horiz-adv-x="540" unicode="&#232;" /><glyph d="M312 -10Q195 -10 133.5 43.5Q72 97 72 191Q72 268 117.5 315Q163 362 241 376Q175 389 137.5 430.5Q100 472 100 539Q100 622 154 666Q208 710 312 710Q416 710 470 666Q524 622 524 540Q524 472 486 431Q448 390 383 376Q460 363 506 315.5Q552 268 552 191Q552 97 490.5 43.5Q429 -10 312 -10ZM493 539Q493 608 448.5 646Q404 684 312 684Q220 684 175.5 646Q131 608 131 539Q131 470 176.5 430Q222 390 312 390Q402 390 447.5 430Q493 470 493 539ZM521 191Q521 269 467.5 315.5Q414 362 312 362Q211 362 157.5 315.5Q104 269 104 191Q104 110 155.5 63.5Q207 17 312 17Q417 17 469 63.5Q521 110 521 191Z" glyph-name="eight" horiz-adv-x="625" unicode="8" /><glyph d="M314 -10Q197 -10 135.5 43.5Q74 97 74 191Q74 268 119.5 315Q165 362 243 376Q177 389 140 430.5Q103 472 103 539Q103 622 156.5 666Q210 710 314 710Q418 710 472 666Q526 622 526 540Q526 472 488 431Q450 390 385 376Q463 363 508.5 315.5Q554 268 554 191Q554 97 492.5 43.5Q431 -10 314 -10ZM495 539Q495 608 450.5 646Q406 684 314 684Q222 684 177.5 646Q133 608 133 539Q133 470 178.5 430Q224 390 314 390Q404 390 449.5 430Q495 470 495 539ZM523 191Q523 269 469.5 315.5Q416 362 314 362Q213 362 159.5 315.5Q106 269 106 191Q106 110 157.5 63.5Q209 17 314 17Q419 17 471 63.5Q523 110 523 191Z" glyph-name="eight.LP" horiz-adv-x="629" /><glyph d="M299 -10Q188 -10 129 43.5Q70 97 70 191Q70 268 113.5 315.5Q157 363 230 376Q168 390 133 431Q98 472 98 539Q98 622 149 666Q200 710 299 710Q398 710 449 666Q500 622 500 540Q500 472 464.5 431Q429 390 367 376Q440 364 483.5 316Q527 268 527 191Q527 97 468.5 43.5Q410 -10 299 -10ZM470 539Q470 608 428.5 646Q387 684 299 684Q212 684 170 646Q128 608 128 539Q128 470 170.5 430Q213 390 299 390Q384 390 427 430Q470 470 470 539ZM497 191Q497 269 446.5 315.5Q396 362 299 362Q202 362 151.5 315.5Q101 269 101 191Q101 110 150 63.5Q199 17 299 17Q398 17 447.5 63.5Q497 110 497 191Z" glyph-name="eight.OP" horiz-adv-x="597" /><glyph d="M312 -10Q195 -10 133.5 43.5Q72 97 72 191Q72 268 117.5 315Q163 362 241 376Q175 389 137.5 430.5Q100 472 100 539Q100 622 154 666Q208 710 312 710Q416 710 470 666Q524 622 524 540Q524 472 486 431Q448 390 383 376Q460 363 506 315.5Q552 268 552 191Q552 97 490.5 43.5Q429 -10 312 -10ZM493 539Q493 608 448.5 646Q404 684 312 684Q220 684 175.5 646Q131 608 131 539Q131 470 176.5 430Q222 390 312 390Q402 390 447.5 430Q493 470 493 539ZM521 191Q521 269 467.5 315.5Q414 362 312 362Q211 362 157.5 315.5Q104 269 104 191Q104 110 155.5 63.5Q207 17 312 17Q417 17 469 63.5Q521 110 521 191Z" glyph-name="eight.OT" horiz-adv-x="625" /><glyph d="M46 0ZM189 -207Q120 -207 83 -176Q46 -145 46 -89Q46 -45 71.5 -17.5Q97 10 140 18Q105 26 84.5 50Q64 74 64 112Q64 214 189 214Q315 214 315 113Q315 75 294 50.5Q273 26 238 18Q281 10 306.5 -17.5Q332 -45 332 -89Q332 -145 295.5 -176Q259 -207 189 -207ZM290 112Q290 150 265 171Q240 192 189 192Q138 192 113.5 171Q89 150 89 112Q89 74 114 51.5Q139 29 189 29Q239 29 264.5 51.5Q290 74 290 112ZM305 -88Q305 -45 275.5 -20Q246 5 189 5Q133 5 103.5 -20Q74 -45 74 -88Q74 -133 102.5 -159Q131 -185 189 -185Q247 -185 276 -159Q305 -133 305 -88Z" glyph-name="eight.inf" horiz-adv-x="380" /><glyph d="M465 24Q465 38 473 46Q481 54 495 54Q526 54 526 24Q526 10 517.5 2Q509 -6 495 -6Q481 -6 473 2Q465 10 465 24ZM266 24Q266 54 297 54Q328 54 328 24Q328 10 319.5 2Q311 -6 297 -6Q283 -6 274.5 2Q266 10 266 24ZM68 24Q68 54 99 54Q130 54 130 24Q130 10 121.5 2Q113 -6 99 -6Q85 -6 76.5 2Q68 10 68 24Z" glyph-name="ellipsis" horiz-adv-x="594" unicode="&#8230;" /><glyph d="M68 0ZM287 -10Q182 -10 125 50.5Q68 111 68 239Q68 363 123.5 425.5Q179 488 282 488Q381 488 433 427.5Q485 367 485 252Q485 247 484.5 243.5Q484 240 484 237V231H99Q101 119 148.5 67.5Q196 16 288 16Q352 16 394.5 40Q437 64 457 117L481 104Q457 44 407.5 17Q358 -10 287 -10ZM281 462Q194 462 148 410Q102 358 99 256H454Q449 462 281 462ZM396 626V603H169V626Z" glyph-name="emacron" horiz-adv-x="540" unicode="&#275;" /><glyph d="M739 256V230H50V256Z" glyph-name="emdash" horiz-adv-x="788" unicode="&#8212;" /><glyph d="M739 363V337H50V363Z" glyph-name="emdash.cap" horiz-adv-x="788" /><glyph glyph-name="emspace" horiz-adv-x="1000" unicode="&#8195;" /><glyph d="M539 256V230H50V256Z" glyph-name="endash" horiz-adv-x="588" unicode="&#8211;" /><glyph d="M539 363V337H50V363Z" glyph-name="endash.cap" horiz-adv-x="588" /><glyph d="M478 -56V296Q478 342 467 373.5Q456 405 436.5 424.5Q417 444 388.5 452.5Q360 461 326 461Q282 461 248 446Q214 431 189.5 403.5Q165 376 151 338Q137 300 134 255V0H103V478H130L134 350Q157 416 208 452Q259 488 335 488Q420 488 464.5 443.5Q509 399 509 305V-62Q509 -138 481 -171.5Q453 -205 400 -205Q382 -205 365 -202.5Q348 -200 328 -192L333 -166Q349 -172 363 -175Q377 -178 398 -178Q438 -178 458 -151Q478 -124 478 -56Z" glyph-name="eng" horiz-adv-x="605" unicode="&#331;" /><glyph glyph-name="enspace" horiz-adv-x="500" unicode="&#8194;" /><glyph d="M242 -112Q242 -77 258.5 -50.5Q275 -24 299 -9Q191 -13 129.5 47Q68 107 68 239Q68 363 123.5 425.5Q179 488 282 488Q382 488 433.5 427.5Q485 367 485 252V241Q485 234 484 231H99Q100 119 148 67.5Q196 16 288 16Q352 16 394.5 40Q437 64 457 117L481 104Q464 62 434 35.5Q404 9 356 -2Q318 -12 292.5 -40.5Q267 -69 267 -109Q267 -147 287.5 -161Q308 -175 337 -175Q355 -175 370.5 -171Q386 -167 402 -156L409 -177Q375 -198 335 -198Q317 -198 300 -193.5Q283 -189 270 -179Q257 -169 249.5 -152.5Q242 -136 242 -112ZM281 462Q193 462 147.5 410Q102 358 99 256H454Q451 462 281 462Z" glyph-name="eogonek" horiz-adv-x="540" unicode="&#281;" /><glyph d="M437 377V351H50V377ZM437 267V241H50V267Z" glyph-name="equal" horiz-adv-x="487" unicode="=" /><glyph d="M40 0ZM269 25V2H40V25ZM269 -43V-65H40V-43Z" glyph-name="equal.inf" horiz-adv-x="309" /><glyph d="M484 696 496 677 403 619Q457 555 483.5 463Q510 371 510 244V237Q510 110 454 50Q398 -10 289 -10Q181 -10 124.5 50Q68 110 68 237Q68 365 124 426Q180 487 289 487Q354 487 400 461.5Q446 436 469 385Q458 454 436 508Q414 562 378 603L289 548L277 567L362 620Q332 649 295 670.5Q258 692 212 708L222 731Q272 714 313 690.5Q354 667 386 635ZM478 237Q478 352 432.5 406.5Q387 461 289 461Q192 461 145.5 406.5Q99 352 99 237Q99 124 145.5 70Q192 16 289 16Q386 16 432 70Q478 124 478 237Z" glyph-name="eth" horiz-adv-x="581" unicode="&#240;" /><glyph d="M117 700 112 170H85L80 700ZM68 24Q68 54 99 54Q113 54 121 46Q129 38 129 24Q129 10 121 2Q113 -6 99 -6Q85 -6 76.5 2Q68 10 68 24Z" glyph-name="exclam" horiz-adv-x="197" unicode="!" /><glyph d="M91 -194 96 336H123L128 -194ZM140 482Q140 452 109 452Q95 452 87 460Q79 468 79 482Q79 496 87 504Q95 512 109 512Q123 512 131.5 504Q140 496 140 482Z" glyph-name="exclamdown" horiz-adv-x="209" unicode="&#161;" /><glyph d="M92 0 97 530H124L129 0ZM141 676Q141 646 110 646Q96 646 88 654Q80 662 80 676Q80 690 88 698Q96 706 110 706Q124 706 132.5 698Q141 690 141 676Z" glyph-name="exclamdown.cap" horiz-adv-x="210" /><glyph d="M37 478H134V565Q134 642 166 675Q198 708 258 708Q279 708 299 704.5Q319 701 339 691L333 665Q316 673 300 676.5Q284 680 261 680Q213 680 188.5 653.5Q164 627 164 560V478H332V453H164V0H134V453H37Z" glyph-name="f" horiz-adv-x="344" unicode="f" /><glyph d="M134 0V453H37V478H134V565Q134 642 166 675Q198 708 258 708Q279 708 299 704.5Q319 701 339 691L333 665Q316 673 300 676.5Q284 680 261 680Q213 680 188.5 653.5Q164 627 164 560V478H332V453H164V0ZM434 610Q434 640 465 640Q495 640 495 610Q495 596 487 588Q479 580 465 580Q451 580 442.5 588Q434 596 434 610ZM449 478H480V0H449Z" glyph-name="fi" horiz-adv-x="586" unicode="&#64257;" /><glyph d="M539 256V230H50V256Z" glyph-name="figuredash" horiz-adv-x="588" unicode="&#8210;" /><glyph d="M539 363V337H50V363Z" glyph-name="figuredash.cap" horiz-adv-x="588" /><glyph glyph-name="figurespace" horiz-adv-x="625" unicode="&#8199;" /><glyph d="M158 673 126 367Q172 405 221 419Q270 433 323 433Q374 433 417 420.5Q460 408 491 382.5Q522 357 539 317.5Q556 278 556 224Q556 173 540 130Q524 87 492.5 56Q461 25 413.5 7.5Q366 -10 303 -10Q229 -10 168 17Q107 44 69 107L93 125Q124 73 175.5 44.5Q227 16 303 16Q361 16 403 32Q445 48 472 76Q499 104 512 142Q525 180 525 223Q525 314 471.5 360Q418 406 317 406Q251 406 204 387Q157 368 113 331L94 340L133 700H519V673Z" glyph-name="five" horiz-adv-x="625" unicode="5" /><glyph d="M152 673 120 367Q166 405 215 419Q264 433 317 433Q368 433 411 420.5Q454 408 485 382.5Q516 357 533 317.5Q550 278 550 224Q550 173 534 130Q518 87 486.5 56Q455 25 407.5 7.5Q360 -10 297 -10Q223 -10 162 17Q101 44 63 107L87 125Q118 73 169.5 44.5Q221 16 297 16Q355 16 397 32Q439 48 466 76Q493 104 506 142Q519 180 519 223Q519 314 465.5 360Q412 406 311 406Q245 406 198 387Q151 368 107 331L88 340L127 700H513V673Z" glyph-name="five.LP" horiz-adv-x="593" /><glyph d="M146 573 115 268Q159 306 205 319.5Q251 333 302 333Q351 333 391.5 320.5Q432 308 461.5 282.5Q491 257 507.5 217.5Q524 178 524 123Q524 72 508.5 29Q493 -14 463 -44.5Q433 -75 388 -92.5Q343 -110 283 -110Q212 -110 153.5 -83Q95 -56 60 7L83 25Q112 -27 161 -55.5Q210 -84 283 -84Q338 -84 377.5 -68Q417 -52 442.5 -24.5Q468 3 480.5 40.5Q493 78 493 121Q493 212 442.5 259Q392 306 295 306Q233 306 188.5 287Q144 268 102 231L83 240L120 600H488V573Z" glyph-name="five.OP" horiz-adv-x="563" /><glyph d="M158 573 126 267Q172 305 221 319Q270 333 323 333Q374 333 417 320.5Q460 308 491 282.5Q522 257 539 217.5Q556 178 556 124Q556 73 540 30Q524 -13 492.5 -44Q461 -75 413.5 -92.5Q366 -110 303 -110Q229 -110 168 -83Q107 -56 69 7L93 25Q124 -27 175.5 -55.5Q227 -84 303 -84Q361 -84 403 -68Q445 -52 472 -24Q499 4 511.5 42Q524 80 524 123Q524 214 471 260Q418 306 317 306Q251 306 204 287Q157 268 113 231L94 240L133 600H519V573Z" glyph-name="five.OT" horiz-adv-x="625" /><glyph d="M39 0ZM98 184 80 16Q106 36 133.5 44Q161 52 191 52Q251 52 289 23Q327 -6 327 -70Q327 -130 290 -168.5Q253 -207 179 -207Q134 -207 97.5 -191.5Q61 -176 39 -139Q40 -137 49 -130.5Q58 -124 59 -123Q76 -152 105 -167.5Q134 -183 178 -183Q241 -183 270.5 -151Q300 -119 300 -71Q300 -20 270.5 5.5Q241 31 184 31Q148 31 121.5 20.5Q95 10 70 -10L54 -3L77 207H306V184Z" glyph-name="five.inf" horiz-adv-x="356" /><glyph d="M134 0V453H37V478H134V565Q134 642 166 675Q198 708 258 708Q279 708 299 704.5Q319 701 339 691L333 665Q316 673 300 676.5Q284 680 261 680Q213 680 188.5 653.5Q164 627 164 560V478H332V453H164V0ZM531 0Q489 0 466 22Q443 44 443 92V700H474V97Q474 53 491.5 40Q509 27 538 27H581V0Z" glyph-name="fl" horiz-adv-x="592" unicode="&#64258;" /><glyph d="M134 0V453H37V478H134V565Q134 642 166 675Q198 708 258 708Q279 708 299 704.5Q319 701 339 691L333 665Q316 673 300 676.5Q284 680 261 680Q213 680 188.5 653.5Q164 627 164 560V478H332V453H164V0ZM479 700V0H448V700Z" glyph-name="fl.alt" horiz-adv-x="583" /><glyph d="M77 -57 137 328H42L46 353H141L160 473Q172 549 208.5 582.5Q245 616 303 616Q323 616 343 612Q363 608 381 599L372 573Q356 581 341.5 584.5Q327 588 304 588Q257 588 229 561.5Q201 535 190 468L171 353H336L332 328H168L106 -62Q94 -138 61.5 -171.5Q29 -205 -22 -205Q-40 -205 -58 -202.5Q-76 -200 -92 -192L-83 -166Q-69 -172 -55.5 -175Q-42 -178 -22 -178Q17 -178 41.5 -151.5Q66 -125 77 -57Z" glyph-name="florin" horiz-adv-x="380" unicode="&#402;" /><glyph d="M36 195V220L289 700H323L69 223H437V585H468V223H589V195H468V0H437V195Z" glyph-name="four" horiz-adv-x="625" unicode="4" /><glyph d="M50 195V220L303 700H337L83 223H451V585H482V223H603V195H482V0H451V195Z" glyph-name="four.LP" horiz-adv-x="631" /><glyph d="M48 95V119L289 600H320L79 121H428V485H459V121H573V95H459V-100H428V95Z" glyph-name="four.OP" horiz-adv-x="600" /><glyph d="M36 95V120L289 600H323L69 123H437V485H468V123H589V95H468V-100H437V95Z" glyph-name="four.OT" horiz-adv-x="625" /><glyph d="M33 0ZM33 -90V-69L178 207H206L61 -66H265V137H292V-66H360V-90H292V-200H265V-90Z" glyph-name="four.inf" horiz-adv-x="380" /><glyph glyph-name="fourperemspace" horiz-adv-x="250" unicode="&#8197;" /><glyph d="M425 700 93 0H63L397 700Z" glyph-name="fraction" horiz-adv-x="481" unicode="&#8260;" /><glyph d="M462 247Q462 302 448 342.5Q434 383 409.5 409.5Q385 436 351.5 449Q318 462 279 462Q188 462 143.5 404.5Q99 347 99 241Q99 134 143.5 77Q188 20 277 20Q317 20 351 33.5Q385 47 410 75Q435 103 448.5 146Q462 189 462 247ZM492 478V0Q492 -55 475.5 -94Q459 -133 429.5 -157.5Q400 -182 359 -193.5Q318 -205 269 -205Q206 -205 154.5 -183Q103 -161 71 -100L94 -83Q123 -138 167 -158.5Q211 -179 269 -179Q312 -179 347.5 -169.5Q383 -160 408.5 -138.5Q434 -117 448 -82Q462 -47 462 4V121Q438 55 387.5 24.5Q337 -6 271 -6Q173 -6 120.5 57Q68 120 68 241Q68 359 120.5 423.5Q173 488 274 488Q340 488 389 458Q438 428 462 366L466 478Z" glyph-name="g" horiz-adv-x="596" unicode="g" /><glyph d="M68 0ZM462 247Q462 302 448 342.5Q434 383 409.5 409.5Q385 436 351.5 449Q318 462 279 462Q188 462 143.5 404.5Q99 347 99 241Q99 134 143.5 77Q188 20 277 20Q317 20 351 33.5Q385 47 410 75Q435 103 448.5 146Q462 189 462 247ZM492 478V0Q492 -55 475.5 -94Q459 -133 429.5 -157.5Q400 -182 359 -193.5Q318 -205 269 -205Q206 -205 154.5 -183Q103 -161 71 -100L94 -83Q123 -138 167 -158.5Q211 -179 269 -179Q312 -179 347.5 -169.5Q383 -160 408.5 -138.5Q434 -117 448 -82Q462 -47 462 4V121Q438 55 387.5 24.5Q337 -6 271 -6Q173 -6 120.5 57Q68 120 68 241Q68 359 120.5 423.5Q173 488 274 488Q340 488 389 458Q438 428 462 366L466 478ZM370 669H396Q396 610 364 587Q332 564 276 564Q220 564 188.5 587Q157 610 157 669H182Q182 621 206.5 603.5Q231 586 276 586Q321 586 345.5 603.5Q370 621 370 669Z" glyph-name="gbreve" horiz-adv-x="596" unicode="&#287;" /><glyph d="M68 0ZM278 649 183 563H147V565L265 671H292L410 565V563H372ZM462 247Q462 302 448 342.5Q434 383 409.5 409.5Q385 436 351.5 449Q318 462 279 462Q188 462 143.5 404.5Q99 347 99 241Q99 134 143.5 77Q188 20 277 20Q317 20 351 33.5Q385 47 410 75Q435 103 448.5 146Q462 189 462 247ZM492 478V0Q492 -55 475.5 -94Q459 -133 429.5 -157.5Q400 -182 359 -193.5Q318 -205 269 -205Q206 -205 154.5 -183Q103 -161 71 -100L94 -83Q123 -138 167 -158.5Q211 -179 269 -179Q312 -179 347.5 -169.5Q383 -160 408.5 -138.5Q434 -117 448 -82Q462 -47 462 4V121Q438 55 387.5 24.5Q337 -6 271 -6Q173 -6 120.5 57Q68 120 68 241Q68 359 120.5 423.5Q173 488 274 488Q340 488 389 458Q438 428 462 366L466 478Z" glyph-name="gcircumflex" horiz-adv-x="596" unicode="&#285;" /><glyph d="M304 728 312 713Q292 703 281 680.5Q270 658 269 632Q288 637 299 628.5Q310 620 310 604Q310 590 302 582.5Q294 575 280 575Q266 575 257 585Q248 595 248 620Q248 655 261.5 686Q275 717 304 728ZM462 247Q462 302 448 342.5Q434 383 409.5 409.5Q385 436 351.5 449Q318 462 279 462Q188 462 143.5 404.5Q99 347 99 241Q99 134 143.5 77Q188 20 277 20Q317 20 351 33.5Q385 47 410 75Q435 103 448.5 146Q462 189 462 247ZM492 478V0Q492 -55 475.5 -94Q459 -133 429.5 -157.5Q400 -182 359 -193.5Q318 -205 269 -205Q206 -205 154.5 -183Q103 -161 71 -100L94 -83Q123 -138 167 -158.5Q211 -179 269 -179Q312 -179 347.5 -169.5Q383 -160 408.5 -138.5Q434 -117 448 -82Q462 -47 462 4V121Q438 55 387.5 24.5Q337 -6 271 -6Q173 -6 120.5 57Q68 120 68 241Q68 359 120.5 423.5Q173 488 274 488Q340 488 389 458Q438 428 462 366L466 478Z" glyph-name="gcommaaccent" horiz-adv-x="596" unicode="&#291;" /><glyph d="M68 0ZM462 247Q462 302 448 342.5Q434 383 409.5 409.5Q385 436 351.5 449Q318 462 279 462Q188 462 143.5 404.5Q99 347 99 241Q99 134 143.5 77Q188 20 277 20Q317 20 351 33.5Q385 47 410 75Q435 103 448.5 146Q462 189 462 247ZM492 478V0Q492 -55 475.5 -94Q459 -133 429.5 -157.5Q400 -182 359 -193.5Q318 -205 269 -205Q206 -205 154.5 -183Q103 -161 71 -100L94 -83Q123 -138 167 -158.5Q211 -179 269 -179Q312 -179 347.5 -169.5Q383 -160 408.5 -138.5Q434 -117 448 -82Q462 -47 462 4V121Q438 55 387.5 24.5Q337 -6 271 -6Q173 -6 120.5 57Q68 120 68 241Q68 359 120.5 423.5Q173 488 274 488Q340 488 389 458Q438 428 462 366L466 478ZM249 610Q249 640 280 640Q310 640 310 610Q310 580 280 580Q249 580 249 610Z" glyph-name="gdotaccent" horiz-adv-x="596" unicode="&#289;" /><glyph d="M322 362H282V387H323Q357 387 384 398Q411 409 429 429Q447 449 456.5 476.5Q466 504 466 537Q466 607 423.5 644Q381 681 305 681Q229 681 183 635Q137 589 137 490V1H106V493Q106 557 124 599Q142 641 171 665Q200 689 235.5 698.5Q271 708 306 708Q354 708 389.5 695Q425 682 449 659.5Q473 637 485 605.5Q497 574 497 537Q497 478 469.5 437Q442 396 392 378Q470 364 507.5 315Q545 266 545 194Q545 149 532.5 112.5Q520 76 494.5 49.5Q469 23 431 8.5Q393 -6 341 -6Q321 -6 291.5 -2Q262 2 227 18L235 43Q265 29 290 25Q315 21 335 21Q421 21 467.5 62.5Q514 104 514 193Q514 271 466.5 316.5Q419 362 322 362Z" glyph-name="germandbls" horiz-adv-x="598" unicode="&#223;" /><glyph d="M293 563 193 667V671H236L320 566V563Z" glyph-name="grave" horiz-adv-x="600" unicode="`" /><glyph d="M102 126 86 146 316 310 86 474 102 495 351 319V304Z" glyph-name="greater" horiz-adv-x="434" unicode="&gt;" /><glyph d="M104 139 91 159 316 316 90 474 105 495 353 324V310ZM358 26V0H86V26Z" glyph-name="greaterequal" horiz-adv-x="447" unicode="&#8805;" /><glyph d="M441 0 248 238V241L439 478H475L282 240L477 0ZM257 0 66 238V241L257 478H293L100 239L294 0Z" glyph-name="guillemotleft" horiz-adv-x="587" unicode="&#171;" /><glyph d="M146 480 339 242V239L148 2H112L305 240L110 480ZM330 480 521 242V239L330 2H294L487 241L293 480Z" glyph-name="guillemotright" horiz-adv-x="587" unicode="&#187;" /><glyph d="M257 0 66 238V241L257 478H293L100 239L294 0Z" glyph-name="guilsinglleft" horiz-adv-x="403" unicode="&#8249;" /><glyph d="M146 478 337 240V237L146 0H110L303 239L109 478Z" glyph-name="guilsinglright" horiz-adv-x="403" unicode="&#8250;" /><glyph d="M134 700V349Q157 418 209.5 453Q262 488 335 488Q420 488 464.5 443.5Q509 399 509 305V0H478V296Q478 342 467 373.5Q456 405 436 424.5Q416 444 388 452.5Q360 461 326 461Q282 461 247.5 446Q213 431 189 403.5Q165 376 151 338Q137 300 134 255V0H103V700Z" glyph-name="h" horiz-adv-x="605" unicode="h" /><glyph glyph-name="hairspace" horiz-adv-x="100" unicode="&#8202;" /><glyph d="M29 569V592H115V700H146V592H320V569H146V349Q169 418 221.5 453Q274 488 347 488Q432 488 476.5 443.5Q521 399 521 305V0H490V296Q490 342 479 373.5Q468 405 448 424.5Q428 444 400 452.5Q372 461 338 461Q294 461 259.5 446Q225 431 201 403.5Q177 376 163 338Q149 300 146 255V0H115V569Z" glyph-name="hbar" horiz-adv-x="617" unicode="&#295;" /><glyph d="M0 0ZM120 824 25 738H-11V740L107 846H134L252 740V738H214ZM134 700V349Q157 418 209.5 453Q262 488 335 488Q420 488 464.5 443.5Q509 399 509 305V0H478V296Q478 342 467 373.5Q456 405 436 424.5Q416 444 388 452.5Q360 461 326 461Q282 461 247.5 446Q213 431 189 403.5Q165 376 151 338Q137 300 134 255V0H103V700Z" glyph-name="hcircumflex" horiz-adv-x="605" unicode="&#293;" /><glyph d="M472 667 370 563H345V566L428 671H472ZM364 667 270 563H244V566L323 671H364Z" glyph-name="hungarumlaut" horiz-adv-x="600" unicode="&#733;" /><glyph d="M350 256V230H50V256Z" glyph-name="hyphen" horiz-adv-x="400" unicode="-" /><glyph d="M350 363V337H50V363Z" glyph-name="hyphen.cap" horiz-adv-x="400" /><glyph d="M91 610Q91 640 121 640Q152 640 152 610Q152 596 143.5 588Q135 580 121 580Q107 580 99 588Q91 596 91 610ZM106 478H137V0H106Z" glyph-name="i" horiz-adv-x="243" unicode="i" /><glyph d="M104 0ZM231 667 131 563H104V566L188 671H231ZM106 478H137V0H106Z" glyph-name="iacute" horiz-adv-x="243" unicode="&#237;" /><glyph d="M1 0ZM106 478H137V0H106ZM214 669H240Q240 610 208 587Q176 564 120 564Q64 564 32.5 587Q1 610 1 669H26Q26 621 50.5 603.5Q75 586 120 586Q165 586 189.5 603.5Q214 621 214 669Z" glyph-name="ibreve" horiz-adv-x="243" unicode="&#301;" /><glyph d="M0 0ZM122 649 27 563H-9V565L109 671H136L254 565V563H216ZM106 478H137V0H106Z" glyph-name="icircumflex" horiz-adv-x="243" unicode="&#238;" /><glyph d="M23 0ZM158 610Q158 624 166.5 632Q175 640 189 640Q220 640 220 610Q220 580 189 580Q175 580 166.5 588Q158 596 158 610ZM23 610Q23 624 31 632Q39 640 53 640Q84 640 84 610Q84 580 53 580Q39 580 31 588Q23 596 23 610ZM106 478H137V0H106Z" glyph-name="idieresis" horiz-adv-x="243" unicode="&#239;" /><glyph d="M91 610Q91 640 121 640Q152 640 152 610Q152 596 143.5 588Q135 580 121 580Q107 580 99 588Q91 596 91 610ZM106 478H137V0H106Z" glyph-name="idotaccent" horiz-adv-x="243" /><glyph d="M12 0ZM106 478H137V0H106ZM112 563 12 667V671H55L139 566V563Z" glyph-name="igrave" horiz-adv-x="243" unicode="&#236;" /><glyph d="M91 0ZM91 610Q91 640 121 640Q152 640 152 610Q152 596 143.5 588Q135 580 121 580Q107 580 99 588Q91 596 91 610ZM106 478H137V0H106ZM334 610Q334 640 364 640Q395 640 395 610Q395 596 386.5 588Q378 580 364 580Q350 580 342 588Q334 596 334 610ZM349 -56V478H380V-62Q380 -138 352 -171.5Q324 -205 271 -205Q252 -205 235 -202.5Q218 -200 198 -192L204 -167Q220 -173 234 -176Q248 -179 268 -179Q309 -179 329 -152Q349 -125 349 -56Z" glyph-name="ij" horiz-adv-x="485" unicode="&#307;" /><glyph d="M8 0ZM106 478H137V0H106ZM235 626V603H8V626Z" glyph-name="imacron" horiz-adv-x="243" unicode="&#299;" /><glyph d="M91 609Q91 639 121 639Q152 639 152 609Q152 579 121 579Q91 579 91 609ZM92 -198Q74 -198 57 -193.5Q40 -189 27 -179Q14 -169 6.5 -152.5Q-1 -136 -1 -112Q-1 -86 8.5 -64.5Q18 -43 33 -27Q48 -11 67 -1Q86 9 106 13V478H137V0H126Q107 -2 88.5 -11Q70 -20 56 -34.5Q42 -49 33 -68Q24 -87 24 -109Q24 -147 44.5 -161Q65 -175 94 -175Q112 -175 127.5 -171Q143 -167 158 -156L166 -177Q132 -198 92 -198Z" glyph-name="iogonek" horiz-adv-x="243" unicode="&#303;" /><glyph d="M0 0ZM106 478H137V0H106ZM221 656H246Q246 633 240 618.5Q234 604 224 595.5Q214 587 202.5 584Q191 581 181 581Q160 581 145 589.5Q130 598 117 608.5Q104 619 91 627.5Q78 636 61 636Q47 636 34 626Q21 616 20 585H-5Q-5 608 1 622.5Q7 637 16.5 645.5Q26 654 37 657Q48 660 59 660Q80 660 95 651.5Q110 643 123 632.5Q136 622 149.5 613.5Q163 605 181 605Q198 605 209 616Q220 627 221 656Z" glyph-name="itilde" horiz-adv-x="243" unicode="&#297;" /><glyph d="M91 610Q91 640 121 640Q152 640 152 610Q152 596 143.5 588Q135 580 121 580Q107 580 99 588Q91 596 91 610ZM106 -56V478H137V-62Q137 -138 109 -171.5Q81 -205 28 -205Q9 -205 -8 -202.5Q-25 -200 -45 -192L-39 -167Q-23 -173 -9 -176Q5 -179 25 -179Q66 -179 86 -152Q106 -125 106 -56Z" glyph-name="j" horiz-adv-x="243" unicode="j" /><glyph d="M0 0ZM106 -56V478H137V-62Q137 -138 109 -171.5Q81 -205 28 -205Q9 -205 -8 -202.5Q-25 -200 -45 -192L-39 -167Q-23 -173 -9 -176Q5 -179 25 -179Q66 -179 86 -152Q106 -125 106 -56ZM122 649 27 563H-9V565L109 671H136L254 565V563H216Z" glyph-name="jcircumflex" horiz-adv-x="243" unicode="&#309;" /><glyph d="M104 0V700H135V173L424 478H462L262 268L477 0H439L242 247L135 136V0Z" glyph-name="k" horiz-adv-x="501" unicode="k" /><glyph d="M104 0V700H135V0ZM434 0 151 233V236L419 478H455L190 236L474 0Z" glyph-name="k.alt" horiz-adv-x="498" /><glyph d="M104 0ZM240 -224 232 -209Q252 -199 263 -176.5Q274 -154 275 -128Q256 -133 245 -124.5Q234 -116 234 -100Q234 -86 242 -78.5Q250 -71 264 -71Q278 -71 287 -81Q296 -91 296 -116Q296 -151 282.5 -182Q269 -213 240 -224ZM104 0V700H135V173L424 478H462L262 268L477 0H439L242 247L135 136V0Z" glyph-name="kcommaaccent" horiz-adv-x="501" unicode="&#311;" /><glyph d="M104 0ZM240 -224 232 -209Q252 -199 263 -176.5Q274 -154 275 -128Q256 -133 245 -124.5Q234 -116 234 -100Q234 -86 242 -78.5Q250 -71 264 -71Q278 -71 287 -81Q296 -91 296 -116Q296 -151 282.5 -182Q269 -213 240 -224ZM104 0V700H135V0ZM434 0 151 233V236L419 478H455L190 236L474 0Z" glyph-name="kcommaaccent.alt" horiz-adv-x="498" /><glyph d="M104 0V478H135V173L424 478H462L262 268L477 0H439L242 247L135 136V0Z" glyph-name="kgreenlandic" horiz-adv-x="501" unicode="&#312;" /><glyph d="M187 0Q145 0 122 22Q99 44 99 92V700H130V97Q130 53 147.5 40Q165 27 194 27H237V0Z" glyph-name="l" horiz-adv-x="248" unicode="l" /><glyph d="M135 700V0H104V700Z" glyph-name="l.alt" horiz-adv-x="238" /><glyph d="M100 0ZM229 889 129 785H102V788L186 893H229ZM188 0Q146 0 123 22Q100 44 100 92V700H131V97Q131 53 148.5 40Q166 27 195 27H238V0Z" glyph-name="lacute" horiz-adv-x="253" unicode="&#314;" /><glyph d="M100 0ZM267 515H245L252 700H287ZM188 0Q146 0 123 22Q100 44 100 92V700H131V97Q131 53 148.5 40Q166 27 195 27H238V0Z" glyph-name="lcaron" horiz-adv-x="278" unicode="&#318;" /><glyph d="M99 0ZM187 0Q145 0 122 22Q99 44 99 92V700H130V97Q130 53 147.5 40Q165 27 194 27H237V0ZM138 -224 130 -209Q150 -199 161 -176.5Q172 -154 173 -128Q154 -133 143 -124.5Q132 -116 132 -100Q132 -86 140 -78.5Q148 -71 162 -71Q176 -71 185 -81Q194 -91 194 -116Q194 -151 180.5 -182Q167 -213 138 -224Z" glyph-name="lcommaaccent" horiz-adv-x="248" unicode="&#316;" /><glyph d="M100 0ZM188 0Q146 0 123 22Q100 44 100 92V700H131V97Q131 53 148.5 40Q166 27 195 27H238V0ZM236 297Q236 327 267 327Q297 327 297 297Q297 267 267 267Q236 267 236 297Z" glyph-name="ldot" horiz-adv-x="303" unicode="&#320;" /><glyph d="M332 495 348 475 119 311 348 148 332 126 83 303V318Z" glyph-name="less" horiz-adv-x="434" unicode="&lt;" /><glyph d="M339 495 352 474 127 317 353 160 338 139 90 309V324ZM86 0V26H358V0Z" glyph-name="lessequal" horiz-adv-x="447" unicode="&#8804;" /><glyph d="M40 643Q40 671 59.5 691Q79 711 108 711Q137 711 157 691Q177 671 177 643Q177 614 157 594Q137 574 108 574Q79 574 59.5 594Q40 614 40 643ZM154 643Q154 663 141 677Q128 691 108 691Q89 691 75.5 677Q62 663 62 643Q62 623 75.5 609Q89 595 108 595Q128 595 141 609Q154 623 154 643Z" glyph-name="logicalnot" horiz-adv-x="217" unicode="&#172;" /><glyph d="M256 0H206Q164 0 141 22Q118 44 118 92V315L8 210V243L118 347V700H149V372L271 488V456L149 340V97Q149 53 166.5 40Q184 27 213 27H256Z" glyph-name="lslash" horiz-adv-x="267" unicode="&#322;" /><glyph d="M103 0V478H130L133 354Q156 421 204 454.5Q252 488 315 488Q381 488 419.5 452Q458 416 466 347Q486 417 536 452.5Q586 488 653 488Q730 488 769 444Q808 400 808 307V0H777V297Q777 343 767.5 374.5Q758 406 741 425Q724 444 699.5 452.5Q675 461 645 461Q568 461 522 407.5Q476 354 471 262V0H440V296Q440 342 430.5 373.5Q421 405 403 424.5Q385 444 360.5 452.5Q336 461 306 461Q230 461 185.5 407.5Q141 354 134 257V0Z" glyph-name="m" horiz-adv-x="904" unicode="m" /><glyph d="M424 626V603H197V626Z" glyph-name="macron" horiz-adv-x="600" unicode="&#175;" /><glyph d="M437 318V292H50V318Z" glyph-name="minus" horiz-adv-x="487" unicode="&#8722;" /><glyph d="M40 -11ZM269 -11V-33H40V-11Z" glyph-name="minus.inf" horiz-adv-x="309" /><glyph d="M123 711Q158 711 180.5 688Q203 665 203 632Q203 600 180.5 577Q158 554 123 554Q89 554 66.5 577Q44 600 44 632Q44 665 66.5 688Q89 711 123 711ZM123 686Q100 686 85 670.5Q70 655 70 632Q70 609 85 593.5Q100 578 123 578Q146 578 161 593.5Q176 609 176 632Q176 655 161 670.5Q146 686 123 686Z" glyph-name="mu" horiz-adv-x="247" unicode="&#956;" /><glyph d="M89 160 71 178 206 313 70 450 89 469 225 332 362 469 380 451 244 315 380 179 361 159 224 296Z" glyph-name="multiply" horiz-adv-x="450" unicode="&#215;" /><glyph d="M103 478H130L134 352Q158 420 210 454Q262 488 335 488Q420 488 464.5 443.5Q509 399 509 305V0H478V296Q478 342 467 373.5Q456 405 436.5 424.5Q417 444 388.5 452.5Q360 461 326 461Q282 461 248 446Q214 431 189.5 403.5Q165 376 151 338Q137 300 134 255V0H103Z" glyph-name="n" horiz-adv-x="605" unicode="n" /><glyph d="M103 0ZM419 667 319 563H292V566L376 671H419ZM103 478H130L134 352Q158 420 210 454Q262 488 335 488Q420 488 464.5 443.5Q509 399 509 305V0H478V296Q478 342 467 373.5Q456 405 436.5 424.5Q417 444 388.5 452.5Q360 461 326 461Q282 461 248 446Q214 431 189.5 403.5Q165 376 151 338Q137 300 134 255V0H103Z" glyph-name="nacute" horiz-adv-x="605" unicode="&#324;" /><glyph d="M103 0ZM308 585 403 671H440V669L322 563H295L177 669V671H214ZM103 478H130L134 352Q158 420 210 454Q262 488 335 488Q420 488 464.5 443.5Q509 399 509 305V0H478V296Q478 342 467 373.5Q456 405 436.5 424.5Q417 444 388.5 452.5Q360 461 326 461Q282 461 248 446Q214 431 189.5 403.5Q165 376 151 338Q137 300 134 255V0H103Z" glyph-name="ncaron" horiz-adv-x="605" unicode="&#328;" /><glyph d="M103 0ZM283 -224 275 -209Q295 -199 306 -176.5Q317 -154 318 -128Q299 -133 288 -124.5Q277 -116 277 -100Q277 -86 285 -78.5Q293 -71 307 -71Q321 -71 330 -81Q339 -91 339 -116Q339 -151 325.5 -182Q312 -213 283 -224ZM103 478H130L134 352Q158 420 210 454Q262 488 335 488Q420 488 464.5 443.5Q509 399 509 305V0H478V296Q478 342 467 373.5Q456 405 436.5 424.5Q417 444 388.5 452.5Q360 461 326 461Q282 461 248 446Q214 431 189.5 403.5Q165 376 151 338Q137 300 134 255V0H103Z" glyph-name="ncommaaccent" horiz-adv-x="605" unicode="&#326;" /><glyph d="M505 495Q505 528 492.5 561.5Q480 595 454 622Q428 649 388.5 666.5Q349 684 294 684Q202 684 148 633.5Q94 583 94 483Q94 392 147 341Q200 290 297 290Q343 290 381.5 304Q420 318 447.5 344.5Q475 371 490 409Q505 447 505 495ZM289 -10Q220 -10 165.5 15Q111 40 82 96L106 113Q135 59 184.5 38Q234 17 291 17Q343 17 387 35.5Q431 54 463 95Q495 136 513 201Q531 266 531 360Q531 380 529.5 404Q528 428 524 455Q519 413 501.5 378Q484 343 454.5 317.5Q425 292 385 278Q345 264 294 264Q242 264 199.5 278Q157 292 126.5 319.5Q96 347 79.5 388Q63 429 63 484Q63 588 121.5 649Q180 710 292 710Q349 710 398.5 691.5Q448 673 484.5 631Q521 589 541.5 522Q562 455 562 358Q562 261 542.5 191.5Q523 122 487.5 77Q452 32 401.5 11Q351 -10 289 -10Z" glyph-name="nine" horiz-adv-x="625" unicode="9" /><glyph d="M495 495Q495 528 482.5 561.5Q470 595 444 622Q418 649 378.5 666.5Q339 684 284 684Q192 684 138 633.5Q84 583 84 483Q84 392 137 341Q190 290 287 290Q333 290 371.5 304Q410 318 437.5 344.5Q465 371 480 409Q495 447 495 495ZM279 -10Q210 -10 155.5 15Q101 40 72 96L96 113Q125 59 174.5 38Q224 17 281 17Q333 17 377 35.5Q421 54 453 95Q485 136 503 201Q521 266 521 360Q521 380 519.5 404Q518 428 514 455Q509 413 491.5 378Q474 343 444.5 317.5Q415 292 375 278Q335 264 284 264Q232 264 189.5 278Q147 292 116.5 319.5Q86 347 69.5 388Q53 429 53 484Q53 588 111.5 649Q170 710 282 710Q339 710 388.5 691.5Q438 673 474.5 631Q511 589 531.5 522Q552 455 552 358Q552 261 532.5 191.5Q513 122 477.5 77Q442 32 391.5 11Q341 -10 279 -10Z" glyph-name="nine.LP" horiz-adv-x="632" /><glyph d="M470 395Q470 428 458.5 461.5Q447 495 422.5 522Q398 549 360 566.5Q322 584 270 584Q183 584 132 533.5Q81 483 81 383Q81 292 130.5 241Q180 190 273 190Q317 190 353 204Q389 218 415 244.5Q441 271 455.5 309Q470 347 470 395ZM264 -110Q198 -110 146.5 -85Q95 -60 67 -4L92 13Q120 -41 166 -62Q212 -83 266 -83Q316 -83 358 -64.5Q400 -46 430.5 -5Q461 36 478 101Q495 166 495 260Q495 282 493 308Q491 334 487 364Q485 323 470.5 287Q456 251 428.5 223.5Q401 196 361.5 180Q322 164 270 164Q220 164 179.5 178Q139 192 110 219.5Q81 247 65 288Q49 329 49 384Q49 488 105.5 549Q162 610 268 610Q323 610 370 591.5Q417 573 451.5 531Q486 489 506 422Q526 355 526 258Q526 161 507.5 91.5Q489 22 454.5 -23Q420 -68 371.5 -89Q323 -110 264 -110Z" glyph-name="nine.OP" horiz-adv-x="600" /><glyph d="M505 395Q505 428 492.5 461.5Q480 495 454 522Q428 549 388.5 566.5Q349 584 294 584Q202 584 148 533.5Q94 483 94 383Q94 292 147 241Q200 190 297 190Q343 190 381.5 204Q420 218 447.5 244.5Q475 271 490 309Q505 347 505 395ZM289 -110Q220 -110 165.5 -85Q111 -60 82 -4L106 13Q135 -41 184.5 -62Q234 -83 291 -83Q343 -83 387 -64.5Q431 -46 463 -5Q495 36 513 101Q531 166 531 260Q531 280 529.5 304Q528 328 524 355Q519 313 501.5 278Q484 243 454.5 217.5Q425 192 385 178Q345 164 294 164Q242 164 199.5 178Q157 192 126.5 219.5Q96 247 79.5 288Q63 329 63 384Q63 488 121.5 549Q180 610 292 610Q349 610 398.5 591.5Q448 573 484.5 531Q521 489 541.5 422Q562 355 562 258Q562 161 542.5 91.5Q523 22 487.5 -23Q452 -68 401.5 -89Q351 -110 289 -110Z" glyph-name="nine.OT" horiz-adv-x="625" /><glyph d="M35 0ZM169 -207Q127 -207 94.5 -192Q62 -177 45 -145L64 -130Q81 -159 109 -171Q137 -183 169 -183Q232 -183 268.5 -137.5Q305 -92 304 8V28Q304 40 302 51Q294 6 259.5 -20.5Q225 -47 169 -47Q109 -47 72 -15Q35 17 35 81Q35 142 70 178Q105 214 172 214Q206 214 235.5 203Q265 192 286.5 167.5Q308 143 320 103.5Q332 64 332 8Q332 -105 287.5 -156Q243 -207 169 -207ZM290 86Q290 105 283 123.5Q276 142 261.5 157Q247 172 224.5 181.5Q202 191 172 191Q121 191 91.5 163.5Q62 136 62 82Q62 32 91 4Q120 -24 174 -24Q227 -24 258.5 5Q290 34 290 86Z" glyph-name="nine.inf" horiz-adv-x="384" /><glyph d="M50 351V377H284L390 502H419L313 377H437V351H293L222 267H437V241H202L99 120H70L173 241H50V267H192L264 351Z" glyph-name="notequal" horiz-adv-x="487" unicode="&#8800;" /><glyph d="M103 0ZM103 478H130L134 352Q158 420 210 454Q262 488 335 488Q420 488 464.5 443.5Q509 399 509 305V0H478V296Q478 342 467 373.5Q456 405 436.5 424.5Q417 444 388.5 452.5Q360 461 326 461Q282 461 248 446Q214 431 189.5 403.5Q165 376 151 338Q137 300 134 255V0H103ZM409 656H434Q434 633 428 618.5Q422 604 412 595.5Q402 587 390.5 584Q379 581 369 581Q348 581 333 589.5Q318 598 305 608.5Q292 619 279 627.5Q266 636 249 636Q235 636 222 626Q209 616 208 585H183Q183 608 189 622.5Q195 637 204.5 645.5Q214 654 225 657Q236 660 247 660Q268 660 283 651.5Q298 643 311 632.5Q324 622 337.5 613.5Q351 605 369 605Q386 605 397 616Q408 627 409 656Z" glyph-name="ntilde" horiz-adv-x="605" unicode="&#241;" /><glyph d="M276 455 211 252H437L502 455ZM119 455 127 479H252L323 700H355L284 479H509L581 700H613L541 479H661L653 455H534L469 252H596L588 227H461L389 0H357L429 227H203L131 0H99L171 227H55L63 252H179L244 455Z" glyph-name="numbersign" horiz-adv-x="711" unicode="#" /><glyph d="M68 238Q68 366 124 427Q180 488 289 488Q398 488 453.5 427Q509 366 509 238Q509 111 453.5 50.5Q398 -10 289 -10Q180 -10 124 50Q68 110 68 238ZM478 237Q478 352 432 407Q386 462 289 462Q191 462 145 407Q99 352 99 237Q99 124 145 70Q191 16 289 16Q386 16 432 70Q478 124 478 237Z" glyph-name="o" horiz-adv-x="577" unicode="o" /><glyph d="M68 0ZM399 667 299 563H272V566L356 671H399ZM68 238Q68 366 124 427Q180 488 289 488Q398 488 453.5 427Q509 366 509 238Q509 111 453.5 50.5Q398 -10 289 -10Q180 -10 124 50Q68 110 68 238ZM478 237Q478 352 432 407Q386 462 289 462Q191 462 145 407Q99 352 99 237Q99 124 145 70Q191 16 289 16Q386 16 432 70Q478 124 478 237Z" glyph-name="oacute" horiz-adv-x="577" unicode="&#243;" /><glyph d="M68 0ZM68 238Q68 366 124 427Q180 488 289 488Q398 488 453.5 427Q509 366 509 238Q509 111 453.5 50.5Q398 -10 289 -10Q180 -10 124 50Q68 110 68 238ZM478 237Q478 352 432 407Q386 462 289 462Q191 462 145 407Q99 352 99 237Q99 124 145 70Q191 16 289 16Q386 16 432 70Q478 124 478 237ZM381 669H407Q407 610 375 587Q343 564 287 564Q231 564 199.5 587Q168 610 168 669H193Q193 621 217.5 603.5Q242 586 287 586Q332 586 356.5 603.5Q381 621 381 669Z" glyph-name="obreve" horiz-adv-x="577" unicode="&#335;" /><glyph d="M68 0ZM289 649 194 563H158V565L276 671H303L421 565V563H383ZM68 238Q68 366 124 427Q180 488 289 488Q398 488 453.5 427Q509 366 509 238Q509 111 453.5 50.5Q398 -10 289 -10Q180 -10 124 50Q68 110 68 238ZM478 237Q478 352 432 407Q386 462 289 462Q191 462 145 407Q99 352 99 237Q99 124 145 70Q191 16 289 16Q386 16 432 70Q478 124 478 237Z" glyph-name="ocircumflex" horiz-adv-x="577" unicode="&#244;" /><glyph d="M68 0ZM325 610Q325 624 333.5 632Q342 640 356 640Q387 640 387 610Q387 580 356 580Q342 580 333.5 588Q325 596 325 610ZM190 610Q190 624 198 632Q206 640 220 640Q251 640 251 610Q251 580 220 580Q206 580 198 588Q190 596 190 610ZM68 238Q68 366 124 427Q180 488 289 488Q398 488 453.5 427Q509 366 509 238Q509 111 453.5 50.5Q398 -10 289 -10Q180 -10 124 50Q68 110 68 238ZM478 237Q478 352 432 407Q386 462 289 462Q191 462 145 407Q99 352 99 237Q99 124 145 70Q191 16 289 16Q386 16 432 70Q478 124 478 237Z" glyph-name="odieresis" horiz-adv-x="577" unicode="&#246;" /><glyph d="M68 238Q68 366 124 427Q180 488 289 488Q453 488 493 348Q536 488 692 488Q791 488 842.5 427.5Q894 367 894 252Q894 248 893.5 244.5Q893 241 893 238V231H508Q510 119 558 67.5Q606 16 697 16Q761 16 803.5 40Q846 64 867 117L891 104Q866 44 816.5 17Q767 -10 696 -10Q618 -10 566 24Q514 58 493 129Q452 -10 289 -10Q180 -10 124 50Q68 110 68 238ZM691 462Q603 462 557 410Q511 358 508 256H864Q859 462 691 462ZM476 237Q476 352 431 407Q386 462 289 462Q191 462 145 407Q99 352 99 237Q99 124 145 70Q191 16 289 16Q386 16 431 70Q476 124 476 237Z" glyph-name="oe" horiz-adv-x="950" unicode="&#339;" /><glyph d="M308 -198Q290 -198 273 -193.5Q256 -189 243 -179Q230 -169 222.5 -152.5Q215 -136 215 -112Q215 -83 226.5 -60Q238 -37 256 -20.5Q274 -4 296 5Q318 14 339 16L341 0Q322 -2 304 -11Q286 -20 271.5 -34.5Q257 -49 248.5 -68Q240 -87 240 -109Q240 -147 260.5 -161Q281 -175 310 -175Q328 -175 343.5 -171Q359 -167 374 -156L382 -177Q348 -198 308 -198Z" glyph-name="ogonek" horiz-adv-x="600" unicode="&#731;" /><glyph d="M68 0ZM68 238Q68 366 124 427Q180 488 289 488Q398 488 453.5 427Q509 366 509 238Q509 111 453.5 50.5Q398 -10 289 -10Q180 -10 124 50Q68 110 68 238ZM478 237Q478 352 432 407Q386 462 289 462Q191 462 145 407Q99 352 99 237Q99 124 145 70Q191 16 289 16Q386 16 432 70Q478 124 478 237ZM279 563 179 667V671H222L306 566V563Z" glyph-name="ograve" horiz-adv-x="577" unicode="&#242;" /><glyph d="M68 0ZM443 667 341 563H316V566L399 671H443ZM335 667 241 563H215V566L294 671H335ZM68 238Q68 366 124 427Q180 488 289 488Q398 488 453.5 427Q509 366 509 238Q509 111 453.5 50.5Q398 -10 289 -10Q180 -10 124 50Q68 110 68 238ZM478 237Q478 352 432 407Q386 462 289 462Q191 462 145 407Q99 352 99 237Q99 124 145 70Q191 16 289 16Q386 16 432 70Q478 124 478 237Z" glyph-name="ohungarumlaut" horiz-adv-x="577" unicode="&#337;" /><glyph d="M68 0ZM402 626V603H175V626ZM68 238Q68 366 124 427Q180 488 289 488Q398 488 453.5 427Q509 366 509 238Q509 111 453.5 50.5Q398 -10 289 -10Q180 -10 124 50Q68 110 68 238ZM478 237Q478 352 432 407Q386 462 289 462Q191 462 145 407Q99 352 99 237Q99 124 145 70Q191 16 289 16Q386 16 432 70Q478 124 478 237Z" glyph-name="omacron" horiz-adv-x="577" unicode="&#333;" /><glyph d="M103 0V28H290V658L185 570L170 594L301 700H321V28H521V0Z" glyph-name="one" horiz-adv-x="625" unicode="1" /><glyph d="M167 0H136V658L31 570L16 594L146 700H167Z" glyph-name="one.LP" horiz-adv-x="285" /><glyph d="M163 0H133V558L30 470L16 494L144 600H163Z" glyph-name="one.OP" horiz-adv-x="262" /><glyph d="M116 0V28H293V558L190 470L175 494L303 600H323V28H509V0Z" glyph-name="one.OT" horiz-adv-x="625" /><glyph d="M14 0ZM112 -200H85V173L25 124L14 146L94 208H112Z" glyph-name="one.inf" horiz-adv-x="184" /><glyph d="M14 0ZM451 0V23L614 184Q660 230 675.5 259Q691 288 691 311Q691 351 666 371Q641 391 594 391Q546 391 519.5 372.5Q493 354 474 319L454 334Q476 373 508 393.5Q540 414 595 414Q657 414 687.5 387Q718 360 718 315Q718 299 714 283.5Q710 268 700 250.5Q690 233 673.5 213.5Q657 194 633 170L488 24L741 25V0ZM112 293H85V666L25 617L14 639L94 701H112ZM501 700 169 0H139L473 700Z" glyph-name="onehalf" horiz-adv-x="771" unicode="&#189;" /><glyph d="M14 0ZM112 293H85V666L25 617L14 639L94 701H112ZM501 700 169 0H139L473 700ZM454 110V131L599 407H627L482 134H686V337H713V134H781V110H713V0H686V110Z" glyph-name="onequarter" horiz-adv-x="800" unicode="&#188;" /><glyph d="M14 295ZM112 295H85V668L25 619L14 641L94 703H112Z" glyph-name="onesuperior" horiz-adv-x="184" unicode="&#185;" /><glyph d="M322 256V230H50V256Z" glyph-name="onethirdemdash" horiz-adv-x="371" /><glyph d="M173 380Q235 380 270 419.5Q305 459 306 534V546H200Q140 546 107 525.5Q74 505 74 461Q74 422 99.5 401Q125 380 173 380ZM166 360Q112 360 80.5 385.5Q49 411 49 460Q49 514 88 540Q127 566 199 566H306V573Q306 640 279 664Q252 688 196 688Q151 688 124.5 675Q98 662 81 639L67 656Q86 684 119.5 697Q153 710 199 710Q265 710 298 680.5Q331 651 331 577V367H309L307 449Q275 360 166 360Z" glyph-name="ordfeminine" horiz-adv-x="397" unicode="&#170;" /><glyph d="M328 539Q328 615 292.5 652Q257 689 203 689Q139 689 108 649Q77 609 77 534Q77 459 108.5 420Q140 381 202 381Q258 381 293 419.5Q328 458 328 539ZM331 367 329 448Q312 403 277.5 381.5Q243 360 196 360Q126 360 88.5 404.5Q51 449 51 534Q51 619 89.5 664.5Q128 710 200 710Q245 710 278.5 689Q312 668 329 624L332 702H354V367Z" glyph-name="ordfeminine.school" horiz-adv-x="427" /><glyph d="M51 534Q51 625 91 667.5Q131 710 208 710Q285 710 324.5 667.5Q364 625 364 534Q364 445 324.5 402.5Q285 360 208 360Q131 360 91 402Q51 444 51 534ZM338 534Q338 613 306.5 651Q275 689 208 689Q77 689 77 534Q77 456 108.5 418.5Q140 381 208 381Q274 381 306 418.5Q338 456 338 534Z" glyph-name="ordmasculine" horiz-adv-x="415" unicode="&#186;" /><glyph d="M541 478 470 404Q509 344 509 238Q509 111 453.5 50.5Q398 -10 289 -10Q181 -10 126 48L79 0H44L110 68Q68 129 68 238Q68 366 124 427Q180 488 289 488Q399 488 455 425L506 478ZM131 90 434 404Q388 462 289 462Q191 462 145 407Q99 352 99 237Q99 142 131 90ZM478 237Q478 328 448 382L146 69Q192 16 289 16Q386 16 432 70Q478 124 478 237Z" glyph-name="oslash" horiz-adv-x="580" unicode="&#248;" /><glyph d="M68 0ZM68 238Q68 366 124 427Q180 488 289 488Q398 488 453.5 427Q509 366 509 238Q509 111 453.5 50.5Q398 -10 289 -10Q180 -10 124 50Q68 110 68 238ZM478 237Q478 352 432 407Q386 462 289 462Q191 462 145 407Q99 352 99 237Q99 124 145 70Q191 16 289 16Q386 16 432 70Q478 124 478 237ZM388 656H413Q413 633 407 618.5Q401 604 391 595.5Q381 587 369.5 584Q358 581 348 581Q327 581 312 589.5Q297 598 284 608.5Q271 619 258 627.5Q245 636 228 636Q214 636 201 626Q188 616 187 585H162Q162 608 168 622.5Q174 637 183.5 645.5Q193 654 204 657Q215 660 226 660Q247 660 262 651.5Q277 643 290 632.5Q303 622 316.5 613.5Q330 605 348 605Q365 605 376 616Q387 627 388 656Z" glyph-name="otilde" horiz-adv-x="577" unicode="&#245;" /><glyph d="M134 234Q134 178 148 137Q162 96 186 69Q210 42 243.5 29Q277 16 316 16Q409 16 454.5 74.5Q500 133 500 240Q500 348 457 405Q414 462 326 462Q284 462 249 448Q214 434 188.5 405.5Q163 377 148.5 334.5Q134 292 134 234ZM103 478H130L133 357Q157 423 209.5 455.5Q262 488 333 488Q430 488 481 424.5Q532 361 532 240Q532 120 477 55Q422 -10 319 -10Q257 -10 208.5 18.5Q160 47 134 107V-186H103Z" glyph-name="p" horiz-adv-x="599" unicode="p" /><glyph d="M106 486Q106 392 156 344Q206 296 294 296H374V673H301Q201 673 153.5 629Q106 585 106 486ZM486 673H405V296H486ZM517 700V0H486V268H405V0H374V268H300Q240 268 197 284.5Q154 301 126.5 330.5Q99 360 86.5 400Q74 440 74 487Q74 593 128.5 646.5Q183 700 306 700Z" glyph-name="paragraph" horiz-adv-x="624" unicode="&#182;" /><glyph d="M274 -46 271 -70Q174 -53 120.5 48Q67 149 67 322Q67 495 120.5 596Q174 697 271 714L274 690Q191 673 143.5 580Q96 487 96 322Q96 157 143.5 64Q191 -29 274 -46Z" glyph-name="parenleft" horiz-adv-x="344" unicode="(" /><glyph d="M42 0ZM169 -224 166 -246Q106 -236 74 -177Q42 -118 42 -15Q42 88 74 147.5Q106 207 166 216L169 195Q121 185 93.5 133Q66 81 66 -15Q66 -111 93.5 -163Q121 -215 169 -224Z" glyph-name="parenleft.inf" horiz-adv-x="212" /><glyph d="M70 -46Q153 -29 200.5 64Q248 157 248 322Q248 487 200.5 580Q153 673 70 690L73 714Q170 697 223.5 596Q277 495 277 322Q277 149 223.5 48Q170 -53 73 -70Z" glyph-name="parenright" horiz-adv-x="344" unicode=")" /><glyph d="M43 0ZM46 -246 43 -224Q91 -215 118.5 -163Q146 -111 146 -15Q146 81 118.5 133Q91 185 43 195L46 216Q106 207 138 147.5Q170 88 170 -15Q170 -118 138 -177Q106 -236 46 -246Z" glyph-name="parenright.inf" horiz-adv-x="212" /><glyph d="M48 0ZM638 204Q638 318 678.5 366Q719 414 796 414Q872 414 912 366Q952 318 952 204Q952 91 912 42Q872 -7 796 -7Q719 -7 678.5 41.5Q638 90 638 204ZM924 204Q924 256 915 292Q906 328 889.5 350Q873 372 849.5 381.5Q826 391 796 391Q765 391 741 381.5Q717 372 700.5 350Q684 328 675 292Q666 256 666 204Q666 151 675 115Q684 79 700.5 57.5Q717 36 741 26.5Q765 17 795 17Q825 17 849 26.5Q873 36 889.5 57.5Q906 79 915 115Q924 151 924 204ZM48 497Q48 611 88.5 659Q129 707 206 707Q282 707 322 659Q362 611 362 497Q362 384 322 335Q282 286 206 286Q129 286 88.5 334.5Q48 383 48 497ZM334 497Q334 549 325 585Q316 621 299.5 643Q283 665 259.5 674.5Q236 684 206 684Q175 684 151 674.5Q127 665 110.5 643Q94 621 85 585Q76 549 76 497Q76 444 85 408Q94 372 110.5 350.5Q127 329 151 319.5Q175 310 205 310Q235 310 259 319.5Q283 329 299.5 350.5Q316 372 325 408Q334 444 334 497ZM678 700 346 0H316L650 700Z" glyph-name="percent" horiz-adv-x="1003" unicode="%" /><glyph d="M68 24Q68 54 99 54Q130 54 130 24Q130 10 121.5 2Q113 -6 99 -6Q85 -6 76.5 2Q68 10 68 24Z" glyph-name="period" horiz-adv-x="198" unicode="." /><glyph d="M68 305ZM68 335Q68 365 99 365Q130 365 130 335Q130 321 121.5 313Q113 305 99 305Q85 305 76.5 313Q68 321 68 335Z" glyph-name="periodcentered" horiz-adv-x="198" unicode="&#183;" /><glyph d="M48 0ZM638 204Q638 318 678.5 366Q719 414 796 414Q872 414 912 366Q952 318 952 204Q952 91 912 42Q872 -7 796 -7Q719 -7 678.5 41.5Q638 90 638 204ZM924 204Q924 256 915 292Q906 328 889.5 350Q873 372 849.5 381.5Q826 391 796 391Q765 391 741 381.5Q717 372 700.5 350Q684 328 675 292Q666 256 666 204Q666 151 675 115Q684 79 700.5 57.5Q717 36 741 26.5Q765 17 795 17Q825 17 849 26.5Q873 36 889.5 57.5Q906 79 915 115Q924 151 924 204ZM48 497Q48 611 88.5 659Q129 707 206 707Q282 707 322 659Q362 611 362 497Q362 384 322 335Q282 286 206 286Q129 286 88.5 334.5Q48 383 48 497ZM334 497Q334 549 325 585Q316 621 299.5 643Q283 665 259.5 674.5Q236 684 206 684Q175 684 151 674.5Q127 665 110.5 643Q94 621 85 585Q76 549 76 497Q76 444 85 408Q94 372 110.5 350.5Q127 329 151 319.5Q175 310 205 310Q235 310 259 319.5Q283 329 299.5 350.5Q316 372 325 408Q334 444 334 497ZM1052 204Q1052 318 1092.5 366Q1133 414 1210 414Q1286 414 1326 366Q1366 318 1366 204Q1366 91 1326 42Q1286 -7 1210 -7Q1133 -7 1092.5 41.5Q1052 90 1052 204ZM1338 204Q1338 256 1329 292Q1320 328 1303.5 350Q1287 372 1263.5 381.5Q1240 391 1210 391Q1179 391 1155 381.5Q1131 372 1114.5 350Q1098 328 1089 292Q1080 256 1080 204Q1080 151 1089 115Q1098 79 1114.5 57.5Q1131 36 1155 26.5Q1179 17 1209 17Q1239 17 1263 26.5Q1287 36 1303.5 57.5Q1320 79 1329 115Q1338 151 1338 204ZM678 700 346 0H316L650 700Z" glyph-name="perthousand" horiz-adv-x="1417" unicode="&#8240;" /><glyph d="M258 112H231V292H50V318H231V506H258V318H437V292H258Z" glyph-name="plus" horiz-adv-x="487" unicode="+" /><glyph d="M40 0ZM167 -136H143V-33H40V-11H143V96H167V-11H269V-33H167Z" glyph-name="plus.inf" horiz-adv-x="309" /><glyph d="M258 119H231V296H50V321H231V506H258V321H437V296H258ZM437 26V0H50V26Z" glyph-name="plusminus" horiz-adv-x="487" unicode="&#177;" /><glyph glyph-name="punctuationspace" horiz-adv-x="198" unicode="&#8200;" /><glyph d="M496 -186H466V118Q442 53 391.5 21.5Q341 -10 274 -10Q174 -10 121 54Q68 118 68 239Q68 358 122.5 423Q177 488 280 488Q343 488 392 458.5Q441 429 466 367L469 478H496ZM466 245Q466 300 452 341Q438 382 413.5 409Q389 436 355.5 449Q322 462 283 462Q190 462 144.5 404Q99 346 99 239Q99 130 144.5 73Q190 16 281 16Q321 16 355 30Q389 44 413.5 72Q438 100 452 143Q466 186 466 245Z" glyph-name="q" horiz-adv-x="599" unicode="q" /><glyph d="M217 170V301H236Q339 301 392 353.5Q445 406 445 496Q445 585 388.5 633.5Q332 682 234 682Q158 682 108 653Q58 624 26 556L1 571Q36 645 92.5 677.5Q149 710 236 710Q291 710 335.5 695.5Q380 681 411.5 653.5Q443 626 460 586.5Q477 547 477 498Q477 399 417 340.5Q357 282 248 280V170ZM202 24Q202 38 210 46Q218 54 232 54Q263 54 263 24Q263 10 254.5 2Q246 -6 232 -6Q218 -6 210 2Q202 10 202 24Z" glyph-name="question" horiz-adv-x="500" unicode="?" /><glyph d="M255 336V205H236Q133 205 80 152.5Q27 100 27 10Q27 -79 83.5 -127.5Q140 -176 238 -176Q314 -176 364 -147Q414 -118 446 -50L471 -65Q436 -139 379.5 -171.5Q323 -204 236 -204Q181 -204 136.5 -189.5Q92 -175 60.5 -147.5Q29 -120 12 -80.5Q-5 -41 -5 8Q-5 107 55 165.5Q115 224 224 226V336ZM270 482Q270 468 262 460Q254 452 240 452Q209 452 209 482Q209 496 217.5 504Q226 512 240 512Q254 512 262 504Q270 496 270 482Z" glyph-name="questiondown" horiz-adv-x="490" unicode="&#191;" /><glyph d="M253 533V402H234Q131 402 78 349.5Q25 297 25 207Q25 118 81.5 69.5Q138 21 236 21Q312 21 362 50Q412 79 444 147L469 132Q434 58 377.5 25.5Q321 -7 234 -7Q179 -7 134.5 7.5Q90 22 58.5 49.5Q27 77 10 116.5Q-7 156 -7 205Q-7 304 53 362.5Q113 421 222 423V533ZM268 679Q268 665 260 657Q252 649 238 649Q207 649 207 679Q207 693 215.5 701Q224 709 238 709Q252 709 260 701Q268 693 268 679Z" glyph-name="questiondown.cap" horiz-adv-x="489" /><glyph d="M154 547 152 710H185L182 547ZM93 547H65L63 710H95Z" glyph-name="quotedbl" horiz-adv-x="246" unicode="&quot;" /><glyph d="M73 -101 66 -87Q86 -76 96.5 -53Q107 -30 108 -3Q90 -8 79 0.5Q68 9 68 25Q68 39 76 46.5Q84 54 97 54Q112 54 120.5 44.5Q129 35 129 9Q129 -27 115.5 -58.5Q102 -90 73 -101ZM174 -101 167 -87Q187 -76 197.5 -53Q208 -30 209 -3Q191 -8 180 0.5Q169 9 169 25Q169 39 177 46.5Q185 54 198 54Q213 54 221.5 44.5Q230 35 230 9Q230 -27 216.5 -58.5Q203 -90 174 -101Z" glyph-name="quotedblbase" horiz-adv-x="297" unicode="&#8222;" /><glyph d="M124 720 131 705Q111 694 100 671Q89 648 88 621Q107 626 118 617.5Q129 609 129 593Q129 579 121 571.5Q113 564 99 564Q84 564 75.5 573.5Q67 583 67 609Q67 645 80.5 676.5Q94 708 124 720ZM224 720 231 705Q211 694 200 671Q189 648 188 621Q207 626 218 617.5Q229 609 229 593Q229 579 221 571.5Q213 564 199 564Q184 564 175.5 573.5Q167 583 167 609Q167 645 180.5 676.5Q194 708 224 720Z" glyph-name="quotedblleft" horiz-adv-x="297" unicode="&#8220;" /><glyph d="M65 560ZM72 560 65 575Q85 586 96 609Q107 632 108 659Q89 654 78 662.5Q67 671 67 687Q67 701 75 708.5Q83 716 97 716Q112 716 120.5 706.5Q129 697 129 671Q129 635 115.5 603.5Q102 572 72 560ZM174 560 167 575Q187 586 198 609Q209 632 210 659Q191 654 180 662.5Q169 671 169 687Q169 701 177 708.5Q185 716 199 716Q214 716 222.5 706.5Q231 697 231 671Q231 635 217.5 603.5Q204 572 174 560Z" glyph-name="quotedblright" horiz-adv-x="297" unicode="&#8221;" /><glyph d="M124 720 131 705Q111 694 100 671Q89 648 88 621Q107 626 118 617.5Q129 609 129 593Q129 579 121 571.5Q113 564 99 564Q84 564 75.5 573.5Q67 583 67 609Q67 645 80.5 676.5Q94 708 124 720Z" glyph-name="quoteleft" horiz-adv-x="197" unicode="&#8216;" /><glyph d="M67 560ZM74 560 67 575Q87 586 98 609Q109 632 110 659Q91 654 80 662.5Q69 671 69 687Q69 701 77 708.5Q85 716 99 716Q114 716 122.5 706.5Q131 697 131 671Q131 635 117.5 603.5Q104 572 74 560Z" glyph-name="quoteright" horiz-adv-x="197" unicode="&#8217;" /><glyph d="M74 -101 67 -87Q87 -76 97.5 -53Q108 -30 109 -3Q91 -8 80 0.5Q69 9 69 25Q69 39 77 46.5Q85 54 98 54Q113 54 121.5 44.5Q130 35 130 9Q130 -27 116.5 -58.5Q103 -90 74 -101Z" glyph-name="quotesinglbase" horiz-adv-x="196" unicode="&#8218;" /><glyph d="M65 547 63 710H95L93 547Z" glyph-name="quotesingle" horiz-adv-x="156" unicode="'" /><glyph d="M103 0V478H130L132 343Q155 410 204 446.5Q253 483 317 481V452Q238 454 190 402Q142 350 134 251V0Z" glyph-name="r" horiz-adv-x="332" unicode="r" /><glyph d="M103 0ZM298 667 198 563H171V566L255 671H298ZM103 0V478H130L132 343Q155 410 204 446.5Q253 483 317 481V452Q238 454 190 402Q142 350 134 251V0Z" glyph-name="racute" horiz-adv-x="332" unicode="&#341;" /><glyph d="M79 0ZM210 585 305 671H342V669L224 563H197L79 669V671H116ZM103 0V478H130L132 343Q155 410 204 446.5Q253 483 317 481V452Q238 454 190 402Q142 350 134 251V0Z" glyph-name="rcaron" horiz-adv-x="332" unicode="&#345;" /><glyph d="M86 0ZM94 -224 86 -209Q106 -199 117 -176.5Q128 -154 129 -128Q110 -133 99 -124.5Q88 -116 88 -100Q88 -86 96 -78.5Q104 -71 118 -71Q132 -71 141 -81Q150 -91 150 -116Q150 -151 136.5 -182Q123 -213 94 -224ZM103 0V478H130L132 343Q155 410 204 446.5Q253 483 317 481V452Q238 454 190 402Q142 350 134 251V0Z" glyph-name="rcommaaccent" horiz-adv-x="332" unicode="&#343;" /><glyph d="M58 531Q58 612 105 661Q152 710 237 710Q321 710 368 661Q415 612 415 531Q415 451 368 401.5Q321 352 237 352Q152 352 105 401.5Q58 451 58 531ZM74 531Q74 455 117.5 410.5Q161 366 237 366Q312 366 355.5 410.5Q399 455 399 531Q399 607 355.5 651Q312 695 237 695Q161 695 117.5 651Q74 607 74 531ZM244 611H188V526H242Q258 526 272.5 535Q287 544 287 569Q287 589 276.5 600Q266 611 244 611ZM172 445V625H245Q274 625 289 610.5Q304 596 304 570Q304 549 293.5 535Q283 521 265 515L301 445H283L248 513H188V445Z" glyph-name="registered" horiz-adv-x="473" unicode="&#174;" /><glyph d="M123 560Q93 572 79.5 603.5Q66 635 66 671Q66 697 74.5 706.5Q83 716 98 716Q112 716 120 708.5Q128 701 128 687Q128 671 117 662.5Q106 654 87 659Q88 632 99 609Q110 586 130 575ZM224 560Q194 572 180.5 603.5Q167 635 167 671Q167 697 175.5 706.5Q184 716 199 716Q213 716 221 708.5Q229 701 229 687Q229 671 218 662.5Q207 654 188 659Q189 632 200 609Q211 586 231 575Z" glyph-name="reversequotedblleft" horiz-adv-x="297" /><glyph d="M124 560Q94 572 80.5 603.5Q67 635 67 671Q67 697 75.5 706.5Q84 716 99 716Q113 716 121 708.5Q129 701 129 687Q129 671 118 662.5Q107 654 88 659Q89 632 100 609Q111 586 131 575Z" glyph-name="reversequoteleft" horiz-adv-x="197" /><glyph d="M218 629Q218 667 242.5 691Q267 715 304 715Q339 715 363 691Q387 667 387 629Q387 591 363 567Q339 543 302 543Q267 543 242.5 567Q218 591 218 629ZM238 629Q238 600 257 580.5Q276 561 302 561Q330 561 348.5 580.5Q367 600 367 629Q367 658 348.5 677.5Q330 697 304 697Q276 697 257 677.5Q238 658 238 629Z" glyph-name="ring" horiz-adv-x="600" unicode="&#730;" /><glyph d="M254 15Q334 15 366.5 45Q399 75 399 118Q399 137 393 153Q387 169 372.5 181.5Q358 194 333.5 204Q309 214 271 223L218 235Q150 250 114 279.5Q78 309 78 363Q78 419 118.5 453.5Q159 488 245 488Q299 488 339 472Q379 456 412 415L391 395Q361 433 326.5 447.5Q292 462 244 462Q175 462 141.5 436Q108 410 108 364Q108 326 133 302.5Q158 279 225 264L278 252Q324 241 353.5 228Q383 215 400 198.5Q417 182 423 163Q429 144 429 122Q429 94 419.5 70Q410 46 389 28Q368 10 334 0Q300 -10 252 -10Q186 -10 139 10Q92 30 55 79L77 98Q109 55 150 35Q191 15 254 15Z" glyph-name="s" horiz-adv-x="502" unicode="s" /><glyph d="M55 0ZM354 667 254 563H227V566L311 671H354ZM254 15Q334 15 366.5 45Q399 75 399 118Q399 137 393 153Q387 169 372.5 181.5Q358 194 333.5 204Q309 214 271 223L218 235Q150 250 114 279.5Q78 309 78 363Q78 419 118.5 453.5Q159 488 245 488Q299 488 339 472Q379 456 412 415L391 395Q361 433 326.5 447.5Q292 462 244 462Q175 462 141.5 436Q108 410 108 364Q108 326 133 302.5Q158 279 225 264L278 252Q324 241 353.5 228Q383 215 400 198.5Q417 182 423 163Q429 144 429 122Q429 94 419.5 70Q410 46 389 28Q368 10 334 0Q300 -10 252 -10Q186 -10 139 10Q92 30 55 79L77 98Q109 55 150 35Q191 15 254 15Z" glyph-name="sacute" horiz-adv-x="502" unicode="&#347;" /><glyph d="M55 0ZM243 585 338 671H375V669L257 563H230L112 669V671H149ZM254 15Q334 15 366.5 45Q399 75 399 118Q399 137 393 153Q387 169 372.5 181.5Q358 194 333.5 204Q309 214 271 223L218 235Q150 250 114 279.5Q78 309 78 363Q78 419 118.5 453.5Q159 488 245 488Q299 488 339 472Q379 456 412 415L391 395Q361 433 326.5 447.5Q292 462 244 462Q175 462 141.5 436Q108 410 108 364Q108 326 133 302.5Q158 279 225 264L278 252Q324 241 353.5 228Q383 215 400 198.5Q417 182 423 163Q429 144 429 122Q429 94 419.5 70Q410 46 389 28Q368 10 334 0Q300 -10 252 -10Q186 -10 139 10Q92 30 55 79L77 98Q109 55 150 35Q191 15 254 15Z" glyph-name="scaron" horiz-adv-x="502" unicode="&#353;" /><glyph d="M240 -221Q207 -221 184 -210Q161 -199 144 -173L161 -158Q176 -181 193 -190.5Q210 -200 239 -200Q314 -200 314 -146Q314 -119 296 -109Q278 -99 255 -99Q249 -99 243 -99.5Q237 -100 229 -102L218 -94L236 -10Q176 -8 133 12.5Q90 33 55 79L77 98Q109 55 150 35Q191 15 254 15Q334 15 366.5 45Q399 75 399 118Q399 137 393 153Q387 169 372.5 181.5Q358 194 333.5 204Q309 214 271 223L218 235Q150 250 114 279.5Q78 309 78 363Q78 419 118.5 453.5Q159 488 245 488Q299 488 339 472Q379 456 412 415L391 395Q361 433 326.5 447.5Q292 462 244 462Q175 462 141.5 436Q108 410 108 364Q108 326 133 302.5Q158 279 225 264L278 252Q324 241 353.5 228Q383 215 400 198.5Q417 182 423 163Q429 144 429 122Q429 94 419.5 70Q410 46 390 28Q370 10 337.5 0Q305 -10 260 -10L245 -82Q247 -81 252 -81H263Q277 -81 290.5 -84.5Q304 -88 315 -95.5Q326 -103 332.5 -115.5Q339 -128 339 -146Q339 -183 312.5 -202Q286 -221 240 -221Z" glyph-name="scedilla" horiz-adv-x="502" unicode="&#351;" /><glyph d="M55 0ZM245 649 150 563H114V565L232 671H259L377 565V563H339ZM254 15Q334 15 366.5 45Q399 75 399 118Q399 137 393 153Q387 169 372.5 181.5Q358 194 333.5 204Q309 214 271 223L218 235Q150 250 114 279.5Q78 309 78 363Q78 419 118.5 453.5Q159 488 245 488Q299 488 339 472Q379 456 412 415L391 395Q361 433 326.5 447.5Q292 462 244 462Q175 462 141.5 436Q108 410 108 364Q108 326 133 302.5Q158 279 225 264L278 252Q324 241 353.5 228Q383 215 400 198.5Q417 182 423 163Q429 144 429 122Q429 94 419.5 70Q410 46 389 28Q368 10 334 0Q300 -10 252 -10Q186 -10 139 10Q92 30 55 79L77 98Q109 55 150 35Q191 15 254 15Z" glyph-name="scircumflex" horiz-adv-x="502" unicode="&#349;" /><glyph d="M55 0ZM235 -224 227 -209Q247 -199 258 -176.5Q269 -154 270 -128Q251 -133 240 -124.5Q229 -116 229 -100Q229 -86 237 -78.5Q245 -71 259 -71Q273 -71 282 -81Q291 -91 291 -116Q291 -151 277.5 -182Q264 -213 235 -224ZM254 15Q334 15 366.5 45Q399 75 399 118Q399 137 393 153Q387 169 372.5 181.5Q358 194 333.5 204Q309 214 271 223L218 235Q150 250 114 279.5Q78 309 78 363Q78 419 118.5 453.5Q159 488 245 488Q299 488 339 472Q379 456 412 415L391 395Q361 433 326.5 447.5Q292 462 244 462Q175 462 141.5 436Q108 410 108 364Q108 326 133 302.5Q158 279 225 264L278 252Q324 241 353.5 228Q383 215 400 198.5Q417 182 423 163Q429 144 429 122Q429 94 419.5 70Q410 46 389 28Q368 10 334 0Q300 -10 252 -10Q186 -10 139 10Q92 30 55 79L77 98Q109 55 150 35Q191 15 254 15Z" glyph-name="scommaaccent" horiz-adv-x="502" unicode="&#537;" /><glyph d="M428 335Q428 353 422 369Q416 385 401.5 398.5Q387 412 362.5 422Q338 432 302 440L261 449Q241 453 216.5 450.5Q192 448 170.5 436.5Q149 425 134.5 405Q120 385 120 354Q119 319 146 292Q173 265 240 250L282 240Q302 236 327.5 238Q353 240 375.5 251Q398 262 413 282.5Q428 303 428 335ZM265 -22Q201 -22 154 -2Q107 18 71 67L93 84Q124 42 164.5 22.5Q205 3 267 3Q307 3 334 10.5Q361 18 377.5 31.5Q394 45 401.5 63.5Q409 82 409 103Q409 123 403 139.5Q397 156 383 169.5Q369 183 344 193.5Q319 204 282 213L236 223Q167 240 129 270.5Q91 301 91 356Q91 398 119.5 429.5Q148 461 208 468Q161 485 135 514.5Q109 544 109 589Q109 643 145.5 676.5Q182 710 265 710Q317 710 356.5 694Q396 678 428 639L408 620Q378 657 344.5 671Q311 685 265 685Q199 685 168.5 660.5Q138 636 138 589Q138 554 165 523.5Q192 493 257 478L306 467Q355 455 385 440.5Q415 426 431 409.5Q447 393 452.5 375Q458 357 458 338Q458 293 429 261Q400 229 344 221Q373 210 391.5 197.5Q410 185 420.5 170.5Q431 156 435 139.5Q439 123 439 105Q439 50 399.5 14.5Q360 -21 265 -22Z" glyph-name="section" horiz-adv-x="519" unicode="&#167;" /><glyph d="M66 0ZM73 -102 66 -87Q86 -76 97 -53Q108 -30 109 -3Q90 -8 79 0.5Q68 9 68 25Q68 39 76 46.5Q84 54 98 54Q113 54 121.5 44.5Q130 35 130 9Q130 -27 116.5 -58.5Q103 -90 73 -102ZM68 419Q68 449 99 449Q130 449 130 419Q130 405 121.5 397Q113 389 99 389Q85 389 76.5 397Q68 405 68 419Z" glyph-name="semicolon" horiz-adv-x="198" unicode=";" /><glyph d="M210 0Q210 90 229.5 186.5Q249 283 285 373.5Q321 464 373 542Q425 620 491 673H87V700H538V675Q472 633 418.5 559.5Q365 486 326 395Q287 304 265 202Q243 100 241 0Z" glyph-name="seven" horiz-adv-x="625" unicode="7" /><glyph d="M166 0Q166 90 185.5 186.5Q205 283 241 373.5Q277 464 329 542Q381 620 447 673H42V700H493V675Q427 633 373.5 559.5Q320 486 281.5 395Q243 304 221 202Q199 100 197 0Z" glyph-name="seven.LP" horiz-adv-x="491" /><glyph d="M158 -100Q158 -10 176.5 86.5Q195 183 229.5 273.5Q264 364 313 442Q362 520 425 573H41V600H469V575Q407 533 355.5 459.5Q304 386 267.5 295Q231 204 210 102Q189 0 187 -100Z" glyph-name="seven.OP" horiz-adv-x="467" /><glyph d="M210 -100Q210 -10 229.5 86.5Q249 183 285 273.5Q321 364 373 442Q425 520 491 573H87V600H538V575Q472 533 418.5 459.5Q365 386 326 295Q287 204 265 102Q243 0 241 -100Z" glyph-name="seven.OT" horiz-adv-x="625" /><glyph d="M29 0ZM128 -200H100Q100 -148 111 -93.5Q122 -39 143 12.5Q164 64 193.5 108Q223 152 260 183H29V207H295V186Q258 161 227.5 119.5Q197 78 175 26.5Q153 -25 141 -83.5Q129 -142 128 -200Z" glyph-name="seven.inf" horiz-adv-x="298" /><glyph d="M333 -10Q276 -10 226.5 9.5Q177 29 140.5 71.5Q104 114 83.5 181Q63 248 63 342Q63 439 82.5 508.5Q102 578 138 623Q174 668 224.5 689Q275 710 337 710Q406 710 458.5 685Q511 660 540 604L516 587Q487 641 439 662Q391 683 335 683Q283 683 239 664.5Q195 646 163 605Q131 564 113 499Q95 434 95 340Q95 320 96.5 293.5Q98 267 102 240Q106 283 124 319Q142 355 171.5 381Q201 407 241.5 421Q282 435 332 435Q383 435 425.5 421Q468 407 498.5 379.5Q529 352 546 311Q563 270 563 216Q563 112 504 51Q445 -10 333 -10ZM120 205Q120 172 132.5 138.5Q145 105 171 78Q197 51 237 33.5Q277 16 332 16Q423 16 477 66.5Q531 117 531 215Q531 306 478.5 357Q426 408 328 408Q281 408 243 394Q205 380 177.5 354Q150 328 135 290.5Q120 253 120 205Z" glyph-name="six" horiz-adv-x="625" unicode="6" /><glyph d="M350 -10Q293 -10 243.5 9.5Q194 29 157.5 71.5Q121 114 100.5 181Q80 248 80 342Q80 439 99.5 508.5Q119 578 155 623Q191 668 241.5 689Q292 710 354 710Q423 710 475.5 685Q528 660 557 604L533 587Q504 641 456 662Q408 683 352 683Q300 683 256 664.5Q212 646 180 605Q148 564 130 499Q112 434 112 340Q112 320 113.5 293.5Q115 267 119 240Q123 283 141 319Q159 355 188.5 381Q218 407 258.5 421Q299 435 349 435Q400 435 442.5 421Q485 407 515.5 379.5Q546 352 563 311Q580 270 580 216Q580 112 521 51Q462 -10 350 -10ZM137 205Q137 172 149.5 138.5Q162 105 188 78Q214 51 254 33.5Q294 16 349 16Q440 16 494 66.5Q548 117 548 215Q548 306 495.5 357Q443 408 345 408Q298 408 260 394Q222 380 194.5 354Q167 328 152 290.5Q137 253 137 205Z" glyph-name="six.LP" horiz-adv-x="632" /><glyph d="M334 -10Q278 -10 231 10Q184 30 149.5 72.5Q115 115 95.5 182Q76 249 76 342Q76 439 94.5 508.5Q113 578 147.5 623Q182 668 230 689Q278 710 337 710Q403 710 453.5 685Q504 660 531 604L506 587Q479 641 433.5 662Q388 683 335 683Q285 683 243.5 664.5Q202 646 171.5 605Q141 564 124 499Q107 434 107 340Q107 319 108.5 292.5Q110 266 114 237Q117 279 132.5 315.5Q148 352 176 378.5Q204 405 243 420Q282 435 332 435Q431 435 491.5 380Q552 325 552 216Q552 112 496 51Q440 -10 334 -10ZM131 205Q131 172 144 138.5Q157 105 182 78Q207 51 244.5 33.5Q282 16 332 16Q419 16 470 66.5Q521 117 521 215Q521 306 471.5 357Q422 408 329 408Q285 408 248.5 394Q212 380 186 354Q160 328 145.5 290.5Q131 253 131 205Z" glyph-name="six.OP" horiz-adv-x="600" /><glyph d="M332 -10Q275 -10 225.5 9.5Q176 29 139.5 71.5Q103 114 82.5 181Q62 248 62 342Q62 439 81.5 508.5Q101 578 137 623Q173 668 223.5 689Q274 710 336 710Q405 710 457.5 685Q510 660 539 604L515 587Q486 641 438 662Q390 683 334 683Q282 683 238 664.5Q194 646 162 605Q130 564 112 499Q94 434 94 340Q94 320 95.5 293.5Q97 267 101 240Q105 283 123 319Q141 355 170.5 381Q200 407 240.5 421Q281 435 331 435Q382 435 424.5 421Q467 407 497.5 379.5Q528 352 545 311Q562 270 562 216Q562 112 503 51Q444 -10 332 -10ZM119 205Q119 172 131.5 138.5Q144 105 170 78Q196 51 236 33.5Q276 16 331 16Q422 16 476 66.5Q530 117 530 215Q530 306 477.5 357Q425 408 327 408Q280 408 242 394Q204 380 176.5 354Q149 328 134 290.5Q119 253 119 205Z" glyph-name="six.OT" horiz-adv-x="625" /><glyph d="M48 0ZM209 -207Q174 -207 145 -195.5Q116 -184 94 -159.5Q72 -135 60 -96Q48 -57 48 -1Q48 112 92 163Q136 214 211 214Q253 214 284.5 199Q316 184 333 151L313 137Q297 167 270 179Q243 191 210 191Q180 191 155.5 180.5Q131 170 113 147.5Q95 125 85 88Q75 51 75 -1V-23Q75 -36 77 -50Q84 -4 119 24.5Q154 53 210 53Q271 53 308 21Q345 -11 345 -74Q345 -135 310 -171Q275 -207 209 -207ZM90 -80Q90 -98 97 -116.5Q104 -135 118 -150Q132 -165 154.5 -174.5Q177 -184 207 -184Q258 -184 288 -156Q318 -128 318 -74Q318 -25 288.5 2.5Q259 30 204 30Q151 30 120.5 1Q90 -28 90 -80Z" glyph-name="six.inf" horiz-adv-x="384" /><glyph glyph-name="sixperemspace" horiz-adv-x="167" unicode="&#8198;" /><glyph d="M438 701 48 0H14L404 701Z" glyph-name="slash" horiz-adv-x="452" unicode="/" /><glyph glyph-name="space" horiz-adv-x="225" unicode=" " /><glyph d="M51 0V26H71Q113 26 129 53Q145 80 143 141L136 324H51V349H135L129 520Q126 611 172 660.5Q218 710 318 710Q394 710 439 678Q484 646 514 589L490 573Q463 626 423.5 655Q384 684 317 684Q238 684 197.5 643.5Q157 603 160 521L166 349H399V324H168L174 142Q176 91 165 63Q154 35 134 26H373Q415 26 451.5 36.5Q488 47 519 86L538 68Q503 25 462.5 12.5Q422 0 373 0Z" glyph-name="sterling" horiz-adv-x="569" unicode="&#163;" /><glyph d="M19 478H115V626H145V478H313V453H145V165Q145 119 153 90.5Q161 62 175.5 46Q190 30 210 24Q230 18 255 18Q277 18 291.5 21Q306 24 323 29L329 3Q303 -5 285.5 -7.5Q268 -10 247 -10Q185 -10 150 27Q115 64 115 150V453H19Z" glyph-name="t" horiz-adv-x="342" unicode="t" /><glyph d="M313 478V453H145V322H313V300H145V165Q145 119 153 90.5Q161 62 175.5 46Q190 30 210 24Q230 18 255 18Q277 18 291.5 21Q306 24 323 29L329 3Q303 -5 285.5 -7.5Q268 -10 247 -10Q185 -10 150 27Q115 64 115 150V300H19V322H115V453H19V478H115V626H145V478Z" glyph-name="tbar" horiz-adv-x="339" unicode="&#359;" /><glyph d="M244 554H221L228 716H266ZM19 478H115V626H145V478H313V453H145V165Q145 119 153 90.5Q161 62 175.5 46Q190 30 210 24Q230 18 255 18Q277 18 291.5 21Q306 24 323 29L329 3Q303 -5 285.5 -7.5Q268 -10 247 -10Q185 -10 150 27Q115 64 115 150V453H19Z" glyph-name="tcaron" horiz-adv-x="342" unicode="&#357;" /><glyph d="M328 -146Q328 -183 301.5 -202Q275 -221 229 -221Q196 -221 173 -210Q150 -199 133 -173L150 -158Q165 -181 182 -190.5Q199 -200 228 -200Q303 -200 303 -146Q303 -119 285 -109Q267 -99 244 -99Q238 -99 232 -99.5Q226 -100 218 -102L207 -94L225 -9Q173 -3 144 34.5Q115 72 115 150V453H19V478H115V626H145V478H313V453H145V165Q145 119 153 90.5Q161 62 175.5 46Q190 30 210 24Q230 18 255 18Q277 18 291.5 21Q306 24 323 29L329 3Q303 -5 286 -7.5Q269 -10 249 -10L234 -82Q236 -81 241.5 -81Q247 -81 252 -81Q266 -81 279.5 -84.5Q293 -88 304 -95.5Q315 -103 321.5 -115.5Q328 -128 328 -146Z" glyph-name="tcedilla" horiz-adv-x="342" unicode="&#355;" /><glyph glyph-name="thinspace" horiz-adv-x="200" unicode="&#8201;" /><glyph d="M135 234Q135 178 148.5 137Q162 96 186.5 69Q211 42 244.5 29Q278 16 317 16Q410 16 455.5 74.5Q501 133 501 240Q501 348 458 405Q415 462 327 462Q285 462 249.5 448Q214 434 188.5 405.5Q163 377 149 334.5Q135 292 135 234ZM135 700V354Q158 422 210.5 455Q263 488 333 488Q431 488 481.5 424.5Q532 361 532 240Q532 120 477.5 55Q423 -10 320 -10Q257 -10 208 18.5Q159 47 135 110V-186H104V700Z" glyph-name="thorn" horiz-adv-x="600" unicode="&#254;" /><glyph d="M306 -10Q221 -10 165 17.5Q109 45 72 107L95 125Q130 68 180.5 42.5Q231 17 306 17Q418 17 470 65.5Q522 114 522 195Q522 226 513.5 255Q505 284 484.5 306.5Q464 329 430 342Q396 355 346 355H236V382H345Q377 382 405 392.5Q433 403 454 422.5Q475 442 487 471Q499 500 499 536Q499 608 452 645.5Q405 683 313 683Q237 683 191 655Q145 627 112 569L89 586Q124 647 176 678.5Q228 710 315 710Q424 710 477 663.5Q530 617 530 536Q530 474 498.5 431Q467 388 411 370Q454 362 482 343.5Q510 325 525.5 301Q541 277 547 250Q553 223 553 198Q553 101 492 45.5Q431 -10 306 -10Z" glyph-name="three" horiz-adv-x="625" unicode="3" /><glyph d="M286 -10Q201 -10 145 17.5Q89 45 52 107L75 125Q110 68 160.5 42.5Q211 17 286 17Q398 17 450 65.5Q502 114 502 195Q502 226 493.5 255Q485 284 464.5 306.5Q444 329 410 342Q376 355 326 355H216V382H325Q357 382 385 392.5Q413 403 434 422.5Q455 442 467 471Q479 500 479 536Q479 608 432 645.5Q385 683 293 683Q217 683 171 655Q125 627 92 569L69 586Q104 647 156 678.5Q208 710 295 710Q404 710 457 663.5Q510 617 510 536Q510 474 478.5 431Q447 388 391 370Q434 362 462 343.5Q490 325 505.5 301Q521 277 527 250Q533 223 533 198Q533 101 472 45.5Q411 -10 286 -10Z" glyph-name="three.LP" horiz-adv-x="603" /><glyph d="M270 -110Q190 -110 136.5 -82.5Q83 -55 48 7L71 24Q104 -33 151.5 -58.5Q199 -84 270 -84Q376 -84 426 -35Q476 14 476 94Q476 126 468 155Q460 184 440.5 206.5Q421 229 388.5 242Q356 255 308 255H204V282H308Q339 282 365.5 292.5Q392 303 411.5 322.5Q431 342 442 370.5Q453 399 453 435Q453 507 409 545.5Q365 584 277 584Q205 584 162 555.5Q119 527 88 469L64 486Q98 548 147 579Q196 610 278 610Q383 610 433.5 563.5Q484 517 484 436Q484 374 454.5 331Q425 288 371 270Q412 261 438.5 243Q465 225 480.5 201Q496 177 502 150Q508 123 508 98Q508 1 449 -54.5Q390 -110 270 -110Z" glyph-name="three.OP" horiz-adv-x="572" /><glyph d="M306 -110Q221 -110 165 -82.5Q109 -55 71 7L95 25Q130 -32 180 -57.5Q230 -83 306 -83Q418 -83 469.5 -34.5Q521 14 521 95Q521 126 512.5 155Q504 184 483.5 206.5Q463 229 429.5 242Q396 255 346 255H236V282H345Q377 282 405 292.5Q433 303 453.5 322.5Q474 342 486 371Q498 400 498 436Q498 508 451 545.5Q404 583 313 583Q237 583 190.5 555Q144 527 112 469L89 486Q123 547 175 578.5Q227 610 314 610Q424 610 477 563.5Q530 517 530 436Q530 374 498.5 331Q467 288 411 270Q454 262 481.5 243.5Q509 225 525 201Q541 177 547 150Q553 123 553 98Q553 1 492 -54.5Q431 -110 306 -110Z" glyph-name="three.OT" horiz-adv-x="625" /><glyph d="M33 0ZM173 -207Q122 -207 88.5 -190.5Q55 -174 33 -137L53 -122Q73 -154 101 -168.5Q129 -183 171 -183Q234 -183 262.5 -157Q291 -131 291 -86Q291 -68 286 -52Q281 -36 270 -24Q259 -12 240 -5Q221 2 193 2H131V25H193Q229 25 253.5 47Q278 69 278 109Q278 191 175 191Q132 191 107 175.5Q82 160 62 127L43 140Q64 178 95 196Q126 214 177 214Q242 214 273.5 186.5Q305 159 305 111Q305 76 287.5 51Q270 26 238 15Q262 10 277.5 -0.5Q293 -11 302 -24.5Q311 -38 314.5 -53.5Q318 -69 318 -85Q318 -142 282 -174.5Q246 -207 173 -207Z" glyph-name="three.inf" horiz-adv-x="363" /><glyph glyph-name="threeperemspace" horiz-adv-x="333" unicode="&#8196;" /><glyph d="M646 256V230H50V256Z" glyph-name="threequarteremdash" horiz-adv-x="695" /><glyph d="M33 0ZM173 286Q122 286 88.5 302.5Q55 319 33 356L53 371Q73 339 101 324.5Q129 310 171 310Q234 310 262.5 336Q291 362 291 407Q291 425 286 441Q281 457 270 469Q259 481 240 488Q221 495 193 495H131V518H193Q229 518 253.5 540Q278 562 278 602Q278 684 175 684Q132 684 107 668.5Q82 653 62 620L43 633Q64 671 95 689Q126 707 177 707Q242 707 273.5 679.5Q305 652 305 604Q305 569 287.5 544Q270 519 238 508Q262 503 277.5 492.5Q293 482 302 468.5Q311 455 314.5 439.5Q318 424 318 408Q318 351 282 318.5Q246 286 173 286ZM644 700 312 0H282L616 700ZM590 110V131L735 407H763L618 134H822V337H849V134H917V110H849V0H822V110Z" glyph-name="threequarters" horiz-adv-x="937" unicode="&#190;" /><glyph d="M33 288ZM173 288Q122 288 88.5 304.5Q55 321 33 358L53 373Q73 341 101 326.5Q129 312 171 312Q234 312 262.5 338Q291 364 291 409Q291 427 286 443Q281 459 270 471Q259 483 240 490Q221 497 193 497H131V520H193Q229 520 253.5 542Q278 564 278 604Q278 686 175 686Q132 686 107 670.5Q82 655 62 622L43 635Q64 673 95 691Q126 709 177 709Q242 709 273.5 681.5Q305 654 305 606Q305 571 287.5 546Q270 521 238 510Q262 505 277.5 494.5Q293 484 302 470.5Q311 457 314.5 441.5Q318 426 318 410Q318 353 282 320.5Q246 288 173 288Z" glyph-name="threesuperior" horiz-adv-x="363" unicode="&#179;" /><glyph d="M408 656H433Q433 633 427 618.5Q421 604 411 595.5Q401 587 389.5 584Q378 581 368 581Q347 581 332 589.5Q317 598 304 608.5Q291 619 278 627.5Q265 636 248 636Q234 636 221 626Q208 616 207 585H182Q182 608 188 622.5Q194 637 203.5 645.5Q213 654 224 657Q235 660 246 660Q267 660 282 651.5Q297 643 310 632.5Q323 622 336.5 613.5Q350 605 368 605Q385 605 396 616Q407 627 408 656Z" glyph-name="tilde" horiz-adv-x="600" unicode="&#732;" /><glyph d="M32 700H272V681H163V406H142V681H32ZM309 406V700H336L456 429L578 700H604V406H583V666L466 406H447L330 665V406Z" glyph-name="trademark" horiz-adv-x="686" unicode="&#8482;" /><glyph d="M67 0V28L353 316Q395 358 421.5 391.5Q448 425 462 452Q476 479 481 501Q486 523 486 541Q487 610 442 646.5Q397 683 312 683Q270 683 238 675Q206 667 180.5 651Q155 635 135.5 611.5Q116 588 99 557L75 574Q93 607 115 632Q137 657 165.5 674.5Q194 692 230.5 701Q267 710 314 710Q366 710 404.5 698Q443 686 468.5 664Q494 642 506 611.5Q518 581 518 544Q518 518 510.5 491Q503 464 486 434.5Q469 405 441.5 371Q414 337 373 296L106 26L559 27V0Z" glyph-name="two" horiz-adv-x="625" unicode="2" /><glyph d="M43 0V28L330 316Q372 358 398 391.5Q424 425 438.5 452Q453 479 458 501Q463 523 463 541Q464 610 419 646.5Q374 683 289 683Q247 683 214.5 675Q182 667 156.5 651Q131 635 111.5 611.5Q92 588 76 557L52 574Q70 607 92 632Q114 657 142.5 674.5Q171 692 207.5 701Q244 710 291 710Q343 710 381.5 698Q420 686 445 664Q470 642 482.5 611.5Q495 581 495 544Q495 518 487.5 491Q480 464 463 434.5Q446 405 418 371Q390 337 349 296L82 26L536 27V0Z" glyph-name="two.LP" horiz-adv-x="574" /><glyph d="M54 0V25L306 268Q345 305 368 335.5Q391 366 403 390Q415 414 418.5 433Q422 452 422 468Q423 525 385.5 554.5Q348 584 276 584Q204 584 162.5 555.5Q121 527 93 475L69 491Q100 548 147.5 579Q195 610 278 610Q369 610 411.5 572Q454 534 454 472Q454 449 448 425Q442 401 427 374Q412 347 387.5 316.5Q363 286 326 250L94 25L479 26V0Z" glyph-name="two.OP" horiz-adv-x="515" /><glyph d="M90 0V28L344 264Q386 302 411 332.5Q436 363 450 387.5Q464 412 468.5 431Q473 450 473 467Q474 524 434.5 553.5Q395 583 320 583Q242 583 198.5 555.5Q155 528 125 474L102 490Q135 547 184.5 578.5Q234 610 321 610Q417 610 461 571.5Q505 533 505 470Q505 446 498 422Q491 398 475 371Q459 344 432 313Q405 282 365 245L130 26L541 27V0Z" glyph-name="two.OT" horiz-adv-x="625" /><glyph d="M30 0ZM30 -200V-177L193 -16Q239 30 254.5 59Q270 88 270 111Q270 151 245 171Q220 191 173 191Q125 191 98.5 172.5Q72 154 53 119L33 134Q55 173 87 193.5Q119 214 174 214Q236 214 266.5 187Q297 160 297 115Q297 99 293 83.5Q289 68 279 50.5Q269 33 252.5 13.5Q236 -6 212 -30L67 -176L320 -175V-200Z" glyph-name="two.inf" horiz-adv-x="350" /><glyph d="M30 295ZM30 295V318L193 479Q239 525 254.5 554Q270 583 270 606Q270 646 245 666Q220 686 173 686Q125 686 98.5 667.5Q72 649 53 614L33 629Q55 668 87 688.5Q119 709 174 709Q236 709 266.5 682Q297 655 297 610Q297 594 293 578.5Q289 563 279 545.5Q269 528 252.5 508.5Q236 489 212 465L67 319L320 320V295Z" glyph-name="twosuperior" horiz-adv-x="350" unicode="&#178;" /><glyph d="M474 0 471 122Q448 57 396.5 23.5Q345 -10 273 -10Q186 -10 141 37.5Q96 85 96 182V478H127V189Q127 141 138 108.5Q149 76 169 55.5Q189 35 217 26Q245 17 279 17Q325 17 359 31.5Q393 46 416.5 71.5Q440 97 453.5 132.5Q467 168 470 210V478H501V0Z" glyph-name="u" horiz-adv-x="604" unicode="u" /><glyph d="M96 0ZM408 667 308 563H281V566L365 671H408ZM474 0 471 122Q448 57 396.5 23.5Q345 -10 273 -10Q186 -10 141 37.5Q96 85 96 182V478H127V189Q127 141 138 108.5Q149 76 169 55.5Q189 35 217 26Q245 17 279 17Q325 17 359 31.5Q393 46 416.5 71.5Q440 97 453.5 132.5Q467 168 470 210V478H501V0Z" glyph-name="uacute" horiz-adv-x="604" unicode="&#250;" /><glyph d="M96 0ZM474 0 471 122Q448 57 396.5 23.5Q345 -10 273 -10Q186 -10 141 37.5Q96 85 96 182V478H127V189Q127 141 138 108.5Q149 76 169 55.5Q189 35 217 26Q245 17 279 17Q325 17 359 31.5Q393 46 416.5 71.5Q440 97 453.5 132.5Q467 168 470 210V478H501V0ZM391 669H417Q417 610 385 587Q353 564 297 564Q241 564 209.5 587Q178 610 178 669H203Q203 621 227.5 603.5Q252 586 297 586Q342 586 366.5 603.5Q391 621 391 669Z" glyph-name="ubreve" horiz-adv-x="604" unicode="&#365;" /><glyph d="M96 0ZM299 649 204 563H168V565L286 671H313L431 565V563H393ZM474 0 471 122Q448 57 396.5 23.5Q345 -10 273 -10Q186 -10 141 37.5Q96 85 96 182V478H127V189Q127 141 138 108.5Q149 76 169 55.5Q189 35 217 26Q245 17 279 17Q325 17 359 31.5Q393 46 416.5 71.5Q440 97 453.5 132.5Q467 168 470 210V478H501V0Z" glyph-name="ucircumflex" horiz-adv-x="604" unicode="&#251;" /><glyph d="M96 0ZM335 610Q335 624 343.5 632Q352 640 366 640Q397 640 397 610Q397 580 366 580Q352 580 343.5 588Q335 596 335 610ZM200 610Q200 624 208 632Q216 640 230 640Q261 640 261 610Q261 580 230 580Q216 580 208 588Q200 596 200 610ZM474 0 471 122Q448 57 396.5 23.5Q345 -10 273 -10Q186 -10 141 37.5Q96 85 96 182V478H127V189Q127 141 138 108.5Q149 76 169 55.5Q189 35 217 26Q245 17 279 17Q325 17 359 31.5Q393 46 416.5 71.5Q440 97 453.5 132.5Q467 168 470 210V478H501V0Z" glyph-name="udieresis" horiz-adv-x="604" unicode="&#252;" /><glyph d="M96 0ZM474 0 471 122Q448 57 396.5 23.5Q345 -10 273 -10Q186 -10 141 37.5Q96 85 96 182V478H127V189Q127 141 138 108.5Q149 76 169 55.5Q189 35 217 26Q245 17 279 17Q325 17 359 31.5Q393 46 416.5 71.5Q440 97 453.5 132.5Q467 168 470 210V478H501V0ZM289 563 189 667V671H232L316 566V563Z" glyph-name="ugrave" horiz-adv-x="604" unicode="&#249;" /><glyph d="M96 0ZM474 0 471 122Q448 57 396.5 23.5Q345 -10 273 -10Q186 -10 141 37.5Q96 85 96 182V478H127V189Q127 141 138 108.5Q149 76 169 55.5Q189 35 217 26Q245 17 279 17Q325 17 359 31.5Q393 46 416.5 71.5Q440 97 453.5 132.5Q467 168 470 210V478H501V0ZM451 667 349 563H324V566L407 671H451ZM343 667 249 563H223V566L302 671H343Z" glyph-name="uhungarumlaut" horiz-adv-x="604" unicode="&#369;" /><glyph d="M96 0ZM474 0 471 122Q448 57 396.5 23.5Q345 -10 273 -10Q186 -10 141 37.5Q96 85 96 182V478H127V189Q127 141 138 108.5Q149 76 169 55.5Q189 35 217 26Q245 17 279 17Q325 17 359 31.5Q393 46 416.5 71.5Q440 97 453.5 132.5Q467 168 470 210V478H501V0ZM412 626V603H185V626Z" glyph-name="umacron" horiz-adv-x="604" unicode="&#363;" /><glyph d="M484 0V-25H-5V0Z" glyph-name="underscore" horiz-adv-x="479" unicode="_" /><glyph glyph-name="uni00A0" horiz-adv-x="225" unicode="&#160;" /><glyph d="M345 256V230H50V256Z" glyph-name="uni00AD" horiz-adv-x="394" unicode="&#173;" /><glyph d="M14 0ZM256 -224 248 -209Q268 -199 279 -176.5Q290 -154 291 -128Q272 -133 261 -124.5Q250 -116 250 -100Q250 -86 258 -78.5Q266 -71 280 -71Q294 -71 303 -81Q312 -91 312 -116Q312 -151 298.5 -182Q285 -213 256 -224ZM14 700H546V673H296V0H264V673H14Z" glyph-name="uni021A" horiz-adv-x="560" unicode="&#538;" /><glyph d="M19 0ZM219 -224 211 -209Q231 -199 242 -176.5Q253 -154 254 -128Q235 -133 224 -124.5Q213 -116 213 -100Q213 -86 221 -78.5Q229 -71 243 -71Q257 -71 266 -81Q275 -91 275 -116Q275 -151 261.5 -182Q248 -213 219 -224ZM19 478H115V626H145V478H313V453H145V165Q145 119 153 90.5Q161 62 175.5 46Q190 30 210 24Q230 18 255 18Q277 18 291.5 21Q306 24 323 29L329 3Q303 -5 285.5 -7.5Q268 -10 247 -10Q185 -10 150 27Q115 64 115 150V453H19Z" glyph-name="uni021B" horiz-adv-x="339" unicode="&#539;" /><glyph d="M1038 256V230H50V256Z" glyph-name="uni2015" horiz-adv-x="1087" unicode="&#8213;" /><glyph d="M48 288ZM48 499Q48 613 88.5 661Q129 709 206 709Q282 709 322 661Q362 613 362 499Q362 386 322 337Q282 288 206 288Q129 288 88.5 336.5Q48 385 48 499ZM334 499Q334 551 325 587Q316 623 299.5 645Q283 667 259.5 676.5Q236 686 206 686Q175 686 151 676.5Q127 667 110.5 645Q94 623 85 587Q76 551 76 499Q76 446 85 410Q94 374 110.5 352.5Q127 331 151 321.5Q175 312 205 312Q235 312 259 321.5Q283 331 299.5 352.5Q316 374 325 410Q334 446 334 499Z" glyph-name="uni2070" horiz-adv-x="412" unicode="&#8304;" /><glyph d="M33 295ZM33 405V426L178 702H206L61 429H265V632H292V429H360V405H292V295H265V405Z" glyph-name="uni2074" horiz-adv-x="380" unicode="&#8308;" /><glyph d="M39 288ZM98 679 80 511Q106 531 133.5 539Q161 547 191 547Q251 547 289 518Q327 489 327 425Q327 365 290 326.5Q253 288 179 288Q134 288 97.5 303.5Q61 319 39 356Q40 358 49 364.5Q58 371 59 372Q76 343 105 327.5Q134 312 178 312Q241 312 270.5 344Q300 376 300 424Q300 475 270.5 500.5Q241 526 184 526Q148 526 121.5 515.5Q95 505 70 485L54 492L77 702H306V679Z" glyph-name="uni2075" horiz-adv-x="356" unicode="&#8309;" /><glyph d="M48 288ZM209 288Q174 288 145 299.5Q116 311 94 335.5Q72 360 60 399Q48 438 48 494Q48 607 92 658Q136 709 211 709Q253 709 284.5 694Q316 679 333 646L313 632Q297 662 270 674Q243 686 210 686Q180 686 155.5 675.5Q131 665 113 642.5Q95 620 85 583Q75 546 75 494V472Q75 459 77 445Q84 491 119 519.5Q154 548 210 548Q271 548 308 516Q345 484 345 421Q345 360 310 324Q275 288 209 288ZM90 415Q90 397 97 378.5Q104 360 118 345Q132 330 154.5 320.5Q177 311 207 311Q258 311 288 339Q318 367 318 421Q318 470 288.5 497.5Q259 525 204 525Q151 525 120.5 496Q90 467 90 415Z" glyph-name="uni2076" horiz-adv-x="384" unicode="&#8310;" /><glyph d="M29 295ZM128 295H100Q100 347 111 401.5Q122 456 143 507.5Q164 559 193.5 603Q223 647 260 678H29V702H295V681Q258 656 227.5 614.5Q197 573 175 521.5Q153 470 141 411.5Q129 353 128 295Z" glyph-name="uni2077" horiz-adv-x="298" unicode="&#8311;" /><glyph d="M46 288ZM189 288Q120 288 83 319Q46 350 46 406Q46 450 71.5 477.5Q97 505 140 513Q105 521 84.5 545Q64 569 64 607Q64 709 189 709Q315 709 315 608Q315 570 294 545.5Q273 521 238 513Q281 505 306.5 477.5Q332 450 332 406Q332 350 295.5 319Q259 288 189 288ZM290 607Q290 645 265 666Q240 687 189 687Q138 687 113.5 666Q89 645 89 607Q89 569 114 546.5Q139 524 189 524Q239 524 264.5 546.5Q290 569 290 607ZM305 407Q305 450 275.5 475Q246 500 189 500Q133 500 103.5 475Q74 450 74 407Q74 362 102.5 336Q131 310 189 310Q247 310 276 336Q305 362 305 407Z" glyph-name="uni2078" horiz-adv-x="380" unicode="&#8312;" /><glyph d="M35 288ZM169 288Q127 288 94.5 303Q62 318 45 350L64 365Q81 336 109 324Q137 312 169 312Q232 312 268.5 357.5Q305 403 304 503V523Q304 535 302 546Q294 501 259.5 474.5Q225 448 169 448Q109 448 72 480Q35 512 35 576Q35 637 70 673Q105 709 172 709Q206 709 235.5 698Q265 687 286.5 662.5Q308 638 320 598.5Q332 559 332 503Q332 390 287.5 339Q243 288 169 288ZM290 581Q290 600 283 618.5Q276 637 261.5 652Q247 667 224.5 676.5Q202 686 172 686Q121 686 91.5 658.5Q62 631 62 577Q62 527 91 499Q120 471 174 471Q227 471 258.5 500Q290 529 290 581Z" glyph-name="uni2079" horiz-adv-x="384" unicode="&#8313;" /><glyph d="M40 362ZM167 362H143V465H40V487H143V594H167V487H269V465H167Z" glyph-name="uni207A" horiz-adv-x="309" unicode="&#8314;" /><glyph d="M40 465ZM269 487V465H40V487Z" glyph-name="uni207B" horiz-adv-x="309" unicode="&#8315;" /><glyph d="M40 433ZM269 523V500H40V523ZM269 455V433H40V455Z" glyph-name="uni207C" horiz-adv-x="309" unicode="&#8316;" /><glyph d="M42 252ZM169 274 166 252Q106 262 74 321Q42 380 42 483Q42 586 74 645.5Q106 705 166 714L169 693Q121 683 93.5 631Q66 579 66 483Q66 387 93.5 335Q121 283 169 274Z" glyph-name="uni207D" horiz-adv-x="212" unicode="&#8317;" /><glyph d="M43 252ZM46 252 43 274Q91 283 118.5 335Q146 387 146 483Q146 579 118.5 631Q91 683 43 693L46 714Q106 705 138 645.5Q170 586 170 483Q170 380 138 321Q106 262 46 252Z" glyph-name="uni207E" horiz-adv-x="212" unicode="&#8318;" /><glyph d="M48 204Q48 318 88.5 366Q129 414 206 414Q282 414 322 366Q362 318 362 204Q362 91 322 42Q282 -7 206 -7Q129 -7 88.5 41.5Q48 90 48 204ZM334 204Q334 256 325 292Q316 328 299.5 350Q283 372 259.5 381.5Q236 391 206 391Q175 391 151 381.5Q127 372 110.5 350Q94 328 85 292Q76 256 76 204Q76 151 85 115Q94 79 110.5 57.5Q127 36 151 26.5Q175 17 205 17Q235 17 259 26.5Q283 36 299.5 57.5Q316 79 325 115Q334 151 334 204Z" glyph-name="uni2080" horiz-adv-x="412" unicode="&#8320;" /><glyph d="M112 0H85V373L25 324L14 346L94 408H112Z" glyph-name="uni2081" horiz-adv-x="184" unicode="&#8321;" /><glyph d="M30 0V23L193 184Q239 230 254.5 259Q270 288 270 311Q270 351 245 371Q220 391 173 391Q125 391 98.5 372.5Q72 354 53 319L33 334Q55 373 87 393.5Q119 414 174 414Q236 414 266.5 387Q297 360 297 315Q297 299 293 283.5Q289 268 279 250.5Q269 233 252.5 213.5Q236 194 212 170L67 24L320 25V0Z" glyph-name="uni2082" horiz-adv-x="350" unicode="&#8322;" /><glyph d="M173 -7Q122 -7 88.5 9.5Q55 26 33 63L53 78Q73 46 101 31.5Q129 17 171 17Q234 17 262.5 43Q291 69 291 114Q291 132 286 148Q281 164 270 176Q259 188 240 195Q221 202 193 202H131V225H193Q229 225 253.5 247Q278 269 278 309Q278 391 175 391Q132 391 107 375.5Q82 360 62 327L43 340Q64 378 95 396Q126 414 177 414Q242 414 273.5 386.5Q305 359 305 311Q305 276 287.5 251Q270 226 238 215Q262 210 277.5 199.5Q293 189 302 175.5Q311 162 314.5 146.5Q318 131 318 115Q318 58 282 25.5Q246 -7 173 -7Z" glyph-name="uni2083" horiz-adv-x="363" unicode="&#8323;" /><glyph d="M33 110V131L178 407H206L61 134H265V337H292V134H360V110H292V0H265V110Z" glyph-name="uni2084" horiz-adv-x="380" unicode="&#8324;" /><glyph d="M98 384 80 216Q106 236 133.5 244Q161 252 191 252Q251 252 289 223Q327 194 327 130Q327 70 290 31.5Q253 -7 179 -7Q134 -7 97.5 8.5Q61 24 39 61Q40 63 49 69.5Q58 76 59 77Q76 48 105 32.5Q134 17 178 17Q241 17 270.5 49Q300 81 300 129Q300 180 270.5 205.5Q241 231 184 231Q148 231 121.5 220.5Q95 210 70 190L54 197L77 407H306V384Z" glyph-name="uni2085" horiz-adv-x="356" unicode="&#8325;" /><glyph d="M209 -7Q174 -7 145 4.5Q116 16 94 40.5Q72 65 60 104Q48 143 48 199Q48 312 92 363Q136 414 211 414Q253 414 284.5 399Q316 384 333 351L313 337Q297 367 270 379Q243 391 210 391Q180 391 155.5 380.5Q131 370 113 347.5Q95 325 85 288Q75 251 75 199V177Q75 164 77 150Q84 196 119 224.5Q154 253 210 253Q271 253 308 221Q345 189 345 126Q345 65 310 29Q275 -7 209 -7ZM90 120Q90 102 97 83.5Q104 65 118 50Q132 35 154.5 25.5Q177 16 207 16Q258 16 288 44Q318 72 318 126Q318 175 288.5 202.5Q259 230 204 230Q151 230 120.5 201Q90 172 90 120Z" glyph-name="uni2086" horiz-adv-x="384" unicode="&#8326;" /><glyph d="M128 0H100Q100 52 111 106.5Q122 161 143 212.5Q164 264 193.5 308Q223 352 260 383H29V407H295V386Q258 361 227.5 319.5Q197 278 175 226.5Q153 175 141 116.5Q129 58 128 0Z" glyph-name="uni2087" horiz-adv-x="298" unicode="&#8327;" /><glyph d="M189 -7Q120 -7 83 24Q46 55 46 111Q46 155 71.5 182.5Q97 210 140 218Q105 226 84.5 250Q64 274 64 312Q64 414 189 414Q315 414 315 313Q315 275 294 250.5Q273 226 238 218Q281 210 306.5 182.5Q332 155 332 111Q332 55 295.5 24Q259 -7 189 -7ZM290 312Q290 350 265 371Q240 392 189 392Q138 392 113.5 371Q89 350 89 312Q89 274 114 251.5Q139 229 189 229Q239 229 264.5 251.5Q290 274 290 312ZM305 112Q305 155 275.5 180Q246 205 189 205Q133 205 103.5 180Q74 155 74 112Q74 67 102.5 41Q131 15 189 15Q247 15 276 41Q305 67 305 112Z" glyph-name="uni2088" horiz-adv-x="380" unicode="&#8328;" /><glyph d="M169 -7Q127 -7 94.5 8Q62 23 45 55L64 70Q81 41 109 29Q137 17 169 17Q232 17 268.5 62.5Q305 108 304 208V228Q304 240 302 251Q294 206 259.5 179.5Q225 153 169 153Q109 153 72 185Q35 217 35 281Q35 342 70 378Q105 414 172 414Q206 414 235.5 403Q265 392 286.5 367.5Q308 343 320 303.5Q332 264 332 208Q332 95 287.5 44Q243 -7 169 -7ZM290 286Q290 305 283 323.5Q276 342 261.5 357Q247 372 224.5 381.5Q202 391 172 391Q121 391 91.5 363.5Q62 336 62 282Q62 232 91 204Q120 176 174 176Q227 176 258.5 205Q290 234 290 286Z" glyph-name="uni2089" horiz-adv-x="384" unicode="&#8329;" /><glyph d="M167 64H143V167H40V189H143V296H167V189H269V167H167Z" glyph-name="uni208A" horiz-adv-x="309" unicode="&#8330;" /><glyph d="M269 189V167H40V189Z" glyph-name="uni208B" horiz-adv-x="309" unicode="&#8331;" /><glyph d="M269 225V202H40V225ZM269 157V135H40V157Z" glyph-name="uni208C" horiz-adv-x="309" unicode="&#8332;" /><glyph d="M169 -24 166 -46Q106 -36 74 23Q42 82 42 185Q42 288 74 347.5Q106 407 166 416L169 395Q121 385 93.5 333Q66 281 66 185Q66 89 93.5 37Q121 -15 169 -24Z" glyph-name="uni208D" horiz-adv-x="212" unicode="&#8333;" /><glyph d="M46 -46 43 -24Q91 -15 118.5 37Q146 89 146 185Q146 281 118.5 333Q91 385 43 395L46 416Q106 407 138 347.5Q170 288 170 185Q170 82 138 23Q106 -36 46 -46Z" glyph-name="uni208E" horiz-adv-x="212" unicode="&#8334;" /><glyph d="M14 0ZM594 -7Q543 -7 509.5 9.5Q476 26 454 63L474 78Q494 46 522 31.5Q550 17 592 17Q655 17 683.5 43Q712 69 712 114Q712 132 707 148Q702 164 691 176Q680 188 661 195Q642 202 614 202H552V225H614Q650 225 674.5 247Q699 269 699 309Q699 391 596 391Q553 391 528 375.5Q503 360 483 327L464 340Q485 378 516 396Q547 414 598 414Q663 414 694.5 386.5Q726 359 726 311Q726 276 708.5 251Q691 226 659 215Q683 210 698.5 199.5Q714 189 723 175.5Q732 162 735.5 146.5Q739 131 739 115Q739 58 703 25.5Q667 -7 594 -7ZM112 293H85V666L25 617L14 639L94 701H112ZM501 700 169 0H139L473 700Z" glyph-name="uni2153" horiz-adv-x="783" unicode="&#8531;" /><glyph d="M30 0ZM730 -7Q679 -7 645.5 9.5Q612 26 590 63L610 78Q630 46 658 31.5Q686 17 728 17Q791 17 819.5 43Q848 69 848 114Q848 132 843 148Q838 164 827 176Q816 188 797 195Q778 202 750 202H688V225H750Q786 225 810.5 247Q835 269 835 309Q835 391 732 391Q689 391 664 375.5Q639 360 619 327L600 340Q621 378 652 396Q683 414 734 414Q799 414 830.5 386.5Q862 359 862 311Q862 276 844.5 251Q827 226 795 215Q819 210 834.5 199.5Q850 189 859 175.5Q868 162 871.5 146.5Q875 131 875 115Q875 58 839 25.5Q803 -7 730 -7ZM30 293V316L193 477Q239 523 254.5 552Q270 581 270 604Q270 644 245 664Q220 684 173 684Q125 684 98.5 665.5Q72 647 53 612L33 627Q55 666 87 686.5Q119 707 174 707Q236 707 266.5 680Q297 653 297 608Q297 592 293 576.5Q289 561 279 543.5Q269 526 252.5 506.5Q236 487 212 463L67 317L320 318V293ZM637 700 305 0H275L609 700Z" glyph-name="uni2154" horiz-adv-x="919" unicode="&#8532;" /><glyph d="M14 0ZM112 293H85V666L25 617L14 639L94 701H112ZM537 384 519 216Q545 236 572.5 244Q600 252 630 252Q690 252 728 223Q766 194 766 130Q766 70 729 31.5Q692 -7 618 -7Q573 -7 536.5 8.5Q500 24 478 61Q479 63 488 69.5Q497 76 498 77Q515 48 544 32.5Q573 17 617 17Q680 17 709.5 49Q739 81 739 129Q739 180 709.5 205.5Q680 231 623 231Q587 231 560.5 220.5Q534 210 509 190L493 197L516 407H745V384ZM501 700 169 0H139L473 700Z" glyph-name="uni2155" horiz-adv-x="794" unicode="&#8533;" /><glyph d="M30 0ZM30 293V316L193 477Q239 523 254.5 552Q270 581 270 604Q270 644 245 664Q220 684 173 684Q125 684 98.5 665.5Q72 647 53 612L33 627Q55 666 87 686.5Q119 707 174 707Q236 707 266.5 680Q297 653 297 608Q297 592 293 576.5Q289 561 279 543.5Q269 526 252.5 506.5Q236 487 212 463L67 317L320 318V293ZM680 384 662 216Q688 236 715.5 244Q743 252 773 252Q833 252 871 223Q909 194 909 130Q909 70 872 31.5Q835 -7 761 -7Q716 -7 679.5 8.5Q643 24 621 61Q622 63 631 69.5Q640 76 641 77Q658 48 687 32.5Q716 17 760 17Q823 17 852.5 49Q882 81 882 129Q882 180 852.5 205.5Q823 231 766 231Q730 231 703.5 220.5Q677 210 652 190L636 197L659 407H888V384ZM644 700 312 0H282L616 700Z" glyph-name="uni2156" horiz-adv-x="938" unicode="&#8534;" /><glyph d="M33 0ZM173 286Q122 286 88.5 302.5Q55 319 33 356L53 371Q73 339 101 324.5Q129 310 171 310Q234 310 262.5 336Q291 362 291 407Q291 425 286 441Q281 457 270 469Q259 481 240 488Q221 495 193 495H131V518H193Q229 518 253.5 540Q278 562 278 602Q278 684 175 684Q132 684 107 668.5Q82 653 62 620L43 633Q64 671 95 689Q126 707 177 707Q242 707 273.5 679.5Q305 652 305 604Q305 569 287.5 544Q270 519 238 508Q262 503 277.5 492.5Q293 482 302 468.5Q311 455 314.5 439.5Q318 424 318 408Q318 351 282 318.5Q246 286 173 286ZM680 384 662 216Q688 236 715.5 244Q743 252 773 252Q833 252 871 223Q909 194 909 130Q909 70 872 31.5Q835 -7 761 -7Q716 -7 679.5 8.5Q643 24 621 61Q622 63 631 69.5Q640 76 641 77Q658 48 687 32.5Q716 17 760 17Q823 17 852.5 49Q882 81 882 129Q882 180 852.5 205.5Q823 231 766 231Q730 231 703.5 220.5Q677 210 652 190L636 197L659 407H888V384ZM644 700 312 0H282L616 700Z" glyph-name="uni2157" horiz-adv-x="938" unicode="&#8535;" /><glyph d="M33 0ZM705 384 687 216Q713 236 740.5 244Q768 252 798 252Q858 252 896 223Q934 194 934 130Q934 70 897 31.5Q860 -7 786 -7Q741 -7 704.5 8.5Q668 24 646 61Q647 63 656 69.5Q665 76 666 77Q683 48 712 32.5Q741 17 785 17Q848 17 877.5 49Q907 81 907 129Q907 180 877.5 205.5Q848 231 791 231Q755 231 728.5 220.5Q702 210 677 190L661 197L684 407H913V384ZM669 700 337 0H307L641 700ZM33 403V424L178 700H206L61 427H265V630H292V427H360V403H292V293H265V403Z" glyph-name="uni2158" horiz-adv-x="963" unicode="&#8536;" /><glyph d="M14 0ZM112 293H85V666L25 617L14 639L94 701H112ZM648 -7Q613 -7 584 4.5Q555 16 533 40.5Q511 65 499 104Q487 143 487 199Q487 312 531 363Q575 414 650 414Q692 414 723.5 399Q755 384 772 351L752 337Q736 367 709 379Q682 391 649 391Q619 391 594.5 380.5Q570 370 552 347.5Q534 325 524 288Q514 251 514 199V177Q514 164 516 150Q523 196 558 224.5Q593 253 649 253Q710 253 747 221Q784 189 784 126Q784 65 749 29Q714 -7 648 -7ZM529 120Q529 102 536 83.5Q543 65 557 50Q571 35 593.5 25.5Q616 16 646 16Q697 16 727 44Q757 72 757 126Q757 175 727.5 202.5Q698 230 643 230Q590 230 559.5 201Q529 172 529 120ZM501 700 169 0H139L473 700Z" glyph-name="uni2159" horiz-adv-x="823" unicode="&#8537;" /><glyph d="M39 0ZM98 677 80 509Q106 529 133.5 537Q161 545 191 545Q251 545 289 516Q327 487 327 423Q327 363 290 324.5Q253 286 179 286Q134 286 97.5 301.5Q61 317 39 354Q40 356 49 362.5Q58 369 59 370Q76 341 105 325.5Q134 310 178 310Q241 310 270.5 342Q300 374 300 422Q300 473 270.5 498.5Q241 524 184 524Q148 524 121.5 513.5Q95 503 70 483L54 490L77 700H306V677ZM773 -7Q738 -7 709 4.5Q680 16 658 40.5Q636 65 624 104Q612 143 612 199Q612 312 656 363Q700 414 775 414Q817 414 848.5 399Q880 384 897 351L877 337Q861 367 834 379Q807 391 774 391Q744 391 719.5 380.5Q695 370 677 347.5Q659 325 649 288Q639 251 639 199V177Q639 164 641 150Q648 196 683 224.5Q718 253 774 253Q835 253 872 221Q909 189 909 126Q909 65 874 29Q839 -7 773 -7ZM654 120Q654 102 661 83.5Q668 65 682 50Q696 35 718.5 25.5Q741 16 771 16Q822 16 852 44Q882 72 882 126Q882 175 852.5 202.5Q823 230 768 230Q715 230 684.5 201Q654 172 654 120ZM644 700 312 0H282L616 700Z" glyph-name="uni215A" horiz-adv-x="948" unicode="&#8538;" /><glyph d="M14 0ZM112 293H85V666L25 617L14 639L94 701H112ZM628 -7Q559 -7 522 24Q485 55 485 111Q485 155 510.5 182.5Q536 210 579 218Q544 226 523.5 250Q503 274 503 312Q503 414 628 414Q754 414 754 313Q754 275 733 250.5Q712 226 677 218Q720 210 745.5 182.5Q771 155 771 111Q771 55 734.5 24Q698 -7 628 -7ZM729 312Q729 350 704 371Q679 392 628 392Q577 392 552.5 371Q528 350 528 312Q528 274 553 251.5Q578 229 628 229Q678 229 703.5 251.5Q729 274 729 312ZM744 112Q744 155 714.5 180Q685 205 628 205Q572 205 542.5 180Q513 155 513 112Q513 67 541.5 41Q570 15 628 15Q686 15 715 41Q744 67 744 112ZM501 700 169 0H139L473 700Z" glyph-name="uni215B" horiz-adv-x="819" unicode="&#8539;" /><glyph d="M33 0ZM173 286Q122 286 88.5 302.5Q55 319 33 356L53 371Q73 339 101 324.5Q129 310 171 310Q234 310 262.5 336Q291 362 291 407Q291 425 286 441Q281 457 270 469Q259 481 240 488Q221 495 193 495H131V518H193Q229 518 253.5 540Q278 562 278 602Q278 684 175 684Q132 684 107 668.5Q82 653 62 620L43 633Q64 671 95 689Q126 707 177 707Q242 707 273.5 679.5Q305 652 305 604Q305 569 287.5 544Q270 519 238 508Q262 503 277.5 492.5Q293 482 302 468.5Q311 455 314.5 439.5Q318 424 318 408Q318 351 282 318.5Q246 286 173 286ZM771 -7Q702 -7 665 24Q628 55 628 111Q628 155 653.5 182.5Q679 210 722 218Q687 226 666.5 250Q646 274 646 312Q646 414 771 414Q897 414 897 313Q897 275 876 250.5Q855 226 820 218Q863 210 888.5 182.5Q914 155 914 111Q914 55 877.5 24Q841 -7 771 -7ZM872 312Q872 350 847 371Q822 392 771 392Q720 392 695.5 371Q671 350 671 312Q671 274 696 251.5Q721 229 771 229Q821 229 846.5 251.5Q872 274 872 312ZM887 112Q887 155 857.5 180Q828 205 771 205Q715 205 685.5 180Q656 155 656 112Q656 67 684.5 41Q713 15 771 15Q829 15 858 41Q887 67 887 112ZM644 700 312 0H282L616 700Z" glyph-name="uni215C" horiz-adv-x="962" unicode="&#8540;" /><glyph d="M39 0ZM771 -7Q702 -7 665 24Q628 55 628 111Q628 155 653.5 182.5Q679 210 722 218Q687 226 666.5 250Q646 274 646 312Q646 414 771 414Q897 414 897 313Q897 275 876 250.5Q855 226 820 218Q863 210 888.5 182.5Q914 155 914 111Q914 55 877.5 24Q841 -7 771 -7ZM872 312Q872 350 847 371Q822 392 771 392Q720 392 695.5 371Q671 350 671 312Q671 274 696 251.5Q721 229 771 229Q821 229 846.5 251.5Q872 274 872 312ZM887 112Q887 155 857.5 180Q828 205 771 205Q715 205 685.5 180Q656 155 656 112Q656 67 684.5 41Q713 15 771 15Q829 15 858 41Q887 67 887 112ZM98 677 80 509Q106 529 133.5 537Q161 545 191 545Q251 545 289 516Q327 487 327 423Q327 363 290 324.5Q253 286 179 286Q134 286 97.5 301.5Q61 317 39 354Q40 356 49 362.5Q58 369 59 370Q76 341 105 325.5Q134 310 178 310Q241 310 270.5 342Q300 374 300 422Q300 473 270.5 498.5Q241 524 184 524Q148 524 121.5 513.5Q95 503 70 483L54 490L77 700H306V677ZM644 700 312 0H282L616 700Z" glyph-name="uni215D" horiz-adv-x="962" unicode="&#8541;" /><glyph d="M29 0ZM701 -7Q632 -7 595 24Q558 55 558 111Q558 155 583.5 182.5Q609 210 652 218Q617 226 596.5 250Q576 274 576 312Q576 414 701 414Q827 414 827 313Q827 275 806 250.5Q785 226 750 218Q793 210 818.5 182.5Q844 155 844 111Q844 55 807.5 24Q771 -7 701 -7ZM802 312Q802 350 777 371Q752 392 701 392Q650 392 625.5 371Q601 350 601 312Q601 274 626 251.5Q651 229 701 229Q751 229 776.5 251.5Q802 274 802 312ZM817 112Q817 155 787.5 180Q758 205 701 205Q645 205 615.5 180Q586 155 586 112Q586 67 614.5 41Q643 15 701 15Q759 15 788 41Q817 67 817 112ZM128 293H100Q100 345 111 399.5Q122 454 143 505.5Q164 557 193.5 601Q223 645 260 676H29V700H295V679Q258 654 227.5 612.5Q197 571 175 519.5Q153 468 141 409.5Q129 351 128 293ZM574 700 242 0H212L546 700Z" glyph-name="uni215E" horiz-adv-x="892" unicode="&#8542;" /><glyph d="M14 0ZM112 293H85V666L25 617L14 639L94 701H112ZM501 700 169 0H139L473 700Z" glyph-name="uni215F" horiz-adv-x="831" unicode="&#8543;" /><glyph d="M467 -198Q449 -198 432 -193.5Q415 -189 402.5 -179Q390 -169 382 -152.5Q374 -136 374 -112Q374 -87 382.5 -66.5Q391 -46 405.5 -30.5Q420 -15 438 -4.5Q456 6 474 11L471 125Q448 59 396.5 24.5Q345 -10 273 -10Q186 -10 141 37.5Q96 85 96 182V478H127V189Q127 141 138 108.5Q149 76 169 55.5Q189 35 217 26Q245 17 279 17Q325 17 359 31.5Q393 46 416.5 71.5Q440 97 453.5 132.5Q467 168 470 210V478H501V0Q482 -2 463.5 -11Q445 -20 431 -34.5Q417 -49 408 -68Q399 -87 399 -109Q399 -147 419.5 -161Q440 -175 470 -175Q487 -175 502.5 -171Q518 -167 534 -156L541 -177Q524 -188 505.5 -193Q487 -198 467 -198Z" glyph-name="uogonek" horiz-adv-x="604" unicode="&#371;" /><glyph d="M96 0ZM214 629Q214 667 238.5 691Q263 715 300 715Q335 715 359 691Q383 667 383 629Q383 591 359 567Q335 543 298 543Q263 543 238.5 567Q214 591 214 629ZM234 629Q234 600 253 580.5Q272 561 298 561Q326 561 344.5 580.5Q363 600 363 629Q363 658 344.5 677.5Q326 697 300 697Q272 697 253 677.5Q234 658 234 629ZM474 0 471 122Q448 57 396.5 23.5Q345 -10 273 -10Q186 -10 141 37.5Q96 85 96 182V478H127V189Q127 141 138 108.5Q149 76 169 55.5Q189 35 217 26Q245 17 279 17Q325 17 359 31.5Q393 46 416.5 71.5Q440 97 453.5 132.5Q467 168 470 210V478H501V0Z" glyph-name="uring" horiz-adv-x="604" unicode="&#367;" /><glyph d="M96 0ZM474 0 471 122Q448 57 396.5 23.5Q345 -10 273 -10Q186 -10 141 37.5Q96 85 96 182V478H127V189Q127 141 138 108.5Q149 76 169 55.5Q189 35 217 26Q245 17 279 17Q325 17 359 31.5Q393 46 416.5 71.5Q440 97 453.5 132.5Q467 168 470 210V478H501V0ZM398 656H423Q423 633 417 618.5Q411 604 401 595.5Q391 587 379.5 584Q368 581 358 581Q337 581 322 589.5Q307 598 294 608.5Q281 619 268 627.5Q255 636 238 636Q224 636 211 626Q198 616 197 585H172Q172 608 178 622.5Q184 637 193.5 645.5Q203 654 214 657Q225 660 236 660Q257 660 272 651.5Q287 643 300 632.5Q313 622 326.5 613.5Q340 605 358 605Q375 605 386 616Q397 627 398 656Z" glyph-name="utilde" horiz-adv-x="604" unicode="&#361;" /><glyph d="M13 478H46L233 30L421 478H453L250 0H216Z" glyph-name="v" horiz-adv-x="466" unicode="v" /><glyph d="M333 467H365L505 35L653 478H684L522 0H487L348 428L210 0H175L13 478H44L193 35Z" glyph-name="w" horiz-adv-x="696" unicode="w" /><glyph d="M13 0ZM458 667 358 563H331V566L415 671H458ZM333 467H365L505 35L653 478H684L522 0H487L348 428L210 0H175L13 478H44L193 35Z" glyph-name="wacute" horiz-adv-x="696" unicode="&#7811;" /><glyph d="M13 0ZM349 649 254 563H218V565L336 671H363L481 565V563H443ZM333 467H365L505 35L653 478H684L522 0H487L348 428L210 0H175L13 478H44L193 35Z" glyph-name="wcircumflex" horiz-adv-x="696" unicode="&#373;" /><glyph d="M13 0ZM385 610Q385 624 393.5 632Q402 640 416 640Q447 640 447 610Q447 580 416 580Q402 580 393.5 588Q385 596 385 610ZM250 610Q250 624 258 632Q266 640 280 640Q311 640 311 610Q311 580 280 580Q266 580 258 588Q250 596 250 610ZM333 467H365L505 35L653 478H684L522 0H487L348 428L210 0H175L13 478H44L193 35Z" glyph-name="wdieresis" horiz-adv-x="696" unicode="&#7813;" /><glyph d="M13 0ZM333 467H365L505 35L653 478H684L522 0H487L348 428L210 0H175L13 478H44L193 35ZM338 563 238 667V671H281L365 566V563Z" glyph-name="wgrave" horiz-adv-x="696" unicode="&#7809;" /><glyph d="M39 478H76L242 269L408 478H444L260 248L460 0H422L241 226L61 0H24L223 248Z" glyph-name="x" horiz-adv-x="484" unicode="x" /><glyph d="M198 -48 216 -2 12 478H45L233 30L421 478H453L224 -60Q204 -106 183.5 -134.5Q163 -163 141.5 -178.5Q120 -194 97.5 -199.5Q75 -205 51 -205Q32 -205 15 -202.5Q-2 -200 -22 -192L-17 -166Q0 -172 14.5 -175Q29 -178 50 -178Q69 -178 87.5 -174Q106 -170 124 -156.5Q142 -143 160.5 -117Q179 -91 198 -48Z" glyph-name="y" horiz-adv-x="466" unicode="y" /><glyph d="M274 -205Q211 -205 161 -183Q111 -161 80 -100L103 -83Q131 -138 174 -158.5Q217 -179 274 -179Q316 -179 351 -169.5Q386 -160 411 -138.5Q436 -117 450 -82Q464 -47 464 4V116Q441 57 389.5 27Q338 -3 269 -3Q184 -3 140 44Q96 91 96 189V478H127V196Q127 148 137.5 115Q148 82 167.5 61.5Q187 41 214.5 32Q242 23 275 23Q365 23 410.5 75.5Q456 128 463 213V478H494V0Q494 -55 478 -94Q462 -133 432.5 -157.5Q403 -182 362.5 -193.5Q322 -205 274 -205Z" glyph-name="y.school" horiz-adv-x="597" /><glyph d="M0 0ZM198 -48 216 -2 12 478H45L233 30L421 478H453L224 -60Q204 -106 183.5 -134.5Q163 -163 141.5 -178.5Q120 -194 97.5 -199.5Q75 -205 51 -205Q32 -205 15 -202.5Q-2 -200 -22 -192L-17 -166Q0 -172 14.5 -175Q29 -178 50 -178Q69 -178 87.5 -174Q106 -170 124 -156.5Q142 -143 160.5 -117Q179 -91 198 -48ZM342 667 242 563H215V566L299 671H342Z" glyph-name="yacute" horiz-adv-x="466" unicode="&#253;" /><glyph d="M80 0ZM274 -205Q211 -205 161 -183Q111 -161 80 -100L103 -83Q131 -138 174 -158.5Q217 -179 274 -179Q316 -179 351 -169.5Q386 -160 411 -138.5Q436 -117 450 -82Q464 -47 464 4V116Q441 57 389.5 27Q338 -3 269 -3Q184 -3 140 44Q96 91 96 189V478H127V196Q127 148 137.5 115Q148 82 167.5 61.5Q187 41 214.5 32Q242 23 275 23Q365 23 410.5 75.5Q456 128 463 213V478H494V0Q494 -55 478 -94Q462 -133 432.5 -157.5Q403 -182 362.5 -193.5Q322 -205 274 -205ZM387 667 287 563H260V566L344 671H387Z" glyph-name="yacute.school" horiz-adv-x="597" /><glyph d="M0 0ZM198 -48 216 -2 12 478H45L233 30L421 478H453L224 -60Q204 -106 183.5 -134.5Q163 -163 141.5 -178.5Q120 -194 97.5 -199.5Q75 -205 51 -205Q32 -205 15 -202.5Q-2 -200 -22 -192L-17 -166Q0 -172 14.5 -175Q29 -178 50 -178Q69 -178 87.5 -174Q106 -170 124 -156.5Q142 -143 160.5 -117Q179 -91 198 -48ZM233 649 138 563H102V565L220 671H247L365 565V563H327Z" glyph-name="ycircumflex" horiz-adv-x="466" unicode="&#375;" /><glyph d="M80 0ZM302 649 207 563H171V565L289 671H316L434 565V563H396ZM274 -205Q211 -205 161 -183Q111 -161 80 -100L103 -83Q131 -138 174 -158.5Q217 -179 274 -179Q316 -179 351 -169.5Q386 -160 411 -138.5Q436 -117 450 -82Q464 -47 464 4V116Q441 57 389.5 27Q338 -3 269 -3Q184 -3 140 44Q96 91 96 189V478H127V196Q127 148 137.5 115Q148 82 167.5 61.5Q187 41 214.5 32Q242 23 275 23Q365 23 410.5 75.5Q456 128 463 213V478H494V0Q494 -55 478 -94Q462 -133 432.5 -157.5Q403 -182 362.5 -193.5Q322 -205 274 -205Z" glyph-name="ycircumflex.school" horiz-adv-x="597" /><glyph d="M0 0ZM198 -48 216 -2 12 478H45L233 30L421 478H453L224 -60Q204 -106 183.5 -134.5Q163 -163 141.5 -178.5Q120 -194 97.5 -199.5Q75 -205 51 -205Q32 -205 15 -202.5Q-2 -200 -22 -192L-17 -166Q0 -172 14.5 -175Q29 -178 50 -178Q69 -178 87.5 -174Q106 -170 124 -156.5Q142 -143 160.5 -117Q179 -91 198 -48ZM268 610Q268 624 276.5 632Q285 640 299 640Q330 640 330 610Q330 580 299 580Q285 580 276.5 588Q268 596 268 610ZM133 610Q133 624 141 632Q149 640 163 640Q194 640 194 610Q194 580 163 580Q149 580 141 588Q133 596 133 610Z" glyph-name="ydieresis" horiz-adv-x="466" unicode="&#255;" /><glyph d="M80 0ZM341 610Q341 624 349.5 632Q358 640 372 640Q403 640 403 610Q403 580 372 580Q358 580 349.5 588Q341 596 341 610ZM206 610Q206 624 214 632Q222 640 236 640Q267 640 267 610Q267 580 236 580Q222 580 214 588Q206 596 206 610ZM274 -205Q211 -205 161 -183Q111 -161 80 -100L103 -83Q131 -138 174 -158.5Q217 -179 274 -179Q316 -179 351 -169.5Q386 -160 411 -138.5Q436 -117 450 -82Q464 -47 464 4V116Q441 57 389.5 27Q338 -3 269 -3Q184 -3 140 44Q96 91 96 189V478H127V196Q127 148 137.5 115Q148 82 167.5 61.5Q187 41 214.5 32Q242 23 275 23Q365 23 410.5 75.5Q456 128 463 213V478H494V0Q494 -55 478 -94Q462 -133 432.5 -157.5Q403 -182 362.5 -193.5Q322 -205 274 -205Z" glyph-name="ydieresis.school" horiz-adv-x="597" /><glyph d="M522 288V263H311V0H279V263H68V288H278L240 347H68V372H226L21 700H56L295 315L535 700H569L364 372H522V347H348L312 288Z" glyph-name="yen" horiz-adv-x="590" unicode="&#165;" /><glyph d="M40 0V24L382 453H49V478H419V454L76 25H425V0Z" glyph-name="z" horiz-adv-x="469" unicode="z" /><glyph d="M40 0ZM342 667 242 563H215V566L299 671H342ZM40 0V24L382 453H49V478H419V454L76 25H425V0Z" glyph-name="zacute" horiz-adv-x="469" unicode="&#378;" /><glyph d="M40 0ZM231 585 326 671H363V669L245 563H218L100 669V671H137ZM40 0V24L382 453H49V478H419V454L76 25H425V0Z" glyph-name="zcaron" horiz-adv-x="469" unicode="&#382;" /><glyph d="M40 0ZM40 0V24L382 453H49V478H419V454L76 25H425V0ZM204 610Q204 640 235 640Q265 640 265 610Q265 580 235 580Q204 580 204 610Z" glyph-name="zdotaccent" horiz-adv-x="469" unicode="&#380;" /><glyph d="M49 350Q49 448 66 516.5Q83 585 116.5 628Q150 671 199 690.5Q248 710 312 710Q376 710 425 690.5Q474 671 507.5 628Q541 585 558 516.5Q575 448 575 350Q575 252 558 184Q541 116 507.5 72.5Q474 29 425 9.5Q376 -10 312 -10Q248 -10 199 9.5Q150 29 116.5 72Q83 115 66 183.5Q49 252 49 350ZM543 350Q543 443 527.5 507Q512 571 482 610Q452 649 409 666Q366 683 312 683Q258 683 215 666Q172 649 142 610Q112 571 96.5 507.5Q81 444 81 350Q81 256 96.5 192.5Q112 129 142 90Q172 51 215 34Q258 17 312 17Q366 17 409 34Q452 51 482 90Q512 129 527.5 192.5Q543 256 543 350Z" glyph-name="zero" horiz-adv-x="625" unicode="0" /><glyph d="M80 350Q80 448 97 516.5Q114 585 147.5 628Q181 671 230 690.5Q279 710 343 710Q407 710 456.5 690.5Q506 671 539.5 628Q573 585 590 516.5Q607 448 607 350Q607 252 589.5 184Q572 116 538.5 72.5Q505 29 456 9.5Q407 -10 343 -10Q279 -10 230 9.5Q181 29 147.5 72Q114 115 97 183.5Q80 252 80 350ZM575 350Q575 443 559 507Q543 571 513 610Q483 649 440 666Q397 683 343 683Q289 683 246 666Q203 649 173.5 610Q144 571 128 507.5Q112 444 112 350Q112 256 128 192.5Q144 129 173.5 90Q203 51 246 34Q289 17 343 17Q397 17 440 34Q483 51 513 90Q543 129 559 192.5Q575 256 575 350Z" glyph-name="zero.LP" horiz-adv-x="687" /><glyph d="M76 300Q76 384 92.5 443Q109 502 140.5 539Q172 576 218 593Q264 610 322 610Q380 610 425.5 593Q471 576 502.5 539Q534 502 550.5 443Q567 384 567 300Q567 216 550.5 157Q534 98 502.5 61Q471 24 425.5 7Q380 -10 322 -10Q264 -10 218 7Q172 24 140.5 61Q109 98 92.5 157Q76 216 76 300ZM536 300Q536 380 521.5 434Q507 488 479.5 521Q452 554 412 568.5Q372 583 322 583Q272 583 232 569Q192 555 164.5 522Q137 489 122.5 434.5Q108 380 108 300Q108 220 122.5 165.5Q137 111 164.5 78Q192 45 232 31Q272 17 322 17Q372 17 412 31Q452 45 479.5 78Q507 111 521.5 165.5Q536 220 536 300Z" glyph-name="zero.OP" horiz-adv-x="644" /><glyph d="M54 300Q54 384 71.5 443Q89 502 122 539Q155 576 203 593Q251 610 312 610Q373 610 421 593Q469 576 502 539Q535 502 552.5 443Q570 384 570 300Q570 216 552.5 157Q535 98 502 61Q469 24 421 7Q373 -10 312 -10Q251 -10 203 7Q155 24 122 61Q89 98 71.5 157Q54 216 54 300ZM539 300Q539 380 523.5 434Q508 488 478.5 521Q449 554 407 568.5Q365 583 312 583Q259 583 217 569Q175 555 145.5 522Q116 489 100.5 434.5Q85 380 85 300Q85 220 100.5 165.5Q116 111 145.5 78Q175 45 217 31Q259 17 312 17Q365 17 407 31Q449 45 478.5 78Q508 111 523.5 165.5Q539 220 539 300Z" glyph-name="zero.OT" horiz-adv-x="625" /><glyph d="M48 0ZM48 4Q48 118 88.5 166Q129 214 206 214Q282 214 322 166Q362 118 362 4Q362 -109 322 -158Q282 -207 206 -207Q129 -207 88.5 -158.5Q48 -110 48 4ZM334 4Q334 56 325 92Q316 128 299.5 150Q283 172 259.5 181.5Q236 191 206 191Q175 191 151 181.5Q127 172 110.5 150Q94 128 85 92Q76 56 76 4Q76 -49 85 -85Q94 -121 110.5 -142.5Q127 -164 151 -173.5Q175 -183 205 -183Q235 -183 259 -173.5Q283 -164 299.5 -142.5Q316 -121 325 -85Q334 -49 334 4Z" glyph-name="zero.inf" horiz-adv-x="412" /><glyph glyph-name="zerowidthspace" horiz-adv-x="0" unicode="&#8203;" /></font>
</defs>
</svg>
